<svg width="50" height="50" viewBox="0 0 50 50" fill="none" xmlns="http://www.w3.org/2000/svg">
<g clip-path="url(#clip0_20_367)">
<mask id="mask0_20_367" style="mask-type:luminance" maskUnits="userSpaceOnUse" x="0" y="0" width="50" height="50">
<path d="M50 0H0V50H50V0Z" fill="white"/>
</mask>
<g mask="url(#mask0_20_367)">
<path d="M36.0713 43.0862C36.0713 43.8878 36.0713 44.8898 36.0713 45.7916C36.0713 48.1964 34.2677 50 31.8629 50C25.7506 50 19.6384 50 13.6264 50C11.2216 50 9.41797 48.1964 9.41797 45.7916C9.41797 41.984 9.41797 38.1763 9.41797 34.2685C9.41797 33.8677 9.51817 33.4669 9.91897 33.3667C10.2196 33.2665 10.6204 33.3667 10.7206 33.4669C10.921 33.6673 11.0212 34.0681 11.0212 34.3687C11.0212 38.0761 11.0212 41.7836 11.0212 45.491C11.0212 47.2946 12.0232 48.2966 13.8268 48.2966C19.7386 48.2966 25.6504 48.2966 31.5623 48.2966C33.3659 48.2966 34.3679 47.2946 34.3679 45.491C34.3679 36.2725 34.3679 27.0541 34.3679 17.9359C34.3679 17.0341 34.6685 16.6333 35.1695 16.6333C35.7707 16.6333 36.0713 17.0341 36.0713 17.9359C36.0713 18.7375 36.0713 19.5391 36.0713 20.4409C36.8729 19.7395 37.6745 20.0401 38.5763 20.0401C38.7767 20.0401 39.0773 20.4409 39.1775 20.6413C39.3779 21.1423 39.3779 21.7435 39.5783 22.3447C39.5783 22.5451 39.7787 22.6453 39.9791 22.7455C40.1795 22.8457 40.3799 22.8457 40.5803 22.9459C41.2817 23.4469 41.7827 23.2465 42.3839 22.7455C43.7867 21.7435 43.7867 21.8437 44.9891 23.0461C45.3899 23.4469 45.6905 23.7475 46.0913 24.1483C46.5923 24.6493 46.5923 24.9499 46.1915 25.5511C46.1915 25.6513 46.0913 25.6513 46.0913 25.7515C45.7907 26.2525 45.2897 26.6533 45.2897 27.1543C45.2897 27.6553 45.6905 28.1563 45.8909 28.6573C45.9911 28.7575 46.0913 28.9579 46.2917 28.9579C46.7927 29.0581 47.3939 29.1583 47.8949 29.3587C48.4961 29.4589 48.6965 29.7595 48.6965 30.3607C48.6965 31.1623 48.6965 32.0641 48.6965 32.8657C48.6965 33.3667 48.4961 33.6673 47.8949 33.8677C47.3939 33.9679 46.8929 34.0681 46.3919 34.1683C46.0913 34.2685 45.7907 34.3687 45.7907 34.7695C45.7907 34.9699 45.6905 35.1703 45.5903 35.2705C45.1895 35.8717 45.2897 36.3727 45.7907 36.9739C45.9911 37.2745 46.1915 37.5751 46.3919 37.8757C46.6925 38.2765 46.5923 38.6774 46.2917 38.978C45.6905 39.5792 44.9891 40.2806 44.3879 40.8818C44.0873 41.1824 43.6865 41.2826 43.2857 40.982C43.1855 40.8818 43.0853 40.7816 42.8849 40.7816C41.4821 39.8798 41.4821 39.8798 39.9791 40.5812C39.8789 40.6814 39.6785 40.7816 39.6785 40.982C39.5783 41.483 39.4781 41.984 39.3779 42.485C39.1775 43.1864 38.9771 43.3868 38.2757 43.3868C37.9751 43.3868 37.7747 43.3868 37.4741 43.3868C36.8729 43.3868 36.4721 43.1864 36.0713 43.0862ZM46.8929 30.9619C46.2917 30.8617 45.7907 30.6613 45.2897 30.5611C44.7887 30.4609 44.4881 30.1603 44.3879 29.6593C44.1875 28.9579 43.8869 28.3567 43.5863 27.7555C43.3859 27.2545 43.2857 26.9539 43.5863 26.4529C43.6865 26.2525 43.8869 26.0521 43.9871 25.8517C44.5883 24.9499 44.5883 24.9499 43.7867 24.2485C43.5863 24.0481 43.4861 24.0481 43.1855 24.1483C42.7847 24.4489 42.3839 24.6493 41.9831 24.9499C41.5823 25.2505 41.1815 25.1503 40.7807 24.9499C40.1795 24.6493 39.4781 24.3487 38.8769 24.1483C38.3759 23.9479 38.0753 23.7475 37.9751 23.1463C37.8749 22.6453 37.7747 22.0441 37.6745 21.6433C37.0733 21.4429 36.5723 21.3427 36.0713 21.2425C36.0713 22.9459 36.0713 24.7495 36.0713 26.5531C36.3719 26.5531 36.6725 26.5531 36.9731 26.5531C39.2777 26.5531 41.2817 28.1563 41.7827 30.4609C42.2837 32.6653 41.2817 34.9699 39.2777 35.9719C38.6765 36.2725 38.1755 36.1723 37.9751 35.7715C37.6745 35.2705 37.8749 34.8697 38.4761 34.5691C39.1775 34.1683 39.6785 33.6673 39.9791 32.8657C40.4801 31.5631 40.2797 30.3607 39.3779 29.2585C38.4761 28.3567 37.3739 28.0561 36.1715 28.2565C36.1715 32.8657 36.1715 37.3747 36.1715 41.7836C36.6725 41.6834 37.1735 41.483 37.6745 41.3828C37.7747 40.8818 37.9751 40.2806 38.0753 39.7796C38.1755 39.2786 38.3759 39.0782 38.8769 38.978C39.3779 38.7776 39.9791 38.6774 40.4801 38.3767C41.2817 37.8757 41.8829 37.9759 42.5843 38.477C43.6865 39.2786 43.6865 39.1784 44.5883 38.1763C44.5883 38.1763 44.5883 38.0761 44.6885 38.0761C44.3879 37.5751 44.0873 37.0741 43.7867 36.5731C43.5863 36.1723 43.5863 35.8717 43.6865 35.4709C43.9871 34.7695 44.2877 34.0681 44.5883 33.2665C44.6885 32.8657 44.9891 32.6653 45.3899 32.5651C45.9911 32.4649 46.5923 32.2645 47.1935 32.1643C46.8929 31.9639 46.8929 31.5631 46.8929 30.9619Z" fill="white"/>
<path d="M12.6232 31.7635C6.21042 31.7635 1 26.4529 1 20.0401C1 13.6273 6.21042 8.31664 12.7234 8.31664C19.1363 8.31664 24.4469 13.5271 24.3467 20.0401C24.3467 26.5531 19.0361 31.7635 12.6232 31.7635ZM20.3387 26.4529C23.7455 22.5451 23.5451 16.2325 19.1363 12.4249C14.9279 8.81764 8.41483 9.41884 4.90782 13.7275C1.3006 18.1363 2.50301 23.8477 5.00802 26.3527C5.00802 26.2525 5.10822 26.2525 5.10822 26.1523C6.31062 24.2485 8.01403 23.3467 10.2184 23.3467C11.8216 23.3467 13.4248 23.3467 15.0281 23.3467C15.8297 23.3467 16.6313 23.5471 17.3327 23.7475C18.7355 24.3487 19.6373 25.2505 20.3387 26.4529ZM19.0361 27.6553C18.5351 26.1523 17.0321 25.0501 15.3287 25.0501C13.5251 25.0501 11.8216 25.0501 10.018 25.0501C8.51503 25.0501 7.41283 25.7515 6.61122 27.0541C6.51102 27.2545 6.41082 27.4549 6.31062 27.7555C10.1182 30.9619 15.9299 30.5611 19.0361 27.6553Z" fill="white"/>
<path d="M36.0686 8.31664C37.6718 8.31664 39.275 8.31664 40.8782 8.31664C42.8822 8.31664 44.3852 9.71944 44.3852 11.6232C44.3852 13.5271 42.8822 14.9299 40.9784 14.9299C37.6718 14.9299 34.4654 14.9299 31.1588 14.9299C29.1548 14.9299 27.752 13.4269 27.752 11.6232C27.752 9.71944 29.255 8.31664 31.259 8.31664C32.8622 8.31664 34.4654 8.31664 36.0686 8.31664ZM36.0686 10.02C34.4654 10.02 32.8622 10.02 31.259 10.02C30.1568 10.02 29.3552 10.7214 29.3552 11.7234C29.3552 12.7255 30.1568 13.4269 31.259 13.4269C34.4654 13.4269 37.6718 13.4269 40.8782 13.4269C41.9804 13.4269 42.782 12.7255 42.782 11.7234C42.782 10.7214 41.9804 10.02 40.8782 10.02C39.275 10.02 37.6718 10.02 36.0686 10.02Z" fill="white"/>
<path d="M22.7442 0C25.65 0 28.6561 0 31.5619 0C34.2673 0 36.0709 1.80361 36.0709 4.40882C36.0709 4.90982 36.0709 5.31062 36.0709 5.81162C36.0709 6.31263 35.6701 6.71343 35.2693 6.71343C34.7683 6.71343 34.4677 6.31263 34.4677 5.81162C34.4677 5.31062 34.4677 4.70942 34.4677 4.20842C34.4677 2.80561 33.3655 1.70341 31.9627 1.70341C25.8504 1.70341 19.7382 1.70341 13.5258 1.70341C12.123 1.70341 11.121 2.80561 11.0208 4.20842C11.0208 4.70942 11.0208 5.21042 11.0208 5.81162C11.0208 6.41283 10.7202 6.71343 10.2192 6.71343C9.71818 6.71343 9.41758 6.31263 9.41758 5.81162C9.41758 5.11022 9.31738 4.40882 9.41758 3.70741C9.71818 1.60321 11.4216 0.1002 13.626 0.1002C16.632 0 19.7382 0 22.7442 0Z" fill="white"/>
<path d="M22.745 35.0701C25.1498 35.0701 27.5546 35.0701 29.8592 35.0701C30.0596 35.0701 30.1598 35.0701 30.3602 35.0701C30.761 35.1703 31.0616 35.4709 31.0616 35.8717C31.0616 36.3727 30.761 36.5731 30.3602 36.6733C30.1598 36.6733 30.0596 36.6733 29.8592 36.6733C25.0496 36.6733 20.3401 36.6733 15.5305 36.6733C15.3301 36.6733 15.2299 36.6733 15.0295 36.6733C14.6287 36.5731 14.3281 36.2725 14.3281 35.8717C14.3281 35.3707 14.6287 35.1703 15.0295 35.0701C15.2299 35.0701 15.3301 35.0701 15.5305 35.0701C17.9353 35.0701 20.3401 35.0701 22.745 35.0701Z" fill="white"/>
<path d="M21.0416 43.3868C19.1377 43.3868 17.2339 43.3868 15.3301 43.3868C14.7289 43.3868 14.3281 42.986 14.3281 42.485C14.3281 41.984 14.7289 41.6834 15.3301 41.6834C16.9333 41.6834 18.4363 41.6834 20.0395 41.6834C22.244 41.6834 24.4484 41.6834 26.753 41.6834C27.3542 41.6834 27.755 42.0842 27.755 42.5852C27.755 43.0862 27.3542 43.3868 26.753 43.3868C24.8492 43.3868 22.9454 43.3868 21.0416 43.3868Z" fill="white"/>
<path d="M18.536 40.0801C17.5339 40.0801 16.4317 40.0801 15.4297 40.0801C14.7283 40.0801 14.4277 39.7795 14.4277 39.2785C14.4277 38.7775 14.8285 38.4769 15.4297 38.4769C17.5339 38.4769 19.6382 38.4769 21.6422 38.4769C22.3436 38.4769 22.6442 38.7775 22.6442 39.2785C22.6442 39.7795 22.2434 40.0801 21.6422 40.0801C20.6402 40.0801 19.538 40.0801 18.536 40.0801Z" fill="white"/>
<path d="M22.7441 5.01002C21.9425 5.01002 21.1409 5.01002 20.4395 5.01002C19.8383 5.01002 19.4375 4.70942 19.4375 4.20842C19.4375 3.70742 19.8383 3.40681 20.4395 3.40681C22.0427 3.40681 23.5457 3.40681 25.1489 3.40681C25.7501 3.40681 26.1509 3.70742 26.1509 4.20842C26.0507 4.70942 25.6499 5.01002 25.0487 5.01002C24.2471 5.01002 23.4455 5.01002 22.7441 5.01002Z" fill="white"/>
<path d="M4.30664 35.8717C4.30664 35.3707 4.70744 34.9699 5.10824 34.9699C5.50905 34.9699 5.90985 35.3707 5.90985 35.7715C5.90985 36.2725 5.50905 36.6733 5.00804 36.6733C4.70744 36.6733 4.30664 36.2725 4.30664 35.8717Z" fill="white"/>
<path d="M4.30664 39.1784C4.30664 38.6773 4.70744 38.2766 5.20844 38.2766C5.70945 38.2766 6.01005 38.6774 6.01005 39.0782C6.01005 39.5792 5.60925 39.98 5.10824 39.98C4.60724 39.98 4.30664 39.6794 4.30664 39.1784Z" fill="white"/>
<path d="M4.30664 42.485C4.30664 41.984 4.70744 41.5832 5.20844 41.5832C5.60925 41.5832 6.01005 41.984 6.01005 42.485C6.01005 42.986 5.60925 43.3868 5.10824 43.3868C4.60724 43.2866 4.30664 42.986 4.30664 42.485Z" fill="white"/>
<path d="M12.724 13.3267C15.0287 13.3267 16.9325 15.2305 16.8323 17.5351C16.8323 19.8397 14.9285 21.7435 12.6238 21.6433C10.3192 21.6433 8.51562 19.7395 8.51562 17.4349C8.51563 15.2305 10.4194 13.3267 12.724 13.3267ZM15.2291 17.5351C15.2291 16.1323 14.1268 15.0301 12.724 15.0301C11.3212 15.0301 10.219 16.1323 10.219 17.5351C10.219 18.9379 11.3212 20.0401 12.724 20.0401C14.0266 20.0401 15.2291 18.9379 15.2291 17.5351Z" fill="white"/>
</g>
</g>
<defs>
<clipPath id="clip0_20_367">
<rect width="50" height="50" fill="white"/>
</clipPath>
</defs>
</svg>
