<svg width="50" height="50" viewBox="0 0 50 50" fill="none" xmlns="http://www.w3.org/2000/svg">
<g clip-path="url(#clip0_15_10177)">
<path fill-rule="evenodd" clip-rule="evenodd" d="M6.52148 1C6.52148 0.447716 6.9692 0 7.52148 0H7.6954C8.24768 0 8.6954 0.447715 8.6954 1V4.44444H23.9139V1C23.9139 0.447716 24.3616 0 24.9139 0H25.0878C25.6401 0 26.0878 0.447715 26.0878 1V4.44444H41.3048V1C41.3048 0.447716 41.7525 0 42.3048 0H42.4787C43.031 0 43.4787 0.447715 43.4787 1V4.44444H46C48.2091 4.44444 50 6.23531 50 8.44444V46C50 48.2091 48.2091 50 46 50H4C1.79086 50 0 48.2091 0 46V8.44445C0 6.23531 1.79086 4.44444 4 4.44444H6.52148V1ZM46 6.44444H4C2.89543 6.44444 2 7.33988 2 8.44445V14.4444H48V8.44444C48 7.33987 47.1046 6.44444 46 6.44444ZM48 16.6667H2V46C2 47.1046 2.89543 48 4 48H46C47.1046 48 48 47.1046 48 46V16.6667ZM27.434 22H22.5645C22.0122 22 21.5645 22.4477 21.5645 23V27C21.5645 27.5523 22.0122 28 22.5645 28H27.434C27.9863 28 28.434 27.5523 28.434 27V23C28.434 22.4477 27.9863 22 27.434 22ZM22.5645 20C20.9076 20 19.5645 21.3431 19.5645 23V27C19.5645 28.6569 20.9076 30 22.5645 30H27.434C29.0909 30 30.434 28.6569 30.434 27V23C30.434 21.3431 29.0909 20 27.434 20H22.5645ZM22.5645 35.3333H27.434C27.9863 35.3333 28.434 35.781 28.434 36.3333V40.3333C28.434 40.8856 27.9863 41.3333 27.434 41.3333H22.5645C22.0122 41.3333 21.5645 40.8856 21.5645 40.3333V36.3333C21.5645 35.781 22.0122 35.3333 22.5645 35.3333ZM19.5645 36.3333C19.5645 34.6765 20.9076 33.3333 22.5645 33.3333H27.434C29.0909 33.3333 30.434 34.6765 30.434 36.3333V40.3333C30.434 41.9902 29.0909 43.3333 27.434 43.3333H22.5645C20.9076 43.3333 19.5645 41.9902 19.5645 40.3333V36.3333ZM13.3032 35.3333H8.43359C7.88131 35.3333 7.43359 35.781 7.43359 36.3333V40.3333C7.43359 40.8856 7.88131 41.3333 8.43359 41.3333H13.3032C13.8554 41.3333 14.3032 40.8856 14.3032 40.3333V36.3333C14.3032 35.781 13.8554 35.3333 13.3032 35.3333ZM8.43359 33.3333C6.77674 33.3333 5.43359 34.6765 5.43359 36.3333V40.3333C5.43359 41.9902 6.77674 43.3333 8.43359 43.3333H13.3032C14.96 43.3333 16.3032 41.9902 16.3032 40.3333V36.3333C16.3032 34.6765 14.96 33.3333 13.3032 33.3333H8.43359ZM36.6973 22H41.5668C42.1191 22 42.5668 22.4477 42.5668 23V27C42.5668 27.5523 42.1191 28 41.5668 28H36.6973C36.145 28 35.6973 27.5523 35.6973 27V23C35.6973 22.4477 36.145 22 36.6973 22ZM33.6973 23C33.6973 21.3431 35.0404 20 36.6973 20H41.5668C43.2237 20 44.5668 21.3431 44.5668 23V27C44.5668 28.6569 43.2237 30 41.5668 30H36.6973C35.0404 30 33.6973 28.6569 33.6973 27V23ZM41.5668 35.3333H36.6973C36.145 35.3333 35.6973 35.781 35.6973 36.3333V40.3333C35.6973 40.8856 36.145 41.3333 36.6973 41.3333H41.5668C42.1191 41.3333 42.5668 40.8856 42.5668 40.3333V36.3333C42.5668 35.781 42.1191 35.3333 41.5668 35.3333ZM36.6973 33.3333C35.0404 33.3333 33.6973 34.6765 33.6973 36.3333V40.3333C33.6973 41.9902 35.0404 43.3333 36.6973 43.3333H41.5668C43.2237 43.3333 44.5668 41.9902 44.5668 40.3333V36.3333C44.5668 34.6765 43.2237 33.3333 41.5668 33.3333H36.6973ZM18.2132 22.527C18.5636 22.1001 18.5078 21.4625 18.0886 21.103L17.9414 20.9766C17.5222 20.6171 16.8983 20.6717 16.5479 21.0985L11.5909 27.1373L8.45809 23.3208C8.10768 22.8939 7.48379 22.8393 7.06459 23.1989L6.91733 23.3252C6.49813 23.6847 6.44237 24.3223 6.79278 24.7492L10.5984 29.3853C10.6539 29.4831 10.7266 29.573 10.8159 29.6503L10.8234 29.6594C11.038 29.9208 11.3551 30.0426 11.6649 30.0152C11.9242 29.999 12.1764 29.8791 12.3569 29.6612L12.3642 29.655C12.4586 29.574 12.5346 29.479 12.5916 29.3753L18.2132 22.527Z" fill="#1155C1"/>
</g>
<defs>
<clipPath id="clip0_15_10177">
<rect width="50" height="50" fill="white"/>
</clipPath>
</defs>
</svg>
