<svg width="50" height="50" viewBox="0 0 50 50" fill="none" xmlns="http://www.w3.org/2000/svg">
<g clip-path="url(#clip0_20_471)">
<mask id="mask0_20_471" style="mask-type:luminance" maskUnits="userSpaceOnUse" x="0" y="0" width="50" height="50">
<path d="M50 0H0V50H50V0Z" fill="white"/>
</mask>
<g mask="url(#mask0_20_471)">
<path d="M0 25C0 20.3 0 15.6 0 11C0 9.3 0 7.5 0 5.8C0 2.4 2.33266 0 5.78093 0C7.30223 0 8.92495 0 10.4462 0C21.6024 0 32.86 0 44.0162 0C46.2475 0 48.073 0.8 49.1886 2.8C49.6957 3.7 49.8986 4.7 49.8986 5.8C49.8986 9.4 49.8986 13 49.8986 16.6C49.8986 25.9 49.8986 35.1 49.8986 44.4C49.8986 47.1 48.2759 49.2 45.7404 49.9C45.2333 50 44.7262 50.1 44.2191 50.1C31.3387 50.1 18.5598 50.1 5.67951 50.1C2.33266 50 0 47.6 0 44.3C0 37.9 0 31.4 0 25ZM48.8844 10.7C32.9615 10.7 17.14 10.7 1.21704 10.7C1.21704 10.9 1.21704 11.1 1.21704 11.2C1.21704 22.2 1.21704 33.3 1.21704 44.3C1.21704 47.1 3.0426 48.9 5.88235 48.9C18.6613 48.9 31.4402 48.9 44.2191 48.9C44.6247 48.9 45.1318 48.9 45.5375 48.7C47.5659 48.2 48.8844 46.5 48.8844 44.2C48.8844 33.2 48.8844 22.2 48.8844 11.2C48.8844 11 48.8844 10.9 48.8844 10.7ZM48.783 9.4C48.783 7.8 48.783 6.2 48.783 4.6V4.5C48.2759 2.4 46.5517 1.1 44.3205 1.1C35.6998 1.1 27.1805 1.1 18.5598 1.1C14.3002 1.1 10.0406 1.1 5.78093 1.1C3.0426 1.2 1.11562 3 1.11562 5.7C1.11562 6.8 1.11562 7.9 1.11562 9C1.11562 9.1 1.11562 9.3 1.11562 9.4C17.0385 9.4 32.9615 9.4 48.783 9.4Z" fill="white"/>
<path d="M40.1623 35.4C40.6694 37.3 41.1765 39.1 41.6836 40.9C41.785 41.1 41.6836 41.5 41.5822 41.7C41.2779 42 40.9737 41.8 40.6694 41.6C38.0325 39.6 35.497 37.7 32.8601 35.7C32.6572 35.5 32.2516 35.4 31.9473 35.4C27.282 35.4 22.5153 35.4 17.8499 35.4C17.5457 35.4 17.2414 35.5 16.9372 35.7C14.4017 37.6 11.8662 39.6 9.22925 41.5C9.12783 41.6 8.92499 41.7 8.82357 41.8C8.62073 41.8 8.31647 41.8 8.21505 41.7C8.11363 41.5 8.11363 41.2 8.11363 41C8.51931 39.4 8.92499 37.8 9.43209 36.2C9.53351 35.9 9.53351 35.7 9.63493 35.4C9.22925 35.4 8.92499 35.3 8.62073 35.3C6.89659 35.1 5.47672 33.6 5.47672 31.9C5.47672 28.3 5.3753 24.7 5.47672 21.1C5.47672 19.2 7.09943 17.7 9.02641 17.6C9.12783 17.6 9.33067 17.6 9.43209 17.6C19.7769 17.6 30.1217 17.6 40.4666 17.6C42.3936 17.6 43.8134 18.6 44.3205 20.3C44.4219 20.7 44.5234 21.2 44.5234 21.6C44.5234 24.9 44.5234 28.1 44.5234 31.4C44.5234 33.8 43.0021 35.3 40.568 35.4C40.3652 35.4 40.2637 35.4 40.1623 35.4ZM25.4564 18.8C25.4564 24 25.4564 29.1 25.4564 34.3C25.6593 34.3 25.8621 34.3 26.065 34.3C28.0933 34.3 30.2232 34.3 32.2516 34.3C32.5558 34.3 32.9615 34.4 33.1643 34.6C34.5842 35.6 36.0041 36.7 37.424 37.8C38.3368 38.5 39.1481 39.1 40.1623 39.9C40.0609 39.6 40.0609 39.3 39.9595 39.1C39.6552 37.8 39.2495 36.6 38.9453 35.3C38.7424 34.5 38.9453 34.3 39.7566 34.3C39.9595 34.3 40.1623 34.3 40.3652 34.3C42.2921 34.3 43.3063 33.3 43.3063 31.4C43.3063 28.2 43.3063 25 43.3063 21.8C43.3063 19.9 42.2921 18.9 40.3652 18.9C35.5984 18.9 30.8317 18.9 26.1664 18.9C25.8621 18.8 25.6593 18.8 25.4564 18.8ZM24.2394 18.8C24.0366 18.8 23.8337 18.8 23.6309 18.8C21.0954 18.8 18.6613 18.8 16.1258 18.8C13.7931 18.8 11.5619 18.8 9.22925 18.8C7.60653 18.8 6.49091 19.9 6.49091 21.3C6.49091 24.8 6.49091 28.3 6.49091 31.7C6.49091 33.1 7.60653 34.2 9.02641 34.2C9.43209 34.2 9.93919 34.2 10.3449 34.2C10.852 34.2 11.0548 34.5 10.9534 35C10.9534 35.1 10.852 35.3 10.852 35.4C10.4463 36.8 10.0406 38.2 9.63493 39.7C9.83777 39.5 9.93919 39.5 10.142 39.4C12.2718 37.8 14.4017 36.2 16.5315 34.6C16.8357 34.4 17.2414 34.2 17.6471 34.2C19.5741 34.2 21.6025 34.2 23.5295 34.2C23.7323 34.2 24.0366 34.2 24.2394 34.2C24.2394 29.1 24.2394 24 24.2394 18.8Z" fill="white"/>
<path d="M9.1282 5.3C9.1282 6.6 8.11401 7.6 6.79555 7.6C5.47709 7.6 4.46289 6.6 4.46289 5.3C4.46289 4 5.47709 3 6.79555 3C8.11401 3 9.1282 4 9.1282 5.3ZM6.79555 6.5C7.40407 6.5 8.01259 6 8.01259 5.3C8.01259 4.6 7.50549 4.1 6.79555 4.1C6.08561 4.1 5.57851 4.7 5.57851 5.4C5.67993 6 6.18703 6.5 6.79555 6.5Z" fill="white"/>
<path d="M17.8496 5.3C17.8496 4 18.8638 3 20.1823 3C21.5007 3 22.5149 4 22.5149 5.3C22.5149 6.6 21.5007 7.7 20.1823 7.6C18.8638 7.6 17.8496 6.6 17.8496 5.3ZM21.3993 5.3C21.3993 4.6 20.8922 4.1 20.1823 4.1C19.4723 4.1 18.9652 4.6 18.9652 5.3C18.9652 5.9 19.4723 6.5 20.1823 6.5C20.8922 6.5 21.3993 6 21.3993 5.3Z" fill="white"/>
<path d="M15.8214 5.3C15.8214 6.6 14.8072 7.6 13.4888 7.7C12.1703 7.7 11.0547 6.7 11.0547 5.4C11.1561 4 12.1703 3 13.4888 3C14.8072 3 15.8214 4 15.8214 5.3ZM13.4888 6.5C14.1987 6.5 14.7058 6 14.7058 5.3C14.7058 4.7 14.1987 4.1 13.4888 4.1C12.7788 4.1 12.2717 4.6 12.2717 5.3C12.2717 5.9 12.8802 6.5 13.4888 6.5Z" fill="white"/>
<path d="M36.1054 29.1C34.9898 29.1 33.8742 29.1 32.7586 29.1C32.6572 29.1 32.4543 29.3 32.4543 29.4C32.1501 30.2 31.9472 31 31.7444 31.8C31.643 32.2 31.4401 32.5 30.933 32.4C30.5273 32.3 30.4259 32 30.6288 31.5C31.643 28.1 32.6572 24.6 33.7728 21.2C33.8742 20.9 33.9756 20.6 34.3813 20.6C34.787 20.6 34.8884 20.9 34.9898 21.3C36.004 24.7 37.0182 28.1 38.0324 31.5C38.0324 31.6 38.0324 31.6 38.1338 31.7C38.2353 32 38.1338 32.4 37.8296 32.5C37.4239 32.6 37.2211 32.4 37.0182 32C36.8154 31.2 36.5111 30.4 36.3083 29.7C36.3083 29.4 36.2069 29.3 36.1054 29.1ZM35.8012 28C35.2941 26.4 34.8884 24.8 34.3813 23.2C33.8742 24.9 33.3671 26.4 32.9614 28C33.8742 28 34.787 28 35.8012 28Z" fill="white"/>
<path d="M16.3293 30.5C15.6194 30.5 14.9095 30.7 14.1995 30.6C13.0839 30.5 12.1711 29.9 11.4612 29.1C9.83846 27.2 9.83846 24.2 11.4612 22.2C13.2867 20 16.4308 20.1 18.1549 22.3C19.7776 24.3 19.5748 27.4 17.8506 29.2C17.5464 29.5 17.445 30.5 17.5464 30.9C17.6478 31.2 18.2563 31.4 18.7634 31.3C19.1691 31.2 19.4733 31.1 19.3719 30.6C19.3719 30.3 19.3719 30 19.3719 29.8C19.3719 29.5 19.5748 29.2 19.9804 29.2C20.3861 29.2 20.589 29.4 20.589 29.8C20.589 30.2 20.589 30.7 20.589 31.1C20.589 31.2 20.4875 31.4 20.4875 31.5C20.1833 32.3 19.0677 32.8 17.9521 32.5C16.9379 32.3 16.4308 31.7 16.4308 30.8C16.3293 30.6 16.3293 30.5 16.3293 30.5ZM17.445 27.8C18.5606 26.1 18.1549 23.6 16.6336 22.4C15.518 21.5 14.0981 21.5 12.9825 22.3C11.2583 23.6 10.9541 26.2 12.1711 28C12.2725 28.2 12.374 28.3 12.5768 28.5C12.6782 27.3 13.2867 26.7 14.4024 26.5C15.6194 26.2 16.735 26.7 17.445 27.8ZM16.4308 28.7C16.4308 28.1 16.1265 27.8 15.6194 27.7C15.3151 27.6 14.9095 27.6 14.5038 27.7C13.7938 27.8 13.4896 28.3 13.591 29.1C13.6924 29.7 14.1995 29.5 14.6052 29.5C15.0109 29.5 15.4166 29.4 15.8222 29.2C16.1265 29.1 16.3293 28.9 16.4308 28.7Z" fill="white"/>
</g>
</g>
<defs>
<clipPath id="clip0_20_471">
<rect width="50" height="50" fill="white"/>
</clipPath>
</defs>
</svg>
