<svg width="431" height="384" viewBox="0 0 431 384" fill="none" xmlns="http://www.w3.org/2000/svg">
<g clip-path="url(#clip0_20_6142)">
<path fill-rule="evenodd" clip-rule="evenodd" d="M340.425 119.566C395.244 136.346 431 163.404 431 191.956C431 220.42 395.42 247.478 340.952 264.258C353.691 319.956 348.156 364.321 323.47 378.553C317.671 381.891 310.995 383.472 303.615 383.472C279.456 383.472 247.829 366.429 215.851 336.735C183.873 366.605 152.247 383.824 128.088 383.824C120.708 383.824 114.031 382.242 108.321 378.904C83.5469 364.672 77.9244 320.219 90.575 264.345C35.7556 247.566 0 220.508 0 191.956C0 163.492 35.5799 136.521 90.2236 119.654C77.4851 63.956 83.0198 19.5909 107.706 5.35895C113.504 2.02059 120.181 0.439258 127.561 0.439258V0.351408C151.72 0.351408 183.346 17.3946 215.324 47.0885C247.302 17.2189 278.929 0 303.088 0V0.0879269C310.346 0.10059 316.992 1.6826 322.679 5.00754C347.453 19.2395 353.076 63.6924 340.425 119.566ZM303 19.591C284.729 19.6377 257.886 34.2169 229.293 60.7933C241.68 73.7075 253.979 88.4666 265.839 104.719C285.606 106.828 304.406 110.078 321.625 114.295C323.557 105.422 325.139 96.7246 326.105 88.4666C330.146 54.9073 324.963 28.8153 313.015 21.9629C310.292 20.4694 307.041 19.6788 303 19.6788V19.591ZM201.356 60.8812C172.716 34.4378 145.746 19.9423 127.561 19.9423V20.0302C123.519 20.0302 120.093 20.733 117.458 22.3143C105.598 29.2546 100.502 55.3465 104.631 88.9058C105.685 97.076 107.179 105.598 109.2 114.383C126.418 110.078 145.219 106.828 165.073 104.719C176.757 88.4666 189.057 73.7954 201.356 60.8812ZM304.757 168.06C309.326 156.376 313.367 144.692 316.617 133.359C305.109 130.547 293.073 128.263 280.598 126.418C284.903 133.095 289.207 139.948 293.249 146.976C297.378 154.004 301.155 161.032 304.757 168.06ZM255.209 260.48C262.501 250.026 269.529 238.781 276.381 226.921C282.97 215.412 289.032 203.64 294.566 191.868C289.032 180.096 282.97 168.412 276.293 156.903C269.441 145.131 262.325 133.974 255.033 123.519C242.031 122.465 228.766 121.85 215.5 121.85C202.147 121.85 188.881 122.465 175.791 123.607C168.499 134.062 161.471 145.307 154.619 157.167C148.03 168.675 141.88 180.447 136.434 192.219C141.968 203.991 148.03 215.676 154.707 227.184C161.559 238.956 168.675 250.114 175.967 260.568C188.969 261.622 202.234 262.237 215.5 262.237C228.853 262.237 242.119 261.622 255.209 260.48ZM316.881 250.465C313.542 239.044 309.501 227.272 304.757 215.5C301.155 222.528 297.378 229.644 293.337 236.672C289.295 243.788 284.991 250.729 280.686 257.493C293.249 255.648 305.372 253.276 316.881 250.465ZM191.253 281.125C199.335 291.404 207.506 300.804 215.676 309.238C223.758 300.804 231.928 291.404 239.835 281.125C231.84 281.564 223.67 281.74 215.412 281.74C207.242 281.74 199.16 281.477 191.253 281.125ZM114.295 250.553C125.804 253.364 137.839 255.648 150.314 257.493C146.009 250.816 141.792 243.964 137.663 236.936C133.534 229.908 129.757 222.88 126.155 215.851C121.587 227.536 117.545 239.22 114.295 250.553ZM239.659 102.786C231.577 92.5077 223.407 83.1076 215.236 74.6739C207.154 83.1076 198.984 92.5077 191.077 102.786C199.072 102.347 207.242 102.171 215.5 102.171C223.67 102.171 231.753 102.435 239.659 102.786ZM137.576 147.239C141.617 140.123 145.922 133.183 150.226 126.418C137.663 128.263 125.54 130.635 114.031 133.359C117.37 144.779 121.411 156.552 126.155 168.324C129.757 161.296 133.534 154.267 137.576 147.239ZM19.5031 191.956C19.5031 205.748 39.6211 223.143 70.7206 236.409C78.3637 239.659 86.6217 242.646 95.319 245.37C100.239 228.238 106.74 210.405 114.822 192.131C106.652 173.77 100.063 155.849 95.0554 138.63C86.5338 141.353 78.2758 144.252 70.7206 147.503C39.6211 160.681 19.5031 178.163 19.5031 191.956ZM104.895 295.445C100.854 329.004 106.037 355.096 117.985 361.949C120.62 363.442 123.959 364.233 127.912 364.321C146.185 364.321 173.068 349.737 201.707 323.118C189.32 310.204 177.021 295.445 165.161 279.192C145.394 277.084 126.594 273.833 109.375 269.617C107.443 278.49 105.861 287.187 104.895 295.445ZM313.542 361.597C325.402 354.657 330.498 328.565 326.369 295.006C325.402 286.835 323.821 278.314 321.8 269.441C304.582 273.746 285.781 276.996 265.927 279.105C254.243 295.357 241.943 310.028 229.644 322.943C258.284 349.386 285.254 363.881 303.439 363.881C307.481 363.881 310.907 363.179 313.542 361.597ZM335.857 245.282C344.378 242.558 352.636 239.659 360.192 236.409C391.291 223.231 411.409 205.748 411.497 191.956C411.497 178.163 391.379 160.768 360.279 147.503C352.548 144.252 344.29 141.265 335.593 138.542C330.673 155.673 324.172 173.507 316.09 191.78C324.26 210.141 330.849 228.063 335.857 245.282ZM255.56 191.956C255.56 214.129 237.585 232.104 215.412 232.104C193.239 232.104 175.264 214.129 175.264 191.956C175.264 169.783 193.239 151.808 215.412 151.808C237.585 151.808 255.56 169.783 255.56 191.956Z" fill="url(#paint0_linear_20_6142)"/>
</g>
<defs>
<linearGradient id="paint0_linear_20_6142" x1="216" y1="153.5" x2="215.5" y2="383.824" gradientUnits="userSpaceOnUse">
<stop stop-color="#139ED9"/>
<stop offset="1" stop-color="#0F7CAA"/>
</linearGradient>
<clipPath id="clip0_20_6142">
<rect width="431" height="383.824" fill="white"/>
</clipPath>
</defs>
</svg>
