<svg width="51" height="50" viewBox="0 0 51 50" fill="none" xmlns="http://www.w3.org/2000/svg">
<g clip-path="url(#clip0_20_483)">
<mask id="mask0_20_483" style="mask-type:luminance" maskUnits="userSpaceOnUse" x="0" y="0" width="51" height="50">
<path d="M50.0011 0H0V50.0001H50.0011V0Z" fill="white"/>
</mask>
<g mask="url(#mask0_20_483)">
<path fill-rule="evenodd" clip-rule="evenodd" d="M44.0535 39.1893C44.6043 39.5998 45.3875 39.4874 45.7703 38.9164C49.0262 34.0572 50.4832 28.1962 49.8602 22.3535C49.1942 16.0974 46.1942 10.3224 41.4578 6.18086C36.7215 2.03928 30.5985 -0.164384 24.3094 0.00956653C18.0203 0.183509 12.0281 2.72228 7.52815 7.11932C3.02815 11.5164 0.352364 17.4483 0.0320517 23.7317C-0.286308 30.015 1.77619 36.1877 5.80744 41.0181C9.83674 45.8485 15.5418 48.9814 21.7801 49.7918C27.6082 50.5486 33.5008 49.2277 38.4344 46.0845C39.0125 45.7152 39.1434 44.9356 38.7469 44.375C38.3485 43.8145 37.5731 43.6857 36.991 44.0518C32.5711 46.8343 27.3074 47.9997 22.1004 47.3236C16.4832 46.594 11.3465 43.7729 7.7176 39.4234C4.08674 35.0739 2.23127 29.5158 2.51838 23.858C2.80549 18.2001 5.21565 12.8587 9.26838 8.89942C13.3192 4.94012 18.7156 2.6541 24.3778 2.49747C30.0418 2.34083 35.5555 4.32512 39.8192 8.05439C44.0848 11.7837 46.786 16.9837 47.3856 22.617C47.9403 27.8367 46.6551 33.0727 43.7703 37.4278C43.3914 38.0009 43.5028 38.7788 44.0535 39.1893ZM17.0008 16.018V24.818C17.0008 27.818 17.0008 30.718 17.1004 33.618C17.1004 34.418 17.3016 35.018 18.0028 35.418C18.7039 35.818 19.4051 35.618 20.0067 35.218C24.3153 32.218 28.7235 29.318 33.1336 26.418C34.536 25.418 34.536 24.018 33.1336 23.118C30.9071 21.654 28.7059 20.19 26.5067 18.7261C24.3485 17.2901 22.1903 15.854 20.0067 14.418C19.4051 14.018 18.7039 13.818 18.0028 14.218C17.202 14.618 17.0008 15.218 17.0008 16.018ZM28.7781 23.3179L31.0281 24.818C29.075 26.1179 27.1727 27.3927 25.2684 28.6676C23.3641 29.9427 21.4598 31.2179 19.5067 32.518V17.218C22.6571 19.2339 25.6785 21.2497 28.7781 23.3179Z" fill="white"/>
</g>
</g>
<defs>
<clipPath id="clip0_20_483">
<rect width="51" height="50" fill="white"/>
</clipPath>
</defs>
</svg>
