<svg width="50" height="50" viewBox="0 0 50 50" fill="none" xmlns="http://www.w3.org/2000/svg">
<g clip-path="url(#clip0_20_489)">
<mask id="mask0_20_489" style="mask-type:luminance" maskUnits="userSpaceOnUse" x="0" y="0" width="50" height="50">
<path d="M50 0H0V50H50V0Z" fill="white"/>
</mask>
<g mask="url(#mask0_20_489)">
<path d="M44.272 0C45.2738 0.601102 45.4742 1.50275 45.4742 2.60477C45.4742 10.7196 45.4742 18.9347 45.4742 27.0496C45.4742 27.2499 45.4742 27.4503 45.4742 27.5505C45.4742 27.9512 45.1736 28.2518 44.7729 28.2518C44.3722 28.2518 44.0716 28.0514 43.9714 27.5505C43.9714 27.3501 43.9714 27.1498 43.9714 27.0496C43.9714 21.3391 43.9714 15.6286 43.9714 9.81799C43.9714 9.61763 43.9714 9.41726 43.9714 9.21689C31.4485 9.21689 19.0257 9.21689 6.50275 9.21689C6.50275 9.41726 6.50275 9.51744 6.50275 9.71781C6.50275 22.3409 6.50275 35.0643 6.50275 47.6874C6.50275 48.4889 6.60294 48.589 7.40441 48.589C19.3263 48.589 31.2481 48.589 43.1699 48.589C43.9714 48.589 44.0716 48.4889 44.0716 47.6874C44.0716 41.9769 44.0716 36.3666 44.0716 30.6562C44.0716 30.4558 44.0716 30.2554 44.0716 30.1553C44.1718 29.7545 44.3722 29.5542 44.8731 29.5542C45.2738 29.5542 45.5744 29.8547 45.5744 30.2554C45.5744 30.3556 45.5744 30.556 45.5744 30.6562C45.5744 36.3666 45.5744 41.9769 45.5744 47.6874C45.5744 49.2903 44.7729 49.9916 43.2701 49.9916C31.3483 49.9916 19.4264 49.9916 7.50459 49.9916C5.80147 50.0918 5 49.2903 5 47.7876C5 32.5597 5 17.4319 5 2.30422C5 1.30239 5.30055 0.500918 6.30239 0C18.9255 0 31.5487 0 44.272 0ZM43.9714 7.71414C43.9714 7.61395 43.9714 7.41359 43.9714 7.3134C43.9714 5.61028 43.9714 3.80698 43.9714 2.10386C43.9714 1.50275 43.771 1.40257 43.1699 1.40257C31.2481 1.40257 19.2261 1.40257 7.30422 1.40257C6.70312 1.40257 6.50275 1.50275 6.50275 2.20404C6.50275 3.90716 6.50275 5.71046 6.50275 7.41359C6.50275 7.51377 6.50275 7.61395 6.50275 7.81432C19.0257 7.71414 31.4485 7.71414 43.9714 7.71414Z" fill="white"/>
<path d="M13.2161 13.2242C16.7225 14.8272 20.229 16.4301 23.7354 18.1332C24.8374 18.7343 25.739 18.7343 26.8411 18.1332C30.1471 16.4301 33.5534 14.9274 36.9596 13.3244C37.0598 13.2242 37.16 13.2242 37.2602 13.0239C37.0598 13.0239 36.9596 13.0239 36.7592 13.0239C33.4532 13.0239 30.2473 13.0239 26.9413 13.0239C26.8411 13.0239 26.6407 13.0239 26.5405 13.0239C26.1398 13.0239 25.8392 12.7233 25.8392 12.3226C25.8392 11.9218 26.1398 11.6213 26.5405 11.6213C26.6407 11.6213 26.8411 11.6213 26.9413 11.6213C31.149 11.6213 35.4569 11.6213 39.6646 11.6213C40.967 11.6213 41.4679 12.2224 41.4679 13.4246C41.4679 17.5321 41.4679 21.7398 41.4679 25.8474C41.4679 27.0496 40.8668 27.6507 39.6646 27.6507C30.0469 27.6507 20.4293 27.6507 10.8117 27.6507C9.5093 27.6507 8.9082 27.0496 8.9082 25.7472C8.9082 21.6397 8.9082 17.5321 8.9082 13.4246C8.9082 12.2224 9.5093 11.6213 10.7115 11.6213C15.0194 11.6213 19.2271 11.6213 23.535 11.6213C23.6352 11.6213 23.8356 11.6213 23.9357 11.6213C24.3365 11.7215 24.637 11.9218 24.637 12.3226C24.637 12.7233 24.4367 13.0239 23.9357 13.0239C23.8356 13.0239 23.6352 13.0239 23.535 13.0239C20.3291 13.0239 17.0231 13.0239 13.8172 13.0239C13.5166 13.124 13.4165 13.124 13.2161 13.2242ZM10.411 13.5248C10.411 17.6323 10.411 21.6397 10.411 25.7472C14.7189 23.7435 19.0267 21.7398 23.4348 19.636C19.1269 17.6323 14.819 15.6286 10.411 13.5248ZM26.9413 19.636C31.3493 21.6397 35.6572 23.7435 39.9651 25.7472C39.9651 21.6397 39.9651 17.6323 39.9651 13.5248C35.6572 15.6286 31.3493 17.6323 26.9413 19.636ZM37.3603 26.2481C37.16 26.1479 37.16 26.0477 37.0598 26.0477C33.1526 24.2444 29.3457 22.4411 25.4385 20.6378C25.2381 20.5376 25.0378 20.6378 24.8374 20.6378C21.0304 22.4411 17.2234 24.2444 13.4165 26.0477C13.3163 26.0477 13.2161 26.1479 13.1159 26.2481C21.2308 26.2481 29.2455 26.2481 37.3603 26.2481Z" fill="white"/>
<path d="M8.9082 38.1699C8.9082 36.0661 8.9082 33.9622 8.9082 31.8584C8.9082 30.7564 9.5093 30.1553 10.6113 30.1553C14.5185 30.1553 18.4256 30.1553 22.2326 30.1553C23.3346 30.1553 23.9357 30.7564 23.9357 31.8584C23.9357 36.0661 23.9357 40.2738 23.9357 44.4815C23.9357 45.5835 23.3346 46.1846 22.2326 46.1846C18.4256 46.1846 14.5185 46.1846 10.7115 46.1846C9.5093 46.1846 8.9082 45.5835 8.9082 44.3813C8.9082 42.2775 8.9082 40.2738 8.9082 38.1699ZM10.411 32.76C10.411 36.7674 10.411 40.7747 10.411 44.6819C14.1178 44.6819 17.7244 44.6819 21.5313 44.6819C17.8245 40.6745 14.1178 36.7674 10.411 32.76ZM11.4128 31.658C15.1196 35.6654 18.8264 39.5725 22.5332 43.5799C22.5332 39.5725 22.5332 35.6654 22.5332 31.658C18.8264 31.658 15.2198 31.658 11.4128 31.658Z" fill="white"/>
<path d="M41.467 38.1699C41.467 40.2738 41.467 42.3777 41.467 44.4815C41.467 45.5835 40.8659 46.1846 39.7639 46.1846C35.8567 46.1846 32.0497 46.1846 28.1426 46.1846C27.0406 46.1846 26.4395 45.5835 26.4395 44.4815C26.4395 40.2738 26.4395 36.0661 26.4395 31.8584C26.4395 30.7564 27.0406 30.1553 28.1426 30.1553C32.0497 30.1553 35.8567 30.1553 39.7639 30.1553C40.8659 30.1553 41.467 30.7564 41.467 31.8584C41.467 33.9622 41.467 36.0661 41.467 38.1699ZM27.9422 32.76C27.9422 36.7674 27.9422 40.6745 27.9422 44.5817C31.649 44.5817 35.2556 44.5817 39.0626 44.5817C35.3558 40.6745 31.649 36.7674 27.9422 32.76ZM39.9642 43.5799C39.9642 39.5725 39.9642 35.6654 39.9642 31.7582C36.2574 31.7582 32.6508 31.7582 28.8439 31.7582C32.6508 35.6654 36.2574 39.5725 39.9642 43.5799Z" fill="white"/>
<path d="M33.9521 6.81249C32.7499 6.81249 31.748 5.81065 31.748 4.50826C31.748 3.20588 32.7499 2.20404 34.0523 2.30423C35.2545 2.30423 36.2563 3.30606 36.2563 4.60845C36.1561 5.81065 35.1543 6.81249 33.9521 6.81249ZM34.7536 4.50826C34.7536 4.10753 34.453 3.7068 33.9521 3.7068C33.5514 3.7068 33.1506 4.00735 33.1506 4.50826C33.1506 4.909 33.4512 5.30973 33.9521 5.30973C34.453 5.30973 34.7536 5.00918 34.7536 4.50826Z" fill="white"/>
<path d="M41.4672 4.50826C41.4672 5.71046 40.4654 6.71229 39.2632 6.71229C37.9608 6.71229 36.959 5.71046 36.959 4.40807C36.959 3.20587 37.9608 2.20403 39.2632 2.20403C40.4654 2.30422 41.4672 3.30605 41.4672 4.50826ZM40.0647 4.50826C40.0647 4.10752 39.7641 3.70679 39.2632 3.70679C38.8625 3.70679 38.4617 4.10752 38.4617 4.50826C38.4617 4.90899 38.8625 5.30972 39.2632 5.30972C39.6639 5.30972 40.0647 5.00916 40.0647 4.50826Z" fill="white"/>
</g>
</g>
<defs>
<clipPath id="clip0_20_489">
<rect width="50" height="50" fill="white"/>
</clipPath>
</defs>
</svg>
