<svg width="24" height="24" viewBox="0 0 24 24" fill="none" xmlns="http://www.w3.org/2000/svg">
<g clip-path="url(#clip0_124_256)">
<path d="M14.0284 11.0725L7.55713 17.5297L10.7923 20.7649L10.8934 20.866L10.9945 20.9671L11.1967 21.1693L14.9404 17.5317L21.4007 11.0715H14.0294L14.0284 11.0725Z" fill="#5CC1F6"/>
<path d="M11.2983 13.7966L11.1972 13.8975L11.0961 13.9984L10.995 14.0993L10.8939 14.2002L10.7928 14.301L7.55713 17.5297L14.0274 24H21.4007L14.9404 17.5317L11.2983 13.7966Z" fill="#01579B"/>
<path d="M14.0284 11.0725L7.55713 17.5297L10.7923 20.7649L10.8934 20.866L10.9945 20.9671L11.1967 21.1693L14.9404 17.5317L21.4007 11.0715H14.0294L14.0284 11.0725Z" fill="#5CC1F6" fill-opacity="0.84"/>
<path d="M14.0145 0L2 12.0005L5.70015 15.7007L21.3848 0.0120005H14.0275L14.0145 0Z" fill="#5CC1F6"/>
</g>
<defs>
<clipPath id="clip0_124_256">
<rect width="24" height="24" fill="white"/>
</clipPath>
</defs>
</svg>
