<svg width="24" height="24" viewBox="0 0 24 24" fill="none" xmlns="http://www.w3.org/2000/svg">
<path d="M11.6399 24C11.3189 24 10.9989 23.916 10.7179 23.753L7.78193 22.016C7.34393 21.771 7.55793 21.684 7.70193 21.633C8.28692 21.43 8.40492 21.383 9.02992 21.029C9.09491 20.992 9.18091 21.006 9.24791 21.046L11.5039 22.385C11.5458 22.4073 11.5925 22.4189 11.6399 22.4189C11.6873 22.4189 11.734 22.4073 11.7759 22.385L20.5708 17.3091C20.6118 17.2844 20.6457 17.2494 20.6692 17.2077C20.6926 17.166 20.7049 17.1189 20.7048 17.0711V6.92118C20.7047 6.87247 20.6921 6.82459 20.6681 6.7822C20.6441 6.7398 20.6095 6.70432 20.5678 6.67919L11.7769 1.60724C11.7355 1.58412 11.6888 1.57198 11.6414 1.57198C11.594 1.57198 11.5473 1.58412 11.5059 1.60724L2.71698 6.68019C2.67509 6.70506 2.64029 6.74029 2.61595 6.7825C2.59161 6.82471 2.57853 6.87246 2.57798 6.92118V17.0711C2.57818 17.1191 2.59116 17.1661 2.61559 17.2074C2.64002 17.2487 2.67502 17.2828 2.71698 17.3061L5.12596 18.6981C6.43294 19.352 7.23393 18.5821 7.23393 17.8081V7.78717C7.23393 7.64518 7.34793 7.53418 7.48993 7.53418H8.60492C8.74392 7.53418 8.85992 7.64618 8.85992 7.78717V17.8081C8.85992 19.553 7.90993 20.553 6.25594 20.553C5.74795 20.553 5.34695 20.553 4.22997 20.002L1.92199 18.6751C1.64145 18.5117 1.40867 18.2776 1.24689 17.9961C1.08511 17.7147 0.999976 17.3957 1 17.0711V6.92118C1 6.26219 1.353 5.6462 1.92199 5.3182L10.7169 0.236256C11.0002 0.0812453 11.3179 0 11.6409 0C11.9638 0 12.2816 0.0812453 12.5649 0.236256L21.3588 5.3182C21.9288 5.6472 22.2828 6.26219 22.2828 6.92118V17.0711C22.2822 17.3958 22.1966 17.7148 22.0345 17.9962C21.8724 18.2776 21.6394 18.5116 21.3588 18.6751L12.5649 23.753C12.2849 23.916 11.9659 24 11.6399 24ZM18.7408 13.9931C18.7408 12.0931 17.4568 11.5871 14.7539 11.2301C12.0229 10.8691 11.7449 10.6821 11.7449 10.0432C11.7449 9.51516 11.9799 8.81016 14.0029 8.81016C15.8098 8.81016 16.4758 9.19916 16.7498 10.4171C16.7623 10.4734 16.7936 10.5238 16.8385 10.5599C16.8833 10.5961 16.9392 10.6159 16.9968 10.6161H18.1378C18.1727 10.6158 18.2071 10.6084 18.239 10.5945C18.271 10.5806 18.2998 10.5604 18.3238 10.5351C18.348 10.5089 18.3664 10.4779 18.3779 10.4442C18.3895 10.4105 18.3939 10.3747 18.3908 10.3391C18.2138 8.24117 16.8198 7.26318 14.0029 7.26318C11.4949 7.26318 9.99891 8.32117 9.99891 10.0961C9.99891 12.0211 11.4869 12.5531 13.8939 12.7911C16.7738 13.0731 16.9968 13.4941 16.9968 14.0601C16.9968 15.0431 16.2078 15.4621 14.3549 15.4621C12.0279 15.4621 11.5159 14.8781 11.3439 13.7201C11.3343 13.66 11.3036 13.6052 11.2572 13.5658C11.2108 13.5264 11.1518 13.5048 11.0909 13.5051H9.95391C9.92056 13.5048 9.88749 13.5112 9.85662 13.5238C9.82575 13.5364 9.79769 13.555 9.77407 13.5786C9.75044 13.6021 9.73172 13.6301 9.71899 13.6609C9.70626 13.6917 9.69977 13.7248 9.69991 13.7581C9.69991 15.2401 10.5059 17.0061 14.3549 17.0061C17.1428 17.0071 18.7408 15.9101 18.7408 13.9931Z" fill="#69A167"/>
</svg>
