<svg width="512" height="512" viewBox="0 0 512 512" fill="none" xmlns="http://www.w3.org/2000/svg">
<path d="M384 24H128C117.391 24 107.217 28.2143 99.7157 35.7157C92.2143 43.2172 88 53.3913 88 64V200C88 210.609 92.2143 220.783 99.7157 228.284C107.217 235.786 117.391 240 128 240H384C394.609 240 404.783 235.786 412.284 228.284C419.786 220.783 424 210.609 424 200V64C424 53.3913 419.786 43.2172 412.284 35.7157C404.783 28.2143 394.609 24 384 24ZM152 224V200C152 193.635 154.529 187.53 159.029 183.029C163.53 178.529 169.635 176 176 176H224C230.365 176 236.47 178.529 240.971 183.029C245.471 187.53 248 193.635 248 200V224H152ZM408 200C408 206.365 405.471 212.47 400.971 216.971C396.47 221.471 390.365 224 384 224H264V200C264 189.391 259.786 179.217 252.284 171.716C244.783 164.214 234.609 160 224 160H176C165.391 160 155.217 164.214 147.716 171.716C140.214 179.217 136 189.391 136 200V224H128C121.635 224 115.53 221.471 111.029 216.971C106.529 212.47 104 206.365 104 200V64C104 57.6348 106.529 51.5303 111.029 47.0294C115.53 42.5286 121.635 40 128 40H384C390.365 40 396.47 42.5286 400.971 47.0294C405.471 51.5303 408 57.6348 408 64V200ZM128 392H80C69.3913 392 59.2172 396.214 51.7157 403.716C44.2143 411.217 40 421.391 40 432V480C40 482.122 40.8429 484.157 42.3431 485.657C43.8434 487.157 45.8783 488 48 488H160C162.122 488 164.157 487.157 165.657 485.657C167.157 484.157 168 482.122 168 480V432C168 421.391 163.786 411.217 156.284 403.716C148.783 396.214 138.609 392 128 392ZM152 472H56V432C56 425.635 58.5286 419.53 63.0294 415.029C67.5303 410.529 73.6348 408 80 408H128C134.365 408 140.47 410.529 144.971 415.029C149.471 419.53 152 425.635 152 432V472ZM64 336C64 343.911 66.346 351.645 70.7412 358.223C75.1365 364.801 81.3836 369.928 88.6927 372.955C96.0017 375.983 104.044 376.775 111.804 375.231C119.563 373.688 126.69 369.878 132.284 364.284C137.878 358.69 141.688 351.563 143.231 343.804C144.775 336.044 143.983 328.002 140.955 320.693C137.928 313.384 132.801 307.136 126.223 302.741C119.645 298.346 111.911 296 104 296C93.3913 296 83.2172 300.214 75.7157 307.716C68.2143 315.217 64 325.391 64 336ZM104 312C108.747 312 113.387 313.408 117.334 316.045C121.28 318.682 124.357 322.43 126.173 326.816C127.99 331.201 128.465 336.027 127.539 340.682C126.613 345.338 124.327 349.614 120.971 352.971C117.614 356.327 113.338 358.613 108.682 359.539C104.027 360.465 99.201 359.99 94.8156 358.173C90.4302 356.357 86.6819 353.28 84.0447 349.334C81.4076 345.387 80 340.747 80 336C80 329.635 82.5286 323.53 87.0294 319.029C91.5303 314.529 97.6348 312 104 312ZM432 392H384C373.391 392 363.217 396.214 355.716 403.716C348.214 411.217 344 421.391 344 432V480C344 482.122 344.843 484.157 346.343 485.657C347.843 487.157 349.878 488 352 488H464C466.122 488 468.157 487.157 469.657 485.657C471.157 484.157 472 482.122 472 480V432C472 421.391 467.786 411.217 460.284 403.716C452.783 396.214 442.609 392 432 392ZM456 472H360V432C360 425.635 362.529 419.53 367.029 415.029C371.53 410.529 377.635 408 384 408H432C438.365 408 444.47 410.529 448.971 415.029C453.471 419.53 456 425.635 456 432V472ZM368 336C368 343.911 370.346 351.645 374.741 358.223C379.136 364.801 385.384 369.928 392.693 372.955C400.002 375.983 408.044 376.775 415.804 375.231C423.563 373.688 430.69 369.878 436.284 364.284C441.878 358.69 445.688 351.563 447.231 343.804C448.775 336.044 447.983 328.002 444.955 320.693C441.928 313.384 436.801 307.136 430.223 302.741C423.645 298.346 415.911 296 408 296C397.391 296 387.217 300.214 379.716 307.716C372.214 315.217 368 325.391 368 336ZM432 336C432 340.747 430.592 345.387 427.955 349.334C425.318 353.28 421.57 356.357 417.184 358.173C412.799 359.99 407.973 360.465 403.318 359.539C398.662 358.613 394.386 356.327 391.029 352.971C387.673 349.614 385.387 345.338 384.461 340.682C383.535 336.027 384.01 331.201 385.827 326.816C387.643 322.43 390.72 318.682 394.666 316.045C398.613 313.408 403.253 312 408 312C414.365 312 420.47 314.529 424.971 319.029C429.471 323.53 432 329.635 432 336ZM280 392H232C221.391 392 211.217 396.214 203.716 403.716C196.214 411.217 192 421.391 192 432V480C192 482.122 192.843 484.157 194.343 485.657C195.843 487.157 197.878 488 200 488H312C314.122 488 316.157 487.157 317.657 485.657C319.157 484.157 320 482.122 320 480V432C320 421.391 315.786 411.217 308.284 403.716C300.783 396.214 290.609 392 280 392ZM304 472H208V432C208 425.635 210.529 419.53 215.029 415.029C219.53 410.529 225.635 408 232 408H280C286.365 408 292.47 410.529 296.971 415.029C301.471 419.53 304 425.635 304 432V472ZM216 336C216 343.911 218.346 351.645 222.741 358.223C227.136 364.801 233.384 369.928 240.693 372.955C248.002 375.983 256.044 376.775 263.804 375.231C271.563 373.688 278.69 369.878 284.284 364.284C289.878 358.69 293.688 351.563 295.231 343.804C296.775 336.044 295.983 328.002 292.955 320.693C289.928 313.384 284.801 307.136 278.223 302.741C271.645 298.346 263.911 296 256 296C245.391 296 235.217 300.214 227.716 307.716C220.214 315.217 216 325.391 216 336ZM280 336C280 340.747 278.592 345.387 275.955 349.334C273.318 353.28 269.57 356.357 265.184 358.173C260.799 359.99 255.973 360.465 251.318 359.539C246.662 358.613 242.386 356.327 239.029 352.971C235.673 349.614 233.387 345.338 232.461 340.682C231.535 336.027 232.01 331.201 233.827 326.816C235.643 322.43 238.72 318.682 242.666 316.045C246.613 313.408 251.253 312 256 312C262.365 312 268.47 314.529 272.971 319.029C277.471 323.53 280 329.635 280 336Z" fill="black"/>
<path d="M200 64C192.089 64 184.355 66.346 177.777 70.7412C171.199 75.1365 166.072 81.3836 163.045 88.6927C160.017 96.0017 159.225 104.044 160.769 111.804C162.312 119.563 166.122 126.69 171.716 132.284C177.31 137.878 184.437 141.688 192.196 143.231C199.956 144.775 207.998 143.983 215.307 140.955C222.616 137.928 228.864 132.801 233.259 126.223C237.654 119.645 240 111.911 240 104C240 93.3913 235.786 83.2172 228.284 75.7157C220.783 68.2143 210.609 64 200 64ZM200 128C195.253 128 190.613 126.592 186.666 123.955C182.72 121.318 179.643 117.57 177.827 113.184C176.01 108.799 175.535 103.973 176.461 99.3178C177.387 94.6623 179.673 90.3859 183.029 87.0294C186.386 83.673 190.662 81.3872 195.318 80.4612C199.973 79.5351 204.799 80.0104 209.184 81.8269C213.57 83.6434 217.318 86.7195 219.955 90.6663C222.592 94.6131 224 99.2532 224 104C224 110.365 221.471 116.47 216.971 120.971C212.47 125.471 206.365 128 200 128ZM280 88H376V104H280V88ZM280 152H376V168H280V152ZM280 120H344V136H280V120Z" fill="black"/>
</svg>
