<svg width="512" height="512" viewBox="0 0 512 512" fill="none" xmlns="http://www.w3.org/2000/svg">
<g clip-path="url(#clip0_639_2)">
<path fill-rule="evenodd" clip-rule="evenodd" d="M119.72 64.1679C119.2 64.1119 118.768 64.1679 118.456 64.1999C118.072 64.2479 118.016 64.2799 117.84 64.3119C117.591 64.3047 117.342 64.3208 117.096 64.3599L109.08 65.6399C108.943 65.6595 108.807 65.6862 108.672 65.7199C107.142 66.1491 105.841 67.1586 105.044 68.5333C104.248 69.908 104.019 71.5394 104.408 73.0799L106.512 80.9679C105.263 81.7902 104.074 82.6991 102.952 83.6879L95.888 79.6239C94.5035 78.8603 92.8767 78.6638 91.3502 79.0756C89.8237 79.4875 88.5166 80.4756 87.704 81.8319C87.6987 81.8319 87.6933 81.8319 87.688 81.8319L83.656 88.7919C82.8774 90.1788 82.6716 91.815 83.0826 93.3515C83.4936 94.888 84.4889 96.203 85.856 97.0159L92.896 101.08C92.584 102.56 92.408 104.04 92.312 105.544L84.472 107.64C84.4667 107.64 84.4613 107.64 84.456 107.64C82.9255 108.067 81.6231 109.077 80.8277 110.452C80.0322 111.828 79.8069 113.46 80.2 115C80.2 115.005 80.2 115.011 80.2 115.016L80.736 116.952L81.768 120.832L82.28 122.768C82.2799 122.779 82.2799 122.789 82.28 122.8C82.707 124.333 83.7197 125.637 85.0996 126.43C86.4796 127.224 88.1161 127.443 89.656 127.04L97.512 124.936C98.352 126.192 99.248 127.384 100.248 128.512L96.184 135.552C95.4051 136.937 95.1983 138.571 95.6079 140.106C96.0174 141.641 97.0108 142.955 98.376 143.768L105.36 147.8C106.745 148.577 108.379 148.782 109.913 148.373C111.448 147.964 112.762 146.971 113.576 145.608C113.576 145.603 113.576 145.597 113.576 145.592L117.656 138.552C119.128 138.848 120.608 139.048 122.112 139.144L124.2 147C124.631 148.531 125.644 149.832 127.023 150.625C128.402 151.418 130.036 151.638 131.576 151.24L139.344 149.16C140.874 148.731 142.175 147.721 142.972 146.346C143.768 144.972 143.996 143.34 143.608 141.8L141.512 133.96C142.768 133.12 143.936 132.2 145.064 131.2L152.128 135.264C153.513 136.044 155.149 136.251 156.685 135.84C158.22 135.428 159.534 134.432 160.344 133.064C160.344 133.059 160.344 133.053 160.344 133.048L164.36 126.088H164.344C165.124 124.704 165.332 123.07 164.924 121.536C164.516 120.001 163.524 118.686 162.16 117.872L155.12 113.816C155.424 112.336 155.6 110.856 155.68 109.36L163.544 107.232C165.075 106.804 166.379 105.796 167.177 104.421C167.975 103.046 168.204 101.413 167.816 99.8719C167.816 99.8666 167.816 99.8612 167.816 99.8559L167.28 97.9199L166.784 95.9999C166.779 95.9892 166.773 95.9785 166.768 95.9679L166.248 94.0319L165.736 92.1119C165.736 92.1066 165.736 92.1012 165.736 92.0959C165.309 90.5619 164.297 89.2567 162.918 88.4609C161.538 87.6651 159.902 87.4421 158.36 87.8399L150.496 89.9519C149.672 88.6973 148.76 87.5023 147.768 86.3759L151.832 79.3279C152.607 77.9408 152.811 76.3057 152.398 74.771C151.986 73.2363 150.99 71.9234 149.624 71.1119L142.656 67.0959C141.271 66.3156 139.635 66.1089 138.099 66.5201C136.563 66.9314 135.25 67.9278 134.44 69.2959L130.376 76.3279C128.901 76.0316 127.406 75.8391 125.904 75.7519L123.816 67.8879L123.904 68.3679C123.78 67.6377 123.505 66.9416 123.095 66.3243C122.686 65.707 122.152 65.1823 121.528 64.7839C120.973 64.4587 120.358 64.2492 119.72 64.1679ZM305.264 71.4399C293.56 71.4399 282.896 77.0879 275.392 85.9359C271.792 84.1359 268.072 82.4399 264.016 82.4399C250.544 82.4399 239.776 92.9199 238.512 106.08C236.888 105.6 235.488 104.44 233.768 104.44C226.52 104.44 220.792 109.328 218.08 115.832C204.696 116.872 194.016 127.792 194.016 141.432C194.024 148.325 196.766 154.933 201.641 159.807C206.515 164.681 213.123 167.423 220.016 167.432H272V200H117.344C112.481 200.019 107.823 201.963 104.388 205.406C100.954 208.849 99.0223 213.513 99.016 218.376V300H88V251.44C88 250.379 87.5786 249.362 86.8284 248.611C86.0783 247.861 85.0609 247.44 84 247.44H28C26.9391 247.44 25.9217 247.861 25.1716 248.611C24.4214 249.362 24 250.379 24 251.44V347.44C24 348.501 24.4214 349.518 25.1716 350.268C25.9217 351.018 26.9391 351.44 28 351.44H84C85.0609 351.44 86.0783 351.018 86.8284 350.268C87.5786 349.518 88 348.501 88 347.44V308H99.016V408.24H79.016C77.9551 408.24 76.9377 408.661 76.1876 409.411C75.4374 410.162 75.016 411.179 75.016 412.24C75.016 417.989 76.1487 423.681 78.3493 428.992C80.55 434.302 83.7754 439.128 87.8415 443.191C91.9075 447.255 96.7344 450.478 102.046 452.676C107.358 454.873 113.051 456.003 118.8 456H431.232C436.981 456.003 442.674 454.873 447.986 452.676C453.298 450.478 458.124 447.255 462.191 443.191C466.257 439.128 469.482 434.302 471.683 428.992C473.883 423.681 475.016 417.989 475.016 412.24C475.016 411.179 474.595 410.162 473.844 409.411C473.094 408.661 472.077 408.24 471.016 408.24H451.016V303.44H468C469.061 303.44 470.078 303.018 470.828 302.268C471.579 301.518 472 300.501 472 299.44C472 298.379 471.579 297.362 470.828 296.611C470.078 295.861 469.061 295.44 468 295.44H462.832C458.52 295.44 455.072 291.992 455.072 287.44V279.44H503.408C508.232 279.44 512 275.28 512 270.56V176.32C512 171.584 508.232 167.44 503.408 167.44H368.592C363.768 167.44 360 171.584 360 176.32V200H280V167.44H330.016C336.909 167.431 343.517 164.689 348.391 159.815C353.266 154.941 356.008 148.333 356.016 141.44C356.016 132.296 350.816 124.816 343.672 120.2C344.368 117.24 345.016 114.24 345.016 111.184C344.997 100.648 340.802 90.5484 333.351 83.0988C325.9 75.6493 315.8 71.4568 305.264 71.4399ZM115.736 71.7839C116.296 72.1039 116.208 71.8079 116.592 71.9039L116.608 71.9359L115.728 71.7759L115.736 71.7839ZM116.768 72.5119L118.856 80.3279C119.09 81.2076 119.617 81.9811 120.35 82.5207C121.083 83.0603 121.979 83.3338 122.888 83.2959C125.744 83.1679 128.592 83.5359 131.312 84.4079C132.183 84.6869 133.124 84.6589 133.977 84.3284C134.83 83.998 135.544 83.3851 136 82.5919L140.376 75.0159L143.904 77.0479L139.544 84.6239C139.091 85.41 138.919 86.3267 139.055 87.2236C139.192 88.1206 139.629 88.9444 140.296 89.5599C142.4 91.4959 144.152 93.7839 145.456 96.3279C145.874 97.1401 146.558 97.7846 147.393 98.1542C148.229 98.5239 149.166 98.5965 150.048 98.3599L158.512 96.0959C158.512 96.1066 158.512 96.1172 158.512 96.1279L159.048 98.0479L159.544 99.9839C159.549 99.9946 159.555 100.005 159.56 100.016L151.096 102.296C150.212 102.533 149.436 103.065 148.898 103.805C148.359 104.544 148.09 105.446 148.136 106.36C148.28 109.208 147.912 112.064 147.064 114.784C146.792 115.65 146.823 116.583 147.152 117.429C147.481 118.275 148.087 118.984 148.872 119.44L156.44 123.8L154.392 127.344L146.792 122.968C146.001 122.515 145.079 122.345 144.178 122.488C143.277 122.63 142.452 123.076 141.84 123.752C139.928 125.856 137.648 127.608 135.12 128.92C134.314 129.342 133.676 130.026 133.311 130.859C132.946 131.692 132.875 132.625 133.112 133.504L135.376 141.936L131.424 143L129.16 134.544C128.924 133.663 128.394 132.889 127.657 132.351C126.921 131.812 126.023 131.542 125.112 131.584C122.261 131.718 119.409 131.347 116.688 130.488C115.82 130.212 114.883 130.241 114.034 130.57C113.184 130.899 112.472 131.508 112.016 132.296L107.656 139.872L104.112 137.832L108.488 130.248C108.945 129.458 109.118 128.535 108.979 127.632C108.839 126.73 108.395 125.903 107.72 125.288C105.605 123.364 103.847 121.081 102.528 118.544C102.107 117.735 101.422 117.094 100.587 116.727C99.752 116.36 98.8166 116.29 97.936 116.528L89.496 118.816V118.8C89.496 118.795 89.496 118.789 89.496 118.784L88.456 114.872C88.456 114.867 88.456 114.861 88.456 114.856L96.888 112.616C97.7718 112.381 98.5485 111.85 99.0886 111.112C99.6286 110.374 99.8995 109.473 99.856 108.56C99.728 105.712 100.104 102.856 100.976 100.144C101.251 99.2748 101.221 98.3378 100.891 97.4882C100.56 96.6385 99.9497 95.9271 99.16 95.4719L91.576 91.0959L93.624 87.5599L101.2 91.9039C101.986 92.3599 102.904 92.5347 103.803 92.3995C104.701 92.2643 105.527 91.8271 106.144 91.1599C108.064 89.0559 110.352 87.3039 112.888 85.9999C113.7 85.5816 114.345 84.8979 114.714 84.0625C115.084 83.2271 115.157 82.2903 114.92 81.4079L112.704 73.1599L116.768 72.5119ZM305.264 79.4399C310.229 79.4297 315.128 80.5862 319.564 82.8162C324.001 85.0462 327.851 88.2874 330.805 92.2784C333.76 96.2694 335.735 100.899 336.572 105.793C337.409 110.687 337.084 115.71 335.624 120.456C335.345 121.373 335.405 122.36 335.793 123.236C336.181 124.113 336.87 124.821 337.736 125.232C340.816 126.673 343.42 128.964 345.241 131.836C347.063 134.707 348.025 138.039 348.016 141.44C348.016 151.48 340.056 159.44 330.016 159.44H288.096V147.44H297.424C298.227 147.439 299.011 147.196 299.674 146.744C300.337 146.291 300.849 145.649 301.142 144.902C301.436 144.154 301.497 143.336 301.319 142.553C301.141 141.77 300.732 141.059 300.144 140.512L278.736 120.512C278.344 120.145 277.881 119.861 277.377 119.677C276.873 119.493 276.336 119.412 275.8 119.44C274.842 119.489 273.933 119.881 273.24 120.544L252.264 140.544C251.686 141.095 251.286 141.806 251.115 142.587C250.945 143.367 251.012 144.181 251.308 144.922C251.604 145.664 252.116 146.301 252.776 146.749C253.437 147.198 254.217 147.438 255.016 147.44H264.36V159.44H220.016C217.647 159.457 215.299 159.003 213.108 158.104C210.916 157.206 208.925 155.881 207.25 154.206C205.575 152.531 204.25 150.54 203.351 148.348C202.453 146.157 201.999 143.808 202.016 141.44C202.016 131.4 209.976 123.44 220.016 123.44H220.296C221.217 123.44 222.11 123.123 222.824 122.542C223.538 121.96 224.03 121.15 224.216 120.248C224.543 118.618 225.282 117.099 226.363 115.836C227.444 114.574 228.831 113.609 230.391 113.036C231.951 112.462 233.633 112.298 235.274 112.559C236.916 112.82 238.463 113.498 239.768 114.528C240.396 115.022 241.158 115.316 241.955 115.373C242.752 115.43 243.548 115.247 244.24 114.848C244.932 114.449 245.489 113.851 245.838 113.132C246.187 112.414 246.313 111.607 246.2 110.816C245.85 108.274 246.049 105.687 246.784 103.228C247.52 100.77 248.775 98.4986 250.464 96.567C252.153 94.6354 254.236 93.0888 256.574 92.0318C258.912 90.9747 261.45 90.4319 264.016 90.4399C267.616 90.4399 271.12 91.5279 274.096 93.5439C274.957 94.1312 276.013 94.3596 277.039 94.1803C278.065 94.001 278.981 93.4282 279.592 92.5839C282.526 88.5167 286.385 85.2043 290.849 82.9192C295.314 80.6341 300.249 79.4417 305.264 79.4399ZM124.384 87.3439V87.3599C124.116 87.3759 123.851 87.4188 123.592 87.4879C123.581 87.4932 123.571 87.4985 123.56 87.5039C121.96 87.5279 120.36 87.5999 118.816 88.0159C113.84 89.3688 109.571 92.5758 106.885 96.9782C104.2 101.381 103.302 106.644 104.376 111.688C104.432 111.968 104.48 112.24 104.536 112.472C104.553 112.544 104.571 112.616 104.592 112.688C104.656 112.928 104.744 113.168 104.832 113.44H104.816C104.984 113.968 105.192 114.496 105.408 115.016L105.424 115.032C107.28 119.555 110.716 123.249 115.093 125.427C119.47 127.605 124.489 128.119 129.216 126.872C129.221 126.872 129.227 126.872 129.232 126.872C133.95 125.585 138.04 122.627 140.739 118.549C143.439 114.47 144.563 109.55 143.904 104.704L143.816 104.016C143.816 103.989 143.816 103.963 143.816 103.936C143.715 103.363 143.59 102.794 143.44 102.232C143.435 102.216 143.429 102.2 143.424 102.184C143.255 101.578 143.058 100.98 142.832 100.392C142.827 100.371 142.821 100.349 142.816 100.328L142.768 100.232C142.768 100.227 142.768 100.221 142.768 100.216L142.608 99.8399C139.928 93.2719 133.808 89.1199 126.888 88.0479C126.58 87.8338 126.243 87.6642 125.888 87.5439L125.856 87.7039C125.472 87.6639 125.176 87.3599 124.784 87.3439C124.651 87.3372 124.517 87.3372 124.384 87.3439ZM124.464 95.3599H124.488C129.224 95.5599 133.408 98.4799 135.208 102.88C135.221 102.925 135.234 102.971 135.248 103.016C135.283 103.086 135.316 103.158 135.344 103.232L135.392 103.328C135.622 103.974 135.799 104.637 135.92 105.312L135.968 105.712C135.973 105.739 135.978 105.765 135.984 105.792C136.407 108.717 135.743 111.696 134.117 114.164C132.491 116.633 130.017 118.42 127.162 119.187C124.308 119.953 121.271 119.647 118.627 118.326C115.984 117.004 113.916 114.759 112.816 112.016C112.811 111.995 112.806 111.973 112.8 111.952C112.661 111.629 112.535 111.301 112.424 110.968C112.424 110.963 112.424 110.957 112.424 110.952C112.378 110.82 112.335 110.686 112.296 110.552V110.528L112.216 110.144C112.212 110.09 112.206 110.037 112.2 109.984C112.136 109.688 112.072 109.392 112.032 109.08C111.788 107.33 111.931 105.549 112.452 103.86C112.972 102.172 113.857 100.619 115.043 99.3104C116.23 98.0018 117.689 96.9697 119.318 96.287C120.948 95.6044 122.707 95.2879 124.472 95.3599H124.464ZM43.824 127.52C43.5884 127.545 43.3555 127.59 43.128 127.656L33.8 130.16C32.1668 130.612 30.7756 131.686 29.9248 133.151C29.0739 134.617 28.8309 136.357 29.248 138L31.92 147.952C30.0988 149.109 28.3805 150.42 26.784 151.872L17.872 146.768C16.398 145.946 14.6625 145.729 13.0314 146.162C11.4002 146.594 10.0008 147.644 9.12799 149.088L4.29599 157.472C3.46183 158.947 3.23839 160.689 3.67353 162.327C4.10868 163.964 5.1678 165.366 6.62399 166.232L15.528 171.376C15.0584 173.489 14.772 175.638 14.672 177.8L4.76799 180.456C3.13558 180.91 1.74515 181.984 0.89327 183.448C0.0413876 184.913 -0.204522 186.653 0.207989 188.296C0.210644 188.301 0.213311 188.307 0.215989 188.312L0.839989 190.64L2.09599 195.296L2.70399 197.624C2.70931 197.629 2.71464 197.635 2.71999 197.64C3.17001 199.277 4.2464 200.672 5.71645 201.522C7.18651 202.373 8.93214 202.61 10.576 202.184C10.5813 202.184 10.5867 202.184 10.592 202.184L20.512 199.512C21.688 201.344 22.992 203.056 24.456 204.656L19.312 213.544C18.4788 215.022 18.2576 216.767 18.6957 218.406C19.1339 220.045 20.1965 221.447 21.656 222.312L30.032 227.16C31.5102 227.991 33.2549 228.211 34.8932 227.773C36.5316 227.335 37.9337 226.274 38.8 224.816L43.936 215.904C46.056 216.368 48.192 216.656 50.36 216.752L53 226.672C53.0053 226.677 53.0106 226.683 53.016 226.688C53.4728 228.32 54.552 229.707 56.0213 230.55C57.4906 231.394 59.2325 231.628 60.872 231.2L70.2 228.704C71.8332 228.252 73.2243 227.178 74.0752 225.712C74.9261 224.247 75.1691 222.506 74.752 220.864L72.096 210.944C73.92 209.768 75.616 208.448 77.216 206.984L86.144 212.128C87.621 212.954 89.3627 213.17 90.9967 212.729C92.6308 212.288 94.0274 211.225 94.888 209.768C94.8933 209.768 94.8987 209.768 94.904 209.768L99.72 201.408H99.704C100.541 199.933 100.765 198.188 100.33 196.549C99.895 194.909 98.8343 193.506 97.376 192.64L88.488 187.504C88.944 185.376 89.224 183.248 89.312 181.08L99.232 178.408C100.865 177.956 102.256 176.882 103.107 175.416C103.958 173.951 104.201 172.21 103.784 170.568C103.784 170.56 103.784 170.552 103.784 170.544L103.16 168.232L102.544 165.912C102.539 165.899 102.533 165.885 102.528 165.872L101.904 163.56L101.296 161.24C101.291 161.232 101.285 161.224 101.28 161.216C100.823 159.584 99.7445 158.195 98.2759 157.349C96.8073 156.502 95.0655 156.265 93.424 156.688C93.4187 156.688 93.4133 156.688 93.408 156.688L83.496 159.36C82.3359 157.524 81.019 155.792 79.56 154.184L84.68 145.312C85.5139 143.835 85.7363 142.09 85.2997 140.452C84.8631 138.813 83.8021 137.41 82.344 136.544L73.968 131.704C72.4888 130.87 70.7413 130.65 69.1015 131.091C67.4618 131.533 66.0608 132.6 65.2 134.064L60.064 142.968C57.9508 142.503 55.8015 142.222 53.64 142.128L51 132.184L51.096 132.672C50.8885 131.355 50.2397 130.148 49.256 129.248C48.5404 128.634 47.6911 128.195 46.776 127.968C46.136 127.792 45.672 127.752 45.408 127.72C45.3973 127.715 45.3867 127.709 45.376 127.704H45.36C44.9977 127.587 44.6206 127.522 44.24 127.512C44.1041 127.505 43.9679 127.505 43.832 127.512L43.824 127.52ZM276.032 128.936L287.28 139.44H284.096C283.035 139.44 282.018 139.861 281.268 140.611C280.517 141.362 280.096 142.379 280.096 143.44V159.44H272.36V143.44C272.36 142.379 271.939 141.362 271.188 140.611C270.438 139.861 269.421 139.44 268.36 139.44H265.016L276.032 128.936ZM43.672 135.784L46.592 146.704C46.8266 147.586 47.3561 148.362 48.0925 148.902C48.8289 149.442 49.7278 149.714 50.64 149.672C54.16 149.512 57.664 149.984 61.016 151.048C61.8851 151.323 62.8221 151.293 63.6717 150.962C64.5214 150.632 65.2327 150.022 65.688 149.232L71.344 139.424L76.968 142.672L71.328 152.456C70.8769 153.244 70.7072 154.161 70.8467 155.059C70.9863 155.956 71.4269 156.778 72.096 157.392C74.688 159.776 76.832 162.6 78.44 165.736C78.8583 166.548 79.542 167.193 80.3774 167.562C81.2128 167.932 82.1496 168.004 83.032 167.768L93.968 164.832L94.168 165.608C94.1679 165.619 94.1679 165.629 94.168 165.64L94.808 167.968L95.424 170.288C95.424 170.296 95.424 170.304 95.424 170.312L95.64 171.096L84.704 174.032C83.8202 174.269 83.0443 174.801 82.5057 175.541C81.967 176.28 81.6982 177.182 81.744 178.096C81.92 181.608 81.472 185.112 80.424 188.472C80.1524 189.338 80.1834 190.271 80.512 191.117C80.8405 191.963 81.4471 192.672 82.232 193.128L92 198.784L88.752 204.408L78.936 198.752C78.1457 198.298 77.2239 198.127 76.3234 198.268C75.4228 198.409 74.5975 198.854 73.984 199.528C71.6226 202.132 68.8195 204.299 65.704 205.928C64.8981 206.348 64.2593 207.03 63.8928 207.862C63.5264 208.694 63.4541 209.626 63.688 210.504L66.608 221.384L60.328 223.08L57.408 212.16C57.1749 211.276 56.6461 210.499 55.9095 209.957C55.173 209.416 54.2732 209.143 53.36 209.184C49.84 209.352 46.336 208.904 42.984 207.84C42.1149 207.565 41.1779 207.595 40.3283 207.925C39.4786 208.256 38.7673 208.866 38.312 209.656L32.672 219.44L27.032 216.184L32.688 206.392C33.1453 205.602 33.3184 204.679 33.1787 203.776C33.039 202.874 32.5949 202.047 31.92 201.432C29.317 199.062 27.1531 196.251 25.528 193.128C25.1071 192.319 24.4224 191.678 23.5872 191.311C22.752 190.944 21.8166 190.874 20.936 191.112L10.032 194.048L9.83199 193.248C9.832 193.243 9.832 193.237 9.83199 193.232L8.57599 188.56C8.576 188.555 8.576 188.549 8.57599 188.544L8.35999 187.768L19.264 184.856C20.1436 184.62 20.9163 184.091 21.4545 183.356C21.9927 182.622 22.2642 181.726 22.224 180.816C22.064 177.296 22.528 173.776 23.592 170.416C23.8656 169.549 23.8356 168.614 23.507 167.766C23.1783 166.919 22.5706 166.208 21.784 165.752L12 160.112L15.248 154.488L25.032 160.112C25.8198 160.563 26.7376 160.733 27.6346 160.593C28.5316 160.454 29.3545 160.013 29.968 159.344C32.344 156.752 35.168 154.608 38.296 153C39.1082 152.582 39.7527 151.898 40.1223 151.062C40.492 150.227 40.5646 149.29 40.328 148.408L37.392 137.472L43.672 135.784ZM52.504 156.128V156.144C52.2393 156.158 51.9767 156.198 51.72 156.264C51.7093 156.269 51.6986 156.275 51.688 156.28C49.768 156.304 47.848 156.408 45.984 156.904C45.9787 156.904 45.9733 156.904 45.968 156.904C40.1942 158.469 35.2404 162.188 32.1269 167.296C29.0134 172.404 27.9772 178.511 29.232 184.36C29.288 184.68 29.352 185.008 29.44 185.36C29.4549 185.414 29.4709 185.467 29.488 185.52C29.568 185.84 29.648 186.096 29.72 186.32C29.7252 186.339 29.7305 186.357 29.736 186.376C29.944 187.016 30.176 187.656 30.44 188.264L30.456 188.28C32.6112 193.522 36.5979 197.802 41.6739 200.323C46.7499 202.844 52.5691 203.434 58.048 201.984C58.0533 201.984 58.0587 201.984 58.064 201.984C63.5377 200.494 68.2834 197.066 71.4168 192.337C74.5503 187.608 75.8579 181.901 75.096 176.28C75.065 175.999 75.0276 175.719 74.984 175.44C74.9788 175.419 74.9735 175.397 74.968 175.376C74.8551 174.714 74.7136 174.057 74.544 173.408C74.5388 173.387 74.5335 173.365 74.528 173.344C74.3312 172.64 74.1016 171.946 73.84 171.264C73.8374 171.248 73.8348 171.232 73.832 171.216L73.784 171.096C73.7787 171.091 73.7733 171.085 73.768 171.08C73.688 170.896 73.64 170.744 73.576 170.608L73.56 170.592C71.864 166.456 69.0157 162.894 65.3539 160.33C61.692 157.765 57.3707 156.307 52.904 156.128C52.7707 156.121 52.6372 156.121 52.504 156.128ZM52.584 164.112V164.128C58.584 164.368 63.904 168.088 66.168 173.656C66.1785 173.677 66.1891 173.699 66.2 173.72C66.264 173.864 66.304 174 66.344 174.096V174.064L66.392 174.184C66.552 174.624 66.688 175.064 66.816 175.504V175.456C66.9572 176.03 67.0641 176.613 67.136 177.2C67.1429 177.253 67.1509 177.307 67.16 177.36C67.7038 181.066 66.8671 184.843 64.8091 187.973C62.751 191.103 59.6148 193.368 55.9965 194.337C52.3781 195.307 48.5297 194.913 45.1824 193.232C41.8351 191.55 39.2221 188.698 37.84 185.216C37.8321 185.197 37.8241 185.178 37.816 185.16C37.648 184.76 37.496 184.36 37.36 183.96L37.344 183.888C37.2392 183.527 37.1511 183.161 37.08 182.792C37.0703 182.741 37.0596 182.69 37.048 182.64C36.5501 180.36 36.5811 177.996 37.1388 175.729C37.6965 173.463 38.766 171.354 40.2652 169.565C41.7644 167.776 43.6535 166.355 45.7875 165.409C47.9215 164.464 50.2518 164.02 52.584 164.112ZM368.592 175.44H503.408C503.672 175.44 504 175.632 504 176.32V270.56C504 271.24 503.68 271.44 503.408 271.44H451.8C451.541 271.393 451.279 271.371 451.016 271.376C450.78 271.376 450.544 271.398 450.312 271.44H421.608C421.352 271.393 421.092 271.372 420.832 271.376C420.596 271.376 420.36 271.398 420.128 271.44H368.592C368.328 271.44 368 271.24 368 270.56V176.32C368 175.632 368.32 175.44 368.592 175.44ZM380 183.44C378.939 183.44 377.922 183.861 377.172 184.611C376.421 185.362 376 186.379 376 187.44V251.44C376 252.501 376.421 253.518 377.172 254.268C377.922 255.018 378.939 255.44 380 255.44H492C493.061 255.44 494.078 255.018 494.828 254.268C495.579 253.518 496 252.501 496 251.44V187.44C496 186.379 495.579 185.362 494.828 184.611C494.078 183.861 493.061 183.44 492 183.44H380ZM384 191.44H488V247.44H384V191.44ZM117.344 208H272V224.128H127.016C125.955 224.128 124.938 224.549 124.188 225.299C123.437 226.05 123.016 227.067 123.016 228.128V300H107.016V218.376C106.998 217.012 107.252 215.659 107.764 214.395C108.276 213.131 109.036 211.982 109.998 211.016C110.96 210.049 112.105 209.284 113.367 208.767C114.628 208.249 115.98 207.988 117.344 208ZM280 208H360V224.128H280V208ZM131.016 232.128H272V240.168C269.156 240.303 266.324 240.619 263.52 241.112C254.954 242.673 246.771 245.878 239.424 250.552C211.888 268.024 201.168 302.36 212.576 332H155.016V304C155.016 302.939 154.595 301.922 153.844 301.171C153.094 300.421 152.077 300 151.016 300H131.016V232.128ZM280 232.128H360V270.56C360 275.28 363.768 279.44 368.592 279.44H416.888V286.048C416.888 286.069 416.888 286.091 416.888 286.112L416.92 287.44C416.92 291.992 413.48 295.44 409.168 295.44H404C402.939 295.44 401.922 295.861 401.172 296.611C400.421 297.362 400 298.379 400 299.44C400 300.501 400.421 301.518 401.172 302.268C401.922 303.018 402.939 303.44 404 303.44H419.016V311.44H379.016V296C379.016 294.939 378.595 293.922 377.844 293.171C377.094 292.421 376.077 292 375.016 292H341.56C339.531 283.449 335.848 275.377 330.72 268.24C318.464 251.16 299.6 241.528 280 240.264V232.128ZM155.936 239.44C154.897 239.455 153.904 239.874 153.168 240.608L145.216 248.576C144.834 248.945 144.529 249.386 144.32 249.874C144.11 250.362 144 250.887 143.995 251.418C143.99 251.949 144.092 252.476 144.293 252.968C144.494 253.459 144.791 253.906 145.166 254.281C145.542 254.657 145.989 254.954 146.48 255.155C146.972 255.356 147.498 255.458 148.03 255.453C148.561 255.448 149.086 255.338 149.574 255.128C150.062 254.919 150.503 254.614 150.872 254.232L152 253.112V270.344C152 271.405 152.421 272.422 153.172 273.172C153.922 273.922 154.939 274.344 156 274.344C157.061 274.344 158.078 273.922 158.828 273.172C159.579 272.422 160 271.405 160 270.344V253.112L161.12 254.232C161.491 254.604 161.932 254.899 162.418 255.1C162.903 255.302 163.424 255.406 163.949 255.406C164.475 255.406 164.995 255.303 165.481 255.103C165.967 254.902 166.408 254.607 166.78 254.236C167.152 253.865 167.447 253.424 167.648 252.938C167.85 252.453 167.954 251.932 167.954 251.407C167.955 250.881 167.851 250.361 167.651 249.875C167.45 249.389 167.155 248.948 166.784 248.576L158.832 240.608C158.452 240.229 158 239.93 157.503 239.73C157.005 239.529 156.472 239.43 155.936 239.44ZM276.064 247.984C285.489 248.033 294.767 250.315 303.139 254.644C311.511 258.973 318.737 265.226 324.224 272.888C333.128 285.272 336.952 300.596 334.911 315.712C332.869 330.828 325.118 344.589 313.248 354.168L318.288 360.392C327.15 353.216 334.055 343.918 338.363 333.36C342.671 322.802 344.241 311.327 342.928 300H371.016V315.44C371.016 316.501 371.437 317.518 372.188 318.268C372.938 319.018 373.955 319.44 375.016 319.44H419.016V384.128H131.016V308H147.016V336C147.016 337.061 147.437 338.078 148.188 338.828C148.938 339.578 149.955 340 151.016 340H216.216C216.344 340.232 216.432 340.48 216.56 340.704C224.991 355.798 238.871 367.099 255.361 372.295C271.851 377.491 289.703 376.189 305.264 368.656L301.768 361.456C288.049 368.125 272.296 369.286 257.748 364.7C243.199 360.114 230.959 350.13 223.544 336.8C216.105 323.485 214.048 307.826 217.798 293.042C221.547 278.258 230.818 265.472 243.704 257.312C253.368 251.153 264.604 247.914 276.064 247.984ZM32 255.44H80V271.44H32V255.44ZM276 255.44C262.214 255.457 248.997 260.941 239.249 270.689C229.501 280.437 224.017 293.654 224 307.44C224 336.112 247.328 359.44 276 359.44C304.672 359.44 328 336.112 328 307.44C328 278.768 304.672 255.44 276 255.44ZM436.16 259C435.578 259.001 435.002 259.117 434.465 259.34C433.927 259.564 433.439 259.891 433.028 260.304C432.618 260.716 432.292 261.205 432.07 261.743C431.849 262.281 431.735 262.858 431.736 263.44C431.74 264.611 432.208 265.733 433.037 266.561C433.866 267.388 434.989 267.854 436.16 267.856C437.333 267.856 438.458 267.391 439.288 266.563C440.119 265.736 440.588 264.613 440.592 263.44C440.593 262.857 440.479 262.28 440.257 261.741C440.035 261.203 439.708 260.713 439.297 260.301C438.885 259.888 438.396 259.561 437.858 259.338C437.32 259.115 436.743 259 436.16 259ZM48.048 259.44V267.44H63.952V259.44H48.048ZM171.936 263.44C171.411 263.448 170.892 263.56 170.41 263.769C169.928 263.977 169.492 264.279 169.126 264.657C168.761 265.034 168.473 265.48 168.28 265.968C168.087 266.457 167.992 266.979 168 267.504V285.216L166.768 284.064C166.382 283.693 165.925 283.404 165.425 283.213C164.925 283.022 164.391 282.933 163.856 282.952C163.059 282.979 162.289 283.243 161.643 283.711C160.998 284.179 160.507 284.829 160.234 285.578C159.96 286.327 159.917 287.14 160.109 287.914C160.301 288.687 160.72 289.386 161.312 289.92L169.28 297.328C170.02 298.014 170.991 298.395 172 298.395C173.009 298.395 173.98 298.014 174.72 297.328L182.688 289.92C183.465 289.196 183.922 288.194 183.959 287.133C183.997 286.073 183.611 285.04 182.888 284.264C182.164 283.487 181.162 283.03 180.101 282.993C179.041 282.955 178.009 283.34 177.232 284.064L176 285.216V267.496C176.008 266.96 175.908 266.429 175.706 265.933C175.504 265.437 175.205 264.986 174.826 264.608C174.447 264.23 173.996 263.932 173.499 263.731C173.003 263.53 172.471 263.431 171.936 263.44ZM276 263.44C286.192 263.44 295.52 266.92 302.968 272.704C302.664 272.848 302.352 272.96 302.112 273.36C301.776 273.904 300.832 274.344 300.032 274.344C299.232 274.344 297.624 275.24 296.472 276.312C294.968 277.704 294.016 277.976 293.144 277.248C291.768 276.112 290.232 277.64 291.184 279.184C291.488 279.68 290.864 279.856 289.784 279.584C288.552 279.308 287.266 279.391 286.08 279.824C285.12 280.248 284 280.512 283.6 280.424C283.184 280.336 282.856 280.72 282.856 281.264C282.856 281.808 281.976 281.344 280.888 280.264C278.192 277.568 276.616 277.784 273.064 281.328C269.768 284.624 269.224 286.672 271.424 287.512C272.336 287.864 273.184 287.048 273.84 285.16C275 281.832 277.032 281.16 276.184 284.376C275.784 285.896 275.992 286.288 276.856 285.752C277.752 285.192 277.72 285.552 276.768 287.08C276.048 288.224 275.032 289.176 274.488 289.24C270.128 289.56 267.064 291.408 267.064 293.72C267.064 294.464 266.584 295.08 266 295.08C265.416 295.08 265.08 296.12 265.248 297.4C265.416 298.688 264.976 300.424 264.288 301.264C262.376 303.56 261.672 309.616 263.088 311.328C263.76 312.128 265.768 313.072 267.568 313.408C270.992 314.048 271.96 315.728 271.984 321.088C271.984 322.64 272.704 325.4 273.584 327.232C274.944 330.096 275.44 330.432 277.096 329.552C278.152 328.976 279.256 327.76 279.528 326.84C279.816 325.928 280.448 324.408 280.952 323.472C281.456 322.528 281.872 320.664 281.872 319.328C281.872 317.992 282.848 315.232 284.048 313.2C286.128 309.68 286.144 309.536 284.296 310.184C283.008 310.64 283.264 310.184 285.08 308.816C287.768 306.776 288.832 303.728 286.68 304.2C286.08 304.336 285.36 303.896 285.112 303.2C284.744 302.2 285.208 302.184 287.456 303.144C291.696 304.952 292.544 305.816 293.232 308.952C293.848 311.768 296.088 314.392 295.56 311.704C295.168 309.688 296.664 305.944 297.856 305.944C298.44 305.944 299.96 307.064 301.248 308.456C303.768 311.176 306 310.856 305.064 307.904C304.664 306.656 305.096 305.904 306.456 305.472C308.712 304.752 309.68 302.464 309.064 299.264C308.68 297.288 308.864 297.152 310.672 298.128C311.984 298.832 312.488 298.864 312.08 298.208C311.728 297.64 312.4 296.288 313.56 295.2C315.08 293.784 315.512 292.544 315.08 290.816C314.784 289.624 314.824 288.704 315.296 287.984C314.641 286.568 313.918 285.185 313.128 283.84C316.785 289.578 319.056 296.089 319.76 302.857C320.464 309.625 319.582 316.464 317.184 322.832C316.168 322.992 314.648 323.936 313.048 325.608C310.784 327.968 310.424 329.024 310.968 331.512C311.168 332.416 311.328 332.976 311.512 333.376C307.438 338.976 302.097 343.532 295.925 346.672C289.753 349.811 282.925 351.445 276 351.44C265.247 351.447 254.868 347.497 246.84 340.344C247.118 339.656 247.535 339.032 248.064 338.512C250.88 336.176 255.936 328.152 256.656 324.888C257.192 322.44 256.96 321.8 255.28 321.264C254.16 320.912 253.248 320.04 253.248 319.328C253.248 318.616 251.792 317.496 250.032 316.848C248.413 316.255 246.822 315.588 245.264 314.848C245.018 314.704 244.741 314.621 244.456 314.608C243.728 314.616 243.208 315.384 242.544 317.216C240.92 321.712 241.104 323.776 243.344 326.16C245.12 328.048 245.224 328.936 244.424 336.096C244.336 336.872 244.36 337.256 244.296 337.936C236.394 329.752 231.984 318.816 232 307.44C232 306.632 232.08 305.84 232.128 305.04C234.48 308.184 237.296 311.12 239.528 312.28C240.832 312.96 242.12 313.296 242.392 313.048C242.664 312.792 242.344 312.384 241.704 312.16C241.048 311.92 240.752 311.144 241.032 310.424C241.352 309.592 240.864 309.16 239.736 309.248C238.544 309.352 237.936 308.728 237.936 307.424C237.936 305.912 238.584 305.424 240.656 305.488C242.176 305.512 243.376 305 243.376 304.312C243.376 302.64 247.72 298.064 249.408 297.968C250.408 297.904 250.448 297.752 249.544 297.392C247.112 296.408 248.304 294.872 251.016 295.504C253.032 295.968 253.352 295.872 252.248 295.128C251.432 294.568 251.208 294.112 251.72 294.112C252.232 294.104 251.12 292.584 249.248 290.736C245.656 287.192 244.36 287.048 244.36 290.2C244.36 292.504 243.408 292.624 240.84 290.64C239.104 289.296 239.08 289.04 240.52 287.92C241.384 287.24 242.408 285.688 242.8 284.472C243.56 282.072 244.832 281.6 245.904 283.344C246.28 283.944 246.048 284.784 245.392 285.184C244.528 285.72 244.672 286.112 245.92 286.592C247.688 287.272 249.52 285.56 248.968 283.736C248.616 282.552 244.072 280.056 241.928 279.576C242.352 279.048 242.824 278.552 243.288 278.048H243.296C244.656 276.536 246.096 275.104 247.64 273.8C249.176 274.784 251.256 277.984 251.816 280.6C252.184 282.312 252.904 284.536 253.416 285.512C254.616 287.792 256.608 287.176 257.016 284.392C257.192 283.208 257.672 282.232 258.096 282.232C258.512 282.232 259.656 280.744 260.64 278.92L262.44 275.608L259.56 272.016C257.512 269.44 256.488 268.416 255.184 268.656C255.128 268.664 255.056 268.72 255 268.736C261.448 265.245 268.668 263.425 276 263.44ZM273.04 270.376C272.84 270.352 272.608 270.456 272.392 270.672C272.072 270.992 272.152 271.824 272.576 272.512C273.2 273.52 273.432 273.52 273.768 272.512C274.128 271.44 273.656 270.432 273.04 270.376ZM252.248 270.408C251.936 270.648 251.592 270.808 251.248 271.032C251.568 270.808 251.92 270.616 252.248 270.408ZM289.36 273.36C288.536 273.36 287.368 274.296 286.768 275.424C285.768 277.288 285.856 277.36 287.672 276.384C290.336 274.968 291.232 273.36 289.36 273.36ZM32 279.44H80V319.504H32V279.44ZM424.888 279.44H447.08V287.44C447.08 290.352 447.912 293.064 449.28 295.44H422.72C424.08 293.064 424.92 290.352 424.92 287.44C424.92 287.419 424.92 287.397 424.92 287.376L424.888 286.016V279.44ZM240.92 280.904C241.04 281.168 241.12 281.424 241.328 281.672C242.32 282.872 242.2 283.104 240.56 282.984C240.152 282.952 239.872 282.808 239.608 282.672C240.024 282.064 240.48 281.48 240.92 280.904ZM261.64 281.592C260.096 281.592 259.704 282.472 260.784 283.544C261.52 284.288 263.104 283.464 263.104 282.36C263.104 281.944 262.456 281.592 261.64 281.592ZM266.736 287.784C266.448 287.744 266.08 288.024 265.488 288.624C263.888 290.224 263.632 291.544 265.088 290.64C265.64 290.304 266.08 290.6 266.08 291.28C266.08 292.136 266.4 292.2 267.096 291.504C267.656 290.944 267.84 289.744 267.496 288.864C267.232 288.16 267.016 287.816 266.736 287.784ZM284.856 293.592C285.512 293.192 286.76 296.232 286.8 298.296C286.8 298.696 286.416 299.032 285.936 299.032C284.824 299.032 283.872 294.208 284.856 293.592ZM280.504 293.768C281.184 293.816 281.544 294.296 281.608 295.232C281.688 296.24 281.664 296.992 281.56 296.936C280.936 296.716 280.3 296.529 279.656 296.376C277.416 295.792 277.44 294.456 279.704 293.856C279.964 293.783 280.234 293.753 280.504 293.768ZM271.872 294.688C272.688 294.656 273.376 294.96 273.64 295.656C273.936 296.432 275.016 297.064 276.04 297.064C277.08 297.064 277.92 297.504 277.92 298.048C277.92 298.592 278.624 299.032 279.472 299.032C280.312 299.032 280.728 299.472 280.392 300.016C280.056 300.56 278.032 301 275.888 301C273.752 301 272 300.56 272 300.016C272 299.472 270.88 299.032 269.496 299.032C267.36 299.032 267.136 298.768 267.984 297.192C268.379 296.489 268.94 295.894 269.617 295.457C270.295 295.021 271.069 294.757 271.872 294.688ZM316.64 295.088C316.24 295.096 315.408 296.208 314.784 297.568C314.152 298.912 313.968 300.016 314.376 300.016C314.776 300.016 315.616 298.904 316.232 297.544C316.856 296.184 317.032 295.088 316.64 295.088ZM279.984 303.112C280.144 303.072 280.776 303.96 281.504 305.296C282.336 306.84 282.832 308.28 282.608 308.496C282.176 308.936 279.872 304.344 279.936 303.168C279.936 303.128 279.968 303.12 279.984 303.112ZM427.016 303.432H432V311.432H427.016V303.432ZM440 303.432H443.016V408.232H107.016V308H123.016V388.128C123.016 389.189 123.437 390.206 124.188 390.956C124.938 391.706 125.955 392.128 127.016 392.128H423.016C424.077 392.128 425.094 391.706 425.844 390.956C426.595 390.206 427.016 389.189 427.016 388.128V319.44H436C437.061 319.44 438.078 319.018 438.828 318.268C439.579 317.518 440 316.501 440 315.44V303.432ZM243.064 307.936C242.36 307.944 242.488 308.336 243.376 308.904C245.272 310.128 245.616 310.128 244.856 308.904C244.649 308.619 244.38 308.385 244.07 308.219C243.76 308.052 243.416 307.951 243.064 307.936ZM302.216 312.2C301.864 312.136 301.608 312.36 301.608 312.8C301.608 313.368 302.064 313.84 302.608 313.84C303.152 313.84 303.592 313.648 303.592 313.408C303.592 313.168 303.152 312.688 302.608 312.36C302.489 312.282 302.356 312.228 302.216 312.2ZM307.856 312.248C307.741 312.267 307.632 312.311 307.536 312.376C306.992 312.704 306.544 313.392 306.544 313.904C306.544 315.328 307.248 315.008 307.904 313.296C308.16 312.64 308.128 312.256 307.856 312.256V312.248ZM310.856 316.232C310.856 316.28 310.904 316.392 310.984 316.56C311.328 317.24 311.144 317.8 310.56 317.8C310.278 317.808 310.012 317.927 309.817 318.131C309.622 318.334 309.516 318.606 309.52 318.888C309.52 319.488 310.184 319.72 311 319.408C311.816 319.096 312.472 319.272 312.472 319.8C312.472 320.328 312.696 320.752 312.968 320.752C313.928 320.752 313.44 319.136 311.904 317.248C311.264 316.456 310.872 316.08 310.864 316.232H310.856ZM305.816 316.984C305.464 317.024 306.096 318.28 307.816 320.504C308.336 321.176 309.152 321.736 309.624 321.736C310.104 321.736 309.52 320.64 308.344 319.28C306.952 317.68 306.08 316.96 305.816 316.984ZM284.768 321.344C284.568 321.319 284.365 321.352 284.184 321.44C283.464 321.72 282.856 322.8 282.856 323.832C282.856 326.512 284.528 326.128 285.064 323.312C285.304 322.032 285.224 321.416 284.768 321.344ZM32 327.504H80V343.44H32V327.504ZM55.72 330.72C54.7084 330.792 53.7615 331.254 53.0709 332.011C52.3803 332.769 51.9975 333.765 52 334.8C52.0062 335.878 52.4304 336.909 53.1798 337.669C53.9293 338.429 54.9432 338.856 56 338.856C57.0568 338.856 58.0707 338.429 58.8201 337.669C59.5696 336.909 59.9938 335.878 60 334.8C60 333.718 59.5786 332.68 58.8284 331.915C58.0783 331.15 57.0609 330.72 56 330.72C55.9067 330.717 55.8133 330.717 55.72 330.72ZM365.576 336.032V340.344C369.009 340.328 372.411 340.991 375.587 342.296C378.763 343.6 381.649 345.519 384.08 347.944C388.72 352.6 391.424 358.848 391.64 365.408L395.96 365.424C395.731 357.702 392.567 350.358 387.112 344.888C384.284 342.064 380.926 339.827 377.229 338.307C373.533 336.787 369.573 336.014 365.576 336.032ZM184.592 343.44C182.228 343.359 179.875 343.801 177.703 344.736C175.53 345.671 173.591 347.075 172.024 348.847C170.457 350.619 169.302 352.716 168.641 354.987C167.98 357.258 167.829 359.648 168.2 361.984C169.456 369.72 176.16 375.424 184 375.424C184.53 375.424 185.039 375.213 185.414 374.838C185.789 374.463 186 373.954 186 373.424C186 372.893 185.789 372.385 185.414 372.01C185.039 371.635 184.53 371.424 184 371.424C181.149 371.429 178.39 370.417 176.22 368.569C174.049 366.721 172.61 364.159 172.16 361.344C171.687 358.524 172.238 355.627 173.713 353.177C175.189 350.728 177.492 348.887 180.206 347.986C182.92 347.086 185.867 347.186 188.514 348.268C191.161 349.351 193.334 351.344 194.64 353.888C195.87 356.265 196.26 358.988 195.747 361.615C195.234 364.242 193.849 366.619 191.816 368.36C191.677 368.218 191.597 368.03 191.592 367.832V366.984C191.593 366.947 191.593 366.909 191.592 366.872C191.593 366.843 191.593 366.813 191.592 366.784C191.592 366.768 191.592 366.752 191.592 366.736V364.376C191.596 364.307 191.596 364.237 191.592 364.168V354.96C191.595 354.893 191.595 354.827 191.592 354.76V352.432C191.596 352.164 191.547 351.898 191.446 351.649C191.346 351.401 191.196 351.175 191.006 350.985C190.817 350.796 190.591 350.646 190.343 350.546C190.094 350.445 189.828 350.396 189.56 350.4C189.109 350.408 188.674 350.568 188.326 350.854C187.977 351.14 187.736 351.535 187.64 351.976C185.821 351.659 183.949 351.908 182.276 352.69C180.603 353.471 179.211 354.748 178.287 356.346C177.363 357.944 176.952 359.788 177.11 361.628C177.267 363.467 177.986 365.214 179.168 366.632C181.36 369.232 184.768 370.272 187.968 369.592C188.269 370.318 188.745 370.959 189.354 371.457C189.962 371.956 190.684 372.296 191.456 372.448C191.722 372.585 192.015 372.66 192.315 372.668C192.614 372.677 192.911 372.618 193.184 372.496C193.233 372.476 193.281 372.455 193.328 372.432C193.344 372.421 193.36 372.411 193.376 372.4C193.381 372.395 193.387 372.389 193.392 372.384C193.43 372.364 193.467 372.342 193.504 372.32C193.686 372.205 193.848 372.062 193.984 371.896C199.904 367.144 201.72 358.824 198.184 352.04C196.876 349.538 194.93 347.425 192.543 345.917C190.156 344.408 187.413 343.548 184.592 343.44ZM365.592 344.656L365.608 348.952C370.07 348.913 374.374 350.601 377.622 353.661C380.869 356.722 382.807 360.919 383.032 365.376L387.344 365.392C387.118 359.962 384.863 354.815 381.024 350.968C378.997 348.948 376.589 347.35 373.94 346.267C371.291 345.183 368.454 344.636 365.592 344.656ZM365.624 352.736V357.048C367.799 357.135 369.861 358.039 371.399 359.58C372.937 361.121 373.837 363.185 373.92 365.36L378.24 365.376C378.161 362.053 376.807 358.887 374.459 356.534C372.11 354.181 368.947 352.821 365.624 352.736ZM185.2 355.888C186 355.752 186.8 355.888 187.6 356.144V364.232C187.598 364.28 187.598 364.328 187.6 364.376V365.512C186.663 365.834 185.65 365.867 184.694 365.606C183.738 365.345 182.883 364.802 182.24 364.048C181.478 363.148 181.06 362.007 181.06 360.828C181.06 359.649 181.478 358.508 182.24 357.608C182.993 356.704 184.041 356.094 185.2 355.888ZM366.28 361.504C365.85 361.497 365.423 361.577 365.024 361.737C364.626 361.898 364.264 362.137 363.96 362.44C363.66 362.739 363.422 363.095 363.259 363.487C363.097 363.879 363.014 364.3 363.015 364.725C363.015 365.15 363.1 365.571 363.264 365.964C363.427 366.357 363.667 366.715 363.968 367.016C364.269 367.318 364.626 367.558 365.018 367.722C365.411 367.886 365.832 367.972 366.257 367.973C366.682 367.975 367.103 367.892 367.496 367.731C367.888 367.569 368.244 367.332 368.544 367.032C368.844 366.732 369.081 366.376 369.243 365.983C369.404 365.591 369.487 365.17 369.485 364.745C369.484 364.32 369.398 363.899 369.234 363.506C369.07 363.114 368.83 362.757 368.528 362.456C367.933 361.857 367.13 361.513 366.288 361.496L366.28 361.504ZM83.816 416.232H235.016V422.856C235.016 430.824 241.4 437.472 249.312 437.472H300.736C308.656 437.472 315.016 430.824 315.016 422.856V416.232H466.216C464.168 434.112 449.704 448 431.232 448H118.8C100.32 448 85.864 434.104 83.816 416.232ZM243.016 416.232H307.016V422.856C307.016 426.664 304.216 429.472 300.736 429.472H249.312C245.832 429.472 243.016 426.664 243.016 422.856V416.232Z" fill="black"/>
</g>
<defs>
<clipPath id="clip0_639_2">
<rect width="512" height="512" fill="white"/>
</clipPath>
</defs>
</svg>
