<svg width="452" height="516" viewBox="0 0 452 516" fill="none" xmlns="http://www.w3.org/2000/svg">
<g clip-path="url(#clip0_643_37)">
<path fill-rule="evenodd" clip-rule="evenodd" d="M251.97 402.167C330.044 352.739 368.128 301.458 368.672 215.38C363.542 216.947 359.062 216.919 354.582 216.891C313.943 216.634 274.757 188.866 275.07 139.267C275.396 87.7485 308.557 55.9572 355.596 56.2541C416.395 56.6379 450.967 105.497 450.416 192.855C449.648 314.453 393.098 401.458 288.078 461.276L251.97 402.167ZM27.9749 400.753C106.048 351.325 144.133 300.044 144.676 213.966C139.546 215.534 135.066 215.505 130.587 215.477C89.9473 215.22 50.7618 187.452 51.0749 137.853C51.4001 86.3345 84.5615 54.5432 131.601 54.8401C192.079 55.2219 226.652 104.081 226.1 191.439C225.333 313.037 168.782 400.042 63.7625 459.86L27.6549 400.751L27.9749 400.753Z" fill="black" fill-opacity="0.03"/>
</g>
<defs>
<clipPath id="clip0_643_37">
<rect width="448" height="512" fill="white" transform="translate(448.38 515.409) rotate(-179.638)"/>
</clipPath>
</defs>
</svg>
