<svg width="512" height="512" viewBox="0 0 512 512" fill="none" xmlns="http://www.w3.org/2000/svg">
<g clip-path="url(#clip0_640_16)">
<path d="M248 72V64C248 61.8783 248.843 59.8434 250.343 58.3431C251.843 56.8429 253.878 56 256 56C258.122 56 260.157 56.8429 261.657 58.3431C263.157 59.8434 264 61.8783 264 64V72C264 74.1217 263.157 76.1566 261.657 77.6569C260.157 79.1571 258.122 80 256 80C253.878 80 251.843 79.1571 250.343 77.6569C248.843 76.1566 248 74.1217 248 72ZM244 96H268C271.182 96.0034 274.232 97.2688 276.481 99.5185C278.731 101.768 279.997 104.818 280 108V120H232V108C232.003 104.818 233.269 101.768 235.519 99.5185C237.768 97.2688 240.818 96.0034 244 96ZM312 120H296V108C295.994 102.314 294.259 96.7647 291.027 92.0872C287.794 87.4097 283.216 83.8252 277.9 81.809C279.287 78.725 280.003 75.3815 280 72V64C280 57.6348 277.471 51.5303 272.971 47.0294C268.47 42.5286 262.365 40 256 40C249.635 40 243.53 42.5286 239.029 47.0294C234.529 51.5303 232 57.6348 232 64V72C231.997 75.3815 232.713 78.725 234.1 81.809C228.784 83.8252 224.206 87.4097 220.973 92.0872C217.741 96.7647 216.006 102.314 216 108V120H200V32H312V120ZM416 104V96C416 93.8783 416.843 91.8434 418.343 90.3431C419.843 88.8429 421.878 88 424 88C426.122 88 428.157 88.8429 429.657 90.3431C431.157 91.8434 432 93.8783 432 96V104C432 106.122 431.157 108.157 429.657 109.657C428.157 111.157 426.122 112 424 112C421.878 112 419.843 111.157 418.343 109.657C416.843 108.157 416 106.122 416 104ZM412 128H436C439.182 128.003 442.232 129.269 444.481 131.519C446.731 133.768 447.997 136.818 448 140V152H400V140C400.003 136.818 401.269 133.768 403.519 131.519C405.768 129.269 408.818 128.003 412 128ZM480 152H464V140C463.994 134.314 462.259 128.765 459.027 124.087C455.794 119.41 451.216 115.825 445.9 113.809C447.287 110.725 448.003 107.382 448 104V96C448 89.6348 445.471 83.5303 440.971 79.0294C436.47 74.5286 430.365 72 424 72C417.635 72 411.53 74.5286 407.029 79.0294C402.529 83.5303 400 89.6348 400 96V104C399.997 107.382 400.713 110.725 402.1 113.809C396.784 115.825 392.206 119.41 388.973 124.087C385.741 128.765 384.006 134.314 384 140V152H368V64H480V152ZM80 104V96C80 93.8783 80.8429 91.8434 82.3431 90.3431C83.8434 88.8429 85.8783 88 88 88C90.1217 88 92.1566 88.8429 93.6569 90.3431C95.1571 91.8434 96 93.8783 96 96V104C96 106.122 95.1571 108.157 93.6569 109.657C92.1566 111.157 90.1217 112 88 112C85.8783 112 83.8434 111.157 82.3431 109.657C80.8429 108.157 80 106.122 80 104ZM76 128H100C103.182 128.003 106.232 129.269 108.481 131.519C110.731 133.768 111.997 136.818 112 140V152H64V140C64.0034 136.818 65.2688 133.768 67.5185 131.519C69.7682 129.269 72.8185 128.003 76 128ZM144 152H128V140C127.994 134.314 126.259 128.765 123.027 124.087C119.794 119.41 115.216 115.825 109.9 113.809C111.287 110.725 112.003 107.382 112 104V96C112 89.6348 109.471 83.5303 104.971 79.0294C100.47 74.5286 94.3652 72 88 72C81.6348 72 75.5303 74.5286 71.0294 79.0294C66.5286 83.5303 64 89.6348 64 96V104C63.9972 107.382 64.713 110.725 66.1 113.809C60.7837 115.825 56.2058 119.41 52.9733 124.087C49.7408 128.765 48.0064 134.314 48 140V152H32V64H144V152Z" fill="black"/>
<path d="M183.787 346.624C181.504 347.488 179.537 349.025 178.147 351.032C176.757 353.038 176.008 355.419 176 357.86V376H336V357.86C335.992 355.419 335.243 353.038 333.853 351.032C332.463 349.025 330.496 347.488 328.213 346.624L281.028 328.924L260.438 342.651C259.124 343.527 257.58 343.995 256 343.995C254.42 343.995 252.876 343.527 251.562 342.651L230.972 328.924L183.787 346.624ZM271.1 316.315L267.48 298.215C263.871 299.844 259.956 300.686 255.996 300.686C252.036 300.686 248.121 299.844 244.512 298.215L240.892 316.315L255.992 326.385L271.1 316.315ZM256 194V168H222C216.167 168.007 210.575 170.327 206.451 174.451C202.327 178.575 200.007 184.167 200 190V216H234C239.833 215.993 245.425 213.673 249.549 209.549C253.673 205.425 255.993 199.833 256 194ZM224 232V260.676C224.006 262.747 224.545 264.782 225.565 266.584C226.586 268.386 228.053 269.896 229.826 270.966L249.826 282.966C251.69 284.087 253.825 284.68 256 284.68C258.175 284.68 260.31 284.087 262.174 282.966L282.174 270.966C283.947 269.896 285.414 268.386 286.435 266.584C287.455 264.782 287.994 262.747 288 260.676V216H264.968C261.458 220.946 256.816 224.979 251.428 227.762C246.04 230.546 240.064 231.999 234 232H224ZM296 190C295.993 184.167 293.673 178.575 289.549 174.451C285.425 170.327 279.833 168.007 274 168H272V200H296V190Z" fill="black"/>
<path d="M424 208H312C312 210.122 311.157 212.157 309.657 213.657C308.157 215.157 306.122 216 304 216V260.676C303.986 265.508 302.728 270.256 300.347 274.461C297.966 278.666 294.543 282.188 290.406 284.686L282.093 289.674L286.973 314.074L333.832 331.646C339.158 333.663 343.747 337.248 346.991 341.929C350.235 346.61 351.981 352.165 352 357.86V376H392V392H120V376H160V357.86C160.018 352.164 161.764 346.609 165.009 341.927C168.253 337.246 172.841 333.66 178.168 331.643L225.027 314.071L229.907 289.671L221.594 284.683C217.458 282.185 214.034 278.664 211.653 274.46C209.273 270.255 208.014 265.508 208 260.676V232H192C189.878 232 187.843 231.157 186.343 229.657C184.843 228.157 184 226.122 184 224V208H88V408H424V208ZM104 232H160C161.381 232 162.739 232.358 163.942 233.038C165.144 233.719 166.149 234.699 166.86 235.884L190.86 275.884L177.14 284.116L155.471 248H104V232ZM104 264H152V280H104V264ZM408 296C408 298.122 407.157 300.157 405.657 301.657C404.157 303.157 402.122 304 400 304H336C333.878 304 331.843 303.157 330.343 301.657C328.843 300.157 328 298.122 328 296V232C328 229.878 328.843 227.843 330.343 226.343C331.843 224.843 333.878 224 336 224H400C402.122 224 404.157 224.843 405.657 226.343C407.157 227.843 408 229.878 408 232V296Z" fill="black"/>
<path d="M179.578 440.845L193.889 448H318.111L332.422 440.845C333.533 440.289 334.758 440 336 440H464V234C464 233.47 463.789 232.961 463.414 232.586C463.039 232.211 462.53 232 462 232H440V416C440 418.122 439.157 420.157 437.657 421.657C436.157 423.157 434.122 424 432 424H80C77.8783 424 75.8434 423.157 74.3431 421.657C72.8429 420.157 72 418.122 72 416V232H50C49.4696 232 48.9609 232.211 48.5858 232.586C48.2107 232.961 48 233.47 48 234V440H176C177.242 440 178.467 440.289 179.578 440.845Z" fill="black"/>
<path d="M392 240H344V288H392V240Z" fill="black"/>
<path d="M337.889 456L323.578 463.155C322.467 463.711 321.242 464 320 464H192C190.758 464 189.533 463.711 188.422 463.155L174.111 456H32V468C32.0034 471.182 33.2688 474.232 35.5185 476.481C37.7682 478.731 40.8185 479.997 44 480H468C471.182 479.997 474.232 478.731 476.481 476.481C478.731 474.232 479.997 471.182 480 468V456H337.889Z" fill="black"/>
</g>
<defs>
<clipPath id="clip0_640_16">
<rect width="512" height="512" fill="white"/>
</clipPath>
</defs>
</svg>
