<?xml version="1.0" standalone="no"?>
<!DOCTYPE svg PUBLIC "-//W3C//DTD SVG 20010904//EN"
 "http://www.w3.org/TR/2001/REC-SVG-20010904/DTD/svg10.dtd">
<svg version="1.0" xmlns="http://www.w3.org/2000/svg"
 width="519.000000pt" height="519.000000pt" viewBox="0 0 519.000000 519.000000"
 preserveAspectRatio="xMidYMid meet">
<metadata>
Created by potrace 1.14, written by Peter Selinger 2001-2017
</metadata>
<g transform="translate(0.000000,519.000000) scale(0.100000,-0.100000)"
fill="#000000" stroke="none">
<path d="M791 4515 c-19 -6 -44 -24 -55 -39 -21 -27 -21 -29 -23 -1822 -2
-1316 0 -1794 8 -1794 8 0 7 -5 -1 -16 -11 -12 -11 -15 1 -12 8 2 13 -4 13
-14 -1 -10 3 -18 8 -18 6 0 8 -9 5 -19 -3 -14 -1 -18 9 -14 12 4 16 -1 13 -23
0 -3 7 -11 17 -18 9 -7 14 -18 10 -24 -3 -6 -1 -14 5 -18 8 -4 9 -3 5 4 -4 7
-2 12 4 12 6 0 13 -7 16 -15 3 -8 14 -17 25 -20 10 -4 19 -14 20 -23 0 -11 2
-13 6 -4 4 10 9 8 21 -5 10 -10 24 -18 32 -18 9 0 14 -8 12 -20 -2 -15 0 -17
6 -7 11 17 48 11 45 -6 -2 -7 2 -12 7 -12 6 0 10 5 10 10 0 6 5 10 11 10 5 0
8 -3 6 -8 -3 -4 746 -7 1663 -7 917 0 1666 3 1664 7 -4 6 47 22 74 23 7 0 17
6 21 14 5 7 14 10 20 7 7 -5 10 -2 9 6 -2 7 3 12 10 11 6 -2 12 2 12 8 0 5 4
8 9 4 5 -3 12 4 16 15 4 11 11 18 16 15 5 -4 9 1 9 9 0 8 8 21 18 28 17 12 72
114 80 148 2 8 4 32 4 53 -1 24 3 35 10 31 7 -5 8 -2 2 7 -13 21 -15 121 -2
112 7 -4 8 -1 2 8 -13 21 -14 82 0 98 6 8 6 12 1 9 -7 -4 -11 19 -12 68 0 49
3 72 10 67 6 -4 7 -1 1 8 -13 21 -15 161 -2 153 7 -5 8 -2 2 7 -13 22 -15 111
-2 103 7 -5 8 -2 2 7 -13 21 -15 121 -2 112 7 -4 8 -1 2 8 -13 21 -14 82 0 98
6 8 6 12 1 9 -7 -4 -11 19 -12 68 0 49 3 72 10 67 6 -4 7 -1 1 8 -13 21 -15
161 -2 153 7 -5 8 -2 2 7 -13 22 -15 111 -2 103 7 -5 8 -2 2 7 -13 21 -15 121
-2 112 7 -4 8 -1 2 8 -13 21 -14 82 0 98 6 8 6 12 1 9 -7 -4 -11 19 -12 68 0
49 3 72 10 67 6 -4 7 -1 1 8 -13 21 -15 161 -2 153 7 -5 8 -2 2 7 -13 22 -15
111 -2 103 7 -5 8 -2 2 7 -13 21 -15 121 -2 112 7 -4 8 -1 2 8 -13 21 -14 82
0 98 6 8 6 12 1 9 -7 -4 -11 19 -12 68 0 49 3 72 10 67 6 -4 7 -1 1 8 -13 21
-15 161 -2 153 7 -5 8 -2 2 7 -13 22 -15 111 -2 103 7 -5 8 -2 2 7 -13 21 -15
121 -2 112 7 -4 8 -1 2 8 -13 21 -14 82 0 98 6 8 6 12 1 9 -7 -4 -11 19 -12
68 0 49 3 72 10 67 6 -4 7 -1 1 8 -13 21 -15 161 -2 153 7 -5 8 -2 2 7 -12 20
-15 77 -4 84 6 3 10 12 10 18 0 7 -4 6 -10 -3 -7 -11 -10 -2 -11 33 -2 56 -1
52 -22 101 -10 22 -16 41 -13 43 11 11 -106 127 -154 152 -96 51 -102 51 -751
51 -570 0 -607 -1 -611 -17 -2 -10 -3 -60 -3 -110 0 -58 -3 -93 -10 -93 -7 0
-7 -3 1 -8 14 -10 14 -232 -1 -232 -6 0 -6 -3 1 -8 14 -9 13 -224 -1 -234 -7
-5 -6 -8 1 -8 8 0 11 -29 10 -87 -1 -72 2 -88 14 -88 8 0 20 -4 27 -8 6 -4 14
-3 18 3 10 16 27 0 21 -19 -5 -14 -4 -14 7 1 11 14 31 17 108 18 52 0 111 1
132 2 22 1 42 -3 46 -11 6 -10 10 -9 15 4 3 9 10 13 16 10 6 -4 7 -12 4 -18
-5 -8 -3 -8 7 1 15 14 95 16 104 2 3 -5 12 -7 20 -3 9 3 15 -1 15 -10 0 -8 8
-14 18 -13 9 0 16 -4 15 -11 -2 -7 4 -10 12 -7 9 4 15 0 15 -8 0 -7 9 -20 20
-28 14 -10 16 -16 7 -22 -8 -5 -5 -8 8 -8 15 0 17 -3 7 -9 -11 -6 -10 -10 4
-15 16 -6 16 -8 4 -16 -9 -6 -10 -10 -3 -10 15 0 16 -1829 1 -1847 -6 -7 -7
-13 -3 -13 4 0 2 -7 -5 -15 -7 -8 -10 -15 -7 -15 3 0 -5 -12 -18 -26 -14 -15
-25 -30 -25 -34 0 -7 -58 -34 -98 -45 -32 -9 -1793 -9 -1834 0 -85 19 -155 83
-160 148 -1 15 -5 27 -9 27 -10 0 -5 34 6 42 6 5 6 8 -2 8 -12 0 -12 17 0 36
3 6 3 14 0 18 -12 12 -12 36 0 36 8 0 8 3 2 8 -14 9 -14 45 0 54 7 5 7 8 -1 8
-11 0 -13 58 -1 76 3 6 3 14 -1 18 -11 12 -9 126 3 126 5 0 4 4 -3 9 -18 11
-19 15 -5 33 7 8 10 18 6 22 -12 11 -10 96 1 96 8 0 8 3 1 8 -12 8 -13 27 -3
37 4 4 3 18 -2 31 -6 15 -6 26 1 30 7 4 7 10 0 18 -7 9 -7 16 1 24 8 8 9 12 1
12 -12 0 -12 18 0 36 3 6 3 14 0 18 -12 12 -12 36 0 36 8 0 8 3 2 8 -12 8 -13
22 -3 38 4 6 4 14 1 18 -12 12 -12 36 0 36 8 0 7 3 -1 9 -8 4 -14 12 -14 16 0
4 6 12 14 16 8 6 9 9 1 9 -12 0 -12 17 0 36 3 6 3 14 -1 18 -10 11 -9 30 3 38
6 5 6 8 -2 8 -12 0 -12 17 0 36 3 6 3 14 0 18 -12 12 -12 36 0 36 8 0 8 3 2 8
-14 9 -14 65 0 74 7 5 7 8 -1 8 -14 0 -13 112 1 122 6 5 6 8 -2 8 -12 0 -12
17 0 36 3 6 3 14 -1 18 -11 12 -9 96 2 96 8 0 8 3 1 8 -12 8 -13 27 -3 37 4 4
3 16 -3 26 -7 14 -6 19 3 19 8 0 9 3 3 8 -12 8 -13 22 -3 38 4 6 4 14 0 18
-10 11 -9 30 3 38 7 5 6 8 -1 8 -12 0 -13 38 -1 56 3 6 3 14 0 18 -12 12 -12
36 0 36 8 0 7 3 -1 9 -8 4 -14 12 -14 16 0 4 6 12 14 16 8 5 8 9 2 9 -14 0
-13 42 1 52 6 5 6 8 -2 8 -12 0 -12 17 0 36 3 6 3 14 0 18 -12 12 -12 36 0 36
8 0 8 3 2 8 -6 4 -11 16 -11 27 0 11 5 23 11 27 7 5 7 8 -1 8 -12 0 -13 58 -1
77 4 6 4 14 -1 17 -10 6 -9 56 1 73 4 6 3 15 -3 18 -8 5 -8 11 -1 19 6 7 8 16
4 20 -12 12 -12 36 0 36 8 0 8 3 2 8 -5 4 -10 14 -10 22 0 8 5 18 10 22 6 5 6
8 -2 8 -12 0 -12 17 0 36 3 6 3 14 0 18 -12 12 -12 36 0 36 8 0 7 3 -1 9 -8 4
-14 12 -14 16 0 4 6 12 14 16 8 6 9 9 1 9 -12 0 -12 17 0 36 3 6 3 14 0 18
-12 12 -12 36 0 36 8 0 8 3 2 8 -12 8 -13 22 -3 38 4 6 4 14 1 18 -12 12 -12
36 0 36 8 0 8 3 2 8 -13 8 -13 22 -1 41 6 10 6 12 -3 7 -8 -5 -12 -3 -10 5 5
41 14 40 -383 38 -266 -1 -394 -5 -417 -14z"/>
<path d="M2197 4515 c-57 -20 -74 -49 -80 -140 -1 -16 -6 -33 -12 -37 -7 -5
-7 -8 0 -8 6 0 10 -46 9 -122 -1 -78 2 -128 10 -137 8 -12 8 -13 -2 -7 -10 6
-12 -1 -9 -28 3 -22 0 -36 -7 -36 -7 0 -7 -3 -1 -8 6 -4 10 -38 9 -77 0 -38 4
-76 10 -84 8 -11 8 -13 -2 -7 -10 6 -12 -1 -9 -28 2 -20 -1 -37 -7 -40 -7 -3
-7 -5 -1 -5 6 -1 10 -21 9 -48 -2 -43 17 -85 29 -66 3 5 39 6 81 3 47 -3 76
-1 76 5 0 6 3 6 8 0 8 -13 22 -13 41 -1 11 7 13 5 8 -10 -6 -16 -5 -17 5 -4
10 12 24 14 56 10 27 -4 42 -2 42 4 0 8 3 8 8 1 8 -13 22 -13 41 -1 11 7 13 5
8 -10 -7 -18 -6 -18 6 -2 8 10 16 15 19 13 5 -5 166 -7 241 -3 22 1 42 -3 46
-11 6 -10 10 -9 15 4 3 9 10 13 16 10 6 -4 7 -12 4 -18 -5 -8 -3 -8 7 1 7 6
38 12 70 12 32 0 61 5 64 10 3 6 2 10 -4 10 -6 0 -8 6 -5 14 10 26 9 146 -1
146 -6 0 -6 3 1 8 6 4 9 21 7 37 -4 36 -4 50 -1 133 2 34 -1 62 -6 62 -5 0 -3
7 4 15 7 8 9 15 5 15 -4 0 -1 8 6 17 10 11 10 14 2 9 -12 -7 -18 11 -14 37 6
34 5 95 -1 91 -10 -6 2 27 16 45 8 11 8 13 -1 7 -12 -7 -19 14 -13 39 6 27 5
51 -3 63 -6 7 -6 12 0 12 5 0 9 14 8 30 0 17 -3 30 -7 30 -4 0 -3 11 2 24 5
13 6 27 2 30 -3 4 -177 6 -386 6 -289 -1 -390 -5 -419 -15z"/>
<path d="M2116 3540 c-2 -3 -3 -53 -2 -113 1 -59 -3 -107 -8 -107 -5 0 -5 -6
0 -12 5 -7 9 -51 8 -98 -1 -49 3 -91 10 -99 8 -12 8 -13 -2 -7 -10 6 -12 -1
-9 -28 3 -22 0 -36 -7 -36 -7 0 -7 -3 -1 -8 14 -10 15 -93 1 -85 -6 4 -5 0 2
-9 9 -12 10 -18 2 -23 -6 -4 -7 -12 -3 -18 5 -7 8 -48 7 -92 0 -45 4 -86 10
-94 8 -11 8 -13 -2 -7 -10 6 -12 -1 -9 -28 3 -22 0 -36 -7 -36 -7 0 -7 -3 -1
-8 13 -9 13 -112 1 -112 -6 0 -5 -5 2 -12 7 -7 8 -17 2 -29 -7 -12 -6 -20 0
-24 8 -5 8 -11 0 -20 -6 -7 -7 -15 -3 -18 4 -3 8 -84 7 -181 -1 -97 3 -179 8
-182 4 -3 6 -9 3 -14 -10 -16 25 -71 53 -82 15 -6 68 -12 117 -14 50 -3 96 -7
103 -9 6 -2 12 -1 12 3 0 4 22 5 50 4 34 -3 48 -8 44 -15 -3 -7 0 -5 8 3 17
20 243 17 233 -3 -4 -7 -1 -5 7 3 9 10 32 15 73 15 41 0 64 -5 73 -15 10 -13
11 -13 6 3 -5 13 -2 16 12 10 12 -4 15 -3 10 5 -7 11 14 17 39 12 5 -1 7 1 3
5 -4 4 0 14 8 22 8 8 12 19 9 24 -4 5 -2 9 3 9 5 0 8 12 6 27 -1 15 2 33 8 40
8 10 7 13 -3 13 -9 0 -10 3 -4 8 9 6 11 22 5 47 -1 6 -1 15 0 20 7 27 4 125
-3 125 -5 0 -5 5 -2 11 12 18 12 69 1 69 -8 0 -8 3 0 8 6 4 9 21 7 37 -4 36
-4 50 -1 133 2 34 -1 62 -5 62 -5 0 -5 5 -2 11 12 18 12 69 1 69 -8 0 -8 3 0
8 6 4 9 21 7 37 -4 36 -4 50 -1 133 2 34 -1 62 -5 62 -5 0 -5 5 -2 11 12 18
12 69 1 69 -8 0 -8 3 0 8 6 4 9 21 7 37 -4 36 -4 50 -1 133 2 34 0 62 -3 62
-3 0 -6 7 -6 15 0 8 3 15 7 15 6 0 5 56 0 70 -1 3 -1 10 0 15 6 26 6 51 -2 66
-4 9 -4 19 -1 23 12 11 11 51 0 67 -11 13 -67 15 -445 15 -239 0 -435 -3 -436
-6z"/>
<path d="M2269 1913 c-13 -16 -12 -17 4 -4 9 7 17 15 17 17 0 8 -8 3 -21 -13z"/>
<path d="M4576 703 c-6 -14 -5 -15 5 -6 7 7 10 15 7 18 -3 3 -9 -2 -12 -12z"/>
<path d="M2870 556 c0 -2 7 -7 16 -10 8 -3 12 -2 9 4 -6 10 -25 14 -25 6z"/>
</g>
</svg>
