<svg xmlns="http://www.w3.org/2000/svg" xmlns:xlink="http://www.w3.org/1999/xlink" width="240" height="120" viewBox="0 0 240 120">
  <defs>
    <clipPath id="clip-_09">
      <rect width="240" height="120"/>
    </clipPath>
  </defs>
  <g id="_09" data-name="09" clip-path="url(#clip-_09)">
    <g id="Vordergrund" transform="translate(45 42.325)">
      <path id="Path_5" data-name="Path 5" d="M104.3,374.717c1.78,0,2.375.617,2.375,2.218v30.413h8.385V374.213a2.69,2.69,0,0,0-2.69-2.69H104.3Z" transform="translate(-72.047 -370.81)" fill="#222" fill-rule="evenodd"/>
      <path id="Path_6" data-name="Path 6" d="M139.921,374.717c1.78,0,2.375.617,2.375,2.218v30.413h8.385V374.213a2.69,2.69,0,0,0-2.69-2.69h-8.07Z" transform="translate(-93.581 -370.81)" fill="#222" fill-rule="evenodd"/>
      <path id="Path_7" data-name="Path 7" d="M175.8,397.717c1.78,0,2.375.617,2.375,2.218v21.316h8.385V397.213a2.69,2.69,0,0,0-2.69-2.69H175.8Z" transform="translate(-115.267 -384.712)" fill="#222" fill-rule="evenodd"/>
      <ellipse id="Ellipse_1" data-name="Ellipse 1" cx="4.892" cy="4.06" rx="4.892" ry="4.06" transform="translate(61.797)" fill="#222"/>
      <path id="Path_8" data-name="Path 8" d="M288.556,396.451v-.231a2.69,2.69,0,0,0-2.69-2.69H277.8v3.194c1.78,0,2.375.617,2.375,2.218v21.316h8.385V402.306c3.45-4.175,6.53-2.735,6.53.018v17.934h8.385V400.243c0-7.165-5.335-7.362-6.811-7.362C293.511,392.881,290.333,395.018,288.556,396.451Z" transform="translate(-176.922 -383.72)" fill="#222" fill-rule="evenodd"/>
      <path id="Path_9" data-name="Path 9" d="M362.966,399.807l-11.257,15.865v5.579H372.5v-5.579H360.948l11.07-15.865v-5.284H354.576a2.69,2.69,0,0,0-2.69,2.69v4.969h3.195c0-1.78.617-2.375,2.218-2.375Z" transform="translate(-221.6 -384.712)" fill="#222" fill-rule="evenodd"/>
      <path id="Path_10" data-name="Path 10" d="M38.889,379.616c.785,3.194,2.05,8.355,3.346,13.422H35.185Zm4.847,19.3,2.154,8.437h9.176l-8.947-33.135a3.773,3.773,0,0,0-3.417-2.69H29.4v3.323s3.958-.6,2.891,2.741c-9.126,28.6-9.524,29.761-9.524,29.761H31.3l2.288-8.436Z" transform="translate(-22.764 -370.81)" fill="#222" fill-rule="evenodd"/>
      <path id="Path_11" data-name="Path 11" d="M220.328,412.361v-.667c0-2.914,3.982-4.224,6.452-4.224v5.21s-1.968,2.312-4.23,2.312C220.962,414.991,220.328,414.051,220.328,412.361Zm-4.618-11.207-1.941-5.193a26.585,26.585,0,0,1,12.536-3.076c7.376,0,8.523,4.83,8.523,9.14v13.188c0,2.546,2.15,2.325,2.15,2.325v2.723h-7.729c-1.544,0-2.469-.882-2.469-2.679a10.175,10.175,0,0,1-7.654,3.135c-5.092,0-6.625-3.164-6.625-7.416,0-5.439,2.423-7.12,4.7-8.257s9.583-2.274,9.583-2.274v-.427c0-.244,0-3.526-2.982-3.526A19.16,19.16,0,0,0,215.71,401.154Z" transform="translate(-137.453 -383.722)" fill="#222" fill-rule="evenodd"/>
    </g>
  </g>
</svg>
