<svg xmlns="http://www.w3.org/2000/svg" xmlns:xlink="http://www.w3.org/1999/xlink" width="240" height="120" viewBox="0 0 240 120">
  <defs>
    <clipPath id="clip-_02">
      <rect width="240" height="120"/>
    </clipPath>
  </defs>
  <g id="_02" data-name="02" clip-path="url(#clip-_02)">
    <g id="audi" transform="translate(67 31.452)">
      <g id="Group_1" data-name="Group 1" transform="translate(15.692 45.237)">
        <path id="Path_1" data-name="Path 1" d="M209.3,192.891V179.066h-5.748v13.825Z" transform="translate(-133.009 -173.846)" fill="#222"/>
        <path id="Path_2" data-name="Path 2" d="M145.834,187.107v-8.041h-5.573v6.172a11.4,11.4,0,0,1-.177,2.716,3.011,3.011,0,0,1-3.1,1.834c-1.9,0-2.787-.741-3.139-1.905a6.8,6.8,0,0,1-.176-1.234c-.035-.458,0-.952,0-1.482v-6.1h-5.644v8.077a5.3,5.3,0,0,0,1.587,4.056c1.693,1.658,4.55,2.151,7.195,2.151,3.209,0,5.68-.458,7.442-2.186a5.168,5.168,0,0,0,1.587-4.056Z" transform="translate(-99.983 -173.846)" fill="#222"/>
        <path id="Path_3" data-name="Path 3" d="M96.4,181.98H88.724l3.824-6.31,3.849,6.31Zm10.823,6.855-12.7-19.045H87.4l1.968,2.328L78.194,188.835h6.419l1.916-3.138H98.635l1.954,3.138Z" transform="translate(-78.194 -169.79)" fill="#222"/>
        <path id="Path_4" data-name="Path 4" d="M183.934,181.676c0-1.552-.635-3.35-2.609-5.855l-4.762-6.031h-6.631l3.774,4.232a13.17,13.17,0,0,0,1.446,1.339,6.291,6.291,0,0,0-3-.74,13.14,13.14,0,0,0-6.383,1.553,6.334,6.334,0,0,0-3.528,5.679,6.559,6.559,0,0,0,2.01,4.654c2.54,2.541,7.161,2.787,8.853,2.787,2.5,0,6.419-.565,8.641-2.575a6.61,6.61,0,0,0,2.187-5.043Zm-5.5.177a3.565,3.565,0,0,1-2.152,3.138,6.776,6.776,0,0,1-3.174.67,7.433,7.433,0,0,1-3.209-.706,3.588,3.588,0,0,1-2.116-3.033,3.831,3.831,0,0,1,2.539-3.316,6.725,6.725,0,0,1,2.68-.529,8.075,8.075,0,0,1,2.786.459,3.865,3.865,0,0,1,2.646,3.316Z" transform="translate(-114.947 -169.79)" fill="#222"/>
      </g>
      <g id="Group_4" data-name="Group 4" transform="translate(0 0)">
        <g id="Group_2" data-name="Group 2" transform="translate(0 0.056)">
          <path id="Path_5" data-name="Path 5" d="M68.6,89.5a18.288,18.288,0,1,0,18.288,18.288A18.288,18.288,0,0,0,68.6,89.5Zm0,32.37a14.081,14.081,0,1,1,14.081-14.081A14.081,14.081,0,0,1,68.6,121.87Z" transform="translate(-50.308 -89.5)" fill="#222"/>
          <path id="Path_6" data-name="Path 6" d="M70.273,93.334A16.131,16.131,0,1,0,86.4,109.465,16.131,16.131,0,0,0,70.273,93.334Zm0,30.292a14.161,14.161,0,1,1,14.162-14.161A14.161,14.161,0,0,1,70.273,123.626Z" transform="translate(-51.985 -91.176)" fill="#222"/>
        </g>
        <path id="Path_7" data-name="Path 7" d="M86.4,109.465A16.131,16.131,0,1,1,70.273,93.334,16.131,16.131,0,0,1,86.4,109.465Z" transform="translate(-51.985 -91.12)" fill="none"/>
        <path id="Path_8" data-name="Path 8" d="M194.935,89.5a18.288,18.288,0,1,0,18.289,18.288A18.289,18.289,0,0,0,194.935,89.5Zm0,32.37a14.081,14.081,0,1,1,14.083-14.081A14.081,14.081,0,0,1,194.935,121.87Z" transform="translate(-105.553 -89.444)" fill="#222"/>
        <path id="Path_9" data-name="Path 9" d="M196.611,93.334a16.131,16.131,0,1,0,16.131,16.131A16.131,16.131,0,0,0,196.611,93.334Zm0,30.292a14.161,14.161,0,1,1,14.162-14.161A14.162,14.162,0,0,1,196.611,123.626Z" transform="translate(-107.229 -91.12)" fill="#222"/>
        <path id="Path_11" data-name="Path 11" d="M110.6,121.87a14.019,14.019,0,0,1-8.8-3.088H98.787v2.967a18.271,18.271,0,0,0,23.684-.057v-2.909h-3.08A14.019,14.019,0,0,1,110.6,121.87ZM98.767,93.846V96.88h2.926a14.079,14.079,0,0,1,17.808,0h2.991V93.9a18.269,18.269,0,0,0-23.725-.057Zm-6.459,13.942a18.208,18.208,0,0,0,3.623,10.929h2.825v-3.31a14.067,14.067,0,0,1,0-15.236V96.891H95.909A18.2,18.2,0,0,0,92.308,107.788Zm32.959-10.92h-2.74v3.443a13.636,13.636,0,0,1-.126,14.9v3.662l3.143-.087a18.995,18.995,0,0,0-.277-21.913Z" transform="translate(-68.674 -89.444)" fill="#222"/>
        <path id="Path_13" data-name="Path 13" d="M154.387,113.514a18.093,18.093,0,0,1-3.631,10.92h.143a18.363,18.363,0,0,0,0-21.84h-.143A18.1,18.1,0,0,1,154.387,113.514Z" transform="translate(-94.232 -95.169)" fill="#222"/>
        <path id="Path_16" data-name="Path 16" d="M127.3,141.536a16.009,16.009,0,0,1-23.346,0h-.136v.1a16.181,16.181,0,0,0,23.684-.07v-.033Z" transform="translate(-73.709 -112.198)" fill="#222"/>
        <path id="Path_17" data-name="Path 17" d="M115.615,89.513a18.093,18.093,0,0,1,11.9,4.421v-.149a18.329,18.329,0,0,0-23.725-.057v.149A18.091,18.091,0,0,1,115.615,89.513Z" transform="translate(-73.693 -89.4)" fill="#222"/>
        <path id="Path_18" data-name="Path 18" d="M115.631,150.978a18.093,18.093,0,0,1-11.809-4.346v.148a18.33,18.33,0,0,0,23.684-.057v-.149A18.089,18.089,0,0,1,115.631,150.978Z" transform="translate(-73.709 -114.401)" fill="#222"/>
        <path id="Path_19" data-name="Path 19" d="M92.321,113.532a18.09,18.09,0,0,1,3.613-10.9h-.142a18.362,18.362,0,0,0,.024,21.826h.143A18.09,18.09,0,0,1,92.321,113.532Z" transform="translate(-68.63 -95.187)" fill="#222"/>
        <g id="Group_3" data-name="Group 3" transform="translate(47.224)">
          <path id="Path_20" data-name="Path 20" d="M152.618,121.87a14.022,14.022,0,0,1-8.8-3.088h-3.013v2.967a18.273,18.273,0,0,0,23.685-.057v-2.909h-3.08A14.02,14.02,0,0,1,152.618,121.87ZM140.788,93.846l-.066,2.923,2.992.111a14.079,14.079,0,0,1,17.808,0h2.993V93.9a18.271,18.271,0,0,0-23.726-.057Zm-6.459,13.942a18.2,18.2,0,0,0,3.365,10.993l3.114.092v-3.7a12.9,12.9,0,0,1,.1-14.764l.06-3.645-3.174.079A18.225,18.225,0,0,0,134.329,107.788Zm32.96-10.92h-2.74v3.443a14.072,14.072,0,0,1,0,14.954v3.443h2.74a18.29,18.29,0,0,0,0-21.84Z" transform="translate(-134.273 -89.444)" fill="#222"/>
          <path id="Path_21" data-name="Path 21" d="M154.294,123.626a14.1,14.1,0,0,1-8.925-3.168h-2.876a16.122,16.122,0,0,0,23.6,0h-2.876A14.1,14.1,0,0,1,154.294,123.626Zm-16.131-14.161a16.071,16.071,0,0,0,4.269,10.929h.021v-3.162a14.152,14.152,0,0,1,0-15.532V98.568H142.4A16.071,16.071,0,0,0,138.163,109.465Zm16.131-16.131A16.083,16.083,0,0,0,142.465,98.5v.055h2.8a14.162,14.162,0,0,1,18.062,0h2.851A16.088,16.088,0,0,0,154.294,93.334Zm11.931,5.274v3.232a14.147,14.147,0,0,1,0,15.25v3.232a16.131,16.131,0,0,0,0-21.713Z" transform="translate(-135.949 -91.12)" fill="#222"/>
          <path id="Path_22" data-name="Path 22" d="M190.128,116.1a13.93,13.93,0,0,1-2.095,7.377v.209a14.143,14.143,0,0,0,0-15.173v.21A13.928,13.928,0,0,1,190.128,116.1Z" transform="translate(-157.756 -97.76)" fill="#222"/>
          <path id="Path_23" data-name="Path 23" d="M196.41,113.514a18.09,18.09,0,0,1-3.631,10.92h.143a18.361,18.361,0,0,0,0-21.84h-.143A18.091,18.091,0,0,1,196.41,113.514Z" transform="translate(-159.832 -95.169)" fill="#222"/>
          <path id="Union_2" data-name="Union 2" d="M4.247,27.144A16.185,16.185,0,0,1,4.218,5.318h.158V5.4a16.014,16.014,0,0,0,0,21.637v.11Zm23.9-.008v-.2a16.012,16.012,0,0,0,0-21.434v-.2h.045a16.183,16.183,0,0,1,0,21.841ZM27.971,5.307a16.014,16.014,0,0,0-23.51,0H4.386V5.141a16.183,16.183,0,0,1,23.726.07v.1Z" transform="translate(2.129 2.129)" fill="#222"/>
          <path id="Path_27" data-name="Path 27" d="M168.812,141.536h-.183a14.018,14.018,0,0,1-17.415,0h-.182a14.139,14.139,0,0,0,17.78,0Z" transform="translate(-141.577 -112.198)" fill="#222"/>
          <path id="Path_28" data-name="Path 28" d="M157.637,89.513a18.1,18.1,0,0,1,11.9,4.421v-.149a18.331,18.331,0,0,0-23.726-.057v.149A18.091,18.091,0,0,1,157.637,89.513Z" transform="translate(-139.292 -89.4)" fill="#222"/>
          <path id="Path_29" data-name="Path 29" d="M157.653,150.978a18.092,18.092,0,0,1-11.809-4.346v.148a18.332,18.332,0,0,0,23.685-.057v-.149A18.093,18.093,0,0,1,157.653,150.978Z" transform="translate(-139.308 -114.401)" fill="#222"/>
          <path id="Path_30" data-name="Path 30" d="M134.342,113.532a18.09,18.09,0,0,1,3.613-10.9h-.142a18.36,18.36,0,0,0,.024,21.826h.143A18.087,18.087,0,0,1,134.342,113.532Z" transform="translate(-134.229 -95.187)" fill="#222"/>
          <path id="Path_31" data-name="Path 31" d="M144,123.513a14.032,14.032,0,0,1,0-15.039v-.21a14.151,14.151,0,0,0,0,15.459Z" transform="translate(-137.498 -97.649)" fill="#222"/>
          <path id="Path_32" data-name="Path 32" d="M150.845,100.105h.178a14.028,14.028,0,0,1,17.633,0h.178a14.142,14.142,0,0,0-17.99,0Z" transform="translate(-141.495 -92.669)" fill="#222"/>
        </g>
        <path id="Path_33" data-name="Path 33" d="M125.752,103.427v.21a13.928,13.928,0,0,1,2.094,7.377,14.1,14.1,0,0,1-2.165,7.408v.267a14.4,14.4,0,0,0,2.278-7.675A14.037,14.037,0,0,0,125.752,103.427Zm-11.931,21.612a13.918,13.918,0,0,1-8.707-3.032h-.182a14.137,14.137,0,0,0,17.779,0h-.182A13.918,13.918,0,0,1,113.822,125.039Zm-11.84-6.3v-.21a14.032,14.032,0,0,1,0-15.039v-.21a14.151,14.151,0,0,0,0,15.459Zm2.845-18.638h.179a14.026,14.026,0,0,1,17.632,0h.178a14.141,14.141,0,0,0-17.99,0Z" transform="translate(-71.899 -92.669)" fill="#222"/>
      </g>
    </g>
  </g>
</svg>
