<svg xmlns="http://www.w3.org/2000/svg" xmlns:xlink="http://www.w3.org/1999/xlink" width="240" height="120" viewBox="0 0 240 120">
  <defs>
    <clipPath id="clip-_01">
      <rect width="240" height="120"/>
    </clipPath>
  </defs>
  <g id="_01" data-name="01" clip-path="url(#clip-_01)">
    <g id="axa" transform="translate(69 40.701)">
      <path id="Path_39" data-name="Path 39" d="M-748.523,1292.585l7.605-10.24s.717,3.28,1.241,5.358c.48,1.913,1.318,4.882,1.318,4.882Zm-25.66,25.586,5.529.021,14.875-19.437h17.333l2.73,7.348-9.8,12.066h8.665l3.519-5.411a16.52,16.52,0,0,1,1.234,2.405,16.719,16.719,0,0,1,.628,3.264h9.387l3.565-4.815a16.622,16.622,0,0,1,1.174,2.644c.387,1.238.619,2.171.619,2.171h11.4l-1.549-2.637-4.272-12.11,3.73-4.959H-688.9l5.667,16.837a3.086,3.086,0,0,1,.155,1.552,7.423,7.423,0,0,0-.155,1.318h11.947a19.008,19.008,0,0,1-1.241-2.559c-.8-2.043-12.72-41.592-12.72-41.592l-.155-2.093h-9.776s-.4,1.1-.7,1.791c-2.329,5.193-15.591,21.721-15.591,21.721l-1.32-4.971,14.823-18.465h-9.551l-.079,1.085-8.216,11.092-3.342-10.628v-1.549h-11.094l6.986,20.559-3.031,3.961-6.977-22.584v-1.937h-9.853a9.027,9.027,0,0,1-.93,2.714c-1.276,2.941-23.848,31.948-30.13,39.994v3.2Zm50.06-14.728,3.175-3.966,2.092,6.058-3.463,4.256-1.8-6.348Zm23.278-10.858,7.608-10.24s.717,3.28,1.239,5.358c.48,1.913,1.318,4.882,1.318,4.882Z" transform="translate(774.183 -1272.184)" fill="#222" fill-rule="evenodd"/>
    </g>
  </g>
</svg>
