<svg xmlns="http://www.w3.org/2000/svg" xmlns:xlink="http://www.w3.org/1999/xlink" width="240" height="120" viewBox="0 0 240 120">
  <defs>
    <clipPath id="clip-_04">
      <rect width="240" height="120"/>
    </clipPath>
  </defs>
  <g id="_04" data-name="04" clip-path="url(#clip-_04)">
    <g id="disney" transform="translate(33.165 -27.683)">
      <path id="Path_111137" data-name="Path 111137" d="M87.348,65.264a5.1,5.1,0,0,1,3.1,1.239,4.235,4.235,0,0,1,.929,4.463c-2.168,4.462-7.323,7.442-10.845,8.428a12.24,12.24,0,0,1-6.693-.248c-.93.558-1.715,2.36-2.851,1.611-1.644-1.284-.221-3.294-1.17-4.72-.2-.294-.689-.315-.937-.8-1.3-2.851.31-5.578,2.107-7.746,3-3.342,11.59-7.066,16.361-2.231Zm-9.978,2.23a8.225,8.225,0,0,0-4.586,2.231c-1.023,1.192-1.673,2.355-1.053,3.594,2.169-1.611,3.223-3.842,5.64-5.205C77.37,67.866,77.742,67.681,77.37,67.495Zm10.1.62c-4.277-.373-7.5,2.851-10.536,5.949-.186.5-1.3,1.053-.434,1.611a14.063,14.063,0,0,0,10.97-3.532,2.745,2.745,0,0,0,1.054-2.975A2.191,2.191,0,0,0,87.473,68.115Zm37.059,18.468c1.984,4.834,3.656,12.456,0,17.1-.991,1.115-2.726,2.143-3.841,1.3-4.091-3.284-5.825-7.994-8.366-12.209-.372-.186-.372.311-.558.5-.929,4.276.805,9.854-2.107,13.2a2.231,2.231,0,0,1-2.541-1.487c-1.426-4.4.06-8.987.432-13.386.868-2.231,1.24-4.834,3.162-6.507,3.1,1.239,4.586,4.711,6.382,7.252a63.447,63.447,0,0,0,3.842,5.825c1.3-.558.661-2.258.62-3.285A80.792,80.792,0,0,0,118.89,83.3c-.06-.991-.618-2.665.434-3.285C122.116,81.254,123.291,84.166,124.531,86.583ZM105.816,85.1a2.575,2.575,0,0,1-1.365,2.231c-5.949.929-12.58.372-18.157,2.23-.186.682.62.805,1.053.991,4.771.743,9.792.929,14.441,2.107,2.458.624,3.347,3.533,3.533,5.95a6.33,6.33,0,0,1-2.479,5.516c-4.585,2.913-11.588,2.788-16.237.125-1.777-1-3.471-2.6-3.594-4.586a3.705,3.705,0,0,1,1.8-3.409c4.463-1.8,9.978-.8,13.821,1.487.246,1.24-1.1,1.173-1.738,1.612-4.277,2.479-7.5-2.787-11.465-.868-.558.372-.961,1.409-.31,1.736,4.9,2.169,10.35.62,15.183-.743.558-.186,1.24-.743,1.3-1.3-.186-1.984-2.416-2.416-3.842-2.974-4.214-1.053-8.862-1.053-13.386-1.487a3.27,3.27,0,0,1-2.23-1.487,5.042,5.042,0,0,1,.62-4.772c5.763-5.082,14.5-4.648,21.814-3.285.5.182,1.054.368,1.241.926ZM78.734,87.45a151.282,151.282,0,0,1,.743,17.724c-.124.8-1.053.991-1.673,1.3a3.108,3.108,0,0,1-2.665-.558c-1.425-2.294-.929-5.391-1.053-8.18.186-4.4.124-9.172,1.364-13.263.237-.594.929-1.115,1.487-.744C78.424,84.476,78.672,85.963,78.734,87.45Zm68.854-.867c.3.5.61,1.275,0,1.611-2.789,1.239-6.568.682-9.792,1.053a3.248,3.248,0,0,0-1.241,3.1c.312.186.589.469.931.433,1.982.125,4.958-.929,6.26.929.318.553-.043,2.618-.929,2.665-2.418.312-6.394-.3-7.562.312-1.487.991-1.364,2.912-1.922,4.463,1.054.682,2.158-.016,3.408-.187,2.3-.372,4.836-1.053,7.128-.558.434.805,1.054,1.674.62,2.665-3.907,3.1-8.946,6.275-14.315,4.028-2.015-.9-2.913-3.966-2.23-6.568.433-1.86,2.353-3.656,1.177-5.64a1.475,1.475,0,0,1,1.054-1.8c2.045,0,1.61-2.541,2.664-3.719-1.177-1.3-4.151-1.239-3.841-3.842,1.426-.743,3.162-.5,4.771-.743a37.532,37.532,0,0,1,11.468-.744C145.976,84.192,146.968,85.654,147.588,86.583Zm-88.5-14.13C64.807,77.128,72.227,85.1,71.3,94.268c-1.116,7.252-8.8,12.7-15.308,14.441-6.321,1.859-14.254,1.673-20.7.186-.434,1.178-.867,2.6-2.23,3.1a2.909,2.909,0,0,1-2.665-.434c-1.921-1.8-.372-5.268-3.161-6.383-5.454-2.293-11.342-6.818-14.13-12.4a3.33,3.33,0,0,1,.743-3.1c4.277-3.409,9.668-4.772,15.06-5.826.31.124.186-.31.434-.434.31-3.718.434-7.5,1.611-10.846a.968.968,0,0,1,1.364-.31c3.409,2.6,1.8,7.5,3.285,11.031,6.507.31,13.015.62,18.158,4.277a5.642,5.642,0,0,1,1.611,5.7,4.74,4.74,0,0,1-4.028,2.787c-1.116,0-3.223.109-3.1-.743s3.791-2.247,2.665-3.409c-1.619-1.671-9.719-2.665-14.74-3.285-.62-.124-1.188.062-1.188.743-.124,4.71-.5,9.915.31,14.441a1.11,1.11,0,0,0,.744.743c8.862,1.426,18.22.62,25.161-4.462,3.223-2.6,4.277-6.26,3.718-10.288-2.789-11.217-14.5-17.973-24.108-22.311A67.79,67.79,0,0,0,10,61.856c-1.766.129-4.565.739-4.586,1.364s3.171.428,2.788,1.611-3.625.48-4.586.186S2.753,63.343,3,62.475C5.418,58.2,12.164,57.854,15.21,57.7A68.777,68.777,0,0,1,59.088,72.453ZM28.721,89.062a38.492,38.492,0,0,0-12.767,1.983c-.805.31-1.8,1.177-1.178,2.231a20.52,20.52,0,0,0,6.074,5.205c2.159,1.254,5.02,2.851,7.623,3.224a71.928,71.928,0,0,0,.558-12.147c-.249-.124,0-.372-.31-.5Zm128.1-5.64c-.186,5.391-5.207,8.739-5.207,14.13.186.186.312.434.558.312,4.03-4.4,8-10.66,13.883-12.519,1.552-.124,2.953,1.224,3.533,2.231a13.54,13.54,0,0,1-1.3,13.572c-2.943,3.65-8.058,7.313-13.881,6.692a79.486,79.486,0,0,0-5.022,18.717c-.5,1.3-1.672.124-2.415-.124-5.019-3.966-.9-14.466-.558-15.805s1.684-4.488,2.666-7.127c-2.355-4.213-.868-9.3,1.052-13.2a26.323,26.323,0,0,1,5.951-7.189.835.835,0,0,1,.741.311Zm9.98,6.693c-.743-.124-1.054.868-1.673,1.054-2.85,3.223-5.7,6.445-7.128,10.288,1.922.248,3.532-.991,5.207-1.673a9.065,9.065,0,0,0,4.462-8.18c-.125-.559-.62-.993-.868-1.489Z" transform="translate(0 0)" fill="#222"/>
    </g>
  </g>
</svg>
