<svg xmlns="http://www.w3.org/2000/svg" xmlns:xlink="http://www.w3.org/1999/xlink" width="240" height="120" viewBox="0 0 240 120">
  <defs>
    <clipPath id="clip-path">
      <path id="path74" d="M105.323-294.4a48.708,48.708,0,0,1,9.567-11.63,2.071,2.071,0,0,0,.85-1.728c-.206-.861-1.89-1.4-4.048-1.567-14.832-.778-28.023,10.625-28.4,25.474a24.76,24.76,0,0,0,2.326,12.029.965.965,0,0,0,1.878-.122c.348-6.819,2.674-15.309,5.017-19.492,1.569-2.623,3.18-5.274,5.239-3.54.844.9-.441,2.44-1.8,5.364a61.747,61.747,0,0,0-3.994,13.389,48.256,48.256,0,0,0-.63,12.2c.309,5.336,2.667,8.687,4.146,7.658.96-.814-.594-1.611-.128-2.613a1.109,1.109,0,0,1,.946-.578,3.623,3.623,0,0,0,.783.008c.963-.059.742-1.638.742-1.638a60.052,60.052,0,0,1,.611-12.565,62.3,62.3,0,0,1,6.9-20.649Zm27.91-1.2a1.613,1.613,0,0,1,.26-1.8,2.394,2.394,0,0,1,1.3-.65s.224-.036.493-.082a1.119,1.119,0,0,0,.911-1.2s.018-.9-1.371-1.039a5.882,5.882,0,0,0-2.679.5s-2.89,1.141-6.928,5.293c-3.061,3.158-6.878,9.714-9.007,16.725-2.168,7.137-3.086,13.771-1.991,20.637,0,0,.627,3.353,2.436,4.6a1.49,1.49,0,0,0,1.218.227,1.206,1.206,0,0,0,.464-.37,1,1,0,0,0-.007-1.108s-.093-.151-.227-.356a2.606,2.606,0,0,1-.362-.993,2.237,2.237,0,0,1,.264-1.525,1.719,1.719,0,0,1,.888-.686c9.146-3.01,16.964-12.143,17.714-23.46.3-5.658-.629-10.257-3.374-14.715Zm-9.259-3.467A26.4,26.4,0,0,1,126.7-301.2a1.358,1.358,0,0,0,.6-1.086,1.85,1.85,0,0,0-.781-1.368,2.686,2.686,0,0,1-.427-.526,1.362,1.362,0,0,1,.056-1.193,1.593,1.593,0,0,1,.817-.736,7.453,7.453,0,0,1,.926-.273,1.5,1.5,0,0,0,.638-.252.975.975,0,0,0,.148-1.045s-.19-.534-1.407-.61a5.739,5.739,0,0,0-1.913.137,10.63,10.63,0,0,0-1.909.61c-.657.352-11.179,4.428-18.1,24.853a79.4,79.4,0,0,0-3.285,19.482s-.431,7.02,1.875,10.859a4.369,4.369,0,0,0,1.092,1.2.988.988,0,0,0,1.3-.045s.67-.523-.02-1.608a2.659,2.659,0,0,1-.238-.563,2.088,2.088,0,0,1,.082-1.2,1.712,1.712,0,0,1,1.488-1.1,2.431,2.431,0,0,0,1.781-.7,2.827,2.827,0,0,0,.375-1.955s-.14-1.486-.273-3.444a42.714,42.714,0,0,1,.875-11.182,70.931,70.931,0,0,1,2.507-9.172A43.623,43.623,0,0,1,123.973-299.073Z" transform="translate(-83.274 309.364)" fill="#222"/>
    </clipPath>
    <clipPath id="clip-path-2">
      <path id="path80" d="M24.744-392.178a50.752,50.752,0,0,1,50.669-50.854,50.759,50.759,0,0,1,50.7,50.854,50.721,50.721,0,0,1-50.7,50.683A50.714,50.714,0,0,1,24.744-392.178Z" transform="translate(-24.744 443.032)" fill="#222"/>
    </clipPath>
    <clipPath id="clip-_06">
      <rect width="240" height="120"/>
    </clipPath>
  </defs>
  <g id="_06" data-name="06" clip-path="url(#clip-_06)">
    <g id="g10" transform="translate(205.211 160.364)">
      <g id="g12" transform="translate(-177.211 -128.326)">
        <path id="path14" d="M12.162-25.876l.125-1.9a8.085,8.085,0,0,1-2.906.608C6.5-27.171,5.532-28.916,6.147-32c.554-2.765,2.232-4.884,5-4.884a8.817,8.817,0,0,1,2.772.452l.628-1.961a12.119,12.119,0,0,0-2.849-.374c-4.451,0-7.131,3-7.953,7.119-.706,3.53.35,6.394,4.782,6.394a10.926,10.926,0,0,0,3.638-.627h0" transform="translate(59.928 68.91)" fill="#100f0d"/>
        <path id="path16" d="M38.3-29.921a3.829,3.829,0,0,0-3.707,2.353h-.039a14.634,14.634,0,0,0,.628-2.157h-2l-1.948,9.747h2.1l.792-3.962c.583-2.922,1.795-4.275,3.667-3.923l.509-2.058h0" transform="translate(42.895 63.482)" fill="#100f0d"/>
        <path id="path18" d="M50.739-19.635l1.948-9.747h-2.1L48.64-19.635h2.1" transform="translate(32.186 63.141)" fill="#100f0d"/>
        <path id="path20" d="M56.952-38.838a1.134,1.134,0,0,0-1.157-1.42,1.848,1.848,0,0,0-1.744,1.42,1.146,1.146,0,0,0,1.177,1.419,1.844,1.844,0,0,0,1.723-1.419h0" transform="translate(28.874 69.831)" fill="#e71d26"/>
        <path id="path22" d="M67.65-20.221l.181-1.785a5.525,5.525,0,0,1-2.212.471c-1.942,0-2.318-1.354-1.962-3.138.412-2.059,1.576-3.372,3.361-3.372a5.106,5.106,0,0,1,1.887.373l.58-1.825a6.858,6.858,0,0,0-2.059-.293c-3.355,0-5.394,2.255-6.013,5.353-.694,3.472.883,4.707,3.393,4.707a8.785,8.785,0,0,0,2.844-.491h0" transform="translate(24.43 63.392)" fill="#100f0d"/>
        <path id="path24" d="M90.723-26.941l-2.825-5.3,4.5-4.45h-2.57l-3.992,4.176,1.748-8.746h-2.1L82.624-26.941h2.1l.987-4.943,2.346,4.943h2.668" transform="translate(11.281 70.446)" fill="#100f0d"/>
        <path id="path26" d="M113.555-26.167h-4.14a2.873,2.873,0,0,1,2.612-2.178C113.263-28.345,113.859-27.5,113.555-26.167Zm2,.49c.462-2.314-.354-4.216-3.14-4.216-2.843,0-4.891,2.2-5.477,5.137-.686,3.433.666,5,3.706,5a9.882,9.882,0,0,0,3.5-.628l.136-1.667a7.6,7.6,0,0,1-2.968.628c-1.943,0-2.737-1.02-2.229-3.276H115.3c.113-.372.2-.7.255-.981h0" transform="translate(-3.569 63.455)" fill="#100f0d"/>
        <path id="path28" d="M137.453-25.539l.346-1.726a5.646,5.646,0,0,1-1.307.157c-.981,0-1.2-.393-.906-1.843l.932-4.669h2.55l.325-1.626h-2.57l.733-3.668-2.192.569-.62,3.1h-1.863l-.324,1.626h1.862L133.357-28.3c-.434,2.177.032,2.981,2.112,2.981a10.838,10.838,0,0,0,1.984-.215h0" transform="translate(-19.436 69.004)" fill="#100f0d"/>
        <path id="path30" d="M170.058-25.876l.124-1.9a8.076,8.076,0,0,1-2.905.608c-2.883,0-3.847-1.745-3.233-4.824.553-2.765,2.232-4.884,5-4.884a8.825,8.825,0,0,1,2.774.452l.627-1.961a12.105,12.105,0,0,0-2.848-.374c-4.451,0-7.127,3-7.95,7.119-.706,3.53.35,6.394,4.779,6.394a10.923,10.923,0,0,0,3.636-.627h0" transform="translate(-37.205 68.91)" fill="#100f0d"/>
        <path id="path32" d="M195.351-24.874c-.451,2.255-1.8,3.314-3.153,3.314-1.628,0-2.259-1.156-1.821-3.353.447-2.236,1.878-3.216,3.154-3.216C195.2-28.129,195.768-26.953,195.351-24.874Zm2.184-.138c.686-3.432-.866-4.883-3.475-4.883a6.167,6.167,0,0,0-5.9,5.2c-.686,3.432.778,4.943,3.485,4.943a6.23,6.23,0,0,0,5.893-5.257h0" transform="translate(-53.536 63.456)" fill="#100f0d"/>
        <path id="path34" d="M224.334-19.635l1.948-9.747h-2.1l-.941,4.706c-.388,1.942-1.776,3.491-3.247,3.491-1.119,0-1.31-.7-1.067-1.922l1.255-6.276H218.1l-1.364,6.826c-.345,1.725.063,3.118,2.28,3.118a4.513,4.513,0,0,0,3.816-2.118l.016.02a14.254,14.254,0,0,0-.519,1.9h2" transform="translate(-71.155 63.141)" fill="#100f0d"/>
        <path id="path36" d="M252.1-19.949l1.364-6.826c.345-1.726-.063-3.118-2.279-3.118a4.516,4.516,0,0,0-3.817,2.118l-.015-.019a14.209,14.209,0,0,0,.518-1.9h-2l-1.948,9.747h2.1l.94-4.708c.389-1.942,1.777-3.491,3.247-3.491,1.119,0,1.311.706,1.067,1.922l-1.254,6.276H252.1" transform="translate(-87.94 63.455)" fill="#100f0d"/>
        <path id="path38" d="M278.739-20.221l.181-1.785a5.525,5.525,0,0,1-2.213.471c-1.941,0-2.318-1.354-1.962-3.138.412-2.059,1.576-3.372,3.362-3.372a5.107,5.107,0,0,1,1.887.373l.581-1.825a6.868,6.868,0,0,0-2.061-.293c-3.353,0-5.393,2.255-6.011,5.353-.694,3.472.883,4.707,3.393,4.707a8.789,8.789,0,0,0,2.844-.491h0" transform="translate(-105.422 63.392)" fill="#100f0d"/>
        <path id="path40" d="M295.811-26.157l1.948-9.747h-2.1l-1.948,9.747Zm2.794-12.513a1.05,1.05,0,0,0-1.071-1.315,1.714,1.714,0,0,0-1.615,1.315,1.061,1.061,0,0,0,1.09,1.313,1.707,1.707,0,0,0,1.6-1.313h0" transform="translate(-118.571 69.663)" fill="#100f0d"/>
        <path id="path42" d="M308.525-26.941l2.86-14.318h-2.1l-2.861,14.318h2.1" transform="translate(-126.392 70.446)" fill="#100f0d"/>
        <path id="path44" d="M16.294-76.181,18.94-89.42H16.8L14.156-76.181h2.138" transform="translate(53.399 100.073)" fill="#100f0d"/>
        <path id="path46" d="M37.372-70.915l1.364-6.826c.345-1.725-.064-3.117-2.28-3.117a4.514,4.514,0,0,0-3.815,2.118l-.016-.019a13.882,13.882,0,0,0,.516-1.9h-2l-1.947,9.747h2.1l.94-4.707c.388-1.941,1.777-3.491,3.247-3.491,1.119,0,1.312.706,1.067,1.923l-1.253,6.275h2.078" transform="translate(44.148 94.806)" fill="#100f0d"/>
        <path id="path48" d="M64.819-76.5l.345-1.725a5.725,5.725,0,0,1-1.307.157c-.981,0-1.2-.393-.905-1.843l.932-4.669h2.549l.326-1.628H64.19l.732-3.667-2.192.569-.62,3.1H60.248l-.326,1.628h1.863l-1.063,5.314c-.434,2.177.033,2.982,2.111,2.982a10.852,10.852,0,0,0,1.985-.216h0" transform="translate(25.246 100.355)" fill="#100f0d"/>
        <path id="path50" d="M86.763-77.132H82.625a2.871,2.871,0,0,1,2.612-2.177C86.472-79.308,87.07-78.466,86.763-77.132Zm2,.49c.461-2.315-.354-4.217-3.139-4.217-2.843,0-4.891,2.2-5.478,5.138-.686,3.432.668,5,3.707,5a9.874,9.874,0,0,0,3.5-.628l.138-1.666a7.591,7.591,0,0,1-2.969.627c-1.941,0-2.739-1.019-2.228-3.275H88.51c.113-.374.2-.706.255-.981h0" transform="translate(12.912 94.806)" fill="#100f0d"/>
        <path id="path52" d="M114.562-80.886a3.825,3.825,0,0,0-3.706,2.353h-.04a14.511,14.511,0,0,0,.627-2.157h-2L107.5-70.943h2.1l.791-3.962c.584-2.922,1.8-4.275,3.667-3.922l.509-2.06h0" transform="translate(-4.02 94.834)" fill="#100f0d"/>
        <path id="path54" d="M135.848-70.915l1.365-6.826c.344-1.725-.064-3.117-2.28-3.117a4.513,4.513,0,0,0-3.815,2.118l-.017-.019a13.889,13.889,0,0,0,.517-1.9h-2l-1.946,9.747h2.1l.941-4.707c.388-1.941,1.776-3.491,3.247-3.491,1.119,0,1.311.706,1.067,1.923l-1.253,6.275h2.077" transform="translate(-16.431 94.806)" fill="#100f0d"/>
        <path id="path56" d="M162.305-75.132a3.353,3.353,0,0,1-2.943,2.765c-.823,0-1.238-.471-1.093-1.2.169-.845,1.018-1.766,4.075-1.766Zm1.314,4.216c.126-.824.306-1.824.474-2.668l.8-3.98c.4-2-.165-3.3-3.146-3.3a10.8,10.8,0,0,0-3.558.648l-.16,1.785a6.872,6.872,0,0,1,3.054-.785c1.53,0,1.914.629,1.672,1.844l-.125.628c-3.508,0-6,1.295-6.448,3.53-.31,1.551.56,2.491,2.229,2.491a4.319,4.319,0,0,0,3.635-2.02l.016.019a14.346,14.346,0,0,0-.459,1.805h2.02" transform="translate(-33.929 94.806)" fill="#100f0d"/>
        <path id="path58" d="M189.778-76.5l.345-1.725a5.727,5.727,0,0,1-1.305.157c-.982,0-1.2-.393-.907-1.843l.931-4.669h2.551l.325-1.628h-2.569l.732-3.667-2.192.569-.62,3.1h-1.862l-.325,1.628h1.863l-1.062,5.314c-.435,2.177.032,2.982,2.11,2.982a10.853,10.853,0,0,0,1.985-.216h0" transform="translate(-51.624 100.355)" fill="#100f0d"/>
        <path id="path60" d="M207.028-77.122l1.947-9.747h-2.1l-1.947,9.747Zm2.794-12.514a1.049,1.049,0,0,0-1.071-1.313,1.711,1.711,0,0,0-1.615,1.313,1.062,1.062,0,0,0,1.091,1.315,1.706,1.706,0,0,0,1.6-1.315h0" transform="translate(-63.955 101.014)" fill="#100f0d"/>
        <path id="path62" d="M227.062-75.839c-.451,2.256-1.8,3.315-3.154,3.315-1.627,0-2.259-1.157-1.82-3.353.445-2.236,1.878-3.216,3.154-3.216C226.909-79.093,227.477-77.917,227.062-75.839Zm2.184-.135c.685-3.434-.869-4.885-3.476-4.885a6.167,6.167,0,0,0-5.9,5.2c-.685,3.432.778,4.942,3.484,4.942a6.234,6.234,0,0,0,5.895-5.255h0" transform="translate(-73.042 94.806)" fill="#100f0d"/>
        <path id="path64" d="M257.156-70.915l1.363-6.826c.345-1.725-.062-3.117-2.279-3.117a4.513,4.513,0,0,0-3.815,2.118l-.015-.019a14.177,14.177,0,0,0,.516-1.9h-2l-1.948,9.747h2.1l.942-4.707c.388-1.941,1.776-3.491,3.247-3.491,1.118,0,1.311.706,1.067,1.923l-1.254,6.275h2.078" transform="translate(-91.052 94.806)" fill="#100f0d"/>
        <path id="path66" d="M283.915-75.132a3.355,3.355,0,0,1-2.946,2.765c-.824,0-1.24-.471-1.095-1.2.168-.845,1.02-1.766,4.079-1.766Zm1.313,4.216c.126-.824.306-1.824.475-2.668l.8-3.98c.4-2-.165-3.3-3.147-3.3a10.822,10.822,0,0,0-3.561.648l-.161,1.785a6.9,6.9,0,0,1,3.059-.785c1.529,0,1.914.629,1.671,1.844l-.125.628c-3.511,0-6,1.295-6.452,3.53-.31,1.551.562,2.491,2.228,2.491a4.327,4.327,0,0,0,3.642-2.02l.014.019a14.433,14.433,0,0,0-.459,1.805h2.019" transform="translate(-108.734 94.806)" fill="#100f0d"/>
        <path id="path68" d="M308.711-77.9l2.861-14.316h-2.1L306.613-77.9h2.1" transform="translate(-126.506 101.796)" fill="#100f0d"/>
        <g id="g70" transform="translate(0 0)">
          <g id="g72" clip-path="url(#clip-path)">
            <g id="g78" transform="translate(-18.353 -41.913)" clip-path="url(#clip-path-2)">
              <path id="path106" d="M105.358-250.977v-.042h-.125v-.042h-.084v-.042h-.084v-.042h-.042v-.042h-.084v-.042H104.9v-.042h-.042v-.042h-.042v-.042h-.042v-.042h-.084v-.042h-.042v-.042h-.042v-.042h-.042v-.042h-.042v-.042h-.042v-.042h-.042v-.042H104.4v-.042h-.042v-.042h-.042v-.042h-.042v-.084h-.042v-.042h-.042v-.042h-.042v-.042H104.1v-.084h-.042v-.042h-.042v-.042h-.042v-.084h-.042v-.042h-.042v-.084h-.042v-.084h-.042v-.042h-.042v-.084h-.042v-.084h-.042v-.084h-.042v-.084H103.6v-.084h-.042v-.084h-.042v-.084h-.042v-.084h-.042v-.125h-.042v-.084h-.042v-.084h-.042v-.125h-.042v-.084h-.042v-.084h-.042v-.125h-.042v-.084H103.1v-.125h-.042v-.125h-.042v-.125h-.042v-.125h-.042v-.125h-.042v-.125h-.042v-.167h-.042v-.125h-.042v-.167h-.042v-.167h-.042v-.167h-.042v-.125H102.6v-.209h-.042v-.209h-.042v-.167h-.042v-.209h-.042v-.209h-.042v-.251h-.042v-.251h-.042v-.251h-.042v-.293h-.042v-.334h-.042v-.334h-.042v-.418H102.1v-.46h-.042v-.585h-.042v-.878h-.042V-263.1h.042v-1.087h.042v-.878h.042v-.585h.042v-.585h.042v-.543h.042v-.5h.042v-.376h.042v-.418h.042v-.418h.042v-.376h.042v-.334h.042v-.334h.042v-.334h.042v-.335h.042v-.334h.042v-.293h.042v-.251h.042v-.293h.042v-.251h.042v-.293h.042v-.293h.042v-.251h.042v-.251h.042v-.209h.042v-.251h.042v-.251h.042v-.251h.042v-.251h.042v-.209h.042v-.209h.042v-.209h.042v-.209h.042v-.251h.042v-.209h.042v-.209h.042v-.209h.042v-.209h.042v-.167h.042v-.209h.042v-.209h.042v-.209h.042v-.167h.042v-.209h.042v-.167h.042v-.209h.042v-.167h.042v-.209h.042v-.167h.042v-.167h.042v-.167h.042v-.209h.042v-.167h.042v-.167h.042v-.167h.042v-.167h.042v-.167h.042v-.167h.042v-.167h.042v-.167h.042v-.167h.042v-.167h.042v-.167h.042v-.125h.042v-.167h.042v-.167h.042v-.125h.042v-.167h.042v-.167h.042v-.125h.042v-.167h.042v-.125h.042v-.167h.042v-.125h.042v-.167h.042v-.125h.042v-.167h.042v-.125h.042v-.125h.042v-.125h.042v-.125h.042v-.125h.042v-.125h.042v-.125h.042v-.125h.042v-.125h.042v-.084h.042v-.125h.042v-.125h.042V-284h.042v-.125h.042v-.084h.042v-.125h.042v-.125h.042v-.125h.042v-.125h.042v-.084h.042v-.125h.042v-.084h.042v-.125h.042v-.125h.042v-.084h.042v-.125h.042v-.125h.042v-.084h.042v-.125h.042v-.084h.042v-.125h.042v-.125h.042v-.084h.042v-.125h.042v-.084h.042v-.125h.042v-.084h.042v-.125h.042v-.084h.042v-.125h.042v-.084h.042v-.084h.042v-.125h.042v-.084h.042v-.125h.042v-.084h.042v-.125h.042v-.084h.042v-.084h.042v-.125h.042v-.084h.042v-.125h.042v-.084h.042v-.084h.042v-.084h.042v-.125h.042v-.084h.042v-.084h.042v-.084h.042v-.125h.042v-.084h.042v-.084h.042v-.084h.042v-.125h.042v-.084h.042v-.084h.042v-.084h.042v-.125h.042v-.084h.042v-.084h.042v-.084h.042v-.084h.042v-.084h.042v-.084h.042v-.084h.042v-.084h.042v-.125h.042v-.084h.042v-.084h.042v-.084h.042v-.084h.042v-.084h.042v-.084h.042v-.084h.042v-.084h.042v-.084h.042v-.084h.042v-.084h.042v-.084h.042v-.084h.042v-.084H109v-.084h.042v-.084h.042v-.084h.042v-.084h.042v-.084h.042v-.084h.042v-.084h.042v-.084h.042v-.084h.042v-.084h.042v-.084h.042v-.084h.042v-.042h.042v-.084h.042v-.084h.042v-.084h.042v-.084h.042v-.084h.042v-.042h.042v-.084h.042v-.084h.042v-.084h.042v-.084h.042v-.042H110v-.084h.042v-.084h.042v-.084h.042v-.084h.042v-.084h.042V-294h.042v-.084h.042v-.084h.042v-.084h.042v-.042h.042v-.084h.042v-.084h.042v-.042h.042v-.084h.042v-.084h.042v-.042h.042v-.084h.042v-.084h.042v-.084h.042V-295h.042v-.084h.042v-.084h.042v-.042h.042v-.084H111v-.084h.042v-.042h.042v-.084h.042v-.042h.042v-.084h.042v-.084h.042v-.042h.042v-.084h.042v-.042h.042v-.084h.042v-.084h.042v-.042h.042v-.084h.042v-.084h.042v-.042h.042v-.084h.042v-.042h.042v-.084h.042v-.042h.042v-.084h.042v-.042h.042v-.084h.042v-.042h.042v-.084h.042v-.042h.042v-.084h.042v-.042h.042v-.084h.042v-.042h.042v-.084h.042v-.042h.042v-.084h.042v-.042h.042v-.084h.042v-.042h.042v-.084h.042v-.042h.042v-.084h.042v-.042h.042v-.042h.042v-.084h.042v-.042h.042v-.084h.042v-.042h.042v-.042h.042v-.084h.042v-.042h.042v-.084h.042v-.042h.042v-.042h.042v-.084h.042v-.042h.042v-.084h.042v-.042h.042v-.042h.042v-.084h.042v-.042h.042v-.042h.042v-.084h.042v-.042h.042v-.042h.042v-.084h.042v-.042h.042v-.042h.042v-.084h.042v-.042h.042v-.042h.042v-.084h.042v-.042h.042v-.042h.042v-.042h.042v-.084h.042v-.042h.042v-.042h.042v-.042h.042v-.084h.042v-.042h.042v-.042h.042v-.042h.042v-.084h.042v-.042h.042v-.042h.042v-.042h.042v-.084h.042v-.042h.042v-.042h.042v-.042h.042v-.042h.042v-.084h.042v-.042h.042v-.042h.042v-.042h.042v-.042h.042v-.084h.042v-.042h.042v-.042h.042v-.042h.042v-.042h.042v-.042h.042v-.084h.042v-.042h.042v-.042h.042v-.042h.042v-.042h.042v-.042h.042v-.042h.042v-.084h.042v-.042h.042v-.042h.042v-.042h.042v-.042h.042v-.042h.042v-.042h.042v-.042h.042v-.042h.042v-.042h.042v-.084h.042v-.042h.042v-.042h.042v-.042h.042v-.042h.042v-.042h.042v-.042h.042v-.042h.042v-.042h.042v-.042h.042v-.042h.042v-.042h.042v-.042h.042v-.042h.042v-.042h.042v-.042h.042v-.042h.042v-.042h.042v-.084h.042v-.042h.042v-.042h.042v-.042h.042v-.042h.042v-.042h.042v-.042h.084v-.042h.042v-.042h.042v-.042h.042v-.042h.042v-.042h.042v-.042h.042v-.042h.042v-.042h.042v-.042h.042v-.042h.042v-.042h.042v-.042h.042v-.042h.042v-.042h.042v-.042h.042v-.042h.042v-.042h.042v-.042h.042v-.042h.042v-.042h.084v-.042h.042v-.042h.042v-.042h.042v-.042h.042v-.042h.042v-.042h.042v-.042h.042v-.042h.042v-.042h.084v-.042h.042v-.042h.042v-.042h.042v-.042h.042v-.042h.042v-.042h.042v-.042h.084v-.042h.042v-.042h.042v-.042h.042v-.042h.042v-.042h.084v-.042h.042v-.042h.042v-.042h.042v-.042h.042v-.042h.084v-.042h.042v-.042h.042v-.042h.042v-.042h.084v-.042h.042v-.042h.042v-.042h.042v-.042h.084v-.042h.042v-.042h.042v-.042h.084v-.042h.042v-.042h.042v-.042h.084v-.042h.042v-.042h.042v-.042h.084v-.042h.042v-.042h.042v-.042h.084v-.042h.042v-.042h.084v-.042h.042v-.042h.042v-.042h.084v-.042h.042V-306h.084v-.042h.042v-.042h.084v-.042h.042v-.042h.084v-.042h.042v-.042h.084v-.042h.042v-.042h.084v-.042h.042v-.042h.084v-.042h.042v-.042h.084v-.042h.084v-.042h.042v-.042h.084v-.042h.042v-.042h.084v-.042h.084v-.042h.042v-.042h.084v-.042h.084v-.042h.084v-.042h.042V-307h.084v-.042h.084v-.042h.084v-.042h.084v-.042h.084v-.042h.084v-.042h.042v-.042h.084v-.042h.084v-.042h.084v-.042h.084v-.042h.125v-.042h.084v-.042h.084v-.042h.084v-.042h.084v-.042h.084v-.042h.125v-.042h.125v-.042h.084v-.042h.125v-.042h.125v-.042h.125v-.042h.125V-308h.125v-.042h.125v-.042h.167v-.042h.125v-.042h.167v-.042h.209v-.042h.167v-.042h.251v-.042h.293v-.042h.46v-.042h.585v.042h.46v.042h.251v.042h.167v.042h.125v.042h.125v.042h.084v.042h.084v.042h.084v.042h.042V-308h.042v.042h.042v.042h.042v.042h.042v.042h.042v.084h.042v.167h.042v.5h-.042v.167h-.042v.084H128.6v.042h-.042v.084h-.042v.042h-.084v.042h-.042v.042h-.084v.042h-.125v.042h-.125v.042h-.167v.042h-.167v.042h-.167v.042h-.167v.042h-.125v.042h-.125v.042h-.125v.042h-.125v.042h-.084v.042h-.084v.042h-.042V-306H126.6v.042h-.042v.042h-.042v.042h-.042v.042h-.042v.042h-.042v.042h-.042v.042H126.3v.042h-.042v.042h-.042v.084h-.042v.042h-.042v.084h-.042v.125h-.042v.125h-.042v.167h-.042v.46h.042v.167h.042v.084h.042v.084h.042v.042h.042v.084h.042v.042h.042v.042h.042v.084h.042v.042h.042v.042h.042v.042h.042v.042h.042v.042h.084v.042h.042v.042h.042v.042h.042v.042h.042v.084h.042v.042h.042v.042h.042v.042h.042v.084h.042v.042h.042v.084h.042v.042h.042v.084h.042v.125h.042v.084h.042v.167h.042v.544h-.042v.125h-.042v.125h-.042v.084H127.1v.084h-.042v.042h-.042v.042h-.042v.084h-.042v.042h-.042v.042h-.042v.042h-.042v.042h-.084v.042h-.042v.042H126.6v.042h-.042v.042h-.084v.042h-.042v.042h-.084v.042H126.3v.042h-.084v.042h-.042v.042h-.042v.042h-.084v.042h-.042v.042h-.042v.042h-.084v.042h-.042v.042h-.084v.042h-.042v.042h-.042v.042h-.042v.042h-.084v.042h-.042v.042h-.042v.042h-.084v.042h-.042v.042H125.3v.042h-.084v.042h-.042v.042h-.042v.042h-.042v.042h-.042v.042h-.084v.042h-.042v.042h-.042v.042h-.042v.042h-.084v.042h-.042v.042h-.042v.042h-.042v.042h-.042v.042h-.084v.042h-.042v.042h-.042v.042h-.042v.042h-.042v.042H124.3v.042h-.084v.042h-.042v.042h-.042v.042h-.042v.042h-.042v.042H124v.042h-.084v.042h-.042v.042h-.042v.042H123.8v.042h-.042v.042h-.042v.042h-.042v.042h-.042v.042h-.042v.042h-.042v.042H123.5v.042h-.042v.042h-.042v.042h-.042v.042h-.042v.042h-.042v.042h-.042v.042h-.042v.042h-.042v.042h-.042v.042h-.042v.042h-.042v.042H123v.042h-.042v.042h-.042v.042h-.042v.042h-.042v.042h-.042v.042h-.042v.042h-.042v.042h-.042v.042h-.042v.042h-.042v.042h-.042v.084H122.5v.042h-.042v.042h-.042v.042h-.042v.042h-.042v.042h-.042v.042h-.042v.042h-.042v.042h-.042v.042h-.042v.042h-.042v.042h-.042v.042H122v.084h-.042v.042h-.042v.042h-.042v.042h-.042v.042h-.042v.042h-.042v.042H121.7v.042h-.042v.042h-.042v.042h-.042v.042h-.042v.042H121.5v.042h-.042v.084h-.042v.042h-.042v.042h-.042v.042h-.042v.042h-.042v.042H121.2v.042h-.042v.084h-.042v.042h-.042v.042h-.042v.042h-.042V-296h-.042v.042h-.042v.084h-.042v.042h-.042v.042h-.042v.042h-.042v.042H120.7v.042h-.042v.084h-.042v.042h-.042v.042h-.042v.042h-.042v.042h-.042v.042h-.042v.084h-.042v.042h-.042v.042h-.042v.042h-.042v.042H120.2v.084h-.042V-295h-.042v.042h-.042v.042h-.042v.084h-.042v.042h-.042v.042h-.042v.042h-.042v.084h-.042v.042h-.042v.042h-.042v.042H119.7v.084h-.042v.042h-.042v.042h-.042v.042h-.042v.084h-.042v.042h-.042v.042h-.042v.042h-.042V-294h-.042v.042h-.042v.042h-.042v.084H119.2v.042h-.042v.042h-.042v.084h-.042v.042h-.042v.042h-.042v.084h-.042v.042H118.9v.042h-.042v.084h-.042v.042h-.042v.042h-.042v.084h-.042v.042h-.042v.084h-.042v.042h-.042v.042h-.042v.084h-.042v.042h-.042v.042H118.4v.084h-.042v.042h-.042v.042h-.042v.084h-.042v.042h-.042v.084h-.042v.042h-.042v.084h-.042v.042h-.042v.084h-.042v.042h-.042v.084H117.9v.042h-.042v.084h-.042v.042h-.042v.042h-.042v.084h-.042v.042h-.042v.084h-.042v.042h-.042v.084h-.042v.042h-.042v.084h-.042v.042H117.4v.084h-.042v.084h-.042v.042h-.042v.084h-.042v.042h-.042v.084h-.042v.042h-.042v.084h-.042v.084h-.042v.042h-.042v.084h-.042v.042H116.9v.084h-.042v.084h-.042v.042h-.042v.084h-.042v.042h-.042v.084h-.042v.084H116.6v.042h-.042v.084h-.042v.084h-.042v.084h-.042v.042H116.4v.084h-.042v.084h-.042v.042h-.042v.084h-.042v.084h-.042v.084h-.042v.042H116.1v.084h-.042v.084h-.042v.084h-.042v.042h-.042v.084h-.042v.084h-.042v.084h-.042v.084h-.042v.084h-.042v.042h-.042v.084h-.042v.084H115.6v.084h-.042v.084h-.042v.084h-.042v.084h-.042v.042h-.042v.084h-.042v.084h-.042v.084h-.042v.084h-.042v.084h-.042v.084h-.042v.084H115.1v.084h-.042v.084h-.042v.084h-.042v.084h-.042v.084h-.042v.084h-.042v.084h-.042v.125h-.042v.084h-.042v.084h-.042v.084h-.042v.084H114.6v.084h-.042v.084h-.042v.084h-.042v.084h-.042v.125h-.042v.084h-.042v.084H114.3v.084h-.042v.125h-.042v.084h-.042v.084h-.042v.084H114.1v.125h-.042v.084h-.042v.084h-.042v.125h-.042v.084h-.042v.084h-.042v.125H113.8v.084h-.042v.084h-.042v.125h-.042v.084h-.042v.125h-.042v.084h-.042v.125h-.042v.084h-.042v.084h-.042v.125h-.042v.084h-.042v.125H113.3v.084h-.042v.125h-.042v.084h-.042v.125h-.042v.084h-.042v.125h-.042v.084h-.042v.125h-.042v.084h-.042v.125h-.042v.084h-.042V-282H112.8v.084h-.042v.125h-.042v.125h-.042v.084h-.042v.125h-.042v.125h-.042v.125h-.042v.125h-.042v.125h-.042v.125h-.042v.125h-.042v.125H112.3v.125h-.042v.125h-.042v.125h-.042v.167h-.042v.125h-.042v.125h-.042v.167h-.042v.125h-.042v.125h-.042v.167h-.042v.125h-.042v.167H111.8v.125h-.042v.167h-.042v.167h-.042v.125h-.042v.167h-.042v.167h-.042v.125H111.5v.167h-.042v.167h-.042v.167h-.042v.167h-.042v.167h-.042v.167h-.042v.167h-.042v.167h-.042v.167h-.042v.167h-.042v.167h-.042v.167H111v.167h-.042v.209h-.042v.167h-.042v.167h-.042v.167h-.042v.209h-.042v.167h-.042v.209h-.042v.167h-.042v.167h-.042v.209h-.042v.209H110.5v.167h-.042v.209h-.042v.209h-.042v.209h-.042v.209h-.042v.251h-.042v.209h-.042v.251h-.042v.251h-.042v.251h-.042v.251h-.042v.251H110v.293h-.042v.251h-.042v.293h-.042v.251h-.042v.334h-.042v.335h-.042v.334h-.042v.334h-.042v.418h-.042v.46h-.042v.46h-.042v.627H109.5v.711h-.042v3.3h.042v.794h.042v.585h.042v.544h.042v.543h.042v.5h.042v.5h.042v.5h.042v.418h.042v.376h-.042v.376h-.042v.167h-.042v.167h-.042v.125h-.042v.125h-.042v.084h-.042v.084H109.5v.084h-.042v.084h-.042v.042h-.042v.042h-.042v.042h-.042v.042h-.042v.042H109.2v.042h-.042v.042h-.084v.042h-.042v.042h-.084v.042h-.042v.042h-.084v.042H108.7v.042h-.084v.042h-.125v.042h-.167v.042h-.209v.042h-.376v.042h-.334v.042h-.167v.042h-.125v.042h-.084v.042h-.084v.042h-.084v.042h-.084v.042h-.042v.042H106.7v.042h-.084v.042h-.042v.042h-.042v.042h-.042v.042h-.042v.042H106.4v.084h-.042v.042h-.042v.042h-.042v.084h-.042v.084h-.042v.084h-.042v.084h-.042v.125h-.042v.167h-.042v.293h-.042v.209h.042v.334h.042v.125h.042v.125h.042v.084h.042v.125h.042v.084h.042v.042h.042v.084h.042v.084h.042v.084h.042v.084h.042v.125h.042v.125h.042v.209h.042v.293h-.042v.209h-.042v.084h-.042v.084h-.042v.084H106.4v.042h-.042v.042h-.042v.042h-.042v.042h-.042v.042h-.084v.042h-.084v.042h-.084v.042h-.125v.042Zm11.79-1.421v-.042h-.125v-.042H116.9v-.042h-.084v-.042h-.084v-.042h-.084v-.042h-.084v-.042h-.042v-.042h-.042v-.042h-.042v-.042h-.084v-.042h-.042v-.042h-.042v-.042h-.042v-.042h-.042v-.042h-.042v-.042H116.1v-.042h-.042v-.042h-.042v-.042h-.042v-.042h-.042v-.042h-.042v-.042h-.042v-.084h-.042v-.042h-.042v-.042h-.042v-.042h-.042v-.084h-.042v-.042H115.6v-.042h-.042v-.084h-.042v-.042h-.042v-.084h-.042v-.042h-.042v-.084h-.042v-.084h-.042v-.042h-.042v-.084h-.042v-.084h-.042v-.084h-.042v-.084H115.1v-.084h-.042v-.084h-.042v-.084h-.042v-.084h-.042v-.084h-.042v-.084h-.042v-.084h-.042v-.125h-.042v-.084h-.042v-.125h-.042v-.084h-.042v-.125H114.6v-.125h-.042v-.125h-.042v-.125h-.042v-.125h-.042v-.125h-.042v-.125h-.042v-.167H114.3v-.167h-.042v-.167h-.042v-.167h-.042v-.167h-.042v-.251H114.1v-.251h-.042V-258h-.042v-.376h-.042v-.376h-.042v-.376h-.042v-.376h-.042v-.418H113.8v-.794h-.042v-.753h-.042v-.794h-.042v-.711h.042v-2.216h.042v-.543h.042v-.543h.042v-.544h.042v-.543h.042v-.376h.042v-.335h.042v-.293h.042v-.293h.042V-269h.042v-.293h.042v-.335h.042v-.293h.042v-.251h.042v-.251h.042v-.209h.042v-.209h.042v-.209h.042v-.251h.042v-.209h.042v-.209h.042v-.209h.042v-.251h.042v-.209h.042v-.209h.042v-.209h.042v-.167h.042v-.167h.042v-.167h.042v-.167h.042v-.209h.042v-.167h.042v-.167h.042v-.167h.042v-.167h.042v-.209h.042v-.167h.042v-.167h.042v-.167h.042v-.167h.042v-.167h.042v-.167h.042v-.125h.042v-.167h.042v-.125h.042v-.167h.042v-.167h.042v-.125h.042v-.167h.042v-.167h.042v-.125h.042v-.167h.042v-.125h.042v-.167h.042v-.125h.042v-.125h.042v-.167h.042v-.125h.042v-.125h.042v-.167h.042v-.125h.042v-.125h.042v-.125h.042v-.125h.042v-.125h.042v-.125h.042v-.125h.042v-.125h.042v-.125h.042v-.125h.042v-.125h.042v-.125h.042v-.125h.042v-.084h.042v-.125h.042v-.125h.042v-.125h.042v-.125h.042v-.125h.042v-.084h.042v-.125h.042v-.125h.042v-.084h.042v-.125h.042v-.084h.042v-.125h.042v-.125h.042v-.084h.042v-.125h.042v-.125h.042v-.084h.042v-.125h.042v-.084h.042v-.084h.042v-.125h.042v-.084h.042v-.125h.042v-.084h.042v-.125h.042v-.084h.042v-.084h.042v-.125h.042v-.084h.042v-.125h.042v-.084h.042v-.084h.042v-.084h.042v-.125h.042v-.084h.042v-.084h.042v-.084h.042v-.125h.042V-284h.042v-.084h.042v-.084h.042v-.125h.042v-.084h.042v-.084h.042v-.084h.042v-.084h.042v-.084h.042v-.084h.042v-.125h.042v-.084h.042v-.084h.042v-.084h.042v-.084h.042v-.084h.042v-.084h.042v-.084h.042v-.084h.042v-.084h.042v-.084h.042v-.084h.042v-.084h.042v-.084h.042v-.084h.042v-.084h.042v-.084h.042v-.084h.042v-.084h.042v-.084h.042v-.084h.042v-.084h.042v-.084h.042v-.084h.042v-.084h.042v-.084h.042v-.042h.042v-.084h.042v-.084h.042v-.084h.042v-.084h.042v-.084h.042v-.084h.042v-.084h.042v-.042h.042v-.084h.042v-.084h.042v-.084h.042v-.084h.042v-.042h.042v-.084h.042v-.084h.042v-.084h.042v-.042h.042v-.084h.042v-.084h.042v-.084h.042v-.042h.042v-.084h.042v-.084h.042v-.084h.042v-.042h.042v-.084h.042v-.084h.042v-.042h.042v-.084h.042v-.084h.042v-.042h.042v-.084h.042v-.084h.042v-.042h.042v-.084h.042v-.084h.042v-.042h.042v-.084h.042v-.042h.042v-.084h.042v-.084h.042v-.042h.042v-.084h.042v-.042h.042v-.084h.042v-.042h.042v-.084h.042v-.042h.042v-.084H122v-.084h.042v-.042h.042v-.084h.042v-.042h.042v-.084h.042v-.042h.042v-.084h.042v-.042h.042v-.084h.042v-.042h.042v-.084h.042v-.042h.042v-.042h.042v-.084h.042v-.042h.042v-.084h.042v-.042h.042v-.084h.042v-.042h.042v-.084h.042v-.042h.042v-.042h.042v-.084h.042v-.042H123v-.042h.042v-.084h.042v-.042h.042v-.084h.042v-.042h.042v-.042h.042v-.084h.042v-.042h.042v-.042h.042v-.084h.042v-.042h.042v-.042h.042v-.084h.042v-.042h.042v-.042h.042v-.042h.042v-.084h.042v-.042h.042v-.042h.042v-.084h.042v-.042h.042v-.042h.042v-.042h.042v-.084H124v-.042h.042v-.042h.042v-.042h.042v-.042h.042v-.084h.042v-.042h.042v-.042h.042v-.042h.042v-.042h.042v-.084h.042v-.042h.042v-.042h.042V-294h.042v-.042h.042v-.042h.042v-.042h.042v-.084h.042v-.042h.042v-.042h.042v-.042h.042v-.042h.042v-.042h.042v-.042h.042v-.042h.042v-.042h.042v-.042h.042v-.042h.042v-.042h.042v-.042h.042v-.042h.042v-.042h.042v-.084h.042v-.042h.084v-.042h.042V-295h.042v-.042h.042v-.042h.042v-.042h.042v-.042h.042v-.042h.042v-.042h.042v-.042h.042v-.042h.042v-.042h.042v-.042h.042v-.042h.042v-.042h.042v-.042h.042v-.042h.042v-.042h.042v-.042h.042v-.042h.042v-.042h.042v-.042h.042v-.042h.042v-.042h.042v-.042h.042v-.042h.042V-296h.042v-.042h.042v-.042h.084v-.042h.042v-.042h.042v-.042h.042v-.042h.042v-.042h.042v-.042h.042v-.042h.042v-.042h.042v-.042h.084v-.042h.042v-.042h.042v-.042h.042v-.042h.042v-.042h.042v-.042h.042v-.042h.084v-.042h.042v-.042h.042v-.042h.042v-.042h.042v-.042h.042v-.042h.084v-.042h.042v-.042h.042v-.042h.042v-.042h.042v-.042h.084v-.042h.042v-.042h.042v-.042h.042v-.042h.042v-.042h.084v-.042h.042v-.042h.042v-.042h.042v-.042h.084v-.042h.042v-.042h.042v-.042h.042v-.042h.084v-.042h.042v-.042h.042v-.042h.084v-.042h.042v-.042h.042v-.042h.084v-.042h.042v-.042h.042v-.042h.084v-.042h.042v-.042h.042v-.042h.084v-.042h.042v-.042h.084v-.042h.042v-.042h.042v-.042h.084v-.042h.042v-.042h.084v-.042h.042v-.042h.084v-.042h.042v-.042h.084v-.042h.042v-.042h.084v-.042h.042v-.042h.084v-.042h.042v-.042h.084v-.042h.042v-.042h.084v-.042h.042v-.042h.084v-.042h.084v-.042h.042v-.042h.084v-.042h.084v-.042h.042v-.042h.084v-.042h.084v-.042h.084v-.042h.042v-.042h.084v-.042h.084v-.042h.084v-.042h.084v-.042h.084v-.042h.084v-.042h.084v-.042h.084v-.042h.084v-.042h.084v-.042h.125v-.042h.084v-.042h.125v-.042h.084v-.042h.125v-.042h.167v-.042h.125v-.042h.167v-.042h.167v-.042h.209v-.042h.251v-.042H134v-.042h.92v.042h.209v.042h.167v.042h.084v.042h.125v.042h.084v.042h.084v.042h.042v.042h.084v.042h.042v.042h.042v.042h.042v.042h.042v.042H136v.084h.042v.084h.042v.084h.042v.125h.042v.418h-.042v.167h-.042v.125h-.042v.125H136v.042h-.042v.042h-.042v.084h-.042v.042h-.042v.042h-.042v.042h-.042v.042h-.084v.042h-.084v.042h-.042v.042h-.125v.042h-.125v.042h-.251v.042h-.251v.042h-.209v.042h-.125v.042h-.125v.042h-.125v.042h-.084v.042h-.084v.042h-.084v.042h-.084v.042h-.042v.042h-.084v.042H133.7v.042h-.084v.042h-.042v.042h-.042v.042h-.042v.042h-.042v.042h-.042v.084h-.042v.042h-.042v.084h-.042v.084h-.042v.084H133.2v.084h-.042v.125h-.042v.125h-.042v.209h-.042v.334h.042v.209h.042v.125h.042v.084h.042v.084h.042v.084h.042v.042h.042v.084h.042v.084h.042v.042h.042v.084h.042v.084h.042v.084h.042v.042h.042v.084h.042v.084h.042v.084h.042v.084h.042v.084h.042v.042h.042v.084h.042v.084h.042v.084H134v.084h.042v.084h.042v.042h.042v.084h.042v.084h.042v.125h.042v.084h.042v.084h.042v.084h.042v.084h.042v.125h.042v.084h.042v.084h.042v.084h.042v.084h.042v.084h.042v.125h.042v.084h.042v.084h.042v.084h.042v.084h.042v.125h.042v.084h.042v.125H135v.084h.042v.125h.042v.125h.042v.125h.042v.084h.042v.125h.042v.125h.042v.125h.042v.125h.042v.084h.042v.125h.042v.125h.042v.125h.042v.125h.042v.167h.042v.125h.042v.167h.042v.167h.042v.167h.042v.125h.042v.167h.042v.167h.042v.167h.042v.125H136v.167h.042v.209h.042v.251h.042v.209h.042v.251h.042v.209h.042v.251h.042v.209h.042v.251h.042v.376h.042v.418h.042v.418h.042v.376h.042v.543h.042v1.212h.042v1.8h-.042v1h-.042v.544H136.5v.334h-.042v.376h-.042v.334h-.042v.376h-.042v.209H136.3v.251h-.042v.209h-.042v.209h-.042v.251h-.042v.209h-.042v.209h-.042v.251H136v.209h-.042v.167h-.042v.167h-.042v.167h-.042v.167h-.042v.125h-.042v.167h-.042v.167h-.042v.125h-.042v.167h-.042v.167h-.042v.167H135.5v.125h-.042v.167h-.042v.125h-.042v.125h-.042v.125h-.042v.084h-.042v.125h-.042v.125h-.042v.125h-.042v.125h-.042v.125h-.042v.125H135v.084h-.042v.125h-.042v.125h-.042v.125h-.042v.125h-.042v.125h-.042v.084h-.042v.084h-.042v.084h-.042v.125h-.042v.084h-.042v.084H134.5v.125h-.042v.084h-.042v.084h-.042v.084h-.042v.125h-.042v.084h-.042v.084h-.042v.125h-.042v.084h-.042v.084h-.042v.084h-.042v.125H134v.084h-.042V-271h-.042v.084h-.042v.084h-.042v.084h-.042v.042h-.042v.084H133.7v.084h-.042v.084h-.042v.084h-.042v.084h-.042v.084h-.042v.084h-.042v.084h-.042v.084h-.042v.042h-.042v.084h-.042v.084h-.042v.084H133.2v.084h-.042v.084h-.042v.084h-.042v.084h-.042v.042h-.042v.084h-.042v.084h-.042v.042h-.042V-269h-.042v.042h-.042v.084h-.042v.084H132.7v.042h-.042v.084h-.042v.042h-.042v.084h-.042v.084h-.042v.042h-.042v.084h-.042v.042h-.042v.084h-.042v.084h-.042v.042h-.042v.084H132.2v.042h-.042v.084h-.042v.084h-.042v.042h-.042v.084h-.042v.042h-.042v.084h-.042v.042h-.042v.042h-.042v.084h-.042v.042h-.042v.042H131.7v.084h-.042v.042h-.042v.084h-.042v.042h-.042v.042h-.042v.084h-.042v.042H131.4v.042h-.042v.084h-.042v.042h-.042v.084h-.042v.042H131.2v.042h-.042v.084h-.042v.042h-.042v.042h-.042v.084h-.042v.042h-.042v.084H130.9v.042h-.042v.042h-.042v.042h-.042v.084h-.042v.042h-.042v.042h-.042v.042h-.042v.042h-.042v.084h-.042v.042h-.042v.042h-.042v.042H130.4v.042h-.042v.042h-.042v.084h-.042v.042h-.042v.042h-.042v.042h-.042v.042h-.042v.084h-.042v.042h-.042v.042h-.042v.042h-.042v.042H129.9v.084h-.042v.042h-.042v.042h-.042v.042h-.042v.042h-.042v.042h-.042v.084h-.042v.042h-.042v.042h-.042v.042h-.042v.042h-.042v.042H129.4v.042h-.042v.042h-.042v.042h-.042v.042h-.042v.042h-.042v.042h-.042v.042H129.1v.042h-.042v.042h-.042v.042h-.042v.042h-.042v.042H128.9v.042h-.042v.042h-.042v.042h-.042v.042h-.042v.042h-.042v.042h-.042v.042H128.6v.042h-.042v.042h-.042v.042h-.042v.042h-.042v.084h-.042v.042h-.042v.042h-.042v.042h-.042v.042h-.084v.042h-.042v.042H128.1v.042h-.042v.042h-.042v.042h-.042v.042h-.042v.042h-.042v.042h-.084v.042h-.042v.042h-.042v.042h-.042v.042h-.042v.042H127.6v.042h-.042v.042h-.042v.042h-.084v.042h-.042v.042h-.042v.042h-.042v.042h-.042v.042h-.042v.042h-.042v.042h-.042v.042H127.1v.042h-.084v.042h-.042v.042h-.042v.042h-.042v.042h-.042v.042h-.042v.042h-.084v.042h-.042v.042h-.042v.042h-.084v.042h-.042v.042h-.042v.042h-.042v.042h-.084v.042H126.3v.042h-.042v.042h-.084v.042h-.042v.042h-.042v.042h-.084v.042h-.042v.042h-.042v.042h-.042v.042H125.8v.042h-.042v.042h-.042v.042h-.084v.042h-.042v.042h-.042v.042h-.042v.042h-.084v.042h-.042v.042H125.3v.042h-.042v.042h-.084v.042h-.042v.042h-.084v.042h-.042v.042h-.084v.042h-.042v.042H124.8v.042h-.042v.042h-.084v.042h-.042v.042h-.084v.042h-.042v.042h-.084v.042h-.042v.042H124.3v.042h-.042v.042h-.084v.042h-.042v.042h-.084v.042H124v.042h-.084v.042h-.042v.042H123.8v.042h-.084v.042h-.042v.042h-.084v.042H123.5v.042h-.084v.042h-.084v.042h-.042v.042h-.084v.042h-.084v.042h-.084v.042H123v.042h-.084v.042h-.084v.042h-.084v.042h-.084v.042h-.042v.042h-.084v.042h-.084V-259h-.084v.042h-.042v.042h-.084v.042h-.084v.042h-.084v.042h-.125v.042h-.084v.042h-.084v.042H121.7v.042h-.084v.042h-.084v.042h-.084v.042h-.125v.042h-.084v.042h-.084v.042h-.084v.042h-.084v.042h-.084v.042h-.084v.042H120.7v.042h-.084v.042h-.084v.042h-.125v.042h-.084V-258H120.2v.042h-.084v.042h-.125v.042h-.084v.042h-.125v.042h-.125v.042h-.084v.042h-.125v.042h-.084v.042h-.125v.042h-.125v.042h-.125v.042h-.125v.042h-.125v.042h-.084v.042h-.084v.042h-.042v.042h-.084v.042H118.4v.042h-.084v.042h-.042v.042h-.042v.042h-.042v.042h-.042V-257h-.042v.042h-.042v.084h-.042v.042h-.042v.042h-.042v.084H117.9v.084h-.042v.042h-.042v.125h-.042v.125h-.042v.209h-.042v.836h.042v.209h.042v.167h.042v.084h.042v.125h.042v.084h.042v.084h.042v.084h.042v.084h.042v.084h.042v.042h.042v.084h.042v.042h.042v.084h.042v.042h.042v.084h.042v.084h.042v.125h.042v.293h.042v.125h-.042v.167H118.4v.167h-.042v.084h-.042v.042h-.042v.084h-.042v.042h-.042v.042h-.042v.042h-.084v.042h-.042v.042h-.084v.042H117.9v.042h-.125v.042Zm-22.534-3.846v-.042h-.167v-.042h-.084v-.042h-.125v-.042h-.084v-.042h-.042v-.042h-.084v-.042h-.042v-.042h-.042v-.042h-.084v-.042h-.042v-.042h-.042v-.042h-.042v-.042h-.042v-.042h-.042v-.042H93.61v-.042h-.042v-.042h-.042V-257h-.042v-.042h-.042v-.042H93.4v-.084h-.042v-.042h-.042v-.042h-.042v-.042h-.042v-.084h-.042v-.042H93.15v-.084h-.042v-.042h-.042v-.084h-.042v-.042h-.042v-.084h-.042v-.042H92.9v-.084h-.042v-.084h-.042v-.084h-.042v-.084h-.042v-.042H92.69v-.084h-.042v-.084h-.042v-.084h-.042v-.084h-.042v-.125h-.042v-.084h-.042v-.084H92.4v-.084h-.042v-.084h-.042v-.125h-.042v-.125H92.23v-.084h-.042v-.125h-.042v-.125H92.1v-.084h-.042v-.125h-.042v-.125h-.042v-.167h-.042v-.125H91.9v-.125h-.042v-.167h-.042v-.125H91.77v-.209h-.042v-.167h-.042v-.167h-.042v-.167H91.6v-.209h-.042v-.209H91.52v-.251h-.042v-.209h-.042v-.293h-.042v-.334h-.042v-.293h-.042v-.46h-.042v-.585h-.042v-.5h-.042v-.627h-.042V-266.4H91.1v-2.341h.042v-1.129h.042v-.669h.042v-.627h.042v-.543h.042v-.418h.042v-.46h.042v-.418h.042v-.334h.042v-.334h.042v-.334h.042v-.335H91.6v-.334h.042v-.251h.042v-.293h.042v-.293h.042v-.251h.042v-.251h.042v-.251H91.9v-.209h.042v-.209h.042v-.209h.042v-.209h.042v-.209H92.1v-.209h.042v-.167h.042v-.209h.042v-.209h.042v-.167h.042v-.209h.042v-.209H92.4v-.167h.042v-.209h.042v-.167h.042v-.167h.042v-.209h.042v-.167h.042v-.167h.042v-.167h.042v-.209h.042v-.167h.042v-.167h.042v-.167H92.9v-.167h.042v-.167h.042v-.167h.042v-.125h.042v-.167h.042v-.167h.042v-.167h.042v-.167h.042v-.167h.042v-.125h.042v-.167h.042v-.125H93.4v-.167h.042V-283h.042v-.125h.042v-.167h.042v-.125h.042v-.167h.042v-.125h.042v-.167h.042V-284h.042v-.125h.042v-.125h.042v-.125H93.9v-.125h.042v-.125h.042v-.125h.042v-.125h.042v-.167h.042v-.125h.042v-.125H94.2v-.125h.042v-.125h.042v-.125h.042v-.125h.042v-.125H94.4v-.084h.042v-.125h.042v-.125h.042v-.125h.042v-.084h.042v-.125h.042v-.125H94.7v-.084h.042v-.125h.042v-.125h.042v-.084h.042v-.125h.042v-.125h.042v-.125h.042v-.084h.042v-.125h.042v-.125h.042v-.084h.042v-.084H95.2v-.125h.042v-.084h.042v-.125h.042v-.084h.042v-.125h.042v-.084h.042v-.125h.042v-.084h.042v-.084h.042v-.125h.042v-.084h.042v-.125H95.7v-.084h.042v-.084h.042v-.084h.042v-.125h.042v-.084h.042v-.084h.042v-.084h.042v-.084h.042v-.084h.042v-.084h.042v-.084h.042v-.084H96.2v-.125h.042v-.084h.042v-.084h.042v-.084h.042v-.084h.042v-.084h.042v-.042h.042v-.084h.042v-.084h.042v-.084h.042v-.084h.042v-.084H96.7v-.084h.042v-.084h.042v-.084h.042v-.084h.042v-.084h.042v-.084h.042v-.084H97v-.084h.042v-.084h.042v-.042h.042v-.084h.042v-.084h.042v-.084h.042v-.084h.042v-.084h.042v-.084h.042v-.084h.042v-.084h.042v-.125H97.5v-.084h.042v-.084h.042v-.084h.042v-.084h.042v-.125h.042v-.084h.042v-.125h.042v-.125h.042v-.125h.042v-.209h.042v-.627h-.042v-.084h-.042v-.084h-.042v-.084h-.042v-.042h-.042V-295h-.042v-.042h-.042v-.042h-.042v-.042H97.54v-.042h-.084v-.042h-.042v-.042h-.084v-.042h-.042v-.042h-.125v-.042H97.08v-.042H97v-.042h-.084v-.042h-.167v-.042h-.167v-.042H96.2v.042h-.209v.042h-.125v.042h-.125v.042h-.084v.042h-.084v.042h-.084v.042h-.084v.042h-.042v.042h-.084v.042H95.24v.042h-.084v.042h-.042v.042h-.042V-295h-.042v.042H94.99v.042h-.084v.042h-.042v.042h-.042v.042h-.042v.042h-.042v.042H94.7v.042h-.042v.042h-.042v.042h-.042v.042H94.53v.084h-.042v.042h-.042v.042H94.4v.042h-.042v.042h-.042v.042h-.042v.042h-.042v.084H94.2v.042h-.042v.042h-.042v.084H94.07v.042h-.042v.042h-.042v.084h-.042v.042H93.9v.042h-.042v.084h-.042v.042h-.042v.084h-.042v.042h-.042v.042h-.042v.084H93.61v.042h-.042v.084h-.042v.042h-.042v.084h-.042v.042H93.4v.084h-.042v.042h-.042v.084h-.042v.084h-.042v.042h-.042v.084H93.15v.042h-.042v.084h-.042v.084h-.042v.042h-.042v.084h-.042v.042H92.9v.084h-.042v.084h-.042v.042h-.042v.084h-.042v.084H92.69v.042h-.042v.084h-.042v.084h-.042v.042h-.042v.084h-.042v.084h-.042v.084H92.4v.042h-.042v.084h-.042v.084h-.042v.084H92.23v.084h-.042v.084h-.042v.084H92.1v.084h-.042v.084h-.042v.084h-.042v.084h-.042v.084H91.9v.084h-.042v.084h-.042v.125H91.77v.084h-.042v.084h-.042v.084h-.042v.084H91.6v.084h-.042v.125H91.52v.084h-.042v.084h-.042v.125h-.042v.084h-.042v.084h-.042v.125h-.042v.084h-.042v.084h-.042v.125h-.042v.084H91.1v.125H91.06v.125h-.042v.084h-.042v.125h-.042v.084h-.042v.125h-.042v.084h-.042v.125h-.042v.125h-.042v.125h-.042v.084h-.042v.125H90.6v.125h-.042v.125h-.042v.125h-.042v.084h-.042v.125h-.042v.125h-.042v.125h-.042v.125h-.042v.125h-.042v.125h-.042v.125H90.14v.125H90.1v.125h-.042v.125h-.042v.125h-.042v.167h-.042v.125h-.042v.125h-.042v.167h-.042v.125h-.042v.125h-.042v.167H89.68v.125h-.042v.125H89.6V-284h-.042v.125h-.042v.167h-.042v.167h-.042v.125h-.042v.167h-.042v.125H89.3v.167h-.042v.167H89.22v.167h-.042v.167h-.042v.167h-.042v.167h-.042v.167h-.042v.167h-.042v.167h-.042v.167h-.042v.167h-.042v.167H88.8v.209H88.76v.167h-.042v.167h-.042v.209h-.042v.167h-.042v.209h-.042v.209h-.042v.209h-.042v.209h-.042v.167h-.042v.209h-.042v.209H88.3v.251h-.042v.209h-.042v.251h-.042v.209h-.042v.251h-.042v.251h-.042v.251h-.042v.251h-.042v.293h-.042v.251h-.042v.293H87.84v.293H87.8v.334h-.042v.334h-.042v.334h-.042v.376h-.042v.418H87.59v.418h-.042v.5h-.042v.585h-.042v.544h-.042v.084h-.042v.125h-.042v.042H87.3v.042h-.042v.084h-.042v.042h-.042v.042H87.13v.042h-.084v.042H87v.042h-.084v.042H86.8v.042h-.543v-.042h-.125v-.042h-.084v-.042H86v-.042h-.084v-.042h-.042v-.042h-.042v-.042h-.042v-.042H85.75v-.042h-.042v-.042h-.042v-.084h-.042v-.042h-.042v-.084h-.042v-.084H85.5v-.084h-.042v-.084h-.042v-.084h-.042v-.084h-.042v-.125H85.29v-.084h-.042v-.084h-.042v-.125h-.042v-.084h-.042v-.084h-.042v-.125h-.042v-.084H85v-.084h-.042v-.125h-.042v-.084h-.042v-.125H84.83v-.125h-.042v-.084h-.042v-.125H84.7v-.125h-.042v-.125h-.042v-.084h-.042v-.125h-.042v-.125H84.5v-.084h-.042v-.125h-.042v-.125H84.37v-.167h-.042v-.125h-.042v-.125h-.042v-.167H84.2v-.125h-.042v-.125H84.12v-.167h-.042v-.125h-.042v-.125h-.042v-.209h-.042v-.167h-.042v-.167h-.042v-.209h-.042v-.167h-.042v-.209h-.042v-.167H83.7v-.167H83.66v-.293h-.042v-.251h-.042v-.251h-.042v-.251h-.042v-.251h-.042v-.293h-.042v-.418h-.042v-.418h-.042v-.418h-.042v-.669h-.042v-.92H83.2v-2.258h.042v-.753h.042v-.585h.042v-.376h.042v-.418h.042v-.376h.042v-.293h.042v-.251h.042v-.251h.042v-.251h.042v-.251h.042v-.209H83.7v-.209h.042v-.167h.042v-.209h.042v-.209h.042v-.167h.042v-.209h.042v-.167h.042v-.125h.042v-.167h.042v-.167h.042v-.125h.042v-.167H84.2v-.125h.042v-.167h.042v-.125h.042v-.125h.042v-.167h.042v-.125h.042v-.125H84.5v-.125h.042v-.125h.042v-.125h.042v-.125h.042v-.125H84.7v-.084h.042v-.125h.042v-.084h.042v-.125h.042v-.125h.042v-.084h.042v-.125H85v-.084h.042v-.125h.042v-.084h.042v-.125h.042v-.084h.042v-.125h.042v-.084h.042v-.084h.042v-.084h.042v-.125h.042v-.084h.042v-.084H85.5v-.084h.042v-.084h.042v-.125h.042v-.084h.042v-.084h.042v-.084h.042v-.084h.042v-.084h.042v-.084h.042v-.084h.042v-.084h.042v-.084H86v-.084h.042v-.084h.042v-.084h.042v-.084h.042v-.084h.042v-.042h.042v-.084h.042v-.084h.042v-.084h.042v-.084h.042v-.084h.042v-.042H86.5v-.084h.042v-.084h.042v-.042h.042V-296h.042v-.084h.042v-.084h.042v-.042H86.8v-.084h.042v-.084h.042v-.042h.042v-.084h.042v-.084H87v-.042h.042v-.084h.042v-.084h.042v-.042h.042v-.084h.042v-.042h.042v-.084H87.3v-.042h.042v-.084h.042v-.042h.042v-.084h.042v-.042h.042v-.084h.042v-.042h.042v-.084h.042v-.084h.042v-.042h.042v-.042h.042v-.084H87.8v-.042h.042v-.084h.042v-.042h.042v-.042h.042v-.084h.042v-.042h.042v-.042h.042v-.084h.042v-.042h.042v-.084h.042v-.042h.042v-.042H88.3v-.084h.042v-.042h.042v-.084h.042v-.042h.042v-.042h.042v-.042h.042v-.084h.042v-.042h.042v-.042h.042v-.042h.042v-.084h.042v-.042H88.8v-.042h.042v-.042h.042v-.084h.042v-.042h.042v-.042h.042v-.042h.042v-.084h.042v-.042h.042v-.042h.042v-.042h.042v-.084h.042v-.042H89.3v-.042h.042v-.042h.042v-.042h.042v-.042h.042v-.042h.042v-.084h.042v-.042H89.6v-.042h.042v-.042h.042v-.042h.042v-.042h.042v-.042h.042v-.084h.042v-.042h.042v-.042h.042v-.042h.042v-.042h.042v-.042h.042v-.042H90.1v-.042h.042v-.042h.042v-.084h.042v-.042h.042v-.042h.042v-.042h.042v-.042h.042v-.042h.042v-.042h.042v-.042h.042v-.042h.042v-.042H90.6v-.042h.042v-.042h.042v-.042h.042v-.042h.042v-.042h.042v-.042h.042v-.042h.042v-.042h.042v-.042h.042v-.042h.042v-.042h.042v-.042H91.1v-.042h.042v-.042h.042v-.042h.042v-.042h.042v-.042h.042v-.042h.084v-.042h.042v-.042h.042v-.042h.042v-.042h.042v-.042H91.6v-.042h.042v-.042h.042v-.042h.042v-.042h.042v-.042h.042v-.042h.042v-.042H91.9v-.042h.084v-.042h.042v-.042h.042v-.042H92.1v-.042h.042v-.042h.042v-.042h.084v-.042h.042v-.042h.042v-.042H92.4v-.042h.042v-.042h.042v-.042h.084v-.042h.042v-.042h.042v-.042h.042v-.042h.042v-.042h.084v-.042h.042v-.042H92.9v-.042h.042v-.042h.042v-.042h.084v-.042h.042v-.042h.042v-.042h.084v-.042h.042v-.042h.042v-.042h.042v-.042h.084v-.042h.042v-.042h.042v-.042h.084v-.042h.042v-.042h.042v-.042h.084v-.042h.042v-.042h.042v-.042H93.9v-.042h.084v-.042h.042v-.042h.084v-.042h.042v-.042H94.2v-.042h.084v-.042h.042v-.042H94.4v-.042h.042v-.042h.084v-.042h.042v-.042h.084v-.042H94.7v-.042h.042v-.042h.084v-.042h.042v-.042h.084v-.042h.042v-.042h.084v-.042h.042v-.042H95.2v-.042h.042v-.042h.084v-.042h.084v-.042h.042v-.042h.084v-.042h.042v-.042h.084v-.042h.084v-.042h.042v-.042h.084v-.042h.042v-.042h.084v-.042h.084v-.042h.042v-.042H96.2v-.042h.042v-.042h.084v-.042h.084v-.042h.084v-.042h.084v-.042h.042v-.042H96.7v-.042h.084v-.042h.084V-306h.042v-.042H97v-.042h.084v-.042h.084v-.042h.084v-.042h.042v-.042h.084v-.042h.084v-.042h.084v-.042h.084v-.042h.084v-.042h.084v-.042h.084v-.042h.084v-.042h.084v-.042h.084v-.042h.084v-.042h.084v-.042h.084v-.042h.084v-.042h.084v-.042h.125v-.042h.084v-.042h.084V-307h.084v-.042h.125v-.042h.084v-.042h.084v-.042H99.3v-.042h.125v-.042H99.5v-.042h.084v-.042h.084v-.042H99.8v-.042h.084v-.042h.125v-.042h.125v-.042h.084v-.042h.125v-.042h.084v-.042h.125v-.042h.125v-.042h.084v-.042h.125v-.042h.084v-.042h.125v-.042h.125v-.042h.167V-308h.125v-.042h.125v-.042h.125v-.042h.125v-.042h.125v-.042h.125v-.042h.125v-.042h.125v-.042h.167v-.042h.125v-.042h.167v-.042h.167v-.042h.125v-.042h.167v-.042h.125v-.042h.209v-.042h.167v-.042h.167v-.042h.209v-.042h.167v-.042h.209v-.042h.167v-.042h.209v-.042h.251v-.042h.251v-.042h.209v-.042h.251v-.042h.251v-.042h.334v-.042h.334v-.042h.334v-.042h.334v-.042h.544v-.042h.543v-.042h1.254v-.042h.962v.042h1.045v.042h.376v.042h.334v.042h.293v.042h.251v.042h.209v.042h.209v.042h.167v.042h.167v.042h.167v.042h.125v.042h.125v.042h.125v.042h.125v.042h.084v.042h.084v.042h.084v.042h.125v.042h.084v.042h.042v.042h.084v.042h.042v.042h.084v.042h.042v.042h.042v.042h.042v.042h.042v.042h.042v.042h.042v.042h.042v.042h.042v.042h.042v.084h.042v.084h.042v.084h.042v.334h-.042v.209h-.042v.125H115.6v.125h-.042v.125h-.042v.042h-.042v.084h-.042v.084h-.042v.084h-.042v.042h-.042v.042h-.042v.084h-.042v.042h-.042v.042h-.042v.084H115.1v.042h-.042v.042h-.042v.042h-.042v.042h-.042v.042h-.042v.042h-.042v.042h-.042V-306h-.084v.042h-.042v.042h-.042v.042H114.6v.042h-.042v.042h-.042v.042h-.042v.042h-.042v.042h-.084v.042H114.3v.042h-.042v.042h-.042v.042h-.042v.042h-.042v.042H114.1v.042h-.042v.042h-.042v.042h-.042v.042h-.042v.042h-.042v.042h-.042v.042H113.8v.042h-.084v.042h-.042v.042h-.042v.042h-.042v.042h-.042v.042h-.042v.042h-.042v.042h-.042v.042h-.042v.042h-.042v.042H113.3v.042h-.042v.042h-.042v.042h-.042v.042h-.042v.042h-.042v.042h-.042v.042h-.042v.042h-.042v.042h-.042v.042h-.042v.042h-.042v.042H112.8v.042h-.042v.042h-.042v.042h-.042v.042h-.042v.042h-.042v.042h-.042v.042h-.042v.042h-.042v.042h-.042v.042h-.042v.042h-.042v.042H112.3v.042h-.042v.042h-.042v.042h-.042v.042h-.042v.042h-.042v.084h-.042v.042h-.042v.042h-.042v.042h-.042v.042h-.042v.042h-.042v.042H111.8v.042h-.042v.042h-.042v.042h-.042v.042h-.042v.042h-.042v.042h-.042v.042H111.5v.042h-.042v.042h-.042v.084h-.042v.042h-.042v.042h-.042v.042h-.042v.042h-.042v.042h-.042v.042h-.042v.042h-.042v.042h-.042v.042H111v.084h-.042v.042h-.042v.042h-.042v.042h-.042v.042h-.042v.042h-.042v.042h-.042v.042h-.042v.042h-.042v.084h-.042v.042h-.042v.042H110.5v.042h-.042v.042h-.042v.042h-.042v.042h-.042v.084h-.042v.042h-.042v.042h-.042v.042h-.042v.042h-.042v.042h-.042v.042h-.042v.084H110v.042h-.042v.042h-.042v.042h-.042v.042h-.042v.084h-.042v.042h-.042v.042h-.042v.042h-.042v.042h-.042v.084h-.042v.042h-.042v.042H109.5v.042h-.042v.042h-.042v.084h-.042v.042h-.042v.042h-.042v.042h-.042v.042H109.2v.084h-.042v.042h-.042v.042h-.042v.042h-.042v.084H109v.042h-.042v.042h-.042v.042h-.042v.084h-.042v.042h-.042v.042h-.042v.042H108.7v.084h-.042v.042h-.042v.042h-.042v.042h-.042v.084h-.042v.042h-.042v.042h-.042v.084h-.042v.042h-.042v.042h-.042v.084h-.042v.042H108.2v.042h-.042v.084h-.042v.042h-.042v.042h-.042v.084h-.042v.042h-.042v.042h-.042v.042h-.042v.084h-.042v.042h-.042v.084h-.042v.042H107.7v.042h-.042v.084h-.042v.042h-.042v.084h-.042v.042h-.042v.042h-.042v.084h-.042v.042h-.042v.084h-.042v.042h-.042v.042h-.042v.084H107.2v.042h-.042v.084h-.042v.042h-.042v.084h-.042v.042h-.042v.084h-.042v.042H106.9v.042h-.042v.084h-.042v.042h-.042v.084h-.042v.042H106.7v.084h-.042v.042h-.042v.084h-.042v.042h-.042v.084h-.042v.042h-.042v.084H106.4v.084h-.042v.042h-.042v.084h-.042v.042h-.042V-296h-.042v.084h-.042v.042h-.042v.084h-.042v.042h-.042v.084h-.042v.084h-.042v.042H105.9v.084h-.042v.042h-.042v.084h-.042v.084h-.042v.084h-.042v.042h-.042v.084h-.042v.084h-.042v.042h-.042v.084h-.042v.084h-.042v.084H105.4v.042h-.042v.084h-.042v.084h-.042v.084h-.042v.084h-.042v.042h-.042v.084h-.042v.084h-.042V-294h-.042v.084h-.042v.084h-.042v.084H104.9v.084h-.042v.084h-.042v.042h-.042v.084h-.042v.084h-.042v.084h-.042v.084h-.042v.084h-.042v.084h-.042v.084h-.042v.084h-.042v.084H104.4v.084h-.042v.084h-.042v.084h-.042v.084h-.042v.084h-.042v.084h-.042v.084H104.1v.084h-.042v.084h-.042v.084h-.042v.084h-.042v.125h-.042v.084h-.042v.084h-.042v.084h-.042v.084h-.042v.084h-.042v.084h-.042v.084H103.6v.125h-.042v.084h-.042v.084h-.042v.084h-.042v.084h-.042v.084h-.042v.084h-.042v.084h-.042v.125h-.042v.084h-.042v.084h-.042v.084H103.1v.084h-.042v.125h-.042v.084h-.042v.084h-.042v.125h-.042v.084h-.042v.125h-.042v.084h-.042v.084h-.042v.125h-.042v.084h-.042v.125H102.6v.084h-.042v.084h-.042v.125h-.042v.084h-.042v.084h-.042v.125h-.042v.084h-.042v.125h-.042v.084h-.042v.084h-.042v.125h-.042v.084H102.1v.125h-.042v.084h-.042v.125h-.042v.125h-.042v.125h-.042v.084h-.042v.125H101.8v.125h-.042v.084h-.042v.125h-.042v.125h-.042v.084H101.6v.125h-.042v.125h-.042v.125h-.042v.084h-.042v.125h-.042v.125h-.042v.084H101.3v.125h-.042v.125h-.042v.125h-.042v.084h-.042v.125h-.042v.167h-.042v.125h-.042v.125h-.042v.125h-.042v.125h-.042v.125h-.042v.125H100.8v.125h-.042v.167h-.042v.125h-.042v.125h-.042v.125h-.042v.125h-.042v.125h-.042V-283h-.042v.125h-.042v.167h-.042v.125h-.042v.125H100.3v.125h-.042v.167h-.042V-282h-.042v.125h-.042v.167h-.042v.167h-.042v.125h-.042v.167h-.042v.167h-.042v.125h-.042v.167h-.042v.167H99.8v.125h-.042v.167h-.042v.167h-.042v.167H99.63v.125h-.042v.167h-.042v.167H99.5v.209h-.042v.167h-.042v.209h-.042v.167h-.042v.209H99.3v.167h-.042v.167h-.042v.209H99.17v.167h-.042v.209h-.042v.167h-.042v.209H99v.167h-.042v.209H98.92v.209h-.042v.209h-.042v.251h-.042v.209h-.042v.251H98.71v.209h-.042v.251h-.042v.209h-.042v.251h-.042v.209H98.5v.251H98.46v.293h-.042v.293h-.042v.251h-.042v.293h-.042v.334h-.042v.293h-.042v.334h-.042v.334h-.042v.334h-.042v.376h-.042v.376H98v.418h-.042v.418h-.042v.46h-.042v.5h-.042v.544h-.042v.585h-.042v.753h-.042v.962h-.042v3.386h.042v.836h.042v.585h.042v1h-.042v.167h-.042v.125h-.042v.084h-.042v.084h-.042v.084H97.54v.042H97.5v.042h-.042v.042h-.042v.042h-.042v.042h-.125v.042h-.125v.042H95.993v.042h-.125v.042h-.084v.042H95.7v.042h-.042v.042h-.084v.042h-.042v.042h-.042v.042h-.042v.042h-.042v.084h-.042v.042h-.042V-259h-.042v.125H95.24v.46h.042v.167h.042v.084h.042v.125h.042v.084h.042v.084h.042v.084h.042v.084h.042v.084h.042v.125h.042v.084H95.7v.167h.042v.376H95.7v.167h-.042v.042h-.042v.084h-.042v.042h-.042v.042h-.042v.042h-.042v.042h-.042v.042h-.084v.042H95.24v.042h-.125v.042" transform="translate(-64.871 351.347)" fill="#222"/>
            </g>
          </g>
        </g>
        <path id="path108" d="M236.773-152.55h.34c.386,0,.714-.14.714-.5,0-.257-.187-.514-.714-.514a2.276,2.276,0,0,0-.34.024Zm0,1.627H236.3v-2.937a5.294,5.294,0,0,1,.83-.07,1.544,1.544,0,0,1,.913.222.706.706,0,0,1,.269.608.731.731,0,0,1-.574.714v.024c.258.046.434.281.492.713a2.467,2.467,0,0,0,.186.725h-.49a2.177,2.177,0,0,1-.2-.75.549.549,0,0,0-.632-.513h-.327Zm.491-3.755a2.168,2.168,0,0,0-2.106,2.223,2.166,2.166,0,0,0,2.117,2.234,2.147,2.147,0,0,0,2.106-2.223,2.164,2.164,0,0,0-2.106-2.234Zm.011-.41a2.6,2.6,0,0,1,2.586,2.633,2.6,2.6,0,0,1-2.6,2.645,2.612,2.612,0,0,1-2.609-2.645,2.616,2.616,0,0,1,2.609-2.633h.011" transform="translate(-187.188 203.463)" fill="#100f0d"/>
      </g>
    </g>
  </g>
</svg>
