<svg xmlns="http://www.w3.org/2000/svg" xmlns:xlink="http://www.w3.org/1999/xlink" width="240" height="120" viewBox="0 0 240 120">
  <defs>
    <clipPath id="clip-_11">
      <rect width="240" height="120"/>
    </clipPath>
  </defs>
  <g id="_11" data-name="11" clip-path="url(#clip-_11)">
    <g id="Group_19936" data-name="Group 19936" transform="translate(37.995 -145.932)">
      <path id="Path_8" data-name="Path 8" d="M76.239,215.927l-5.775,13.75v-3.87H62.536v-9.88H56.1V229.94H76.791l1.129-3h5.044l1.154,3h6.775l-5.982-14.013Zm2.42,7.726,1.723-4.379h.095l1.749,4.379Z" transform="translate(-23.966 -15.658)" fill="#222" fill-rule="evenodd"/>
      <path id="Path_9" data-name="Path 9" d="M129.1,219.3h7.952v-3.377H122.666V229.94H129.1v-5h7.711v-3.379H129.1V219.3Z" transform="translate(-52.922 -15.658)" fill="#222" fill-rule="evenodd"/>
      <path id="Path_10" data-name="Path 10" d="M153.708,215.927l-5.886,14.013h6.438l1.128-3h5.045l1.154,3h6.774l-5.982-14.013Zm2.419,7.726,1.723-4.379h.1l1.747,4.379Z" transform="translate(-63.865 -15.658)" fill="#222" fill-rule="evenodd"/>
      <path id="Path_11" data-name="Path 11" d="M203.649,223.956a5.2,5.2,0,0,0-1.874-.675,5.364,5.364,0,0,0,2.787-1.128,3.121,3.121,0,0,0,1.153-2.476,3.223,3.223,0,0,0-2.5-3.2,13.127,13.127,0,0,0-4.276-.552H188.874V229.94h6.438v-4.879h1.441a2.837,2.837,0,0,1,1.226.241,1.477,1.477,0,0,1,.865,1.153l.624,3.486h6.727l-1.106-4.062a3.211,3.211,0,0,0-1.44-1.922Zm-5.966-1.947a8.377,8.377,0,0,1-1.079.048h-1.58v-3H196.7a3.773,3.773,0,0,1,1.9.371,1.207,1.207,0,0,1,.611,1.094q0,1.2-1.532,1.488Z" transform="translate(-81.723 -15.658)" fill="#222" fill-rule="evenodd"/>
      <path id="Path_12" data-name="Path 12" d="M234.449,224.51h1.214v1.918c-.207.034-.388.062-.541.085a3.826,3.826,0,0,1-.612.037,4.132,4.132,0,0,1-2.572-.767,3.114,3.114,0,0,1-1.176-2.618,3.614,3.614,0,0,1,1.442-3.074,6.34,6.34,0,0,1,3.892-1.08,12.113,12.113,0,0,1,2.834.335,13.394,13.394,0,0,1,1.61.479v-3.757a29.851,29.851,0,0,0-3.04-.421q-1.358-.106-2.727-.106a14.525,14.525,0,0,0-7.375,1.607,6.453,6.453,0,0,0-2.835,3.169,6.117,6.117,0,0,0-.48,2.377,6.434,6.434,0,0,0,1.921,4.777q2.594,2.52,8.24,2.52a34.911,34.911,0,0,0,3.831-.193,25.021,25.021,0,0,0,3.135-.528V221.9h-6.763v2.615Z" transform="translate(-97.039 -15.489)" fill="#222" fill-rule="evenodd"/>
      <path id="Path_13" data-name="Path 13" d="M268.35,226.656v-2.189h7.88v-3.191h-7.88v-2.034h8.239v-3.315H261.913V229.94h14.846v-3.284Z" transform="translate(-113.494 -15.658)" fill="#222" fill-rule="evenodd"/>
      <path id="Path_14" data-name="Path 14" d="M30.67,217.245V198.673h8.175l8.248-18.742H24.757L1,233.892H36.393l3.756-8.532H27.1l3.572-8.114Z" transform="translate(0 0)" fill="#222" fill-rule="evenodd"/>
    </g>
  </g>
</svg>
