<svg xmlns="http://www.w3.org/2000/svg" width="41.267" height="67.322" viewBox="0 0 41.267 67.322">
  <g id="Group_8" data-name="Group 8" transform="translate(-883.341 -2901.061)">
    <path id="Path_29" data-name="Path 29" d="M271.421,122.8a1.185,1.185,0,0,0-1.184,0l-1.812.877a10.659,10.659,0,0,0-5.922,9.534v9.545a1.184,1.184,0,0,0,1.184,1.184h1.184v5.922a3.553,3.553,0,1,0,7.106,0V123.8a1.184,1.184,0,0,0-.557-1.007Zm-6.549,10.41a8.29,8.29,0,0,1,4.583-7.414l.154-.071v15.846h-4.737Zm4.737,16.651a1.184,1.184,0,1,1-2.369,0v-5.922h2.369Z" transform="translate(629.628 2790.785)" fill="#1992fb" stroke="#1992fb" stroke-width="1"/>
    <path id="Path_30" data-name="Path 30" d="M386.184,131.975a1.184,1.184,0,0,0,1.184-1.184v-7.106a1.184,1.184,0,0,0-2.369,0v7.106a1.184,1.184,0,0,0,1.184,1.184Z" transform="translate(523.712 2790.904)" fill="#1992fb" stroke="#1992fb" stroke-width="1"/>
    <path id="Path_31" data-name="Path 31" d="M359.474,149.74V136.262l1.054-.533a2.37,2.37,0,0,0,1.314-2.12v-9.925a1.184,1.184,0,0,0-2.369,0v9.925l-1.717.864a1.186,1.186,0,0,0-.651,1.054V149.74a1.184,1.184,0,1,1-2.369,0V135.528a1.186,1.186,0,0,0-.651-1.054l-1.717-.864v-9.925a1.184,1.184,0,0,0-2.369,0v9.925a2.37,2.37,0,0,0,1.314,2.12l1.054.533V149.74a3.553,3.553,0,1,0,7.106,0Z" transform="translate(553.975 2790.904)" fill="#1992fb" stroke="#1992fb" stroke-width="1"/>
    <path id="Path_32" data-name="Path 32" d="M235.6,35H207.172a5.921,5.921,0,0,0-5.922,5.922V95.4a5.921,5.921,0,0,0,5.922,5.922H235.6a5.921,5.921,0,0,0,5.922-5.922V40.922A5.921,5.921,0,0,0,235.6,35Zm-22.5,2.369h16.581v1.184a1.184,1.184,0,0,1-1.184,1.184H214.278a1.184,1.184,0,0,1-1.184-1.184Zm22.5,61.585H207.172a3.554,3.554,0,0,1-3.34-2.369h35.1a3.554,3.554,0,0,1-3.34,2.369Zm3.553-4.737h-35.53V40.922a3.553,3.553,0,0,1,3.553-3.553h3.553v1.184a3.553,3.553,0,0,0,3.553,3.553h14.212a3.553,3.553,0,0,0,3.553-3.553V37.369H235.6a3.553,3.553,0,0,1,3.553,3.553Z" transform="translate(682.591 2866.561)" fill="#1992fb" stroke="#1992fb" stroke-width="1"/>
    <path id="Path_33" data-name="Path 33" d="M377.435,402.5a1.184,1.184,0,1,0,.837.347A1.184,1.184,0,0,0,377.435,402.5Z" transform="translate(531.277 2548.803)" fill="#1992fb" stroke="#1992fb" stroke-width="1"/>
    <path id="Path_34" data-name="Path 34" d="M307.435,402.5a1.184,1.184,0,1,0,.837.347A1.184,1.184,0,0,0,307.435,402.5Z" transform="translate(591.802 2548.803)" fill="#1992fb" stroke="#1992fb" stroke-width="1"/>
    <path id="Path_35" data-name="Path 35" d="M342.435,402.5a1.184,1.184,0,1,0,.837.347A1.184,1.184,0,0,0,342.435,402.5Z" transform="translate(561.54 2548.803)" fill="#1992fb" stroke="#1992fb" stroke-width="1"/>
    <path id="Path_36" data-name="Path 36" d="M413.243,385.313a1.189,1.189,0,0,0-1.681,1.681l1.54,1.528-1.54,1.528a1.189,1.189,0,0,0,1.681,1.681l2.369-2.369a1.183,1.183,0,0,0,0-1.681Z" transform="translate(501.047 2563.965)" fill="#1992fb" stroke="#1992fb" stroke-width="1"/>
    <path id="Path_37" data-name="Path 37" d="M258.1,385.3a1.183,1.183,0,0,0-1.681,0l-2.369,2.369a1.183,1.183,0,0,0,0,1.681l2.369,2.369a1.189,1.189,0,0,0,1.681-1.681l-1.54-1.528,1.54-1.528a1.183,1.183,0,0,0,0-1.681Z" transform="translate(637.241 2563.977)" fill="#1992fb" stroke="#1992fb" stroke-width="1"/>
  </g>
</svg>
