<svg width="96" height="85" viewBox="0 0 96 85" fill="none" xmlns="http://www.w3.org/2000/svg">
<g clip-path="url(#clip0_24_2757)">
<path d="M86.1158 37.4436C92.7338 42.0852 91.3956 52.2535 83.8021 55.0247L31.4951 74.1142C24.4413 76.6884 17.1725 70.8601 18.1522 63.4154L24.4416 15.6244C25.6173 6.69077 35.8523 2.19158 43.2294 7.36549L86.1158 37.4436Z" fill="#01579B" fill-opacity="0.3"/>
<line x1="15" y1="75.5" x2="93" y2="75.5" stroke="#B3CDE1"/>
<path d="M21.98 56.5509L12.3069 66.2031L17.1427 71.039L17.2938 71.1901L17.4449 71.3412L17.7472 71.6435L23.3433 66.2061L33 56.5494H21.9815L21.98 56.5509Z" fill="#5CC1F6"/>
<path d="M17.8992 60.623L17.748 60.7738L17.5969 60.9246L17.4457 61.0754L17.2946 61.2262L17.1435 61.377L12.3069 66.2031L21.9785 75.8748H33L23.3433 66.2061L17.8992 60.623Z" fill="#01579B"/>
<path d="M21.98 56.5509L12.3069 66.2031L17.1427 71.039L17.2938 71.1901L17.4449 71.3412L17.7472 71.6435L23.3433 66.2061L33 56.5494H21.9815L21.98 56.5509Z" fill="#5CC1F6" fill-opacity="0.84"/>
<path d="M21.9591 40L4 57.9381L9.53093 63.4691L32.9761 40.0179H21.9785L21.9591 40Z" fill="#5CC1F6"/>
</g>
<defs>
<clipPath id="clip0_24_2757">
<rect width="96" height="85" fill="white"/>
</clipPath>
</defs>
</svg>
