<svg xmlns="http://www.w3.org/2000/svg" version="1.1" xmlns:xlink="http://www.w3.org/1999/xlink" xmlns:svgjs="http://svgjs.com/svgjs" width="512" height="512" x="0" y="0" viewBox="0 0 512 512" style="enable-background:new 0 0 512 512" xml:space="preserve" class=""><g><g xmlns="http://www.w3.org/2000/svg"><g><path d="m437.652 50.969c0-4.143-3.357-7.5-7.5-7.5h-348.307c-4.142 0-7.5 3.357-7.5 7.5s3.358 7.5 7.5 7.5h348.307c4.143 0 7.5-3.358 7.5-7.5z" fill="#000000" data-original="#000000" class=""></path><path d="m81.845 81.195c-4.142 0-7.5 3.357-7.5 7.5s3.358 7.5 7.5 7.5h174.153c4.143 0 7.5-3.357 7.5-7.5s-3.357-7.5-7.5-7.5z" fill="#000000" data-original="#000000" class=""></path><path d="m58.328 143.73h26.352l-7.509 41.696c-.878 4.874 1.461 9.729 5.819 12.08 4.358 2.353 9.699 1.642 13.292-1.769l54.788-52.008h209.859l54.788 52.008c3.603 3.42 8.947 4.114 13.293 1.769 4.358-2.353 6.696-7.207 5.817-12.08l-7.509-41.696h26.352c22.755 0 41.268-18.513 41.268-41.268v-14.663c0-4.143-3.357-7.5-7.5-7.5s-7.5 3.357-7.5 7.5v14.664c0 14.484-11.783 26.268-26.268 26.268h-26.953c-9.039 0-15.868 8.181-14.268 17.066l5.683 31.552-47.021-44.636c-2.707-2.568-6.251-3.982-9.98-3.982h-210.263c-3.73 0-7.275 1.415-9.981 3.983l-47.021 44.635 5.682-31.552c1.603-8.901-5.242-17.066-14.268-17.066h-26.952c-14.484 0-26.268-11.783-26.268-26.268v-61.195c0-14.485 11.784-26.268 26.268-26.268h395.342c14.484 0 26.268 11.783 26.268 26.268v11.479c0 4.143 3.357 7.5 7.5 7.5s7.5-3.357 7.5-7.5v-11.479c-.001-22.755-18.514-41.268-41.268-41.268h-395.342c-22.755 0-41.268 18.513-41.268 41.268v61.195c0 22.755 18.513 41.267 41.268 41.267z" fill="#000000" data-original="#000000" class=""></path><path d="m492.399 460.781v-46.604l17.326-82.963c12.21-58.471-32.449-113.265-92.056-113.265h-105.553c-6.582 0-11.938 5.355-11.938 11.938 0 13.148 6.361 24.838 16.166 32.155-7.013 15.005-10.694 31.482-10.693 48.008l-.245 19.794c-.009.687-.17 1.379-.467 2.001l-12.888 27.055c-6.269 13.165 3.352 28.312 17.867 28.312 3.211 0 5.042 2.495 5.042 5.039l.003 34.458c.002 15.622 12.643 28.317 28.312 28.317h.044l36.759-.025h.007c2.486 0 4.745 1.041 6.361 2.932 1.617 1.892 2.294 4.288 1.904 6.747l-.944 5.968-4.05.39c-9.743.938-17.091 9.025-17.091 18.813v3.249c0 10.422 8.479 18.9 18.9 18.9h106.201c10.422 0 18.9-8.479 18.9-18.9v-13.472c.002-9.887-7.66-18.282-17.867-18.847zm-74.729-227.832c50.204 0 87.614 46.156 77.372 95.198l-16.238 77.754h-18.537c-8.724 0-15.82-7.097-15.82-15.82v-15.221c0-10.354-4.888-20.319-13.073-26.657l-26.137-20.237c-7.861-6.088-12.555-15.658-12.555-25.601 0-26.124-21.254-47.377-47.378-47.377h-5.024c-12.804 0-23.399-9.637-24.915-22.039zm-19.821 215.237c-4.447-5.202-10.921-8.185-17.764-8.185-.006 0-.012 0-.017 0l-36.766.025c-.007 0-.014 0-.021 0-7.29 0-13.319-5.892-13.319-13.319l-.003-34.457c0-10.488-8.184-20.038-20.043-20.038-3.502 0-5.847-3.664-4.323-6.861l12.888-27.056c1.224-2.568 1.888-5.428 1.922-8.268l.246-19.885c0-14.34 3.165-28.574 9.189-41.541 7.113 1.92 11.978 1.247 15.464 1.387 17.854 0 32.378 14.524 32.378 32.377 0 14.549 6.868 28.553 18.371 37.461l26.137 20.236c4.544 3.519 7.257 9.051 7.257 14.798v15.221c0 16.994 13.826 30.82 30.82 30.82h17.133v41.083l-74.57 7.179.338-2.139c1.072-6.765-.867-13.631-5.317-18.838zm97.419 44.914c0 2.15-1.75 3.9-3.9 3.9h-106.201c-2.15 0-3.9-1.75-3.9-3.9v-3.249c0-2.02 1.517-3.688 3.527-3.882 20.202-1.945 84.56-8.14 106.201-10.224 2.242-.227 4.273 1.541 4.273 3.883z" fill="#000000" data-original="#000000" class=""></path><path d="m207.057 331.846c-.3-.632-.457-1.306-.466-2.004l-.245-19.699c0-16.609-3.681-33.096-10.694-48.101 9.805-7.318 16.166-19.007 16.166-32.155 0-6.582-5.355-11.938-11.938-11.938h-105.552c-59.731 0-104.241 54.915-92.055 113.265l4.699 22.502c.847 4.055 4.816 6.656 8.875 5.809 4.055-.847 6.655-4.82 5.809-8.875l-4.699-22.502c-10.263-49.145 27.271-95.198 77.372-95.198h102.306c-1.515 12.402-12.111 22.039-24.916 22.039h-5.024c-26.124 0-47.377 21.253-47.377 47.377 0 9.942-4.693 19.513-12.555 25.601l-26.136 20.237c-8.187 6.338-13.074 16.304-13.074 26.657v15.221c0 8.724-7.097 15.82-15.82 15.82h-18.54l-4.343-20.797c-.847-4.055-4.82-6.65-8.875-5.809-4.055.847-6.655 4.82-5.809 8.875l5.431 26.006v46.606c-10.28.576-17.869 9.024-17.869 18.845v13.472c0 10.422 8.479 18.9 18.9 18.9h106.202c10.422 0 18.9-8.479 18.9-18.9v-3.249c0-9.788-7.347-17.876-17.089-18.813l-4.052-.39-.944-5.967c-.8-5.06 3.084-9.679 8.267-9.679h.006l36.752.025h.044c15.499 0 28.317-12.524 28.318-28.317l.002-34.458c0-2.619 2.029-5.073 4.732-5.042 14.591.253 24.524-14.986 18.177-28.31zm-76.326 158.005v3.249c0 2.15-1.75 3.9-3.9 3.9h-106.202c-2.151 0-3.9-1.75-3.9-3.9v-13.472c0-2.199 1.798-3.902 3.882-3.902.292 0 106.481 10.232 106.593 10.243 2.01.193 3.527 1.862 3.527 3.882zm71.347-117.639c-.027 0-.055-.001-.083-.001-11.008-.204-19.958 9.01-19.959 20.038l-.002 34.458c-.001 7.36-5.953 13.319-13.325 13.319-.007 0-.014 0-.021 0l-36.758-.025c-.006 0-.011 0-.017 0-14.337 0-25.331 12.815-23.083 27.022l.338 2.139-74.57-7.179v-41.083h17.133c16.994 0 30.82-13.826 30.82-30.82v-15.22c0-5.747 2.713-11.279 7.257-14.798l26.136-20.237c11.504-8.907 18.372-22.911 18.372-37.46 0-17.853 14.524-32.377 32.377-32.377 3.461-.139 8.361.531 15.465-1.387 6.025 12.968 9.189 27.212 9.189 41.634l.245 19.792c.035 2.842.7 5.701 1.923 8.269l12.888 27.055c1.519 3.188-.811 6.861-4.325 6.861z" fill="#000000" data-original="#000000" class=""></path></g></g></g></svg>