<svg xmlns="http://www.w3.org/2000/svg" version="1.1" xmlns:xlink="http://www.w3.org/1999/xlink" xmlns:svgjs="http://svgjs.com/svgjs" width="512" height="512" x="0" y="0" viewBox="0 0 609.655 609.655" style="enable-background:new 0 0 512 512" xml:space="preserve" class=""><g><g xmlns="http://www.w3.org/2000/svg"><g id="Page-1_26_"><g id="_x30_27---Email-Tick"><path id="Shape_55_" d="m590.45 218.114-21.44-16.928v-170.703c.001-16.835-13.647-30.483-30.482-30.483h-467.402c-16.835 0-30.482 13.648-30.482 30.483v170.703l-21.48 16.959c-12.122 9.624-19.181 24.261-19.164 39.739v300.966c.034 28.045 22.76 50.771 50.805 50.805h508.045c28.045-.034 50.771-22.76 50.805-50.805v-300.966c.013-15.495-7.062-30.145-19.205-39.77zm-5.883 356.993-174.209-135.434 178.975-154.243v273.42c-.006 5.763-1.66 11.404-4.766 16.257zm-6.757-341.05c7.277 5.767 11.52 14.542 11.522 23.827v.732l-20.322 17.517v-49.077zm-506.684-213.735h467.402c5.612 0 10.161 4.549 10.161 10.161v263.167l-154.7 133.311-70.314-54.645c-11.071-8.655-26.615-8.655-37.687 0l-70.324 54.645-154.699-133.311v-263.167c0-5.612 4.55-10.161 10.161-10.161zm-46.039 554.785c-3.106-4.854-4.76-10.495-4.765-16.257v-273.42l178.974 154.243zm6.717-341.061 8.84-6.991v49.077l-20.322-17.517v-.732c-.014-9.281 4.215-18.061 11.482-23.837zm19.001 355.287c-3.064-.043-6.103-.553-9.013-1.514l256.685-199.489c3.735-2.927 8.986-2.927 12.721 0l256.665 199.469c-2.909.968-5.948 1.485-9.013 1.534z" fill="#000000" data-original="#000000" class=""></path><path id="Shape_54_" d="m304.827 345.471c84.176 0 152.414-68.238 152.414-152.414s-68.238-152.413-152.414-152.413-152.414 68.238-152.414 152.414c.096 84.136 68.278 152.318 152.414 152.413zm0-284.506c72.952 0 132.092 59.14 132.092 132.092s-59.139 132.092-132.092 132.092-132.092-59.14-132.092-132.092c.084-72.917 59.175-132.008 132.092-132.092z" fill="#000000" data-original="#000000" class=""></path><path id="Shape_53_" d="m252.793 275.574c11.904 11.9 31.199 11.9 43.103 0l101.609-101.609c5.718-5.717 8.93-13.471 8.93-21.556s-3.212-15.84-8.93-21.556c-12.065-11.513-31.048-11.513-43.113 0l-80.048 80.058-19.082-19.082c-12.069-11.503-31.044-11.503-43.113 0-5.718 5.717-8.93 13.471-8.93 21.556s3.212 15.84 8.93 21.556zm-26.266-69.389c3.967-3.96 10.391-3.96 14.357 0l26.276 26.266c3.968 3.967 10.4 3.967 14.368 0l87.252-87.242c4.019-3.831 10.338-3.831 14.357 0 3.967 3.968 3.967 10.4 0 14.368l-101.609 101.609c-4.018 3.842-10.349 3.842-14.368 0l-40.644-40.644c-1.908-1.906-2.98-4.492-2.98-7.189s1.072-5.283 2.98-7.189z" fill="#000000" data-original="#000000" class=""></path></g></g></g></g></svg>