<svg width="512" height="512" viewBox="0 0 512 512" fill="none" xmlns="http://www.w3.org/2000/svg">
<path d="M317.33 118.355C312.297 120.451 307.742 123.548 303.942 127.458C300.141 131.368 297.175 136.009 295.222 141.1C287.115 161.333 294.945 184.582 312.682 192.928C316.971 194.919 321.644 195.945 326.373 195.933C333.937 195.628 341.24 193.085 347.359 188.627C353.478 184.169 358.136 177.996 360.745 170.89C368.856 150.659 361.024 127.409 343.289 119.066C339.244 117.168 334.85 116.126 330.384 116.003C325.917 115.881 321.473 116.681 317.33 118.355ZM108.319 483.097L228.311 511.573C230.665 512.126 233.115 512.139 235.475 511.611C237.835 511.082 240.045 510.026 241.939 508.522C243.832 507.017 245.36 505.103 246.408 502.923C247.456 500.743 247.997 498.354 247.99 495.936V16.0617C247.978 13.6396 247.417 11.2516 246.35 9.07722C245.283 6.90286 243.737 4.99873 241.827 3.50796C239.957 2.00089 237.767 0.939901 235.425 0.405581C233.083 -0.12874 230.65 -0.122344 228.311 0.424281L108.319 28.9C104.801 29.731 101.667 31.7295 99.4303 34.5696C97.1931 37.4097 95.984 40.9239 96 44.5393V467.458C95.9838 471.073 97.1929 474.587 99.4301 477.428C101.667 480.268 104.801 482.266 108.319 483.097ZM179.994 239.998C179.992 238.946 180.197 237.904 180.598 236.931C180.999 235.959 181.588 235.075 182.331 234.33C183.074 233.585 183.956 232.994 184.928 232.591C185.9 232.188 186.942 231.981 187.994 231.981C189.046 231.981 190.087 232.188 191.059 232.591C192.031 232.994 192.913 233.585 193.656 234.33C194.399 235.075 194.988 235.959 195.389 236.931C195.79 237.904 195.995 238.946 195.993 239.998V247.998H207.992C210.114 247.998 212.149 248.841 213.649 250.341C215.149 251.842 215.992 253.877 215.992 255.998C215.992 258.12 215.149 260.155 213.649 261.656C212.149 263.156 210.114 263.999 207.992 263.999H195.993V271.999C195.995 273.051 195.79 274.093 195.389 275.066C194.988 276.039 194.399 276.922 193.656 277.667C192.913 278.412 192.031 279.003 191.059 279.406C190.087 279.809 189.046 280.017 187.994 280.017C186.942 280.017 185.9 279.809 184.928 279.406C183.957 279.003 183.074 278.412 182.331 277.667C181.588 276.922 180.999 276.039 180.598 275.066C180.197 274.093 179.992 273.051 179.994 271.999L179.994 239.998ZM270.631 206.089C274.964 200.063 281.19 195.661 288.315 193.585C284.872 189.346 282.095 184.608 280.078 179.532C274.134 181.797 268.673 185.171 263.988 189.475V222.257C263.988 222.257 266.815 213.539 266.934 213.207C266.934 213.207 270.461 206.713 270.631 206.089Z" fill="black"/>
<path d="M399.979 250.994C399.979 250.994 415.041 260.262 415.978 260.963V39.9902C415.973 35.7483 414.286 31.6815 411.287 28.6818C408.287 25.6822 404.221 23.9948 399.979 23.9897H263.988V39.9902H399.979V250.994ZM313.249 495.387L314.717 495.994C314.717 495.994 347.197 496.008 347.557 496.008C350.751 496.257 353.958 495.74 356.911 494.498C359.864 493.256 362.478 491.326 364.534 488.869C364.747 488.593 364.919 488.294 365.113 488.008H399.979C404.221 488.003 408.287 486.315 411.287 483.315C414.286 480.316 415.973 476.249 415.978 472.007V325.084C412.655 327.494 408.95 329.326 405.018 330.503C403.367 330.991 401.683 331.36 399.979 331.606V472.007C399.979 472.007 367.027 472.007 367.012 471.946C363.927 461.536 351.39 458.311 343.479 457.317L312.181 355.221C316.505 353.91 320.444 351.563 323.654 348.383C328.896 344.078 336.329 333.359 328.917 321.642C328.82 321.487 328.716 321.337 328.609 321.19L319.458 308.704L329.726 280.849C329.726 280.849 383.712 312.838 383.746 312.858C386.281 314.362 389.102 315.318 392.028 315.667C394.955 316.016 397.922 315.748 400.739 314.882C403.556 314.016 406.161 312.57 408.386 310.638C410.611 308.705 412.407 306.329 413.66 303.661C416.206 298.289 416.704 292.173 415.061 286.461C413.417 280.748 409.746 275.831 404.735 272.634L345.902 236.762C348.896 227.327 349.026 217.216 346.275 207.707C345.677 207.969 345.104 208.283 344.496 208.522C340.106 210.257 335.492 211.361 330.791 211.8C332.863 218.532 332.773 225.744 330.534 232.423L308.116 293.227L278.81 253.237L286.319 239.84C286.837 238.923 287.17 237.913 287.297 236.868C287.425 235.822 287.344 234.762 287.061 233.748C286.777 232.733 286.297 231.785 285.646 230.957C284.995 230.129 284.187 229.438 283.268 228.923C282.35 228.408 281.338 228.079 280.292 227.956C279.247 227.832 278.187 227.917 277.173 228.204C276.16 228.491 275.214 228.976 274.388 229.63C273.563 230.284 272.874 231.095 272.363 232.015L263.988 246.955V260.081L315.498 330.367C316.877 332.826 314.489 335.197 313.454 336.057C313.239 336.223 313.034 336.4 312.838 336.588C311.23 338.48 308.968 339.698 306.503 339.998C304.95 339.754 303.546 338.933 302.572 337.699L263.988 283.713V311.229L289.805 347.351C289.951 347.559 290.11 347.758 290.276 347.949C291.506 349.364 292.885 350.643 294.388 351.764L331.497 472.763L337.288 472.878C343.834 473.009 350.703 475.054 351.674 476.491C352.026 477.316 352.092 478.234 351.861 479.101C351.697 479.316 350.386 480.103 346.703 479.993H320.752C320.541 479.544 263.988 354.429 263.988 354.429V393.284C263.988 393.284 306.442 487.165 306.749 487.834C307.269 489.465 308.113 490.974 309.23 492.272C310.346 493.57 311.713 494.629 313.249 495.387ZM340.323 252.1L396.385 286.283C398.001 287.435 399.166 289.112 399.681 291.028C400.197 292.945 400.031 294.98 399.211 296.787C398.909 297.496 398.461 298.133 397.895 298.656C397.329 299.178 396.659 299.575 395.928 299.82C395.266 300.002 394.572 300.037 393.895 299.922C393.218 299.808 392.574 299.546 392.009 299.156L335.353 265.584L340.323 252.1Z" fill="black"/>
</svg>
