<svg width="48" height="48" viewBox="0 0 48 48" fill="none" xmlns="http://www.w3.org/2000/svg">
<g clip-path="url(#clip0_128_82)">
<path d="M45 15H41V10C41 9.73478 40.8946 9.48043 40.7071 9.29289C40.5196 9.10536 40.2652 9 40 9H36V1C36 0.734784 35.8946 0.48043 35.7071 0.292893C35.5196 0.105357 35.2652 0 35 0L13 0C12.7348 0 12.4804 0.105357 12.2929 0.292893C12.1054 0.48043 12 0.734784 12 1V9H8C7.73478 9 7.48043 9.10536 7.29289 9.29289C7.10536 9.48043 7 9.73478 7 10V15H3C2.20435 15 1.44129 15.3161 0.87868 15.8787C0.31607 16.4413 0 17.2044 0 18L0 38C0 38.7956 0.31607 39.5587 0.87868 40.1213C1.44129 40.6839 2.20435 41 3 41H12V47C12 47.2652 12.1054 47.5196 12.2929 47.7071C12.4804 47.8946 12.7348 48 13 48H35C35.2652 48 35.5196 47.8946 35.7071 47.7071C35.8946 47.5196 36 47.2652 36 47V41H45C45.7956 41 46.5587 40.6839 47.1213 40.1213C47.6839 39.5587 48 38.7956 48 38V18C48 17.2044 47.6839 16.4413 47.1213 15.8787C46.5587 15.3161 45.7956 15 45 15ZM39 11V15H36V11H39ZM14 2H34V15H14V2ZM9 11H12V15H9V11ZM42 17V23H6V17H42ZM9 39V32H12V39H9ZM34 46H14V32H34V46ZM36 39V32H39V39H36ZM46 38C46 38.2652 45.8946 38.5196 45.7071 38.7071C45.5196 38.8946 45.2652 39 45 39H41V31C41 30.7348 40.8946 30.4804 40.7071 30.2929C40.5196 30.1054 40.2652 30 40 30H8C7.73478 30 7.48043 30.1054 7.29289 30.2929C7.10536 30.4804 7 30.7348 7 31V39H3C2.73478 39 2.48043 38.8946 2.29289 38.7071C2.10536 38.5196 2 38.2652 2 38V18C2 17.7348 2.10536 17.4804 2.29289 17.2929C2.48043 17.1054 2.73478 17 3 17H4V24C4 24.2652 4.10536 24.5196 4.29289 24.7071C4.48043 24.8946 4.73478 25 5 25H43C43.2652 25 43.5196 24.8946 43.7071 24.7071C43.8946 24.5196 44 24.2652 44 24V17H45C45.2652 17 45.5196 17.1054 45.7071 17.2929C45.8946 17.4804 46 17.7348 46 18V38Z" fill="#139ED9"/>
<path d="M8.29 20.71C8.44072 20.8627 8.63659 20.963 8.84864 20.9958C9.0607 21.0287 9.27771 20.9925 9.4676 20.8925C9.65749 20.7926 9.8102 20.6342 9.90314 20.4408C9.99609 20.2474 10.0244 20.0292 9.98376 19.8185C9.94316 19.6077 9.83586 19.4157 9.6777 19.2706C9.51955 19.1256 9.31893 19.0353 9.1055 19.013C8.89206 18.9908 8.67713 19.0378 8.49246 19.1471C8.30779 19.2564 8.16318 19.4222 8.08 19.62C8.00342 19.8021 7.9825 20.0028 8.01987 20.1968C8.05725 20.3908 8.15124 20.5694 8.29 20.71ZM30 34H18C17.7348 34 17.4804 34.1054 17.2929 34.2929C17.1054 34.4804 17 34.7348 17 35C17 35.2652 17.1054 35.5196 17.2929 35.7071C17.4804 35.8946 17.7348 36 18 36H30C30.2652 36 30.5196 35.8946 30.7071 35.7071C30.8946 35.5196 31 35.2652 31 35C31 34.7348 30.8946 34.4804 30.7071 34.2929C30.5196 34.1054 30.2652 34 30 34ZM30 38H18C17.7348 38 17.4804 38.1054 17.2929 38.2929C17.1054 38.4804 17 38.7348 17 39C17 39.2652 17.1054 39.5196 17.2929 39.7071C17.4804 39.8946 17.7348 40 18 40H30C30.2652 40 30.5196 39.8946 30.7071 39.7071C30.8946 39.5196 31 39.2652 31 39C31 38.7348 30.8946 38.4804 30.7071 38.2929C30.5196 38.1054 30.2652 38 30 38ZM30 42H18C17.7348 42 17.4804 42.1054 17.2929 42.2929C17.1054 42.4804 17 42.7348 17 43C17 43.2652 17.1054 43.5196 17.2929 43.7071C17.4804 43.8946 17.7348 44 18 44H30C30.2652 44 30.5196 43.8946 30.7071 43.7071C30.8946 43.5196 31 43.2652 31 43C31 42.7348 30.8946 42.4804 30.7071 42.2929C30.5196 42.1054 30.2652 42 30 42Z" fill="#139ED9"/>
</g>
<defs>
<clipPath id="clip0_128_82">
<rect width="48" height="48" fill="white"/>
</clipPath>
</defs>
</svg>
