<svg width="62" height="69" viewBox="0 0 62 69" fill="none" xmlns="http://www.w3.org/2000/svg">
<mask id="mask0_690_69" style="mask-type:alpha" maskUnits="userSpaceOnUse" x="0" y="0" width="62" height="69">
<path d="M57.4 20.9929L55.454 22.9798C58.5011 27.0813 60.3963 31.9372 60.9398 37.0356C61.4833 42.1341 60.655 47.2862 58.5423 51.949C56.4295 56.6117 53.1105 60.6123 48.9351 63.5291C44.7598 66.446 39.8827 68.1709 34.818 68.5222C34.174 68.5647 33.5347 68.5859 32.9 68.5859C28.9502 68.5946 25.0429 67.7622 21.4329 66.1431C17.8229 64.5239 14.5914 62.1544 11.949 59.1889C11.6506 58.8391 11.4995 58.3853 11.5281 57.9245C11.5566 57.4636 11.7626 57.0324 12.1018 56.723C12.4411 56.4135 12.8868 56.2504 13.3435 56.2686C13.8003 56.2868 14.2319 56.4848 14.546 56.8202C18.8939 61.682 24.9591 64.6232 31.434 65.0097C37.9089 65.3963 44.2748 63.1972 49.1594 58.8866C54.044 54.576 57.056 48.4992 57.546 41.9662C58.0361 35.4332 55.9649 28.9674 51.779 23.9626C51.4939 23.6239 51.3457 23.189 51.3638 22.7448C51.382 22.3005 51.5652 21.8795 51.877 21.5657L54.929 18.4828C55.1422 18.2447 55.2566 17.9329 55.2486 17.612C55.2406 17.2911 55.1109 16.9855 54.8861 16.7585C54.6614 16.5315 54.3588 16.4004 54.0411 16.3923C53.7234 16.3842 53.4147 16.4998 53.179 16.7152L50.008 19.9182C49.7098 20.2192 49.3141 20.4015 48.8936 20.4313C48.473 20.4612 48.0559 20.3367 47.719 20.0808C44.207 17.4203 40.0553 15.7555 35.693 15.2586C35.2648 15.2116 34.8687 15.0067 34.5807 14.6832C34.2927 14.3596 34.1329 13.9402 34.132 13.5051V7.80606C34.1283 7.57156 34.1708 7.33865 34.2571 7.12091C34.3434 6.90317 34.4717 6.70495 34.6346 6.5378C34.7974 6.37065 34.9916 6.23791 35.2058 6.14731C35.4199 6.05671 35.6498 6.01007 35.882 6.0101H37.485C37.8136 6.0101 38.1287 5.87825 38.3611 5.64354C38.5935 5.40884 38.724 5.09051 38.724 4.75859C38.724 4.42666 38.5935 4.10834 38.3611 3.87363C38.1287 3.63893 37.8136 3.50707 37.485 3.50707H28.301C27.9724 3.50707 27.6572 3.63893 27.4249 3.87363C27.1925 4.10834 27.062 4.42666 27.062 4.75859C27.062 5.09051 27.1925 5.40884 27.4249 5.64354C27.6572 5.87825 27.9724 6.0101 28.301 6.0101H29.904C30.3681 6.0101 30.8132 6.19634 31.1414 6.52784C31.4696 6.85935 31.654 7.30896 31.654 7.77778V13.5051C31.6533 13.9391 31.4945 14.3576 31.2079 14.681C30.9213 15.0044 30.527 15.21 30.1 15.2586C24.4427 15.9129 19.1817 18.5175 15.204 22.6333C15.0427 22.7995 14.8505 22.932 14.6385 23.0232C14.4265 23.1144 14.1988 23.1625 13.9683 23.1648C13.503 23.1695 13.0548 22.9872 12.7225 22.6581C12.3902 22.329 12.2009 21.88 12.1963 21.4099C12.1917 20.9399 12.3722 20.4872 12.698 20.1515C16.8678 15.8475 22.2773 12.9843 28.154 11.9707V9.54546C26.9638 9.43593 25.8585 8.87619 25.0595 7.97837C24.2606 7.08055 23.8269 5.91095 23.8455 4.70388C23.8641 3.4968 24.3335 2.34139 25.1598 1.46911C25.986 0.596824 27.108 0.0720814 28.301 0H37.485C38.678 0.0720814 39.8 0.596824 40.6262 1.46911C41.4525 2.34139 41.9219 3.4968 41.9405 4.70388C41.9591 5.91095 41.5254 7.08055 40.7265 7.97837C39.9275 8.87619 38.8222 9.43593 37.632 9.54546V11.9424C41.5445 12.6113 45.2729 14.1076 48.573 16.3333L50.673 14.2121C51.5613 13.3139 52.7666 12.8089 54.0235 12.8082C55.2805 12.8075 56.4862 13.3113 57.3755 14.2086C58.2648 15.1059 58.7647 16.3233 58.7654 17.593C58.766 18.8626 58.2673 20.0805 57.379 20.9788L57.4 20.9929ZM0 31.0192C0 31.488 0.184374 31.9376 0.512563 32.2691C0.840752 32.6006 1.28587 32.7869 1.75 32.7869H13.902C14.3661 32.7869 14.8112 32.6006 15.1394 32.2691C15.4676 31.9376 15.652 31.488 15.652 31.0192C15.652 30.5504 15.4676 30.1008 15.1394 29.7693C14.8112 29.4378 14.3661 29.2515 13.902 29.2515H1.757C1.29408 29.2515 0.850019 29.4368 0.522031 29.7668C0.194043 30.0967 0.0088515 30.5445 0.00699983 31.0121L0 31.0192ZM19.894 39.5889C19.894 39.1201 19.7096 38.6705 19.3814 38.339C19.0532 38.0075 18.6081 37.8212 18.144 37.8212H5.999C5.53487 37.8212 5.08975 38.0075 4.76156 38.339C4.43337 38.6705 4.249 39.1201 4.249 39.5889C4.249 40.0577 4.43337 40.5073 4.76156 40.8388C5.08975 41.1703 5.53487 41.3566 5.999 41.3566H18.144C18.6081 41.3566 19.0532 41.1703 19.3814 40.8388C19.7096 40.5073 19.894 40.0577 19.894 39.5889ZM1.757 49.9333H13.902C14.3661 49.9333 14.8112 49.7471 15.1394 49.4156C15.4676 49.0841 15.652 48.6345 15.652 48.1657C15.652 47.6968 15.4676 47.2472 15.1394 46.9157C14.8112 46.5842 14.3661 46.398 13.902 46.398H1.757C1.29287 46.398 0.847752 46.5842 0.519563 46.9157C0.191374 47.2472 0.00699983 47.6968 0.00699983 48.1657C0.00699983 48.6345 0.191374 49.0841 0.519563 49.4156C0.847752 49.7471 1.29287 49.9333 1.757 49.9333ZM42.602 32.7657L38.115 37.298C38.7743 38.5629 38.9629 40.0246 38.6464 41.4179C38.3298 42.8112 37.5293 44.0437 36.39 44.8916C35.2506 45.7396 33.8481 46.1469 32.4369 46.0395C31.0257 45.9321 29.6994 45.3172 28.6987 44.3064C27.698 43.2956 27.0892 41.9559 26.9829 40.5304C26.8766 39.105 27.2798 37.6882 28.1193 36.5374C28.9588 35.3866 30.1789 34.5779 31.5583 34.2582C32.9377 33.9385 34.3848 34.1289 35.637 34.795L40.124 30.2626C40.2867 30.0983 40.4799 29.9679 40.6925 29.879C40.905 29.79 41.1329 29.7442 41.363 29.7442C41.5931 29.7442 41.8209 29.79 42.0335 29.879C42.2461 29.9679 42.4393 30.0983 42.602 30.2626C42.7647 30.427 42.8938 30.6221 42.9818 30.8368C43.0699 31.0516 43.1152 31.2817 43.1152 31.5141C43.1152 31.7466 43.0699 31.9767 42.9818 32.1915C42.8938 32.4062 42.7647 32.6013 42.602 32.7657ZM35.294 40.0768C35.294 39.5971 35.1532 39.1282 34.8894 38.7294C34.6255 38.3305 34.2505 38.0197 33.8118 37.8361C33.3731 37.6526 32.8903 37.6045 32.4246 37.6981C31.9588 37.7917 31.531 38.0227 31.1952 38.3619C30.8594 38.701 30.6308 39.1332 30.5381 39.6036C30.4455 40.0741 30.493 40.5617 30.6748 41.0049C30.8565 41.448 31.1642 41.8268 31.5591 42.0933C31.9539 42.3598 32.4181 42.502 32.893 42.502C33.5292 42.5002 34.1388 42.244 34.5887 41.7896C35.0386 41.3352 35.2921 40.7194 35.294 40.0768ZM32.893 61.1121C36.3204 61.1176 39.6961 60.2688 42.721 58.641C45.7459 57.0131 48.3264 54.6566 50.2338 51.7803C52.1412 48.9039 53.3166 45.5966 53.6557 42.1516C53.9947 38.7066 53.4871 35.2303 52.1778 32.0309C50.8684 28.8315 48.7978 26.0078 46.1494 23.8102C43.5011 21.6127 40.3569 20.1091 36.9955 19.4327C33.6342 18.7564 30.1596 18.9283 26.8797 19.9331C23.5999 20.9378 20.6161 22.7445 18.193 25.1929C17.8644 25.5249 17.6798 25.975 17.6798 26.4444C17.6798 26.9139 17.8644 27.364 18.193 27.696C18.5216 28.0279 18.9673 28.2144 19.432 28.2144C19.8967 28.2144 20.3424 28.0279 20.671 27.696C23.0947 25.2436 26.1842 23.5725 29.5484 22.8943C32.9127 22.2161 36.4005 22.5611 39.5705 23.8859C42.7405 25.2106 45.4503 27.4554 47.3568 30.3362C49.2634 33.2171 50.281 36.6045 50.281 40.0697C50.281 43.535 49.2634 46.9223 47.3568 49.8032C45.4503 52.684 42.7405 54.9288 39.5705 56.2535C36.4005 57.5783 32.9127 57.9233 29.5484 57.2451C26.1842 56.5669 23.0947 54.8958 20.671 52.4434C20.3424 52.1115 19.8967 51.925 19.432 51.925C18.9673 51.925 18.5216 52.1115 18.193 52.4434C17.8644 52.7754 17.6798 53.2255 17.6798 53.695C17.6798 54.1644 17.8644 54.6145 18.193 54.9465C20.1218 56.8997 22.4129 58.4497 24.9353 59.5076C27.4577 60.5656 30.1618 61.1108 32.893 61.1121Z" fill="black"/>
</mask>
<g mask="url(#mask0_690_69)">
<rect x="-4" y="-1" width="70" height="70" fill="#72C8E7"/>
</g>
</svg>
