<svg width="20" height="20" viewBox="0 0 20 20" fill="none" xmlns="http://www.w3.org/2000/svg">
<path d="M9.00781 9.49362C8.97686 8.02783 8.66618 6.58144 8.09246 5.2322C4.43108 6.94161 1.7415 10.1669 0.822128 13.9727C1.36017 15.2053 2.14041 16.3172 3.11654 17.2424C4.0448 14.0152 6.14606 11.2514 9.00781 9.49362ZM7.51987 4.07513C6.90658 3.00681 6.12503 2.04434 5.2053 1.22477C1.53585 3.23252 -0.633551 7.38912 0.164855 11.7957C1.51166 8.4454 4.13269 5.66762 7.51987 4.07513ZM15.0846 10.7313C15.4313 6.70777 13.9837 2.76888 11.153 0.0717316C10.5603 0.00319413 9.07232 -0.150007 7.16502 0.414419C9.4986 2.83212 10.8434 6.035 10.9353 9.39364C12.2203 10.1001 13.6288 10.5542 15.0846 10.7313ZM10.0562 11.1143C8.80201 11.8757 7.70444 12.869 6.82227 14.0413C10.1288 16.3514 14.262 17.069 18.0121 15.9684C18.8187 14.8878 19.3976 13.6548 19.7137 12.344C18.6474 12.6156 17.5519 12.7564 16.4515 12.7633C14.2499 12.7592 12.0603 12.1948 10.0562 11.1143ZM6.09241 15.1339C5.4795 16.1821 5.0561 17.3271 4.79803 18.5285C6.58676 19.6261 8.67651 20.131 10.7692 19.971C12.8619 19.811 14.8505 18.9943 16.4515 17.6375C11.899 18.2866 8.25376 16.6376 6.09241 15.1339ZM13.3627 0.595842C15.5926 3.4341 16.6894 7.09481 16.3709 10.82C17.5993 10.8226 18.8203 10.6294 19.9879 10.2475C19.9879 10.1669 20 10.0863 20 10.0056C20 5.65955 17.2298 1.97869 13.3627 0.595842Z" fill="#72C8E7"/>
</svg>
