<svg width="25" height="24" viewBox="0 0 25 24" fill="none" xmlns="http://www.w3.org/2000/svg">
<g clip-path="url(#clip0_521_3557)">
<path fill-rule="evenodd" clip-rule="evenodd" d="M17 5L12 0L7 5L8.4 6.4L11 3.8V23.9H13V3.9L15.6 6.5L17 5ZM0 14.9L1.4 16.3L4 13.8V21.9H0V23.9H6V13.7L8.7 16.4L10.1 15L5.1 10L0 14.9ZM20 13.7L22.7 16.4L24.1 15L19.1 10L14.1 15L15.5 16.4L18.1 13.8V23.9H24.1V21.9H20.1V13.7H20Z" fill="#FB4470"/>
</g>
<defs>
<clipPath id="clip0_521_3557">
<rect width="25" height="24" fill="white"/>
</clipPath>
</defs>
</svg>
