<svg width="26" height="18" viewBox="0 0 26 18" fill="none" xmlns="http://www.w3.org/2000/svg">
<g clip-path="url(#clip0_521_3563)">
<path fill-rule="evenodd" clip-rule="evenodd" d="M12.5437 0C19.3085 0 24.7934 5.48487 24.7934 12.2497C24.7934 14.1305 24.3667 15.908 23.6117 17.4996H21.6376C22.4865 16.0325 22.9653 14.3808 23.0326 12.6872H21.2935V11.8122H23.0434C22.9814 10.2583 22.5743 8.73773 21.8518 7.36066L20.3477 8.23064L19.9102 7.46983L21.4085 6.60568C20.9963 5.96162 20.5158 5.364 19.9752 4.82322C19.4253 4.2769 18.8186 3.79109 18.1652 3.37409L17.3019 4.86739L16.5419 4.4299L17.4002 2.9366C16.0317 2.22517 14.5232 1.82401 12.982 1.76163V3.49992H12.107V1.76079C10.5651 1.82068 9.05573 2.22229 7.68794 2.9366L8.55209 4.4299L7.79211 4.86739L6.92713 3.37409C5.62269 4.2011 4.51557 5.30423 3.68387 6.60568L5.188 7.46983L4.75051 8.23064L3.24721 7.36066C2.52466 8.73773 2.1176 10.2583 2.05558 11.8122H3.79387V12.6872H2.05474C2.12557 14.4038 2.60723 16.0455 3.44971 17.4996H1.47476C0.695768 15.8592 0.292377 14.0657 0.29395 12.2497C0.29395 5.48487 5.77882 0 12.5437 0ZM17.3561 8.7498L17.7935 9.18729L14.2828 13.803C14.2878 13.868 14.2936 13.9338 14.2936 13.9997C14.2936 14.968 13.512 15.7496 12.5437 15.7496C11.5754 15.7496 10.7937 14.968 10.7937 13.9997C10.7937 13.0314 11.5754 12.2497 12.5437 12.2497C12.6095 12.2497 12.6745 12.2555 12.7403 12.2605L17.3561 8.7498Z" fill="#FB4470"/>
</g>
<defs>
<clipPath id="clip0_521_3563">
<rect width="25" height="17.7083" fill="white" transform="translate(0.293945)"/>
</clipPath>
</defs>
</svg>
