<svg width="29" height="37" viewBox="0 0 29 37" fill="none" xmlns="http://www.w3.org/2000/svg">
<path d="M21.543 5.82783C17.643 1.92783 11.343 1.92783 7.44297 5.82783C5.54297 7.72783 4.54297 10.2278 4.54297 12.9278V28.4278C4.54297 29.0278 5.04297 29.5278 5.64297 29.5278H7.84297C8.44297 29.5278 8.94297 29.0278 8.94297 28.4278C8.94297 27.8278 8.44297 27.3278 7.84297 27.3278H6.74297V12.9278C6.74297 8.62783 10.243 5.12783 14.543 5.12783C18.843 5.12783 22.343 8.62783 22.343 12.9278V27.3278H21.243C20.643 27.3278 20.143 27.8278 20.143 28.4278C20.143 29.0278 20.643 29.5278 21.243 29.5278H23.443C24.043 29.5278 24.543 29.0278 24.543 28.4278V12.9278C24.543 10.2278 23.443 7.72783 21.543 5.82783Z" fill="black"/>
<path d="M16.697 27.322H12.297C11.697 27.322 11.197 27.822 11.197 28.422C11.197 29.022 11.697 29.522 12.297 29.522H16.697C17.297 29.522 17.797 29.022 17.797 28.422C17.797 27.822 17.397 27.322 16.697 27.322Z" fill="black"/>
<path d="M12.261 27.322C11.661 27.322 11.161 27.822 11.161 28.422V32.822C11.161 33.422 10.661 33.922 10.061 33.922C9.46099 33.922 8.96099 33.422 8.96099 32.822V28.422C8.96099 27.822 8.46099 27.322 7.86099 27.322C7.26099 27.322 6.76099 27.822 6.76099 28.422V32.822C6.76099 34.622 8.16099 36.222 10.061 36.222C11.861 36.222 13.461 34.822 13.461 32.922V32.822V28.422C13.461 27.822 12.961 27.322 12.261 27.322Z" fill="black"/>
<path d="M21.1318 27.322C20.5318 27.322 20.0318 27.822 20.0318 28.422V32.822C20.0318 33.422 19.5318 33.922 18.9318 33.922C18.3318 33.922 17.8318 33.422 17.8318 32.822V28.422C17.8318 27.822 17.3318 27.322 16.7318 27.322C16.1318 27.322 15.6318 27.822 15.6318 28.422V32.822C15.6318 34.622 17.0318 36.222 18.9318 36.222C20.7318 36.222 22.3318 34.822 22.3318 32.922V32.822V28.422C22.3318 27.822 21.8318 27.322 21.1318 27.322Z" fill="black"/>
<path d="M1.20791 11.7979C0.60791 11.7979 0.10791 12.2979 0.10791 12.8979V23.9979C0.10791 24.5979 0.60791 25.0979 1.20791 25.0979C1.80791 25.0979 2.30791 24.5979 2.30791 23.9979V12.8979C2.30791 12.2979 1.80791 11.7979 1.20791 11.7979Z" fill="black"/>
<path d="M27.8209 11.7979C27.2209 11.7979 26.7209 12.2979 26.7209 12.8979V23.9979C26.7209 24.5979 27.2209 25.0979 27.8209 25.0979C28.4209 25.0979 28.9209 24.5979 28.9209 23.9979V12.8979C28.9209 12.2979 28.4209 11.7979 27.8209 11.7979Z" fill="black"/>
<path d="M23.443 11.7979H5.64297C5.04297 11.7979 4.54297 12.2979 4.54297 12.8979C4.54297 13.4979 5.04297 13.9979 5.64297 13.9979H23.343C23.943 13.9979 24.443 13.4979 24.443 12.8979C24.543 12.2979 24.043 11.7979 23.443 11.7979Z" fill="black"/>
<path d="M9.54291 5.70892L6.54291 1.20892C6.24291 0.708923 5.64291 0.508923 5.04291 0.808923C4.54291 1.10892 4.34291 1.80892 4.64291 2.30892C4.64291 2.30892 4.64291 2.40892 4.74291 2.40892L7.64291 6.90892C7.94291 7.40892 8.64291 7.60892 9.14291 7.30892C9.74291 7.00892 9.84291 6.30892 9.54291 5.70892C9.54291 5.80892 9.54291 5.80892 9.54291 5.70892Z" fill="black"/>
<path d="M23.935 0.907857C23.435 0.507857 22.735 0.707857 22.435 1.20786L19.735 5.90786C19.335 6.50786 19.535 7.10786 20.035 7.40786C20.235 7.50786 20.435 7.60786 20.635 7.60786C21.035 7.60786 21.435 7.40786 21.635 7.10786L24.335 2.40786C24.635 1.80786 24.435 1.20786 23.935 0.907857Z" fill="black"/>
<path d="M16.7648 7.36304C16.1648 7.36304 15.6648 7.86304 15.6648 8.46304C15.6648 9.06304 16.1648 9.56304 16.7648 9.56304C17.3648 9.56304 17.8648 9.06304 17.8648 8.46304C17.8648 7.86304 17.3648 7.36304 16.7648 7.36304Z" fill="black"/>
<path d="M12.33 7.36304C11.73 7.36304 11.23 7.86304 11.23 8.46304C11.23 9.06304 11.73 9.56304 12.33 9.56304C12.93 9.56304 13.43 9.06304 13.43 8.46304C13.43 7.86304 12.93 7.36304 12.33 7.36304Z" fill="black"/>
</svg>
