<svg width="18" height="18" viewBox="0 0 18 18" fill="none" xmlns="http://www.w3.org/2000/svg">
<g clip-path="url(#clip0_60_617)">
<path d="M12.9375 3.375H13.5C13.5746 3.375 13.6461 3.34537 13.6989 3.29262C13.7516 3.23988 13.7812 3.16834 13.7812 3.09375C13.7812 3.01916 13.7516 2.94762 13.6989 2.89488C13.6461 2.84213 13.5746 2.8125 13.5 2.8125H12.9375C12.8629 2.8125 12.7914 2.84213 12.7386 2.89488C12.6859 2.94762 12.6562 3.01916 12.6562 3.09375C12.6562 3.16834 12.6859 3.23988 12.7386 3.29262C12.7914 3.34537 12.8629 3.375 12.9375 3.375ZM11.25 3.375H11.8125C11.8871 3.375 11.9586 3.34537 12.0114 3.29262C12.0641 3.23988 12.0938 3.16834 12.0938 3.09375C12.0938 3.01916 12.0641 2.94762 12.0114 2.89488C11.9586 2.84213 11.8871 2.8125 11.8125 2.8125H11.25C11.1754 2.8125 11.1039 2.84213 11.0511 2.89488C10.9984 2.94762 10.9688 3.01916 10.9688 3.09375C10.9688 3.16834 10.9984 3.23988 11.0511 3.29262C11.1039 3.34537 11.1754 3.375 11.25 3.375Z" fill="#999999"/>
<path d="M9.98438 6.1875H9.28125C9.20666 6.1875 9.13512 6.21713 9.08238 6.26988C9.02963 6.32262 9 6.39416 9 6.46875C9 6.54334 9.02963 6.61488 9.08238 6.66762C9.13512 6.72037 9.20666 6.75 9.28125 6.75H9.98438C10.059 6.75 10.1305 6.72037 10.1832 6.66762C10.236 6.61488 10.2656 6.54334 10.2656 6.46875C10.2656 6.39416 10.236 6.32262 10.1832 6.26988C10.1305 6.21713 10.059 6.1875 9.98438 6.1875ZM12.9375 6.1875H11.1094C11.0348 6.1875 10.9632 6.21713 10.9105 6.26988C10.8578 6.32262 10.8281 6.39416 10.8281 6.46875C10.8281 6.54334 10.8578 6.61488 10.9105 6.66762C10.9632 6.72037 11.0348 6.75 11.1094 6.75H12.9375C13.0121 6.75 13.0836 6.72037 13.1364 6.66762C13.1891 6.61488 13.2188 6.54334 13.2188 6.46875C13.2188 6.39416 13.1891 6.32262 13.1364 6.26988C13.0836 6.21713 13.0121 6.1875 12.9375 6.1875ZM4.5 5.625H6.75C6.82459 5.625 6.89613 5.59537 6.94887 5.54262C7.00162 5.48988 7.03125 5.41834 7.03125 5.34375C7.03125 5.26916 7.00162 5.19762 6.94887 5.14488C6.89613 5.09213 6.82459 5.0625 6.75 5.0625H4.5C4.42541 5.0625 4.35387 5.09213 4.30113 5.14488C4.24838 5.19762 4.21875 5.26916 4.21875 5.34375C4.21875 5.41834 4.24838 5.48988 4.30113 5.54262C4.35387 5.59537 4.42541 5.625 4.5 5.625ZM7.875 5.625H13.3594C13.434 5.625 13.5055 5.59537 13.5582 5.54262C13.611 5.48988 13.6406 5.41834 13.6406 5.34375C13.6406 5.26916 13.611 5.19762 13.5582 5.14488C13.5055 5.09213 13.434 5.0625 13.3594 5.0625H7.875C7.80041 5.0625 7.72887 5.09213 7.67613 5.14488C7.62338 5.19762 7.59375 5.26916 7.59375 5.34375C7.59375 5.41834 7.62338 5.48988 7.67613 5.54262C7.72887 5.59537 7.80041 5.625 7.875 5.625ZM4.5 6.75H8.15625C8.23084 6.75 8.30238 6.72037 8.35512 6.66762C8.40787 6.61488 8.4375 6.54334 8.4375 6.46875C8.4375 6.39416 8.40787 6.32262 8.35512 6.26988C8.30238 6.21713 8.23084 6.1875 8.15625 6.1875H4.5C4.42541 6.1875 4.35387 6.21713 4.30113 6.26988C4.24838 6.32262 4.21875 6.39416 4.21875 6.46875C4.21875 6.54334 4.24838 6.61488 4.30113 6.66762C4.35387 6.72037 4.42541 6.75 4.5 6.75ZM9.42188 7.59375C9.42187 7.51916 9.39224 7.44762 9.33949 7.39488C9.28675 7.34214 9.21522 7.3125 9.14062 7.3125H4.5C4.42541 7.3125 4.35387 7.34213 4.30113 7.39488C4.24838 7.44762 4.21875 7.51916 4.21875 7.59375C4.21875 7.66834 4.24838 7.73988 4.30113 7.79262C4.35387 7.84537 4.42541 7.875 4.5 7.875H9.14062C9.21522 7.875 9.28675 7.84536 9.33949 7.79262C9.39224 7.73988 9.42187 7.66834 9.42188 7.59375Z" fill="#999999"/>
<path d="M0.421874 16.3125H17.2969C17.4127 16.3125 17.5257 16.2767 17.6205 16.2101C17.7152 16.1435 17.7871 16.0492 17.8262 15.9402C17.8654 15.8312 17.87 15.7127 17.8393 15.601C17.8086 15.4893 17.7442 15.3898 17.6549 15.3161L15.9505 13.9099C15.929 13.8926 15.9062 13.8769 15.8824 13.863C15.8871 13.836 15.8899 13.8086 15.8906 13.7812V6.75C15.8906 6.60082 15.8314 6.45774 15.7259 6.35225C15.6204 6.24676 15.4773 6.1875 15.3281 6.1875H14.7656V2.53125C14.7654 2.30755 14.6764 2.09308 14.5182 1.9349C14.36 1.77672 14.1456 1.68774 13.9219 1.6875H5.76562C5.75418 1.68784 5.74277 1.68889 5.73145 1.69062C5.72749 1.69111 5.72358 1.69105 5.71965 1.6917C5.6969 1.69563 5.67472 1.70236 5.65361 1.71174C5.64863 1.7139 5.64395 1.71636 5.63909 1.71882C5.61736 1.72939 5.59709 1.74272 5.57879 1.7585L3.04754 4.0085C3.02875 4.02574 3.01241 4.04546 2.99897 4.06713C2.99525 4.07292 2.99202 4.07871 2.98874 4.08473C2.97867 4.10308 2.97069 4.12251 2.96496 4.14265C2.96377 4.14683 2.96191 4.1507 2.96092 4.15494C2.95589 4.17584 2.95327 4.19725 2.95312 4.21875V6.1875H2.39062C2.24144 6.1875 2.09837 6.24676 1.99288 6.35225C1.88739 6.45774 1.82812 6.60082 1.82812 6.75V13.7812C1.82885 13.8086 1.83161 13.836 1.83635 13.863C1.81254 13.8769 1.78978 13.8926 1.76827 13.9099L0.0638904 15.3161C-0.0254573 15.3898 -0.0898679 15.4893 -0.120543 15.601C-0.151218 15.7127 -0.146661 15.8312 -0.107495 15.9402C-0.0683289 16.0492 0.00353621 16.1435 0.0982836 16.2101C0.193031 16.2767 0.30604 16.3125 0.421874 16.3125ZM4.61748 3.36564L5.48437 2.59511V3.65625C5.48429 3.73082 5.45463 3.8023 5.4019 3.85503C5.34918 3.90776 5.27769 3.93741 5.20312 3.9375H3.97415L4.61748 3.36564ZM3.51562 4.5H5.20312C5.42683 4.49976 5.64129 4.41078 5.79948 4.2526C5.95766 4.09442 6.04663 3.87995 6.04687 3.65625V2.25H13.9219C13.9964 2.25009 14.0679 2.27974 14.1207 2.33247C14.1734 2.3852 14.203 2.45668 14.2031 2.53125V3.9375H6.89062C6.81603 3.9375 6.74449 3.96713 6.69175 4.01988C6.63901 4.07262 6.60937 4.14416 6.60937 4.21875C6.60937 4.29334 6.63901 4.36488 6.69175 4.41762C6.74449 4.47037 6.81603 4.5 6.89062 4.5H14.2031V12.6562H12.9375V12.4471C12.9378 12.2869 12.8883 12.1306 12.7958 11.9997C12.7033 11.8689 12.5724 11.7701 12.4212 11.717C12.3357 11.3684 12.2019 11.0335 12.0236 10.722C12.0983 10.5782 12.1258 10.4145 12.1024 10.2542C12.079 10.0938 12.0058 9.94489 11.8931 9.82839L11.6091 9.53296C11.4972 9.41569 11.3506 9.3375 11.1909 9.30993C11.0312 9.28236 10.8669 9.30687 10.7222 9.37984C10.4319 9.20285 10.1178 9.06806 9.78954 8.97951C9.74175 8.8232 9.64521 8.68627 9.51403 8.58875C9.38286 8.49123 9.22392 8.43823 9.06047 8.4375H8.65828C8.49483 8.43823 8.33589 8.49123 8.20471 8.58875C8.07353 8.68627 7.97699 8.8232 7.9292 8.97951C7.60092 9.06806 7.2869 9.20285 6.99657 9.37984C6.85187 9.30686 6.68754 9.28236 6.52784 9.30993C6.36814 9.3375 6.22154 9.4157 6.10969 9.53297L5.82562 9.82838C5.71297 9.94488 5.63976 10.0938 5.61635 10.2542C5.59293 10.4145 5.62049 10.5782 5.69512 10.722C5.51685 11.0335 5.38302 11.3684 5.29755 11.717C5.14639 11.7701 5.0155 11.8689 4.92299 11.9997C4.83049 12.1306 4.78095 12.2869 4.78125 12.4471V12.6562H3.51562V4.5ZM8.85937 10.125C8.18828 10.1258 7.54489 10.3927 7.07036 10.8672C6.59582 11.3418 6.32889 11.9852 6.32812 12.6562H5.34375V12.4471C5.34269 12.3927 5.36328 12.3401 5.40099 12.3009C5.4387 12.2617 5.49045 12.2391 5.54484 12.238H5.77266C5.84091 11.6743 6.05463 11.138 6.39281 10.6819L6.23109 10.5137C6.19318 10.4739 6.17203 10.421 6.17203 10.366C6.17203 10.311 6.19318 10.2581 6.23109 10.2183L6.51516 9.92284C6.53338 9.90345 6.55539 9.88799 6.57981 9.87743C6.60424 9.86686 6.63057 9.86141 6.65719 9.86141C6.6838 9.86141 6.71013 9.86686 6.73456 9.87743C6.75899 9.88799 6.78099 9.90345 6.79922 9.92284L6.96094 10.091C7.39114 9.74296 7.90875 9.51985 8.45719 9.44606V9.20914C8.45613 9.15474 8.47672 9.10215 8.51443 9.06293C8.55214 9.02371 8.60388 9.00108 8.65828 9H9.06047C9.11486 9.00108 9.16661 9.02371 9.20432 9.06293C9.24203 9.10215 9.26262 9.15474 9.26156 9.20914V9.44606C9.81 9.51984 10.3276 9.74296 10.7578 10.091L10.9195 9.92283C10.9378 9.90344 10.9598 9.88799 10.9842 9.87742C11.0086 9.86686 11.0349 9.86141 11.0616 9.86141C11.0882 9.86141 11.1145 9.86686 11.1389 9.87742C11.1634 9.88799 11.1854 9.90344 11.2036 9.92283L11.4877 10.2183C11.5256 10.2581 11.5467 10.311 11.5467 10.366C11.5467 10.421 11.5256 10.4738 11.4877 10.5137L11.3259 10.6819C11.6641 11.138 11.8778 11.6743 11.9461 12.238H12.1739C12.2283 12.2391 12.28 12.2617 12.3178 12.3009C12.3555 12.3401 12.3761 12.3927 12.375 12.4471V12.6562H11.3906C11.3899 11.9852 11.1229 11.3418 10.6484 10.8672C10.1739 10.3927 9.53047 10.1258 8.85937 10.125ZM10.8281 12.6562H6.89062C6.89062 12.1341 7.09805 11.6333 7.46726 11.2641C7.83647 10.8949 8.33723 10.6875 8.85937 10.6875C9.38152 10.6875 9.88228 10.8949 10.2515 11.2641C10.6207 11.6333 10.8281 12.1341 10.8281 12.6562ZM2.39062 6.75H2.95312V12.9375C2.95313 13.0121 2.98276 13.0836 3.0355 13.1364C3.08825 13.1891 3.15978 13.2187 3.23437 13.2188H14.4844C14.559 13.2187 14.6305 13.1891 14.6832 13.1364C14.736 13.0836 14.7656 13.0121 14.7656 12.9375V6.75H15.3281V13.7812H2.39062V6.75ZM2.12625 14.3438H15.5925L17.2969 15.75H0.421874L2.12625 14.3438Z" fill="black"/>
</g>
<defs>
<clipPath id="clip0_60_617">
<rect width="18" height="18" fill="white"/>
</clipPath>
</defs>
</svg>
