<svg width="18" height="17" viewBox="0 0 18 17" fill="none" xmlns="http://www.w3.org/2000/svg">
<g clip-path="url(#clip0_3_9)">
<path d="M4.86269 13.6435L5.08454 13.5533C5.28861 13.4703 5.52349 13.5693 5.60652 13.7734C5.6811 13.9567 5.60848 14.1645 5.44505 14.2652L5.45146 14.272C5.48795 14.311 5.51023 14.3578 5.52043 14.4065C5.75568 14.2676 5.86085 13.9735 5.75488 13.713C5.72472 13.6388 5.68022 13.5749 5.62611 13.5224C5.69698 13.3475 5.71445 13.1501 5.66493 12.9559L5.19939 11.1317L3.30031 10.3989C3.24095 10.3789 3.18211 10.3562 3.1253 10.3315L3.11503 10.3275L3.63322 12.3579C3.66214 12.3724 3.68938 12.3912 3.71276 12.4161L4.86269 13.6435ZM4.83501 3.87197C4.82453 3.87306 4.81615 3.87408 4.81251 3.87452C4.76779 3.88071 4.72526 3.89221 4.68484 3.90758C4.28303 4.02331 3.87728 4.30961 3.57816 4.82424C2.80673 6.16936 2.51657 7.08697 2.38722 8.71067C2.38533 9.26834 2.55109 9.62536 2.79522 9.85995C2.88881 9.96585 3.00789 10.0519 3.14882 10.1063L3.20847 10.1293C3.26288 10.1532 3.31837 10.1745 3.37453 10.1934L6.61603 11.4441C6.62375 11.4421 6.63104 11.4391 6.63905 11.4377L8.16982 11.1714L8.10682 10.8091C8.06909 10.5921 8.21578 10.3835 8.43282 10.3458C8.64985 10.3081 8.85837 10.4548 8.8961 10.6718L8.9591 11.0341L9.11692 11.0067L9.05392 10.6443C9.00593 10.3686 8.76296 10.1755 8.49144 10.1804C8.46297 10.1809 8.43427 10.183 8.40528 10.188C8.35197 10.1972 8.30201 10.2142 8.25569 10.2369C8.16064 10.1292 8.04127 10.0425 7.90253 9.98901L4.97099 8.85786C5.07609 8.24499 5.28184 7.6249 5.50179 7.0531L4.32563 5.65779C4.19767 5.50609 4.13649 5.31359 4.15339 5.116C4.17021 4.91826 4.26307 4.73895 4.41478 4.61106C4.54857 4.49825 4.71848 4.43612 4.89328 4.43612C5.11301 4.43612 5.32007 4.53233 5.46158 4.70021L6.13287 5.49647C6.1537 5.42503 6.17147 5.35278 6.18342 5.28016C6.24984 5.30595 6.31859 5.33435 6.38967 5.3656C6.72783 5.51403 7.11755 5.72633 7.55024 6.03091L7.51936 6.11081L7.8136 6.22464C7.89277 6.28495 7.97318 6.34824 8.05489 6.41473L9.47649 6.11605C8.12321 4.83123 6.94691 4.27239 6.1135 4.03453C5.88306 3.96876 5.67862 3.92696 5.50426 3.90154C5.30296 3.84189 5.07215 3.82798 4.83501 3.87197Z" fill="#999999"/>
<path d="M6.96045 12.9885L7.08958 13.8974L8.59821 13.635L8.44097 12.731L6.96045 12.9885Z" fill="black"/>
<path d="M6.81714 11.9786L6.8813 12.4308L8.34456 12.1762L8.26634 11.7266L6.81714 11.9786Z" fill="black"/>
<path d="M7.64564 2.39453H7.13159L7.70419 3.11163L7.80754 3.03785L7.64564 2.39453Z" fill="black"/>
<path d="M7.94701 2.99527H9.0555V3.14093H7.91358L7.80448 3.21879L8.41422 3.79765L8.31393 3.90333L7.64017 3.26365C7.63886 3.26241 7.63842 3.26059 7.63725 3.25928C7.63609 3.25804 7.63449 3.2576 7.63347 3.25622L6.94252 2.39098H5.99389C5.94647 3.19562 6.49868 3.93202 7.31155 4.09291C7.68299 4.1664 8.0497 4.10777 8.36375 3.95009L8.69615 4.26261L9.25768 3.97179L9.37159 2.99527H9.18667C9.20692 2.93307 9.22418 2.86927 9.23714 2.8035C9.26467 2.66454 9.2737 2.52623 9.26598 2.39098H7.79501L7.94701 2.99527ZM9.20794 3.14093L9.12192 3.87806L8.7207 4.08584L8.49681 3.87543C8.77262 3.70326 8.99687 3.44995 9.13139 3.141L9.20794 3.14093ZM10.2031 1.98954C10.2031 1.85633 9.83218 1.74825 9.37465 1.74825C9.36416 1.74825 9.35404 1.74861 9.3437 1.74868C9.21202 0.749727 8.65471 0 7.6358 0C6.45833 0 5.89673 1.00078 5.89673 2.23083H9.37458C9.83218 2.23083 10.2031 2.12282 10.2031 1.98954Z" fill="black"/>
<path d="M9.21352 11.5614L9.05566 11.5889L9.1339 12.0385L9.29176 12.0111L9.21352 11.5614Z" fill="black"/>
<path d="M9.38833 12.5658L9.23047 12.5933L9.38777 13.4974L9.54563 13.4699L9.38833 12.5658Z" fill="black"/>
<path d="M9.66049 15.067C9.69822 15.284 8.90894 15.4213 8.87121 15.2043L8.69482 14.1902L7.16885 14.4557L7.25603 15.0696C7.32056 15.524 7.71013 15.8521 8.15623 15.8521C8.19883 15.8521 8.24202 15.849 8.28536 15.8429C8.55316 15.8049 8.77631 15.6533 8.91506 15.4444C8.98075 15.4666 9.06028 15.4768 9.15147 15.4741C9.20456 15.4725 9.2613 15.4669 9.32168 15.4564C9.66253 15.3971 9.85284 15.2374 9.81839 15.0396L9.64199 14.0254L9.48416 14.0529L9.66049 15.067ZM6.66646 11.5959C6.60069 11.6073 6.55627 11.6705 6.5677 11.7363C6.57914 11.802 6.64235 11.8465 6.70812 11.835L9.21352 11.3992C9.27929 11.3878 9.32372 11.3246 9.31228 11.2588C9.30085 11.193 9.23763 11.1486 9.17186 11.16L6.66646 11.5959ZM6.84118 12.6004C6.77542 12.6119 6.73099 12.6751 6.74242 12.7408C6.75386 12.8066 6.81708 12.851 6.88284 12.8396L9.38825 12.4038C9.45401 12.3923 9.49844 12.3291 9.487 12.2634C9.47557 12.1976 9.41235 12.1532 9.34658 12.1646L6.84118 12.6004ZM7.095 14.0595C7.02923 14.0709 6.98481 14.1341 6.99624 14.1999C7.00768 14.2656 7.07089 14.3101 7.13666 14.2986L9.64206 13.8628C9.70783 13.8514 9.75226 13.7882 9.74082 13.7224C9.72939 13.6566 9.66617 13.6122 9.6004 13.6236L7.095 14.0595ZM17.323 10.2884C17.323 10.2884 17.5238 10.2505 17.7181 9.74806C17.9125 9.24559 17.7894 9.08245 17.7894 9.08245L11.5926 6.68549L11.1261 7.89136L17.323 10.2884ZM10.3314 7.19888L10.7965 7.37878L10.9708 7.6417L11.3097 6.76561L11.0039 6.84281L10.3948 6.6072C10.4023 6.63051 10.4088 6.65418 10.4139 6.6785C10.4515 6.8581 10.4217 7.04091 10.3314 7.19888ZM6.14819 5.76374L5.33896 4.80382C5.13154 4.55772 4.76388 4.52648 4.51801 4.7339C4.27198 4.94133 4.24066 5.30891 4.44809 5.55486L5.41485 6.70166C5.51135 6.51186 5.75512 6.08886 6.14819 5.76374ZM9.56705 6.26103L7.01882 6.79642L6.25154 5.88631C5.83181 6.23336 5.58586 6.7131 5.52767 6.83553L6.35234 7.81373C6.46428 7.94657 6.628 8.02086 6.79778 8.02086C6.83754 8.02086 6.87774 8.01678 6.91758 8.0084L9.80659 7.40143C10.1215 7.3353 10.3232 7.02635 10.2571 6.71142C10.1908 6.39657 9.88153 6.19512 9.56705 6.26103ZM2.20794 15.5891L1.2545 15.977C1.05043 16.0601 0.748468 15.318 0.952542 15.235L1.90598 14.847L1.4301 13.6773L0.540389 14.0734C0.0810409 14.2779 -0.125582 14.816 0.0789288 15.2753C0.219566 15.5912 0.51803 15.7874 0.84009 15.8127C0.968929 16.0747 1.1462 16.1941 1.31488 16.1254L2.26839 15.7374L2.20794 15.5891Z" fill="black"/>
<path d="M3.58023 15.0306L2.73022 15.3765L2.79061 15.5249L3.64062 15.179L3.58023 15.0306Z" fill="black"/>
<path d="M4.10132 14.8182L4.1617 14.9666L5.008 14.6223L4.89067 14.4971L4.10132 14.8182Z" fill="black"/>
<path d="M3.79945 14.0765L4.30395 13.8712L3.3299 12.8315L3.29858 12.8455L3.79945 14.0765Z" fill="black"/>
<path d="M2.42762 14.6346L3.27764 14.2888L2.78362 13.0747L1.94482 13.4481L2.42762 14.6346Z" fill="black"/>
<path d="M5.1574 14.5478C5.20306 14.5965 5.28026 14.599 5.32899 14.5534C5.37771 14.5077 5.38019 14.4305 5.33459 14.3818L3.59589 12.526C3.55022 12.4773 3.47302 12.4748 3.4243 12.5204C3.37557 12.5661 3.3731 12.6433 3.41869 12.692L5.1574 14.5478ZM3.79894 15.1446C3.82407 15.2064 3.8953 15.2365 3.95713 15.2113C4.01897 15.1862 4.04897 15.115 4.02385 15.0531L3.06546 12.6976C3.04033 12.6358 2.9691 12.6058 2.90727 12.6309C2.84543 12.656 2.81543 12.7273 2.84055 12.7891L3.79894 15.1446ZM2.42724 15.7027C2.45236 15.7646 2.52359 15.7946 2.58543 15.7694C2.64726 15.7443 2.67727 15.6731 2.65214 15.6112L1.69375 13.2557C1.66862 13.1939 1.59739 13.1639 1.53556 13.189C1.47373 13.2141 1.44372 13.2854 1.46885 13.3472L2.42724 15.7027Z" fill="black"/>
<path d="M17.3355 7.7281C17.7025 7.7281 18.0001 7.43055 18.0001 7.06351C18.0001 6.69647 17.7025 6.39893 17.3355 6.39893C16.9684 6.39893 16.6709 6.69647 16.6709 7.06351C16.6709 7.43055 16.9684 7.7281 17.3355 7.7281Z" fill="black"/>
</g>
<defs>
<clipPath id="clip0_3_9">
<rect width="18" height="16.1443" fill="white"/>
</clipPath>
</defs>
</svg>
