<svg width="18" height="18" viewBox="0 0 18 18" fill="none" xmlns="http://www.w3.org/2000/svg">
<path d="M13.9007 15.9643L13.6195 16.3567L13.1627 16.2069V15.7218L13.6195 15.5717L13.9007 15.9643ZM13.5004 14.8287C13.8015 14.829 14.0902 14.9488 14.3031 15.1617C14.516 15.3746 14.6357 15.6633 14.636 15.9645C14.6357 16.2656 14.516 16.5542 14.3031 16.7672C14.0902 16.9801 13.8015 17.0998 13.5004 17.1001C13.1993 17.0997 12.9107 16.98 12.6978 16.7671C12.4849 16.5542 12.3652 16.2655 12.3649 15.9645C12.3653 15.6634 12.485 15.3747 12.6978 15.1618C12.9107 14.9489 13.1993 14.8291 13.5004 14.8287ZM12.5309 15.9643C12.5309 16.057 12.5482 16.145 12.5723 16.2301L12.9764 16.33L12.9458 16.7579C13.1013 16.8665 13.2854 16.9267 13.475 16.9311L13.6939 16.5795L14.0805 16.7365C14.2306 16.6237 14.3446 16.4695 14.4085 16.293L14.1315 15.9645L14.4085 15.6358C14.3432 15.4548 14.2255 15.2974 14.0703 15.1838L13.6624 15.3492L13.4455 15.0006C13.266 15.0098 13.0926 15.069 12.9449 15.1714L12.9764 15.6104L12.5682 15.7114C12.5448 15.7937 12.5323 15.8787 12.5309 15.9643ZM3.81908 16.287C3.96038 16.1727 4.2329 15.8485 4.37942 15.6743C4.43144 15.6122 4.4687 15.5683 4.48094 15.556C4.52756 15.5096 4.89566 15.0798 4.97954 14.898C5.03084 14.7871 5.17988 14.5259 5.32406 14.2732C5.44376 14.0635 5.5568 13.8653 5.60414 13.7706C5.71358 13.5517 6.04172 13.0463 6.3569 12.8803C6.61754 12.743 7.06142 12.192 7.16024 12.0435C7.25096 11.9076 7.62482 11.2773 7.69646 11.0483C7.73858 10.9128 7.8788 10.6959 8.0273 10.4664C8.1587 10.2628 8.29442 10.0525 8.33582 9.93572C8.36912 9.8414 8.4413 9.67976 8.525 9.49274C8.64128 9.23264 8.83622 8.79704 8.83298 8.71298C8.81966 8.58248 8.95448 8.41724 9.13214 8.21492C9.17372 8.16722 9.22574 8.10818 9.23384 8.0927C9.25886 8.0306 9.27596 7.68806 9.28856 7.4375C9.30044 7.19774 9.37514 6.7562 9.4097 6.56252C9.23816 6.54218 8.87996 6.49664 8.68466 6.45002C8.65427 6.44183 8.62305 6.43711 8.5916 6.43598L8.57252 6.43886C8.55516 6.44804 8.53611 6.45355 8.51654 6.45506C8.4665 6.45506 8.444 6.4295 8.38352 6.36146C8.1947 6.1487 8.3855 5.60366 8.62706 5.16464C8.88536 4.69484 9.38522 3.8411 9.6212 3.62204C9.85322 3.40694 10.4022 3.2066 10.66 3.13082C10.7937 3.0914 10.9174 3.08942 11.0164 3.08762C11.0814 3.08636 11.1373 3.08546 11.1827 3.07556C11.2043 3.07127 11.2248 3.06296 11.2434 3.05108C11.3589 2.97404 11.4997 2.77892 11.464 2.61224C11.448 2.53772 11.4232 2.46698 11.3994 2.39858C11.3559 2.27402 11.3146 2.1563 11.3256 2.02364L11.3274 2.00168C11.3776 1.3508 11.659 0.988102 12.1635 0.923842C12.2775 0.90848 12.3924 0.900483 12.5075 0.899902C13.0284 0.899902 13.2574 1.09142 13.3983 1.25846C13.6005 1.4975 13.6298 2.14532 13.5049 2.47292C13.4086 2.72618 13.414 2.84084 13.4181 2.92436C13.419 2.94182 13.4197 2.95784 13.4197 2.97314C13.4197 3.10022 13.3405 3.24134 13.2309 3.25862C13.2171 3.28868 13.1976 3.36266 13.1787 3.43466L13.1584 3.51314C13.1389 3.58586 13.126 3.6377 13.1172 3.67406C13.2388 3.69854 13.4561 3.76334 13.7004 3.93344C13.952 4.10858 14.0557 4.43438 14.1471 4.72202C14.1921 4.86404 14.2348 4.99796 14.2881 5.08508C14.319 5.13566 14.3534 5.19002 14.3899 5.24726C14.5523 5.50214 14.7546 5.81948 14.8448 6.14132C14.8965 6.32564 14.9794 6.55982 15.0525 6.76628C15.1324 6.99272 15.2017 7.1882 15.2262 7.30196C15.2664 7.48934 15.3583 7.98344 15.3767 8.18918C15.3774 8.19512 15.3789 8.20088 15.3783 8.20718C15.3796 8.22284 15.3803 8.23706 15.3803 8.24822C15.3803 8.27936 15.3879 8.32256 15.3958 8.37206C15.4239 8.54504 15.4662 8.80658 15.3054 8.95292C15.1078 9.13238 14.8191 9.34532 14.6342 9.3086C14.4232 9.26648 14.2753 8.97308 14.2587 8.72558C14.2477 8.56124 14.3237 8.49572 14.3741 8.45216C14.4106 8.42048 14.4258 8.40752 14.4258 8.3546L14.4259 8.31176C14.4268 8.10764 14.4286 7.766 14.2715 7.5041C14.0908 7.20314 13.9527 6.91316 13.8064 6.60608L13.7961 6.58448C13.6892 6.36056 13.5196 6.0641 13.4316 5.91344C13.3044 6.0425 13.0587 6.32366 12.976 6.64442C12.8477 7.14158 12.7075 7.80956 12.735 8.05616C12.7458 8.15336 12.7608 8.22662 12.7721 8.28368C12.7944 8.39474 12.8122 8.4824 12.7397 8.55512C12.7056 8.58795 12.6649 8.61322 12.6204 8.62928C12.6475 8.70236 12.705 8.82134 12.8205 8.95796C12.8812 9.02942 12.9588 9.11546 13.0419 9.20762C13.2561 9.44504 13.4991 9.71396 13.6093 9.90656L13.6766 10.0221C13.8273 10.2784 13.9981 10.569 13.9898 10.7902C13.9817 11.0146 13.8688 11.6047 13.5717 11.9965C13.4223 12.1933 13.4032 12.3321 13.3828 12.4791C13.3677 12.5891 13.3522 12.7027 13.2844 12.8346C13.1424 13.1102 12.9454 13.3696 12.6477 13.762L12.451 14.0208C12.1623 14.3992 11.8896 14.7567 11.8014 14.971C11.6061 15.445 11.4945 15.5865 11.3947 15.6136L11.3951 15.6455C11.3973 15.7272 11.4003 15.8505 11.3195 15.9623C11.2812 16.0152 11.2468 16.0915 11.2137 16.1655C11.1433 16.3228 11.0702 16.4852 10.9217 16.5003C10.7696 16.5172 10.6846 16.4397 10.5615 16.3315C10.521 16.2957 10.4742 16.2541 10.4159 16.2076C10.341 16.1475 10.2854 16.1191 10.2408 16.0959C10.1401 16.044 10.08 16.0001 10.0937 15.8268C10.1112 15.6028 10.2876 15.3912 10.4487 15.1986L10.462 15.1825C10.6065 15.0094 10.7705 14.813 10.9739 14.4935C11.1561 14.2075 11.4311 13.7753 11.4311 13.584C11.4311 13.3604 11.5378 12.8848 11.6334 12.5977C11.6833 12.448 11.8359 12.2419 11.9832 12.0426C12.01 12.0063 12.0408 11.9649 12.071 11.9227C12.0372 11.9339 12.0008 11.9407 11.9614 11.9407C11.7434 11.9407 11.6682 11.7399 11.6134 11.5928C11.5886 11.5266 11.563 11.458 11.5333 11.4281C11.4228 11.3178 11.0112 11.0506 10.8877 10.9889C10.8529 10.9714 10.8297 10.9531 10.8128 10.9398C10.8092 10.9369 10.806 10.9344 10.8072 10.9329C10.7815 10.9396 10.7158 10.9774 10.6121 11.0447C10.2739 11.2647 10.0357 11.6257 9.97094 11.7312C9.93296 11.7928 9.90272 11.8547 9.87572 11.9098C9.8075 12.0486 9.74846 12.1686 9.62102 12.1686C9.5303 12.1686 9.18974 12.1382 9.065 12.1269C8.91776 12.2941 8.29028 13.0013 8.08346 13.1806C7.50638 13.6806 7.31774 13.8783 7.2614 13.9558C7.14404 14.1177 6.49856 14.8438 6.22748 15.0668C6.16322 15.1199 6.0995 15.1701 6.03704 15.2198C5.85056 15.3674 5.67416 15.5071 5.50802 15.6957C5.39444 15.8246 5.3273 15.961 5.26826 16.0815C5.21246 16.195 5.1599 16.3021 5.07854 16.3837C5.01824 16.4442 4.95884 16.545 4.90142 16.6423C4.82096 16.779 4.745 16.9078 4.64852 16.9613C4.52864 17.0277 4.33154 17.0675 4.12112 17.0675C4.08256 17.0675 4.04402 17.0661 4.00556 17.0635C3.94389 17.0598 3.88206 17.0593 3.82034 17.0621C3.70406 17.0657 3.60254 17.0727 3.49328 17.0047C3.47169 16.9911 3.45376 16.9724 3.44105 16.9503C3.42834 16.9282 3.42125 16.9033 3.42038 16.8778C3.40904 16.685 3.68948 16.3914 3.81908 16.287ZM12.8554 11.2405C13.1796 11.038 13.6489 10.9628 13.7929 10.9435C13.803 10.8795 13.8096 10.8224 13.8111 10.7824C13.8114 10.7778 13.81 10.7718 13.81 10.767C13.6757 10.7468 13.345 10.7187 13.0889 10.8786C12.8376 11.0355 12.492 11.3536 12.3124 11.5249C12.3135 11.5249 12.3142 11.5244 12.3153 11.5244C12.3352 11.5246 12.3546 11.531 12.3708 11.5426C12.387 11.5543 12.3992 11.5706 12.4058 11.5894C12.5379 11.4708 12.6965 11.3401 12.8554 11.2405ZM13.1955 3.08366C13.2091 3.07556 13.2403 3.02552 13.2403 2.97314C13.2403 2.96072 13.2396 2.9474 13.2388 2.933C13.2345 2.83922 13.2275 2.69738 13.3375 2.4092C13.3832 2.28914 13.4017 2.12192 13.3994 1.95488C13.2363 1.90624 13.0709 1.86563 12.9039 1.8332C12.5847 1.77236 12.5089 1.92446 12.4024 2.06126C12.2958 2.19806 12.2503 2.3804 12.1896 2.54762C12.1288 2.71484 12.1133 2.59334 12.0526 2.59334C11.992 2.59334 12.0526 2.44106 11.9005 2.24378C11.7859 2.09492 11.637 2.25656 11.5704 2.3453C11.5956 2.41694 11.6214 2.49128 11.6392 2.57444C11.6946 2.83274 11.4991 3.09572 11.3429 3.19994L11.34 3.20138C11.3652 3.51926 11.466 4.03262 11.6394 4.12388C12.0406 4.3352 12.345 4.40882 12.4747 4.32548C12.5833 4.25582 12.5979 4.067 12.5917 3.9473C12.5414 3.94054 12.492 3.92773 12.4447 3.90914C12.3954 3.88959 12.3457 3.87105 12.2956 3.85352C12.0894 3.78062 12.0012 3.74066 11.8793 3.48344C11.8742 3.4726 11.8712 3.46086 11.8706 3.44889C11.87 3.43691 11.8718 3.42494 11.8759 3.41364C11.8799 3.40235 11.8861 3.39197 11.8942 3.38308C11.9022 3.3742 11.9119 3.36698 11.9228 3.36185C11.9336 3.35672 11.9453 3.35378 11.9573 3.35319C11.9693 3.3526 11.9813 3.35437 11.9926 3.35841C12.0039 3.36244 12.0142 3.36866 12.0231 3.37671C12.032 3.38476 12.0392 3.39448 12.0444 3.40532C12.1383 3.60404 12.1803 3.61916 12.3567 3.68144C12.4013 3.69728 12.4524 3.71546 12.5124 3.7394C12.5801 3.76712 12.6536 3.77757 12.7263 3.76981C12.7991 3.76205 12.8687 3.73632 12.9291 3.69494C12.9388 3.6467 12.9566 3.57218 12.9849 3.46634L13.0052 3.38894C13.0572 3.19058 13.0873 3.07214 13.1955 3.08366ZM14.6832 9.13328C14.778 9.13328 14.9749 9.01016 15.1848 8.81954C15.2737 8.73872 15.2421 8.54306 15.2188 8.40014L15.2185 8.39708C15.1596 8.43356 15.0928 8.45519 15.0237 8.46008C14.9548 8.46548 14.8795 8.46728 14.8099 8.46728C14.7125 8.46728 14.6274 8.46368 14.5847 8.4617C14.5648 8.51093 14.5325 8.55416 14.4909 8.58716C14.4506 8.6219 14.4324 8.63774 14.4375 8.7128C14.4515 8.92214 14.5761 9.11348 14.6832 9.13328ZM12.8023 6.5987C12.9294 6.10586 13.3742 5.71814 13.3929 5.70212C13.4028 5.69351 13.4144 5.68717 13.427 5.68356C13.4396 5.67995 13.4528 5.67916 13.4657 5.68124C13.4786 5.68332 13.4909 5.68822 13.5018 5.69559C13.5126 5.70297 13.5216 5.71263 13.5283 5.7239C13.5394 5.74262 13.8058 6.18722 13.9579 6.50672L13.9684 6.52814C14.1127 6.83144 14.2492 7.11764 14.4252 7.41104C14.5996 7.70192 14.6059 8.06624 14.6052 8.28008C14.6833 8.28368 14.8646 8.2898 15.0099 8.27828C15.1198 8.26964 15.1753 8.20574 15.1958 8.17586C15.1749 7.98326 15.0954 7.54622 15.0509 7.33922C15.0291 7.2368 14.9584 7.03718 14.8835 6.82586C14.8095 6.6167 14.7255 6.37964 14.6722 6.18938C14.5892 5.8931 14.3948 5.58818 14.2387 5.34338C14.2036 5.28872 14.1689 5.2337 14.1349 5.17832C14.0704 5.07284 14.0247 4.92866 13.9761 4.7762C13.8931 4.51592 13.7994 4.22072 13.5978 4.0805C13.338 3.8996 13.1155 3.85352 13.0378 3.84218C12.9585 3.89606 12.8683 3.932 12.7737 3.94748C12.7793 4.09148 12.7622 4.35752 12.5734 4.47902C12.5077 4.52114 12.4272 4.54238 12.3306 4.54238C12.1371 4.54238 11.88 4.45706 11.5544 4.28534C11.2698 4.13576 11.1832 3.4802 11.1618 3.25808C11.1145 3.26314 11.067 3.26602 11.0194 3.26672C10.9219 3.26834 10.8209 3.27014 10.7104 3.30254C10.4375 3.38264 9.93404 3.57614 9.74288 3.75344C9.5519 3.93038 9.1118 4.6538 8.78384 5.25086C8.48126 5.80112 8.44598 6.16202 8.51744 6.24248L8.53526 6.26246C8.5763 6.25292 8.64038 6.25526 8.72624 6.2756C8.92838 6.32384 9.33176 6.37298 9.4736 6.38954C9.47612 6.38954 9.47828 6.38846 9.48098 6.38882C9.73298 6.42104 10.4785 6.36254 10.7385 6.34076L10.7158 6.08192C10.703 5.93522 10.7151 5.83172 10.7374 5.75918C9.88976 5.69888 9.42392 5.62544 9.35192 5.53994C9.31952 5.50142 9.31988 5.4395 9.3584 5.40728C9.39692 5.3747 9.44984 5.37542 9.48224 5.41394C9.5258 5.44094 9.71246 5.4728 9.96374 5.50304C10.0514 5.45228 10.2251 5.32916 10.2627 5.19758C10.3239 4.98428 10.4305 4.63382 10.4305 4.63382L10.6051 4.68692C10.6051 4.68692 10.4991 5.03576 10.4382 5.2478C10.4055 5.36228 10.3198 5.4593 10.2346 5.53256C10.4393 5.5529 10.6636 5.57162 10.8803 5.5862C10.9359 5.56154 11.0756 5.51294 11.2981 5.52662C11.3469 5.5295 11.3967 5.53058 11.4444 5.53166C11.6316 5.53616 11.7792 5.53976 11.8458 5.63138C11.8669 5.66036 11.8874 5.71004 11.8663 5.78042C11.8541 5.82164 11.8741 5.92334 11.8903 6.00488C11.9238 6.17372 11.9616 6.36524 11.8231 6.4421C11.6779 6.52274 11.4455 6.52886 11.3776 6.52886C11.3042 6.52886 11.2371 6.52328 11.1832 6.51248C11.0981 6.49538 11.0029 6.44228 10.9255 6.39098L10.9276 6.41564C10.9296 6.43967 10.9221 6.46352 10.9066 6.48202C10.8912 6.50052 10.869 6.51218 10.845 6.51446C10.8099 6.5177 10.1212 6.57998 9.69374 6.57998C9.65594 6.57998 9.62192 6.57908 9.58862 6.578C9.55658 6.75854 9.47882 7.21214 9.4673 7.4465C9.452 7.75358 9.43994 7.96724 9.41852 8.0855C9.54866 8.12024 9.80012 8.19386 9.98246 8.28764C10.2381 8.41904 10.6375 8.76266 11.2468 8.77922C11.6804 8.79128 12.2224 8.67122 12.4292 8.62082C12.4255 8.60735 12.4225 8.59371 12.42 8.57996C12.4165 8.55644 12.4224 8.53248 12.4365 8.51332C12.4506 8.49416 12.4718 8.48136 12.4953 8.47772C12.4956 8.47772 12.5259 8.47304 12.5592 8.45918C12.5822 8.44982 12.6006 8.43866 12.6115 8.42894C12.6153 8.41526 12.6049 8.36342 12.5957 8.3177C12.5787 8.23731 12.5656 8.15616 12.5563 8.07452C12.519 7.73486 12.7352 6.85898 12.8023 6.5987ZM11.6894 5.73596C11.6448 5.71886 11.5233 5.71616 11.4401 5.71418C11.3902 5.71292 11.3386 5.71166 11.2871 5.70878C11.1384 5.70014 11.0347 5.72462 10.9822 5.74244L10.9329 6.1712C11.0041 6.22664 11.1328 6.31664 11.2194 6.33374C11.2608 6.3422 11.3175 6.3467 11.378 6.3467C11.5249 6.3467 11.6649 6.3215 11.7328 6.28442C11.7538 6.25472 11.7265 6.1154 11.7115 6.04034C11.6894 5.92874 11.6683 5.82326 11.6894 5.73596ZM13.5223 10.1119L13.4921 10.0601C13.3422 10.0243 13.0867 9.98036 12.9039 10.0414C12.6303 10.1325 12.3871 10.2999 12.0832 10.5886C11.7792 10.8773 11.9007 11.303 11.9007 11.303L12.15 11.4274C12.3196 11.2638 12.7057 10.9029 12.9922 10.7239C13.2601 10.5565 13.581 10.558 13.765 10.5776C13.7083 10.4293 13.6089 10.259 13.5223 10.1119ZM11.8037 12.6534C11.7146 12.9212 11.6107 13.3854 11.6107 13.5827C11.6107 13.8079 11.3908 14.1715 11.1255 14.5885C11.023 14.7504 10.9125 14.9069 10.7943 15.0576C10.8931 15.0727 11.0436 15.1015 11.1561 15.1485C11.2756 15.1982 11.3229 15.3447 11.3416 15.4405H11.3436C11.3638 15.4311 11.445 15.3651 11.6359 14.9014C11.7331 14.6652 12.0129 14.2986 12.3088 13.9108L12.5053 13.6524C12.7975 13.2673 12.9904 13.013 13.1253 12.7513C13.1791 12.6465 13.1915 12.5571 13.2055 12.4536C13.227 12.2975 13.2513 12.1209 13.4289 11.8867C13.5951 11.6679 13.6987 11.3732 13.7556 11.1334C13.5792 11.1613 13.2066 11.2359 12.9519 11.3953C12.6022 11.614 12.2294 12.0142 12.2256 12.0181L12.2236 12.0162C12.192 12.0603 12.1599 12.1043 12.1275 12.1479C11.9952 12.3274 11.8447 12.5304 11.8037 12.6534ZM8.84252 12.1067C8.29694 12.0451 7.66982 11.8356 7.52546 11.7854C7.45657 11.9064 7.38455 12.0256 7.30946 12.1429C7.25024 12.2318 7.03334 12.5122 6.80384 12.7434C6.81032 12.8865 6.84974 13.191 6.97934 13.3208C7.11866 13.4599 7.37444 13.4884 7.46174 13.4941C7.5944 13.3707 7.76072 13.2222 7.96664 13.0438C8.13458 12.8982 8.61752 12.3598 8.84252 12.1067ZM7.29272 13.6554C7.1543 13.6293 6.97466 13.5739 6.85046 13.4495C6.71348 13.3127 6.65804 13.0702 6.63554 12.9005C6.61327 12.9194 6.59052 12.9378 6.56732 12.9556C6.57056 13.0859 6.60692 13.4193 6.74372 13.5564C6.88016 13.6929 7.12784 13.7226 7.22 13.7292C7.24142 13.7065 7.26608 13.6819 7.29272 13.6554ZM5.37374 15.5753C5.55068 15.375 5.73302 15.2304 5.92598 15.0776C5.98772 15.0288 6.05 14.9793 6.11354 14.9271C6.3497 14.7324 6.90788 14.111 7.08068 13.8955C6.93992 13.8716 6.74624 13.8167 6.61484 13.6853C6.45878 13.5292 6.40856 13.2369 6.39218 13.0704C6.14432 13.2333 5.86586 13.648 5.76452 13.8507C5.71502 13.9499 5.6009 14.1499 5.47994 14.3619C5.33756 14.6112 5.19068 14.869 5.14262 14.9732C5.04362 15.187 4.6487 15.6421 4.60784 15.6826C4.59668 15.6937 4.56356 15.7337 4.51658 15.7895C4.49066 15.8205 4.46024 15.8568 4.42766 15.895C4.48994 15.9288 4.5506 16.0055 4.6199 16.1311C4.68128 16.2422 4.88126 16.2094 5.01518 16.1724C5.04686 16.1227 5.07584 16.0651 5.10734 16.0008C5.1716 15.8703 5.24414 15.7224 5.37374 15.5753Z" fill="#999999"/>
<path d="M13.4793 15.9643L13.1982 16.3567L12.7413 16.2069V15.7218L13.1982 15.5717L13.4793 15.9643ZM13.079 14.8287C13.3801 14.829 13.6688 14.9488 13.8817 15.1617C14.0946 15.3746 14.2143 15.6633 14.2146 15.9645C14.2143 16.2656 14.0946 16.5542 13.8817 16.7672C13.6688 16.9801 13.3801 17.0998 13.079 17.1001C12.7779 17.0997 12.4893 16.98 12.2764 16.7671C12.0635 16.5542 11.9438 16.2655 11.9436 15.9645C11.9439 15.6634 12.0636 15.3747 12.2765 15.1618C12.4893 14.9489 12.7779 14.8291 13.079 14.8287ZM12.1095 15.9643C12.1095 16.057 12.1268 16.145 12.1509 16.2301L12.555 16.33L12.5244 16.7579C12.6799 16.8665 12.864 16.9267 13.0536 16.9311L13.2725 16.5795L13.6591 16.7365C13.8092 16.6237 13.9232 16.4695 13.9871 16.293L13.7101 15.9645L13.9871 15.6358C13.9219 15.4548 13.8041 15.2974 13.6489 15.1838L13.241 15.3492L13.0241 15.0006C12.8446 15.0098 12.6712 15.069 12.5235 15.1714L12.555 15.6104L12.1468 15.7114C12.1234 15.7937 12.1109 15.8787 12.1095 15.9643ZM3.39769 16.287C3.53899 16.1727 3.81151 15.8485 3.95803 15.6743C4.01005 15.6122 4.04731 15.5683 4.05955 15.556C4.10617 15.5096 4.47427 15.0798 4.55815 14.898C4.60945 14.7871 4.75849 14.5259 4.90267 14.2732C5.02237 14.0635 5.13541 13.8653 5.18275 13.7706C5.29219 13.5517 5.62033 13.0463 5.93551 12.8803C6.19615 12.743 6.64003 12.192 6.73885 12.0435C6.82957 11.9076 7.20343 11.2773 7.27507 11.0483C7.31719 10.9128 7.45741 10.6959 7.60591 10.4664C7.73731 10.2628 7.87303 10.0525 7.91443 9.93572C7.94773 9.8414 8.01991 9.67976 8.10361 9.49274C8.21989 9.23264 8.41483 8.79704 8.41159 8.71298C8.39827 8.58248 8.53309 8.41724 8.71075 8.21492C8.75233 8.16722 8.80435 8.10818 8.81245 8.0927C8.83747 8.0306 8.85457 7.68806 8.86717 7.4375C8.87905 7.19774 8.95375 6.7562 8.98831 6.56252C8.81677 6.54218 8.45857 6.49664 8.26327 6.45002C8.23289 6.44183 8.20166 6.43711 8.17021 6.43598L8.15113 6.43886C8.13378 6.44804 8.11472 6.45355 8.09515 6.45506C8.04511 6.45506 8.02261 6.4295 7.96213 6.36146C7.77331 6.1487 7.96411 5.60366 8.20567 5.16464C8.46397 4.69484 8.96383 3.8411 9.19981 3.62204C9.43183 3.40694 9.98083 3.2066 10.2386 3.13082C10.3723 3.0914 10.496 3.08942 10.595 3.08762C10.66 3.08636 10.716 3.08546 10.7613 3.07556C10.7829 3.07127 10.8035 3.06296 10.822 3.05108C10.9375 2.97404 11.0783 2.77892 11.0427 2.61224C11.0266 2.53772 11.0018 2.46698 10.978 2.39858C10.9345 2.27402 10.8933 2.1563 10.9042 2.02364L10.906 2.00168C10.9563 1.3508 11.2376 0.988102 11.7421 0.923842C11.8562 0.90848 11.9711 0.900483 12.0861 0.899902C12.607 0.899902 12.836 1.09142 12.9769 1.25846C13.1791 1.4975 13.2084 2.14532 13.0835 2.47292C12.9872 2.72618 12.9926 2.84084 12.9967 2.92436C12.9976 2.94182 12.9984 2.95784 12.9984 2.97314C12.9984 3.10022 12.9192 3.24134 12.8095 3.25862C12.7957 3.28868 12.7762 3.36266 12.7573 3.43466L12.737 3.51314C12.7176 3.58586 12.7046 3.6377 12.6958 3.67406C12.8175 3.69854 13.0347 3.76334 13.279 3.93344C13.5306 4.10858 13.6343 4.43438 13.7257 4.72202C13.7707 4.86404 13.8134 4.99796 13.8667 5.08508C13.8976 5.13566 13.932 5.19002 13.9686 5.24726C14.1309 5.50214 14.3332 5.81948 14.4234 6.14132C14.4751 6.32564 14.5581 6.55982 14.6311 6.76628C14.7111 6.99272 14.7804 7.1882 14.8048 7.30196C14.845 7.48934 14.937 7.98344 14.9553 8.18918C14.956 8.19512 14.9575 8.20088 14.9569 8.20718C14.9582 8.22284 14.9589 8.23706 14.9589 8.24822C14.9589 8.27936 14.9665 8.32256 14.9744 8.37206C15.0025 8.54504 15.0448 8.80658 14.884 8.95292C14.6864 9.13238 14.3977 9.34532 14.2128 9.3086C14.0019 9.26648 13.8539 8.97308 13.8373 8.72558C13.8264 8.56124 13.9023 8.49572 13.9527 8.45216C13.9893 8.42048 14.0044 8.40752 14.0044 8.3546L14.0046 8.31176C14.0055 8.10764 14.0073 7.766 13.8501 7.5041C13.6694 7.20314 13.5313 6.91316 13.385 6.60608L13.3747 6.58448C13.2678 6.36056 13.0983 6.0641 13.0102 5.91344C12.883 6.0425 12.6373 6.32366 12.5547 6.64442C12.4263 7.14158 12.2861 7.80956 12.3136 8.05616C12.3244 8.15336 12.3394 8.22662 12.3507 8.28368C12.373 8.39474 12.3909 8.4824 12.3183 8.55512C12.2842 8.58795 12.2435 8.61322 12.199 8.62928C12.2262 8.70236 12.2836 8.82134 12.3991 8.95796C12.4598 9.02942 12.5374 9.11546 12.6205 9.20762C12.8347 9.44504 13.0777 9.71396 13.1879 9.90656L13.2552 10.0221C13.4059 10.2784 13.5767 10.569 13.5684 10.7902C13.5603 11.0146 13.4475 11.6047 13.1503 11.9965C13.0009 12.1933 12.9818 12.3321 12.9615 12.4791C12.9463 12.5891 12.9309 12.7027 12.863 12.8346C12.721 13.1102 12.5241 13.3696 12.2263 13.762L12.0296 14.0208C11.7409 14.3992 11.4682 14.7567 11.38 14.971C11.1847 15.445 11.0731 15.5865 10.9734 15.6136L10.9737 15.6455C10.9759 15.7272 10.9789 15.8505 10.8981 15.9623C10.8598 16.0152 10.8254 16.0915 10.7923 16.1655C10.7219 16.3228 10.6488 16.4852 10.5003 16.5003C10.3482 16.5172 10.2633 16.4397 10.1401 16.3315C10.0996 16.2957 10.0528 16.2541 9.99451 16.2076C9.91963 16.1475 9.86401 16.1191 9.81937 16.0959C9.71875 16.044 9.65863 16.0001 9.67231 15.8268C9.68977 15.6028 9.86617 15.3912 10.0273 15.1986L10.0406 15.1825C10.1851 15.0094 10.3491 14.813 10.5525 14.4935C10.7347 14.2075 11.0097 13.7753 11.0097 13.584C11.0097 13.3604 11.1165 12.8848 11.212 12.5977C11.2619 12.448 11.4145 12.2419 11.5618 12.0426C11.5886 12.0063 11.6194 11.9649 11.6496 11.9227C11.6158 11.9339 11.5794 11.9407 11.54 11.9407C11.322 11.9407 11.2468 11.7399 11.1921 11.5928C11.1672 11.5266 11.1417 11.458 11.112 11.4281C11.0014 11.3178 10.5898 11.0506 10.4663 10.9889C10.4316 10.9714 10.4083 10.9531 10.3914 10.9398C10.3878 10.9369 10.3846 10.9344 10.3858 10.9329C10.3601 10.9396 10.2944 10.9774 10.1907 11.0447C9.85249 11.2647 9.61435 11.6257 9.54955 11.7312C9.51157 11.7928 9.48133 11.8547 9.45433 11.9098C9.38611 12.0486 9.32707 12.1686 9.19963 12.1686C9.10891 12.1686 8.76835 12.1382 8.64361 12.1269C8.49637 12.2941 7.86889 13.0013 7.66207 13.1806C7.08499 13.6806 6.89635 13.8783 6.84001 13.9558C6.72265 14.1177 6.07717 14.8438 5.80609 15.0668C5.74183 15.1199 5.67811 15.1701 5.61565 15.2198C5.42917 15.3674 5.25277 15.5071 5.08663 15.6957C4.97305 15.8246 4.90591 15.961 4.84687 16.0815C4.79107 16.195 4.73851 16.3021 4.65715 16.3837C4.59685 16.4442 4.53745 16.545 4.48003 16.6423C4.39957 16.779 4.32361 16.9078 4.22713 16.9613C4.10725 17.0277 3.91015 17.0675 3.69973 17.0675C3.66118 17.0675 3.62264 17.0661 3.58417 17.0635C3.5225 17.0598 3.46067 17.0593 3.39895 17.0621C3.28267 17.0657 3.18115 17.0727 3.07189 17.0047C3.0503 16.9911 3.03237 16.9724 3.01966 16.9503C3.00696 16.9282 2.99986 16.9033 2.99899 16.8778C2.98765 16.685 3.26809 16.3914 3.39769 16.287ZM12.4341 11.2405C12.7582 11.038 13.2275 10.9628 13.3715 10.9435C13.3816 10.8795 13.3882 10.8224 13.3897 10.7824C13.39 10.7778 13.3886 10.7718 13.3886 10.767C13.2543 10.7468 12.9237 10.7187 12.6675 10.8786C12.4162 11.0355 12.0706 11.3536 11.891 11.5249C11.8921 11.5249 11.8928 11.5244 11.8939 11.5244C11.9138 11.5246 11.9332 11.531 11.9494 11.5426C11.9656 11.5543 11.9778 11.5706 11.9844 11.5894C12.1165 11.4708 12.2751 11.3401 12.4341 11.2405ZM12.7741 3.08366C12.7878 3.07556 12.8189 3.02552 12.8189 2.97314C12.8189 2.96072 12.8182 2.9474 12.8175 2.933C12.8131 2.83922 12.8061 2.69738 12.9161 2.4092C12.9618 2.28914 12.9804 2.12192 12.978 1.95488C12.8149 1.90624 12.6495 1.86563 12.4825 1.8332C12.1633 1.77236 12.0876 1.92446 11.981 2.06126C11.8744 2.19806 11.8289 2.3804 11.7682 2.54762C11.7074 2.71484 11.6919 2.59334 11.6313 2.59334C11.5706 2.59334 11.6313 2.44106 11.4792 2.24378C11.3645 2.09492 11.2156 2.25656 11.149 2.3453C11.1742 2.41694 11.2 2.49128 11.2178 2.57444C11.2732 2.83274 11.0778 3.09572 10.9215 3.19994L10.9186 3.20138C10.9438 3.51926 11.0446 4.03262 11.218 4.12388C11.6192 4.3352 11.9236 4.40882 12.0534 4.32548C12.1619 4.25582 12.1765 4.067 12.1704 3.9473C12.12 3.94054 12.0706 3.92773 12.0233 3.90914C11.974 3.88959 11.9243 3.87105 11.8743 3.85352C11.668 3.78062 11.5798 3.74066 11.4579 3.48344C11.4528 3.4726 11.4498 3.46086 11.4492 3.44889C11.4487 3.43691 11.4504 3.42494 11.4545 3.41364C11.4585 3.40235 11.4647 3.39197 11.4728 3.38308C11.4808 3.3742 11.4905 3.36698 11.5014 3.36185C11.5122 3.35672 11.524 3.35378 11.5359 3.35319C11.5479 3.3526 11.5599 3.35437 11.5712 3.35841C11.5825 3.36244 11.5929 3.36866 11.6017 3.37671C11.6106 3.38476 11.6178 3.39448 11.623 3.40532C11.7169 3.60404 11.7589 3.61916 11.9353 3.68144C11.9799 3.69728 12.031 3.71546 12.091 3.7394C12.1587 3.76712 12.2322 3.77757 12.3049 3.76981C12.3777 3.76205 12.4473 3.73632 12.5077 3.69494C12.5174 3.6467 12.5352 3.57218 12.5635 3.46634L12.5838 3.38894C12.6358 3.19058 12.6659 3.07214 12.7741 3.08366ZM14.2618 9.13328C14.3566 9.13328 14.5536 9.01016 14.7634 8.81954C14.8524 8.73872 14.8207 8.54306 14.7975 8.40014L14.7971 8.39708C14.7382 8.43356 14.6714 8.45519 14.6023 8.46008C14.5334 8.46548 14.4582 8.46728 14.3885 8.46728C14.2911 8.46728 14.206 8.46368 14.1633 8.4617C14.1434 8.51093 14.1111 8.55416 14.0695 8.58716C14.0292 8.6219 14.011 8.63774 14.0161 8.7128C14.0301 8.92214 14.1547 9.11348 14.2618 9.13328ZM12.381 6.5987C12.508 6.10586 12.9528 5.71814 12.9715 5.70212C12.9814 5.69351 12.993 5.68717 13.0056 5.68356C13.0182 5.67995 13.0314 5.67916 13.0443 5.68124C13.0572 5.68332 13.0696 5.68822 13.0804 5.69559C13.0912 5.70297 13.1002 5.71263 13.1069 5.7239C13.1181 5.74262 13.3845 6.18722 13.5366 6.50672L13.547 6.52814C13.6914 6.83144 13.8278 7.11764 14.0038 7.41104C14.1783 7.70192 14.1846 8.06624 14.1838 8.28008C14.262 8.28368 14.4432 8.2898 14.5885 8.27828C14.6985 8.26964 14.7539 8.20574 14.7744 8.17586C14.7535 7.98326 14.674 7.54622 14.6295 7.33922C14.6077 7.2368 14.537 7.03718 14.4621 6.82586C14.3881 6.6167 14.3041 6.37964 14.2508 6.18938C14.1678 5.8931 13.9734 5.58818 13.8174 5.34338C13.7822 5.28872 13.7475 5.2337 13.7135 5.17832C13.6491 5.07284 13.6033 4.92866 13.5547 4.7762C13.4718 4.51592 13.378 4.22072 13.1764 4.0805C12.9166 3.8996 12.6942 3.85352 12.6164 3.84218C12.5371 3.89606 12.447 3.932 12.3523 3.94748C12.3579 4.09148 12.3408 4.35752 12.152 4.47902C12.0863 4.52114 12.0058 4.54238 11.9092 4.54238C11.7157 4.54238 11.4586 4.45706 11.133 4.28534C10.8484 4.13576 10.7619 3.4802 10.7404 3.25808C10.6931 3.26314 10.6456 3.26602 10.5981 3.26672C10.5005 3.26834 10.3995 3.27014 10.289 3.30254C10.0161 3.38264 9.51265 3.57614 9.32149 3.75344C9.13051 3.93038 8.69041 4.6538 8.36245 5.25086C8.05987 5.80112 8.02459 6.16202 8.09605 6.24248L8.11387 6.26246C8.15491 6.25292 8.21899 6.25526 8.30485 6.2756C8.50699 6.32384 8.91037 6.37298 9.05221 6.38954C9.05473 6.38954 9.05689 6.38846 9.05959 6.38882C9.31159 6.42104 10.0572 6.36254 10.3171 6.34076L10.2944 6.08192C10.2816 5.93522 10.2937 5.83172 10.316 5.75918C9.46837 5.69888 9.00253 5.62544 8.93053 5.53994C8.89813 5.50142 8.89849 5.4395 8.93701 5.40728C8.97553 5.3747 9.02845 5.37542 9.06085 5.41394C9.10441 5.44094 9.29107 5.4728 9.54235 5.50304C9.63001 5.45228 9.80371 5.32916 9.84133 5.19758C9.90253 4.98428 10.0091 4.63382 10.0091 4.63382L10.1837 4.68692C10.1837 4.68692 10.0777 5.03576 10.0168 5.2478C9.98407 5.36228 9.89839 5.4593 9.81325 5.53256C10.0179 5.5529 10.2422 5.57162 10.4589 5.5862C10.5145 5.56154 10.6542 5.51294 10.8767 5.52662C10.9255 5.5295 10.9753 5.53058 11.023 5.53166C11.2102 5.53616 11.3578 5.53976 11.4244 5.63138C11.4455 5.66036 11.466 5.71004 11.445 5.78042C11.4327 5.82164 11.4527 5.92334 11.4689 6.00488C11.5024 6.17372 11.5402 6.36524 11.4018 6.4421C11.2565 6.52274 11.0241 6.52886 10.9563 6.52886C10.8828 6.52886 10.8157 6.52328 10.7619 6.51248C10.6767 6.49538 10.5815 6.44228 10.5041 6.39098L10.5063 6.41564C10.5083 6.43967 10.5007 6.46352 10.4852 6.48202C10.4698 6.50052 10.4476 6.51218 10.4236 6.51446C10.3885 6.5177 9.69985 6.57998 9.27235 6.57998C9.23455 6.57998 9.20053 6.57908 9.16723 6.578C9.13519 6.75854 9.05743 7.21214 9.04591 7.4465C9.03061 7.75358 9.01855 7.96724 8.99713 8.0855C9.12727 8.12024 9.37873 8.19386 9.56107 8.28764C9.81667 8.41904 10.2161 8.76266 10.8254 8.77922C11.259 8.79128 11.801 8.67122 12.0078 8.62082C12.0041 8.60735 12.0011 8.59371 11.9986 8.57996C11.9951 8.55644 12.0011 8.53248 12.0152 8.51332C12.0293 8.49416 12.0504 8.48136 12.0739 8.47772C12.0742 8.47772 12.1045 8.47304 12.1378 8.45918C12.1608 8.44982 12.1792 8.43866 12.1902 8.42894C12.1939 8.41526 12.1835 8.36342 12.1743 8.3177C12.1573 8.23731 12.1442 8.15616 12.1349 8.07452C12.0976 7.73486 12.3138 6.85898 12.381 6.5987ZM11.268 5.73596C11.2234 5.71886 11.1019 5.71616 11.0187 5.71418C10.9689 5.71292 10.9172 5.71166 10.8657 5.70878C10.717 5.70014 10.6134 5.72462 10.5608 5.74244L10.5115 6.1712C10.5828 6.22664 10.7115 6.31664 10.798 6.33374C10.8394 6.3422 10.8961 6.3467 10.9566 6.3467C11.1035 6.3467 11.2435 6.3215 11.3114 6.28442C11.3325 6.25472 11.3051 6.1154 11.2902 6.04034C11.268 5.92874 11.247 5.82326 11.268 5.73596ZM13.101 10.1119L13.0707 10.0601C12.9208 10.0243 12.6654 9.98036 12.4825 10.0414C12.2089 10.1325 11.9657 10.2999 11.6619 10.5886C11.3578 10.8773 11.4793 11.303 11.4793 11.303L11.7286 11.4274C11.8982 11.2638 12.2843 10.9029 12.5709 10.7239C12.8387 10.5565 13.1596 10.558 13.3436 10.5776C13.2869 10.4293 13.1875 10.259 13.101 10.1119ZM11.3823 12.6534C11.2932 12.9212 11.1894 13.3854 11.1894 13.5827C11.1894 13.8079 10.9694 14.1715 10.7041 14.5885C10.6016 14.7504 10.4911 14.9069 10.3729 15.0576C10.4717 15.0727 10.6222 15.1015 10.7347 15.1485C10.8542 15.1982 10.9015 15.3447 10.9203 15.4405H10.9222C10.9424 15.4311 11.0236 15.3651 11.2146 14.9014C11.3118 14.6652 11.5915 14.2986 11.8874 13.9108L12.084 13.6524C12.3761 13.2673 12.5691 13.013 12.7039 12.7513C12.7577 12.6465 12.7701 12.5571 12.7842 12.4536C12.8056 12.2975 12.8299 12.1209 13.0075 11.8867C13.1737 11.6679 13.2774 11.3732 13.3342 11.1334C13.1578 11.1613 12.7852 11.2359 12.5305 11.3953C12.1808 11.614 11.808 12.0142 11.8042 12.0181L11.8023 12.0162C11.7706 12.0603 11.7385 12.1043 11.7061 12.1479C11.5738 12.3274 11.4234 12.5304 11.3823 12.6534ZM8.42113 12.1067C7.87555 12.0451 7.24843 11.8356 7.10407 11.7854C7.03518 11.9064 6.96316 12.0256 6.88807 12.1429C6.82885 12.2318 6.61195 12.5122 6.38245 12.7434C6.38893 12.8865 6.42835 13.191 6.55795 13.3208C6.69727 13.4599 6.95305 13.4884 7.04035 13.4941C7.17301 13.3707 7.33933 13.2222 7.54525 13.0438C7.71319 12.8982 8.19613 12.3598 8.42113 12.1067ZM6.87133 13.6554C6.73291 13.6293 6.55327 13.5739 6.42907 13.4495C6.29209 13.3127 6.23665 13.0702 6.21415 12.9005C6.19188 12.9194 6.16913 12.9378 6.14593 12.9556C6.14917 13.0859 6.18553 13.4193 6.32233 13.5564C6.45877 13.6929 6.70645 13.7226 6.79861 13.7292C6.82003 13.7065 6.84469 13.6819 6.87133 13.6554ZM4.95235 15.5753C5.12929 15.375 5.31163 15.2304 5.50459 15.0776C5.56633 15.0288 5.62861 14.9793 5.69215 14.9271C5.92831 14.7324 6.48649 14.111 6.65929 13.8955C6.51853 13.8716 6.32485 13.8167 6.19345 13.6853C6.03739 13.5292 5.98717 13.2369 5.97079 13.0704C5.72293 13.2333 5.44447 13.648 5.34313 13.8507C5.29363 13.9499 5.17951 14.1499 5.05855 14.3619C4.91617 14.6112 4.76929 14.869 4.72123 14.9732C4.62223 15.187 4.22731 15.6421 4.18645 15.6826C4.17529 15.6937 4.14217 15.7337 4.09519 15.7895C4.06927 15.8205 4.03885 15.8568 4.00627 15.895C4.06855 15.9288 4.12921 16.0055 4.19851 16.1311C4.25989 16.2422 4.45987 16.2094 4.59379 16.1724C4.62547 16.1227 4.65445 16.0651 4.68595 16.0008C4.75021 15.8703 4.82275 15.7224 4.95235 15.5753Z" fill="black"/>
</svg>
