<svg width="32" height="31" viewBox="0 0 32 31" fill="none" xmlns="http://www.w3.org/2000/svg">
<path d="M13.8389 28.4768C20.7424 28.4768 26.3389 22.8804 26.3389 15.9768C26.3389 9.07325 20.7424 3.47681 13.8389 3.47681C6.93531 3.47681 1.33887 9.07325 1.33887 15.9768C1.33887 22.8804 6.93531 28.4768 13.8389 28.4768Z" fill="#AFCCFF"/>
<path d="M15.0389 28.4769C22.6052 28.4769 28.7389 22.3432 28.7389 14.7769C28.7389 7.21059 22.6052 1.0769 15.0389 1.0769C7.47256 1.0769 1.33887 7.21059 1.33887 14.7769C1.33887 22.3432 7.47256 28.4769 15.0389 28.4769Z" stroke="black" stroke-width="2" stroke-miterlimit="10"/>
<path d="M15.039 20.377C18.1318 20.377 20.639 17.8698 20.639 14.777C20.639 11.6842 18.1318 9.177 15.039 9.177C11.9462 9.177 9.43896 11.6842 9.43896 14.777C9.43896 17.8698 11.9462 20.377 15.039 20.377Z" fill="black"/>
<path d="M24.8389 7.577C26.3301 7.577 27.5389 6.36815 27.5389 4.87698C27.5389 3.38581 26.3301 2.177 24.8389 2.177C23.3477 2.177 22.1389 3.38581 22.1389 4.87698C22.1389 6.36815 23.3477 7.577 24.8389 7.577Z" fill="#3880FF"/>
<path d="M28.8389 28.7769C30.2196 28.7769 31.3389 27.6576 31.3389 26.2769C31.3389 24.8961 30.2196 23.7769 28.8389 23.7769C27.4582 23.7769 26.3389 24.8961 26.3389 26.2769C26.3389 27.6576 27.4582 28.7769 28.8389 28.7769Z" fill="#3880FF"/>
<path d="M23.7388 30.4769C24.4016 30.4769 24.9388 29.9396 24.9388 29.2769C24.9388 28.6141 24.4016 28.0769 23.7388 28.0769C23.0761 28.0769 22.5388 28.6141 22.5388 29.2769C22.5388 29.9396 23.0761 30.4769 23.7388 30.4769Z" fill="#3880FF"/>
</svg>
