<svg width="24" height="24" viewBox="0 0 24 24" fill="none" xmlns="http://www.w3.org/2000/svg">
<g clip-path="url(#clip0_3_34)">
<path d="M12.1 10.3C13.1 11.3 14.3 11.8 15.7 11.8L15.8 13.9C13.9 13.9 12.2 13.2 10.7 11.8L10 11.1L7.7 13.5L9.9 15.6V21.6H7.9V16.4L6.6 15.2V17.4L2.4 21.7L1 20.3L4.6 16.7L3.4 13.2C3.2 12.6 3.5 12.1 4 11.7L7.3 8.4C7.7 7.9 8.2 7.7 8.7 7.7C9.2 7.7 9.5 7.8 9.8 8L12.1 10.3ZM24.9 11.6H22.9V8.2L21.1 7.5L22 11.9L23 17.1L23.9 21.5H21.8L20 13.5L17.9 15.5V21.5H15.9V14L18 12L17.4 9C16.8 9.6 16.1 10.2 15.3 10.6C14.4 10.5 13.5 10.1 12.8 9.4C14.4 9.1 15.5 8.3 16.2 7.1L17.2 5.5C17.8 4.5 18.7 4.2 19.8 4.7L24.9 6.9V11.6ZM12.3 4.1C13.4 4.1 14.3 5 14.3 6.1C14.3 7.2 13.4 8.1 12.3 8.1C11.2 8.1 10.3 7.2 10.3 6.1C10.3 5 11.2 4.1 12.3 4.1ZM17.4 0C18.5 0 19.4 0.9 19.4 2C19.4 3.1 18.5 4 17.4 4C16.3 4 15.4 3.1 15.4 2C15.4 0.9 16.3 0 17.4 0Z" fill="#999999"/>
<path d="M11.2 10.5998C12.2 11.5998 13.4 12.0998 14.8 12.0998L14.9 14.1998C13 14.1998 11.3 13.4998 9.79998 12.0998L9.09998 11.3998L6.79998 13.7998L8.99998 15.8998V21.8998H6.99998V16.6998L5.69998 15.4998V17.6998L1.49998 21.9998L0.0999756 20.5998L3.69998 16.9998L2.49998 13.4998C2.29998 12.8998 2.59998 12.3998 3.09998 11.9998L6.39998 8.6998C6.79998 8.1998 7.29998 7.9998 7.79998 7.9998C8.29998 7.9998 8.59997 8.0998 8.89997 8.2998L11.2 10.5998ZM24 11.8998H22V8.4998L20.2 7.7998L21.1 12.1998L22.1 17.3998L23 21.7998H20.9L19.1 13.7998L17 15.7998V21.7998H15V14.2998L17.1 12.2998L16.5 9.2998C15.9 9.8998 15.2 10.4998 14.4 10.8998C13.5 10.7998 12.6 10.3998 11.9 9.6998C13.5 9.3998 14.6 8.5998 15.3 7.3998L16.3 5.7998C16.9 4.7998 17.8 4.4998 18.9 4.9998L24 7.1998V11.8998ZM11.4 4.3998C12.5 4.3998 13.4 5.2998 13.4 6.3998C13.4 7.4998 12.5 8.3998 11.4 8.3998C10.3 8.3998 9.39997 7.4998 9.39997 6.3998C9.39997 5.2998 10.3 4.3998 11.4 4.3998ZM16.5 0.299805C17.6 0.299805 18.5 1.1998 18.5 2.2998C18.5 3.3998 17.6 4.2998 16.5 4.2998C15.4 4.2998 14.5 3.3998 14.5 2.2998C14.5 1.1998 15.4 0.299805 16.5 0.299805Z" fill="black"/>
</g>
<defs>
<clipPath id="clip0_3_34">
<rect width="24" height="24" fill="white"/>
</clipPath>
</defs>
</svg>
