<svg width="19" height="18" viewBox="0 0 19 18" fill="none" xmlns="http://www.w3.org/2000/svg">
<path d="M14.9736 1.03845V3.11538H1.12744V1.03845C1.12744 0.854842 1.20038 0.678751 1.33021 0.548918C1.46005 0.419085 1.63614 0.346146 1.81975 0.346146H14.2813C14.4649 0.346146 14.641 0.419085 14.7708 0.548918C14.9007 0.678751 14.9736 0.854842 14.9736 1.03845Z" fill="#999999"/>
<path d="M9.78129 4.15385C9.32226 4.15385 8.88203 4.3362 8.55745 4.66078C8.23287 4.98537 8.05052 5.4256 8.05052 5.88462V9.00001C8.05052 9.36723 7.90464 9.71941 7.64497 9.97908C7.38531 10.2387 7.03313 10.3846 6.6659 10.3846H2.85821C2.49099 10.3846 2.13881 10.2387 1.87914 9.97908C1.61947 9.71941 1.4736 9.36723 1.4736 9.00001H1.12744V11.4231H9.08898V5.88462C9.08898 5.70101 9.16192 5.52492 9.29175 5.39509C9.42159 5.26526 9.59768 5.19232 9.78129 5.19232H14.9736V4.15385H9.78129Z" fill="#999999"/>
<path d="M17.0504 5.88461V7.26923H9.08887V5.88461C9.08887 5.701 9.16181 5.52491 9.29164 5.39508C9.42147 5.26525 9.59756 5.19231 9.78117 5.19231H16.3581C16.5417 5.19231 16.7178 5.26525 16.8476 5.39508C16.9775 5.52491 17.0504 5.701 17.0504 5.88461Z" fill="#999999"/>
<path d="M13.5889 8.30769C13.1298 8.30769 12.6896 8.49004 12.365 8.81462C12.0404 9.13921 11.8581 9.57943 11.8581 10.0385V13.8462C11.8589 14.0721 11.803 14.2947 11.6954 14.4935C11.5897 14.6783 11.4371 14.832 11.2529 14.9389C11.0687 15.0458 10.8595 15.1021 10.6466 15.1021C10.4336 15.1021 10.2244 15.0458 10.0402 14.9389C9.85605 14.832 9.70339 14.6783 9.59771 14.4935C9.49016 14.2947 9.43422 14.0721 9.43502 13.8462H9.08887V16.2692H12.8966V10.0385C12.8966 9.85485 12.9695 9.67876 13.0993 9.54893C13.2292 9.41909 13.4053 9.34615 13.5889 9.34615H17.0504V8.30769H13.5889Z" fill="#999999"/>
<path d="M17.7427 16.2692H13.5888C13.3977 16.2692 13.2427 16.2962 13.2427 16.3294V17.5936C13.2427 17.6269 13.3977 17.6538 13.5888 17.6538H17.7427C17.9339 17.6538 18.0888 17.6269 18.0888 17.5936V16.3294C18.0888 16.2962 17.9339 16.2692 17.7427 16.2692Z" fill="#999999"/>
<path d="M14.2813 0H10.4736C10.3818 0 10.2937 0.0364697 10.2288 0.101386C10.1639 0.166303 10.1274 0.254348 10.1274 0.346154C10.1274 0.43796 10.1639 0.526005 10.2288 0.590922C10.2937 0.655838 10.3818 0.692308 10.4736 0.692308H14.2813C14.3731 0.692308 14.4611 0.728777 14.526 0.793694C14.5909 0.85861 14.6274 0.946656 14.6274 1.03846V4.84615H9.78125C9.50583 4.84615 9.2417 4.95556 9.04695 5.15031C8.8522 5.34506 8.74279 5.6092 8.74279 5.88462V8.65385C8.74279 8.74565 8.77926 8.8337 8.84417 8.89861C8.90909 8.96353 8.99714 9 9.08894 9C9.18075 9 9.26879 8.96353 9.33371 8.89861C9.39863 8.8337 9.4351 8.74565 9.4351 8.65385V5.88462C9.4351 5.79281 9.47157 5.70476 9.53648 5.63985C9.6014 5.57493 9.68944 5.53846 9.78125 5.53846H14.9736C15.0654 5.53846 15.1534 5.50199 15.2183 5.43708C15.2832 5.37216 15.3197 5.28411 15.3197 5.19231V1.03846C15.3197 0.763044 15.2103 0.498908 15.0156 0.304158C14.8208 0.109409 14.5567 0 14.2813 0ZM9.08894 0H1.81971C1.54429 0 1.28016 0.109409 1.08541 0.304158C0.890659 0.498908 0.78125 0.763044 0.78125 1.03846V4.15385C0.78125 4.24565 0.81772 4.3337 0.882636 4.39861C0.947553 4.46353 1.0356 4.5 1.1274 4.5C1.21921 4.5 1.30726 4.46353 1.37217 4.39861C1.43709 4.3337 1.47356 4.24565 1.47356 4.15385V1.03846C1.47356 0.946656 1.51003 0.85861 1.57494 0.793694C1.63986 0.728777 1.72791 0.692308 1.81971 0.692308H9.08894C9.18075 0.692308 9.26879 0.655838 9.33371 0.590922C9.39863 0.526005 9.4351 0.43796 9.4351 0.346154C9.4351 0.254348 9.39863 0.166303 9.33371 0.101386C9.26879 0.0364697 9.18075 0 9.08894 0ZM1.1274 5.19231C1.05894 5.19231 0.992016 5.21261 0.935091 5.25064C0.878167 5.28868 0.833799 5.34274 0.8076 5.40599C0.7814 5.46925 0.774545 5.53885 0.787901 5.60599C0.801258 5.67314 0.834226 5.73482 0.882636 5.78323C0.931047 5.83164 0.992726 5.86461 1.05987 5.87796C1.12702 5.89132 1.19662 5.88447 1.25987 5.85827C1.32312 5.83207 1.37718 5.7877 1.41522 5.73077C1.45326 5.67385 1.47356 5.60692 1.47356 5.53846C1.47356 5.44666 1.43709 5.35861 1.37217 5.29369C1.30726 5.22878 1.21921 5.19231 1.1274 5.19231ZM9.08894 9.69231C8.99714 9.69231 8.90909 9.72878 8.84417 9.79369C8.77926 9.85861 8.74279 9.94666 8.74279 10.0385V11.0769H1.81971C1.72791 11.0769 1.63986 11.0405 1.57494 10.9755C1.51003 10.9106 1.47356 10.8226 1.47356 10.7308V6.92308C1.47356 6.83127 1.43709 6.74323 1.37217 6.67831C1.30726 6.61339 1.21921 6.57692 1.1274 6.57692C1.0356 6.57692 0.947553 6.61339 0.882636 6.67831C0.81772 6.74323 0.78125 6.83127 0.78125 6.92308V10.7308C0.78125 11.0062 0.890659 11.2703 1.08541 11.4651C1.28016 11.6598 1.54429 11.7692 1.81971 11.7692H9.08894C9.18075 11.7692 9.26879 11.7328 9.33371 11.6678C9.39863 11.6029 9.4351 11.5149 9.4351 11.4231V10.0385C9.4351 9.94666 9.39863 9.85861 9.33371 9.79369C9.26879 9.72878 9.18075 9.69231 9.08894 9.69231Z" fill="black"/>
<path d="M16.3581 4.84615H9.78114C9.50572 4.84615 9.24158 4.95555 9.04683 5.1503C8.85208 5.34505 8.74268 5.60919 8.74268 5.88461V8.65384C8.74268 8.74564 8.77915 8.83369 8.84406 8.89861C8.90898 8.96352 8.99702 8.99999 9.08883 8.99999C9.18064 8.99999 9.26868 8.96352 9.3336 8.89861C9.39851 8.83369 9.43498 8.74564 9.43498 8.65384V5.88461C9.43498 5.7928 9.47145 5.70476 9.53637 5.63984C9.60129 5.57492 9.68933 5.53845 9.78114 5.53845H16.3581C16.4499 5.53845 16.5379 5.57492 16.6028 5.63984C16.6677 5.70476 16.7042 5.7928 16.7042 5.88461V8.99999H13.5888C13.3134 8.99999 13.0493 9.1094 12.8545 9.30415C12.6598 9.4989 12.5504 9.76304 12.5504 10.0385V15.9231H9.78114C9.68933 15.9231 9.60129 15.8866 9.53637 15.8217C9.47145 15.7568 9.43498 15.6687 9.43498 15.5769V10.0385C9.43498 9.94665 9.39851 9.8586 9.3336 9.79369C9.26868 9.72877 9.18064 9.6923 9.08883 9.6923C8.99702 9.6923 8.90898 9.72877 8.84406 9.79369C8.77915 9.8586 8.74268 9.94665 8.74268 10.0385V15.5769C8.74268 15.8523 8.85208 16.1165 9.04683 16.3112C9.24158 16.506 9.50572 16.6154 9.78114 16.6154H12.8965C12.9883 16.6154 13.0764 16.5789 13.1413 16.514C13.2062 16.4491 13.2427 16.361 13.2427 16.2692V10.0385C13.2427 9.94665 13.2791 9.8586 13.3441 9.79369C13.409 9.72877 13.497 9.6923 13.5888 9.6923H17.0504C17.1422 9.6923 17.2302 9.65583 17.2951 9.59091C17.3601 9.526 17.3965 9.43795 17.3965 9.34615V5.88461C17.3965 5.60919 17.2871 5.34505 17.0924 5.1503C16.8976 4.95555 16.6335 4.84615 16.3581 4.84615Z" fill="black"/>
<path d="M17.7426 9H13.5888C13.3133 9 13.0492 9.10941 12.8545 9.30416C12.6597 9.49891 12.5503 9.76304 12.5503 10.0385V16.9615C12.5503 17.237 12.6597 17.5011 12.8545 17.6958C13.0492 17.8906 13.3133 18 13.5888 18H14.9734C15.0652 18 15.1532 17.9635 15.2181 17.8986C15.2831 17.8337 15.3195 17.7457 15.3195 17.6538C15.3195 17.562 15.2831 17.474 15.2181 17.4091C15.1532 17.3442 15.0652 17.3077 14.9734 17.3077H13.5888C13.4969 17.3077 13.4089 17.2712 13.344 17.2063C13.2791 17.1414 13.2426 17.0533 13.2426 16.9615V10.0385C13.2426 9.94666 13.2791 9.85861 13.344 9.79369C13.4089 9.72878 13.4969 9.69231 13.5888 9.69231H17.7426C17.8344 9.69231 17.9225 9.72878 17.9874 9.79369C18.0523 9.85861 18.0888 9.94666 18.0888 10.0385V16.9615C18.0888 17.0533 18.0523 17.1414 17.9874 17.2063C17.9225 17.2712 17.8344 17.3077 17.7426 17.3077H16.358C16.2662 17.3077 16.1781 17.3442 16.1132 17.4091C16.0483 17.474 16.0118 17.562 16.0118 17.6538C16.0118 17.7457 16.0483 17.8337 16.1132 17.8986C16.1781 17.9635 16.2662 18 16.358 18H17.7426C18.018 18 18.2822 17.8906 18.4769 17.6958C18.6717 17.5011 18.7811 17.237 18.7811 16.9615V10.0385C18.7811 9.76304 18.6717 9.49891 18.4769 9.30416C18.2822 9.10941 18.018 9 17.7426 9Z" fill="black"/>
<path d="M2.85836 2.07692C3.04954 2.07692 3.20451 1.92194 3.20451 1.73077C3.20451 1.53959 3.04954 1.38461 2.85836 1.38461C2.66719 1.38461 2.51221 1.53959 2.51221 1.73077C2.51221 1.92194 2.66719 2.07692 2.85836 2.07692Z" fill="white"/>
<path d="M4.58883 2.07692C4.78001 2.07692 4.93498 1.92194 4.93498 1.73077C4.93498 1.53959 4.78001 1.38461 4.58883 1.38461C4.39765 1.38461 4.24268 1.53959 4.24268 1.73077C4.24268 1.92194 4.39765 2.07692 4.58883 2.07692Z" fill="white"/>
<path d="M6.31979 2.07692C6.51096 2.07692 6.66594 1.92194 6.66594 1.73077C6.66594 1.53959 6.51096 1.38461 6.31979 1.38461C6.12861 1.38461 5.97363 1.53959 5.97363 1.73077C5.97363 1.92194 6.12861 2.07692 6.31979 2.07692Z" fill="white"/>
<path d="M10.4736 6.57692C10.6648 6.57692 10.8197 6.42194 10.8197 6.23077C10.8197 6.03959 10.6648 5.88461 10.4736 5.88461C10.2824 5.88461 10.1274 6.03959 10.1274 6.23077C10.1274 6.42194 10.2824 6.57692 10.4736 6.57692Z" fill="white"/>
<path d="M11.8584 6.57692C12.0495 6.57692 12.2045 6.42194 12.2045 6.23077C12.2045 6.03959 12.0495 5.88461 11.8584 5.88461C11.6672 5.88461 11.5122 6.03959 11.5122 6.23077C11.5122 6.42194 11.6672 6.57692 11.8584 6.57692Z" fill="white"/>
<path d="M13.2426 6.57692C13.4338 6.57692 13.5888 6.42194 13.5888 6.23077C13.5888 6.03959 13.4338 5.88461 13.2426 5.88461C13.0515 5.88461 12.8965 6.03959 12.8965 6.23077C12.8965 6.42194 13.0515 6.57692 13.2426 6.57692Z" fill="white"/>
<path d="M14.9736 3.46153H1.4736C1.38179 3.46153 1.29374 3.42506 1.22883 3.36015C1.16391 3.29523 1.12744 3.20719 1.12744 3.11538C1.12744 3.02357 1.16391 2.93553 1.22883 2.87061C1.29374 2.8057 1.38179 2.76923 1.4736 2.76923H14.9736C15.0654 2.76923 15.1534 2.8057 15.2184 2.87061C15.2833 2.93553 15.3197 3.02357 15.3197 3.11538C15.3197 3.20719 15.2833 3.29523 15.2184 3.36015C15.1534 3.42506 15.0654 3.46153 14.9736 3.46153ZM17.0505 7.61538H9.08898C8.99717 7.61538 8.90913 7.57891 8.84421 7.51399C8.7793 7.44908 8.74283 7.36103 8.74283 7.26923C8.74283 7.17742 8.7793 7.08937 8.84421 7.02446C8.90913 6.95954 8.99717 6.92307 9.08898 6.92307H17.0505C17.1423 6.92307 17.2304 6.95954 17.2953 7.02446C17.3602 7.08937 17.3967 7.17742 17.3967 7.26923C17.3967 7.36103 17.3602 7.44908 17.2953 7.51399C17.2304 7.57891 17.1423 7.61538 17.0505 7.61538Z" fill="black"/>
</svg>
