<svg width="18" height="18" viewBox="0 0 18 18" fill="none" xmlns="http://www.w3.org/2000/svg">
<g clip-path="url(#clip0_66_12)">
<path d="M3.99016 8.34076H2.40813C2.19016 8.34076 2.0127 8.51823 2.0127 8.7362V9.79088C2.0127 10.0089 2.19016 10.1863 2.40813 10.1863H3.99016C4.20813 10.1863 4.3856 10.0089 4.3856 9.79088V8.7362C4.3856 8.51823 4.20813 8.34076 3.99016 8.34076ZM3.0671 9.92279H2.40813C2.37317 9.92272 2.33966 9.90879 2.31494 9.88407C2.29022 9.85935 2.2763 9.82585 2.27623 9.79088V8.7362C2.2763 8.70124 2.29022 8.66773 2.31494 8.64301C2.33966 8.61829 2.37317 8.60436 2.40813 8.60429H3.06738L3.0671 9.92279ZM4.12179 9.79117C4.12171 9.82613 4.10779 9.85963 4.08307 9.88435C4.05835 9.90908 4.02484 9.923 3.98988 9.92307H3.33063V8.60457H3.98988C4.02484 8.60465 4.05835 8.61857 4.08307 8.64329C4.10779 8.66801 4.12171 8.70152 4.12179 8.73648V9.79117Z" fill="#999999"/>
<path d="M3.99016 11.1094H2.40813C2.19016 11.1094 2.0127 11.2868 2.0127 11.5048V12.5595C2.0127 12.7775 2.19016 12.9549 2.40813 12.9549H3.99016C4.20813 12.9549 4.3856 12.7775 4.3856 12.5595V11.5048C4.3856 11.2868 4.20813 11.1094 3.99016 11.1094ZM3.0671 12.6914H2.40813C2.37317 12.6913 2.33966 12.6774 2.31494 12.6527C2.29022 12.628 2.2763 12.5945 2.27623 12.5595V11.5048C2.2763 11.4699 2.29022 11.4363 2.31494 11.4116C2.33966 11.3869 2.37317 11.373 2.40813 11.3729H3.06738L3.0671 12.6914ZM4.12179 12.5595C4.12171 12.5945 4.10779 12.628 4.08307 12.6527C4.05835 12.6774 4.02484 12.6913 3.98988 12.6914H3.33063V11.3729H3.98988C4.02484 11.373 4.05835 11.3869 4.08307 11.4116C4.10779 11.4363 4.12171 11.4699 4.12179 11.5048V12.5595Z" fill="#999999"/>
<path d="M3.99016 13.7461H2.40813C2.19016 13.7461 2.0127 13.9236 2.0127 14.1415V15.1962C2.0127 15.4142 2.19016 15.5917 2.40813 15.5917H3.99016C4.20813 15.5917 4.3856 15.4142 4.3856 15.1962V14.1415C4.3856 13.9236 4.20813 13.7461 3.99016 13.7461ZM3.0671 15.3281H2.40813C2.37317 15.3281 2.33966 15.3141 2.31494 15.2894C2.29022 15.2647 2.2763 15.2312 2.27623 15.1962V14.1415C2.2763 14.1066 2.29022 14.0731 2.31494 14.0483C2.33966 14.0236 2.37317 14.0097 2.40813 14.0096H3.06738L3.0671 15.3281ZM4.12179 15.1962C4.12171 15.2312 4.10779 15.2647 4.08307 15.2894C4.05835 15.3141 4.02484 15.3281 3.98988 15.3281H3.33063V14.0096H3.98988C4.02484 14.0097 4.05835 14.0236 4.08307 14.0483C4.10779 14.0731 4.12171 14.1066 4.12179 14.1415V15.1962Z" fill="#999999"/>
<path d="M13.6143 8.73647V9.79116C13.6143 10.0091 13.7917 10.1866 14.0097 10.1866H15.5917C15.8097 10.1866 15.9872 10.0091 15.9872 9.79116V8.73647C15.9872 8.5185 15.8097 8.34103 15.5917 8.34103H14.0097C13.9048 8.34111 13.8043 8.38279 13.7302 8.45694C13.656 8.53108 13.6143 8.63162 13.6143 8.73647ZM14.9328 8.60457H15.592C15.627 8.60464 15.6605 8.61856 15.6852 8.64328C15.7099 8.668 15.7238 8.70151 15.7239 8.73647V9.79116C15.7238 9.82612 15.7099 9.85963 15.6852 9.88435C15.6605 9.90907 15.627 9.92299 15.592 9.92307H14.9328V8.60457ZM14.6689 9.92278H14.0097C13.9747 9.92271 13.9412 9.90879 13.9165 9.88407C13.8918 9.85935 13.8779 9.82584 13.8778 9.79088V8.73619C13.8779 8.70123 13.8918 8.66772 13.9165 8.643C13.9412 8.61828 13.9747 8.60436 14.0097 8.60428H14.6689V9.92278Z" fill="#999999"/>
<path d="M15.5917 11.1094H14.0097C13.7917 11.1094 13.6143 11.2868 13.6143 11.5048V12.5595C13.6143 12.7775 13.7917 12.9549 14.0097 12.9549H15.5917C15.8097 12.9549 15.9872 12.7775 15.9872 12.5595V11.5048C15.9872 11.2868 15.8097 11.1094 15.5917 11.1094ZM14.6687 12.6914H14.0094C13.9745 12.6913 13.9409 12.6774 13.9162 12.6527C13.8915 12.628 13.8776 12.5945 13.8775 12.5595V11.5048C13.8776 11.4699 13.8915 11.4363 13.9162 11.4116C13.9409 11.3869 13.9745 11.373 14.0094 11.3729H14.6687V12.6914ZM15.7234 12.5595C15.7233 12.5945 15.7094 12.628 15.6846 12.6527C15.6599 12.6774 15.6264 12.6913 15.5914 12.6914H14.9322V11.3729H15.5914C15.6264 11.373 15.6599 11.3869 15.6846 11.4116C15.7094 11.4363 15.7233 11.4699 15.7234 11.5048V12.5595Z" fill="#999999"/>
<path d="M15.5917 13.7461H14.0097C13.7917 13.7461 13.6143 13.9236 13.6143 14.1415V15.1962C13.6143 15.4142 13.7917 15.5917 14.0097 15.5917H15.5917C15.8097 15.5917 15.9872 15.4142 15.9872 15.1962V14.1415C15.9872 13.9236 15.8097 13.7461 15.5917 13.7461ZM14.6687 15.3281H14.0094C13.9745 15.3281 13.9409 15.3141 13.9162 15.2894C13.8915 15.2647 13.8776 15.2312 13.8775 15.1962V14.1415C13.8776 14.1066 13.8915 14.0731 13.9162 14.0483C13.9409 14.0236 13.9745 14.0097 14.0094 14.0096H14.6687V15.3281ZM15.7234 15.1962C15.7233 15.2312 15.7094 15.2647 15.6846 15.2894C15.6599 15.3141 15.6264 15.3281 15.5914 15.3281H14.9322V14.0096H15.5914C15.6264 14.0097 15.6599 14.0236 15.6846 14.0483C15.7094 14.0731 15.7233 14.1066 15.7234 14.1415V15.1962Z" fill="#999999"/>
<path d="M6.32756 10.2229C6.17934 10.1728 6.11381 10.1441 6.11381 10.0789C6.11381 10.026 6.16838 9.98044 6.28172 9.98044C6.39394 9.98044 6.47606 10.0091 6.52191 10.0288L6.58012 9.84234C6.48646 9.8065 6.38677 9.78903 6.2865 9.79087C6.01453 9.79087 5.85084 9.92447 5.85084 10.0986C5.85084 10.2468 5.97544 10.341 6.16697 10.4001C6.30506 10.4437 6.35991 10.4805 6.35991 10.5441C6.35991 10.6107 6.29663 10.6546 6.17709 10.6546C6.06628 10.6546 5.95884 10.6231 5.88881 10.591L5.83594 10.782C5.90063 10.8138 6.03056 10.8442 6.16219 10.8442C6.47803 10.8442 6.62653 10.6987 6.62653 10.5275C6.62653 10.3835 6.53091 10.2895 6.32756 10.2229Z" fill="#999999"/>
<path d="M7.38999 9.98214C7.48196 9.98214 7.55565 9.99986 7.60824 10.0198L7.66112 9.83673C7.61527 9.81536 7.5129 9.79117 7.3779 9.79117C7.02943 9.79117 6.74902 9.98495 6.74902 10.3337C6.74902 10.6248 6.95405 10.8442 7.3523 10.8442C7.49237 10.8442 7.60009 10.8217 7.6479 10.8003L7.60824 10.62C7.53807 10.6421 7.46495 10.6533 7.3914 10.6535C7.15937 10.6535 7.02268 10.5244 7.02268 10.3199C7.02296 10.0927 7.18355 9.98214 7.38999 9.98214Z" fill="#999999"/>
<path d="M8.50875 10.2004H8.07985V9.80775H7.81885V10.829H8.07985V10.4015H8.50875V10.829H8.76835V9.80775H8.50875V10.2004Z" fill="#999999"/>
<path d="M9.50284 9.79117C9.16309 9.79117 8.94287 10.0198 8.94287 10.3258C8.94287 10.6169 9.14256 10.8459 9.484 10.8459C9.82065 10.8459 10.0493 10.6425 10.0493 10.3081C10.049 10.0257 9.85637 9.79117 9.50284 9.79117ZM9.49806 10.6625C9.32368 10.6625 9.21793 10.5213 9.21793 10.3213C9.21793 10.1228 9.32031 9.97426 9.49609 9.97426C9.67553 9.97426 9.77453 10.132 9.77453 10.3154C9.77453 10.514 9.67356 10.6625 9.49806 10.6625Z" fill="#999999"/>
<path d="M10.7282 9.79117C10.3882 9.79117 10.168 10.0198 10.168 10.3258C10.168 10.6169 10.3677 10.8459 10.7091 10.8459C11.046 10.8459 11.2747 10.6425 11.2747 10.3081C11.2744 10.0257 11.0812 9.79117 10.7282 9.79117ZM10.7229 10.6625C10.5485 10.6625 10.4428 10.5213 10.4428 10.3213C10.4428 10.1228 10.5451 9.97426 10.7209 9.97426C10.9006 9.97426 10.9993 10.132 10.9993 10.3154C10.9993 10.514 10.8987 10.6625 10.7229 10.6625Z" fill="#999999"/>
<path d="M11.7061 9.80775H11.4448V10.829H12.164V10.6349H11.7061V9.80775Z" fill="#999999"/>
<path d="M10.846 7.41796C10.846 7.17556 10.7982 6.93553 10.7055 6.71158C10.6127 6.48763 10.4768 6.28415 10.3053 6.11275C10.1339 5.94135 9.93046 5.80538 9.70651 5.71262C9.48257 5.61986 9.24254 5.57211 9.00014 5.57211C8.75774 5.57211 8.51771 5.61986 8.29377 5.71262C8.06982 5.80538 7.86633 5.94135 7.69493 6.11275C7.52353 6.28415 7.38757 6.48763 7.2948 6.71158C7.20204 6.93553 7.1543 7.17556 7.1543 7.41796C7.1543 7.66036 7.20204 7.90038 7.2948 8.12433C7.38757 8.34828 7.52353 8.55176 7.69493 8.72317C7.86633 8.89457 8.06982 9.03053 8.29377 9.12329C8.51771 9.21606 8.75774 9.2638 9.00014 9.2638C9.24254 9.2638 9.48257 9.21606 9.70651 9.12329C9.93046 9.03053 10.1339 8.89457 10.3053 8.72317C10.4768 8.55176 10.6127 8.34828 10.7055 8.12433C10.7982 7.90038 10.846 7.66036 10.846 7.41796ZM7.68192 7.41796C7.68196 7.24477 7.71611 7.07329 7.78242 6.9133C7.84872 6.75331 7.9459 6.60795 8.06838 6.48552C8.19087 6.36309 8.33627 6.26598 8.49629 6.19974C8.6563 6.13349 8.8278 6.09942 9.00098 6.09946C9.17417 6.09949 9.34565 6.13364 9.50564 6.19995C9.66563 6.26626 9.81099 6.36343 9.93342 6.48592C10.0559 6.6084 10.153 6.75381 10.2192 6.91382C10.2854 7.07384 10.3195 7.24533 10.3195 7.41852C10.3194 7.76828 10.1804 8.10369 9.93302 8.35096C9.68565 8.59822 9.35018 8.73709 9.00042 8.73702C8.65066 8.73694 8.31525 8.59793 8.06798 8.35056C7.82072 8.10319 7.68185 7.76772 7.68192 7.41796Z" fill="#999999"/>
<path d="M9.26375 7.68178V6.62709C9.26375 6.48197 9.14506 6.36328 8.99993 6.36328C8.85481 6.36328 8.73612 6.48197 8.73612 6.62709V7.41825H8.47231C8.32718 7.41825 8.2085 7.53694 8.2085 7.68206C8.2085 7.82719 8.32718 7.94588 8.47231 7.94588H8.99993C9.06984 7.94551 9.13677 7.91755 9.18617 7.8681C9.23557 7.81864 9.26345 7.75168 9.26375 7.68178Z" fill="#999999"/>
<path d="M17.174 16.3828H16.9102V7.94531H17.0885C17.3852 7.94531 17.5188 7.73297 17.3863 7.47366L16.5209 5.78025C16.3882 5.52094 16.0369 5.30859 15.7404 5.30859H11.2801L9.26353 3.67622V3.03216C10.3182 3.87366 11.3729 1.21922 12.4276 2.061C11.3729 0.572062 10.3182 2.57878 9.26353 1.08984V0.826312C9.26381 0.681187 9.14512 0.5625 9 0.5625C8.85488 0.5625 8.73619 0.681187 8.73619 0.826312V3.6765L6.71962 5.30888H2.25984C1.96312 5.30888 1.61184 5.52122 1.47938 5.78053L0.613969 7.47394C0.481219 7.73325 0.615094 7.94559 0.911813 7.94559H1.09012V16.3831H0.826312C0.756439 16.3832 0.689466 16.411 0.640032 16.4604C0.590598 16.5098 0.562723 16.5768 0.5625 16.6466V17.174C0.562723 17.2438 0.590598 17.3108 0.640032 17.3602C0.689466 17.4095 0.756439 17.4374 0.826312 17.4375H17.174C17.2438 17.4373 17.3107 17.4094 17.3601 17.3601C17.4094 17.3107 17.4373 17.2438 17.4375 17.174V16.6466C17.4374 16.5768 17.4095 16.5098 17.3602 16.4603C17.3108 16.4109 17.2438 16.383 17.174 16.3828ZM4.78125 16.3828H1.61719V7.94531H4.13072C4.13578 7.99116 4.14478 8.03475 4.15884 8.07441C4.22775 8.26706 4.428 8.47266 4.78153 8.47266L4.78125 16.3828ZM11.8125 17.1124H6.1875V16.6905H11.8125V17.1124ZM7.41797 16.3828V13.2188H8.86809V16.3828H7.41797ZM9.13191 16.3828V13.2188H10.582V16.3828H9.13191ZM12.6914 16.3828H11.1094V13.2188H11.6367V12.6897C11.6367 12.6897 9.82463 11.5948 9.24975 11.1856C9.17602 11.1358 9.0891 11.1092 9.00014 11.1092C8.91118 11.1092 8.82426 11.1358 8.75053 11.1856C8.17566 11.5948 6.36356 12.6897 6.36356 12.6897V13.2188H6.89062V16.3828H5.30859V7.94531H4.78125C4.63613 7.94531 4.60941 7.86966 4.72106 7.77769L8.79637 4.42125C8.85234 4.37541 8.92631 4.35234 9 4.35234C9.07369 4.35234 9.14737 4.37541 9.20362 4.42125L13.2789 7.77769C13.3906 7.86966 13.3639 7.94531 13.2188 7.94531H12.6914V16.3828ZM16.3828 16.3828H13.2188V8.47266C13.5723 8.47266 13.7725 8.26706 13.8414 8.07441C13.8555 8.03475 13.8645 7.99116 13.8696 7.94531H16.3831L16.3828 16.3828Z" fill="black"/>
<path d="M8.22559 14.6689H8.60471V14.8604H8.22559V14.6689Z" fill="black"/>
<path d="M9.39551 14.6689H9.77463V14.8604H9.39551V14.6689Z" fill="black"/>
</g>
<defs>
<clipPath id="clip0_66_12">
<rect width="18" height="18" fill="white"/>
</clipPath>
</defs>
</svg>
