<svg width="20" height="20" viewBox="0 0 20 20" fill="none" xmlns="http://www.w3.org/2000/svg">
<path d="M11.7478 19H3.67778C3.304 19 3 18.696 3 18.3222V2.67778C3 2.304 3.304 2 3.67778 2H11.7478C12.1216 2 12.4256 2.304 12.4256 2.67778V6.33267C12.4256 6.46156 12.3211 6.566 12.1922 6.566C12.0633 6.566 11.9589 6.46156 11.9589 6.33267V2.67778C11.9589 2.56133 11.8642 2.46667 11.7478 2.46667H3.67778C3.56133 2.46667 3.46667 2.56133 3.46667 2.67778V18.3222C3.46667 18.4387 3.56133 18.5333 3.67778 18.5333H11.7478C11.8642 18.5333 11.9589 18.4387 11.9589 18.3222V14.6673C11.9589 14.5384 12.0633 14.434 12.1922 14.434C12.3211 14.434 12.4256 14.5384 12.4256 14.6673V18.3222C12.4256 18.696 12.1216 19 11.7478 19Z" fill="white"/>
<path d="M12.1922 4.34069H3.23333C3.10444 4.34069 3 4.23625 3 4.10736C3 3.97847 3.10444 3.87402 3.23333 3.87402H12.1922C12.3211 3.87402 12.4256 3.97847 12.4256 4.10736C12.4256 4.23625 12.3211 4.34069 12.1922 4.34069ZM12.1922 16.5891H3.23333C3.10444 16.5891 3 16.4847 3 16.3558C3 16.2269 3.10444 16.1225 3.23333 16.1225H12.1922C12.3211 16.1225 12.4256 16.2269 12.4256 16.3558C12.4256 16.4847 12.3211 16.5891 12.1922 16.5891Z" fill="white"/>
<path d="M8.72059 17.7997H6.70892C6.58003 17.7997 6.47559 17.6952 6.47559 17.5663C6.47559 17.4375 6.58003 17.333 6.70892 17.333H8.72059C8.84947 17.333 8.95392 17.4375 8.95392 17.5663C8.95392 17.6952 8.84947 17.7997 8.72059 17.7997Z" fill="white"/>
<path d="M12.1913 14.9017C12.1472 14.9017 12.1033 14.8893 12.0651 14.8646C11.9983 14.8217 11.958 14.7477 11.958 14.6684V10.0021C11.958 9.91081 12.0113 9.82781 12.0945 9.78981L16.115 7.95558C16.1872 7.9227 16.2712 7.9287 16.338 7.97159C16.4048 8.01447 16.4451 8.08847 16.4451 8.16781V12.834C16.4451 12.9254 16.3918 13.0084 16.3087 13.0464L12.2881 14.8806C12.2572 14.8947 12.2242 14.9017 12.1913 14.9017ZM12.4246 10.1521V14.3054L15.9785 12.684V8.53081L12.4246 10.1521Z" fill="#36E079"/>
<path d="M12.1923 14.9016C12.1594 14.9016 12.1263 14.8946 12.0955 14.8806L8.07492 13.0464C7.99181 13.0085 7.93848 12.9255 7.93848 12.8341V8.16785C7.93848 8.08841 7.97881 8.01452 8.04559 7.97163C8.11237 7.92874 8.19637 7.92263 8.26859 7.95563L12.2891 9.78985C12.3723 9.82774 12.4256 9.91074 12.4256 10.0022V14.6684C12.4256 14.7479 12.3853 14.8217 12.3185 14.8646C12.2803 14.8891 12.2364 14.9016 12.1923 14.9016ZM8.40514 12.6841L11.959 14.3054V10.1521L8.40514 8.53074V12.6841Z" fill="#36E079"/>
<path d="M16.2127 8.40107C16.1802 8.40107 16.1473 8.39429 16.116 8.37996L12.1923 6.58996L8.26867 8.37996C8.15145 8.4334 8.013 8.38174 7.95956 8.26451C7.90611 8.14729 7.95778 8.00885 8.075 7.9554L12.0956 6.12118C12.1571 6.09307 12.2278 6.09307 12.2892 6.12118L16.3098 7.9554C16.427 8.00885 16.4787 8.14729 16.4252 8.26451C16.386 8.35029 16.3012 8.40107 16.2127 8.40107Z" fill="#36E079"/>
<path d="M9.56653 9.03783C9.47798 9.03783 9.3932 8.98716 9.35409 8.90128C9.30065 8.78405 9.35231 8.64561 9.46953 8.59216L13.4909 6.75839C13.6081 6.70494 13.7465 6.75661 13.8 6.87383C13.8534 6.99105 13.8018 7.1295 13.6845 7.18294L9.6632 9.01672C9.63176 9.03105 9.59887 9.03783 9.56653 9.03783ZM10.7363 9.5715C10.6478 9.5715 10.563 9.52083 10.5239 9.43494C10.4704 9.31772 10.5221 9.17928 10.6393 9.12583L14.6606 7.29205C14.7779 7.23861 14.9163 7.29028 14.9698 7.4075C15.0232 7.52472 14.9715 7.66317 14.8543 7.71661L10.833 9.55039C10.8016 9.56472 10.7688 9.5715 10.7363 9.5715Z" fill="#36E079"/>
<path d="M10.736 10.6454C10.7031 10.6454 10.67 10.6384 10.6392 10.6244L9.46945 10.0907C9.38634 10.0528 9.33301 9.9698 9.33301 9.87836V8.80413C9.33301 8.67525 9.43745 8.5708 9.56634 8.5708C9.69523 8.5708 9.79967 8.67525 9.79967 8.80413V9.72825L10.5028 10.049V9.3378C10.5028 9.20891 10.6072 9.10447 10.7361 9.10447C10.865 9.10447 10.9695 9.20891 10.9695 9.3378V10.412C10.9695 10.4915 10.9291 10.5654 10.8623 10.6082C10.8239 10.6328 10.7801 10.6454 10.736 10.6454Z" fill="#36E079"/>
</svg>
