<?xml version="1.0" encoding="UTF-8"?>
<svg width="11px" height="11px" viewBox="0 0 11 11" version="1.1" xmlns="http://www.w3.org/2000/svg" xmlns:xlink="http://www.w3.org/1999/xlink">
    <!-- Generator: Sketch 56.3 (81716) - https://sketch.com -->
    <title>a</title>
    <desc>Created with Sketch.</desc>
    <g id="Approved" stroke="none" stroke-width="1" fill="none" fill-rule="evenodd">
        <g id="Landing" transform="translate(-252.000000, -1940.000000)" fill="#FFFFFF" fill-rule="nonzero">
            <g id="Group-16" transform="translate(86.000000, 719.000000)">
                <g id="Coca-Cola-Copy-3" transform="translate(0.000000, 906.000000)">
                    <g id="Group-22" transform="translate(60.000000, 74.000000)">
                        <g id="Group-10" transform="translate(0.000000, 238.000000)">
                            <path d="M110.476552,4.07033379 L110.992176,3.55471002 C111.10155,3.44533516 111.234362,3.39064791 111.390612,3.39064791 C111.546862,3.39064791 111.679674,3.44533516 111.789049,3.55471002 L116.335913,8.10157418 C116.445288,8.21094904 116.499975,8.34376098 116.499975,8.50001073 C116.499975,8.65626048 116.445288,8.78907242 116.335913,8.89844728 L111.789049,13.4453114 C111.679674,13.5546863 111.546862,13.6093735 111.390612,13.6093735 C111.234362,13.6093735 111.10155,13.5546863 110.992176,13.4453114 L110.476552,12.9296877 C110.351552,12.8203128 110.292959,12.6875009 110.300771,12.5312511 C110.308583,12.3750014 110.367177,12.2421894 110.476552,12.1328146 L113.289045,9.43750849 L106.562499,9.43750849 C106.406249,9.43750849 106.273437,9.38282124 106.164062,9.27344638 C106.054687,9.16407153 106,9.03125958 106,8.87500983 L106,8.12501162 C106,7.96876188 106.054687,7.83594993 106.164062,7.72657507 C106.273437,7.61720021 106.406249,7.56251296 106.562499,7.56251296 L113.289045,7.56251296 L110.476552,4.86720689 C110.367177,4.75783203 110.308583,4.62502009 110.300771,4.46877034 C110.292959,4.31252059 110.351552,4.17970865 110.476552,4.07033379 Z" id="a"></path>
                        </g>
                    </g>
                </g>
            </g>
        </g>
    </g>
</svg>