<?xml version="1.0" encoding="UTF-8"?>
<svg width="11px" height="11px" viewBox="0 0 11 11" version="1.1" xmlns="http://www.w3.org/2000/svg" xmlns:xlink="http://www.w3.org/1999/xlink">
    <!-- Generator: Sketch 57 (83077) - https://sketch.com -->
    <title>arrow-down</title>
    <desc>Created with Sketch.</desc>
    <g id="Approved" stroke="none" stroke-width="1" fill="none" fill-rule="evenodd">
        <g id="Case-Study" transform="translate(-365.000000, -427.000000)" fill="#000000" fill-rule="nonzero">
            <g id="Group-8" transform="translate(260.000000, 225.000000)">
                <g id="Group-2" transform="translate(0.000000, 190.000000)">
                    <path d="M109.335927,13.0703338 L109.851551,12.55471 C109.960926,12.4453352 110.093738,12.3906479 110.249987,12.3906479 C110.406237,12.3906479 110.539049,12.4453352 110.648424,12.55471 L115.195288,17.1015742 C115.304663,17.210949 115.35935,17.343761 115.35935,17.5000107 C115.35935,17.6562605 115.304663,17.7890724 115.195288,17.8984473 L110.648424,22.4453114 C110.539049,22.5546863 110.406237,22.6093735 110.249987,22.6093735 C110.093738,22.6093735 109.960926,22.5546863 109.851551,22.4453114 L109.335927,21.9296877 C109.210928,21.8203128 109.152334,21.6875009 109.160146,21.5312511 C109.167959,21.3750014 109.226552,21.2421894 109.335927,21.1328146 L112.14842,18.4375085 L105.421874,18.4375085 C105.265624,18.4375085 105.132812,18.3828212 105.023437,18.2734464 C104.914063,18.1640715 104.859375,18.0312596 104.859375,17.8750098 L104.859375,17.1250116 C104.859375,16.9687619 104.914063,16.8359499 105.023437,16.7265751 C105.132812,16.6172002 105.265624,16.562513 105.421874,16.562513 L112.14842,16.562513 L109.335927,13.8672069 C109.226552,13.757832 109.167959,13.6250201 109.160146,13.4687703 C109.152334,13.3125206 109.210928,13.1797086 109.335927,13.0703338 Z" id="arrow-down" transform="translate(110.109363, 17.500011) rotate(90.000000) translate(-110.109363, -17.500011) "></path>
                </g>
            </g>
        </g>
    </g>
</svg>