<svg width="21" height="22" xmlns="http://www.w3.org/2000/svg"><path d="M5.51 22a5.474 5.474 0 01-3.9-1.61A5.48 5.48 0 010 16.488c0-1.477.572-2.863 1.61-3.9L13.017 1.175c1.632-1.631 4.168-1.558 5.898.173 1.73 1.731 1.805 4.268.173 5.9L8.372 17.97a2.585 2.585 0 01-3.652 0 2.587 2.587 0 010-3.653l7.26-7.261a.626.626 0 11.886.887l-7.26 7.261a1.331 1.331 0 000 1.88 1.331 1.331 0 001.88 0l10.716-10.72c1.126-1.127 1.052-2.901-.173-4.127-1.226-1.226-3-1.3-4.126-.173L2.496 13.473a4.233 4.233 0 00-1.242 3.015c0 1.143.441 2.213 1.242 3.015a4.23 4.23 0 003.014 1.243 4.23 4.23 0 003.013-1.243L19.93 8.093a.626.626 0 11.886.886L9.41 20.389A5.476 5.476 0 015.51 22z" fill="#3CC065"/></svg>