<svg width="23" height="47" xmlns="http://www.w3.org/2000/svg"><g transform="translate(.592 -4)" stroke-width="1.164" fill="none" fill-rule="evenodd"><path d="M4.89 46.226h12.574a4.191 4.191 0 014.19 4.191h0H.7a4.191 4.191 0 014.19-4.191z" stroke="#FFF"/><path d="M9.217 18.847h3.92a2.93 2.93 0 012.93 2.93h0-9.78a2.93 2.93 0 012.93-2.93zm4.371-4.542l-1.877 4.164a.21.21 0 01-.376.013l-2.163-4.023a.21.21 0 00-.162-.11l-4.54-.498a.21.21 0 01-.129-.353l3.158-3.3a.21.21 0 00.054-.188l-.93-4.473a.21.21 0 01.297-.231l4.115 1.983a.21.21 0 00.195-.007l3.966-2.265a.21.21 0 01.312.21l-.615 4.526a.21.21 0 00.067.184l3.38 3.072a.21.21 0 01-.103.361l-4.495.815a.21.21 0 00-.154.12z" stroke="#36E079"/><path d="M3.318 23.349c0-.47.005-.935.015-1.398H19.37c.01.463.015.929.015 1.398 0 12.538-3.597 22.702-8.034 22.702-4.436 0-8.033-10.164-8.033-22.702z" stroke="#FFF"/><circle stroke="#36E079" cx="11.177" cy="30.16" r="2.794"/></g></svg>