<svg width="20" height="20" viewBox="0 0 20 20" fill="none" xmlns="http://www.w3.org/2000/svg">
<path d="M10.9375 17.5H9.0625C8.97962 17.5 8.90013 17.5329 8.84153 17.5915C8.78292 17.6501 8.75 17.7296 8.75 17.8125C8.75 17.8954 8.78292 17.9749 8.84153 18.0335C8.90013 18.0921 8.97962 18.125 9.0625 18.125H10.9375C11.0204 18.125 11.0999 18.0921 11.1585 18.0335C11.2171 17.9749 11.25 17.8954 11.25 17.8125C11.25 17.7296 11.2171 17.6501 11.1585 17.5915C11.0999 17.5329 11.0204 17.5 10.9375 17.5Z" fill="#36E079"/>
<path d="M4.0625 2.5C3.54562 2.5 3.125 2.92062 3.125 3.4375V6.47C3.125 7.40688 3.72063 8.23937 4.6075 8.54062L6.73437 9.265C7.19957 9.78885 7.78361 10.1935 8.4375 10.445V10.9375C8.4375 11.3444 8.69938 11.6881 9.0625 11.8175V15H8.4375C7.92062 15 7.5 15.4206 7.5 15.9375V16.25H7.1875C6.67062 16.25 6.25 16.6706 6.25 17.1875V19.6875C6.25 19.7704 6.28292 19.8499 6.34153 19.9085C6.40013 19.9671 6.47962 20 6.5625 20H13.4375C13.5204 20 13.5999 19.9671 13.6585 19.9085C13.7171 19.8499 13.75 19.7704 13.75 19.6875V17.1875C13.75 16.6706 13.3294 16.25 12.8125 16.25H12.5V15.9375C12.5 15.4206 12.0794 15 11.5625 15H10.9375V11.8175C11.3006 11.6881 11.5625 11.3444 11.5625 10.9375V10.445C12.2162 10.1931 12.8001 9.78848 13.2656 9.265L15.3925 8.54062C15.825 8.39368 16.2006 8.11493 16.4665 7.74353C16.7324 7.37214 16.8752 6.92677 16.875 6.47V3.4375C16.875 2.92062 16.4544 2.5 15.9375 2.5H14.375V1.8175C14.7381 1.68812 15 1.34438 15 0.9375C15 0.420625 14.5794 0 14.0625 0H5.9375C5.42062 0 5 0.420625 5 0.9375C5 1.34438 5.26188 1.68812 5.625 1.8175V2.5H4.0625ZM4.80875 7.94937C4.49991 7.84419 4.23175 7.64497 4.04188 7.37966C3.852 7.11435 3.74994 6.79626 3.75 6.47V3.4375C3.75 3.35462 3.78292 3.27513 3.84153 3.21653C3.90013 3.15792 3.97962 3.125 4.0625 3.125H5.625V6.36375C5.625 7.09875 5.80938 7.79063 6.13063 8.39938L4.80875 7.94937ZM13.125 17.1875V19.375H6.875V17.1875C6.875 17.1046 6.90792 17.0251 6.96653 16.9665C7.02513 16.9079 7.10462 16.875 7.1875 16.875H12.8125C12.8954 16.875 12.9749 16.9079 13.0335 16.9665C13.0921 17.0251 13.125 17.1046 13.125 17.1875ZM11.875 15.9375V16.25H8.125V15.9375C8.125 15.8546 8.15792 15.7751 8.21653 15.7165C8.27513 15.6579 8.35462 15.625 8.4375 15.625H11.5625C11.6454 15.625 11.7249 15.6579 11.7835 15.7165C11.8421 15.7751 11.875 15.8546 11.875 15.9375ZM9.6875 15V11.875H10.3125V15H9.6875ZM10.9375 10.9375C10.9375 11.0204 10.9046 11.0999 10.846 11.1585C10.7874 11.2171 10.7079 11.25 10.625 11.25H9.375C9.29212 11.25 9.21263 11.2171 9.15403 11.1585C9.09542 11.0999 9.0625 11.0204 9.0625 10.9375V10.6431C9.67726 10.8031 10.3227 10.8031 10.9375 10.6431V10.9375ZM11.195 9.915C11.1756 9.91875 11.1556 9.915 11.1363 9.9225C10.9994 9.97625 10.8587 10.0094 10.7187 10.0425C10.2441 10.1356 9.75589 10.1356 9.28125 10.0425C9.14063 10.0088 9 9.97563 8.86375 9.9225C8.845 9.915 8.825 9.91813 8.805 9.915C7.32188 9.41438 6.25 8.01313 6.25 6.36375V1.875H13.75V6.36375C13.75 8.01313 12.6781 9.41438 11.195 9.915ZM15.9375 3.125C16.0204 3.125 16.0999 3.15792 16.1585 3.21653C16.2171 3.27513 16.25 3.35462 16.25 3.4375V6.47C16.2501 6.79626 16.148 7.11435 15.9581 7.37966C15.7682 7.64497 15.5001 7.84419 15.1912 7.94937L13.8694 8.39938C14.2015 7.77226 14.3751 7.07339 14.375 6.36375V3.125H15.9375ZM5.9375 0.625H14.0625C14.1454 0.625 14.2249 0.657924 14.2835 0.716529C14.3421 0.775134 14.375 0.85462 14.375 0.9375C14.375 1.02038 14.3421 1.09987 14.2835 1.15847C14.2249 1.21708 14.1454 1.25 14.0625 1.25H5.9375C5.85462 1.25 5.77513 1.21708 5.71653 1.15847C5.65792 1.09987 5.625 1.02038 5.625 0.9375C5.625 0.85462 5.65792 0.775134 5.71653 0.716529C5.77513 0.657924 5.85462 0.625 5.9375 0.625Z" fill="white"/>
<path d="M11.3323 5.02674L10.6055 4.92111L10.2798 4.26236C10.1748 4.04861 9.82422 4.04861 9.71985 4.26236L9.39422 4.92111L8.66735 5.02674C8.60955 5.03486 8.55519 5.05908 8.51049 5.09662C8.46579 5.13416 8.43255 5.18351 8.41456 5.23904C8.39657 5.29457 8.39456 5.35404 8.40876 5.41066C8.42296 5.46728 8.45279 5.51876 8.49485 5.55924L9.02047 6.07174L8.8961 6.79611C8.88615 6.85359 8.89249 6.9127 8.9144 6.96676C8.93631 7.02082 8.9729 7.06767 9.02005 7.102C9.0672 7.13634 9.12302 7.1568 9.1812 7.16106C9.23937 7.16532 9.29757 7.15322 9.34922 7.12611L9.99985 6.78424L10.6505 7.12611C10.7022 7.15288 10.7603 7.16478 10.8183 7.16047C10.8763 7.15617 10.9321 7.13584 10.9792 7.10174C11.0264 7.06747 11.0631 7.02069 11.085 6.96668C11.107 6.91267 11.1134 6.85359 11.1036 6.79611L10.9792 6.07174L11.5049 5.55924C11.5469 5.51876 11.5767 5.46728 11.5909 5.41066C11.6051 5.35404 11.6031 5.29457 11.5851 5.23904C11.5671 5.18351 11.5339 5.13416 11.4892 5.09662C11.4445 5.05908 11.3902 5.03486 11.3323 5.02674ZM10.4261 5.73986C10.3898 5.77518 10.3626 5.81875 10.3469 5.86686C10.3311 5.91496 10.3272 5.96617 10.3355 6.01611L10.3805 6.27799L10.1449 6.15424C10.1002 6.13065 10.0504 6.11832 9.99985 6.11832C9.94931 6.11832 9.89954 6.13065 9.85485 6.15424L9.61922 6.27799L9.66423 6.01611C9.67274 5.96617 9.66894 5.9149 9.65315 5.86676C9.63736 5.81861 9.61005 5.77506 9.5736 5.73986L9.3836 5.55424L9.64673 5.51549C9.69682 5.50829 9.7444 5.489 9.78534 5.45926C9.82629 5.42953 9.85938 5.39026 9.88172 5.34486L9.99985 5.10611L10.1173 5.34424C10.1623 5.43611 10.2511 5.50049 10.3523 5.51486L10.6155 5.55361L10.4261 5.73986Z" fill="#36E079"/>
</svg>
