<svg width="51" height="29" xmlns="http://www.w3.org/2000/svg"><g fill="none"><path d="M25.3.044a4.855 4.855 0 00-4.849 4.849v2.83a4.85 4.85 0 109.7 0v-2.83A4.855 4.855 0 0025.3.043zm3.64 7.679a3.64 3.64 0 11-7.279 0v-2.83a3.64 3.64 0 117.28 0v2.83zm11.41-5.281c-2.464.002-4.46 2-4.463 4.463v2.572a4.464 4.464 0 108.927 0V6.905a4.469 4.469 0 00-4.464-4.463zm3.254 7.035a3.254 3.254 0 01-6.508 0V6.905a3.254 3.254 0 016.508 0v2.572z" fill="#36E079"/><path d="M45.495 15.565h-1.626a.55.55 0 01-.55-.55.605.605 0 00-1.174-.204l-.647 1.802a1.211 1.211 0 01-2.284-.015l-.619-1.794a.605.605 0 00-1-.23l-.014.014a.605.605 0 00-.177.427.55.55 0 01-.55.55h-1.65c-.26 0-.52.02-.779.06a5.53 5.53 0 00-3.465-1.218h-1.788a.665.665 0 01-.666-.665.605.605 0 00-1.174-.204l-.71 1.982a1.393 1.393 0 01-2.628-.017l-.68-1.974a.605.605 0 00-1-.23l-.016.016a.605.605 0 00-.177.427.665.665 0 01-.665.665H19.64c-1.26 0-2.482.429-3.465 1.218a5.147 5.147 0 00-.78-.06H13.77a.55.55 0 01-.55-.55.605.605 0 00-1.173-.204l-.647 1.802a1.211 1.211 0 01-2.284-.015l-.619-1.794a.605.605 0 00-1-.23l-.014.014a.605.605 0 00-.177.427.55.55 0 01-.55.55h-1.65A5.113 5.113 0 000 20.67v7.075c0 .334.27.604.605.604h49.392c.334 0 .605-.27.605-.604V20.67a5.112 5.112 0 00-5.107-5.106zm-31.41 4.399v7.177H1.21v-6.47a3.902 3.902 0 013.897-3.897h1.65a1.75 1.75 0 001.026-.33l.189.549a2.42 2.42 0 004.567.029l.207-.577c.282.203.62.318.968.329h1.381a5.525 5.525 0 00-1.01 3.19zm21.223 7.177H15.294v-7.177a4.352 4.352 0 014.347-4.347h1.815c.42 0 .829-.141 1.159-.402l.235.682a2.602 2.602 0 004.91.032l.255-.712a1.865 1.865 0 001.13.4h1.815a4.352 4.352 0 014.347 4.347v7.177zm14.084 0H36.517v-7.177a5.525 5.525 0 00-1.01-3.19h1.347a1.75 1.75 0 001.027-.33l.189.549a2.42 2.42 0 004.567.029l.207-.577c.283.203.62.318.968.329h1.683a3.902 3.902 0 013.897 3.897v6.47z" fill="#FFF"/><path d="M5.788 6.905v2.572a4.464 4.464 0 108.927 0V6.905a4.464 4.464 0 10-8.927 0zm7.718 0v2.572a3.254 3.254 0 01-6.508 0V6.905a3.254 3.254 0 016.508 0z" fill="#36E079"/></g></svg>