<svg width="20" height="20" viewBox="0 0 20 20" fill="none" xmlns="http://www.w3.org/2000/svg">
<path d="M5.89001 9.85101C5.49461 9.85158 5.11557 10.0089 4.83602 10.2885C4.55647 10.5682 4.39922 10.9473 4.39876 11.3427V12.5916C4.39876 13.0189 4.61562 13.3909 4.90102 13.6535C4.91309 13.6647 4.93034 13.6613 4.94284 13.6721C4.9312 13.6777 3.71414 14.2812 2.61823 14.8787C2.29403 15.0408 2 15.359 2 15.7703V16.0807C2 16.1379 2.02271 16.1927 2.06314 16.2332C2.10356 16.2736 2.15839 16.2963 2.21556 16.2963C2.27273 16.2963 2.32756 16.2736 2.36799 16.2332C2.40841 16.1927 2.43112 16.1379 2.43112 16.0807V15.7703C2.43112 15.5828 2.60357 15.3685 2.8118 15.2642C2.81398 15.2628 2.81614 15.2613 2.81827 15.2599C3.58737 14.8441 4.36335 14.4413 5.1459 14.0514L5.35887 13.9462C5.50028 14.0014 5.65462 14.0756 5.89088 14.0829C5.89849 14.0833 5.90611 14.0833 5.91373 14.0829C6.17844 14.0635 6.31553 13.9898 6.45608 13.9398L6.6462 14.0324L6.62034 14.0173C6.68371 14.0605 6.73243 14.0799 6.8359 14.1308C6.93937 14.1821 7.07948 14.2502 7.25365 14.3364C7.30494 14.3618 7.36418 14.3656 7.41835 14.3473C7.47252 14.3289 7.51718 14.2898 7.54251 14.2385C7.56783 14.1873 7.57175 14.128 7.5534 14.0738C7.53504 14.0196 7.49592 13.975 7.44464 13.9497C7.26917 13.863 7.12777 13.7945 7.02645 13.7445C6.92428 13.6945 6.84366 13.6483 6.86263 13.6608C6.8678 13.6565 6.87556 13.6565 6.8803 13.6531C7.16527 13.3909 7.38213 13.0189 7.38213 12.5916V11.3427C7.38144 10.9473 7.22407 10.5683 6.94447 10.2887C6.66487 10.0091 6.28585 9.85169 5.89045 9.85101H5.89001ZM5.89001 10.2821C6.48151 10.2821 6.95101 10.752 6.95101 11.3427V12.5916C6.95101 12.871 6.80442 13.1374 6.58843 13.3362C6.37373 13.5332 6.0948 13.6483 5.89519 13.6501H5.89433C5.8857 13.6501 5.8801 13.644 5.87148 13.6432C5.67316 13.6371 5.40328 13.5293 5.19289 13.3358C4.97733 13.1375 4.82989 12.871 4.82989 12.5916V11.3427C4.82897 11.2031 4.85578 11.0648 4.90875 10.9358C4.96172 10.8067 5.03981 10.6894 5.13847 10.5907C5.23714 10.4921 5.35442 10.4139 5.4835 10.361C5.61259 10.308 5.75091 10.2812 5.89045 10.2821H5.89001ZM13.5916 9.85101C13.1961 9.85146 12.817 10.0087 12.5373 10.2884C12.2577 10.568 12.1004 10.9472 12.0999 11.3427V12.5916C12.0999 13.0189 12.3172 13.3909 12.6022 13.6535C12.6142 13.6647 12.6319 13.6613 12.644 13.6721C12.6353 13.6764 12.4543 13.7664 12.1585 13.916C12.133 13.9287 12.1103 13.9462 12.0916 13.9677C12.0729 13.9891 12.0587 14.014 12.0497 14.041C12.0407 14.0679 12.0371 14.0964 12.0392 14.1248C12.0412 14.1532 12.0489 14.1808 12.0617 14.2062C12.0745 14.2316 12.0921 14.2543 12.1137 14.2728C12.1353 14.2913 12.1603 14.3054 12.1874 14.3142C12.2144 14.323 12.2429 14.3264 12.2713 14.3241C12.2996 14.3219 12.3272 14.314 12.3525 14.3011C12.6535 14.1484 12.8457 14.0527 12.8462 14.0527L13.06 13.9475C13.2014 14.0027 13.3558 14.076 13.5924 14.0838C13.5999 14.0841 13.6074 14.0841 13.6149 14.0838C13.88 14.0644 14.0167 13.9906 14.1572 13.9406L14.3478 14.0333L14.3223 14.0191C14.3913 14.0648 14.4508 14.0893 14.5784 14.1519C14.7056 14.2148 14.8789 14.2998 15.0945 14.4071C15.6782 14.6986 16.2552 15.0033 16.825 15.3211C17.0233 15.4452 17.0893 15.6134 17.0893 15.9027V16.1005C17.0893 16.1577 17.112 16.2125 17.1524 16.2529C17.1928 16.2934 17.2477 16.3161 17.3048 16.3161C17.362 16.3161 17.4168 16.2934 17.4573 16.2529C17.4977 16.2125 17.5204 16.1577 17.5204 16.1005V15.9022C17.5204 15.5267 17.3867 15.1629 17.0531 14.9546C17.0501 14.9525 17.0471 14.9505 17.044 14.9486C16.4656 14.6258 15.8798 14.3163 15.2872 14.0204C15.0699 13.9118 14.8949 13.8259 14.7685 13.7634C14.6435 13.7022 14.5487 13.6501 14.5642 13.6608C14.5689 13.6565 14.5758 13.6565 14.581 13.6531C14.8655 13.3905 15.0828 13.0184 15.0828 12.5912V11.3427C15.0825 10.9471 14.9252 10.5679 14.6456 10.2881C14.3659 10.0084 13.9867 9.85104 13.5911 9.85059L13.5916 9.85101ZM13.5916 10.2821C13.7311 10.2813 13.8693 10.3081 13.9984 10.3611C14.1274 10.4141 14.2447 10.4922 14.3433 10.5909C14.4419 10.6896 14.5199 10.8068 14.5729 10.9359C14.6258 11.0649 14.6526 11.2032 14.6517 11.3427V12.5916C14.6517 12.871 14.5051 13.1374 14.2896 13.3362C14.0749 13.5336 13.7951 13.6488 13.5955 13.6501H13.5946C13.5873 13.6501 13.5817 13.6449 13.5748 13.644C13.376 13.6384 13.1048 13.5298 12.894 13.3358C12.6785 13.1375 12.5314 12.871 12.5314 12.5916V11.3427C12.5305 11.2032 12.5573 11.0649 12.6103 10.9359C12.6632 10.8068 12.7413 10.6896 12.8399 10.5909C12.9385 10.4922 13.0557 10.4141 13.1848 10.3611C13.3138 10.3081 13.4521 10.2813 13.5916 10.2821Z" fill="#36E079"/>
<path d="M9.81708 8.7139C9.3591 8.71413 8.91994 8.89612 8.5961 9.21996C8.27226 9.5438 8.09023 9.98299 8.09 10.441V11.921C8.09 12.4138 8.34049 12.8436 8.67202 13.1488C8.70004 13.1747 8.73539 13.1863 8.76428 13.2105L8.72677 13.2299C8.72648 13.2299 8.7262 13.2299 8.72591 13.2299C8.72591 13.2299 7.26311 13.9542 5.95897 14.6655C5.58562 14.8522 5.24805 15.2195 5.24805 15.686V16.0546C5.24805 16.0829 5.25362 16.1109 5.26446 16.1371C5.27529 16.1632 5.29117 16.187 5.31118 16.207C5.3312 16.227 5.35496 16.2429 5.38112 16.2537C5.40727 16.2646 5.4353 16.2702 5.46361 16.2702C5.49192 16.2702 5.51995 16.2646 5.5461 16.2537C5.57225 16.2429 5.59602 16.227 5.61603 16.207C5.63605 16.187 5.65193 16.1632 5.66276 16.1371C5.67359 16.1109 5.67917 16.0829 5.67917 16.0546V15.686C5.67917 15.4428 5.89387 15.1799 6.15168 15.0509C6.15386 15.0496 6.15602 15.0481 6.15815 15.0466C7.06962 14.5541 7.98934 14.0769 8.9169 13.6153L9.17988 13.486C9.38725 13.5843 9.60281 13.6472 9.81708 13.6472H9.81967C9.82713 13.6476 9.83462 13.6476 9.84208 13.6472C9.91365 13.6421 9.93046 13.6196 9.98953 13.6084C10.1477 13.5873 10.3042 13.5567 10.4569 13.4838C10.4663 13.4795 10.4827 13.4778 10.4922 13.4743L10.7306 13.5908L10.7052 13.5765C10.7785 13.6252 10.8526 13.6571 11.0035 13.7313C11.1544 13.8054 11.3614 13.9059 11.6166 14.0335C12.3087 14.3795 12.993 14.7412 13.6687 15.1182C13.9166 15.2734 14.0007 15.4903 14.0007 15.8416V16.0753C14.0007 16.1325 14.0234 16.1873 14.0638 16.2277C14.1042 16.2681 14.1591 16.2908 14.2162 16.2908C14.2734 16.2908 14.3282 16.2681 14.3687 16.2277C14.4091 16.1873 14.4318 16.1325 14.4318 16.0753V15.8416C14.4318 15.404 14.2792 14.991 13.8968 14.7518C13.8937 14.75 13.8905 14.7482 13.8873 14.7466C13.2028 14.3645 12.5097 13.9981 11.8084 13.6476C11.5511 13.5192 11.3437 13.4174 11.1937 13.3437C11.0441 13.2704 10.9307 13.2079 10.9445 13.2174C10.9366 13.2121 10.9284 13.2074 10.9199 13.2032L10.8966 13.1915C10.9173 13.1743 10.9427 13.1661 10.963 13.148C11.2941 12.8427 11.545 12.4129 11.545 11.9202V10.4396C11.5444 9.98167 11.3622 9.54263 11.0382 9.21891C10.7142 8.89519 10.2751 8.71323 9.81708 8.713V8.7139ZM9.81708 9.14502C9.98759 9.14399 10.1566 9.17679 10.3144 9.24154C10.4721 9.30629 10.6154 9.40172 10.7361 9.52225C10.8567 9.64279 10.9522 9.78604 11.017 9.94374C11.0819 10.1014 11.1148 10.2704 11.1139 10.441V11.921C11.1139 12.2659 10.9328 12.591 10.6707 12.8324C10.4107 13.0721 10.0727 13.2126 9.82268 13.2144H9.82182C9.81234 13.2144 9.80544 13.2083 9.79595 13.2075C9.54763 13.2006 9.21954 13.0674 8.96389 12.8324C8.70177 12.591 8.52113 12.2655 8.52113 11.921V10.4405C8.52015 10.2701 8.55301 10.1011 8.6178 9.94348C8.68259 9.78583 8.77802 9.64265 8.89856 9.52215C9.0191 9.40165 9.16235 9.30622 9.32002 9.24149C9.47769 9.17675 9.64664 9.14399 9.81708 9.14502ZM11.5812 4C11.2965 4.0008 11.0238 4.11431 10.8226 4.31574C10.6214 4.51716 10.5082 4.79009 10.5077 5.07478V7.2045C10.5082 7.4891 10.6214 7.76193 10.8226 7.96322C11.0238 8.16451 11.2966 8.27789 11.5812 8.27846H12.0356L12.0684 9.18465C12.07 9.22802 12.0847 9.2699 12.1105 9.3048C12.1363 9.3397 12.172 9.36601 12.213 9.38026C12.254 9.39452 12.2984 9.39605 12.3402 9.38468C12.3821 9.37332 12.4196 9.3496 12.4478 9.31658L13.3402 8.27846H16.0339C16.3185 8.27789 16.5913 8.16461 16.7926 7.96343C16.9939 7.76226 17.1074 7.48958 17.1082 7.20497V5.07478C17.1075 4.79001 16.9941 4.51709 16.7928 4.31568C16.5915 4.11428 16.3186 4.0008 16.0339 4H11.5812ZM11.5812 4.43112H16.0339C16.3938 4.43112 16.6771 4.71479 16.6771 5.07478V7.2045C16.6771 7.56448 16.3934 7.84734 16.0339 7.84734H13.2415C13.2105 7.84734 13.1798 7.85402 13.1516 7.86697C13.1234 7.87991 13.0983 7.8988 13.0781 7.92233L12.4797 8.61775L12.4594 8.05553C12.4575 7.99964 12.434 7.94671 12.3938 7.90786C12.3535 7.86901 12.2998 7.84731 12.2439 7.84734H11.5812C11.2212 7.84734 10.9389 7.56453 10.9389 7.20497V5.07478C10.9389 4.71479 11.2212 4.43112 11.5812 4.43112Z" fill="white"/>
<path d="M4.76758 6.00977C4.36103 6.00977 4.02734 6.34347 4.02734 6.75002V8.05375C4.02734 8.4603 4.36103 8.79396 4.76758 8.79396H6.37653L6.89819 9.39927C6.92652 9.43169 6.96391 9.45487 7.00555 9.46585C7.04719 9.47682 7.09116 9.47509 7.13179 9.46085C7.17243 9.44661 7.20786 9.42052 7.23354 9.38596C7.25922 9.35139 7.27395 9.30993 7.27585 9.26692L7.29352 8.79353H7.49055C7.8971 8.79353 8.23078 8.45987 8.23078 8.05375V6.75002C8.23078 6.40081 7.96521 6.14775 7.63799 6.07144C7.63574 6.06909 7.63344 6.0668 7.63109 6.06455C7.62571 6.05982 7.6201 6.05536 7.61428 6.05118C7.59687 6.03863 7.57769 6.02876 7.55737 6.02187C7.5503 6.01949 7.5431 6.01745 7.53581 6.01582C7.52098 6.01221 7.50581 6.01017 7.49055 6.00977H4.76758ZM4.76758 6.44089H7.49055C7.66601 6.44089 7.79966 6.57498 7.79966 6.75002V8.05375C7.79966 8.22879 7.66601 8.36283 7.49055 8.36283H7.08529C7.02944 8.3628 6.97576 8.38443 6.93555 8.4232C6.89534 8.46196 6.87174 8.51484 6.86973 8.57066L6.86542 8.70128L6.63865 8.43746C6.61837 8.41388 6.59323 8.39494 6.56495 8.38199C6.53667 8.36904 6.50593 8.36236 6.47482 8.36241H4.76758C4.72681 8.36317 4.68631 8.35571 4.6485 8.34047C4.61068 8.32523 4.57632 8.30255 4.54747 8.27374C4.51862 8.24492 4.49587 8.21059 4.48057 8.1728C4.46528 8.135 4.45776 8.09452 4.45847 8.05375V6.75002C4.45847 6.57498 4.59211 6.44089 4.76758 6.44089Z" fill="#36E079"/>
</svg>
