<svg width="53" height="49" xmlns="http://www.w3.org/2000/svg"><g fill="none" fill-rule="evenodd"><g fill-rule="nonzero" stroke="#36E079"><path d="M27.46 1.433l1.647 3.3a.783.783 0 00.592.424l3.683.53a.775.775 0 01.435 1.325L31.153 9.58a.772.772 0 00-.226.688l.629 3.626c.11.635-.565 1.12-1.141.82l-3.294-1.712a.795.795 0 00-.732 0l-3.294 1.712c-.577.3-1.251-.185-1.141-.82l.629-3.626a.772.772 0 00-.226-.688l-2.665-2.568a.775.775 0 01.436-1.325l3.683-.53a.785.785 0 00.592-.425l1.647-3.299a.79.79 0 011.41 0z" stroke-width="1.358"/><path d="M45.334 10.21l-.453 2.669a.573.573 0 00.168.507l1.963 1.898a.569.569 0 01-.316.975l-2.702.38a.571.571 0 00-.433.31l-1.2 2.425a.58.58 0 01-1.036-.003l-1.218-2.433a.583.583 0 00-.435-.315l-2.705-.4a.573.573 0 01-.323-.977l1.95-1.884a.566.566 0 00.164-.506l-.471-2.67a.572.572 0 01.835-.601l2.422 1.27c.169.087.37.088.537.001l2.413-1.252a.58.58 0 01.84.607zm-36.628 0l.452 2.669a.573.573 0 01-.168.507l-1.962 1.898a.569.569 0 00.316.975l2.702.38c.188.026.35.142.433.31l1.2 2.425a.58.58 0 001.036-.003l1.217-2.433a.583.583 0 01.436-.315l2.704-.4a.573.573 0 00.324-.977l-1.95-1.884a.566.566 0 01-.164-.506l.471-2.67a.572.572 0 00-.835-.601l-2.422 1.27a.581.581 0 01-.537.001L9.545 9.604a.58.58 0 00-.84.607zm42.821 12.97l-.949 1.81a.43.43 0 00.004.404l.982 1.828a.428.428 0 01-.456.626l-2.048-.366a.435.435 0 00-.387.121l-1.435 1.458a.444.444 0 01-.75-.247l-.317-2.037a.446.446 0 00-.243-.329l-1.869-.926c-.327-.163-.331-.623-.007-.78l1.852-.892a.424.424 0 00.237-.325l.28-2.03c.049-.357.49-.495.745-.235l1.462 1.485a.447.447 0 00.39.129l2.041-.329c.358-.058.634.317.468.634zm-42.426 0l-.949 1.81a.43.43 0 00.004.404l.982 1.828a.428.428 0 01-.456.626l-2.048-.366a.435.435 0 00-.387.121l-1.435 1.458c-.251.256-.694.11-.75-.247l-.317-2.037a.446.446 0 00-.243-.329l-1.869-.926c-.327-.163-.331-.623-.007-.78l1.853-.892a.424.424 0 00.236-.325l.28-2.03c.05-.357.49-.495.746-.235l1.461 1.485a.447.447 0 00.39.129l2.041-.329c.358-.058.634.317.468.634z" stroke-width="1.131"/></g><path stroke="#333" stroke-width="1.244" fill="#FFF" d="M20.685 32.568l.06 2.078 2.953 2.236 1.973-2.236-.959-3.59z"/><path d="M17.424 30.49c-.511.503-.511.944 0 1.322.768.567 1.918.567 1.151-.378-.511-.63-.895-.945-1.15-.945z" stroke="#333" stroke-width=".838" fill="#FFF"/><path d="M29.728 15.34c.194.34.194.737 0 1.193h-2.172c-.457-.756-.685-1.511-.685-2.267 0-1.134-.053-2.04.383-1.7.437.338.547 1.133.931 1.7s1.252.567 1.543 1.075z" stroke="#FFF" stroke-width=".85" fill="#1D2942"/><path d="M29.747 17.296c2.909 5.052 4.363 8.633 4.363 10.744 0 3.166-3.452 11.47-3.452 14.18 0 .912-.228 2.55-.685 4.915l-11.534-.001a2.892 2.892 0 00-.247-.774c-.64-1.26-.96-2.14-.96-2.645-.753 1.257-1.336 2.397-1.748 3.421l-3.613-.001c1.986-5.62 3.517-8.9 4.594-9.844 1.151-1.007 2.54-1.866 4.168-2.575l3.065 2.575 2.268-2.907 2.007-.494 2.685-6.795-2.828-9.8h1.917z" stroke="#FFF" stroke-width="1.275" fill="#1D2942"/><path d="M20.181 32.643c1.83.859 4.028.453 4.603-.567.576-1.02.576-2.645-1.534-5.857s-5.946-.189-6.52 2.078c-.576 2.268 1.621 3.488 3.451 4.346z" stroke="#FFF" stroke-width=".85" fill="#1D2942"/><path d="M22.862 27.277c-.237-.35-.414-.408-.533-.175-.177.35-.355.525 0 .7.355.174.595.122.595-.082 0-.136-.02-.284-.062-.443zm-1.885 1.314c-.197-.396-.364-.474-.501-.233-.206.362-.395.535-.067.753.329.218.567.182.587-.038a2.086 2.086 0 00-.019-.482z" fill="#FFF"/><path d="M18.069 31.18c-1.15-1.763-1.15-2.896 0-3.4s2.493-1.449 4.028-2.834c.218-1.75-.403-2.626-1.865-2.626-2.192 0-3.026 1.924-5.136 4.191-1.406 1.512-.415 3.068 2.973 4.67z" stroke="#FFF" stroke-width=".85" fill="#1D2942"/><path d="M22.25 29.998c.232-.178.974-.075.75-.72-.223-.644.672-.289.398.375-.134.326-.62.663-.971.634-.35-.03-.407-.111-.176-.29z" fill="#FFF"/><path stroke="#FFF" stroke-width="1.275" stroke-linecap="round" d="M5.788 47.75l35.207-.614"/></g></svg>