<svg width="38" height="39" xmlns="http://www.w3.org/2000/svg"><g fill="none"><path fill="#FFF" d="M21.71 31.92h1.113v6.106H21.71zm-7.237 0h1.113v6.106h-1.113z"/><path d="M18.648 18.042c-1.69.002-3.06 1.45-3.062 3.238v1.295c0 1.789 1.371 3.239 3.062 3.239 1.69 0 3.062-1.45 3.062-3.239V21.28c-.002-1.788-1.372-3.236-3.062-3.238zm1.837 4.533c0 1.073-.822 1.943-1.837 1.943-1.015 0-1.837-.87-1.837-1.943V21.28c0-1.073.822-1.943 1.837-1.943 1.015 0 1.837.87 1.837 1.943v1.295z" fill="#36E079"/><path d="M32.945 28.157h-6.216a4.39 4.39 0 00-1.636.319 4.356 4.356 0 00-3.337-1.552H15.54c-1.29 0-2.512.569-3.337 1.552a4.39 4.39 0 00-1.636-.319H4.351C1.95 28.161.003 30.092 0 32.475v5.551h1.243v-5.55c.002-1.703 1.393-3.083 3.108-3.085h2.487v8.635H8.08v-8.635h2.486c.33.002.657.056.97.16a4.26 4.26 0 00-.348 1.69v6.785h1.243v-6.784c.002-1.703 1.392-3.083 3.108-3.085h2.486v9.87h1.244v-9.87h2.486c1.716.002 3.106 1.382 3.108 3.085v6.784h1.243v-6.784a4.26 4.26 0 00-.348-1.69 3.13 3.13 0 01.97-.16h2.486v8.634h1.243v-8.635h2.487c1.715.002 3.106 1.382 3.108 3.084v5.551h1.243v-5.55c-.003-2.384-1.95-4.315-4.351-4.319z" fill="#FFF"/><path fill="#FFF" d="M3.34 33.03h1.113v4.996H3.34z"/><path d="M7.515 19.152c-1.691 0-3.062 1.45-3.062 3.238v1.296c0 1.788 1.371 3.238 3.062 3.238 1.69 0 3.061-1.45 3.061-3.238V22.39c0-1.788-1.37-3.238-3.061-3.238zm1.837 4.534c0 1.073-.823 1.943-1.837 1.943-1.015 0-1.837-.87-1.837-1.943V22.39c0-1.073.822-1.943 1.837-1.943 1.014 0 1.837.87 1.837 1.943v1.296z" fill="#36E079"/><path fill="#FFF" d="M32.843 33.03h1.113v4.996h-1.113z"/><path d="M29.781 19.152c-1.69 0-3.061 1.45-3.061 3.238v1.296c.002 1.787 1.371 3.236 3.061 3.238 1.69-.002 3.06-1.45 3.062-3.238V22.39c0-1.788-1.371-3.238-3.062-3.238zm1.837 4.534c0 1.073-.822 1.943-1.837 1.943-1.014 0-1.837-.87-1.837-1.943V22.39c0-1.073.823-1.943 1.837-1.943 1.015 0 1.837.87 1.837 1.943v1.296z" fill="#36E079"/><path d="M33.238 16.138a15.207 15.207 0 00-2.077-5.114l2.871-2.929-4.395-4.486-2.87 2.93a14.57 14.57 0 00-5.011-2.12V.278H15.54V4.42a14.664 14.664 0 00-5.01 2.119l-2.87-2.93-4.396 4.486 2.87 2.93a15.207 15.207 0 00-2.076 5.113H0v6.345h3.108v-1.27H1.243v-3.806h3.85l.09-.524a13.93 13.93 0 012.263-5.573l.3-.436-2.724-2.779 2.637-2.692 2.722 2.78.427-.306a13.423 13.423 0 015.46-2.309l.515-.093V1.546h3.73v3.93l.514.092a13.349 13.349 0 015.46 2.309l.427.306 2.723-2.78 2.637 2.692-2.723 2.778.3.436a13.93 13.93 0 012.261 5.572l.091.525h3.85v3.807h-1.865v1.269h3.108v-6.344h-4.058z" fill="#FFF"/><path d="M18.203 13.652c-2.221.316-3.966 2.03-4.287 4.214l1.248.176c.3-2.043 2.228-3.46 4.306-3.165 1.668.237 2.978 1.525 3.22 3.165l1.246-.176c-.4-2.72-2.966-4.606-5.733-4.214z" fill="#36E079"/><path d="M17.34 9.81c-4.085.596-7.295 3.877-7.877 8.052l1.225.18c.632-4.494 4.707-7.613 9.102-6.968 3.533.519 6.309 3.356 6.816 6.968h.002l1.225-.18c-.723-5.185-5.421-8.79-10.494-8.051z" fill="#36E079"/></g></svg>