<svg width="14" height="17" viewBox="0 0 14 17" fill="none" xmlns="http://www.w3.org/2000/svg">
<path d="M10.9584 7.28674H5.64264C5.60092 7.28674 5.56092 7.27017 5.53142 7.24067C5.50192 7.21118 5.48535 7.17117 5.48535 7.12945C5.48535 7.08774 5.50192 7.04773 5.53142 7.01824C5.56092 6.98874 5.60092 6.97217 5.64264 6.97217H10.9584C11.0001 6.97217 11.0401 6.98874 11.0696 7.01824C11.0991 7.04773 11.1156 7.08774 11.1156 7.12945C11.1156 7.17117 11.0991 7.21118 11.0696 7.24067C11.0401 7.27017 11.0001 7.28674 10.9584 7.28674Z" fill="#4C4C4C"/>
<path d="M10.9584 8.61096H5.64264C5.60092 8.61096 5.56092 8.59439 5.53142 8.56489C5.50192 8.53539 5.48535 8.49539 5.48535 8.45367C5.48535 8.41196 5.50192 8.37195 5.53142 8.34245C5.56092 8.31296 5.60092 8.29639 5.64264 8.29639H10.9584C11.0001 8.29639 11.0401 8.31296 11.0696 8.34245C11.0991 8.37195 11.1156 8.41196 11.1156 8.45367C11.1156 8.49539 11.0991 8.53539 11.0696 8.56489C11.0401 8.59439 11.0001 8.61096 10.9584 8.61096Z" fill="#4C4C4C"/>
<path d="M8.77895 9.93518H5.64264C5.60092 9.93518 5.56092 9.91861 5.53142 9.88911C5.50192 9.85961 5.48535 9.81961 5.48535 9.77789C5.48535 9.73618 5.50192 9.69617 5.53142 9.66667C5.56092 9.63718 5.60092 9.62061 5.64264 9.62061H8.77895C8.82066 9.62061 8.86067 9.63718 8.89017 9.66667C8.91966 9.69617 8.93623 9.73618 8.93623 9.77789C8.93623 9.81961 8.91966 9.85961 8.89017 9.88911C8.86067 9.91861 8.82066 9.93518 8.77895 9.93518Z" fill="#4C4C4C"/>
<path d="M4.12466 12.002L4.16808 12.1406H4.31336H9.6029H9.7548L9.79396 11.9938L10.2769 10.1838H13.7866V14.0364C13.7866 15.0193 12.9898 15.8161 12.0069 15.8161H1.97745C0.994544 15.8161 0.197745 15.0193 0.197745 14.0364V10.1838H3.55513L4.12466 12.002Z" stroke="#4C4C4C" stroke-width="0.395489"/>
<path d="M11.1714 3.39307H5.63771C4.40909 3.39307 3.41309 4.38906 3.41309 5.61769V9.98591M13.114 5.4651V9.98591" stroke="#4C4C4C" stroke-width="0.395489"/>
<path d="M8.96987 0.28504L2.93593 0.295698C1.69581 0.297888 0.696909 1.31365 0.715476 2.55363L0.82759 10.0409M11.0374 2.18721L11.0384 3.64104" stroke="#4C4C4C" stroke-width="0.395489"/>
<path d="M10.9359 5.3792L10.9359 5.53987L11.0966 5.53986L12.9946 5.53985C13.1632 5.53985 13.2443 5.33299 13.1206 5.21843L11.2473 3.48393C11.1286 3.37404 10.9359 3.45821 10.9359 3.61996L10.9359 5.3792Z" stroke="#4C4C4C" stroke-width="0.321335"/>
<path d="M8.7373 2.3141L8.7373 2.47477L8.89797 2.47477L10.9314 2.47476C11.1001 2.47475 11.1811 2.2679 11.0574 2.15334L9.04864 0.293399C8.92995 0.183507 8.7373 0.267681 8.7373 0.429428L8.7373 2.3141Z" stroke="#4C4C4C" stroke-width="0.321335"/>
</svg>
