<?xml version="1.0" standalone="no"?>
<svg id="android" width="56" height="60" viewBox="0 0 56 60" fill="none" xmlns="http://www.w3.org/2000/svg" style="max-width: 100%; max-height: 100%;">
<g clip-path="url(#clip0_6_121)">
<path d="M50.5993 17.7334C48.5963 17.7334 46.9763 19.3107 46.9763 21.2565V36.339C46.9763 38.2843 48.5963 39.8626 50.5993 39.8626C52.599 39.8626 54.2194 38.2843 54.2194 36.339V21.2565C54.2194 19.3107 52.599 17.7334 50.5993 17.7334Z" fill="#08BC26" stroke-dasharray="0,0,0,52.61635208129883"><animate attributeType="XML" attributeName="stroke-dasharray" repeatCount="1" dur="2.5s" values="0,0,0,52.61635208129883; 
          0,26.308176040649414,26.308176040649414,0; 
          52.61635208129883,0,0,0" keyTimes="0; 0.5; 1" fill="freeze"></animate></path>
<path d="M4.71671 17.7334C2.71516 17.7334 1.09375 19.3107 1.09375 21.2565V36.339C1.09375 38.2843 2.71563 39.8626 4.71671 39.8626C6.71593 39.8626 8.33968 38.2843 8.33968 36.339V21.2565C8.33968 19.3107 6.71593 17.7334 4.71671 17.7334Z" fill="#08BC26" stroke-dasharray="0,0,0,52.61924362182617"><animate attributeType="XML" attributeName="stroke-dasharray" repeatCount="1" dur="2.5s" values="0,0,0,52.61924362182617; 
          0,26.309621810913086,26.309621810913086,0; 
          52.61924362182617,0,0,0" keyTimes="0; 0.5; 1" fill="freeze"></animate></path>
<path d="M10.7546 17.7334V43.585C10.7546 45.6381 12.4675 47.3087 14.5801 47.3087H17.3382C17.2416 47.6256 17.1928 47.9556 17.1934 48.287V55.7298C17.1934 57.6751 18.8162 59.2534 20.8159 59.2534C22.8156 59.2534 24.4384 57.6751 24.4384 55.7298V48.287C24.4384 47.9443 24.3859 47.62 24.2931 47.3087H31.0196C30.9254 47.6261 30.8774 47.9556 30.8771 48.287V55.7298C30.8771 57.6751 32.4981 59.2534 34.4973 59.2534C36.4998 59.2534 38.125 57.6751 38.125 55.7298V48.287C38.125 47.9443 38.0687 47.62 37.9745 47.3087H40.7368C42.8485 47.3087 44.5581 45.6386 44.5581 43.585V17.7334H10.7546Z" fill="#08BC26" stroke-dasharray="0,0,0,165.8068084716797"><animate attributeType="XML" attributeName="stroke-dasharray" repeatCount="1" dur="2.5s" values="0,0,0,165.8068084716797; 
          0,82.90340423583984,82.90340423583984,0; 
          165.8068084716797,0,0,0" keyTimes="0; 0.5; 1" fill="freeze"></animate></path>
<path d="M50.5993 17.7334C48.5963 17.7334 46.9763 19.3107 46.9763 21.2565V29.7878H54.2194V21.2565C54.2194 19.3107 52.599 17.7334 50.5993 17.7334Z" fill="#49E500" stroke-dasharray="0,0,0,35.531158447265625"><animate attributeType="XML" attributeName="stroke-dasharray" repeatCount="1" dur="2.5s" values="0,0,0,35.531158447265625; 
          0,17.765579223632812,17.765579223632812,0; 
          35.531158447265625,0,0,0" keyTimes="0; 0.5; 1" fill="freeze"></animate></path>
<path d="M10.7546 17.7334V29.7878H44.5581V17.7334H11.0143H10.7546Z" fill="#49E500" stroke-dasharray="0,0,0,91.71580505371094"><animate attributeType="XML" attributeName="stroke-dasharray" repeatCount="1" dur="2.5s" values="0,0,0,91.71580505371094; 
          0,45.85790252685547,45.85790252685547,0; 
          91.71580505371094,0,0,0" keyTimes="0; 0.5; 1" fill="freeze"></animate></path>
<path d="M1.09375 21.2571V29.7883H8.33968V21.2571C8.33968 19.3117 6.71593 17.7339 4.71671 17.7339C2.71563 17.7339 1.09375 19.3113 1.09375 21.2571ZM44.4878 15.3846C43.8503 9.05878 38.7222 3.87018 31.9277 2.31205C29.1096 1.72168 26.1997 1.72216 23.3819 2.31346C16.5892 3.87299 11.463 9.06018 10.8259 15.3846H44.4878ZM34.9019 8.37815C35.9022 8.37815 36.7131 9.16331 36.7131 10.1378C36.7131 11.1128 35.9022 11.9017 34.9019 11.9017C33.9002 11.9017 33.0897 11.1124 33.0897 10.1378C33.0897 9.16331 33.9002 8.37815 34.9019 8.37815ZM20.4137 8.37815C21.4141 8.37815 22.225 9.16331 22.225 10.1378C22.225 11.1128 21.4141 11.9017 20.4137 11.9017C19.4106 11.9017 18.602 11.1124 18.602 10.1378C18.602 9.16331 19.4106 8.37815 20.4137 8.37815Z" fill="#49E500" stroke-dasharray="0,0,0,138.9583740234375"><animate attributeType="XML" attributeName="stroke-dasharray" repeatCount="1" dur="2.5s" values="0,0,0,138.9583740234375; 
          0,69.47918701171875,69.47918701171875,0; 
          138.9583740234375,0,0,0" keyTimes="0; 0.5; 1" fill="freeze"></animate></path>
<path d="M16.1878 0.746582L17.8186 4.5083M39.1247 0.746582L37.4948 4.5083M7.31434 51.0055L6.69419 51.6257M5.347 52.9724L5.37606 52.9442M13.1039 54.8169V55.693M13.1043 57.5994L13.1039 57.5586M3.50341 45.215H2.62591M0.719971 45.215H0.760752M47.9981 50.9183L48.6187 51.5385M49.9654 52.8861L49.9368 52.8566M51.8095 45.1288H52.6856M54.5925 45.1283H54.5512M42.2081 54.7292V55.6072M42.2081 57.5127V57.4714M21.2587 26.0066H22.665M26.9531 26.0066H28.3593M32.6475 26.0066H34.0537M21.96 47.3085H33.3525M10.755 17.7331V43.5847C10.755 45.6378 12.4678 47.3085 14.5804 47.3085H17.3386C17.242 47.6253 17.1931 47.9553 17.1937 48.2867V55.7296C17.1937 57.6749 18.8165 59.2531 20.8162 59.2531C22.8159 59.2531 24.4387 57.6749 24.4387 55.7296V48.2867C24.4387 47.9441 24.3862 47.6197 24.2934 47.3085H31.02C30.9257 47.6258 30.8777 47.9553 30.8775 48.2867V55.7296C30.8775 57.6749 32.4984 59.2531 34.4976 59.2531C36.5001 59.2531 38.1253 57.6749 38.1253 55.7296V48.2867C38.1253 47.9441 38.069 47.6197 37.9748 47.3085H40.7372C42.8489 47.3085 44.5584 45.6383 44.5584 43.5847V17.7331H10.755ZM4.71653 17.7331C2.71497 17.7331 1.09356 19.3105 1.09356 21.2563V36.3388C1.09356 38.2841 2.71544 39.8624 4.71653 39.8624C6.71575 39.8624 8.3395 38.2841 8.3395 36.3388V21.2563C8.3395 19.3105 6.71575 17.7331 4.71653 17.7331ZM44.4876 15.3838C43.8501 9.05799 38.722 3.86939 31.9275 2.31127C29.1094 1.72089 26.1995 1.72137 23.3817 2.31268C16.589 3.87221 11.4628 9.0594 10.8257 15.3838H44.4876ZM34.9017 8.37737C35.902 8.37737 36.7129 9.16252 36.7129 10.1371C36.7129 11.1121 35.902 11.901 34.9017 11.901C33.9 11.901 33.0895 11.1116 33.0895 10.1371C33.0895 9.16252 33.9 8.37737 34.9017 8.37737ZM20.4136 8.37737C21.4139 8.37737 22.2248 9.16252 22.2248 10.1371C22.2248 11.1121 21.4139 11.901 20.4136 11.901C19.4104 11.901 18.6018 11.1116 18.6018 10.1371C18.6018 9.16252 19.4104 8.37737 20.4136 8.37737ZM50.5992 17.7331C48.5962 17.7331 46.9762 19.3105 46.9762 21.2563V36.3388C46.9762 38.2841 48.5962 39.8624 50.5992 39.8624C52.5989 39.8624 54.2193 38.2841 54.2193 36.3388V21.2563C54.2193 19.3105 52.5989 17.7331 50.5992 17.7331Z" stroke="#33363A" stroke-width="0.829687" stroke-miterlimit="10" stroke-linecap="round" stroke-linejoin="round" stroke-dasharray="0,0,0,403.7847900390625"><animate attributeType="XML" attributeName="stroke-dasharray" repeatCount="1" dur="2.5s" values="0,0,0,403.7847900390625; 
          0,201.89239501953125,201.89239501953125,0; 
          403.7847900390625,0,0,0" keyTimes="0; 0.5; 1" fill="freeze"></animate></path>
</g>
<defs>
<clipPath id="clip0_6_121">
<rect width="55.3125" height="60" fill="white" stroke-dasharray="0,0,0,230.625"><animate attributeType="XML" attributeName="stroke-dasharray" repeatCount="1" dur="2.5s" values="0,0,0,230.625; 
          0,115.3125,115.3125,0; 
          230.625,0,0,0" keyTimes="0; 0.5; 1" fill="freeze"></animate></rect>
</clipPath>
</defs>
<setting>{"type":"direct","speed":20,"random":1,"shift":1,"size":1,"rupture":50}</setting></svg>