<?xml version="1.0" standalone="no"?>
<svg id="bootstrap1" width="61" height="61" viewBox="0 0 61 61" fill="none" xmlns="http://www.w3.org/2000/svg" style="max-width: 100%; max-height: 100%;">
<g clip-path="url(#clip0_6_135)">
<path d="M14.2969 1.5H46.7031C53.7706 1.5 59.5 7.22936 59.5 14.2969V46.7031C59.5 53.7706 53.7706 59.5 46.7031 59.5H14.2969C7.22936 59.5 1.5 53.7706 1.5 46.7031V14.2969C1.5 7.22936 7.22936 1.5 14.2969 1.5Z" fill="url(#paint0_linear_6_135)" stroke="white" stroke-width="3" stroke-dasharray="0,0,0,210.04144287109375"><animate attributeType="XML" attributeName="stroke-dasharray" repeatCount="1" dur="2.5s" values="0,0,0,210.04144287109375; 
          0,105.02072143554688,105.02072143554688,0; 
          210.04144287109375,0,0,0" keyTimes="0; 0.5; 1" fill="freeze"></animate></path>
<g filter="url(#filter0_d_6_135)">
<path d="M31.3366 47.4437C38.4078 47.4437 42.669 43.9812 42.669 38.2705C42.669 33.9536 39.6288 30.8285 35.1141 30.3336V30.154C38.4309 29.6143 41.0337 26.534 41.0337 23.0942C41.0337 18.1927 37.1642 15 31.2675 15H18V47.4437H31.3366ZM23.1595 19.1144H30.0237C33.7552 19.1144 35.8742 20.7783 35.8742 23.7911C35.8742 27.0063 33.4096 28.8048 28.9412 28.8048H23.1595V19.1144ZM23.1595 43.3293V32.6497H29.9774C34.8608 32.6497 37.3944 34.4483 37.3944 37.9558C37.3944 41.463 34.9299 43.3293 30.277 43.3293H23.1595Z" fill="url(#paint1_linear_6_135)" stroke-dasharray="0,0,0,197.68270874023438"><animate attributeType="XML" attributeName="stroke-dasharray" repeatCount="1" dur="2.5s" values="0,0,0,197.68270874023438; 
          0,98.84135437011719,98.84135437011719,0; 
          197.68270874023438,0,0,0" keyTimes="0; 0.5; 1" fill="freeze"></animate></path>
<path d="M31.3366 47.4437C38.4078 47.4437 42.669 43.9812 42.669 38.2705C42.669 33.9536 39.6288 30.8285 35.1141 30.3336V30.154C38.4309 29.6143 41.0337 26.534 41.0337 23.0942C41.0337 18.1927 37.1642 15 31.2675 15H18V47.4437H31.3366ZM23.1595 19.1144H30.0237C33.7552 19.1144 35.8742 20.7783 35.8742 23.7911C35.8742 27.0063 33.4096 28.8048 28.9412 28.8048H23.1595V19.1144ZM23.1595 43.3293V32.6497H29.9774C34.8608 32.6497 37.3944 34.4483 37.3944 37.9558C37.3944 41.463 34.9299 43.3293 30.277 43.3293H23.1595Z" fill="white" stroke="white" stroke-width="2" stroke-dasharray="0,0,0,197.68270874023438"><animate attributeType="XML" attributeName="stroke-dasharray" repeatCount="1" dur="2.5s" values="0,0,0,197.68270874023438; 
          0,98.84135437011719,98.84135437011719,0; 
          197.68270874023438,0,0,0" keyTimes="0; 0.5; 1" fill="freeze"></animate></path>
</g>
</g>
<defs>
<filter id="filter0_d_6_135" x="13.1875" y="11.1406" width="34.2939" height="42.0688" filterUnits="userSpaceOnUse" color-interpolation-filters="sRGB">
<feFlood flood-opacity="0" result="BackgroundImageFix"></feFlood>
<feColorMatrix in="SourceAlpha" type="matrix" values="0 0 0 0 0 0 0 0 0 0 0 0 0 0 0 0 0 0 127 0" result="hardAlpha"></feColorMatrix>
<feOffset dy="0.953125"></feOffset>
<feGaussianBlur stdDeviation="1.90625"></feGaussianBlur>
<feColorMatrix type="matrix" values="0 0 0 0 0 0 0 0 0 0 0 0 0 0 0 0 0 0 0.15 0"></feColorMatrix>
<feBlend mode="normal" in2="BackgroundImageFix" result="effect1_dropShadow_6_135"></feBlend>
<feBlend mode="normal" in="SourceGraphic" in2="effect1_dropShadow_6_135" result="shape"></feBlend>
</filter>
<linearGradient id="paint0_linear_6_135" x1="-3.13438e-08" y1="-3.13438e-08" x2="61" y2="61" gradientUnits="userSpaceOnUse">
<stop stop-color="#9013FE"></stop>
<stop offset="1" stop-color="#6B11F4"></stop>
</linearGradient>
<linearGradient id="paint1_linear_6_135" x1="20.3335" y1="17.1355" x2="35.2852" y2="42.4224" gradientUnits="userSpaceOnUse">
<stop stop-color="#A17FCD"></stop>
<stop offset="1" stop-color="#F1E5FC"></stop>
</linearGradient>
<clipPath id="clip0_6_135">
<rect width="61" height="61" fill="white" stroke-dasharray="0,0,0,244"><animate attributeType="XML" attributeName="stroke-dasharray" repeatCount="1" dur="2.5s" values="0,0,0,244; 
          0,122,122,0; 
          244,0,0,0" keyTimes="0; 0.5; 1" fill="freeze"></animate></rect>
</clipPath>
</defs>
<setting>{"type":"direct","speed":20,"random":1,"shift":1,"size":1,"rupture":50}</setting></svg>