<svg width="100" height="100" viewBox="0 0 100 100" fill="none" xmlns="http://www.w3.org/2000/svg">
<path d="M70.4209 24.151V16.9389C70.4209 15.215 68.3445 14.3516 67.1304 15.5707L54.4352 28.3142C53.6825 29.0698 53.6825 30.2949 54.4352 31.0507L67.1304 43.7943C68.3445 45.0132 70.4209 44.1499 70.4209 42.426V35.232C78.4539 35.3307 84.9597 41.913 84.9597 49.9997C84.9597 58.148 78.3569 64.777 70.24 64.777C62.1228 64.777 55.5203 58.148 55.5203 49.9997C55.5203 35.7406 43.964 24.1419 29.7602 24.1419C15.5562 24.1419 4 35.7406 4 49.9997C4 64.1573 15.3949 75.6782 29.4593 75.8426V83.061C29.4593 84.7849 31.5355 85.6484 32.7497 84.4293L45.4449 71.6857C46.1976 70.93 46.1976 69.705 45.4449 68.9493L32.7497 56.2056C31.5355 54.9868 29.4593 55.85 29.4593 57.574V64.7616C21.4819 64.5986 15.0404 58.0461 15.0404 49.9997C15.0404 41.8517 21.643 35.2227 29.7602 35.2227C37.8772 35.2227 44.4797 41.8517 44.4797 49.9997C44.4797 64.2593 56.036 75.8577 70.24 75.8577C84.4437 75.8577 96 64.2593 96 49.9997C96 35.8019 84.541 24.2501 70.4209 24.151Z" fill="white"/>
</svg>
