<?xml version="1.0" standalone="no"?>
<svg id="laravel" width="60" height="60" viewBox="0 0 60 60" fill="none" xmlns="http://www.w3.org/2000/svg" style="max-width: 100%; max-height: 100%;">
<g clip-path="url(#clip0_6_110)">
<path d="M14.0625 0.967773H45.9376C53.1696 0.967773 59.0323 6.8305 59.0323 14.0625V45.9376C59.0323 53.1696 53.1696 59.0323 45.9376 59.0323H14.0625C6.8305 59.0323 0.967773 53.1696 0.967773 45.9376V14.0625C0.967773 6.8305 6.8305 0.967773 14.0625 0.967773Z" fill="#242938" stroke="white" stroke-width="2" stroke-dasharray="0,0,0,209.7885284423828"><animate attributeType="XML" attributeName="stroke-dasharray" repeatCount="1" dur="2.5s" values="0,0,0,209.7885284423828; 
          0,104.8942642211914,104.8942642211914,0; 
          209.7885284423828,0,0,0" keyTimes="0; 0.5; 1" fill="freeze"></animate></path>
<mask id="mask0_6_110" style="mask-type:luminance" maskUnits="userSpaceOnUse" x="8" y="7" width="44" height="46">
<path fill-rule="evenodd" clip-rule="evenodd" d="M50.657 18.3923C50.672 18.4492 50.68 18.5081 50.68 18.5674V27.7546C50.68 27.8725 50.6493 27.9882 50.5912 28.0902C50.5331 28.1921 50.4493 28.2766 50.3481 28.3357L42.7436 32.7752V41.5748C42.7439 41.6921 42.7136 41.8073 42.6557 41.9093C42.5977 42.0112 42.5142 42.0963 42.4134 42.156L26.5396 51.422C26.5032 51.4429 26.4637 51.4563 26.4241 51.4705C26.4091 51.4757 26.3952 51.4848 26.3796 51.4891C26.2686 51.5186 26.1518 51.5186 26.0408 51.4891C26.0228 51.484 26.0062 51.4738 25.9888 51.4673C25.9525 51.454 25.9146 51.4422 25.8798 51.422L10.0093 42.156C9.9083 42.097 9.82459 42.0123 9.76652 41.9107C9.70817 41.8083 9.67749 41.6925 9.67749 41.5748V14.013C9.67749 13.9525 9.68572 13.894 9.70072 13.8372C9.70536 13.8177 9.71707 13.8002 9.72365 13.7809C9.73604 13.7458 9.74755 13.7099 9.76585 13.6771C9.77823 13.6553 9.79633 13.6377 9.81133 13.6179C9.8301 13.5909 9.84762 13.5632 9.86988 13.5398C9.88865 13.5205 9.91372 13.5063 9.9351 13.4896C9.95901 13.4695 9.98049 13.4476 10.0077 13.4318H10.0087L17.9439 8.79883C18.0442 8.74032 18.1582 8.70947 18.2742 8.70947C18.3904 8.70947 18.5044 8.74032 18.6046 8.79883L26.5403 13.4318H26.5419C26.5682 13.4486 26.5907 13.4695 26.6146 13.4887C26.6359 13.5055 26.6598 13.5205 26.6788 13.5391C26.702 13.5632 26.7187 13.5909 26.7384 13.6179C26.7524 13.6377 26.7714 13.6553 26.7829 13.6771C26.8019 13.7107 26.8126 13.7458 26.826 13.7809C26.8326 13.8002 26.8441 13.8177 26.849 13.8379C26.8642 13.8951 26.8719 13.954 26.8721 14.013V31.2279L33.4848 27.367V18.5662C33.4848 18.5076 33.493 18.4482 33.508 18.3923C33.5139 18.3721 33.5245 18.3546 33.5313 18.3353C33.5443 18.3002 33.5558 18.2641 33.5741 18.2315C33.5865 18.2097 33.6046 18.1921 33.6187 18.172C33.6386 18.1452 33.6549 18.1176 33.6782 18.0942C33.6971 18.0749 33.721 18.0607 33.7426 18.0437C33.7673 18.0238 33.7888 18.002 33.8153 17.9861L41.7526 13.353C41.8528 13.2943 41.9668 13.2634 42.0829 13.2634C42.1989 13.2634 42.3129 13.2943 42.4131 13.353L50.3488 17.9861C50.3769 18.003 50.3982 18.0236 50.4231 18.0431C50.4437 18.0597 50.4676 18.0749 50.4866 18.0932C50.5098 18.1176 50.5263 18.1452 50.5462 18.172C50.5609 18.1921 50.5792 18.2095 50.5907 18.2315C50.6097 18.2643 50.6204 18.3002 50.6336 18.3353C50.641 18.3546 50.6521 18.3721 50.657 18.3923ZM49.3571 27.367V19.727L46.5801 21.348L42.7436 23.5879V31.2279L49.3571 27.367ZM41.4215 41.1871V33.5423L37.6478 35.7279L26.8715 41.9643V49.6811L41.4215 41.1871ZM11.0003 15.1726V41.1871L25.5487 49.6804V41.9651L17.9484 37.6032L17.946 37.6016L17.9425 37.6C17.9169 37.585 17.8957 37.5632 17.8715 37.5447C17.8508 37.5281 17.8269 37.5147 17.8089 37.4962L17.8073 37.4938C17.7857 37.4727 17.7707 37.447 17.7526 37.4232C17.7363 37.4008 17.7163 37.3815 17.7032 37.3581L17.7023 37.3555C17.6873 37.3304 17.6781 37.3002 17.6676 37.2719C17.6568 37.2468 17.6427 37.2234 17.6362 37.1964C17.628 37.1648 17.6263 37.1303 17.6228 37.0975C17.6196 37.0724 17.613 37.0474 17.613 37.0223V19.0337L13.7774 16.7929L11.0003 15.1726ZM18.2753 10.1535L11.6636 14.0132L18.2737 17.8724L24.8847 14.0123L18.2737 10.1537L18.2753 10.1535ZM21.7138 34.2388L25.5496 31.9998V15.1726L22.7723 16.7938L18.936 19.0335V35.8609L21.7138 34.2388ZM42.0831 14.7079L35.4719 18.5674L42.0831 22.4265L48.6932 18.5664L42.0831 14.7079ZM41.4215 23.5879L37.585 21.348L34.8081 19.727V27.367L38.6437 29.6059L41.4215 31.2279V23.5879ZM26.2093 40.8046L35.9062 35.1909L40.7535 32.3859L34.1474 28.529L26.5413 32.9694L19.6089 37.0164L26.2093 40.8046Z" fill="#EBEBEB" stroke="#FF2D20" stroke-width="2" stroke-dasharray="0,0,0,523.5255126953125"><animate attributeType="XML" attributeName="stroke-dasharray" repeatCount="1" dur="2.5s" values="0,0,0,523.5255126953125; 
          0,261.76275634765625,261.76275634765625,0; 
          523.5255126953125,0,0,0" keyTimes="0; 0.5; 1" fill="freeze"></animate></path>
</mask>
<g mask="url(#mask0_6_110)">
<path fill-rule="evenodd" clip-rule="evenodd" d="M50.657 18.3923C50.672 18.4492 50.68 18.5081 50.68 18.5674V27.7546C50.68 27.8725 50.6493 27.9882 50.5912 28.0902C50.5331 28.1921 50.4493 28.2766 50.3481 28.3357L42.7436 32.7752V41.5748C42.7439 41.6921 42.7136 41.8073 42.6557 41.9093C42.5977 42.0112 42.5142 42.0963 42.4134 42.156L26.5396 51.422C26.5032 51.4429 26.4637 51.4563 26.4241 51.4705C26.4091 51.4757 26.3952 51.4848 26.3796 51.4891C26.2686 51.5186 26.1518 51.5186 26.0408 51.4891C26.0228 51.484 26.0062 51.4738 25.9888 51.4673C25.9525 51.454 25.9146 51.4422 25.8798 51.422L10.0093 42.156C9.9083 42.097 9.82459 42.0123 9.76652 41.9107C9.70817 41.8083 9.67749 41.6925 9.67749 41.5748V14.013C9.67749 13.9525 9.68572 13.894 9.70072 13.8372C9.70536 13.8177 9.71707 13.8002 9.72365 13.7809C9.73604 13.7458 9.74755 13.7099 9.76585 13.6771C9.77823 13.6553 9.79633 13.6377 9.81133 13.6179C9.8301 13.5909 9.84762 13.5632 9.86988 13.5398C9.88865 13.5205 9.91372 13.5063 9.9351 13.4896C9.95901 13.4695 9.98049 13.4476 10.0077 13.4318H10.0087L17.9439 8.79883C18.0442 8.74032 18.1582 8.70947 18.2742 8.70947C18.3904 8.70947 18.5044 8.74032 18.6046 8.79883L26.5403 13.4318H26.5419C26.5682 13.4486 26.5907 13.4695 26.6146 13.4887C26.6359 13.5055 26.6598 13.5205 26.6788 13.5391C26.702 13.5632 26.7187 13.5909 26.7384 13.6179C26.7524 13.6377 26.7714 13.6553 26.7829 13.6771C26.8019 13.7107 26.8126 13.7458 26.826 13.7809C26.8326 13.8002 26.8441 13.8177 26.849 13.8379C26.8642 13.8951 26.8719 13.954 26.8721 14.013V31.2279L33.4848 27.367V18.5662C33.4848 18.5076 33.493 18.4482 33.508 18.3923C33.5139 18.3721 33.5245 18.3546 33.5313 18.3353C33.5443 18.3002 33.5558 18.2641 33.5741 18.2315C33.5865 18.2097 33.6046 18.1921 33.6187 18.172C33.6386 18.1452 33.6549 18.1176 33.6782 18.0942C33.6971 18.0749 33.721 18.0607 33.7426 18.0437C33.7673 18.0238 33.7888 18.002 33.8153 17.9861L41.7526 13.353C41.8528 13.2943 41.9668 13.2634 42.0829 13.2634C42.1989 13.2634 42.3129 13.2943 42.4131 13.353L50.3488 17.9861C50.3769 18.003 50.3982 18.0236 50.4231 18.0431C50.4437 18.0597 50.4676 18.0749 50.4866 18.0932C50.5098 18.1176 50.5263 18.1452 50.5462 18.172C50.5609 18.1921 50.5792 18.2095 50.5907 18.2315C50.6097 18.2643 50.6204 18.3002 50.6336 18.3353C50.641 18.3546 50.6521 18.3721 50.657 18.3923ZM49.3571 27.367V19.727L46.5801 21.348L42.7436 23.5879V31.2279L49.3571 27.367ZM41.4215 41.1871V33.5423L37.6478 35.7279L26.8715 41.9643V49.6811L41.4215 41.1871ZM11.0003 15.1726V41.1871L25.5487 49.6804V41.9651L17.9484 37.6032L17.946 37.6016L17.9425 37.6C17.9169 37.585 17.8957 37.5632 17.8715 37.5447C17.8508 37.5281 17.8269 37.5147 17.8089 37.4962L17.8073 37.4938C17.7857 37.4727 17.7707 37.447 17.7526 37.4232C17.7363 37.4008 17.7163 37.3815 17.7032 37.3581L17.7023 37.3555C17.6873 37.3304 17.6781 37.3002 17.6676 37.2719C17.6568 37.2468 17.6427 37.2234 17.6362 37.1964C17.628 37.1648 17.6263 37.1303 17.6228 37.0975C17.6196 37.0724 17.613 37.0474 17.613 37.0223V19.0337L13.7774 16.7929L11.0003 15.1726ZM18.2753 10.1535L11.6636 14.0132L18.2737 17.8724L24.8847 14.0123L18.2737 10.1537L18.2753 10.1535ZM21.7138 34.2388L25.5496 31.9998V15.1726L22.7723 16.7938L18.936 19.0335V35.8609L21.7138 34.2388ZM42.0831 14.7079L35.4719 18.5674L42.0831 22.4265L48.6932 18.5664L42.0831 14.7079ZM41.4215 23.5879L37.585 21.348L34.8081 19.727V27.367L38.6437 29.6059L41.4215 31.2279V23.5879ZM26.2093 40.8046L35.9062 35.1909L40.7535 32.3859L34.1474 28.529L26.5413 32.9694L19.6089 37.0164L26.2093 40.8046Z" fill="#EBEBEB" stroke="#FF2D20" stroke-width="2" stroke-dasharray="0,0,0,523.5255126953125"><animate attributeType="XML" attributeName="stroke-dasharray" repeatCount="1" dur="2.5s" values="0,0,0,523.5255126953125; 
          0,261.76275634765625,261.76275634765625,0; 
          523.5255126953125,0,0,0" keyTimes="0; 0.5; 1" fill="freeze"></animate></path>
</g>
</g>
<defs>
<clipPath id="clip0_6_110">
<rect width="60" height="60" fill="white" stroke-dasharray="0,0,0,240"><animate attributeType="XML" attributeName="stroke-dasharray" repeatCount="1" dur="2.5s" values="0,0,0,240; 
          0,120,120,0; 
          240,0,0,0" keyTimes="0; 0.5; 1" fill="freeze"></animate></rect>
</clipPath>
</defs>
<setting>{"type":"direct","speed":20,"random":1,"shift":1,"size":1,"rupture":50}</setting></svg>