<svg version="1.2" xmlns="http://www.w3.org/2000/svg" viewBox="0 0 46 80" width="46" height="80"><style>.a{fill:#fff}</style><path fill-rule="evenodd" class="a" d="m45.9 62.9v12.6c0 2.5-2 4.6-4.6 4.6h-36.6c-2.6 0-4.6-2.1-4.6-4.6v-12.6zm-18.9 8.6c0-2.2-1.8-4-4-4-2.2 0-4 1.8-4 4 0 2.1 1.8 3.9 4 3.9 2.2 0 4-1.8 4-3.9zm-26.9-55h45.8v43.1h-45.8zm33.8 15.7l-9.2 4.2v12.2l9.2-4.2zm-19.8-2.8l8.9 4 8.9-4.1-8.9-4zm-1.9 2.7v12.2l9.1 4.1v-12.1zm33.8-19.2h-45.8v-8.6c0-2.5 2-4.5 4.6-4.5h36.6c2.5 0 4.6 2 4.6 4.5zm-29.9-6.6c0 0.8 0.8 1.6 1.6 1.6h10.5c0.9 0 1.7-0.7 1.7-1.6 0-0.9-0.8-1.6-1.7-1.6h-10.5c-0.8 0-1.6 0.7-1.6 1.6z"/></svg>