<?xml version="1.0" standalone="no"?>
<svg id="Group178" width="117" height="117" viewBox="0 0 117 117" fill="none" xmlns="http://www.w3.org/2000/svg" style="max-width: 100%; max-height: 100%;">
<rect x="2" y="2" width="113" height="113" rx="15" fill="#1F3800" stroke="#83CD29" stroke-width="4" stroke-dasharray="0,0,0,425.6404724121094"><animate attributeType="XML" attributeName="stroke-dasharray" repeatCount="1" dur="2.5s" values="0,0,0,425.6404724121094; 
          0,212.8202362060547,212.8202362060547,0; 
          425.6404724121094,0,0,0" keyTimes="0; 0.5; 1" fill="freeze"></animate></rect>
<path d="M45.4147 40.2028V73.0221C45.4147 74.7397 43.7372 75.9562 42.1047 75.4225L30.7406 71.7073C29.7023 71.3679 29 70.3993 29 69.307V38.1979C29 37.2906 29.4867 36.453 30.275 36.0038L57.0931 20.7204C57.8755 20.2745 58.8362 20.279 59.6144 20.7322L85.8286 35.9998C86.6052 36.4522 87.083 37.2832 87.083 38.182V67.8968C87.083 68.7389 86.6632 69.5256 85.9637 69.9945L59.936 87.4416C59.0011 88.0684 57.7642 88.0007 56.9032 87.2756L52.3594 83.4493" stroke="#83CD29" stroke-width="5.68203" stroke-linecap="round" stroke-dasharray="0,0,0,225.6813201904297"><animate attributeType="XML" attributeName="stroke-dasharray" repeatCount="1" dur="2.5s" values="0,0,0,225.6813201904297; 
          0,112.84066009521484,112.84066009521484,0; 
          225.6813201904297,0,0,0" keyTimes="0; 0.5; 1" fill="freeze"></animate></path>
<path d="M59.2524 66.3326L58.4567 68.0513L58.4757 68.0601L58.4949 68.0685L59.2524 66.3326ZM56.1936 63.8855L54.6453 64.9764L54.6512 64.9848L54.6572 64.9931L56.1936 63.8855ZM55.0421 60.2509V58.3569H53.1145L53.1483 60.2841L55.0421 60.2509ZM58.5327 60.2509L60.4169 60.0586L60.2433 58.3569H58.5327V60.2509ZM59.9722 63.2378L58.6524 64.5963L58.6721 64.6154L58.6923 64.6339L59.9722 63.2378ZM67.3853 63.2737L68.6243 64.7063L68.6272 64.7038L67.3853 63.2737ZM67.9611 57.9118L66.5392 59.163L66.5392 59.163L67.9611 57.9118ZM65.9819 56.5443L65.2877 58.3065L65.2877 58.3065L65.9819 56.5443ZM62.7791 55.5367L63.2691 53.7072L63.2572 53.704L62.7791 55.5367ZM58.7846 54.2412L58.0232 55.9755L58.0309 55.9788L58.0385 55.9821L58.7846 54.2412ZM56.2296 52.226L54.7097 53.3562L54.7261 53.3781L54.743 53.3996L56.2296 52.226ZM56.2296 44.8488L57.811 45.8911L57.811 45.8911L56.2296 44.8488ZM59.1445 42.4018L58.3632 40.6764L58.3508 40.6821L59.1445 42.4018ZM69.2566 43.3014L68.0822 44.7874L68.088 44.7919L68.0938 44.7965L69.2566 43.3014ZM71.8116 47.9796V49.8736H73.9019L73.6965 47.7935L71.8116 47.9796ZM68.213 47.9796L66.3336 48.2145L66.541 49.8736H68.213V47.9796ZM66.7016 45.4606L65.4852 46.9124L65.4969 46.9222L65.5087 46.9318L66.7016 45.4606ZM59.8282 45.4246L61.0164 46.8996L61.0286 46.8897L61.0407 46.8796L59.8282 45.4246ZM59.2884 50.6066L57.863 51.8538L57.8775 51.8703L57.8922 51.8864L59.2884 50.6066ZM61.1957 51.9381L60.4632 53.6847L60.4967 53.6988L60.5307 53.7115L61.1957 51.9381ZM64.3985 52.9457L63.8866 54.7693L63.8956 54.7718L64.3985 52.9457ZM68.3929 54.3132L67.6123 56.0388L67.6295 56.0466L67.6468 56.0541L68.3929 54.3132ZM70.9839 56.3644L69.4827 57.5192L69.49 57.5287L69.4974 57.538L70.9839 56.3644ZM71.0919 63.5616L72.716 64.5361L72.716 64.5361L71.0919 63.5616ZM68.213 66.1886L67.3283 64.514L68.213 66.1886ZM63.7147 65.3022C62.2812 65.3022 61.0573 65.0537 60.0099 64.5966L58.4949 68.0685C60.0866 68.763 61.8375 69.0902 63.7147 69.0902V65.3022ZM60.0482 64.6138C59.0111 64.1337 58.261 63.5144 57.73 62.7779L54.6572 64.9931C55.6137 66.3198 56.9028 67.3319 58.4567 68.0513L60.0482 64.6138ZM57.7419 62.7946C57.2299 62.0679 56.9535 61.2296 56.9358 60.2177L53.1483 60.2841C53.1786 62.0071 53.6699 63.592 54.6453 64.9764L57.7419 62.7946ZM55.0421 62.1449H58.5327V58.3569H55.0421V62.1449ZM56.6485 60.4432C56.8132 62.0572 57.4901 63.4671 58.6524 64.5963L61.2919 61.8792C60.7749 61.377 60.4922 60.7957 60.4169 60.0586L56.6485 60.4432ZM58.6923 64.6339C60.0221 65.8529 61.7962 66.3193 63.7147 66.3193V62.5313C62.3706 62.5313 61.6496 62.206 61.252 61.8416L58.6923 64.6339ZM63.7147 66.3193C65.5777 66.3193 67.293 65.8577 68.6243 64.7063L66.1463 61.8412C65.7023 62.2252 64.9706 62.5313 63.7147 62.5313V66.3193ZM68.6272 64.7038C69.9594 63.5469 70.6468 62.0147 70.6468 60.2509H66.8588C66.8588 60.9342 66.6345 61.4172 66.1434 61.8437L68.6272 64.7038ZM70.6468 60.2509C70.6468 58.9279 70.2737 57.6728 69.383 56.6606L66.5392 59.163C66.7041 59.3504 66.8588 59.6546 66.8588 60.2509H70.6468ZM69.383 56.6606C68.6437 55.8205 67.7287 55.1968 66.6761 54.7821L65.2877 58.3065C65.8184 58.5156 66.2229 58.8035 66.5392 59.163L69.383 56.6606ZM66.6761 54.7821C65.7893 54.4328 64.6444 54.0756 63.2691 53.7072L62.289 57.3662C63.6007 57.7176 64.591 58.0321 65.2877 58.3065L66.6761 54.7821ZM63.2572 53.704C61.6487 53.2844 60.4174 52.8803 59.5307 52.5003L58.0385 55.9821C59.1671 56.4658 60.5988 56.9253 62.301 57.3694L63.2572 53.704ZM59.546 52.507C58.8691 52.2098 58.2597 51.7409 57.7162 51.0524L54.743 53.3996C55.6389 54.5344 56.7329 55.409 58.0232 55.9755L59.546 52.507ZM57.7495 51.0958C57.367 50.5815 57.08 49.7718 57.08 48.4834H53.292C53.292 50.3138 53.7007 51.9992 54.7097 53.3562L57.7495 51.0958ZM57.08 48.4834C57.08 47.4549 57.3359 46.612 57.811 45.8911L54.6482 43.8065C53.7318 45.1969 53.292 46.777 53.292 48.4834H57.08ZM57.811 45.8911C58.2957 45.1558 58.9824 44.5626 59.9382 44.1214L58.3508 40.6821C56.8116 41.3925 55.555 42.4307 54.6482 43.8065L57.811 45.8911ZM59.9258 44.1271C60.9138 43.6797 62.0918 43.4321 63.4988 43.4321V39.6441C61.6431 39.6441 59.9182 39.9723 58.3632 40.6764L59.9258 44.1271ZM63.4988 43.4321C65.5285 43.4321 67.0031 43.9345 68.0822 44.7874L70.431 41.8155C68.5353 40.3172 66.1713 39.6441 63.4988 39.6441V43.4321ZM68.0938 44.7965C69.1862 45.6461 69.7848 46.7278 69.9268 48.1658L73.6965 47.7935C73.4546 45.345 72.3499 43.3079 70.4194 41.8064L68.0938 44.7965ZM71.8116 46.0856H68.213V49.8736H71.8116V46.0856ZM70.0924 47.7447C69.9009 46.2131 69.0882 44.9573 67.8944 43.9894L65.5087 46.9318C66.0903 47.4033 66.2852 47.8269 66.3336 48.2145L70.0924 47.7447ZM67.9179 44.0088C66.6073 42.9106 64.9629 42.451 63.1749 42.451V46.239C64.3139 46.239 65.0206 46.5231 65.4852 46.9124L67.9179 44.0088ZM63.1749 42.451C61.4639 42.451 59.8891 42.9084 58.6157 43.9696L61.0407 46.8796C61.4947 46.5013 62.151 46.239 63.1749 46.239V42.451ZM58.64 43.9496C57.2613 45.0603 56.6387 46.6253 56.6387 48.3755H60.4267C60.4267 47.5826 60.6678 47.1804 61.0164 46.8996L58.64 43.9496ZM56.6387 48.3755C56.6387 49.6535 57.0014 50.869 57.863 51.8538L60.7138 49.3594C60.5679 49.1926 60.4267 48.9208 60.4267 48.3755H56.6387ZM57.8922 51.8864C58.611 52.6706 59.4756 53.2706 60.4632 53.6847L61.9282 50.1915C61.4284 49.9819 61.0214 49.6942 60.6846 49.3268L57.8922 51.8864ZM60.5307 53.7115C61.3721 54.027 62.4989 54.3797 63.8866 54.7692L64.9103 51.1222C63.5631 50.744 62.5547 50.4249 61.8607 50.1647L60.5307 53.7115ZM63.8956 54.7718C65.5017 55.214 66.7294 55.6394 67.6123 56.0388L69.1736 52.5875C68.0413 52.0753 66.6059 51.5891 64.9013 51.1197L63.8956 54.7718ZM67.6468 56.0541C68.3341 56.3486 68.9448 56.82 69.4827 57.5192L72.4852 55.2096C71.5836 54.0376 70.467 53.1415 69.139 52.5723L67.6468 56.0541ZM69.4974 57.538C69.8717 58.0122 70.1695 58.7961 70.1695 60.107H73.9575C73.9575 58.2511 73.5356 56.5399 72.4705 55.1908L69.4974 57.538ZM70.1695 60.107C70.1695 60.9769 69.9443 61.793 69.4678 62.5872L72.716 64.5361C73.535 63.1711 73.9575 61.6841 73.9575 60.107H70.1695ZM69.4678 62.5872C69.0221 63.33 68.3384 63.9803 67.3283 64.514L69.0977 67.8633C70.6306 67.0535 71.8662 65.9525 72.716 64.5361L69.4678 62.5872ZM67.3283 64.514C66.3791 65.0154 65.1953 65.3022 63.7147 65.3022V69.0902C65.6888 69.0902 67.5038 68.7054 69.0977 67.8633L67.3283 64.514Z" fill="#83CD29" stroke-dasharray="0,0,0,606.8555908203125"><animate attributeType="XML" attributeName="stroke-dasharray" repeatCount="1" dur="2.5s" values="0,0,0,606.8555908203125; 
          0,303.42779541015625,303.42779541015625,0; 
          606.8555908203125,0,0,0" keyTimes="0; 0.5; 1" fill="freeze"></animate></path>
<setting>{"type":"direct","speed":20,"random":1,"shift":1,"size":1,"rupture":50}</setting></svg>