<?xml version="1.0" standalone="no"?>
<svg id="reactjs" width="60" height="60" viewBox="0 0 60 60" fill="none" xmlns="http://www.w3.org/2000/svg" style="max-width: 100%; max-height: 100%;">
<g clip-path="url(#clip0_6_129)">
<path d="M14.0625 0.585938H45.9375C53.3803 0.585938 59.4141 6.61959 59.4141 14.0625V45.9375C59.4141 53.3803 53.3803 59.4141 45.9375 59.4141H14.0625C6.61959 59.4141 0.585938 53.3803 0.585938 45.9375V14.0625C0.585938 6.61959 6.61959 0.585938 14.0625 0.585938Z" fill="#242938" stroke="white" stroke-width="1.17188" stroke-dasharray="0,0,0,212.18775939941406"><animate attributeType="XML" attributeName="stroke-dasharray" repeatCount="1" dur="2.5s" values="0,0,0,212.18775939941406; 
          0,106.09387969970703,106.09387969970703,0; 
          212.18775939941406,0,0,0" keyTimes="0; 0.5; 1" fill="freeze"></animate></path>
<path d="M30.0002 34.4413C32.4152 34.4413 34.3727 32.4836 34.3727 30.0688C34.3727 27.654 32.4152 25.6963 30.0002 25.6963C27.5854 25.6963 25.6277 27.654 25.6277 30.0688C25.6277 32.4836 27.5854 34.4413 30.0002 34.4413Z" fill="#00D8FF" stroke-dasharray="0,0,0,27.47709846496582"><animate attributeType="XML" attributeName="stroke-dasharray" repeatCount="1" dur="2.5s" values="0,0,0,27.47709846496582; 
          0,13.73854923248291,13.73854923248291,0; 
          27.47709846496582,0,0,0" keyTimes="0; 0.5; 1" fill="freeze"></animate></path>
<path d="M30.0005 21.1792C35.8711 21.1792 41.3248 22.0215 45.4369 23.4374C50.3913 25.143 53.4375 27.7284 53.4375 30.0696C53.4375 32.5092 50.2092 35.2558 44.8887 37.0185C40.8663 38.3512 35.5732 39.0468 30.0005 39.0468C24.2869 39.0468 18.8763 38.3939 14.8085 37.0038C9.66211 35.2448 6.5625 32.4628 6.5625 30.0696C6.5625 27.7474 9.47109 25.1819 14.3559 23.4789C18.4833 22.0398 24.0715 21.1792 29.9995 21.1792H30.0005Z" stroke="#00D8FF" stroke-width="2.08852" stroke-dasharray="0,0,0,106.63714599609375"><animate attributeType="XML" attributeName="stroke-dasharray" repeatCount="1" dur="2.5s" values="0,0,0,106.63714599609375; 
          0,53.318572998046875,53.318572998046875,0; 
          106.63714599609375,0,0,0" keyTimes="0; 0.5; 1" fill="freeze"></animate></path>
<path d="M22.2611 25.6495C25.194 20.5641 28.648 16.2605 31.9288 13.4058C35.8813 9.96586 39.643 8.61867 41.6708 9.78797C43.7842 11.0067 44.5508 15.1758 43.42 20.6653C42.5657 24.8154 40.5233 29.748 37.7392 34.5757C34.8847 39.5252 31.6164 43.886 28.3804 46.7145C24.2856 50.2938 20.3268 51.5892 18.2537 50.3937C16.2421 49.2344 15.4729 45.4327 16.438 40.3502C17.2534 36.0558 19.2997 30.7849 22.2601 25.6495H22.2611Z" stroke="#00D8FF" stroke-width="2.08852" stroke-dasharray="0,0,0,106.63581085205078"><animate attributeType="XML" attributeName="stroke-dasharray" repeatCount="1" dur="2.5s" values="0,0,0,106.63581085205078; 
          0,53.31790542602539,53.31790542602539,0; 
          106.63581085205078,0,0,0" keyTimes="0; 0.5; 1" fill="freeze"></animate></path>
<path d="M22.2686 34.5885C19.3274 29.5086 17.3249 24.366 16.4891 20.098C15.483 14.9556 16.1943 11.024 18.2205 9.85114C20.332 8.62864 24.3264 10.0466 28.5175 13.768C31.6863 16.5815 34.9401 20.8136 37.7322 25.6365C40.5948 30.5814 42.7403 35.5911 43.5749 39.8071C44.631 45.1424 43.7763 49.2189 41.7051 50.4177C39.6955 51.5811 36.018 50.3495 32.0966 46.9749C28.7835 44.124 25.2388 39.7189 22.2686 34.5885Z" stroke="#00D8FF" stroke-width="2.08852" stroke-dasharray="0,0,0,106.63542938232422"><animate attributeType="XML" attributeName="stroke-dasharray" repeatCount="1" dur="2.5s" values="0,0,0,106.63542938232422; 
          0,53.31771469116211,53.31771469116211,0; 
          106.63542938232422,0,0,0" keyTimes="0; 0.5; 1" fill="freeze"></animate></path>
</g>
<defs>
<clipPath id="clip0_6_129">
<rect width="60" height="60" fill="white" stroke-dasharray="0,0,0,240"><animate attributeType="XML" attributeName="stroke-dasharray" repeatCount="1" dur="2.5s" values="0,0,0,240; 
          0,120,120,0; 
          240,0,0,0" keyTimes="0; 0.5; 1" fill="freeze"></animate></rect>
</clipPath>
</defs>
<setting>{"type":"direct","speed":20,"random":1,"shift":1,"size":1,"rupture":50}</setting></svg>