<?xml version="1.0" standalone="no"?>
<svg id="swift" width="68" height="60" viewBox="0 0 68 60" fill="none" xmlns="http://www.w3.org/2000/svg" style="max-width: 100%; max-height: 100%;">
<g clip-path="url(#clip0_6_102)">
<path d="M10.9456 13.5377C10.8913 13.4715 10.837 13.4053 10.7828 13.3393C19.1848 20.383 29.6145 27.7201 33.7464 30.107L34.5836 29.0381C29.4015 23.6472 24.4882 17.5478 20.9268 12.8497C20.438 12.2049 19.9749 11.5868 19.5402 11.0008C25.8693 16.9133 31.7918 21.6864 36.4378 25.1766C39.3867 27.3921 41.8224 29.0915 43.5223 30.238C44.3725 30.8112 45.0387 31.2463 45.4933 31.5387C45.7207 31.6848 45.8948 31.7953 46.0131 31.8695C46.0721 31.9066 46.117 31.9347 46.1472 31.9536L46.1818 31.9751L46.1869 31.9781C46.5843 32.2573 46.9999 32.5123 47.4871 32.7833L48.1649 33.1603L48.456 32.4415C48.782 31.636 49.1081 30.6573 49.2802 29.8238C51.4553 20.8512 49.4369 11.0116 43.9861 2.39746C57.4824 11.7206 64.9539 27.4446 61.5336 40.8972C61.4434 41.0975 61.3968 41.2867 61.3642 41.4194L61.3597 41.4372C61.3189 41.6015 61.296 41.6848 61.2569 41.7619L61.056 42.1603L61.3392 42.5056C65.1075 47.0985 66.4817 51.8711 66.7861 55.205C66.9188 56.6597 66.8451 57.8093 66.696 58.5359C64.5596 54.8813 61.6381 53.4451 58.7287 53.2041C55.7101 52.9541 52.7763 53.9937 50.8299 54.9626L50.7284 55.013L50.6485 55.0936C50.4603 55.2835 50.2738 55.3922 50.0269 55.5184H49.8538L49.6995 55.6027C42.1851 59.7266 31.6808 60.0636 21.2631 55.5743L21.2571 55.5715L21.251 55.5691C13.7812 52.518 7.33077 47.1787 2.70239 41.1215C4.27111 42.126 5.84959 43.0206 7.6105 43.7968C19.1268 49.05 30.5812 48.7716 38.8656 43.7577L39.7289 43.2352L38.9256 42.6249C27.6354 34.0498 18.2102 22.8067 10.9553 13.5498L10.9506 13.5437L10.9456 13.5377ZM67.0855 59.2404C67.0872 59.2422 67.0879 59.2432 67.0879 59.2432C67.0879 59.2435 67.0872 59.2425 67.0855 59.2404Z" fill="#E94E36" stroke-dasharray="0,0,0,339.45635986328125"><animate attributeType="XML" attributeName="stroke-dasharray" repeatCount="1" dur="2.5s" values="0,0,0,339.45635986328125; 
          0,169.72817993164062,169.72817993164062,0; 
          339.45635986328125,0,0,0" keyTimes="0; 0.5; 1" fill="freeze"></animate></path>
<path d="M66.4632 59.2329C66.4632 59.2329 66.4639 59.2319 66.4652 59.2305M10.9456 13.5377C10.8913 13.4715 10.837 13.4053 10.7828 13.3393C19.1848 20.383 29.6145 27.7201 33.7464 30.107L34.5836 29.0381C29.4015 23.6472 24.4882 17.5478 20.9268 12.8497C20.438 12.2049 19.9749 11.5868 19.5402 11.0008C25.8693 16.9133 31.7918 21.6864 36.4378 25.1766C39.3867 27.3921 41.8224 29.0915 43.5223 30.238C44.3725 30.8112 45.0387 31.2463 45.4933 31.5387C45.7207 31.6848 45.8948 31.7953 46.0131 31.8695C46.0721 31.9066 46.117 31.9347 46.1472 31.9536L46.1818 31.9751L46.1869 31.9781C46.5843 32.2573 46.9999 32.5123 47.4871 32.7833L48.1649 33.1603L48.456 32.4415C48.782 31.636 49.1081 30.6573 49.2802 29.8238C51.4553 20.8512 49.4369 11.0116 43.9861 2.39746C57.4824 11.7206 64.9539 27.4446 61.5336 40.8972C61.4434 41.0975 61.3968 41.2867 61.3642 41.4194L61.3597 41.4372C61.3189 41.6015 61.296 41.6848 61.2569 41.7619L61.056 42.1603L61.3392 42.5056C65.1075 47.0985 66.4817 51.8711 66.7861 55.205C66.9188 56.6597 66.8451 57.8093 66.696 58.5359C64.5596 54.8813 61.6381 53.4451 58.7287 53.2041C55.7101 52.9541 52.7763 53.9937 50.8299 54.9626L50.7284 55.013L50.6485 55.0936C50.4603 55.2835 50.2738 55.3922 50.0269 55.5184H49.8538L49.6995 55.6027C42.1851 59.7266 31.6808 60.0636 21.2631 55.5743L21.2571 55.5715L21.251 55.5691C13.7812 52.518 7.33077 47.1787 2.70239 41.1215C4.27111 42.126 5.84959 43.0206 7.6105 43.7968C19.1268 49.05 30.5812 48.7716 38.8656 43.7577L39.7289 43.2352L38.9256 42.6249C27.6354 34.0498 18.2102 22.8067 10.9553 13.5498L10.9506 13.5437L10.9456 13.5377ZM67.0855 59.2404C67.0872 59.2422 67.0879 59.2432 67.0879 59.2432C67.0879 59.2435 67.0872 59.2425 67.0855 59.2404Z" stroke="white" stroke-width="1.37143" stroke-dasharray="0,0,0,339.4595031738281"><animate attributeType="XML" attributeName="stroke-dasharray" repeatCount="1" dur="2.5s" values="0,0,0,339.4595031738281; 
          0,169.72975158691406,169.72975158691406,0; 
          339.4595031738281,0,0,0" keyTimes="0; 0.5; 1" fill="freeze"></animate></path>
</g>
<defs>
<clipPath id="clip0_6_102">
<rect width="67.5429" height="60" fill="white" stroke-dasharray="0,0,0,255.08580017089844"><animate attributeType="XML" attributeName="stroke-dasharray" repeatCount="1" dur="2.5s" values="0,0,0,255.08580017089844; 
          0,127.54290008544922,127.54290008544922,0; 
          255.08580017089844,0,0,0" keyTimes="0; 0.5; 1" fill="freeze"></animate></rect>
</clipPath>
</defs>
<setting>{"type":"direct","speed":20,"random":1,"shift":1,"size":1,"rupture":50}</setting></svg>