<svg version="1.2" xmlns="http://www.w3.org/2000/svg" viewBox="0 0 82 82" width="82" height="82"><style>.a{fill:#fff}</style><path class="a" d="m24.9 36.6c-2.4 0-4.3-1.9-4.3-4.4 0-2.4 1.9-4.3 4.3-4.3 2.5 0 4.4 1.9 4.4 4.3 0 2.5-1.9 4.4-4.4 4.4z"/><path class="a" d="m46.8 4.5c0-0.8 0.7-1.5 1.5-1.5h12.9c-0.6-1.7-2.3-2.9-4.1-2.9h-32.2c-2.4 0-4.3 2-4.3 4.4v1.5h26.2z"/><path class="a" d="m32.2 49.5v-2.7c0-4-3.2-7.3-7.3-7.3-4 0-7.3 3.3-7.3 7.3v2.7c1.9 0.9 3.8 1.5 5.9 1.7v-2.9h2.9v2.9c2-0.2 4-0.8 5.8-1.7z"/><path class="a" d="m8.9 33.7h2.9v2.9h-2.8c0.3 4.1 2.2 7.8 5.2 10.5q0.3 0.2 0.5 0.4v-0.7c0-3.8 2.1-7.3 5.5-9-2.3-2-3.2-5.2-2.1-8.1 1-2.9 3.8-4.8 6.8-4.8 3.1 0 5.8 1.9 6.9 4.8 1 2.9 0.2 6.1-2.2 8.1 3.4 1.7 5.6 5.2 5.6 9v0.7q0.2-0.2 0.4-0.4c3.1-2.7 5-6.4 5.3-10.5h-2.8v-2.9h2.8c-0.7-7.7-6.8-13.8-14.5-14.5v2.8h-2.9v-2.8c-7.7 0.7-13.8 6.8-14.6 14.5z"/><path fill-rule="evenodd" class="a" d="m49.8 6h29.2v14.6h-29.2zm11.6 5.8h14.6v-2.9h-14.6zm-8.7 0h5.8v-2.9h-5.8zm0 5.8h23.3v-2.9h-23.3z"/><path fill-rule="evenodd" class="a" d="m32.2 73.1h29.2v4.4c0 2.4-1.9 4.4-4.3 4.4h-32.2c-2.4 0-4.3-2-4.3-4.4h10.2c0.8 0 1.4-0.6 1.4-1.5zm7.3 5.9h3v-2.9h-3z"/><path fill-rule="evenodd" class="a" d="m0.1 65.8h29.2v8.8h-29.2zm2.9 5.8h7.3v-2.9h-7.3zm10.3 0h13.1v-2.9h-13.1z"/><path class="a" d="m80.2 29.3c-0.5 0-0.9 0.2-1.2 0.4l-22.7 20.1 5.1 5.1 20.1-22.7c0.4-0.5 0.5-1.3 0.2-1.9-0.2-0.6-0.9-1-1.5-1z"/><path class="a" d="m46.8 58.5v2.6c0 1.1-0.2 2.3-0.8 3.3h6.7c3.8 0 7-3 7.3-6.8l-6.4-6.4c-3.8 0.4-6.8 3.5-6.8 7.3z"/><path class="a" d="m52.7 67.3h-10.2c-0.7 0-1.3-0.5-1.5-1.1-0.1-0.7 0.2-1.4 0.8-1.7 1.3-0.6 2.1-2 2.1-3.4v-2.6c0-5.4 4.3-9.9 9.7-10.2l7.8-6.9v-17.9h-13.1c-0.8 0-1.5-0.7-1.5-1.5v-13.1h-26.2v7.8q1.4-0.3 2.9-0.4v-4.5h2.9v4.5c9.3 0.7 16.7 8.1 17.4 17.4h4.5v2.9h-4.5c-0.6 9.4-8.1 16.8-17.4 17.5v4.4h-2.9v-4.4q-1.5-0.1-2.9-0.5v9.3h10.2c0.8 0 1.4 0.7 1.4 1.5v5.8h29.2v-7.9c-1.8 3.1-5.1 5-8.7 5z"/><path fill-rule="evenodd" class="a" d="m0.1 6h11.7v8.7h-11.7zm2.9 5.9h5.9v-3h-5.9z"/></svg>