<svg width="100" height="100" viewBox="0 0 100 100" fill="none" xmlns="http://www.w3.org/2000/svg">
<path d="M79.009 45.1356C78.7129 49.8719 77.3938 54.2852 74.998 58.3218C72.6022 62.3853 69.3718 65.6415 65.2531 68.2249C66.949 69.409 67.972 70.9698 67.7297 73.0419C67.4874 75.141 66.2222 76.4865 64.284 77.2131C64.8493 80.6846 64.0686 82.2185 61.1075 83.6717C61.1613 84.4252 61.3498 85.2056 61.269 85.9321C61.1075 87.5737 60.2999 88.8923 58.8193 89.6189C58.0925 89.9687 58.0656 90.3993 58.0925 91.0183C58.2271 94.113 57.2041 96.7233 54.5929 98.4994C52.0087 100.276 49.1821 100.491 46.3825 99.0646C43.5828 97.6383 42.1292 95.2701 41.9407 92.1216C41.9407 92.0678 41.9407 91.987 41.9407 91.9332C42.1023 90.7492 41.8061 89.9418 40.6486 89.1883C38.7373 87.9235 38.3335 85.9321 39.0065 83.6986C37.5798 83.1334 36.3145 82.2992 35.8838 80.7922C35.5608 79.7158 35.5877 78.5317 35.4262 77.1324C33.8918 76.5403 32.5458 75.2755 32.3035 73.1765C32.0612 71.0775 32.9765 69.4897 34.5917 68.4402C32.6266 66.7179 30.5807 65.1033 28.7501 63.2465C27.4311 61.9278 26.4081 60.3132 25.3313 58.7793C24.9545 58.2411 24.6045 58.0258 23.9584 58.0527C21.428 58.0796 18.9245 58.0527 16.394 58.0796C15.1288 58.0796 14.5366 58.6717 14.5097 59.9095C14.5097 65.6146 14.5097 71.3197 14.5097 77.0516C14.5097 77.1593 14.5366 77.24 14.5635 77.4284C15.6672 77.4284 16.7709 77.4553 17.8477 77.4015C18.1169 77.3746 18.4668 77.0785 18.6284 76.8094C19.2744 75.5985 19.8667 74.3606 20.4858 73.1496C21.3472 71.4811 22.9355 70.6738 24.5238 71.0506C26.2735 71.4542 27.3772 72.8805 27.3772 74.818C27.3772 75.6523 27.3772 76.4865 27.3772 77.3746C29.8538 77.6437 31.5228 78.8546 32.1151 81.3035C32.2228 81.7341 32.2228 82.1647 32.2228 82.5952C32.2228 86.6587 32.2228 90.7222 32.2228 94.7858C32.2228 97.9881 30.2038 99.9795 27.0004 99.9795C19.759 99.9795 12.4907 99.9795 5.24932 99.9795C1.99205 99.9795 0 97.9881 0 94.705C0 90.6684 0 86.6318 0 82.6221C0 79.4198 2.01897 77.4284 5.2224 77.4284C7.18753 77.4284 9.17958 77.4284 11.2793 77.4284C11.2793 77.0247 11.2793 76.6749 11.2793 76.325C11.2793 70.916 11.2793 65.507 11.2793 60.0979C11.2793 56.8417 13.2714 54.8503 16.5556 54.8503C18.6822 54.8503 20.7819 54.8503 22.9086 54.8503C22.9624 54.8503 23.0432 54.8234 22.9355 54.8503C22.2087 51.6749 21.4818 48.4994 20.7281 45.1894C19.9205 45.1894 18.8976 45.1894 17.8477 45.1894C14.9673 45.1625 12.8945 43.0904 12.8945 40.2109C12.8676 36.4973 12.8945 32.7567 12.8945 28.9892C8.31816 28.3164 4.73785 26.1367 2.26125 22.2615C0.323035 19.113 -0.323035 15.6953 0.269196 12.0086C1.34598 5.0118 7.80668 -0.208862 15.1827 0.00642332C22.3163 0.194798 28.3463 5.95368 29.0193 13.2734C29.6654 20.2432 24.9275 27.6706 16.1787 28.9892C16.1787 30.4962 16.1787 32.0301 16.1787 33.5909C16.1787 35.7169 16.1787 37.8159 16.1787 39.9418C16.1787 41.3681 16.744 41.9332 18.1976 41.9332C19.0591 41.9332 19.9474 41.9332 20.8088 41.9332C20.8627 41.9332 20.9434 41.8794 20.9165 41.8794C22.424 29.1238 28.8309 20.028 41.0793 16.0183C53.3546 12.0086 63.8802 15.6146 72.5752 25.1679C74.0558 23.6609 75.6171 22.1539 77.1246 20.5662C77.3669 20.324 77.4208 19.8396 77.4208 19.4628C77.4477 15.1571 77.4208 10.8783 77.4208 6.49189C79.5474 6.49189 81.6471 6.49189 83.8276 6.49189C83.8276 5.38855 83.8276 4.36595 83.8276 3.26261C86.0081 3.26261 88.1078 3.26261 90.2883 3.26261C90.2883 2.15928 90.2883 1.13667 90.2883 0.0602446C93.5456 0.0602446 96.7221 0.0602446 99.9525 0.0602446C99.9525 7.5145 99.9525 14.9957 99.9525 22.5845C99.6294 22.5845 99.2526 22.5845 98.9026 22.5845C92.8457 22.5845 86.8157 22.6114 80.7588 22.5576C79.9781 22.5576 79.4667 22.7997 78.9283 23.338C77.4477 24.845 75.9402 26.325 74.5673 27.6706C75.6171 30.0387 76.7747 32.2454 77.5284 34.5866C78.2822 36.9278 78.6321 39.4036 79.1975 41.9332C80.032 41.9332 81.028 41.9332 82.024 41.9332C85.039 41.9601 87.0849 43.9784 87.0849 46.9924C87.0849 54.6081 87.0849 62.2508 87.0849 69.8665C87.0849 70.2432 87.0849 70.5931 87.0849 71.0236C91.7689 71.7233 95.4031 73.9838 97.8797 77.9935C99.7909 81.1151 100.41 84.5328 99.7371 88.1388C98.445 95.2432 92.0112 100.302 84.6621 99.9526C77.5554 99.6297 71.5792 93.817 71.0139 86.6049C70.4486 79.5005 75.2941 72.2615 83.8276 70.9967C83.8545 70.7276 83.8815 70.4316 83.8815 70.1356C83.8815 62.5468 83.8815 54.958 83.8815 47.3692C83.8815 45.6469 83.3969 45.1625 81.6741 45.1625C80.8126 45.1356 79.9243 45.1356 79.009 45.1356ZM61.3228 70.9429C61.3228 69.8934 61.4036 68.9515 61.2959 68.0097C61.1882 67.014 61.592 66.5565 62.4265 66.099C71.8484 60.9052 77.017 50.6254 75.5902 39.9957C73.7059 25.8945 60.596 16.0183 46.4094 17.9558C30.123 20.1894 19.9743 37.4122 25.9505 52.7782C28.2656 58.7793 32.3304 63.2734 37.9836 66.3143C38.2797 66.4757 38.7104 66.7449 38.7104 67.014C38.7911 68.3057 38.7373 69.5974 38.7373 70.9429C38.0912 70.9429 37.5528 70.916 37.0144 70.9429C36.1261 71.0236 35.5069 71.6964 35.5339 72.5576C35.5339 73.3918 36.153 74.0645 37.0414 74.1453C37.2298 74.1722 37.4452 74.1453 37.6336 74.1453C45.8979 74.1453 54.1622 74.1453 62.3996 74.1453C62.5881 74.1453 62.8034 74.1453 62.9919 74.1453C63.8802 74.0376 64.4994 73.3918 64.4994 72.5576C64.4994 71.7233 63.8802 71.0236 62.9919 70.9429C62.5073 70.916 61.9689 70.9429 61.3228 70.9429ZM25.8428 14.4844C25.8428 8.29491 20.755 3.20879 14.5635 3.20879C8.37199 3.20879 3.28419 8.26799 3.25727 14.4574C3.23035 20.7007 8.34508 25.7868 14.5904 25.7868C20.7819 25.7599 25.8428 20.6738 25.8428 14.4844ZM85.5236 74.1722C79.3321 74.1722 74.2443 79.2045 74.2173 85.3939C74.1904 91.5834 79.2244 96.6964 85.4159 96.7233C91.6343 96.7771 96.776 91.6641 96.776 85.4478C96.776 79.2583 91.7151 74.1722 85.5236 74.1722ZM24.2276 80.6038C24.2276 78.8816 24.2546 77.2669 24.2007 75.6792C24.2007 75.1948 23.9854 74.7104 23.8777 74.226C23.5816 74.6028 23.2316 74.9257 23.0163 75.3563C22.2356 76.8363 21.4818 78.3433 20.7819 79.8503C20.4858 80.4693 20.1359 80.6308 19.4898 80.6308C14.725 80.6038 9.96025 80.6038 5.19548 80.6308C3.90334 80.6308 3.28419 81.2228 3.28419 82.4338C3.25727 86.6049 3.25727 90.7492 3.28419 94.9203C3.28419 96.1044 3.90334 96.7233 5.0878 96.7233C12.4638 96.7233 19.8667 96.7233 27.2426 96.7233C28.4271 96.7233 29.0732 96.1044 29.0732 94.9203C29.1001 90.7492 29.1001 86.6049 29.0732 82.4338C29.0732 81.1959 28.454 80.6307 27.1888 80.6038C26.2466 80.6038 25.3044 80.6038 24.2276 80.6038ZM50.0435 77.3746C47.1362 77.3746 44.202 77.3746 41.2947 77.3746C41.1062 77.3746 40.8909 77.3746 40.7024 77.3746C39.518 77.4015 38.7911 77.9935 38.7911 78.9623C38.7642 79.9311 39.4911 80.6038 40.6755 80.6038C46.867 80.6038 53.0854 80.6038 59.277 80.6038C60.6229 80.6038 61.3767 80.0118 61.3498 78.9623C61.3228 77.9397 60.596 77.3746 59.2231 77.3746C56.1274 77.3746 53.0854 77.3746 50.0435 77.3746ZM45.2518 90.3186C44.9826 92.8213 45.4941 94.9203 47.8092 96.1582C49.6128 97.127 51.3895 96.9386 53.0047 95.7007C54.8083 94.3283 55.1044 92.4176 54.8083 90.3186C51.578 90.3186 48.4553 90.3186 45.2518 90.3186ZM93.6264 3.26261C93.6264 8.67166 93.6264 13.9731 93.6264 19.2745C94.7031 19.2745 95.7261 19.2745 96.7221 19.2745C96.7221 13.8923 96.7221 8.59092 96.7221 3.26261C95.6722 3.26261 94.6762 3.26261 93.6264 3.26261ZM50.0435 87.0624C52.0625 87.0624 54.0546 87.0624 56.0735 87.0624C57.3387 87.0624 58.0925 86.4704 58.0925 85.4747C58.1194 84.479 57.3657 83.8331 56.1274 83.8331C52.0625 83.8331 48.0246 83.8331 43.9597 83.8331C42.6945 83.8331 41.9677 84.4521 41.9946 85.4747C42.0215 86.4704 42.7483 87.0624 44.0135 87.0624C46.0056 87.0624 48.0246 87.0624 50.0435 87.0624ZM87.1657 6.46498C87.1657 10.7976 87.1657 15.0495 87.1657 19.2745C88.2424 19.2745 89.2654 19.2745 90.2614 19.2745C90.2614 14.9687 90.2614 10.7438 90.2614 6.46498C89.2115 6.46498 88.2155 6.46498 87.1657 6.46498ZM83.8276 19.3014C83.8276 16.0452 83.8276 12.8697 83.8276 9.72117C82.7508 9.72117 81.7279 9.72117 80.7319 9.72117C80.7319 12.9504 80.7319 16.099 80.7319 19.3014C81.7817 19.3014 82.7778 19.3014 83.8276 19.3014Z" fill="#020202"/>
<path d="M61.3227 70.9429C61.9687 70.9429 62.5071 70.916 63.0455 70.9429C63.9339 71.0237 64.553 71.6964 64.553 72.5576C64.553 73.3918 63.9339 74.0646 63.0455 74.1453C62.8571 74.1722 62.6417 74.1453 62.4533 74.1453C54.189 74.1453 45.9247 74.1453 37.6873 74.1453C37.4988 74.1453 37.2835 74.1453 37.095 74.1453C36.2067 74.0376 35.5875 73.3918 35.5875 72.5576C35.5875 71.7233 36.2067 71.0237 37.0681 70.9429C37.6065 70.8891 38.1449 70.9429 38.791 70.9429C38.791 69.5974 38.8179 68.3057 38.764 67.014C38.7371 66.7718 38.3333 66.4757 38.0372 66.3143C32.3841 63.2465 28.3462 58.7524 26.0041 52.7782C19.9742 37.4122 30.0959 20.1894 46.4092 17.9827C60.5958 16.0452 73.7057 25.9214 75.59 40.0226C77.0168 50.6523 71.8482 60.9322 62.4264 66.1259C61.5919 66.5834 61.1881 67.0409 61.2957 68.0366C61.4034 68.9515 61.3227 69.8934 61.3227 70.9429ZM44.0672 22.5845C43.7711 23.3649 43.475 24.1453 43.2327 24.9257C42.9635 25.7868 42.452 25.9214 41.6983 25.5446C41.1868 25.3024 40.6484 25.0872 40.1639 24.7911C39.6255 24.4682 39.3024 24.5759 38.8717 25.0064C36.9335 26.9978 34.9415 28.9623 32.9763 30.9268C32.3572 31.5457 31.3881 32.0839 31.2535 32.8105C31.1189 33.5371 31.7649 34.4521 32.1418 35.2594C32.4379 35.9591 32.2764 36.4165 31.5765 36.6587C30.7689 36.9548 29.9613 37.2508 29.1537 37.5199C29.1537 41.5296 29.1537 45.4854 29.1537 49.4682C29.9613 49.7642 30.742 50.0602 31.5227 50.3294C32.2764 50.5985 32.5187 51.0559 32.1418 51.7825C31.9265 52.24 31.7649 52.7244 31.4957 53.1281C31.0381 53.8008 31.1458 54.2583 31.738 54.8234C33.6762 56.6803 35.5606 58.5909 37.445 60.5016C38.0911 61.1474 38.6564 62.1431 39.4101 62.3046C40.1369 62.4661 41.0522 61.7664 41.8598 61.4165C42.5597 61.0936 43.0173 61.3089 43.2596 62.0355C43.475 62.6813 43.6634 63.3272 43.9326 63.9192C44.0403 64.1614 44.3633 64.4305 44.6056 64.4574C48.4282 64.4844 52.2508 64.4844 56.0733 64.4844C56.3964 63.5963 56.6656 62.789 56.9617 61.9817C57.204 61.3358 57.6616 61.1205 58.3077 61.4435C58.873 61.7126 59.4652 61.9548 60.0305 62.2777C60.5151 62.5468 60.8381 62.493 61.2419 62.0624C63.234 60.0172 65.2798 58.0258 67.2719 56.0075C67.8641 55.4155 68.8063 54.8773 68.914 54.2045C69.0486 53.4779 68.3756 52.6168 68.0256 51.8364C67.6757 51.1098 67.8641 50.6254 68.6448 50.3832C69.4524 50.1141 70.26 49.7911 71.0676 49.522C71.0676 46.3197 71.0676 43.198 71.0676 40.0764C71.0676 37.6006 71.0676 37.6006 68.7255 36.7395C68.6986 36.7395 68.6717 36.7395 68.6179 36.7126C67.891 36.4704 67.6757 36.0398 68.0256 35.3401C68.2679 34.8557 68.4294 34.3444 68.7255 33.8869C69.2101 33.1873 68.9678 32.7298 68.4025 32.1916C66.4105 30.254 64.4453 28.2626 62.4802 26.2981C60.7304 24.5489 60.7304 24.5489 58.4692 25.5715C57.6078 25.9752 57.2309 25.8137 56.9078 24.8988C56.6117 24.1184 56.3425 23.3649 56.0733 22.6383C51.9546 22.5845 48.0244 22.5845 44.0672 22.5845Z" fill="#E09C19"/>
<path d="M25.8429 14.4844C25.8429 20.6738 20.782 25.7599 14.5905 25.7868C8.37205 25.8138 3.25732 20.7007 3.25732 14.4575C3.28424 8.26801 8.37205 3.2088 14.5636 3.2088C20.782 3.23571 25.8429 8.29492 25.8429 14.4844ZM21.9664 10.7976C21.3204 10.0979 20.6205 9.37134 19.8129 8.53711C16.9863 11.3627 14.1867 14.1883 11.1986 17.1754C10.5795 16.3681 10.0141 15.6415 9.44883 14.9418C8.53356 15.8299 7.80674 16.5296 7.2145 17.0947C8.66816 18.5479 10.0949 19.9741 11.4409 21.3197C14.8866 17.8751 18.44 14.3229 21.9664 10.7976Z" fill="#139ED9"/>
<path d="M85.5236 74.1722C91.7151 74.1722 96.776 79.2583 96.776 85.4478C96.776 91.6641 91.6344 96.7771 85.4159 96.7233C79.2244 96.6695 74.1905 91.5834 74.2174 85.3939C74.2443 79.2045 79.3321 74.1453 85.5236 74.1722ZM82.2125 92.3638C85.7928 88.7847 89.3462 85.2325 92.8457 81.7341C92.2266 81.0613 91.5267 80.3078 90.6922 79.3929C87.8387 82.2454 85.0391 85.071 82.0241 88.085C81.4318 87.3584 80.8665 86.6049 80.4358 86.0667C79.5744 86.9009 78.8206 87.6006 78.1207 88.2734C79.4667 89.6189 80.8665 91.0183 82.2125 92.3638Z" fill="#139ED9"/>
<path d="M24.2274 80.6038C25.3042 80.6038 26.2194 80.6038 27.1616 80.6038C28.4268 80.6308 29.046 81.1959 29.046 82.4338C29.0729 86.6049 29.0729 90.7492 29.046 94.9203C29.046 96.1044 28.4268 96.7233 27.2154 96.7233C19.8395 96.7233 12.4366 96.7233 5.06062 96.7233C3.87616 96.7233 3.25701 96.1044 3.25701 94.9203C3.23009 90.7492 3.23009 86.6049 3.25701 82.4338C3.25701 81.2228 3.87616 80.6308 5.1683 80.6308C9.93307 80.6308 14.6978 80.6038 19.4626 80.6308C20.1356 80.6308 20.4855 80.4693 20.7547 79.8503C21.4547 78.3164 22.2084 76.8364 22.9891 75.3563C23.2044 74.9526 23.5544 74.6028 23.8505 74.226C23.9582 74.7104 24.1466 75.1948 24.1735 75.6792C24.2543 77.2938 24.2274 78.8816 24.2274 80.6038ZM6.5412 87.0086C13.0288 87.0086 19.4088 87.0086 25.7887 87.0086C25.7887 85.9321 25.7887 84.9095 25.7887 83.9138C19.328 83.9138 12.9481 83.9138 6.5412 83.9138C6.5412 84.9634 6.5412 85.9591 6.5412 87.0086ZM19.3818 90.3455C15.0478 90.3455 10.8214 90.3455 6.56812 90.3455C6.56812 91.4219 6.56812 92.4445 6.56812 93.4402C10.8753 93.4402 15.1016 93.4402 19.3818 93.4402C19.3818 92.3907 19.3818 91.395 19.3818 90.3455ZM22.693 90.3186C22.693 91.4488 22.693 92.4445 22.693 93.4402C23.7697 93.4402 24.7927 93.4402 25.7887 93.4402C25.7887 92.3638 25.7887 91.3412 25.7887 90.3186C24.7119 90.3186 23.7428 90.3186 22.693 90.3186Z" fill="#E09C19"/>
<path d="M50.0435 77.3746C53.0854 77.3746 56.1542 77.3746 59.1961 77.3746C60.569 77.3746 61.2959 77.9397 61.3228 78.9623C61.3497 79.9849 60.596 80.6039 59.25 80.6039C53.0585 80.6039 46.84 80.6039 40.6485 80.6039C39.491 80.6039 38.7642 79.958 38.7642 78.9623C38.7911 77.9935 39.491 77.4015 40.6755 77.3746C40.8639 77.3746 41.0792 77.3746 41.2677 77.3746C44.2019 77.3746 47.1092 77.3746 50.0435 77.3746Z" fill="#CACFD7"/>
<path d="M45.2521 90.3186C48.4555 90.3186 51.5782 90.3186 54.8086 90.3186C55.0778 92.4176 54.7817 94.3283 53.005 95.7007C51.3898 96.9386 49.6131 97.127 47.8095 96.1582C45.4944 94.9203 44.9829 92.8213 45.2521 90.3186Z" fill="#A8B0BB"/>
<path d="M93.6265 3.2626C94.6763 3.2626 95.6724 3.2626 96.7222 3.2626C96.7222 8.59091 96.7222 13.9192 96.7222 19.2744C95.7262 19.2744 94.7032 19.2744 93.6265 19.2744C93.6265 13.973 93.6265 8.67165 93.6265 3.2626Z" fill="#E09C19"/>
<path d="M50.0438 87.0624C48.0248 87.0624 46.0328 87.0624 44.0138 87.0624C42.7486 87.0624 41.9948 86.4704 41.9948 85.4747C41.9679 84.4521 42.7217 83.8331 43.96 83.8331C48.0248 83.8331 52.0628 83.8331 56.1276 83.8331C57.3928 83.8331 58.1197 84.4521 58.0928 85.4747C58.0658 86.4704 57.339 87.0624 56.0738 87.0624C54.0548 87.0624 52.0358 87.0624 50.0438 87.0624Z" fill="#CACFD6"/>
<path d="M87.1655 6.46497C88.2154 6.46497 89.2114 6.46497 90.2613 6.46497C90.2613 10.7168 90.2613 14.9687 90.2613 19.2744C89.2653 19.2744 88.2423 19.2744 87.1655 19.2744C87.1655 15.0495 87.1655 10.8245 87.1655 6.46497Z" fill="#E09C19"/>
<path d="M83.8277 19.3014C82.7778 19.3014 81.7818 19.3014 80.7319 19.3014C80.7319 16.1259 80.7319 12.9504 80.7319 9.72116C81.728 9.72116 82.7509 9.72116 83.8277 9.72116C83.8277 12.8966 83.8277 16.0452 83.8277 19.3014Z" fill="#E09C19"/>
<path d="M44.0675 22.5845C48.0516 22.5845 51.9549 22.5845 55.9928 22.5845C56.262 23.3111 56.5312 24.0915 56.8273 24.845C57.1773 25.7868 57.5273 25.9214 58.3887 25.5177C60.6499 24.4682 60.6499 24.4682 62.3997 26.2443C64.3648 28.2088 66.33 30.2002 68.322 32.1378C68.8873 32.676 69.1296 33.1334 68.6451 33.8331C68.3489 34.2637 68.1874 34.8019 67.9451 35.2863C67.5952 35.986 67.8105 36.4435 68.5374 36.6587C68.5643 36.6587 68.5912 36.6587 68.6451 36.6857C70.9871 37.5468 70.9871 37.5468 70.9871 40.0226C70.9871 43.1442 70.9871 46.2659 70.9871 49.4682C70.1795 49.7642 69.3719 50.0603 68.5643 50.3294C67.7836 50.5985 67.6221 51.0559 67.9451 51.7825C68.2951 52.5629 68.9681 53.4241 68.8335 54.1507C68.7258 54.8234 67.7836 55.3617 67.1914 55.9537C65.1724 57.972 63.1535 59.9634 61.1614 62.0086C60.7576 62.4122 60.4346 62.493 59.95 62.2239C59.4116 61.9009 58.7925 61.6587 58.2272 61.3896C57.5811 61.0667 57.1235 61.282 56.8812 61.9279C56.5851 62.7352 56.289 63.5694 55.9928 64.4305C52.1703 64.4305 48.3477 64.4305 44.5251 64.4036C44.2828 64.4036 43.9598 64.1076 43.8521 63.8654C43.5829 63.2734 43.3945 62.6006 43.1791 61.9817C42.9368 61.2551 42.5061 61.0667 41.7793 61.3627C40.9717 61.7126 40.0564 62.4122 39.3296 62.2508C38.5759 62.0893 38.0105 61.0936 37.3645 60.4478C35.4532 58.564 33.5957 56.6265 31.6575 54.7696C31.0384 54.1776 30.9576 53.747 31.4152 53.0742C31.6844 52.6706 31.846 52.1593 32.0613 51.7287C32.4382 51.0021 32.1959 50.5446 31.4422 50.2755C30.6615 50.0064 29.8808 49.7104 29.0732 49.4144C29.0732 45.4316 29.0732 41.4758 29.0732 37.4661C29.8808 37.17 30.6884 36.874 31.496 36.6049C32.2228 36.3627 32.3844 35.9052 32.0613 35.2056C31.7114 34.3983 31.0384 33.4833 31.173 32.7567C31.3076 32.057 32.3036 31.4919 32.8958 30.873C34.861 28.9085 36.853 26.944 38.7912 24.9526C39.2219 24.522 39.545 24.4144 40.0834 24.7373C40.5679 25.0333 41.1063 25.2486 41.6178 25.4908C42.3715 25.8676 42.883 25.733 43.1522 24.8719C43.4752 24.1453 43.7713 23.3649 44.0675 22.5845ZM59.8154 28.3164C58.604 29.5274 57.3388 29.2314 55.9121 28.5855C54.8622 28.1281 54.1623 27.6168 53.9469 26.4865C53.8662 26.029 53.6508 25.7599 53.0586 25.7599C51.0127 25.8138 48.9668 25.7599 46.9209 25.7868C46.6517 25.7868 46.1941 26.0829 46.1672 26.2981C45.898 27.6168 45.0366 28.1819 43.8252 28.6932C42.6138 29.2045 41.6716 29.3121 40.5948 28.6125C40.4064 28.4779 39.9218 28.5586 39.7603 28.7201C38.1182 30.3078 36.5031 31.9225 34.8879 33.5371C34.9956 33.8062 35.0494 34.0215 35.184 34.2099C35.857 35.1787 35.7762 36.0667 35.2917 37.17C34.7533 38.381 34.2687 39.4305 32.7881 39.6727C32.5728 39.6996 32.3036 40.184 32.3036 40.4531C32.2498 42.3907 32.3305 44.3552 32.2498 46.2928C32.2228 46.9924 32.4382 47.3692 33.1112 47.4768C34.1341 47.6383 34.5918 48.2841 35.0225 49.226C35.6955 50.7061 36.0454 52.0247 34.8879 53.2626C36.6915 55.0656 38.4413 56.7879 40.2718 58.6448C41.4293 57.5145 42.7215 57.7567 44.1751 58.4295C45.1712 58.887 45.8711 59.3713 46.0595 60.4747C46.1403 61.0667 46.4902 61.2551 47.1094 61.2282C49.0207 61.1744 50.932 61.1744 52.8432 61.2282C53.5701 61.2551 53.8931 61.0129 54.0277 60.3401C54.2161 59.4521 54.6738 58.9139 55.589 58.5102C57.1235 57.8374 58.4964 57.38 59.8962 58.6986C61.4037 57.1916 62.7766 55.7115 64.2572 54.339C64.984 53.6663 65.2532 53.1012 64.634 52.24C64.1226 51.5673 64.1495 50.8945 64.6071 50.2217C64.7686 49.9795 64.9032 49.6835 64.9571 49.3875C65.1993 48.2303 65.8723 47.5845 67.003 47.423C67.6221 47.3423 67.7567 46.9386 67.7567 46.3466C67.7298 44.4359 67.7029 42.5253 67.7567 40.6146C67.7836 39.9688 67.5683 39.6458 66.9491 39.4575C66.4107 39.296 65.6301 39.1345 65.4685 38.7578C64.8225 37.1431 63.4765 35.5285 65.0378 33.6986C65.0647 33.6717 65.0378 33.564 65.0378 33.564C63.3688 31.8956 61.6729 30.2002 59.8154 28.3164Z" fill="#040302"/>
<path d="M21.9663 10.7976C18.4398 14.3229 14.8864 17.8751 11.4407 21.3197C10.0948 19.9741 8.66801 18.5479 7.21436 17.0947C7.77967 16.5296 8.53342 15.8299 9.44868 14.9418C9.98707 15.6415 10.5793 16.3681 11.1985 17.1754C14.1865 14.1883 16.9862 11.3627 19.8127 8.53711C20.5934 9.37134 21.2933 10.0979 21.9663 10.7976Z" fill="#070403"/>
<path d="M82.2124 92.3638C80.8664 91.0183 79.4666 89.6189 78.1206 88.2734C78.8205 87.6006 79.5743 86.9009 80.4357 86.0667C80.8664 86.6049 81.4317 87.3315 82.0239 88.085C85.0389 85.071 87.8386 82.2454 90.6921 79.3929C91.5266 80.2809 92.2265 81.0344 92.8456 81.7341C89.3461 85.2325 85.7927 88.7847 82.2124 92.3638Z" fill="#070403"/>
<path d="M6.5415 87.0086C6.5415 85.9591 6.5415 84.9634 6.5415 83.9138C12.9484 83.9138 19.3283 83.9138 25.789 83.9138C25.789 84.9095 25.789 85.9321 25.789 87.0086C19.4091 87.0086 13.0291 87.0086 6.5415 87.0086Z" fill="black"/>
<path d="M19.3821 90.3455C19.3821 91.395 19.3821 92.3907 19.3821 93.4402C15.1288 93.4402 10.8755 93.4402 6.56836 93.4402C6.56836 92.4176 6.56836 91.4219 6.56836 90.3455C10.7947 90.3455 15.048 90.3455 19.3821 90.3455Z" fill="black"/>
<path d="M22.6934 90.3186C23.7432 90.3186 24.7123 90.3186 25.7891 90.3186C25.7891 91.3412 25.7891 92.3638 25.7891 93.4402C24.7931 93.4402 23.7971 93.4402 22.6934 93.4402C22.6934 92.4445 22.6934 91.4489 22.6934 90.3186Z" fill="black"/>
<path d="M59.8153 28.3164C61.6728 30.1733 63.3687 31.8955 65.0916 33.6447C65.0916 33.6447 65.1185 33.7524 65.0916 33.7793C63.5302 35.5823 64.8762 37.2238 65.5223 38.8385C65.6838 39.2152 66.4644 39.3767 67.0028 39.5382C67.622 39.7265 67.8104 40.0495 67.8104 40.6953C67.7566 42.606 67.7566 44.5166 67.8104 46.4273C67.8104 47.0193 67.6758 47.3961 67.0567 47.5037C65.8991 47.6652 65.2261 48.3379 65.0108 49.4682C64.957 49.7642 64.8224 50.0602 64.6608 50.3024C64.2032 51.0021 64.1763 51.6749 64.6878 52.3207C65.3338 53.155 65.0646 53.747 64.3109 54.4198C62.8303 55.7922 61.4574 57.2454 59.9499 58.7793C58.5501 57.4607 57.1772 57.9181 55.6428 58.5909C54.7275 58.9946 54.2699 59.5328 54.0814 60.4208C53.9468 61.0667 53.6238 61.3358 52.897 61.3089C50.9857 61.2551 49.0744 61.2551 47.1631 61.3089C46.5439 61.3358 46.194 61.1474 46.1132 60.5554C45.9517 59.452 45.2249 58.9677 44.2289 58.5102C42.7752 57.8374 41.4831 57.5952 40.3255 58.7255C38.495 56.8955 36.7452 55.1463 34.9416 53.3433C36.0991 52.1054 35.7492 50.7868 35.0762 49.3067C34.6455 48.3649 34.1878 47.719 33.1649 47.5575C32.4919 47.4499 32.2766 47.0731 32.3035 46.3735C32.3573 44.4359 32.3035 42.4714 32.3573 40.5339C32.3573 40.2648 32.6265 39.7804 32.8419 39.7534C34.3224 39.5112 34.807 38.4617 35.3454 37.2508C35.8299 36.1474 35.9107 35.2594 35.2377 34.2906C35.1031 34.1022 35.0493 33.86 34.9416 33.6178C36.5837 32.0032 38.1719 30.3616 39.814 28.8008C39.9756 28.6393 40.4601 28.5855 40.6486 28.6932C41.7253 29.3928 42.6944 29.2852 43.8789 28.7739C45.0903 28.2626 45.9517 27.6975 46.2209 26.3789C46.2747 26.1636 46.7055 25.8675 46.9747 25.8675C49.0205 25.8137 51.0664 25.8675 53.1123 25.8406C53.6776 25.8406 53.9199 26.1097 54.0007 26.5672C54.1891 27.6975 54.9159 28.2088 55.9658 28.6663C57.3656 29.2314 58.6039 29.5543 59.8153 28.3164ZM50.0166 30.6307C42.9367 30.6307 37.149 36.4165 37.149 43.494C37.149 50.6254 42.9367 56.4381 50.0704 56.4381C57.1772 56.4381 62.9649 50.5984 62.938 43.4671C62.9111 36.3896 57.0964 30.6307 50.0166 30.6307Z" fill="#FE5023"/>
<path d="M50.0165 30.6308C57.0963 30.6308 62.911 36.3896 62.9379 43.4672C62.9648 50.5985 57.1771 56.4381 50.0703 56.4381C42.9636 56.4381 37.1489 50.6254 37.1489 43.4941C37.1489 36.4166 42.9366 30.6308 50.0165 30.6308ZM40.3524 43.4941C40.3254 48.8224 44.6595 53.1819 49.9896 53.2088C55.3197 53.2357 59.6806 48.9031 59.7075 43.5748C59.7345 38.2465 55.4004 33.887 50.0703 33.86C44.7672 33.8331 40.3793 38.1658 40.3524 43.4941Z" fill="#040301"/>
<path d="M40.3525 43.4941C40.3795 38.1927 44.7404 33.86 50.0705 33.86C55.3737 33.887 59.7077 38.2465 59.7077 43.5748C59.6808 48.8762 55.3198 53.2357 49.9898 53.2088C44.6866 53.1819 40.3525 48.7955 40.3525 43.4941ZM49.9898 37.0893C46.4364 37.1162 43.556 40.0226 43.5829 43.6017C43.6098 47.1001 46.5171 49.9795 50.0167 49.9795C53.5701 49.9795 56.4774 47.0732 56.4774 43.521C56.4774 39.9688 53.5701 37.0624 49.9898 37.0893Z" fill="#FE5023"/>
<path d="M49.9896 37.0893C53.543 37.0624 56.4772 39.9687 56.4772 43.5209C56.4772 47.0731 53.5699 49.9795 50.0165 49.9795C46.5169 49.9795 43.6096 47.1001 43.5827 43.6017C43.5558 40.0226 46.4362 37.0893 49.9896 37.0893ZM50.0165 40.2917C48.2667 40.2917 46.8131 41.7179 46.7861 43.4671C46.7592 45.2432 48.2398 46.7502 50.0165 46.7502C51.7663 46.7502 53.2199 45.324 53.2468 43.5748C53.2738 41.7987 51.8201 40.2917 50.0165 40.2917Z" fill="#030302"/>
<path d="M50.0168 40.2917C51.7935 40.2917 53.2741 41.7718 53.2472 43.5748C53.2203 45.324 51.7666 46.7502 50.0168 46.7502C48.2402 46.7502 46.7596 45.2702 46.7865 43.4671C46.8403 41.7449 48.294 40.3186 50.0168 40.2917Z" fill="#E09C19"/>
</svg>
