<svg width="31" height="34" viewBox="0 0 31 34" fill="none" xmlns="http://www.w3.org/2000/svg">
<path opacity="0.4" d="M15.0339 29.335C14.5339 29.635 13.9339 29.735 13.3339 29.735C11.6339 29.735 10.2339 27.935 9.13387 26.235C7.03387 23.235 6.13387 19.535 6.63387 15.835C6.73387 14.935 7.13387 13.9351 7.63387 13.1351C8.73387 11.3351 10.6339 10.1351 12.8339 9.93506C13.7339 9.93506 14.6339 10.135 15.5339 10.535C16.3339 10.835 17.2339 11.0351 18.1339 11.1351C18.9339 11.1351 19.7339 10.9351 20.5339 10.6351C21.4339 10.2351 22.4339 10.035 23.4339 10.035C25.0339 10.135 26.5339 10.8351 27.6339 11.9351L27.7339 12.035L27.6339 12.1351C26.5339 12.9351 25.7339 13.935 25.3339 15.235C24.2339 18.435 25.5339 21.935 28.6339 23.535H28.7339V23.6351C28.3339 24.5351 27.8339 25.435 27.3339 26.235C26.2339 27.935 24.7339 29.9351 23.0339 29.9351C22.4339 29.9351 21.9339 29.735 21.3339 29.535C20.4339 29.035 19.4339 28.835 18.3339 28.835C17.0339 28.635 16.0339 28.835 15.0339 29.335Z" fill="black"/>
<path d="M16.5798 9.2C16.3798 9.2 16.1798 9.1 16.0798 9C15.8798 8.9 15.7798 8.7 15.7798 8.4C15.6798 4.9 18.1798 1.7 21.6798 1C21.8798 1 22.1798 1 22.3798 1.2C22.5798 1.3 22.6798 1.6 22.6798 1.8C22.6798 5.4 20.2798 8.5 16.7798 9.2H16.5798ZM20.9798 2.9C19.0798 3.6 17.7798 5.3 17.4798 7.3C19.2798 6.6 20.6798 4.9 20.9798 2.9Z" fill="black" stroke="black" stroke-width="0.5"/>
<path d="M22.5587 33.0131C21.2587 33.0131 19.9587 32.7131 18.7587 32.2131C18.0587 31.9131 17.3587 31.7131 16.5587 31.7131C15.7587 31.7131 15.0587 31.9131 14.3587 32.2131C13.1587 32.7131 11.8587 33.0131 10.5587 33.0131C7.55874 33.0131 2.45874 25.7131 2.45874 18.3131C2.55874 11.4131 6.85874 8.91309 10.6587 8.91309C11.7587 8.91309 12.8587 9.21309 13.8587 9.61309C14.6587 10.0131 15.5587 10.2131 16.5587 10.2131C17.5587 10.2131 18.4587 10.0131 19.3587 9.61309C20.3587 9.21309 21.4587 8.91309 22.5587 8.91309C24.7587 8.91309 26.8587 9.81309 28.3587 11.4131C28.5587 11.6131 28.6587 11.8131 28.5587 12.1131C28.5587 12.3131 28.3587 12.5131 28.1587 12.7131C26.3587 13.7131 25.2587 15.6131 25.2587 17.7131C25.2587 20.0131 26.5587 22.1131 28.7587 22.9131C29.1587 23.1131 29.3587 23.5131 29.1587 23.9131C27.7587 28.3131 24.9587 33.0131 22.5587 33.0131ZM16.5587 30.1131C17.5587 30.1131 18.4587 30.3131 19.3587 30.7131C20.3587 31.2131 21.4587 31.4131 22.5587 31.4131C23.5587 31.4131 25.9587 28.5131 27.5587 24.0131C25.1587 22.8131 23.7587 20.3131 23.7587 17.6131C23.7587 15.4131 24.8587 13.2131 26.5587 11.9131C25.4587 11.0131 24.0587 10.5131 22.5587 10.5131C21.6587 10.5131 20.7587 10.7131 19.9587 11.1131C18.8587 11.6131 17.6587 11.8131 16.5587 11.9131C15.3587 11.9131 14.2587 11.6131 13.1587 11.2131C12.3587 10.8131 11.4587 10.6131 10.5587 10.5131C9.45874 10.5131 4.15874 10.9131 4.15874 18.3131C4.15874 25.5131 9.05874 31.4131 10.6587 31.4131C11.7587 31.4131 12.8587 31.2131 13.8587 30.7131C14.6587 30.3131 15.5587 30.1131 16.5587 30.1131Z" fill="black" stroke="black" stroke-width="0.5"/>
<path d="M3.43384 9.13501C4.81455 9.13501 5.93384 8.01572 5.93384 6.63501C5.93384 5.2543 4.81455 4.13501 3.43384 4.13501C2.05313 4.13501 0.933838 5.2543 0.933838 6.63501C0.933838 8.01572 2.05313 9.13501 3.43384 9.13501Z" fill="black"/>
<path d="M8.03394 3.63501C8.58622 3.63501 9.03394 3.18729 9.03394 2.63501C9.03394 2.08272 8.58622 1.63501 8.03394 1.63501C7.48165 1.63501 7.03394 2.08272 7.03394 2.63501C7.03394 3.18729 7.48165 3.63501 8.03394 3.63501Z" fill="black"/>
<path d="M29.2338 32.9349C30.1175 32.9349 30.8338 32.2185 30.8338 31.3348C30.8338 30.4512 30.1175 29.7349 29.2338 29.7349C28.3501 29.7349 27.6338 30.4512 27.6338 31.3348C27.6338 32.2185 28.3501 32.9349 29.2338 32.9349Z" fill="black"/>
</svg>
