<svg width="18" height="18" viewBox="0 0 18 18" fill="none" xmlns="http://www.w3.org/2000/svg">
<path d="M12.7832 17.5623C13.5599 17.5623 14.1895 16.9325 14.1895 16.1555C14.1895 15.3786 13.5599 14.7487 12.7832 14.7487C12.0066 14.7487 11.377 15.3786 11.377 16.1555C11.377 16.9325 12.0066 17.5623 12.7832 17.5623Z" fill="#999999"/>
<path d="M12.7837 14.7493C12.4108 14.7493 12.0532 14.8974 11.7895 15.1611C11.5258 15.4248 11.3776 15.7825 11.3774 16.1555C11.3774 16.3403 11.4137 16.5233 11.4843 16.6941C11.555 16.8648 11.6585 17.02 11.7891 17.1507C11.9197 17.2814 12.0747 17.385 12.2454 17.4558C12.416 17.5265 12.599 17.5629 12.7837 17.5629C12.8771 17.5622 12.9701 17.5522 13.0615 17.5331C12.7446 17.4676 12.46 17.2947 12.2557 17.0436C12.0513 16.7926 11.9398 16.4787 11.9399 16.155C11.9404 15.8306 12.0528 15.5164 12.2582 15.2654C12.4636 15.0145 12.7494 14.8423 13.0672 14.778C12.9739 14.7588 12.8789 14.7492 12.7837 14.7493Z" fill="white"/>
<path d="M12.783 14.7493C13.1559 14.7493 13.5135 14.8974 13.7772 15.1611C14.0409 15.4248 14.1891 15.7825 14.1892 16.1555C14.1893 16.3403 14.153 16.5233 14.0824 16.6941C14.0117 16.8648 13.9082 17.02 13.7776 17.1507C13.647 17.2814 13.4919 17.385 13.3213 17.4558C13.1506 17.5265 12.9677 17.5629 12.783 17.5629C12.6896 17.5622 12.5965 17.5522 12.5051 17.5331C12.8221 17.4676 13.1067 17.2947 13.311 17.0436C13.5153 16.7926 13.6268 16.4787 13.6267 16.155C13.6264 15.8306 13.5141 15.5161 13.3087 15.2651C13.1032 15.014 12.8174 14.8418 12.4995 14.7774C12.5928 14.7585 12.6878 14.749 12.783 14.7493Z" fill="#999999"/>
<path d="M12.7833 17.7188C13.6464 17.7188 14.346 17.0189 14.346 16.1555C14.346 15.2922 13.6464 14.5923 12.7833 14.5923C11.9203 14.5923 11.2207 15.2922 11.2207 16.1555C11.2207 17.0189 11.9203 17.7188 12.7833 17.7188Z" stroke="black" stroke-width="0.5625"/>
<path d="M15.0352 5.34375L13.5024 10.6335C13.4073 10.962 13.2279 11.25 12.8859 11.25H5.76465L5.96601 12.0938H14.0024L16.0336 5.34375H15.0352Z" fill="white"/>
<path d="M1.97119 3.66125H3.78582L5.79677 12.0937H14.0025L14.5104 10.4062L15.0184 8.71874L15.1522 8.27318M15.5257 7.03124L16.0337 5.34374H4.63744" stroke="black" stroke-width="0.5625" stroke-linecap="round" stroke-linejoin="round"/>
<path d="M3.78564 3.64999L6.41533 14.5985H12.9133" stroke="black" stroke-width="0.5625" stroke-linecap="round" stroke-linejoin="round"/>
<path d="M6.59619 17.5623C7.37284 17.5623 8.00244 16.9325 8.00244 16.1555C8.00244 15.3786 7.37284 14.7487 6.59619 14.7487C5.81954 14.7487 5.18994 15.3786 5.18994 16.1555C5.18994 16.9325 5.81954 17.5623 6.59619 17.5623Z" fill="#999999"/>
<path d="M8.43994 7.03125H15.5274M9.56494 8.71875H15.1899M10.6899 10.4062H14.6274" stroke="black" stroke-width="0.5625"/>
<path d="M9.47606 0.5625V1.44896C9.08432 1.53691 8.71026 1.69039 8.36963 1.9029L7.74694 1.27853L6.62476 2.40072L7.25139 3.02563C7.03793 3.36535 6.88329 3.73866 6.79405 4.12983H5.90869V5.0625H8.03214C8.02933 5.01525 8.01807 4.97025 8.01807 4.92188C8.01807 3.68269 9.02888 2.67188 10.2681 2.67188C11.5073 2.67188 12.5181 3.68269 12.5181 4.92188C12.5181 4.97025 12.5068 5.01525 12.504 5.0625H14.6274V4.12983H13.7409C13.653 3.73809 13.4995 3.36407 13.287 3.02344L13.9114 2.40072L12.7892 1.27908L12.1648 1.90517C11.8249 1.69164 11.4514 1.53704 11.0601 1.44786V0.5625H9.47606Z" fill="#999999"/>
<path d="M6.59668 14.7493C6.22382 14.7493 5.86619 14.8974 5.60249 15.1611C5.33878 15.4248 5.19058 15.7825 5.19043 16.1555C5.19036 16.3403 5.22667 16.5233 5.29731 16.6941C5.36794 16.8648 5.47152 17.02 5.60211 17.1507C5.7327 17.2814 5.88773 17.385 6.05838 17.4558C6.22903 17.5265 6.41196 17.5629 6.59668 17.5629C6.69006 17.5622 6.78313 17.5522 6.87453 17.5331C6.55761 17.4676 6.27298 17.2947 6.06865 17.0436C5.86432 16.7926 5.75283 16.4787 5.75293 16.155C5.75336 15.8306 5.86577 15.5164 6.07119 15.2654C6.27661 15.0145 6.56239 14.8423 6.88016 14.778C6.78688 14.7588 6.69191 14.7492 6.59668 14.7493Z" fill="white"/>
<path d="M6.59598 14.7493C6.96884 14.7493 7.32647 14.8974 7.59018 15.1611C7.85388 15.4248 8.00208 15.7825 8.00223 16.1555C8.00231 16.3403 7.96599 16.5233 7.89536 16.6941C7.82472 16.8648 7.72114 17.02 7.59055 17.1507C7.45996 17.2814 7.30493 17.385 7.13428 17.4558C6.96363 17.5265 6.7807 17.5629 6.59598 17.5629C6.5026 17.5622 6.40954 17.5522 6.31813 17.5331C6.63505 17.4676 6.91965 17.2947 7.12398 17.0436C7.32831 16.7926 7.43983 16.4787 7.43973 16.155C7.43944 15.8306 7.32707 15.5161 7.12164 15.2651C6.91621 15.014 6.63036 14.8418 6.3125 14.7774C6.4058 14.7585 6.50077 14.749 6.59598 14.7493Z" fill="#999999"/>
<path d="M6.59584 17.7188C7.45885 17.7188 8.15847 17.0189 8.15847 16.1555C8.15847 15.2922 7.45885 14.5923 6.59584 14.5923C5.73282 14.5923 5.0332 15.2922 5.0332 16.1555C5.0332 17.0189 5.73282 17.7188 6.59584 17.7188Z" stroke="black" stroke-width="0.5625"/>
<path d="M9.47606 0.5625V1.44899C9.22068 1.50637 8.97768 1.60089 8.742 1.7117L8.93213 1.90294C9.27276 1.69042 9.64682 1.53695 10.0386 1.44899V0.5625H9.47606ZM7.74694 1.27857L6.62476 2.40075L7.25139 3.02512C7.03787 3.36501 6.88323 3.7385 6.79405 4.12986H7.35655C7.44579 3.7387 7.60043 3.36542 7.81389 3.0257L7.18726 2.40075L8.02819 1.55982L7.74694 1.27857ZM12.7892 1.27857L12.3555 1.71394C12.4815 1.77356 12.6086 1.83095 12.7267 1.9052L13.0704 1.55982L12.7892 1.27857ZM10.8306 2.67188C10.7344 2.67188 10.6427 2.68874 10.5493 2.69999C11.6552 2.84062 12.5181 3.77887 12.5181 4.92188C12.5181 4.97025 12.5068 5.01525 12.504 5.0625H13.0665C13.0693 5.01525 13.0806 4.97025 13.0806 4.92188C13.0806 3.68269 12.0698 2.67188 10.8306 2.67188ZM5.90869 4.12986V5.0625H6.47119V4.12986H5.90869Z" fill="white"/>
<path d="M8.01807 4.92188C8.01807 3.68269 9.02888 2.67188 10.2681 2.67188C11.5073 2.67188 12.5181 3.68269 12.5181 4.92188M14.6274 5.0625V4.12983H13.7409C13.653 3.73809 13.4995 3.36407 13.287 3.02344L13.9114 2.40072L12.7892 1.27908L12.1648 1.90517C11.8249 1.69164 11.4514 1.53704 11.0601 1.44786V0.5625H9.47606V1.44896C9.08432 1.53691 8.71026 1.69039 8.36963 1.9029L7.74694 1.27853L6.62476 2.40072L7.25139 3.02563C7.03793 3.36535 6.88329 3.73866 6.79405 4.12983H5.90869V5.0625" stroke="black" stroke-width="0.5625" stroke-linecap="square" stroke-linejoin="round"/>
</svg>
