<svg width="28" height="30" viewBox="0 0 28 30" fill="none" xmlns="http://www.w3.org/2000/svg">
<path d="M8.76025 21.3L15.6602 14.2H23.1602L11.7603 25.3L8.76025 21.3Z" fill="#AFCCFF"/>
<path d="M6.2001 19.202L2.1001 15.102L15.4001 1.802H23.6001M23.6001 14.102H15.4001L12.3001 17.202L16.4001 21.302" stroke="black" stroke-width="2"/>
<path d="M12.3003 25.3019L15.4003 28.4019H23.6003L16.4003 21.2019" stroke="black" stroke-width="2"/>
<path d="M8.2002 21.2021L12.3002 17.1021L16.4002 21.2021L12.3002 25.3021L8.2002 21.2021Z" stroke="black" stroke-width="2"/>
<path d="M24.2002 13.802L16.2002 22.002" stroke="black" stroke-width="2"/>
<path d="M5.76013 6.09996C6.42287 6.09996 6.96008 5.56269 6.96008 4.89995C6.96008 4.23721 6.42287 3.69995 5.76013 3.69995C5.09739 3.69995 4.56006 4.23721 4.56006 4.89995C4.56006 5.56269 5.09739 6.09996 5.76013 6.09996Z" fill="#3880FF"/>
<path d="M24.8602 24.6C25.523 24.6 26.0602 24.0627 26.0602 23.3999C26.0602 22.7372 25.523 22.2 24.8602 22.2C24.1975 22.2 23.6602 22.7372 23.6602 23.3999C23.6602 24.0627 24.1975 24.6 24.8602 24.6Z" fill="#3880FF"/>
<path d="M27.1602 25.1001C27.4363 25.1001 27.6602 24.8762 27.6602 24.6001C27.6602 24.324 27.4363 24.1001 27.1602 24.1001C26.884 24.1001 26.6602 24.324 26.6602 24.6001C26.6602 24.8762 26.884 25.1001 27.1602 25.1001Z" fill="#3880FF"/>
</svg>
