<svg xmlns="http://www.w3.org/2000/svg" width="1094.039" height="2386.442" viewBox="0 0 1094.039 2386.442">
  <g id="Group_3306" data-name="Group 3306" transform="translate(-160.715 -2099.212)">
    <path id="Path_4002" data-name="Path 4002" d="M1103.672,2187.538s-617.586-246.565-821.883,93.929S134.587,2766.291,462.6,2917.84s889.982,49.313,774.918,392.156S544.042,3677.748,300.574,3890.01s480.642,593.747,480.642,593.747" fill="none" stroke="#707070" stroke-width="4" stroke-dasharray="10 10" opacity="0.1"/>
    <g id="Group_2959" data-name="Group 2959" transform="translate(277.449 2315.381) rotate(-3)">
      <g id="Path_4004" data-name="Path 4004" transform="translate(-62.84 101.332) rotate(-99)" fill="#eee">
        <path d="M 7.989590644836426 25.33111953735352 C 7.989433765411377 25.33111953735352 7.989502429962158 25.33111953735352 7.989345073699951 25.33111953735352 C 6.564035415649414 25.33105087280273 5.234515190124512 24.74308967590332 4.245675086975098 23.67554092407227 L -0.7332247495651245 18.30669021606445 L -1.298084735870361 17.69758987426758 L -0.8029047250747681 17.03061103820801 L 12.2835054397583 -0.5960997343063354 L 14.23374557495117 -3.222969770431519 L 14.0853853225708 0.04535028338432312 L 13.16097545623779 20.40987968444824 C 13.09752559661865 21.8119010925293 12.49887561798096 23.08761024475098 11.47530555725098 24.00189018249512 C 10.51572227478027 24.85900497436523 9.277670860290527 25.33111953735352 7.989590644836426 25.33111953735352 Z" stroke="none"/>
        <path d="M 13.08640480041504 0 L -4.76837158203125e-06 17.626708984375 L 4.979314804077148 22.99600028991699 C 7.479897499084473 25.69564056396484 11.99564552307129 24.04039001464844 12.16200542449951 20.36453056335449 L 13.08640480041504 0 M 15.38106536865234 -6.445938110351563 L 14.15994548797607 20.45521926879883 C 14.08423519134521 22.12813949584961 13.3673849105835 23.65266036987305 12.14145565032959 24.74765968322754 C 10.99826526641846 25.76877021789551 9.52370548248291 26.33111953735352 7.989395141601563 26.33111953735352 C 6.282425403594971 26.33111953735352 4.69234561920166 25.62935066223145 3.512035369873047 24.35507965087891 L -2.596184730529785 17.76847076416016 L 15.38106536865234 -6.445938110351563 Z" stroke="none" fill="#fff"/>
      </g>
      <g id="Path_4003" data-name="Path 4003" transform="translate(-96.028 145.698) rotate(-99)" fill="#eee">
        <path d="M 23.78577995300293 66.73876953125 C 22.5211009979248 66.73876953125 21.30471992492676 66.36753082275391 20.26814079284668 65.66519165039063 C 19.16535949707031 64.91799163818359 18.34819030761719 63.84277725219727 17.90497016906738 62.5557975769043 L -0.5854597687721252 8.807699203491211 C -1.373169779777527 6.518838882446289 -1.025599718093872 4.085558891296387 0.3681802451610565 2.131888866424561 C 1.767240285873413 0.1707988232374191 4.011200428009033 -1.000001192092896 6.370780467987061 -1.000001192092896 C 7.227470397949219 -1.000001192092896 8.083610534667969 -0.8475111722946167 8.915420532226563 -0.5467911958694458 L 70.20513916015625 21.59521865844727 C 72.10459899902344 22.28152847290039 73.30684661865234 24.02950859069824 73.26805877685547 26.04842948913574 C 73.22927856445313 28.06667900085449 71.96121978759766 29.76660919189453 70.03752899169922 30.37919807434082 L 54.31373977661133 35.39133834838867 C 53.46537017822266 35.66196823120117 52.58354187011719 35.79922866821289 51.69293975830078 35.79924011230469 C 49.90388107299805 35.79927825927734 48.1851921081543 35.25494766235352 46.72267913818359 34.22509765625 L 21.15322875976563 16.23571586608887 L 42.28398132324219 35.47489929199219 C 43.55514144897461 36.63404846191406 44.34698867797852 38.21442794799805 44.51422882080078 39.92543792724609 C 44.68149948120117 41.63669967651367 44.21044158935547 43.33995056152344 43.18780899047852 44.72143936157227 L 28.75023078918457 64.22615814208984 C 27.56912040710449 65.82286834716797 25.75958061218262 66.73876953125 23.78577995300293 66.73876953125 Z" stroke="none"/>
        <path d="M 23.78578567504883 65.73876953125 C 25.33048248291016 65.73876953125 26.88775062561035 65.06246185302734 27.94647407531738 63.63120651245117 L 42.38405227661133 44.12647247314453 C 44.19324111938477 41.68241500854492 43.85909652709961 38.26457214355469 41.61074066162109 36.21432876586914 L 8.709074974060059 6.257938861846924 L 47.29841995239258 33.407470703125 C 49.25080871582031 34.78225708007813 51.73544692993164 35.16416168212891 54.01004028320313 34.43856048583984 L 69.73410034179688 29.42634963989258 C 73.04695129394531 28.37138366699219 73.13525390625 23.71718406677246 69.86537170410156 22.53572845458984 L 8.575419425964355 0.3936388194561005 C 3.525004863739014 -1.432261109352112 -1.38699197769165 3.405727863311768 0.3601524829864502 8.482394218444824 L 18.8504753112793 62.23017120361328 C 19.63369750976563 64.50443267822266 21.69840812683105 65.73876953125 23.78578567504883 65.73876953125 M 23.78578567504883 67.73876953125 C 22.32034111022949 67.73876953125 20.90999603271484 67.30800628662109 19.70722007751465 66.49304962158203 C 18.42386436462402 65.62350463867188 17.47370719909668 64.37461853027344 16.95947456359863 62.88140487670898 L -1.531058669090271 9.133005142211914 C -2.425247430801392 6.534794330596924 -2.029736518859863 3.771227598190308 -0.4458919763565063 1.551116585731506 C 1.14045250415802 -0.6724722981452942 3.688730239868164 -1.999994516372681 6.370774745941162 -1.999994516372681 C 7.343719005584717 -1.999994516372681 8.314252853393555 -1.827472329139709 9.25540828704834 -1.487216711044312 L 70.544921875 20.65471649169922 C 72.85372161865234 21.48891639709473 74.31503295898438 23.61360549926758 74.26787567138672 26.0676383972168 C 74.22073364257813 28.52100563049316 72.67932891845703 30.58741569519043 70.34096527099609 31.33206176757813 L 54.61745071411133 36.34409332275391 C 53.6709098815918 36.64604949951172 52.68682098388672 36.79922866821289 51.69295120239258 36.79924011230469 C 49.69667434692383 36.79928207397461 47.77889633178711 36.19189453125 46.14693069458008 35.04273986816406 L 33.59732437133789 26.21346282958984 L 42.95720672607422 34.7354736328125 C 44.4121208190918 36.06218338012695 45.31813049316406 37.87042617797852 45.50948715209961 39.82815933227539 C 45.70089721679688 41.78638458251953 45.16181945800781 43.7354850769043 43.99155426025391 45.31640625 L 29.55399703979492 64.82110595703125 C 28.18254089355469 66.67514038085938 26.07997512817383 67.73876953125 23.78578567504883 67.73876953125 Z" stroke="none" fill="#fff"/>
      </g>
    </g>
    <g id="Group_2960" data-name="Group 2960" transform="translate(756.097 2983.696) rotate(-109)">
      <g id="Path_4004-2" data-name="Path 4004" transform="translate(-62.84 101.332) rotate(-99)" fill="#eee">
        <path d="M 7.989590644836426 25.33111953735352 C 7.989433765411377 25.33111953735352 7.989502429962158 25.33111953735352 7.989345073699951 25.33111953735352 C 6.564035415649414 25.33105087280273 5.234515190124512 24.74308967590332 4.245675086975098 23.67554092407227 L -0.7332247495651245 18.30669021606445 L -1.298084735870361 17.69758987426758 L -0.8029047250747681 17.03061103820801 L 12.2835054397583 -0.5960997343063354 L 14.23374557495117 -3.222969770431519 L 14.0853853225708 0.04535028338432312 L 13.16097545623779 20.40987968444824 C 13.09752559661865 21.8119010925293 12.49887561798096 23.08761024475098 11.47530555725098 24.00189018249512 C 10.51572227478027 24.85900497436523 9.277670860290527 25.33111953735352 7.989590644836426 25.33111953735352 Z" stroke="none"/>
        <path d="M 13.08640480041504 0 L -4.76837158203125e-06 17.626708984375 L 4.979314804077148 22.99600028991699 C 7.479897499084473 25.69564056396484 11.99564552307129 24.04039001464844 12.16200542449951 20.36453056335449 L 13.08640480041504 0 M 15.38106536865234 -6.445938110351563 L 14.15994548797607 20.45521926879883 C 14.08423519134521 22.12813949584961 13.3673849105835 23.65266036987305 12.14145565032959 24.74765968322754 C 10.99826526641846 25.76877021789551 9.52370548248291 26.33111953735352 7.989395141601563 26.33111953735352 C 6.282425403594971 26.33111953735352 4.69234561920166 25.62935066223145 3.512035369873047 24.35507965087891 L -2.596184730529785 17.76847076416016 L 15.38106536865234 -6.445938110351563 Z" stroke="none" fill="#fff"/>
      </g>
      <g id="Path_4003-2" data-name="Path 4003" transform="translate(-96.028 145.698) rotate(-99)" fill="#eee">
        <path d="M 23.78577995300293 66.73876953125 C 22.5211009979248 66.73876953125 21.30471992492676 66.36753082275391 20.26814079284668 65.66519165039063 C 19.16535949707031 64.91799163818359 18.34819030761719 63.84277725219727 17.90497016906738 62.5557975769043 L -0.5854597687721252 8.807699203491211 C -1.373169779777527 6.518838882446289 -1.025599718093872 4.085558891296387 0.3681802451610565 2.131888866424561 C 1.767240285873413 0.1707988232374191 4.011200428009033 -1.000001192092896 6.370780467987061 -1.000001192092896 C 7.227470397949219 -1.000001192092896 8.083610534667969 -0.8475111722946167 8.915420532226563 -0.5467911958694458 L 70.20513916015625 21.59521865844727 C 72.10459899902344 22.28152847290039 73.30684661865234 24.02950859069824 73.26805877685547 26.04842948913574 C 73.22927856445313 28.06667900085449 71.96121978759766 29.76660919189453 70.03752899169922 30.37919807434082 L 54.31373977661133 35.39133834838867 C 53.46537017822266 35.66196823120117 52.58354187011719 35.79922866821289 51.69293975830078 35.79924011230469 C 49.90388107299805 35.79927825927734 48.1851921081543 35.25494766235352 46.72267913818359 34.22509765625 L 21.15322875976563 16.23571586608887 L 42.28398132324219 35.47489929199219 C 43.55514144897461 36.63404846191406 44.34698867797852 38.21442794799805 44.51422882080078 39.92543792724609 C 44.68149948120117 41.63669967651367 44.21044158935547 43.33995056152344 43.18780899047852 44.72143936157227 L 28.75023078918457 64.22615814208984 C 27.56912040710449 65.82286834716797 25.75958061218262 66.73876953125 23.78577995300293 66.73876953125 Z" stroke="none"/>
        <path d="M 23.78578567504883 65.73876953125 C 25.33048248291016 65.73876953125 26.88775062561035 65.06246185302734 27.94647407531738 63.63120651245117 L 42.38405227661133 44.12647247314453 C 44.19324111938477 41.68241500854492 43.85909652709961 38.26457214355469 41.61074066162109 36.21432876586914 L 8.709074974060059 6.257938861846924 L 47.29841995239258 33.407470703125 C 49.25080871582031 34.78225708007813 51.73544692993164 35.16416168212891 54.01004028320313 34.43856048583984 L 69.73410034179688 29.42634963989258 C 73.04695129394531 28.37138366699219 73.13525390625 23.71718406677246 69.86537170410156 22.53572845458984 L 8.575419425964355 0.3936388194561005 C 3.525004863739014 -1.432261109352112 -1.38699197769165 3.405727863311768 0.3601524829864502 8.482394218444824 L 18.8504753112793 62.23017120361328 C 19.63369750976563 64.50443267822266 21.69840812683105 65.73876953125 23.78578567504883 65.73876953125 M 23.78578567504883 67.73876953125 C 22.32034111022949 67.73876953125 20.90999603271484 67.30800628662109 19.70722007751465 66.49304962158203 C 18.42386436462402 65.62350463867188 17.47370719909668 64.37461853027344 16.95947456359863 62.88140487670898 L -1.531058669090271 9.133005142211914 C -2.425247430801392 6.534794330596924 -2.029736518859863 3.771227598190308 -0.4458919763565063 1.551116585731506 C 1.14045250415802 -0.6724722981452942 3.688730239868164 -1.999994516372681 6.370774745941162 -1.999994516372681 C 7.343719005584717 -1.999994516372681 8.314252853393555 -1.827472329139709 9.25540828704834 -1.487216711044312 L 70.544921875 20.65471649169922 C 72.85372161865234 21.48891639709473 74.31503295898438 23.61360549926758 74.26787567138672 26.0676383972168 C 74.22073364257813 28.52100563049316 72.67932891845703 30.58741569519043 70.34096527099609 31.33206176757813 L 54.61745071411133 36.34409332275391 C 53.6709098815918 36.64604949951172 52.68682098388672 36.79922866821289 51.69295120239258 36.79924011230469 C 49.69667434692383 36.79928207397461 47.77889633178711 36.19189453125 46.14693069458008 35.04273986816406 L 33.59732437133789 26.21346282958984 L 42.95720672607422 34.7354736328125 C 44.4121208190918 36.06218338012695 45.31813049316406 37.87042617797852 45.50948715209961 39.82815933227539 C 45.70089721679688 41.78638458251953 45.16181945800781 43.7354850769043 43.99155426025391 45.31640625 L 29.55399703979492 64.82110595703125 C 28.18254089355469 66.67514038085938 26.07997512817383 67.73876953125 23.78578567504883 67.73876953125 Z" stroke="none" fill="#fff"/>
      </g>
    </g>
    <g id="Group_2961" data-name="Group 2961" transform="matrix(0.799, 0.602, -0.602, 0.799, 936.158, 3608.906)">
      <g id="Path_4004-3" data-name="Path 4004" transform="translate(-62.84 101.332) rotate(-99)" fill="#eee">
        <path d="M 7.989590644836426 25.33111953735352 C 7.989433765411377 25.33111953735352 7.989502429962158 25.33111953735352 7.989345073699951 25.33111953735352 C 6.564035415649414 25.33105087280273 5.234515190124512 24.74308967590332 4.245675086975098 23.67554092407227 L -0.7332247495651245 18.30669021606445 L -1.298084735870361 17.69758987426758 L -0.8029047250747681 17.03061103820801 L 12.2835054397583 -0.5960997343063354 L 14.23374557495117 -3.222969770431519 L 14.0853853225708 0.04535028338432312 L 13.16097545623779 20.40987968444824 C 13.09752559661865 21.8119010925293 12.49887561798096 23.08761024475098 11.47530555725098 24.00189018249512 C 10.51572227478027 24.85900497436523 9.277670860290527 25.33111953735352 7.989590644836426 25.33111953735352 Z" stroke="none"/>
        <path d="M 13.08640480041504 0 L -4.76837158203125e-06 17.626708984375 L 4.979314804077148 22.99600028991699 C 7.479897499084473 25.69564056396484 11.99564552307129 24.04039001464844 12.16200542449951 20.36453056335449 L 13.08640480041504 0 M 15.38106536865234 -6.445938110351563 L 14.15994548797607 20.45521926879883 C 14.08423519134521 22.12813949584961 13.3673849105835 23.65266036987305 12.14145565032959 24.74765968322754 C 10.99826526641846 25.76877021789551 9.52370548248291 26.33111953735352 7.989395141601563 26.33111953735352 C 6.282425403594971 26.33111953735352 4.69234561920166 25.62935066223145 3.512035369873047 24.35507965087891 L -2.596184730529785 17.76847076416016 L 15.38106536865234 -6.445938110351563 Z" stroke="none" fill="#fff"/>
      </g>
      <g id="Path_4003-3" data-name="Path 4003" transform="translate(-96.028 145.698) rotate(-99)" fill="#eee">
        <path d="M 23.78577995300293 66.73876953125 C 22.5211009979248 66.73876953125 21.30471992492676 66.36753082275391 20.26814079284668 65.66519165039063 C 19.16535949707031 64.91799163818359 18.34819030761719 63.84277725219727 17.90497016906738 62.5557975769043 L -0.5854597687721252 8.807699203491211 C -1.373169779777527 6.518838882446289 -1.025599718093872 4.085558891296387 0.3681802451610565 2.131888866424561 C 1.767240285873413 0.1707988232374191 4.011200428009033 -1.000001192092896 6.370780467987061 -1.000001192092896 C 7.227470397949219 -1.000001192092896 8.083610534667969 -0.8475111722946167 8.915420532226563 -0.5467911958694458 L 70.20513916015625 21.59521865844727 C 72.10459899902344 22.28152847290039 73.30684661865234 24.02950859069824 73.26805877685547 26.04842948913574 C 73.22927856445313 28.06667900085449 71.96121978759766 29.76660919189453 70.03752899169922 30.37919807434082 L 54.31373977661133 35.39133834838867 C 53.46537017822266 35.66196823120117 52.58354187011719 35.79922866821289 51.69293975830078 35.79924011230469 C 49.90388107299805 35.79927825927734 48.1851921081543 35.25494766235352 46.72267913818359 34.22509765625 L 21.15322875976563 16.23571586608887 L 42.28398132324219 35.47489929199219 C 43.55514144897461 36.63404846191406 44.34698867797852 38.21442794799805 44.51422882080078 39.92543792724609 C 44.68149948120117 41.63669967651367 44.21044158935547 43.33995056152344 43.18780899047852 44.72143936157227 L 28.75023078918457 64.22615814208984 C 27.56912040710449 65.82286834716797 25.75958061218262 66.73876953125 23.78577995300293 66.73876953125 Z" stroke="none"/>
        <path d="M 23.78578567504883 65.73876953125 C 25.33048248291016 65.73876953125 26.88775062561035 65.06246185302734 27.94647407531738 63.63120651245117 L 42.38405227661133 44.12647247314453 C 44.19324111938477 41.68241500854492 43.85909652709961 38.26457214355469 41.61074066162109 36.21432876586914 L 8.709074974060059 6.257938861846924 L 47.29841995239258 33.407470703125 C 49.25080871582031 34.78225708007813 51.73544692993164 35.16416168212891 54.01004028320313 34.43856048583984 L 69.73410034179688 29.42634963989258 C 73.04695129394531 28.37138366699219 73.13525390625 23.71718406677246 69.86537170410156 22.53572845458984 L 8.575419425964355 0.3936388194561005 C 3.525004863739014 -1.432261109352112 -1.38699197769165 3.405727863311768 0.3601524829864502 8.482394218444824 L 18.8504753112793 62.23017120361328 C 19.63369750976563 64.50443267822266 21.69840812683105 65.73876953125 23.78578567504883 65.73876953125 M 23.78578567504883 67.73876953125 C 22.32034111022949 67.73876953125 20.90999603271484 67.30800628662109 19.70722007751465 66.49304962158203 C 18.42386436462402 65.62350463867188 17.47370719909668 64.37461853027344 16.95947456359863 62.88140487670898 L -1.531058669090271 9.133005142211914 C -2.425247430801392 6.534794330596924 -2.029736518859863 3.771227598190308 -0.4458919763565063 1.551116585731506 C 1.14045250415802 -0.6724722981452942 3.688730239868164 -1.999994516372681 6.370774745941162 -1.999994516372681 C 7.343719005584717 -1.999994516372681 8.314252853393555 -1.827472329139709 9.25540828704834 -1.487216711044312 L 70.544921875 20.65471649169922 C 72.85372161865234 21.48891639709473 74.31503295898438 23.61360549926758 74.26787567138672 26.0676383972168 C 74.22073364257813 28.52100563049316 72.67932891845703 30.58741569519043 70.34096527099609 31.33206176757813 L 54.61745071411133 36.34409332275391 C 53.6709098815918 36.64604949951172 52.68682098388672 36.79922866821289 51.69295120239258 36.79924011230469 C 49.69667434692383 36.79928207397461 47.77889633178711 36.19189453125 46.14693069458008 35.04273986816406 L 33.59732437133789 26.21346282958984 L 42.95720672607422 34.7354736328125 C 44.4121208190918 36.06218338012695 45.31813049316406 37.87042617797852 45.50948715209961 39.82815933227539 C 45.70089721679688 41.78638458251953 45.16181945800781 43.7354850769043 43.99155426025391 45.31640625 L 29.55399703979492 64.82110595703125 C 28.18254089355469 66.67514038085938 26.07997512817383 67.73876953125 23.78578567504883 67.73876953125 Z" stroke="none" fill="#fff"/>
      </g>
    </g>
    <g id="Group_2962" data-name="Group 2962" transform="translate(357.358 4208.964) rotate(-89)">
      <g id="Path_4004-4" data-name="Path 4004" transform="translate(-62.84 101.332) rotate(-99)" fill="#eee">
        <path d="M 7.989590644836426 25.33111953735352 C 7.989433765411377 25.33111953735352 7.989502429962158 25.33111953735352 7.989345073699951 25.33111953735352 C 6.564035415649414 25.33105087280273 5.234515190124512 24.74308967590332 4.245675086975098 23.67554092407227 L -0.7332247495651245 18.30669021606445 L -1.298084735870361 17.69758987426758 L -0.8029047250747681 17.03061103820801 L 12.2835054397583 -0.5960997343063354 L 14.23374557495117 -3.222969770431519 L 14.0853853225708 0.04535028338432312 L 13.16097545623779 20.40987968444824 C 13.09752559661865 21.8119010925293 12.49887561798096 23.08761024475098 11.47530555725098 24.00189018249512 C 10.51572227478027 24.85900497436523 9.277670860290527 25.33111953735352 7.989590644836426 25.33111953735352 Z" stroke="none"/>
        <path d="M 13.08640480041504 0 L -4.76837158203125e-06 17.626708984375 L 4.979314804077148 22.99600028991699 C 7.479897499084473 25.69564056396484 11.99564552307129 24.04039001464844 12.16200542449951 20.36453056335449 L 13.08640480041504 0 M 15.38106536865234 -6.445938110351563 L 14.15994548797607 20.45521926879883 C 14.08423519134521 22.12813949584961 13.3673849105835 23.65266036987305 12.14145565032959 24.74765968322754 C 10.99826526641846 25.76877021789551 9.52370548248291 26.33111953735352 7.989395141601563 26.33111953735352 C 6.282425403594971 26.33111953735352 4.69234561920166 25.62935066223145 3.512035369873047 24.35507965087891 L -2.596184730529785 17.76847076416016 L 15.38106536865234 -6.445938110351563 Z" stroke="none" fill="#fff"/>
      </g>
      <g id="Path_4003-4" data-name="Path 4003" transform="translate(-96.028 145.698) rotate(-99)" fill="#eee">
        <path d="M 23.78577995300293 66.73876953125 C 22.5211009979248 66.73876953125 21.30471992492676 66.36753082275391 20.26814079284668 65.66519165039063 C 19.16535949707031 64.91799163818359 18.34819030761719 63.84277725219727 17.90497016906738 62.5557975769043 L -0.5854597687721252 8.807699203491211 C -1.373169779777527 6.518838882446289 -1.025599718093872 4.085558891296387 0.3681802451610565 2.131888866424561 C 1.767240285873413 0.1707988232374191 4.011200428009033 -1.000001192092896 6.370780467987061 -1.000001192092896 C 7.227470397949219 -1.000001192092896 8.083610534667969 -0.8475111722946167 8.915420532226563 -0.5467911958694458 L 70.20513916015625 21.59521865844727 C 72.10459899902344 22.28152847290039 73.30684661865234 24.02950859069824 73.26805877685547 26.04842948913574 C 73.22927856445313 28.06667900085449 71.96121978759766 29.76660919189453 70.03752899169922 30.37919807434082 L 54.31373977661133 35.39133834838867 C 53.46537017822266 35.66196823120117 52.58354187011719 35.79922866821289 51.69293975830078 35.79924011230469 C 49.90388107299805 35.79927825927734 48.1851921081543 35.25494766235352 46.72267913818359 34.22509765625 L 21.15322875976563 16.23571586608887 L 42.28398132324219 35.47489929199219 C 43.55514144897461 36.63404846191406 44.34698867797852 38.21442794799805 44.51422882080078 39.92543792724609 C 44.68149948120117 41.63669967651367 44.21044158935547 43.33995056152344 43.18780899047852 44.72143936157227 L 28.75023078918457 64.22615814208984 C 27.56912040710449 65.82286834716797 25.75958061218262 66.73876953125 23.78577995300293 66.73876953125 Z" stroke="none"/>
        <path d="M 23.78578567504883 65.73876953125 C 25.33048248291016 65.73876953125 26.88775062561035 65.06246185302734 27.94647407531738 63.63120651245117 L 42.38405227661133 44.12647247314453 C 44.19324111938477 41.68241500854492 43.85909652709961 38.26457214355469 41.61074066162109 36.21432876586914 L 8.709074974060059 6.257938861846924 L 47.29841995239258 33.407470703125 C 49.25080871582031 34.78225708007813 51.73544692993164 35.16416168212891 54.01004028320313 34.43856048583984 L 69.73410034179688 29.42634963989258 C 73.04695129394531 28.37138366699219 73.13525390625 23.71718406677246 69.86537170410156 22.53572845458984 L 8.575419425964355 0.3936388194561005 C 3.525004863739014 -1.432261109352112 -1.38699197769165 3.405727863311768 0.3601524829864502 8.482394218444824 L 18.8504753112793 62.23017120361328 C 19.63369750976563 64.50443267822266 21.69840812683105 65.73876953125 23.78578567504883 65.73876953125 M 23.78578567504883 67.73876953125 C 22.32034111022949 67.73876953125 20.90999603271484 67.30800628662109 19.70722007751465 66.49304962158203 C 18.42386436462402 65.62350463867188 17.47370719909668 64.37461853027344 16.95947456359863 62.88140487670898 L -1.531058669090271 9.133005142211914 C -2.425247430801392 6.534794330596924 -2.029736518859863 3.771227598190308 -0.4458919763565063 1.551116585731506 C 1.14045250415802 -0.6724722981452942 3.688730239868164 -1.999994516372681 6.370774745941162 -1.999994516372681 C 7.343719005584717 -1.999994516372681 8.314252853393555 -1.827472329139709 9.25540828704834 -1.487216711044312 L 70.544921875 20.65471649169922 C 72.85372161865234 21.48891639709473 74.31503295898438 23.61360549926758 74.26787567138672 26.0676383972168 C 74.22073364257813 28.52100563049316 72.67932891845703 30.58741569519043 70.34096527099609 31.33206176757813 L 54.61745071411133 36.34409332275391 C 53.6709098815918 36.64604949951172 52.68682098388672 36.79922866821289 51.69295120239258 36.79924011230469 C 49.69667434692383 36.79928207397461 47.77889633178711 36.19189453125 46.14693069458008 35.04273986816406 L 33.59732437133789 26.21346282958984 L 42.95720672607422 34.7354736328125 C 44.4121208190918 36.06218338012695 45.31813049316406 37.87042617797852 45.50948715209961 39.82815933227539 C 45.70089721679688 41.78638458251953 45.16181945800781 43.7354850769043 43.99155426025391 45.31640625 L 29.55399703979492 64.82110595703125 C 28.18254089355469 66.67514038085938 26.07997512817383 67.73876953125 23.78578567504883 67.73876953125 Z" stroke="none" fill="#fff"/>
      </g>
    </g>
  </g>
</svg>
