<svg width="18" height="18" viewBox="0 0 18 18" fill="none" xmlns="http://www.w3.org/2000/svg">
<path d="M9.00014 7.38892C8.11064 7.38892 7.38989 8.10967 7.38989 8.99917C7.38989 9.88792 8.11064 10.6087 9.00014 10.6087C9.88964 10.6087 10.6104 9.88792 10.6104 8.99917C10.6104 8.10892 9.88964 7.38892 9.00014 7.38892Z" fill="black"/>
<path d="M3.3855 11.8508C3.54375 11.9025 3.702 11.9565 3.864 12.0015C3.8115 12.2123 3.76575 12.4208 3.723 12.6353C3.35475 14.5868 3.642 16.1325 4.563 16.6635C5.5125 17.2118 7.10925 16.6493 8.66325 15.2888C8.7855 15.18 8.90925 15.0675 9.0315 14.9475C9.186 15.099 9.348 15.2438 9.50925 15.3833C11.0137 16.6763 12.501 17.2005 13.419 16.6703C14.3685 16.1228 14.6775 14.46 14.277 12.435C14.2455 12.2805 14.2103 12.1223 14.1713 11.9603C14.2838 11.9288 14.3925 11.8935 14.502 11.859C16.5308 11.187 18 10.1003 18 8.98504C18 7.92004 16.6148 6.88654 14.7023 6.22879C14.5125 6.16579 14.3227 6.10579 14.133 6.04954C14.1645 5.91979 14.193 5.78854 14.2208 5.65879C14.6535 3.56404 14.3685 1.88029 13.4085 1.32454C12.4838 0.793536 10.9755 1.34554 9.45 2.67454C9.2985 2.80429 9.1515 2.94229 9.0105 3.07879C8.91525 2.98729 8.817 2.89579 8.71875 2.80804C7.119 1.38829 5.51625 0.790536 4.55625 1.35004C3.63525 1.88479 3.36075 3.47029 3.74775 5.45254C3.78675 5.64979 3.82875 5.84254 3.8775 6.03904C3.6525 6.10204 3.43125 6.17329 3.2235 6.24754C1.34625 6.89704 0 7.92304 0 8.98504C0 10.0823 1.434 11.1825 3.3855 11.8508ZM8.16675 14.715C7.587 15.246 6.915 15.6668 6.18375 15.9555C5.79375 16.1415 5.34375 16.1603 4.9425 16.0013C4.38375 15.678 4.1505 14.4368 4.467 12.7673C4.506 12.5715 4.548 12.3735 4.59675 12.18C5.38425 12.3495 6.1785 12.465 6.984 12.5243C7.44825 13.182 7.9575 13.8113 8.50275 14.4015C8.39025 14.5103 8.27775 14.616 8.16525 14.7143L8.16675 14.715ZM12.6315 8.11279C12.4665 7.80379 12.2978 7.49479 12.1215 7.19254C11.949 6.89404 11.7697 6.59854 11.5837 6.30679C12.15 6.37729 12.6908 6.47179 13.1978 6.58804C13.0358 7.10929 12.846 7.61479 12.6315 8.11279ZM12.6382 9.86329C12.8632 10.374 13.0605 10.89 13.2322 11.421C12.687 11.544 12.1357 11.6393 11.58 11.7023C11.7697 11.4075 11.949 11.1045 12.1252 10.8023C12.3045 10.4925 12.4732 10.1798 12.6382 9.86329ZM12.2318 8.98879C11.9963 9.47404 11.7427 9.95179 11.4727 10.4228C11.2057 10.89 10.9208 11.3438 10.6223 11.7938C10.0988 11.8328 9.5535 11.85 9.0015 11.85C8.4495 11.85 7.9155 11.8328 7.39875 11.8005C7.09275 11.3543 6.80475 10.8968 6.534 10.4295C6.26325 9.96229 6.0135 9.48754 5.778 9.00304H5.7765C6.00825 8.51779 6.26175 8.04304 6.52875 7.57579C6.79575 7.10929 7.0845 6.65479 7.38675 6.20854C7.914 6.16954 8.45175 6.14854 9.00075 6.14854C9.54975 6.14854 10.0905 6.16954 10.6147 6.20854C10.9132 6.65179 11.1982 7.10404 11.469 7.56904C11.7397 8.03404 11.9925 8.50804 12.2318 8.98879ZM5.874 7.19854C5.7015 7.49704 5.53275 7.80304 5.3745 8.11204C5.15325 7.58929 4.9665 7.07554 4.812 6.58054C5.31825 6.46804 5.856 6.37654 6.41475 6.30604C6.2295 6.59779 6.0465 6.89629 5.874 7.19854ZM5.37525 9.89104V9.89179C5.53725 10.2008 5.70225 10.5068 5.87775 10.809C6.057 11.115 6.24 11.421 6.4335 11.7195C5.88525 11.6595 5.34 11.5725 4.80225 11.4555C4.95675 10.95 5.15025 10.4258 5.37525 9.89104ZM9.0285 13.8608C8.67 13.4738 8.3115 13.0463 7.9635 12.585C8.301 12.5985 8.649 12.606 9.00075 12.606C9.363 12.606 9.71775 12.5985 10.0695 12.5813C9.74625 13.0268 9.39825 13.4535 9.0285 13.8608ZM13.6238 14.916C13.5915 15.3443 13.3808 15.7455 13.0433 16.0155C12.4845 16.3388 11.2927 15.9173 10.0057 14.814C9.858 14.6873 9.71025 14.55 9.5595 14.4098C10.0965 13.8158 10.593 13.1865 11.043 12.5258C11.8477 12.459 12.6495 12.336 13.4407 12.1568C13.476 12.3008 13.5075 12.4455 13.536 12.5858C13.7085 13.3448 13.7363 14.1345 13.6238 14.916ZM13.929 6.77404C14.112 6.82579 14.2875 6.88279 14.4562 6.93904C16.0942 7.50154 17.244 8.33854 17.244 8.97829C17.244 9.66754 16.017 10.5563 14.2628 11.1368C14.1645 11.1683 14.0662 11.1998 13.9642 11.2283C13.7182 10.4618 13.416 9.71254 13.068 8.98504C13.4055 8.26804 13.6905 7.52929 13.929 6.77404ZM9.945 3.24379C11.2538 2.10529 12.4732 1.65979 13.029 1.97854C13.623 2.31979 13.8518 3.69754 13.479 5.50804C13.4543 5.62654 13.4295 5.74354 13.398 5.85979C12.6173 5.68354 11.8268 5.55754 11.031 5.48704C10.575 4.83304 10.0755 4.20754 9.534 3.62029C9.67125 3.49054 9.80475 3.36679 9.945 3.24379ZM9.0075 4.15879C9.3765 4.55929 9.7245 4.98154 10.0478 5.41654C9.35175 5.38504 8.652 5.38504 7.956 5.41654C8.30025 4.96279 8.655 4.54204 9.0075 4.15879ZM4.929 2.00404C5.52 1.65979 6.831 2.15104 8.2125 3.37504C8.2995 3.45229 8.388 3.53704 8.4795 3.62029C7.93425 4.20754 7.43175 4.83304 6.97125 5.48704C6.177 5.55754 5.3895 5.68054 4.60875 5.85229C4.563 5.67379 4.52475 5.49079 4.48575 5.30779C4.155 3.60604 4.37325 2.32354 4.929 2.00404ZM3.47025 6.96004C3.6705 6.88954 3.8745 6.82579 4.0785 6.76654C4.31775 7.52929 4.60575 8.27854 4.9395 9.00229C4.602 9.73654 4.31025 10.4955 4.068 11.2688L4.06725 11.2695C3.9195 11.2275 3.7755 11.1818 3.63225 11.133C2.88375 10.8968 2.03175 10.524 1.4175 10.0365C1.06275 9.79054 0.8235 9.41104 0.75675 8.98504C0.756 8.34154 1.86675 7.51954 3.47025 6.96004Z" fill="black"/>
<path d="M7.9636 12.585C8.3026 13.0342 8.65135 13.4512 9.0001 13.8307V12.606C8.6491 12.606 8.30035 12.5985 7.9636 12.585ZM4.5976 12.18C4.54885 12.3735 4.50685 12.5715 4.46785 12.7672C4.15135 14.4375 4.38385 15.6787 4.94335 16.0012C5.12485 16.0732 5.31685 16.1085 5.50885 16.1085C5.73985 16.1085 5.97085 16.0567 6.1846 15.9555C6.91585 15.6667 7.58785 15.246 8.1676 14.715L8.16685 14.7142C8.27935 14.616 8.39185 14.5102 8.50435 14.4015C7.95985 13.8112 7.44985 13.182 6.9856 12.5242C6.17935 12.465 5.3851 12.3495 4.5976 12.18ZM5.37535 9.89098C5.15035 10.4257 4.95685 10.9492 4.80235 11.4555C5.3401 11.5717 5.88535 11.6595 6.4336 11.7195C6.2401 11.4217 6.0571 11.115 5.87785 10.809C5.70235 10.5067 5.5381 10.2007 5.37535 9.89173V9.89098ZM4.0786 6.76648C3.8746 6.82648 3.6706 6.89023 3.47035 6.95998C1.86685 7.51873 0.756104 8.34148 0.756104 8.98423C0.822854 9.41023 1.06135 9.78973 1.41685 10.0357C2.03185 10.5232 2.8831 10.896 3.6316 11.1322C3.7756 11.1817 3.9196 11.2275 4.0666 11.2687L4.06735 11.268C4.3096 10.4947 4.60135 9.73573 4.93885 9.00148C4.60585 8.27848 4.31785 7.52923 4.0786 6.76648ZM6.4156 6.30598C5.85685 6.37648 5.3191 6.46798 4.81285 6.58048C4.96735 7.07548 5.15335 7.58923 5.37535 8.11198C5.5336 7.80298 5.7016 7.49773 5.87485 7.19848C6.0466 6.89623 6.2296 6.59773 6.4156 6.30598ZM9.0001 6.14848C8.4511 6.14848 7.9141 6.16948 7.38685 6.20848C7.0846 6.65473 6.79585 7.10923 6.52885 7.57573C6.26185 8.04298 6.00835 8.51773 5.7766 9.00298H5.7781C6.0136 9.48748 6.26335 9.96223 6.5341 10.4295C6.80485 10.8967 7.09285 11.355 7.39885 11.8005C7.91485 11.8327 8.44885 11.85 9.0001 11.85V10.6087C8.1106 10.6087 7.38985 9.88798 7.38985 8.99923C7.38985 8.10898 8.1106 7.38898 9.0001 7.38898V6.14848ZM9.0001 4.16623C8.6506 4.54723 8.29735 4.96573 7.9561 5.41648C8.30335 5.40148 8.6521 5.39323 9.0001 5.39323V4.16623ZM5.38735 1.89673C5.20735 1.89673 5.0521 1.93198 4.9291 2.00398C4.37335 2.32348 4.1551 3.60598 4.48585 5.30773C4.52485 5.49073 4.5631 5.67373 4.60885 5.85223C5.3896 5.68048 6.1771 5.55748 6.97135 5.48698C7.43185 4.83298 7.93435 4.20748 8.4796 3.62023C8.3881 3.53698 8.30035 3.45223 8.2126 3.37498C7.11985 2.40673 6.0706 1.89673 5.38735 1.89673Z" fill="#DEDEDE"/>
<path d="M10.0364 12.5867C9.6974 13.0359 9.34865 13.4529 8.9999 13.8324V12.6077C9.3509 12.6077 9.69965 12.6002 10.0364 12.5867ZM13.4024 12.1817C13.4511 12.3752 13.4931 12.5732 13.5321 12.7689C13.8486 14.4392 13.6161 15.6804 13.0566 16.0029C12.8751 16.0749 12.6831 16.1102 12.4911 16.1102C12.2601 16.1102 12.0291 16.0584 11.8154 15.9572C11.0841 15.6684 10.4121 15.2477 9.8324 14.7167L9.83315 14.7159C9.72065 14.6177 9.60815 14.5119 9.49565 14.4032C10.0401 13.8129 10.5501 13.1837 11.0144 12.5259C11.8206 12.4667 12.6149 12.3512 13.4024 12.1817ZM12.6246 9.89269C12.8496 10.4274 13.0431 10.9509 13.1976 11.4572C12.6599 11.5734 12.1146 11.6612 11.5664 11.7212C11.7599 11.4234 11.9429 11.1167 12.1221 10.8107C12.2976 10.5084 12.4619 10.2024 12.6246 9.89344V9.89269ZM13.9214 6.76819C14.1254 6.82819 14.3294 6.89194 14.5296 6.96169C16.1331 7.52044 17.2439 8.34319 17.2439 8.98594C17.1771 9.41194 16.9386 9.79144 16.5831 10.0374C15.9681 10.5249 15.1169 10.8977 14.3684 11.1339C14.2244 11.1834 14.0804 11.2292 13.9334 11.2704L13.9326 11.2697C13.6904 10.4964 13.3986 9.73744 13.0611 9.00319C13.3941 8.28019 13.6821 7.53094 13.9214 6.76819ZM11.5844 6.30769C12.1431 6.37819 12.6809 6.46969 13.1871 6.58219C13.0326 7.07719 12.8466 7.59094 12.6246 8.11369C12.4664 7.80469 12.2984 7.49944 12.1251 7.20019C11.9534 6.89794 11.7704 6.59944 11.5844 6.30769ZM8.9999 6.15019C9.5489 6.15019 10.0859 6.17119 10.6131 6.21019C10.9154 6.65644 11.2041 7.11094 11.4711 7.57744C11.7381 8.04469 11.9916 8.51944 12.2234 9.00469H12.2219C11.9864 9.48919 11.7366 9.96394 11.4659 10.4312C11.1951 10.8984 10.9071 11.3567 10.6011 11.8022C10.0851 11.8344 9.55115 11.8517 8.9999 11.8517V10.6104C9.8894 10.6104 10.6101 9.88969 10.6101 9.00094C10.6101 8.11069 9.8894 7.39069 8.9999 7.39069V6.15019ZM8.9999 4.16794C9.3494 4.54894 9.70265 4.96744 10.0439 5.41819C9.69665 5.40319 9.3479 5.39494 8.9999 5.39494V4.16794ZM12.6126 1.89844C12.7926 1.89844 12.9479 1.93369 13.0709 2.00569C13.6266 2.32519 13.8449 3.60769 13.5141 5.30944C13.4751 5.49244 13.4369 5.67544 13.3911 5.85394C12.6104 5.68219 11.8229 5.55919 11.0286 5.48869C10.5681 4.83469 10.0656 4.20919 9.5204 3.62194C9.6119 3.53869 9.69965 3.45394 9.7874 3.37669C10.8801 2.40844 11.9294 1.89844 12.6126 1.89844Z" fill="#DEDEDE"/>
<path d="M9.00014 7.38892C8.11064 7.38892 7.38989 8.10967 7.38989 8.99917C7.38989 9.88792 8.11064 10.6087 9.00014 10.6087V7.38892Z" fill="black"/>
<path d="M5.508 16.1093C5.316 16.1093 5.124 16.0741 4.9425 16.0021C4.38375 15.6788 4.1505 14.4376 4.467 12.7681C4.506 12.5723 4.548 12.3743 4.59675 12.1808C5.38425 12.3503 6.1785 12.4658 6.984 12.5251C7.44825 13.1828 7.9575 13.8121 8.50275 14.4023C8.39025 14.5111 8.27775 14.6168 8.16525 14.7151L8.166 14.7158C7.58625 15.2468 6.91425 15.6676 6.183 15.9563C5.97075 16.0576 5.73975 16.1093 5.508 16.1093ZM6.4335 11.7196C5.88525 11.6596 5.34 11.5726 4.80225 11.4556C4.956 10.9493 5.15025 10.4258 5.37525 9.89108V9.89183C5.53725 10.2008 5.70225 10.5068 5.87775 10.8091C6.057 11.1151 6.24 11.4211 6.4335 11.7196ZM4.06725 11.2696C3.9195 11.2276 3.7755 11.1818 3.63225 11.1331C2.88375 10.8968 2.03175 10.5241 1.4175 10.0366C1.06275 9.79058 0.8235 9.41108 0.75675 8.98508C0.75675 8.34233 1.8675 7.51958 3.471 6.96083C3.67125 6.89033 3.87525 6.82658 4.07925 6.76733C4.3185 7.53008 4.6065 8.27933 4.94025 9.00308C4.60275 9.73733 4.311 10.4963 4.06875 11.2696H4.06725ZM5.37525 8.11208C5.154 7.58933 4.96725 7.07558 4.81275 6.58058C5.319 6.46808 5.85675 6.37658 6.4155 6.30608C6.2295 6.59708 6.0465 6.89633 5.874 7.19858C5.7015 7.49783 5.53275 7.80308 5.37525 8.11208ZM4.60875 5.85233C4.563 5.67383 4.52475 5.49083 4.48575 5.30783C4.155 3.60608 4.37325 2.32358 4.929 2.00408C5.052 1.93208 5.20725 1.89683 5.38725 1.89683C6.0705 1.89683 7.119 2.40683 8.2125 3.37508C8.2995 3.45233 8.388 3.53708 8.4795 3.62033C7.93425 4.20758 7.43175 4.83308 6.97125 5.48708C6.177 5.55758 5.3895 5.68058 4.60875 5.85233ZM5.39025 1.14233C5.07825 1.14233 4.79775 1.20983 4.557 1.35008C3.63525 1.88483 3.36075 3.47033 3.74775 5.45258C3.78675 5.64983 3.82875 5.84258 3.8775 6.03908C3.6525 6.10208 3.43125 6.17333 3.2235 6.24758C1.34625 6.89708 0 7.92308 0 8.98508C0 10.0823 1.434 11.1826 3.3855 11.8501C3.54375 11.9018 3.702 11.9558 3.864 12.0008C3.8115 12.2116 3.76575 12.4201 3.723 12.6346C3.35475 14.5861 3.642 16.1318 4.563 16.6628C4.806 16.8031 5.09175 16.8706 5.40825 16.8706C6.32775 16.8706 7.50675 16.2998 8.66325 15.2873C8.775 15.1883 8.88825 15.0848 9.00075 14.9768V13.8293C8.652 13.4498 8.30325 13.0328 7.96425 12.5836C8.301 12.5971 8.64975 12.6046 9.00075 12.6046V11.8493C8.4495 11.8493 7.91625 11.8313 7.3995 11.7998C7.0935 11.3536 6.8055 10.8961 6.53475 10.4288C6.264 9.96158 6.01425 9.48684 5.77875 9.00233H5.7765C6.00825 8.51708 6.26175 8.04234 6.52875 7.57508C6.79575 7.10858 7.0845 6.65408 7.38675 6.20783C7.914 6.16883 8.451 6.14783 9 6.14783V5.39333C8.652 5.39333 8.30325 5.40083 7.956 5.41658C8.298 4.96583 8.6505 4.54733 9 4.16633V3.06908C8.90775 2.98058 8.81325 2.89283 8.71875 2.80808C7.52025 1.74458 6.32025 1.14233 5.39025 1.14233Z" fill="black"/>
</svg>
