<svg width="18" height="18" viewBox="0 0 18 18" fill="none" xmlns="http://www.w3.org/2000/svg">
<path d="M1.40625 3.37442C1.33166 3.37442 1.26012 3.40407 1.20738 3.45682C1.15463 3.50956 1.125 3.58108 1.125 3.65567V12.0932C1.125 12.1678 1.15463 12.2393 1.20738 12.2921C1.26012 12.3448 1.33166 12.3744 1.40625 12.3744H13.5011V11.8119H1.6875V3.93692H14.625V7.21236H15.1875V3.65567C15.1875 3.58108 15.1579 3.50956 15.1051 3.45682C15.0524 3.40407 14.9808 3.37442 14.9062 3.37442H1.40625Z" fill="black"/>
<path d="M0.28125 11.8119C0.206658 11.8119 0.135121 11.8416 0.0823762 11.8943C0.0296316 11.9471 0 12.0186 0 12.0932C0 12.8857 0.70875 13.4994 1.54125 13.4994H13.4364V12.9369H1.54125C1.11206 12.9369 0.833062 12.6838 0.694125 12.3744H13.5034V11.8119H0.28125Z" fill="black"/>
<path d="M13.2188 6.74942C13.1442 6.74942 13.0726 6.77907 13.0199 6.83182C12.9671 6.88456 12.9375 6.95608 12.9375 7.03067V9.18282C12.9375 9.25742 12.9671 9.32893 13.0199 9.38168C13.0726 9.43442 13.1442 9.46407 13.2188 9.46407C13.2933 9.46407 13.3649 9.43442 13.4176 9.38168C13.4704 9.32893 13.5 9.25742 13.5 9.18282V7.31192H17.4375V14.0619H13.5V10.4771C13.5 10.4026 13.4704 10.331 13.4176 10.2782C13.3649 10.2255 13.2933 10.1959 13.2188 10.1959C13.1442 10.1959 13.0726 10.2255 13.0199 10.2782C12.9671 10.331 12.9375 10.4026 12.9375 10.4771V14.3432C12.9375 14.4178 12.9671 14.4893 13.0199 14.5421C13.0726 14.5948 13.1442 14.6244 13.2188 14.6244H17.7188C17.7933 14.6244 17.8649 14.5948 17.9176 14.5421C17.9704 14.4893 18 14.4178 18 14.3432V7.03067C18 6.95608 17.9704 6.88456 17.9176 6.83182C17.8649 6.77907 17.7933 6.74942 17.7188 6.74942H13.2188Z" fill="black"/>
<path fill-rule="evenodd" clip-rule="evenodd" d="M13.5 12.9369V13.4994H17.4375V12.9369H13.5ZM13.5 7.87442V8.43692H17.4375V7.87442H13.5Z" fill="black"/>
<path fill-rule="evenodd" clip-rule="evenodd" d="M10.4106 8.99942C10.3361 8.99942 10.2645 9.02907 10.2118 9.08182C10.159 9.13456 10.1294 9.20608 10.1294 9.28067C10.1294 9.35526 10.159 9.42685 10.2118 9.47959C10.2645 9.53234 10.3361 9.56192 10.4106 9.56192H14.3481C14.4227 9.56192 14.4943 9.53234 14.547 9.47959C14.5998 9.42685 14.6294 9.35526 14.6294 9.28067C14.6294 9.20608 14.5998 9.13456 14.547 9.08182C14.4943 9.02907 14.4227 8.99942 14.3481 8.99942H10.4106ZM11.5266 10.1244C11.4521 10.1244 11.3805 10.1541 11.3278 10.2068C11.275 10.2596 11.2454 10.3311 11.2454 10.4057C11.2454 10.4803 11.275 10.5518 11.3278 10.6046C11.3805 10.6573 11.4521 10.6869 11.5266 10.6869H15.4641C15.5387 10.6869 15.6103 10.6573 15.663 10.6046C15.7158 10.5518 15.7454 10.4803 15.7454 10.4057C15.7454 10.3311 15.7158 10.2596 15.663 10.2068C15.6103 10.1541 15.5387 10.1244 15.4641 10.1244H11.5266Z" fill="#999999"/>
<path fill-rule="evenodd" clip-rule="evenodd" d="M11.522 7.86944C11.449 7.87182 11.3798 7.90246 11.329 7.95493L10.204 9.07993C10.1772 9.10587 10.1557 9.13687 10.141 9.17118C10.1263 9.2055 10.1185 9.2424 10.1182 9.27974C10.1179 9.31708 10.125 9.35415 10.1391 9.38871C10.1532 9.42328 10.1741 9.45466 10.2005 9.48106C10.2269 9.50747 10.2583 9.52838 10.2929 9.54252C10.3275 9.55666 10.3645 9.56379 10.4019 9.56346C10.4392 9.56314 10.4761 9.55534 10.5104 9.5406C10.5447 9.52586 10.5758 9.50449 10.6017 9.47763L11.7267 8.35263C11.7677 8.31317 11.7958 8.26214 11.8072 8.20638C11.8187 8.15062 11.8129 8.09269 11.7907 8.04028C11.7685 7.98786 11.731 7.94345 11.683 7.91283C11.635 7.88222 11.5788 7.86685 11.522 7.86882V7.86944ZM15.4595 10.1256C15.3867 10.1277 15.3175 10.1579 15.2665 10.2099L14.1415 11.3349C14.1154 11.3611 14.0946 11.3921 14.0805 11.4262C14.0663 11.4603 14.059 11.497 14.059 11.5339C14.0589 11.5709 14.0662 11.6074 14.0803 11.6416C14.0944 11.6757 14.1151 11.7068 14.1412 11.7329C14.1674 11.7591 14.1984 11.7799 14.2325 11.794C14.2666 11.8082 14.3032 11.8155 14.3402 11.8155C14.3771 11.8155 14.4137 11.8083 14.4479 11.7942C14.482 11.78 14.5131 11.7593 14.5392 11.7332L15.6642 10.6082C15.7048 10.5687 15.7325 10.5178 15.7437 10.4623C15.7549 10.4067 15.7491 10.349 15.7269 10.2969C15.7048 10.2447 15.6674 10.2004 15.6197 10.1698C15.572 10.1393 15.5161 10.1239 15.4595 10.1256Z" fill="#999999"/>
</svg>
