<svg width="18" height="18" viewBox="0 0 18 18" fill="none" xmlns="http://www.w3.org/2000/svg">
<g clip-path="url(#clip0_3_24)">
<path d="M8.99994 5.9666H5.887V2.84571C5.26942 2.84414 4.66525 3.02584 4.15098 3.36781C3.63671 3.70978 3.23546 4.19665 2.99803 4.76677C2.7606 5.3369 2.69766 5.96465 2.81718 6.57057C2.9367 7.17648 3.23331 7.73331 3.66946 8.17057C4.1056 8.60783 4.66167 8.90585 5.26728 9.02692C5.87289 9.14798 6.5008 9.08664 7.07153 8.85067C7.64226 8.61469 8.13015 8.21468 8.47342 7.70129C8.8167 7.18789 8.99994 6.58419 8.99994 5.9666Z" fill="#999999"/>
<path d="M6.88232 1.85303V4.97126H10.0006C9.99986 4.14447 9.67111 3.35174 9.08648 2.76711C8.50184 2.18248 7.70912 1.85373 6.88232 1.85303Z" fill="#999999"/>
<path d="M3.17114 10.8687H1.85291V16.1469H3.17114V10.8687Z" fill="#999999"/>
<path d="M5.8977 12.7061H4.57947V16.1472H5.8977V12.7061Z" fill="#999999"/>
<path d="M8.62414 13.9976H7.30591V16.147H8.62414V13.9976Z" fill="#999999"/>
<path d="M11.88 8.15831C11.8484 8.15426 11.8164 8.15426 11.7848 8.15831C11.7146 8.16673 11.6506 8.2027 11.6069 8.2583C11.5632 8.3139 11.5434 8.38457 11.5518 8.45478C11.5602 8.52498 11.5962 8.58896 11.6518 8.63265C11.7074 8.67633 11.7781 8.69614 11.8483 8.68772H11.8853C11.9555 8.68772 12.0229 8.65983 12.0725 8.61019C12.1222 8.56054 12.15 8.49322 12.15 8.42301C12.15 8.35281 12.1222 8.28548 12.0725 8.23584C12.0229 8.18619 11.9555 8.15831 11.8853 8.15831H11.88ZM10.8768 8.40183C10.5167 8.58531 10.2145 8.86501 10.0038 9.20986C9.79304 9.55471 9.682 9.95122 9.68299 10.3554C9.68299 10.4256 9.71088 10.4929 9.76052 10.5425C9.81016 10.5922 9.87749 10.6201 9.9477 10.6201C10.0179 10.6201 10.0852 10.5922 10.1349 10.5425C10.1845 10.4929 10.2124 10.4256 10.2124 10.3554C10.2114 10.0487 10.2954 9.74778 10.4553 9.48607C10.6151 9.22436 10.8444 9.01213 11.1177 8.87301C11.1486 8.85702 11.1761 8.83509 11.1986 8.80848C11.221 8.78187 11.238 8.75109 11.2486 8.71791C11.2592 8.68473 11.2631 8.64979 11.2602 8.61508C11.2572 8.58038 11.2475 8.5466 11.2315 8.51566C11.2155 8.48472 11.1936 8.45724 11.167 8.43477C11.1404 8.41231 11.1096 8.39531 11.0764 8.38474C11.0432 8.37417 11.0083 8.37024 10.9736 8.37317C10.9389 8.3761 10.9051 8.38584 10.8742 8.40183H10.8768Z" fill="black"/>
<path d="M17.4705 14.5985L15.8161 12.9467C15.8789 12.8213 15.9005 12.6793 15.8777 12.5409C15.8548 12.4026 15.7888 12.275 15.6891 12.1764L15.1596 11.647C15.3206 11.24 15.4032 10.8062 15.4032 10.3685C15.4076 9.53918 15.1193 8.73491 14.5891 8.09723C14.059 7.45955 13.3208 7.02933 12.5046 6.8823V1.32347C12.5046 1.04265 12.3931 0.773339 12.1945 0.574771C11.996 0.376203 11.7266 0.264648 11.4458 0.264648H1.32347C1.04265 0.264648 0.773339 0.376203 0.574771 0.574771C0.376203 0.773339 0.264648 1.04265 0.264648 1.32347V16.6764C0.264648 16.9572 0.376203 17.2265 0.574771 17.4251C0.773339 17.6237 1.04265 17.7352 1.32347 17.7352H11.4458C11.7266 17.7352 11.996 17.6237 12.1945 17.4251C12.3931 17.2265 12.5046 16.9572 12.5046 16.6764V13.8176C12.728 13.7768 12.9469 13.7147 13.1585 13.6323L13.6879 14.1617C13.8138 14.287 13.9841 14.3574 14.1617 14.3576C14.269 14.3567 14.3745 14.3294 14.4688 14.2782L16.1205 15.9326C16.3026 16.0809 16.5333 16.1561 16.7678 16.1435C17.0023 16.131 17.2237 16.0316 17.3889 15.8648C17.5541 15.6979 17.6512 15.4755 17.6614 15.241C17.6716 15.0064 17.5941 14.7764 17.4441 14.5958L17.4705 14.5985ZM11.9752 16.6764C11.9752 16.8168 11.9195 16.9515 11.8202 17.0508C11.7209 17.15 11.5862 17.2058 11.4458 17.2058H1.32347C1.18306 17.2058 1.04841 17.15 0.949121 17.0508C0.849837 16.9515 0.79406 16.8168 0.79406 16.6764V1.32347C0.79406 1.18306 0.849837 1.04841 0.949121 0.949121C1.04841 0.849837 1.18306 0.79406 1.32347 0.79406H11.4458C11.5862 0.79406 11.7209 0.849837 11.8202 0.949121C11.9195 1.04841 11.9752 1.18306 11.9752 1.32347V6.83994H11.8799C10.9462 6.83994 10.0507 7.21086 9.39051 7.8711C8.73027 8.53134 8.35935 9.42681 8.35935 10.3605C8.35935 11.2942 8.73027 12.1897 9.39051 12.85C10.0507 13.5102 10.9462 13.8811 11.8799 13.8811H11.9752V16.6764ZM11.8799 13.3464C11.2883 13.3464 10.71 13.171 10.2181 12.8423C9.72624 12.5136 9.34285 12.0465 9.11646 11.4999C8.89006 10.9533 8.83083 10.3519 8.94624 9.77169C9.06166 9.19146 9.34654 8.65848 9.76486 8.24016C10.1832 7.82183 10.7162 7.53695 11.2964 7.42154C11.8766 7.30612 12.478 7.36536 13.0246 7.59175C13.5712 7.81815 14.0383 8.20153 14.367 8.69343C14.6957 9.18532 14.8711 9.76364 14.8711 10.3552C14.8704 11.1483 14.5551 11.9087 13.9942 12.4695C13.4334 13.0303 12.673 13.3457 11.8799 13.3464ZM17.0841 15.5594C17.0457 15.5979 17.0001 15.6284 16.9499 15.6492C16.8997 15.6701 16.8459 15.6808 16.7916 15.6808C16.7372 15.6808 16.6834 15.6701 16.6332 15.6492C16.583 15.6284 16.5374 15.5979 16.4991 15.5594L14.8711 13.9314L15.4561 13.3438L17.0841 14.9744C17.1226 15.0127 17.1531 15.0583 17.1739 15.1085C17.1948 15.1587 17.2055 15.2125 17.2055 15.2669C17.2055 15.3212 17.1948 15.375 17.1739 15.4252C17.1531 15.4754 17.1226 15.521 17.0841 15.5594Z" fill="black"/>
</g>
<defs>
<clipPath id="clip0_3_24">
<rect width="18" height="18" fill="white"/>
</clipPath>
</defs>
</svg>
