<svg width="18" height="18" viewBox="0 0 18 18" fill="none" xmlns="http://www.w3.org/2000/svg">
<g clip-path="url(#clip0_60_621)">
<path d="M11.953 16.1381C11.8658 16.1381 11.7814 16.0959 11.728 16.02C11.3483 15.4687 11.0698 14.7966 10.8786 13.9697C10.8448 13.8234 10.9348 13.6772 11.0811 13.6434C11.2273 13.6097 11.3736 13.6997 11.4073 13.8459C11.5845 14.6053 11.8348 15.2156 12.1752 15.7106C12.2595 15.8344 12.2286 16.0059 12.1048 16.0903C12.0598 16.1212 12.0064 16.1381 11.953 16.1381ZM6.09453 16.1381C6.04109 16.1381 5.98484 16.1212 5.93703 16.0875C5.81328 16.0003 5.78515 15.8316 5.87234 15.7078C6.18453 15.2634 6.42359 14.6559 6.60078 13.8487C6.63171 13.7025 6.77796 13.6097 6.92703 13.6406C7.07328 13.6716 7.16609 13.8178 7.13515 13.9669C6.94109 14.8472 6.6739 15.5194 6.31953 16.0228C6.26609 16.0959 6.18171 16.1381 6.09453 16.1381Z" fill="#34495C"/>
<path d="M12.4678 17.0606H5.53219C5.21719 17.0606 4.96969 16.8412 4.96969 16.5628V16.0875C4.96969 15.8147 5.22281 15.5925 5.53219 15.5925H12.465C12.7744 15.5925 13.0275 15.8147 13.0275 16.0875V16.56C13.0275 16.8412 12.7828 17.0606 12.4678 17.0606ZM5.51813 16.5122C5.52375 16.5122 5.52938 16.5122 5.535 16.5122H12.4678C12.4734 16.5122 12.4791 16.5122 12.4847 16.5122V16.1381C12.4791 16.1381 12.4734 16.1381 12.4678 16.1381H5.53219C5.52656 16.1381 5.52094 16.1381 5.51531 16.1381V16.5122H5.51813ZM17.3644 14.1806H0.635625C0.286875 14.1806 0 13.8937 0 13.5422V1.57781C0 1.22625 0.286875 0.942184 0.635625 0.942184H17.3616C17.7131 0.942184 17.9972 1.22906 17.9972 1.57781V13.545C18 13.8937 17.7131 14.1806 17.3644 14.1806ZM0.635625 1.485C0.585 1.485 0.545625 1.52437 0.545625 1.575V13.5422C0.545625 13.5928 0.585 13.6322 0.635625 13.6322H17.3616C17.4122 13.6322 17.4516 13.5928 17.4516 13.5422V1.57781C17.4516 1.52718 17.4122 1.48781 17.3616 1.48781H0.635625V1.485Z" fill="#101010"/>
<path d="M16.5711 13.1344H1.42863C1.22051 13.1344 1.05176 12.9656 1.05176 12.7575V2.3625C1.05176 2.15438 1.22051 1.98563 1.42863 1.98563H16.5711C16.7793 1.98563 16.948 2.15438 16.948 2.3625V12.7575C16.948 12.9656 16.7793 13.1344 16.5711 13.1344ZM1.59738 12.5888H16.4052V2.53125H1.59738V12.5888Z" fill="#34495C"/>
<path d="M5.3015 7.26186C4.91619 7.26186 4.604 6.94968 4.604 6.56436C4.604 6.17905 4.91619 5.86686 5.3015 5.86686C5.68682 5.86686 5.999 6.17905 5.999 6.56436C5.999 6.94968 5.68682 7.26186 5.3015 7.26186ZM5.3015 6.41249C5.21713 6.41249 5.14963 6.47999 5.14963 6.56436C5.14963 6.64874 5.21713 6.71624 5.3015 6.71624C5.38588 6.71624 5.45338 6.64874 5.45338 6.56436C5.45338 6.47999 5.38588 6.41249 5.3015 6.41249ZM5.3015 8.87905C4.91619 8.87905 4.604 8.56686 4.604 8.18155C4.604 7.79624 4.91619 7.48405 5.3015 7.48405C5.68682 7.48405 5.999 7.79624 5.999 8.18155C5.999 8.56686 5.68682 8.87905 5.3015 8.87905ZM5.3015 8.02968C5.21713 8.02968 5.14963 8.09718 5.14963 8.18155C5.14963 8.26593 5.21713 8.33343 5.3015 8.33343C5.38588 8.33343 5.45338 8.26593 5.45338 8.18155C5.45338 8.09718 5.38588 8.02968 5.3015 8.02968ZM5.3015 10.4934C4.91619 10.4934 4.604 10.1812 4.604 9.79593C4.604 9.41061 4.91619 9.09843 5.3015 9.09843C5.68682 9.09843 5.999 9.41061 5.999 9.79593C5.999 10.1812 5.68682 10.4934 5.3015 10.4934ZM5.3015 9.64405C5.21713 9.64405 5.14963 9.71155 5.14963 9.79593C5.14963 9.8803 5.21713 9.9478 5.3015 9.9478C5.38588 9.9478 5.45338 9.8803 5.45338 9.79593C5.45338 9.71436 5.38588 9.64405 5.3015 9.64405ZM5.3015 12.1106C4.91619 12.1106 4.604 11.7984 4.604 11.4131C4.604 11.0278 4.91619 10.7156 5.3015 10.7156C5.68682 10.7156 5.999 11.0278 5.999 11.4131C5.999 11.7984 5.68682 12.1106 5.3015 12.1106ZM5.3015 11.2612C5.21713 11.2612 5.14963 11.3287 5.14963 11.4131C5.14963 11.4975 5.21713 11.565 5.3015 11.565C5.38588 11.565 5.45338 11.4975 5.45338 11.4131C5.45338 11.3287 5.38588 11.2612 5.3015 11.2612ZM7.55432 5.75436C7.484 5.75436 7.41088 5.72624 7.35744 5.66999L6.29994 4.5703C6.19869 4.46343 6.19869 4.29749 6.29994 4.19343L7.35744 3.09374C7.4615 2.98405 7.63588 2.98124 7.74275 3.0853C7.85244 3.18936 7.85525 3.36374 7.75119 3.47061L6.87369 4.38186L7.75119 5.29311C7.85525 5.4028 7.85244 5.57436 7.74275 5.67843C7.69213 5.72905 7.62182 5.75436 7.55432 5.75436ZM11.3371 5.75436C11.2696 5.75436 11.2021 5.72905 11.1487 5.67843C11.039 5.57436 11.0362 5.39999 11.1403 5.29311L12.0178 4.38186L11.1403 3.47061C11.0362 3.36093 11.039 3.18936 11.1487 3.0853C11.2556 2.98124 11.4299 2.98405 11.534 3.09374L12.5915 4.19343C12.6928 4.3003 12.6928 4.46624 12.5915 4.5703L11.534 5.66999C11.4806 5.72624 11.4074 5.75436 11.3371 5.75436Z" fill="#999999"/>
<path d="M8.89312 5.75438C8.85093 5.75438 8.81156 5.74594 8.77218 5.72625C8.63718 5.65875 8.58375 5.49563 8.65125 5.36063L9.75656 3.16125C9.82406 3.02625 9.98718 2.97281 10.1222 3.04031C10.2572 3.10781 10.3106 3.27094 10.2431 3.40594L9.13781 5.60531C9.08718 5.69813 8.99156 5.75438 8.89312 5.75438Z" fill="#999999"/>
<path d="M8.54209 6.83719H6.93053C6.77865 6.83719 6.65771 6.71625 6.65771 6.56438C6.65771 6.4125 6.77865 6.29156 6.93053 6.29156H8.54209C8.69397 6.29156 8.8149 6.4125 8.8149 6.56438C8.8149 6.71625 8.69397 6.83719 8.54209 6.83719ZM13.1237 6.83719H9.62771C9.47584 6.83719 9.3549 6.71625 9.3549 6.56438C9.3549 6.4125 9.47584 6.29156 9.62771 6.29156H13.1237C13.2755 6.29156 13.3965 6.4125 13.3965 6.56438C13.3965 6.71625 13.2727 6.83719 13.1237 6.83719Z" fill="#999999"/>
<path d="M10.7133 8.45438H6.93053C6.77865 8.45438 6.65771 8.33344 6.65771 8.18156C6.65771 8.02969 6.77865 7.90875 6.93053 7.90875H10.7133C10.8652 7.90875 10.9862 8.02969 10.9862 8.18156C10.9862 8.33063 10.8652 8.45438 10.7133 8.45438ZM13.1237 8.45438H11.8271C11.6752 8.45438 11.5543 8.33344 11.5543 8.18156C11.5543 8.02969 11.6752 7.90875 11.8271 7.90875H13.1237C13.2755 7.90875 13.3965 8.02969 13.3965 8.18156C13.3965 8.33063 13.2727 8.45438 13.1237 8.45438Z" fill="#999999"/>
<path d="M8.54209 10.0687H6.93053C6.77865 10.0687 6.65771 9.9478 6.65771 9.79593C6.65771 9.64405 6.77865 9.52312 6.93053 9.52312H8.54209C8.69397 9.52312 8.8149 9.64405 8.8149 9.79593C8.8149 9.9478 8.69397 10.0687 8.54209 10.0687ZM13.1237 10.0687H9.62771C9.47584 10.0687 9.3549 9.9478 9.3549 9.79593C9.3549 9.64405 9.47584 9.52312 9.62771 9.52312H13.1237C13.2755 9.52312 13.3965 9.64405 13.3965 9.79593C13.3965 9.9478 13.2727 10.0687 13.1237 10.0687Z" fill="#999999"/>
<path d="M8.08084 11.6859H6.93053C6.77865 11.6859 6.65771 11.565 6.65771 11.4131C6.65771 11.2612 6.77865 11.1403 6.93053 11.1403H8.08084C8.23271 11.1403 8.35365 11.2612 8.35365 11.4131C8.35365 11.565 8.23271 11.6859 8.08084 11.6859ZM10.5868 11.6859H8.87115C8.71928 11.6859 8.59834 11.565 8.59834 11.4131C8.59834 11.2612 8.71928 11.1403 8.87115 11.1403H10.5868C10.7387 11.1403 10.8596 11.2612 10.8596 11.4131C10.8596 11.565 10.7358 11.6859 10.5868 11.6859ZM13.1237 11.6859H11.3405C11.1887 11.6859 11.0677 11.565 11.0677 11.4131C11.0677 11.2612 11.1887 11.1403 11.3405 11.1403H13.1237C13.2755 11.1403 13.3965 11.2612 13.3965 11.4131C13.3965 11.565 13.2727 11.6859 13.1237 11.6859Z" fill="#999999"/>
</g>
<defs>
<clipPath id="clip0_60_621">
<rect width="18" height="18" fill="white"/>
</clipPath>
</defs>
</svg>
