<svg width="50" height="50" viewBox="0 0 50 50" fill="none" xmlns="http://www.w3.org/2000/svg">
<path fill-rule="evenodd" clip-rule="evenodd" d="M37 20C37 24.3712 34.3344 28.1469 30.4732 29.921C30.1859 29.4292 29.6951 29.1224 29.1278 29.0693C28.6978 29.0291 28.3005 29.1473 27.8997 29.2664L27.8997 29.2664C27.7464 29.312 27.5926 29.3577 27.4363 29.3948C27.4245 29.3976 27.4077 29.4025 27.3877 29.4083L27.3876 29.4083C27.3003 29.4336 27.1524 29.4764 27.0918 29.4418C27.0858 29.4383 27.0805 29.4363 27.076 29.4354C27.0801 29.4087 27.0828 29.3658 27.0818 29.2993C27.0773 28.9701 27.1146 28.6296 27.1513 28.2942L27.1513 28.2941C27.1673 28.1486 27.1831 28.004 27.1953 27.8618C27.2287 27.4768 27.2637 27.0919 27.2988 26.707L27.2988 26.707C27.4132 25.4522 27.5275 24.197 27.5818 22.9378C27.5892 22.7664 27.5995 22.5877 27.6101 22.4039L27.6101 22.4039C27.6809 21.1699 27.7649 19.7067 27.0808 18.6953C26.3903 17.6743 24.6463 17.8708 23.8438 18.6833C23.4117 19.1204 23.3034 19.7303 23.1999 20.3129C23.1888 20.3754 23.1777 20.4376 23.1663 20.4993C23.0168 21.3098 22.8858 22.1238 22.7738 22.9408C22.4293 25.4528 22.2892 27.9936 22.1724 30.5325C17.4436 29.1674 14 24.9684 14 20C14 13.9249 19.1487 9 25.5 9C31.8513 9 37 13.9249 37 20ZM27.9951 30.7404C28.2351 30.6645 28.4842 30.5912 28.6989 30.5688C28.4672 30.6329 28.2326 30.6901 27.9951 30.7404Z" fill="#139ED9"/>
<path d="M22.3355 28.4967C21.679 29.1802 21.0205 29.8627 20.3655 30.5477C19.8335 31.1037 19.3895 31.6562 19.335 32.4547C19.2765 33.3077 19.411 34.2042 19.461 35.0577C19.509 35.8717 19.546 36.6862 19.655 37.4947C19.87 39.0877 20.4925 40.3597 21.551 41.5592C22.499 42.6332 23.9845 43.9357 23.5825 45.5387C23.348 46.4752 24.794 46.8747 25.029 45.9377C25.3965 44.4707 24.789 43.0847 23.8855 41.9437C22.963 40.7797 21.7765 39.8387 21.349 38.3592C20.9175 36.8657 20.97 35.2187 20.8795 33.6782C20.8565 33.2892 20.7655 32.8342 20.843 32.4502C20.921 32.0632 21.2485 31.7937 21.5115 31.5192C22.139 30.8647 22.768 30.2112 23.396 29.5577C24.065 28.8612 23.0055 27.7992 22.3355 28.4967ZM22.8045 15.5427C23.146 15.1997 23.58 15.0392 24.0425 14.9252C24.607 14.7862 25.1945 14.6982 25.774 14.6552C26.738 14.5832 27.9105 14.6922 28.4505 15.6177C28.9365 16.4512 30.2335 15.6972 29.7455 14.8607C28.9615 13.5167 27.3745 13.0612 25.9025 13.1467C24.494 13.2282 22.788 13.4337 21.7435 14.4822C21.0615 15.1672 22.122 16.2282 22.8045 15.5427ZM30.266 17.3632C30.266 17.4007 30.266 17.4377 30.266 17.4752C30.262 17.5787 30.2835 17.6747 30.3305 17.7642C30.3605 17.8572 30.4125 17.9377 30.4855 18.0057C30.5535 18.0787 30.634 18.1307 30.727 18.1607C30.8165 18.2077 30.9125 18.2292 31.016 18.2252C31.0825 18.2162 31.149 18.2072 31.2155 18.1982C31.3425 18.1627 31.453 18.0982 31.5465 18.0052C31.5855 17.9547 31.6245 17.9042 31.664 17.8532C31.732 17.7362 31.766 17.6102 31.7665 17.4747C31.7665 17.4372 31.7665 17.3997 31.7665 17.3627C31.7705 17.2592 31.749 17.1632 31.702 17.0737C31.672 16.9807 31.62 16.9002 31.547 16.8322C31.479 16.7592 31.3985 16.7072 31.3055 16.6772C31.216 16.6302 31.12 16.6087 31.0165 16.6127C30.95 16.6217 30.8835 16.6307 30.817 16.6397C30.69 16.6752 30.5795 16.7397 30.486 16.8327C30.447 16.8832 30.408 16.9337 30.3685 16.9847C30.3005 17.1017 30.2665 17.2277 30.266 17.3632Z" fill="black"/>
<path d="M18.9874 11.9566C23.6394 9.92013 30.1859 9.22312 33.6134 13.8471C34.1819 14.6141 35.4844 13.8671 34.9084 13.0901C33.2049 10.7921 30.6024 9.38712 27.7874 8.98162C24.4949 8.50712 21.2344 9.34662 18.2304 10.6616C17.3479 11.0476 18.1109 12.3401 18.9874 11.9566ZM16.0294 6.22012C22.5244 4.01162 30.5934 3.65412 35.5759 9.19562C36.2229 9.91512 37.2809 8.85162 36.6364 8.13512C34.2909 5.52612 30.9599 3.93062 27.5164 3.40012C23.5034 2.78262 19.4424 3.47712 15.6309 4.77312C14.7219 5.08262 15.1119 6.53212 16.0294 6.22012ZM19.5749 17.5896C18.5119 18.9071 18.2854 20.6601 18.9804 22.2046C19.1419 22.5636 19.6909 22.6771 20.0064 22.4736C20.3774 22.2346 20.4484 21.8316 20.2754 21.4476C20.2244 21.3346 20.2744 21.4716 20.2844 21.4716C20.2774 21.4716 20.2484 21.3766 20.2444 21.3666C20.2189 21.2961 20.1959 21.2251 20.1754 21.1531C20.1549 21.0811 20.1364 21.0086 20.1209 20.9356C20.1124 20.8956 20.1079 20.7391 20.0804 20.7151C20.1014 20.7336 20.0959 20.8641 20.0859 20.7476C20.0829 20.7101 20.0789 20.6731 20.0764 20.6356C20.0709 20.5611 20.0679 20.4861 20.0674 20.4111C20.0669 20.3361 20.0684 20.2611 20.0724 20.1866C20.0744 20.1491 20.0769 20.1116 20.0799 20.0746C20.0819 20.0506 20.0944 19.8881 20.0844 20.0066C20.0759 20.1141 20.0874 19.9891 20.0914 19.9671C20.0974 19.9301 20.1044 19.8931 20.1119 19.8566C20.1264 19.7831 20.1434 19.7101 20.1624 19.6376C20.2009 19.4921 20.2509 19.3521 20.3034 19.2111C20.3399 19.1126 20.2459 19.3286 20.2944 19.2356C20.3114 19.2026 20.3259 19.1676 20.3429 19.1346C20.3764 19.0676 20.4114 19.0016 20.4494 18.9371C20.4869 18.8726 20.5269 18.8091 20.5684 18.7471C20.5894 18.7161 20.6124 18.6866 20.6329 18.6551C20.6904 18.5666 20.5214 18.7931 20.6359 18.6511C20.8819 18.3461 20.9559 17.8841 20.6359 17.5906C20.3624 17.3386 19.8379 17.2631 19.5749 17.5896Z" fill="black"/>
<path d="M16.3984 14.022C15.2759 14.699 14.8484 16.069 14.5679 17.2785C14.2424 18.6815 14.1879 20.124 14.4064 21.547C14.8069 24.155 16.2624 26.4805 18.3834 28.032C19.1634 28.6025 19.9124 27.3015 19.1404 26.737C17.4544 25.5035 16.3359 23.623 15.9294 21.5865C15.7029 20.452 15.7079 19.25 15.9224 18.114C16.0879 17.235 16.3169 15.8235 17.1554 15.318C17.9809 14.8195 17.2279 13.5215 16.3984 14.022Z" fill="black"/>
<path d="M12.8444 7.49115C10.1369 10.3846 8.4704 14.1156 8.0844 18.0571C7.7104 21.8756 8.6989 25.7781 10.7434 29.0156C11.9114 30.8651 13.4004 32.4571 15.1424 33.7751C15.9119 34.3576 16.6604 33.0556 15.8994 32.4801C13.1259 30.3811 11.0854 27.3471 10.1234 24.0106C9.1429 20.6081 9.3694 16.9856 10.6509 13.6931C11.3914 11.7906 12.5119 10.0401 13.9049 8.55165C14.5639 7.84715 13.5054 6.78415 12.8444 7.49115ZM30.7679 23.0251C31.2434 22.9046 31.7059 22.6216 32.0219 22.2451C32.1824 22.0541 32.3264 21.8551 32.4264 21.6256C32.4884 21.4836 32.5499 21.3421 32.5874 21.1916C32.6254 21.0396 32.6444 20.8821 32.6579 20.7266C32.6739 20.5451 32.5629 20.3211 32.4384 20.1961C32.3084 20.0661 32.0949 19.9681 31.9079 19.9766C31.7139 19.9851 31.5129 20.0491 31.3774 20.1961C31.2364 20.3496 31.1759 20.5186 31.1579 20.7266C31.1554 20.7566 31.1519 20.7861 31.1484 20.8161C31.1574 20.7496 31.1664 20.6831 31.1754 20.6166C31.1539 20.7651 31.1134 20.9091 31.0559 21.0476C31.0809 20.9881 31.1064 20.9281 31.1314 20.8686C31.0689 21.0136 30.9894 21.1491 30.8934 21.2746C30.9324 21.2241 30.9714 21.1736 31.0109 21.1226C30.9134 21.2471 30.8029 21.3586 30.6784 21.4566C30.7289 21.4176 30.7794 21.3786 30.8304 21.3391C30.7054 21.4351 30.5699 21.5146 30.4249 21.5761C30.4844 21.5511 30.5444 21.5256 30.6039 21.5006C30.5274 21.5316 30.4494 21.5576 30.3694 21.5776C30.1889 21.6236 30.0144 21.7626 29.9214 21.9221C29.8274 22.0831 29.7874 22.3196 29.8459 22.5001C29.9724 22.8941 30.3604 23.1281 30.7679 23.0251ZM35.0419 17.3146C35.5424 17.9881 35.5974 18.7856 35.5889 19.5981C35.5794 20.5016 35.4794 21.3976 35.2859 22.2801C34.8949 24.0631 34.1589 25.7256 33.1234 27.2271C32.5739 28.0236 33.8734 28.7746 34.4184 27.9841C35.5874 26.2886 36.4149 24.3471 36.8054 22.3231C37.1474 20.5501 37.4924 18.1121 36.3369 16.5571C36.0934 16.2296 35.6904 16.0721 35.3109 16.2881C34.9884 16.4721 34.8009 16.9901 35.0419 17.3146ZM37.9094 11.4861C41.2889 16.9226 41.3529 24.0921 38.0599 29.5836C37.5624 30.4136 38.8584 31.1686 39.3549 30.3406C42.9134 24.4071 42.8579 16.6066 39.2044 10.7291C38.6959 9.91065 37.3979 10.6631 37.9094 11.4861ZM26.7164 33.3031C27.6814 33.3031 27.6834 31.8031 26.7164 31.8031C25.7514 31.8031 25.7494 33.3031 26.7164 33.3031ZM30.6084 34.1426C31.5734 34.1426 31.5754 32.6426 30.6084 32.6426C29.6434 32.6426 29.6419 34.1426 30.6084 34.1426ZM34.1954 35.5161C35.1604 35.5161 35.1624 34.0161 34.1954 34.0161C33.2304 34.0161 33.2289 35.5161 34.1954 35.5161ZM22.4669 36.7241C22.4589 38.0226 23.3049 39.0346 24.1534 39.9236C24.8749 40.6796 25.7659 41.5261 25.7419 42.6456C25.7214 43.6111 27.2214 43.6111 27.2419 42.6456C27.2694 41.3336 26.5054 40.2396 25.6484 39.3196C24.9759 38.5981 23.9599 37.7706 23.9664 36.7241C23.9729 35.7586 22.4729 35.7576 22.4669 36.7241Z" fill="black"/>
<path d="M26.8975 46.3799C27.8625 46.3799 27.8645 44.8799 26.8975 44.8799C25.932 44.8799 25.9305 46.3799 26.8975 46.3799Z" fill="black"/>
<path d="M23.4764 33.3997C23.7164 28.9302 23.7869 24.4272 24.6099 20.0162C24.6834 19.6237 24.6799 19.0192 25.1049 18.8477C25.4659 18.7022 25.7944 18.6377 25.9379 19.0117C26.2789 19.9027 26.0999 21.1227 26.0624 22.0532C26.0159 23.2167 25.9159 24.3772 25.8114 25.5362C25.7159 26.5937 25.5039 27.7157 25.5529 28.7777C25.5939 29.6687 26.3449 30.2157 27.2034 30.1752C27.6829 30.1527 28.8129 29.5367 29.1594 29.9227C29.3009 30.0802 29.3274 30.3897 29.4024 30.5862C29.5234 30.9047 29.6754 31.2007 29.9494 31.4132C30.6099 31.9262 31.4379 31.5987 32.1149 31.2987C32.8299 30.9817 33.5454 30.5662 33.9634 31.4682C34.2974 32.1892 34.2099 33.2082 35.1929 33.3732C35.5199 33.4282 35.8534 33.3347 36.1784 33.3037C36.4964 33.2732 36.5844 33.1867 36.6939 33.4137C36.9719 33.9917 36.8734 34.7802 36.8104 35.3932C36.7304 36.1777 36.5559 36.9487 36.4439 37.7287C36.3009 38.7252 36.2889 39.7692 35.8299 40.6897C35.3384 41.6742 34.4484 42.3887 33.8859 43.3287C33.3539 44.2177 33.0844 45.2827 33.4284 46.2877C33.7394 47.1957 35.1889 46.8057 34.8749 45.8887C34.3079 44.2332 36.3034 42.8952 37.0264 41.6277C37.7999 40.2717 37.7864 38.6832 38.0469 37.1847C38.2669 35.9172 38.5699 34.4987 38.2119 33.2282C38.0539 32.6667 37.7319 32.0592 37.1419 31.8687C36.8584 31.7772 36.5484 31.7717 36.2539 31.7952C35.9799 31.8172 35.6049 31.9547 35.3394 31.8567C35.4889 31.9717 35.6384 32.0867 35.7874 32.2012C35.6344 31.9967 35.6209 31.6857 35.5454 31.4437C35.4614 31.1742 35.3589 30.9027 35.2299 30.6507C34.9564 30.1167 34.4969 29.6517 33.9129 29.4747C33.3114 29.2922 32.7069 29.4197 32.1409 29.6532C31.8489 29.7732 31.5689 29.9237 31.2749 30.0387C31.1684 30.0802 31.0254 30.1067 30.9214 30.1582C30.7274 30.2537 30.7874 30.1337 30.8639 30.2182C30.6569 29.9892 30.6139 29.4412 30.4549 29.1647C30.1684 28.6672 29.6749 28.3567 29.1039 28.3032C28.5094 28.2477 27.9774 28.4947 27.4124 28.6287C27.3489 28.6437 27.1424 28.7182 27.0679 28.6757C26.9834 28.6277 27.0624 28.8527 27.0579 28.5332C27.0514 28.0612 27.1309 27.5657 27.1714 27.0957C27.3134 25.4557 27.4869 23.8172 27.5579 22.1717C27.6149 20.8497 27.8429 19.0912 27.0569 17.9292C26.3664 16.9082 24.6224 17.1047 23.8199 17.9172C23.3414 18.4012 23.2599 19.0972 23.1424 19.7332C22.9929 20.5437 22.8619 21.3577 22.7499 22.1747C22.2409 25.8862 22.1779 29.6607 21.9774 33.3987C21.9249 34.3642 23.4249 34.3612 23.4764 33.3997Z" fill="black"/>
</svg>
