<svg width="50" height="50" viewBox="0 0 50 50" fill="none" xmlns="http://www.w3.org/2000/svg">
<g clip-path="url(#clip0_39_961)">
<path d="M22 45.3077V4.69231V1H22.963H29.2222L30.1852 4.69231L33.5556 6.27473L36.4444 7.32967L39.3333 5.74725L43.6667 9.96703L43.1852 15.2418L44.6296 19.989L48 21.5714V28.4286L44.6296 30.011L42.2222 35.8132L43.6667 39.5055L39.3333 44.2527L36.4444 43.1978L30.1852 45.3077L29.2222 49H22.963L22 45.3077Z" fill="#139ED9"/>
<path d="M28.6764 49.2649H21.3235C21.1702 49.2658 21.0205 49.2189 20.8953 49.1305C20.7701 49.0422 20.6755 48.9169 20.625 48.7723L19.4117 45.3164C18.147 44.7796 17.2059 44.4046 16.1911 43.9782L14.647 43.3384L11.3382 44.934C11.2012 45.0004 11.047 45.0226 10.8969 44.9975C10.7467 44.9725 10.608 44.9015 10.5 44.7943C7.88232 42.1473 7.88232 42.1473 5.23526 39.5296C5.12808 39.4215 5.05708 39.2829 5.03206 39.1327C5.00703 38.9826 5.02922 38.8284 5.09556 38.6914L6.69115 35.3826L6.01468 33.8237C5.58821 32.787 5.22056 31.8826 4.68379 30.6252L1.22791 29.412C1.07709 29.3595 0.947445 29.2594 0.858565 29.1268C0.769686 28.9941 0.726405 28.8361 0.735264 28.6767V21.3237C0.726405 21.1643 0.769686 21.0063 0.858565 20.8737C0.947445 20.741 1.07709 20.6409 1.22791 20.5884L4.68379 19.3752C5.21321 18.1252 5.58085 17.2208 6.00732 16.1987L6.65438 14.6105L5.06615 11.3017C4.99981 11.1647 4.97762 11.0105 5.00264 10.8603C5.02767 10.7102 5.09867 10.5715 5.20585 10.4634C7.85291 7.8458 7.85291 7.8458 10.4706 5.19874C10.5778 5.09035 10.7161 5.01797 10.8662 4.99162C11.0164 4.96527 11.1711 4.98626 11.3088 5.05168L14.6176 6.64727L16.1764 6.02227C17.2132 5.5958 18.125 5.2208 19.3897 4.68404L20.5882 1.22816C20.6407 1.07734 20.7408 0.947689 20.8734 0.858809C21.0061 0.76993 21.1641 0.726649 21.3235 0.735508H28.6764C28.8359 0.726649 28.9939 0.76993 29.1265 0.858809C29.2592 0.947689 29.3593 1.07734 29.4117 1.22816L30.625 4.68404C31.8897 5.2208 32.8309 5.5958 33.8382 6.02227L35.3897 6.65463L38.6985 5.06639C38.8355 5.00005 38.9897 4.97786 39.1398 5.00289C39.29 5.02791 39.4287 5.09891 39.5367 5.2061C42.1544 7.85315 42.1544 7.85315 44.8014 10.4708C44.9098 10.578 44.9822 10.7163 45.0086 10.8665C45.0349 11.0167 45.0139 11.1713 44.9485 11.309L43.3823 14.6179L43.9706 16.1767C44.4044 17.2282 44.7794 18.1399 45.3161 19.412L48.772 20.5884C48.9228 20.6409 49.0525 20.741 49.1414 20.8737C49.2303 21.0063 49.2735 21.1643 49.2647 21.3237V28.6767C49.2735 28.8361 49.2303 28.9941 49.1414 29.1268C49.0525 29.2594 48.9228 29.3595 48.772 29.412L45.3161 30.6252C44.772 31.9046 44.397 32.8311 43.9632 33.8899L43.3456 35.3605L44.9338 38.6693C45.0001 38.8063 45.0223 38.9605 44.9973 39.1107C44.9723 39.2608 44.9013 39.3995 44.7941 39.5076C42.147 42.1252 42.147 42.1252 39.5294 44.7723C39.4213 44.8795 39.2826 44.9505 39.1325 44.9755C38.9823 45.0005 38.8281 44.9783 38.6911 44.912L35.3823 43.3164L33.8382 43.9561C32.7941 44.3826 31.8823 44.7576 30.6176 45.2943L29.4117 48.7723C29.3593 48.9231 29.2592 49.0527 29.1265 49.1416C28.9939 49.2305 28.8359 49.2738 28.6764 49.2649ZM21.7794 47.7943H28.1617L29.3088 44.5223C29.3424 44.4258 29.3957 44.3375 29.4653 44.2628C29.5349 44.1881 29.6194 44.1287 29.7132 44.0884C31.147 43.4782 32.1176 43.0811 33.25 42.6179L35.0882 41.8826C35.183 41.84 35.2857 41.8179 35.3897 41.8179C35.4936 41.8179 35.5964 41.84 35.6911 41.8826L38.8235 43.3532C40.9706 41.1914 41.1911 40.9708 43.3529 38.8237L41.8823 35.6914C41.8397 35.5966 41.8177 35.4938 41.8177 35.3899C41.8177 35.286 41.8397 35.1832 41.8823 35.0884L42.6176 33.2943C43.0882 32.1399 43.4853 31.162 44.0882 29.7134C44.1285 29.6196 44.1878 29.5352 44.2625 29.4656C44.3372 29.3959 44.4256 29.3426 44.522 29.309L47.7941 28.1914V21.809L44.522 20.662C44.3298 20.5896 44.1739 20.4443 44.0882 20.2576C43.4779 18.787 43.0735 17.8458 42.6176 16.7061L41.8823 14.8826C41.8397 14.7878 41.8177 14.685 41.8177 14.5811C41.8177 14.4772 41.8397 14.3744 41.8823 14.2796L43.3529 11.1473C41.1911 9.00021 40.9706 8.77963 38.8235 6.61786L35.6911 8.12521C35.5964 8.16783 35.4936 8.18986 35.3897 8.18986C35.2857 8.18986 35.183 8.16783 35.0882 8.12521L33.2426 7.38992C32.1176 6.92668 31.147 6.52963 29.7132 5.91933C29.6194 5.87906 29.5349 5.81969 29.4653 5.745C29.3957 5.67031 29.3424 5.58194 29.3088 5.48551L28.1911 2.2061H21.8088L20.6617 5.47816C20.6281 5.57458 20.5748 5.66296 20.5052 5.73765C20.4356 5.81234 20.3512 5.87171 20.2573 5.91198C18.8235 6.52227 17.8529 6.91933 16.7279 7.38257L14.8823 8.11786C14.7875 8.16047 14.6848 8.1825 14.5809 8.1825C14.4769 8.1825 14.3742 8.16047 14.2794 8.11786L11.147 6.61786C8.99997 8.77963 8.77938 9.00021 6.61762 11.1473L8.12497 14.2796C8.16758 14.3744 8.18961 14.4772 8.18961 14.5811C8.18961 14.685 8.16758 14.7878 8.12497 14.8826C7.83085 15.6179 7.58085 16.1987 7.35291 16.7649C6.89703 17.8752 6.49997 18.8458 5.88232 20.2576C5.79414 20.4424 5.6391 20.587 5.4485 20.662L2.20585 21.809V28.1914L5.47791 29.3384C5.57434 29.372 5.66271 29.4253 5.73741 29.495C5.8121 29.5646 5.87147 29.649 5.91173 29.7429C6.51468 31.1693 6.91173 32.1399 7.38232 33.2576L8.11762 35.1179C8.16023 35.2127 8.18226 35.3154 8.18226 35.4193C8.18226 35.5233 8.16023 35.626 8.11762 35.7208L6.61762 38.8532C8.77938 41.0002 8.99997 41.2208 11.147 43.3826L14.2794 41.912C14.3742 41.8694 14.4769 41.8473 14.5809 41.8473C14.6848 41.8473 14.7875 41.8694 14.8823 41.912L16.7206 42.6473C17.8529 43.1105 18.8235 43.5076 20.2573 44.1179C20.3512 44.1581 20.4356 44.2175 20.5052 44.2922C20.5748 44.3669 20.6281 44.4553 20.6617 44.5517L21.7794 47.7943Z" fill="black"/>
<path d="M24.9999 41.3529C21.7656 41.3529 18.6039 40.3938 15.9147 38.5969C13.2255 36.8 11.1295 34.246 9.89177 31.2579C8.65406 28.2698 8.33022 24.9818 8.9612 21.8096C9.59218 18.6375 11.1496 15.7236 13.4366 13.4366C15.7236 11.1496 18.6375 9.59218 21.8096 8.9612C24.9818 8.33022 28.2698 8.65406 31.2579 9.89177C34.246 11.1295 36.8 13.2255 38.5969 15.9147C40.3938 18.6039 41.3529 21.7656 41.3529 24.9999C41.347 29.3352 39.6223 33.4912 36.5568 36.5568C33.4912 39.6223 29.3352 41.347 24.9999 41.3529ZM24.9999 10.1176C22.0565 10.1176 19.1791 10.9904 16.7317 12.6257C14.2843 14.261 12.3768 16.5853 11.2504 19.3047C10.124 22.0241 9.82929 25.0164 10.4035 27.9033C10.9778 30.7902 12.3952 33.442 14.4765 35.5233C16.5578 37.6047 19.2096 39.0221 22.0965 39.5963C24.9834 40.1706 27.9758 39.8758 30.6952 38.7494C33.4145 37.623 35.7389 35.7155 37.3741 33.2681C39.0094 30.8207 39.8823 27.9434 39.8823 24.9999C39.8784 21.0541 38.3092 17.2709 35.519 14.4808C32.7289 11.6907 28.9458 10.1215 24.9999 10.1176Z" fill="black"/>
<path d="M18.2941 31.147C18.1848 31.1483 18.0766 31.1252 17.9774 31.0794C17.8782 31.0336 17.7905 30.9663 17.7205 30.8823C16.7791 29.7176 16.1308 28.3441 15.8302 26.877C15.5296 25.4098 15.5853 23.892 15.9929 22.4509C16.4004 21.0098 17.1477 19.6875 18.1722 18.5951C19.1966 17.5027 20.4682 16.6721 21.8802 16.1729C23.2921 15.6738 24.8033 15.5207 26.2866 15.7266C27.77 15.9324 29.1824 16.4912 30.4051 17.356C31.6277 18.2208 32.6251 19.3663 33.3133 20.6964C34.0015 22.0265 34.3606 23.5024 34.3602 25C34.3602 25.195 34.2828 25.382 34.1449 25.5199C34.007 25.6578 33.82 25.7353 33.6249 25.7353C33.4299 25.7353 33.2429 25.6578 33.105 25.5199C32.9671 25.382 32.8896 25.195 32.8896 25C32.8896 22.9075 32.0584 20.9007 30.5788 19.4211C29.0992 17.9415 27.0924 17.1103 24.9999 17.1103C22.9075 17.1103 20.9007 17.9415 19.4211 19.4211C17.9415 20.9007 17.1102 22.9075 17.1102 25C17.1039 26.8022 17.7223 28.5509 18.8602 29.9485C18.9213 30.0237 18.9669 30.1102 18.9944 30.2031C19.022 30.296 19.0309 30.3935 19.0206 30.4898C19.0104 30.5861 18.9812 30.6795 18.9347 30.7645C18.8883 30.8496 18.8255 30.9246 18.7499 30.9853C18.6206 31.0891 18.4599 31.1461 18.2941 31.147Z" fill="black"/>
<path d="M24.9999 27.3896C24.4478 27.3974 23.91 27.2137 23.4781 26.8697C23.0461 26.5258 22.7465 26.0429 22.6303 25.5031C22.5141 24.9633 22.5884 24.3999 22.8405 23.9087C23.0927 23.4175 23.5072 23.0288 24.0136 22.8086C24.52 22.5885 25.087 22.5504 25.6182 22.701C26.1495 22.8516 26.6121 23.1816 26.9276 23.6347C27.2431 24.0879 27.392 24.6363 27.3489 25.1868C27.3057 25.7373 27.0733 26.2558 26.6911 26.6543C26.472 26.8828 26.2096 27.0654 25.9193 27.1917C25.629 27.3179 25.3165 27.3852 24.9999 27.3896ZM24.9999 24.0808C24.8792 24.0799 24.7597 24.1035 24.6484 24.1503C24.5372 24.1971 24.4366 24.266 24.3529 24.3529C24.2675 24.4376 24.1997 24.5384 24.1535 24.6495C24.1073 24.7605 24.0835 24.8796 24.0835 24.9999C24.0835 25.1202 24.1073 25.2393 24.1535 25.3504C24.1997 25.4614 24.2675 25.5622 24.3529 25.647C24.5259 25.8158 24.7581 25.9104 24.9999 25.9104C25.2417 25.9104 25.4739 25.8158 25.647 25.647C25.7323 25.5622 25.8001 25.4614 25.8463 25.3504C25.8926 25.2393 25.9164 25.1202 25.9164 24.9999C25.9164 24.8796 25.8926 24.7605 25.8463 24.6495C25.8001 24.5384 25.7323 24.4376 25.647 24.3529C25.5632 24.266 25.4626 24.1971 25.3514 24.1503C25.2402 24.1035 25.1206 24.0799 24.9999 24.0808ZM24.9999 11.9999C24.8049 11.9999 24.6179 11.9224 24.48 11.7846C24.3421 11.6467 24.2646 11.4596 24.2646 11.2646V9.38227C24.2646 9.18725 24.3421 9.00023 24.48 8.86234C24.6179 8.72444 24.8049 8.64697 24.9999 8.64697C25.1949 8.64697 25.382 8.72444 25.5198 8.86234C25.6577 9.00023 25.7352 9.18725 25.7352 9.38227V11.2646C25.7352 11.4596 25.6577 11.6467 25.5198 11.7846C25.382 11.9224 25.1949 11.9999 24.9999 11.9999ZM18.1323 13.8381C18.0027 13.8387 17.8753 13.8049 17.763 13.7404C17.6506 13.6758 17.5573 13.5827 17.4926 13.4705L16.5514 11.8455C16.5031 11.7615 16.4718 11.6688 16.4594 11.5727C16.4469 11.4766 16.4535 11.379 16.4788 11.2855C16.5298 11.0966 16.6538 10.9357 16.8234 10.8381C16.9074 10.7899 17.0001 10.7586 17.0962 10.7462C17.1923 10.7337 17.2899 10.7403 17.3835 10.7655C17.5724 10.8166 17.7333 10.9405 17.8308 11.1102L18.772 12.7352C18.8366 12.8472 18.8706 12.9743 18.8705 13.1036C18.8704 13.2329 18.8361 13.3599 18.7712 13.4718C18.7064 13.5836 18.6131 13.6764 18.5009 13.7407C18.3888 13.8051 18.2616 13.8387 18.1323 13.8381ZM13.1029 18.8676C12.974 18.8684 12.8473 18.8355 12.7352 18.772L11.1102 17.8308C11.0262 17.7825 10.9525 17.7182 10.8934 17.6414C10.8343 17.5647 10.7908 17.477 10.7655 17.3835C10.7403 17.2899 10.7337 17.1923 10.7462 17.0962C10.7586 17.0001 10.7899 16.9074 10.8381 16.8234C10.8864 16.7394 10.9508 16.6658 11.0275 16.6066C11.1043 16.5475 11.1919 16.504 11.2855 16.4788C11.4744 16.4278 11.6758 16.4539 11.8455 16.5514L13.4705 17.4926C13.6122 17.5728 13.7232 17.6978 13.7861 17.848C13.8491 17.9981 13.8604 18.1649 13.8183 18.3222C13.7763 18.4795 13.6832 18.6184 13.5537 18.7171C13.4242 18.8158 13.2657 18.8687 13.1029 18.8676ZM11.2646 25.7352H9.38227C9.18725 25.7352 9.00023 25.6577 8.86234 25.5198C8.72444 25.382 8.64697 25.1949 8.64697 24.9999C8.64697 24.8049 8.72444 24.6179 8.86234 24.48C9.00023 24.3421 9.18725 24.2646 9.38227 24.2646H11.2646C11.4596 24.2646 11.6467 24.3421 11.7846 24.48C11.9224 24.6179 11.9999 24.8049 11.9999 24.9999C11.9999 25.1949 11.9224 25.382 11.7846 25.5198C11.6467 25.6577 11.4596 25.7352 11.2646 25.7352ZM11.4779 33.544C11.315 33.5452 11.1565 33.4922 11.027 33.3935C10.8975 33.2949 10.8044 33.156 10.7624 32.9987C10.7203 32.8414 10.7317 32.6746 10.7946 32.5245C10.8576 32.3743 10.9686 32.2493 11.1102 32.169L12.7352 31.2279C12.9049 31.1303 13.1063 31.1042 13.2952 31.1553C13.4841 31.2063 13.6451 31.3303 13.7426 31.4999C13.8401 31.6696 13.8662 31.871 13.8152 32.0599C13.7641 32.2489 13.6402 32.4098 13.4705 32.5073L11.8455 33.4484C11.7334 33.512 11.6067 33.5449 11.4779 33.544ZM17.1911 39.2573C17.0618 39.2578 16.9346 39.2242 16.8224 39.1599C16.7102 39.0955 16.617 39.0028 16.5521 38.8909C16.4872 38.779 16.453 38.652 16.4529 38.5227C16.4527 38.3934 16.4867 38.2663 16.5514 38.1543L17.4926 36.5293C17.5901 36.3597 17.751 36.2357 17.9399 36.1847C18.1288 36.1336 18.3303 36.1598 18.4999 36.2573C18.6696 36.3548 18.7936 36.5157 18.8446 36.7046C18.8956 36.8935 18.8695 37.095 18.772 37.2646L17.8308 38.8896C17.766 39.0018 17.6727 39.0949 17.5604 39.1595C17.4481 39.2241 17.3207 39.2578 17.1911 39.2573ZM24.9999 41.3529C24.8049 41.3529 24.6179 41.2754 24.48 41.1375C24.3421 40.9996 24.2646 40.8126 24.2646 40.6176V38.7352C24.2646 38.5402 24.3421 38.3532 24.48 38.2153C24.6179 38.0774 24.8049 37.9999 24.9999 37.9999C25.1949 37.9999 25.382 38.0774 25.5198 38.2153C25.6577 38.3532 25.7352 38.5402 25.7352 38.7352V40.6176C25.7352 40.8126 25.6577 40.9996 25.5198 41.1375C25.382 41.2754 25.1949 41.3529 24.9999 41.3529ZM32.8087 39.2573C32.6792 39.2578 32.5518 39.2241 32.4394 39.1595C32.3271 39.0949 32.2338 39.0018 32.169 38.8896L31.2279 37.2646C31.1303 37.095 31.1042 36.8935 31.1553 36.7046C31.2063 36.5157 31.3303 36.3548 31.4999 36.2573C31.6696 36.1598 31.871 36.1336 32.0599 36.1847C32.2489 36.2357 32.4098 36.3597 32.5073 36.5293L33.4484 38.1543C33.5131 38.2663 33.5471 38.3934 33.547 38.5227C33.5468 38.652 33.5126 38.779 33.4477 38.8909C33.3828 39.0028 33.2896 39.0955 33.1774 39.1599C33.0652 39.2242 32.9381 39.2578 32.8087 39.2573ZM38.522 33.544C38.3932 33.5449 38.2664 33.512 38.1543 33.4484L36.5293 32.5073C36.3597 32.4098 36.2357 32.2489 36.1847 32.0599C36.1336 31.871 36.1598 31.6696 36.2573 31.4999C36.3548 31.3303 36.5157 31.2063 36.7046 31.1553C36.8935 31.1042 37.095 31.1303 37.2646 31.2279L38.8896 32.169C39.0313 32.2493 39.1423 32.3743 39.2052 32.5245C39.2682 32.6746 39.2795 32.8414 39.2375 32.9987C39.1954 33.156 39.1023 33.2949 38.9728 33.3935C38.8434 33.4922 38.6848 33.5452 38.522 33.544ZM40.6176 25.7352H38.7352C38.5402 25.7352 38.3532 25.6577 38.2153 25.5198C38.0774 25.382 37.9999 25.1949 37.9999 24.9999C37.9999 24.8049 38.0774 24.6179 38.2153 24.48C38.3532 24.3421 38.5402 24.2646 38.7352 24.2646H40.6176C40.8126 24.2646 40.9996 24.3421 41.1375 24.48C41.2754 24.6179 41.3529 24.8049 41.3529 24.9999C41.3529 25.1949 41.2754 25.382 41.1375 25.5198C40.9996 25.6577 40.8126 25.7352 40.6176 25.7352ZM36.897 18.8676C36.7342 18.8687 36.5756 18.8158 36.4461 18.7171C36.3166 18.6184 36.2235 18.4795 36.1815 18.3222C36.1394 18.1649 36.1508 17.9981 36.2137 17.848C36.2767 17.6978 36.3877 17.5728 36.5293 17.4926L38.1543 16.5514C38.324 16.4539 38.5254 16.4278 38.7143 16.4788C38.9033 16.5298 39.0642 16.6538 39.1617 16.8234C39.2592 16.9931 39.2853 17.1945 39.2343 17.3835C39.1833 17.5724 39.0593 17.7333 38.8896 17.8308L37.2646 18.772C37.1526 18.8355 37.0258 18.8684 36.897 18.8676ZM31.8676 13.8381C31.7382 13.8387 31.6111 13.8051 31.4989 13.7407C31.3867 13.6764 31.2935 13.5836 31.2286 13.4718C31.1637 13.3599 31.1295 13.2329 31.1293 13.1036C31.1292 12.9743 31.1632 12.8472 31.2279 12.7352L32.169 11.1102C32.2173 11.0262 32.2817 10.9525 32.3584 10.8934C32.4352 10.8343 32.5228 10.7908 32.6164 10.7655C32.7099 10.7403 32.8075 10.7337 32.9036 10.7462C32.9997 10.7586 33.0924 10.7899 33.1764 10.8381C33.2604 10.8864 33.3341 10.9508 33.3932 11.0275C33.4523 11.1043 33.4958 11.1919 33.521 11.2855C33.5463 11.379 33.5529 11.4766 33.5404 11.5727C33.528 11.6688 33.4967 11.7615 33.4484 11.8455L32.5073 13.4705C32.4425 13.5827 32.3492 13.6758 32.2369 13.7404C32.1245 13.8049 31.9971 13.8387 31.8676 13.8381Z" fill="black"/>
<path d="M21.4854 29.2501C21.3886 29.2507 21.2927 29.2321 21.2031 29.1955C21.1135 29.159 21.0321 29.105 20.9633 29.0369C20.8944 28.9685 20.8397 28.8872 20.8024 28.7976C20.7651 28.708 20.7458 28.6119 20.7458 28.5148C20.7458 28.4178 20.7651 28.3217 20.8024 28.2321C20.8397 28.1425 20.8944 28.0611 20.9633 27.9928L23.3089 25.6472C23.4474 25.5087 23.6352 25.4309 23.831 25.4309C24.0268 25.4309 24.2146 25.5087 24.3531 25.6472C24.4915 25.7856 24.5693 25.9734 24.5693 26.1692C24.5693 26.3651 24.4915 26.5528 24.3531 26.6913L22.0075 29.0369C21.9388 29.105 21.8573 29.159 21.7677 29.1955C21.6781 29.2321 21.5822 29.2507 21.4854 29.2501ZM26.1692 24.5663C26.0725 24.5669 25.9765 24.5483 25.8869 24.5117C25.7974 24.4751 25.7159 24.4212 25.6472 24.3531C25.5783 24.2847 25.5236 24.2034 25.4862 24.1138C25.4489 24.0242 25.4297 23.9281 25.4297 23.831C25.4297 23.7339 25.4489 23.6378 25.4862 23.5482C25.5236 23.4586 25.5783 23.3773 25.6472 23.3089L31.9486 17.0148C32.0146 16.9379 32.0957 16.8753 32.1869 16.8312C32.2781 16.7871 32.3775 16.7623 32.4788 16.7584C32.58 16.7544 32.681 16.7715 32.7753 16.8085C32.8697 16.8454 32.9554 16.9015 33.0271 16.9732C33.0987 17.0448 33.1548 17.1305 33.1918 17.2249C33.2287 17.3192 33.2458 17.4202 33.2419 17.5215C33.238 17.6228 33.2132 17.7221 33.169 17.8133C33.1249 17.9046 33.0624 17.9857 32.9854 18.0516L26.6913 24.3531C26.6226 24.4212 26.5411 24.4751 26.4515 24.5117C26.3619 24.5483 26.266 24.5669 26.1692 24.5663Z" fill="black"/>
</g>
<defs>
<clipPath id="clip0_39_961">
<rect width="50" height="50" fill="white"/>
</clipPath>
</defs>
</svg>
