<svg id="Layer_1" data-name="Layer 1" xmlns="http://www.w3.org/2000/svg" viewBox="0 0 50 50"><title>half blue</title><path d="M44.19,28.24a.82.82,0,0,1,.58-.65l2.82-.79V23.2l-2.82-.79a.82.82,0,0,1-.58-.65,19.39,19.39,0,0,0-.95-3.57.81.81,0,0,1,.18-.85l2.08-2.12a23.08,23.08,0,0,0-1.79-3.08l-2.87.73A.8.8,0,0,1,40,12.6,20.11,20.11,0,0,0,37.4,10a.8.8,0,0,1-.27-.83l.73-2.87A22.47,22.47,0,0,0,34.78,4.5L32.66,6.58a.81.81,0,0,1-.85.18,19.39,19.39,0,0,0-3.57-1,.82.82,0,0,1-.65-.58L26.8,2.41H25V47.59h1.8l.79-2.81a.82.82,0,0,1,.65-.59,19.39,19.39,0,0,0,3.57-.95.81.81,0,0,1,.85.18l2.12,2.08a23.08,23.08,0,0,0,3.08-1.79l-.73-2.87A.8.8,0,0,1,37.4,40,20.11,20.11,0,0,0,40,37.4a.8.8,0,0,1,.83-.27l2.87.73a23.08,23.08,0,0,0,1.79-3.08l-2.08-2.12a.81.81,0,0,1-.18-.85A19.39,19.39,0,0,0,44.19,28.24Z" fill="#00d2ff"/><path d="M48.62,21.81,45.7,21a20.34,20.34,0,0,0-.76-2.88L47.05,16a.83.83,0,0,0,.16-.9,24.68,24.68,0,0,0-2.5-4.31.79.79,0,0,0-.86-.31l-2.92.75a22,22,0,0,0-2.1-2.11l.74-2.92a.81.81,0,0,0-.31-.86A24.32,24.32,0,0,0,35,2.79a.83.83,0,0,0-.9.16L31.89,5.06A20.34,20.34,0,0,0,29,4.3l-.82-2.92a.8.8,0,0,0-.78-.59H22.59a.8.8,0,0,0-.78.59L21,4.3a20.34,20.34,0,0,0-2.88.76L16,3a.83.83,0,0,0-.9-.16,24.68,24.68,0,0,0-4.31,2.5.79.79,0,0,0-.31.86l.75,2.92a22,22,0,0,0-2.11,2.1l-2.92-.74a.78.78,0,0,0-.86.31,24.68,24.68,0,0,0-2.5,4.31A.83.83,0,0,0,3,16l2.11,2.16A20.34,20.34,0,0,0,4.3,21l-2.92.82a.8.8,0,0,0-.59.78v4.82a.8.8,0,0,0,.59.78L4.3,29a20.34,20.34,0,0,0,.76,2.88L3,34.05a.83.83,0,0,0-.16.9,24.68,24.68,0,0,0,2.5,4.31.79.79,0,0,0,.86.31l2.92-.75a22,22,0,0,0,2.1,2.11l-.74,2.92a.81.81,0,0,0,.31.86,24.68,24.68,0,0,0,4.31,2.5.83.83,0,0,0,.9-.16l2.16-2.11A20.34,20.34,0,0,0,21,45.7l.82,2.92a.8.8,0,0,0,.78.59h4.82a.8.8,0,0,0,.78-.59L29,45.7a20.34,20.34,0,0,0,2.88-.76l2.16,2.11a.83.83,0,0,0,.9.16,24.68,24.68,0,0,0,4.31-2.5.79.79,0,0,0,.31-.86l-.75-2.92a22,22,0,0,0,2.11-2.1l2.92.74a.81.81,0,0,0,.86-.31A24.68,24.68,0,0,0,47.21,35a.83.83,0,0,0-.16-.9l-2.11-2.16A20.34,20.34,0,0,0,45.7,29l2.92-.82a.8.8,0,0,0,.59-.78V22.59A.8.8,0,0,0,48.62,21.81Zm-1,5-2.82.79a.82.82,0,0,0-.58.65,19.39,19.39,0,0,1-.95,3.57.81.81,0,0,0,.18.85l2.08,2.12a23.08,23.08,0,0,1-1.79,3.08l-2.87-.73a.8.8,0,0,0-.83.27A20.11,20.11,0,0,1,37.4,40a.8.8,0,0,0-.27.83l.73,2.87a23.08,23.08,0,0,1-3.08,1.79l-2.12-2.08a.81.81,0,0,0-.85-.18,19.39,19.39,0,0,1-3.57.95.82.82,0,0,0-.65.59l-.79,2.81H23.2l-.79-2.82a.82.82,0,0,0-.65-.58,19.39,19.39,0,0,1-3.57-.95.81.81,0,0,0-.85.18L15.22,45.5a23.08,23.08,0,0,1-3.08-1.79l.73-2.87A.8.8,0,0,0,12.6,40,20.11,20.11,0,0,1,10,37.4a.8.8,0,0,0-.83-.27l-2.87.73A23.08,23.08,0,0,1,4.5,34.78l2.08-2.12a.81.81,0,0,0,.18-.85,19.39,19.39,0,0,1-1-3.57.82.82,0,0,0-.58-.65L2.41,26.8V23.2l2.82-.79a.82.82,0,0,0,.58-.65,19.39,19.39,0,0,1,1-3.57.81.81,0,0,0-.18-.85L4.5,15.22a22.47,22.47,0,0,1,1.79-3.08l2.87.73A.8.8,0,0,0,10,12.6,20.11,20.11,0,0,1,12.6,10a.8.8,0,0,0,.27-.83l-.73-2.87A23.08,23.08,0,0,1,15.22,4.5l2.12,2.08a.81.81,0,0,0,.85.18,19.39,19.39,0,0,1,3.57-1,.82.82,0,0,0,.65-.58l.79-2.82h3.6l.79,2.82a.82.82,0,0,0,.65.58,19.39,19.39,0,0,1,3.57,1,.81.81,0,0,0,.85-.18L34.78,4.5a23.08,23.08,0,0,1,3.08,1.79l-.73,2.87a.8.8,0,0,0,.27.83A20.11,20.11,0,0,1,40,12.6a.8.8,0,0,0,.83.27l2.87-.73a23.08,23.08,0,0,1,1.79,3.08l-2.08,2.12a.81.81,0,0,0-.18.85,19.39,19.39,0,0,1,.95,3.57.82.82,0,0,0,.58.65l2.82.79v3.6Z"/><path d="M25,8.78A16.22,16.22,0,1,0,41.22,25,16.22,16.22,0,0,0,25,8.78ZM35.87,34.72,34.18,33,33,34.18l1.69,1.69a14.52,14.52,0,0,1-8.91,3.69V37.17H24.19v2.39a14.52,14.52,0,0,1-8.91-3.69L17,34.18,15.82,33l-1.69,1.69a14.52,14.52,0,0,1-3.69-8.91h2.39V24.19H10.44a14.52,14.52,0,0,1,3.69-8.91L15.82,17,17,15.82l-1.69-1.69a14.52,14.52,0,0,1,8.91-3.69v2.39h1.62V10.44a14.52,14.52,0,0,1,8.91,3.69L33,15.82,34.18,17l1.69-1.69a14.52,14.52,0,0,1,3.69,8.91H37.17v1.62h2.39A14.52,14.52,0,0,1,35.87,34.72Z"/><path d="M31.94,17.84a.78.78,0,0,0-.9,0l-5.89,3.92H25A3.24,3.24,0,1,0,28.24,25v-.15L32.16,19A.8.8,0,0,0,31.94,17.84ZM26.72,24.2a.84.84,0,0,0-.12.58,1.8,1.8,0,0,1,0,.22A1.62,1.62,0,1,1,25,23.38l.23,0a.82.82,0,0,0,.57-.12l2.76-1.84Z"/><path d="M21.81,9.51a1.68,1.68,0,1,1,0,2.38A1.68,1.68,0,0,1,21.81,9.51Z"/></svg>