<svg width="50" height="50" viewBox="0 0 50 50" fill="none" xmlns="http://www.w3.org/2000/svg">
<path d="M25 6.5L32.5 10L40.5 12V25.5L36.5 36.5L30.5 42L25 45V6.5Z" fill="#139ED9"/>
<path d="M24.9999 49.6269C25.0746 49.6269 25.1492 49.6269 25.2238 49.5523C37.388 45.4478 45.5223 34.1045 45.5223 21.2687V8.20897C45.5223 7.76121 45.2238 7.4627 44.776 7.4627C33.0596 7.4627 25.9701 0.82091 25.4477 0.522403C25.1492 0.298522 24.8507 0.298522 24.5522 0.522403C24.0298 0.82091 16.8656 7.4627 5.22381 7.4627C4.77605 7.4627 4.47754 7.76121 4.47754 8.20897V21.2687C4.47754 34.1045 12.6119 45.4478 24.776 49.6269C24.8507 49.6269 24.9253 49.6269 24.9999 49.6269ZM5.97008 21.2687V8.95524C17.4626 8.65673 24.6268 2.23882 24.9999 2.01494C25.4477 2.23882 32.4626 8.65673 44.0298 8.95524V21.2687C44.0298 33.3582 36.4178 44.1045 24.9999 48.1343C13.582 44.1045 5.97008 33.3582 5.97008 21.2687Z" fill="black"/>
<path d="M25.2985 45.5968C35.2985 41.6416 41.791 32.0893 41.791 21.2685V11.7908C41.791 11.4177 41.4925 11.1192 41.1193 11.0446C35.4477 10.4476 29.9999 8.43263 25.3731 5.14905C25.1492 4.9998 24.7761 4.9998 24.5522 5.14905C19.9253 8.35801 14.4776 10.3729 8.80592 11.0446C8.43279 11.1192 8.13428 11.4177 8.13428 11.7908V21.2685C8.13428 32.0893 14.6268 41.6416 24.7014 45.5968C24.7761 45.5968 24.8507 45.6714 24.9999 45.6714C25.1492 45.6714 25.1492 45.6714 25.2985 45.5968ZM9.70144 21.2685V12.3879C15.1492 11.7162 20.4477 9.70129 24.9999 6.64159C29.5522 9.70129 34.8507 11.7162 40.2985 12.3879V21.1938C40.2985 31.3431 34.3283 40.2983 24.9999 44.1043C15.6716 40.2983 9.70144 31.3431 9.70144 21.2685Z" fill="black"/>
<path d="M37.1837 25.3823L37.4142 20.2309L32.2632 20L32.1908 21.6158L34.367 21.7132L29.0506 25.9128L21.3563 20.6922L13 27.7655L14.0448 29L21.4638 22.7201L29.1234 27.9163L35.6832 22.7346L35.5679 25.3099L37.1837 25.3823Z" fill="black"/>
</svg>
