<svg width="50" height="50" viewBox="0 0 50 50" fill="none" xmlns="http://www.w3.org/2000/svg">
<g clip-path="url(#clip0_39_1019)">
<path d="M8.98884 37.1182C12.4337 41.399 17.438 44.1361 22.9009 44.7272C28.3637 45.3184 33.8377 43.7152 38.1185 40.2704C42.3994 36.8255 45.9089 31.4629 46.5 26C47.0911 20.5371 46.4447 14.7805 42.9999 10.4997L25.1298 24.1294L8.98884 37.1182Z" fill="#139ED9"/>
<circle cx="24.69" cy="22.69" r="22.0731" stroke="black" stroke-width="1.23388"/>
<path d="M24.6701 29.0435C24.2214 29.0435 23.7828 29.1766 23.4097 29.4259C23.0365 29.6752 22.7457 30.0295 22.574 30.4441C22.4023 30.8586 22.3574 31.3148 22.4449 31.7549C22.5325 32.195 22.7485 32.5993 23.0658 32.9166C23.3831 33.2339 23.7874 33.45 24.2275 33.5375C24.6676 33.6251 25.1238 33.5801 25.5384 33.4084C25.9529 33.2367 26.3073 32.9459 26.5566 32.5728C26.8059 32.1997 26.9389 31.761 26.9389 31.3123C26.9389 30.7106 26.6999 30.1335 26.2744 29.708C25.8489 29.2825 25.2719 29.0435 24.6701 29.0435ZM24.6701 32.0686C24.5206 32.0686 24.3743 32.0242 24.25 31.9411C24.1256 31.858 24.0287 31.7399 23.9714 31.6017C23.9142 31.4635 23.8992 31.3115 23.9284 31.1648C23.9576 31.0181 24.0296 30.8833 24.1354 30.7775C24.2411 30.6718 24.3759 30.5998 24.5226 30.5706C24.6693 30.5414 24.8214 30.5564 24.9595 30.6136C25.0977 30.6709 25.2159 30.7678 25.299 30.8922C25.3821 31.0165 25.4264 31.1627 25.4264 31.3123C25.4264 31.5129 25.3467 31.7052 25.2049 31.8471C25.0631 31.9889 24.8707 32.0686 24.6701 32.0686ZM39.8182 18.7446C39.6694 18.879 39.4733 18.9487 39.273 18.9385C39.0728 18.9283 38.8848 18.8389 38.7504 18.6902C36.9763 16.7127 34.8056 15.131 32.3796 14.0482C29.9536 12.9655 27.3268 12.4059 24.6701 12.4059C22.0135 12.4059 19.3866 12.9655 16.9606 14.0482C14.5346 15.131 12.3639 16.7127 10.5899 18.6902C10.5241 18.7665 10.4437 18.8289 10.3534 18.8738C10.2632 18.9186 10.1649 18.945 10.0643 18.9513C9.96368 18.9575 9.86284 18.9437 9.76769 18.9104C9.67253 18.8772 9.58498 18.8253 9.51018 18.7578C9.43537 18.6902 9.37482 18.6084 9.33209 18.5171C9.28935 18.4258 9.2653 18.3269 9.26133 18.2262C9.25736 18.1255 9.27356 18.025 9.30899 17.9307C9.34441 17.8363 9.39833 17.75 9.46759 17.6768C11.3827 15.5415 13.7261 13.8337 16.3452 12.6645C18.9643 11.4954 21.8004 10.8911 24.6686 10.8911C27.5369 10.8911 30.3729 11.4954 32.992 12.6645C35.6112 13.8337 37.9546 15.5415 39.8697 17.6768C40.0044 17.8252 40.0746 18.0211 40.065 18.2213C40.0553 18.4216 39.9666 18.6098 39.8182 18.7446ZM35.5831 21.9875C35.6477 22.063 35.6967 22.1504 35.7275 22.2449C35.7582 22.3393 35.7701 22.4389 35.7624 22.5379C35.7546 22.6369 35.7275 22.7334 35.6825 22.822C35.6374 22.9105 35.5754 22.9893 35.4999 23.0538C35.4244 23.1184 35.337 23.1675 35.2426 23.1982C35.1481 23.229 35.0485 23.2408 34.9495 23.2331C34.8505 23.2254 34.754 23.1982 34.6655 23.1532C34.5769 23.1082 34.4981 23.0461 34.4336 22.9707C33.229 21.5554 31.7314 20.4187 30.0444 19.6392C28.3573 18.8597 26.521 18.456 24.6626 18.456C22.8041 18.456 20.9678 18.8597 19.2808 19.6392C17.5937 20.4187 16.0961 21.5554 14.8916 22.9707C14.827 23.0461 14.7482 23.1082 14.6597 23.1532C14.5712 23.1982 14.4746 23.2254 14.3756 23.2331C14.2766 23.2408 14.177 23.229 14.0826 23.1982C13.9882 23.1675 13.9007 23.1184 13.8252 23.0538C13.7497 22.9893 13.6877 22.9105 13.6427 22.822C13.5977 22.7334 13.5705 22.6369 13.5628 22.5379C13.5551 22.4389 13.5669 22.3393 13.5977 22.2449C13.6284 22.1504 13.6775 22.063 13.742 21.9875C15.0886 20.4062 16.7624 19.1362 18.648 18.2653C20.5335 17.3944 22.5856 16.9433 24.6626 16.9433C26.7395 16.9433 28.7917 17.3944 30.6772 18.2653C32.5627 19.1362 34.2366 20.4062 35.5831 21.9875ZM31.3253 26.3209C31.4457 26.4814 31.4973 26.6831 31.469 26.8816C31.4406 27.0802 31.3345 27.2594 31.1741 27.3797C31.0136 27.5001 30.8119 27.5517 30.6133 27.5234C30.4148 27.495 30.2356 27.3889 30.1153 27.2285C29.4813 26.3831 28.6592 25.697 27.7141 25.2245C26.769 24.7519 25.7268 24.5059 24.6701 24.5059C23.6135 24.5059 22.5713 24.7519 21.6262 25.2245C20.6811 25.697 19.859 26.3831 19.225 27.2285C19.1654 27.3079 19.0907 27.3748 19.0053 27.4254C18.9198 27.476 18.8252 27.5093 18.7269 27.5234C18.6286 27.5374 18.5285 27.5319 18.4323 27.5073C18.3361 27.4827 18.2457 27.4393 18.1662 27.3797C18.0868 27.3201 18.0198 27.2455 17.9692 27.16C17.9186 27.0745 17.8854 26.98 17.8713 26.8816C17.8573 26.7833 17.8627 26.6832 17.8874 26.587C17.912 26.4908 17.9554 26.4004 18.015 26.3209C18.7898 25.2877 19.7946 24.4492 20.9498 23.8716C22.1049 23.294 23.3787 22.9933 24.6701 22.9933C25.9616 22.9933 27.2354 23.294 28.3905 23.8716C29.5456 24.4492 30.5504 25.2877 31.3253 26.3209Z" fill="black"/>
<line x1="43.3109" y1="10.3916" x2="9.31094" y2="37.3916" stroke="black"/>
</g>
<defs>
<clipPath id="clip0_39_1019">
<rect width="50" height="50" fill="white"/>
</clipPath>
</defs>
</svg>
