<svg width="402" height="296" viewBox="0 0 402 296" fill="none" xmlns="http://www.w3.org/2000/svg">
<g clip-path="url(#clip0_450_260)">
<path d="M360.837 275.533H334.274V275.733H360.837V275.533Z" fill="#DCDBDB"/>
<path d="M265.651 277.714H258.682V277.915H265.651V277.714Z" fill="#DCDBDB"/>
<path d="M333.472 268.09H318.081V268.29H333.472V268.09Z" fill="#DCDBDB"/>
<path d="M76.7148 269.437H42.0747V269.638H76.7148V269.437Z" fill="#DCDBDB"/>
<path d="M88.9382 269.437H83.8613V269.638H88.9382V269.437Z" fill="#DCDBDB"/>
<path d="M180.579 272.822H105.444V273.022H180.579V272.822Z" fill="#DCDBDB"/>
<path d="M190.083 226.857H35.2256C34.011 226.857 32.8462 226.374 31.9873 225.516C31.1285 224.657 30.646 223.492 30.646 222.277V4.5797C30.6566 3.37207 31.1437 2.2175 32.0014 1.3673C32.8591 0.517104 34.018 0.0401148 35.2256 0.0401611H190.083C191.298 0.0401611 192.463 0.522658 193.322 1.38151C194.181 2.24036 194.663 3.40521 194.663 4.6198V222.277C194.663 223.492 194.181 224.657 193.322 225.516C192.463 226.374 191.298 226.857 190.083 226.857ZM35.2256 0.20057C34.0649 0.20269 32.9523 0.664741 32.1315 1.48553C31.3107 2.30632 30.8486 3.41894 30.8465 4.5797V222.277C30.8486 223.438 31.3107 224.551 32.1315 225.371C32.9523 226.192 34.0649 226.654 35.2256 226.656H190.083C191.244 226.654 192.357 226.192 193.178 225.371C193.998 224.551 194.46 223.438 194.463 222.277V4.5797C194.46 3.41894 193.998 2.30632 193.178 1.48553C192.357 0.664741 191.244 0.20269 190.083 0.20057H35.2256Z" fill="#CCCCCC"/>
<path d="M363.573 226.857H208.699C207.485 226.855 206.321 226.372 205.463 225.513C204.604 224.655 204.121 223.491 204.119 222.277V4.5797C204.132 3.37273 204.62 2.21936 205.477 1.36962C206.334 0.519868 207.492 0.042205 208.699 0.0401611H363.573C364.777 0.0443353 365.932 0.523189 366.786 1.37293C367.641 2.22268 368.126 3.37484 368.136 4.5797V222.277C368.136 223.489 367.656 224.651 366.8 225.51C365.945 226.368 364.784 226.853 363.573 226.857ZM208.699 0.20057C207.538 0.20269 206.425 0.664741 205.605 1.48553C204.784 2.30632 204.322 3.41894 204.32 4.5797V222.277C204.322 223.438 204.784 224.551 205.605 225.371C206.425 226.192 207.538 226.654 208.699 226.656H363.573C364.733 226.654 365.846 226.192 366.667 225.371C367.488 224.551 367.95 223.438 367.952 222.277V4.5797C367.95 3.41894 367.488 2.30632 366.667 1.48553C365.846 0.664741 364.733 0.20269 363.573 0.20057H208.699Z" fill="#CCCCCC"/>
<path d="M401.02 262.628H0V262.828H401.02V262.628Z" fill="#DCDBDB"/>
<path d="M334.25 31.8571H234.163V138.44H334.25V31.8571Z" fill="#DCDBDB"/>
<path d="M328.235 37.8723H240.179V132.425H328.235V37.8723Z" fill="#F5F5F5"/>
<path d="M274.738 132.425H301.206L326.053 37.8723H299.585L274.738 132.425Z" fill="#FAFAFA"/>
<path d="M287.291 37.8723L262.443 132.425H268.86L293.707 37.8723H287.291Z" fill="#FAFAFA"/>
<path d="M335.509 36.8697H232.896L230.731 31.8169H337.675L335.509 36.8697Z" fill="#F5F5F5"/>
<path d="M335.509 39.7972H232.896L230.731 34.7444H337.675L335.509 39.7972Z" fill="#F0F0F0"/>
<path d="M335.509 42.7247H232.896L230.731 37.6719H337.675L335.509 42.7247Z" fill="#E6E6E6"/>
<path d="M335.509 45.6521H232.896L230.731 40.5992H337.675L335.509 45.6521Z" fill="#E0E0E0"/>
<path d="M341.412 25.4889H227.001V32.226H341.412V25.4889Z" fill="#E0E0E0"/>
<path d="M228.172 93.3093C227.864 93.3093 227.568 93.1868 227.35 92.9687C227.132 92.7506 227.009 92.4548 227.009 92.1464V52.8464C227.009 52.538 227.132 52.2422 227.35 52.0241C227.568 51.806 227.864 51.6835 228.172 51.6835C228.481 51.6835 228.776 51.806 228.995 52.0241C229.213 52.2422 229.335 52.538 229.335 52.8464V92.1464C229.335 92.4548 229.213 92.7506 228.995 92.9687C228.776 93.1868 228.481 93.3093 228.172 93.3093Z" fill="#E0E0E0"/>
<path d="M228.589 30.8705H227.747V54.2098H228.589V30.8705Z" fill="#E0E0E0"/>
<path d="M72.6009 29.7877H71.1572V142.37H72.6009V29.7877Z" fill="#E0E0E0"/>
<path d="M162.469 29.7877H161.025V142.37H162.469V29.7877Z" fill="#E0E0E0"/>
<path d="M168.132 36.8697H65.5029L63.3374 31.8169H170.289L168.132 36.8697Z" fill="#F5F5F5"/>
<path d="M168.132 43.8075H65.5029L63.3374 38.7546H170.289L168.132 43.8075Z" fill="#F5F5F5"/>
<path d="M168.132 50.7451H65.5029L63.3374 45.6923H170.289L168.132 50.7451Z" fill="#F5F5F5"/>
<path d="M168.132 57.6826H65.5029L63.3374 52.6298H170.289L168.132 57.6826Z" fill="#F5F5F5"/>
<path d="M168.132 64.6204H65.5029L63.3374 59.5675H170.289L168.132 64.6204Z" fill="#F5F5F5"/>
<path d="M168.132 71.558H65.5029L63.3374 66.5051H170.289L168.132 71.558Z" fill="#F5F5F5"/>
<path d="M168.132 78.4956H65.5029L63.3374 73.4427H170.289L168.132 78.4956Z" fill="#F5F5F5"/>
<path d="M168.132 85.4333H65.5029L63.3374 80.3805H170.289L168.132 85.4333Z" fill="#F5F5F5"/>
<path d="M168.132 92.3629H65.5029L63.3374 87.3101H170.289L168.132 92.3629Z" fill="#F5F5F5"/>
<path d="M168.132 99.3005H65.5029L63.3374 94.2477H170.289L168.132 99.3005Z" fill="#F5F5F5"/>
<path d="M168.132 106.238H65.5029L63.3374 101.185H170.289L168.132 106.238Z" fill="#F5F5F5"/>
<path d="M168.132 113.176H65.5029L63.3374 108.123H170.289L168.132 113.176Z" fill="#F5F5F5"/>
<path d="M168.132 120.114H65.5029L63.3374 115.061H170.289L168.132 120.114Z" fill="#F5F5F5"/>
<path d="M168.132 127.051H65.5029L63.3374 121.998H170.289L168.132 127.051Z" fill="#F5F5F5"/>
<path d="M168.132 133.989H65.5029L63.3374 128.936H170.289L168.132 133.989Z" fill="#F5F5F5"/>
<path d="M168.132 140.926H65.5029L63.3374 135.874H170.289L168.132 140.926Z" fill="#F5F5F5"/>
<path d="M170.289 140.926H63.3374V143.814H170.289V140.926Z" fill="#E0E0E0"/>
<path d="M174.018 25.4889H59.6074V32.226H174.018V25.4889Z" fill="#E0E0E0"/>
<path d="M60.7865 93.3093C60.4781 93.3093 60.1823 93.1868 59.9642 92.9687C59.7461 92.7506 59.6235 92.4548 59.6235 92.1464V52.8464C59.6235 52.538 59.7461 52.2422 59.9642 52.0241C60.1823 51.806 60.4781 51.6835 60.7865 51.6835C61.0949 51.6835 61.3907 51.806 61.6088 52.0241C61.8269 52.2422 61.9495 52.538 61.9495 52.8464V92.1464C61.9495 92.4548 61.8269 92.7506 61.6088 92.9687C61.3907 93.1868 61.0949 93.3093 60.7865 93.3093Z" fill="#E0E0E0"/>
<path d="M61.2035 30.8705H60.3613V54.2098H61.2035V30.8705Z" fill="#E0E0E0"/>
<path d="M71.638 214.489C71.5418 214.594 72.0791 215.348 69.8816 215.019C64.4678 214.217 55.0438 212.011 52.4212 206.445C48.6756 198.497 60.2892 201.4 59.8882 197.334C59.4871 193.268 46.2535 193.973 44.866 188.014C43.4784 182.055 52.4292 184.894 52.5495 181.991C52.6698 179.087 42.3395 180.884 40.2863 174.452C38.2331 168.019 46.045 172.759 45.1467 170.081C44.2484 167.402 35.5222 155.315 40.2623 153.911C45.0023 152.508 53.0307 164.915 56.1426 166.672C59.2545 168.428 61.9815 158.299 65.6709 162.581C69.3602 166.864 63.5053 181.83 68.2053 184.726C71.7102 186.891 70.7237 180.932 75.3434 182.047C81.5913 183.555 79.482 205.715 71.638 214.489Z" fill="#DCDBDB"/>
<path d="M54.9318 182.023C56.5247 182.141 58.0961 182.461 59.6077 182.977C58.6055 181.472 57.4929 180.043 56.2793 178.702C56.2141 178.625 56.1804 178.526 56.185 178.425C56.1896 178.325 56.2321 178.229 56.3041 178.158C56.376 178.087 56.4721 178.046 56.5731 178.043C56.674 178.04 56.7725 178.075 56.8487 178.141C59.4648 181.075 61.7038 184.324 63.5137 187.814C65.222 177.556 60.9231 168.565 60.875 168.501C60.8493 168.43 60.8508 168.352 60.8792 168.282C60.9075 168.212 60.9607 168.156 61.0285 168.123C61.0962 168.09 61.1738 168.083 61.2461 168.104C61.3185 168.125 61.3806 168.172 61.4203 168.236C61.4685 168.332 66.0481 177.9 63.9708 188.664C64.5242 189.714 65.0857 190.845 65.6311 192.056C67.5717 196.374 69.1049 200.864 70.2107 205.467C72.2138 201.688 73.3121 197.495 73.4189 193.219C73.4199 193.18 73.4286 193.142 73.4445 193.106C73.4604 193.071 73.4831 193.039 73.5114 193.012C73.5397 192.985 73.573 192.964 73.6094 192.95C73.6459 192.936 73.6847 192.93 73.7236 192.931C73.7637 192.932 73.8031 192.941 73.8397 192.957C73.8762 192.973 73.9093 192.997 73.9368 193.026C73.9644 193.055 73.9859 193.089 74.0003 193.126C74.0146 193.164 74.0214 193.203 74.0204 193.243C73.9241 197.828 72.6923 202.317 70.4353 206.309C72.4818 215.367 73.1658 224.679 72.4644 233.939C72.4614 233.992 72.4479 234.043 72.4249 234.091C72.4018 234.138 72.3696 234.181 72.3302 234.216C72.2907 234.251 72.2446 234.278 72.1947 234.295C72.1448 234.312 72.092 234.319 72.0393 234.316H71.9912C71.8942 234.298 71.8073 234.245 71.7478 234.166C71.6884 234.087 71.6608 233.989 71.6704 233.891C72.6569 219.454 70.5075 207.897 67.5239 199.122C65.8682 197.205 63.6022 195.916 61.1076 195.473C61.0303 195.458 60.9617 195.413 60.9156 195.349C60.8695 195.285 60.8493 195.206 60.8589 195.128C60.8638 195.089 60.8765 195.051 60.8962 195.017C60.9159 194.983 60.9421 194.953 60.9735 194.929C61.0049 194.905 61.0407 194.888 61.0788 194.878C61.117 194.868 61.1568 194.866 61.1958 194.872C63.3836 195.249 65.4132 196.258 67.0346 197.775C65.3014 192.893 63.0083 188.229 60.2012 183.876C58.5097 183.169 56.713 182.746 54.8837 182.624C54.8043 182.618 54.7304 182.581 54.6779 182.521C54.6255 182.461 54.5986 182.383 54.603 182.304C54.605 182.263 54.6152 182.224 54.633 182.187C54.6508 182.151 54.6759 182.118 54.7067 182.092C54.7376 182.066 54.7734 182.046 54.8121 182.034C54.8508 182.022 54.8916 182.018 54.9318 182.023Z" fill="#F5F5F5"/>
<path d="M78.5997 217.561C83.0991 217.641 90.7827 213.463 93.8384 209.405C96.8942 205.346 88.2883 207.8 89.1706 204.592C90.0528 201.384 100.672 203.75 102.629 199.106C104.586 194.463 96.9343 195.537 97.2391 193.163C97.5439 190.789 105.476 191.278 108.018 186.346C110.561 181.413 103.591 184.18 104.682 182.135C105.773 180.09 114.523 171.492 110.866 169.704C107.208 167.915 99.0036 176.866 96.2606 177.868C93.5176 178.871 92.868 172.679 89.2909 175.639C85.7138 178.598 88.3926 191.527 84.1899 193.235C81.0539 194.511 82.3853 188.584 78.7761 190.083C72.3919 192.706 76.747 217.521 78.5997 217.561Z" fill="#E0E0E0"/>
<g opacity="0.3">
<path d="M78.5997 217.561C83.0991 217.641 90.7827 213.463 93.8384 209.405C96.8942 205.346 88.2883 207.8 89.1706 204.592C90.0528 201.384 100.672 203.75 102.629 199.106C104.586 194.463 96.9343 195.537 97.2391 193.163C97.5439 190.789 105.476 191.278 108.018 186.346C110.561 181.413 103.591 184.18 104.682 182.135C105.773 180.09 114.523 171.492 110.866 169.704C107.208 167.915 99.0036 176.866 96.2606 177.868C93.5176 178.871 92.868 172.679 89.2909 175.639C85.7138 178.598 88.3926 191.527 84.1899 193.235C81.0539 194.511 82.3853 188.584 78.7761 190.083C72.3919 192.706 76.747 217.521 78.5997 217.561Z" fill="#E0E0E0"/>
</g>
<path d="M80.0595 212.163C79.9915 212.139 79.9346 212.09 79.8991 212.027C78.1842 208.263 77.4873 204.115 77.8779 199.997C77.8752 199.953 77.8819 199.909 77.8976 199.869C77.9132 199.828 77.9374 199.791 77.9686 199.76C77.9997 199.73 78.0371 199.706 78.0781 199.691C78.1191 199.676 78.1629 199.67 78.2064 199.674C78.2499 199.677 78.2922 199.69 78.3303 199.711C78.3685 199.733 78.4016 199.762 78.4275 199.797C78.4534 199.832 78.4714 199.872 78.4804 199.915C78.4894 199.958 78.489 200.002 78.4795 200.045C78.1435 203.954 78.7685 207.886 80.3001 211.498C82.1598 206.48 84.4516 201.634 87.1495 197.013C86.3475 187.388 91.3041 179.448 91.3522 179.368C91.3947 179.301 91.4621 179.254 91.5396 179.236C91.6171 179.219 91.6982 179.233 91.7652 179.276C91.8322 179.318 91.8796 179.386 91.8969 179.463C91.9142 179.541 91.9 179.622 91.8575 179.689C88.9908 184.668 87.5506 190.339 87.6949 196.083C90.9287 190.535 94.7876 185.376 99.1961 180.708C99.2324 180.666 99.2769 180.632 99.3268 180.608C99.3767 180.585 99.431 180.572 99.4862 180.57C99.5414 180.568 99.5964 180.578 99.6477 180.598C99.699 180.619 99.7455 180.65 99.7843 180.689C99.8231 180.728 99.8534 180.775 99.8732 180.827C99.893 180.879 99.9019 180.934 99.8994 180.989C99.8969 181.044 99.883 181.098 99.8586 181.148C99.8342 181.197 99.7998 181.241 99.7576 181.277C96.5005 184.704 93.561 188.419 90.9752 192.377C93.6846 191.357 96.5577 190.84 99.4528 190.853C99.5322 190.857 99.6069 190.893 99.6608 190.951C99.7147 191.009 99.7437 191.087 99.7415 191.166C99.7394 191.243 99.7072 191.317 99.6518 191.371C99.5964 191.425 99.5221 191.455 99.4448 191.455C96.3326 191.429 93.2472 192.032 90.3737 193.227C88.602 195.947 86.9691 198.756 85.4813 201.641C86.6895 200.802 88.0654 200.236 89.5138 199.981C90.9623 199.727 92.4487 199.789 93.8706 200.165C93.9479 200.186 94.0139 200.236 94.0545 200.305C94.095 200.374 94.1067 200.456 94.0871 200.534C94.0769 200.572 94.0593 200.608 94.0351 200.639C94.0109 200.67 93.9808 200.696 93.9465 200.716C93.9121 200.735 93.8742 200.747 93.835 200.752C93.7958 200.757 93.7561 200.753 93.7182 200.742C92.1767 200.346 90.5614 200.334 89.0145 200.709C87.4675 201.084 86.0366 201.834 84.8476 202.892C79.6764 213.143 76.7275 224.37 76.1936 235.84C76.1895 235.943 76.1454 236.041 76.0707 236.113C75.9959 236.185 75.8963 236.225 75.7926 236.225C75.689 236.225 75.5893 236.185 75.5146 236.113C75.4398 236.041 75.3957 235.943 75.3916 235.84C75.7282 227.755 77.3024 219.771 80.0595 212.163Z" fill="#F5F5F5"/>
<path d="M65.9193 261.505C61.6284 253.436 58.8052 241.775 58.8052 236.642C58.8259 234.549 59.3066 232.486 60.213 230.6C61.1195 228.714 62.4296 227.05 64.0505 225.726H86.0344C87.6554 227.05 88.9655 228.714 89.8719 230.6C90.7783 232.486 91.259 234.549 91.2797 236.642C91.2797 241.759 88.4566 253.42 84.1657 261.505H65.9193Z" fill="#F0F0F0"/>
<path d="M196.644 295.76C282.528 295.76 352.152 291.695 352.152 286.681C352.152 281.667 282.528 277.602 196.644 277.602C110.76 277.602 41.1367 281.667 41.1367 286.681C41.1367 291.695 110.76 295.76 196.644 295.76Z" fill="#F5F5F5"/>
<path d="M234.717 51.8839H215.468C214.841 51.8973 214.236 52.1201 213.751 52.517C213.265 52.9138 212.927 53.4618 212.789 54.0735L212.661 54.675C212.328 56.1674 211.504 57.5046 210.32 58.4719C209.135 59.4392 207.661 59.9804 206.132 60.0086H187.846C186.395 60.041 184.991 59.4983 183.939 58.4991C182.887 57.4999 182.273 56.1252 182.231 54.675V54.0735C182.217 53.4793 181.967 52.9151 181.537 52.5047C181.107 52.0942 180.532 51.871 179.937 51.8839H160.688C157.527 51.9402 154.496 53.153 152.168 55.293C149.84 57.433 148.378 60.3519 148.056 63.4975L132.609 240.379C132.446 241.858 132.6 243.355 133.06 244.77C133.521 246.185 134.277 247.485 135.28 248.585C136.282 249.684 137.507 250.558 138.874 251.147C140.24 251.736 141.716 252.027 143.204 252.001H217.208C220.37 251.943 223.402 250.728 225.729 248.587C228.057 246.445 229.519 243.526 229.84 240.379L245.32 63.4975C245.482 62.0185 245.327 60.5219 244.865 59.1075C244.404 57.693 243.646 56.3932 242.643 55.2944C241.64 54.1956 240.414 53.3231 239.047 52.7351C237.681 52.147 236.204 51.8569 234.717 51.8839Z" fill="#407BFF"/>
<path opacity="0.7" d="M234.717 51.8839H215.468C214.841 51.8973 214.236 52.1201 213.751 52.517C213.265 52.9138 212.927 53.4618 212.789 54.0735L212.661 54.675C212.328 56.1674 211.504 57.5046 210.32 58.4719C209.135 59.4392 207.661 59.9804 206.132 60.0086H187.846C186.395 60.041 184.991 59.4983 183.939 58.4991C182.887 57.4999 182.273 56.1252 182.231 54.675V54.0735C182.217 53.4793 181.967 52.9151 181.537 52.5047C181.107 52.0942 180.532 51.871 179.937 51.8839H160.688C157.527 51.9402 154.496 53.153 152.168 55.293C149.84 57.433 148.378 60.3519 148.056 63.4975L132.609 240.379C132.446 241.858 132.6 243.355 133.06 244.77C133.521 246.185 134.277 247.485 135.28 248.585C136.282 249.684 137.507 250.558 138.874 251.147C140.24 251.736 141.716 252.027 143.204 252.001H217.208C220.37 251.943 223.402 250.728 225.729 248.587C228.057 246.445 229.519 243.526 229.84 240.379L245.32 63.4975C245.482 62.0185 245.327 60.5219 244.865 59.1075C244.404 57.693 243.646 56.3932 242.643 55.2944C241.64 54.1956 240.414 53.3231 239.047 52.7351C237.681 52.147 236.204 51.8569 234.717 51.8839Z" fill="white"/>
<path d="M227.218 133.243H187.918C187.587 133.248 187.259 133.183 186.956 133.052C186.652 132.921 186.38 132.727 186.157 132.483C185.934 132.239 185.765 131.95 185.662 131.636C185.559 131.321 185.524 130.989 185.56 130.66L188.519 96.8222C188.59 96.1227 188.915 95.4734 189.432 94.9974C189.949 94.5214 190.623 94.2518 191.326 94.2396H230.626C230.957 94.233 231.286 94.2971 231.59 94.4277C231.894 94.5583 232.167 94.7523 232.39 94.9968C232.613 95.2412 232.782 95.5305 232.884 95.8453C232.987 96.1601 233.021 96.4932 232.984 96.8222L230.025 130.66C229.952 131.359 229.627 132.007 229.11 132.483C228.593 132.959 227.92 133.229 227.218 133.243Z" fill="white"/>
<path d="M214.144 239.048H148.377C147.555 239.063 146.74 238.903 145.985 238.578C145.23 238.253 144.552 237.771 143.998 237.164C143.444 236.557 143.026 235.839 142.772 235.057C142.517 234.276 142.432 233.449 142.522 232.632C142.7 230.894 143.508 229.282 144.794 228.1C146.08 226.918 147.754 226.247 149.5 226.215H215.267C216.089 226.2 216.905 226.36 217.66 226.685C218.415 227.01 219.092 227.492 219.646 228.099C220.2 228.706 220.618 229.425 220.873 230.206C221.127 230.988 221.212 231.815 221.122 232.632C220.946 234.37 220.138 235.983 218.852 237.165C217.566 238.348 215.891 239.018 214.144 239.048Z" fill="white"/>
<path d="M219.382 84.9359H159.044C158.582 84.9498 158.122 84.8635 157.696 84.6829C157.27 84.5023 156.888 84.2317 156.576 83.8896C156.265 83.5475 156.031 83.1421 155.89 82.7011C155.75 82.2601 155.707 81.794 155.764 81.3348L156.253 75.7205C156.355 74.7471 156.809 73.8446 157.53 73.1827C158.251 72.5209 159.189 72.1456 160.167 72.1274H220.505C220.965 72.1191 221.422 72.2088 221.846 72.3906C222.269 72.5725 222.648 72.8423 222.959 73.1821C223.27 73.5219 223.506 73.924 223.649 74.3616C223.793 74.7993 223.842 75.2625 223.793 75.7205L223.296 81.3348C223.196 82.3096 222.743 83.2141 222.022 83.8775C221.301 84.541 220.362 84.9175 219.382 84.9359Z" fill="white"/>
<path d="M231.653 75.528C231.625 75.7997 231.499 76.0519 231.298 76.2366C231.097 76.4214 230.835 76.526 230.562 76.5305C230.434 76.5324 230.307 76.507 230.189 76.4561C230.071 76.4051 229.966 76.3298 229.879 76.235C229.793 76.1403 229.727 76.0282 229.688 75.9064C229.648 75.7845 229.634 75.6555 229.648 75.528C229.675 75.257 229.802 75.0058 230.003 74.8223C230.204 74.6388 230.466 74.536 230.738 74.5335C230.866 74.5304 230.993 74.5547 231.111 74.6048C231.229 74.6548 231.334 74.7294 231.421 74.8235C231.508 74.9177 231.573 75.0292 231.613 75.1507C231.653 75.2722 231.667 75.4008 231.653 75.528Z" fill="white"/>
<path d="M231.388 78.5277C231.362 78.7987 231.238 79.0508 231.038 79.2357C230.838 79.4207 230.577 79.5255 230.305 79.5302C230.177 79.5321 230.05 79.5067 229.932 79.4558C229.814 79.4048 229.709 79.3295 229.622 79.2347C229.536 79.14 229.471 79.0279 229.431 78.906C229.391 78.7842 229.377 78.6552 229.391 78.5277C229.416 78.2567 229.541 78.0046 229.741 77.8196C229.941 77.6347 230.201 77.5298 230.474 77.5251C230.602 77.5233 230.729 77.5486 230.847 77.5996C230.964 77.6505 231.07 77.7259 231.156 77.8206C231.243 77.9154 231.308 78.0274 231.348 78.1493C231.388 78.2712 231.402 78.4001 231.388 78.5277Z" fill="white"/>
<path d="M231.131 81.5192C231.104 81.7909 230.978 82.0431 230.777 82.2279C230.576 82.4127 230.314 82.5173 230.041 82.5218C229.912 82.5237 229.785 82.4983 229.667 82.4473C229.55 82.3964 229.444 82.3211 229.358 82.2263C229.271 82.1315 229.206 82.0195 229.166 81.8976C229.126 81.7757 229.113 81.6468 229.126 81.5192C229.154 81.2475 229.28 80.9954 229.481 80.8106C229.682 80.6258 229.944 80.5212 230.217 80.5167C230.345 80.5148 230.472 80.5402 230.59 80.5912C230.708 80.6421 230.813 80.7174 230.9 80.8122C230.986 80.907 231.052 81.019 231.091 81.1409C231.131 81.2628 231.145 81.3917 231.131 81.5192Z" fill="white"/>
<path d="M222.333 189.065H148.923C148.592 189.071 148.263 189.007 147.959 188.877C147.655 188.746 147.382 188.552 147.159 188.307C146.935 188.063 146.767 187.774 146.664 187.459C146.562 187.144 146.528 186.811 146.565 186.482L149.981 147.864C150.052 147.164 150.377 146.515 150.894 146.039C151.411 145.563 152.085 145.293 152.788 145.281H226.175C226.505 145.276 226.833 145.341 227.136 145.472C227.439 145.603 227.711 145.797 227.934 146.042C228.156 146.286 228.324 146.575 228.426 146.889C228.528 147.203 228.561 147.536 228.525 147.864L225.148 186.482C225.078 187.183 224.752 187.833 224.233 188.31C223.714 188.786 223.038 189.054 222.333 189.065Z" fill="white"/>
<path d="M169.118 197.133H146.26C146.18 197.135 146.1 197.119 146.027 197.088C145.953 197.056 145.887 197.009 145.833 196.95C145.779 196.89 145.739 196.82 145.714 196.744C145.69 196.668 145.682 196.587 145.691 196.508C145.706 196.337 145.785 196.177 145.911 196.06C146.036 195.944 146.201 195.877 146.372 195.874H169.231C169.311 195.872 169.392 195.888 169.466 195.92C169.54 195.952 169.607 196 169.661 196.06C169.715 196.12 169.755 196.191 169.779 196.269C169.803 196.346 169.81 196.427 169.8 196.508C169.782 196.677 169.703 196.834 169.578 196.95C169.452 197.065 169.289 197.13 169.118 197.133Z" fill="white"/>
<path d="M197.687 197.133H173.152C173.072 197.136 172.991 197.121 172.917 197.09C172.842 197.059 172.775 197.012 172.72 196.953C172.665 196.893 172.624 196.823 172.599 196.746C172.574 196.669 172.566 196.588 172.575 196.508C172.591 196.337 172.669 196.177 172.795 196.06C172.921 195.944 173.085 195.877 173.257 195.874H197.799C197.88 195.872 197.96 195.888 198.035 195.92C198.109 195.952 198.175 196 198.229 196.06C198.283 196.12 198.324 196.191 198.348 196.269C198.372 196.346 198.379 196.427 198.369 196.508C198.351 196.677 198.272 196.834 198.146 196.95C198.021 197.065 197.857 197.13 197.687 197.133Z" fill="white"/>
<path d="M161.21 202.707H145.779C145.698 202.709 145.617 202.693 145.543 202.661C145.468 202.629 145.401 202.582 145.346 202.522C145.292 202.462 145.25 202.391 145.225 202.313C145.2 202.236 145.192 202.154 145.201 202.074C145.219 201.903 145.298 201.745 145.423 201.629C145.548 201.512 145.712 201.445 145.883 201.44H161.346C161.427 201.44 161.507 201.456 161.581 201.489C161.655 201.521 161.722 201.569 161.776 201.629C161.83 201.688 161.872 201.759 161.897 201.836C161.923 201.912 161.932 201.993 161.924 202.074C161.906 202.25 161.823 202.412 161.69 202.53C161.558 202.647 161.387 202.71 161.21 202.707Z" fill="white"/>
<path d="M190.597 202.708H165.268C165.187 202.709 165.106 202.693 165.032 202.661C164.957 202.629 164.89 202.582 164.836 202.522C164.781 202.462 164.74 202.391 164.715 202.314C164.69 202.236 164.681 202.155 164.691 202.074C164.708 201.902 164.788 201.743 164.915 201.626C165.042 201.509 165.208 201.443 165.38 201.44H190.701C190.782 201.439 190.863 201.454 190.937 201.486C191.012 201.518 191.079 201.566 191.133 201.626C191.188 201.686 191.229 201.757 191.254 201.834C191.279 201.912 191.287 201.993 191.278 202.074C191.263 202.245 191.184 202.404 191.058 202.521C190.933 202.638 190.768 202.704 190.597 202.708Z" fill="white"/>
<path d="M186.506 208.274H145.289C145.208 208.276 145.128 208.262 145.053 208.231C144.979 208.2 144.912 208.153 144.857 208.093C144.802 208.034 144.761 207.963 144.736 207.887C144.711 207.81 144.702 207.728 144.712 207.648C144.729 207.476 144.809 207.317 144.936 207.2C145.063 207.084 145.229 207.017 145.401 207.014H186.618C186.699 207.014 186.779 207.031 186.853 207.063C186.927 207.096 186.993 207.143 187.048 207.203C187.102 207.263 187.144 207.333 187.169 207.41C187.194 207.486 187.204 207.568 187.196 207.648C187.176 207.818 187.096 207.976 186.969 208.091C186.842 208.206 186.677 208.271 186.506 208.274Z" fill="white"/>
<path d="M193.291 208.274H190.572C190.492 208.276 190.411 208.262 190.337 208.231C190.262 208.199 190.195 208.153 190.14 208.093C190.085 208.034 190.044 207.963 190.019 207.886C189.994 207.81 189.986 207.728 189.995 207.648C190.011 207.477 190.089 207.318 190.215 207.201C190.341 207.084 190.505 207.018 190.677 207.014H193.404C193.484 207.012 193.565 207.028 193.639 207.06C193.713 207.092 193.78 207.14 193.834 207.2C193.888 207.26 193.928 207.332 193.952 207.409C193.976 207.486 193.983 207.568 193.973 207.648C193.955 207.817 193.876 207.975 193.751 208.09C193.625 208.205 193.462 208.271 193.291 208.274Z" fill="white"/>
<path d="M164.041 213.848H144.792C144.711 213.848 144.631 213.831 144.557 213.799C144.483 213.767 144.417 213.719 144.363 213.659C144.308 213.599 144.267 213.529 144.241 213.452C144.216 213.376 144.207 213.294 144.215 213.214C144.232 213.042 144.312 212.883 144.439 212.766C144.566 212.65 144.732 212.583 144.904 212.58H164.153C164.235 212.579 164.315 212.594 164.39 212.627C164.464 212.659 164.531 212.706 164.586 212.766C164.641 212.826 164.682 212.897 164.707 212.974C164.732 213.052 164.74 213.133 164.731 213.214C164.713 213.386 164.633 213.545 164.506 213.662C164.379 213.779 164.214 213.845 164.041 213.848Z" fill="white"/>
<path d="M192.04 213.848H168.075C167.995 213.848 167.915 213.831 167.841 213.799C167.767 213.767 167.7 213.719 167.646 213.659C167.591 213.599 167.55 213.529 167.525 213.452C167.499 213.376 167.49 213.294 167.498 213.214C167.515 213.042 167.595 212.883 167.722 212.766C167.85 212.65 168.015 212.583 168.188 212.58H192.145C192.226 212.579 192.306 212.594 192.381 212.627C192.455 212.659 192.522 212.706 192.577 212.766C192.632 212.826 192.673 212.897 192.698 212.974C192.723 213.052 192.731 213.133 192.722 213.214C192.705 213.384 192.626 213.543 192.5 213.659C192.375 213.776 192.211 213.843 192.04 213.848Z" fill="white"/>
<path d="M168.011 219.414H144.311C144.23 219.416 144.15 219.4 144.075 219.368C144.001 219.336 143.935 219.288 143.881 219.228C143.827 219.168 143.786 219.097 143.762 219.019C143.738 218.942 143.731 218.86 143.741 218.78C143.759 218.611 143.838 218.453 143.964 218.338C144.089 218.223 144.253 218.158 144.423 218.155H168.115C168.196 218.152 168.277 218.166 168.351 218.198C168.426 218.229 168.493 218.276 168.548 218.335C168.603 218.394 168.644 218.465 168.669 218.542C168.694 218.619 168.702 218.7 168.693 218.78C168.677 218.951 168.599 219.11 168.473 219.227C168.347 219.344 168.183 219.411 168.011 219.414Z" fill="white"/>
<path d="M191.126 219.414H172.038C171.957 219.416 171.876 219.4 171.802 219.368C171.728 219.336 171.661 219.288 171.607 219.228C171.553 219.168 171.513 219.097 171.489 219.019C171.465 218.942 171.458 218.86 171.468 218.78C171.486 218.611 171.565 218.453 171.69 218.338C171.816 218.223 171.979 218.158 172.15 218.155H191.238C191.319 218.152 191.4 218.166 191.474 218.198C191.549 218.229 191.616 218.276 191.671 218.335C191.725 218.394 191.767 218.465 191.792 218.542C191.817 218.619 191.825 218.7 191.816 218.78C191.798 218.952 191.718 219.111 191.591 219.228C191.464 219.345 191.299 219.411 191.126 219.414Z" fill="white"/>
<path d="M226.287 130.035C226.217 130.115 226.132 130.18 226.037 130.227C225.942 130.274 225.839 130.302 225.733 130.309C225.627 130.315 225.52 130.301 225.42 130.266C225.32 130.232 225.227 130.177 225.148 130.107L192.321 98.7792C192.171 98.6289 192.087 98.4256 192.087 98.2137C192.087 98.0019 192.171 97.7986 192.321 97.6483C192.39 97.5682 192.475 97.5028 192.57 97.4557C192.666 97.4087 192.769 97.381 192.875 97.3743C192.981 97.3676 193.087 97.382 193.188 97.4166C193.288 97.4513 193.38 97.5055 193.46 97.5761L226.287 128.904C226.436 129.054 226.52 129.257 226.52 129.469C226.52 129.681 226.436 129.884 226.287 130.035Z" fill="#407BFF"/>
<path d="M189.418 130.027C189.352 129.941 189.305 129.844 189.278 129.74C189.251 129.636 189.245 129.528 189.261 129.421C189.277 129.315 189.314 129.213 189.369 129.122C189.425 129.03 189.499 128.95 189.586 128.888L206.333 115.197C206.492 115.059 206.699 114.989 206.909 115.003C207.119 115.017 207.315 115.112 207.456 115.269C207.52 115.354 207.566 115.451 207.592 115.554C207.619 115.657 207.624 115.764 207.608 115.87C207.593 115.975 207.556 116.076 207.501 116.167C207.446 116.258 207.373 116.337 207.287 116.4L190.541 130.099C190.381 130.236 190.175 130.306 189.964 130.293C189.754 130.279 189.558 130.184 189.418 130.027Z" fill="#407BFF"/>
<path d="M211.056 112.326C210.992 112.241 210.946 112.144 210.92 112.041C210.894 111.938 210.888 111.83 210.904 111.725C210.919 111.62 210.956 111.519 211.011 111.428C211.066 111.337 211.139 111.257 211.225 111.195L228.004 97.4799C228.163 97.3422 228.37 97.2726 228.58 97.2861C228.79 97.2996 228.986 97.3951 229.126 97.5521C229.19 97.6371 229.237 97.734 229.263 97.8371C229.289 97.9402 229.295 98.0476 229.279 98.1528C229.263 98.2581 229.227 98.3592 229.172 98.4502C229.117 98.5412 229.044 98.6203 228.958 98.683L212.179 112.398C212.02 112.536 211.813 112.605 211.603 112.592C211.393 112.578 211.197 112.483 211.056 112.326Z" fill="#407BFF"/>
<g opacity="0.7">
<path d="M226.287 130.035C226.217 130.115 226.132 130.18 226.037 130.227C225.942 130.274 225.839 130.302 225.733 130.309C225.627 130.315 225.52 130.301 225.42 130.266C225.32 130.232 225.227 130.177 225.148 130.107L192.321 98.7792C192.171 98.6289 192.087 98.4256 192.087 98.2137C192.087 98.0019 192.171 97.7986 192.321 97.6483C192.39 97.5682 192.475 97.5028 192.57 97.4557C192.666 97.4087 192.769 97.381 192.875 97.3743C192.981 97.3676 193.087 97.382 193.188 97.4166C193.288 97.4513 193.38 97.5055 193.46 97.5761L226.287 128.904C226.436 129.054 226.52 129.257 226.52 129.469C226.52 129.681 226.436 129.884 226.287 130.035Z" fill="white"/>
</g>
<g opacity="0.7">
<path d="M189.418 130.027C189.352 129.941 189.305 129.844 189.278 129.74C189.251 129.636 189.245 129.528 189.261 129.421C189.277 129.315 189.314 129.213 189.369 129.122C189.425 129.03 189.499 128.95 189.586 128.888L206.333 115.197C206.492 115.059 206.699 114.989 206.909 115.003C207.119 115.017 207.315 115.112 207.456 115.269C207.52 115.354 207.566 115.451 207.592 115.554C207.619 115.657 207.624 115.764 207.608 115.87C207.593 115.975 207.556 116.076 207.501 116.167C207.446 116.258 207.373 116.337 207.287 116.4L190.541 130.099C190.381 130.236 190.175 130.306 189.964 130.293C189.754 130.279 189.558 130.184 189.418 130.027Z" fill="white"/>
</g>
<g opacity="0.7">
<path d="M211.056 112.326C210.992 112.241 210.946 112.144 210.92 112.041C210.894 111.938 210.888 111.83 210.904 111.725C210.919 111.62 210.956 111.519 211.011 111.428C211.066 111.337 211.139 111.257 211.225 111.195L228.004 97.4799C228.163 97.3422 228.37 97.2726 228.58 97.2861C228.79 97.2996 228.986 97.3951 229.126 97.5521C229.19 97.6371 229.237 97.734 229.263 97.8371C229.289 97.9402 229.295 98.0476 229.279 98.1528C229.263 98.2581 229.227 98.3592 229.172 98.4502C229.117 98.5412 229.044 98.6203 228.958 98.683L212.179 112.398C212.02 112.536 211.813 112.605 211.603 112.592C211.393 112.578 211.197 112.483 211.056 112.326Z" fill="white"/>
</g>
<path d="M132.93 48.0341H122.503C121.494 48.0383 120.527 48.4424 119.814 49.1579C119.102 49.8734 118.702 50.8421 118.702 51.8518V62.2783C118.702 63.2908 119.104 64.2619 119.82 64.9778C120.536 65.6938 121.507 66.096 122.519 66.096H132.946C133.958 66.096 134.929 65.6938 135.645 64.9778C136.361 64.2619 136.764 63.2908 136.764 62.2783V51.8518C136.764 51.3491 136.664 50.8513 136.471 50.3871C136.279 49.9229 135.996 49.5013 135.64 49.1466C135.284 48.7919 134.861 48.511 134.396 48.3201C133.931 48.1292 133.433 48.032 132.93 48.0341ZM127.741 51.7235C129.305 51.7235 130.147 52.9987 130.147 54.5627C130.147 56.1267 129.305 57.4019 127.741 57.4019C126.177 57.4019 125.335 56.1347 125.335 54.5627C125.335 52.9907 126.169 51.7235 127.741 51.7235ZM134.005 62.3665H121.469C121.418 62.3667 121.368 62.3568 121.321 62.3375C121.274 62.3183 121.232 62.29 121.196 62.2543L121.998 60.0647C122.248 59.3742 122.705 58.7775 123.306 58.3556C123.908 57.9337 124.624 57.7072 125.359 57.7067H130.099C130.834 57.7067 131.552 57.9329 132.155 58.3548C132.757 58.7766 133.215 59.3735 133.467 60.0647L134.269 62.2543C134.235 62.2897 134.194 62.3179 134.148 62.3372C134.103 62.3565 134.054 62.3665 134.005 62.3665Z" fill="#407BFF"/>
<path opacity="0.7" d="M132.93 48.0341H122.503C121.494 48.0383 120.527 48.4424 119.814 49.1579C119.102 49.8734 118.702 50.8421 118.702 51.8518V62.2783C118.702 63.2908 119.104 64.2619 119.82 64.9778C120.536 65.6938 121.507 66.096 122.519 66.096H132.946C133.958 66.096 134.929 65.6938 135.645 64.9778C136.361 64.2619 136.764 63.2908 136.764 62.2783V51.8518C136.764 51.3491 136.664 50.8513 136.471 50.3871C136.279 49.9229 135.996 49.5013 135.64 49.1466C135.284 48.7919 134.861 48.511 134.396 48.3201C133.931 48.1292 133.433 48.032 132.93 48.0341ZM127.741 51.7235C129.305 51.7235 130.147 52.9987 130.147 54.5627C130.147 56.1267 129.305 57.4019 127.741 57.4019C126.177 57.4019 125.335 56.1347 125.335 54.5627C125.335 52.9907 126.169 51.7235 127.741 51.7235ZM134.005 62.3665H121.469C121.418 62.3667 121.368 62.3568 121.321 62.3375C121.274 62.3183 121.232 62.29 121.196 62.2543L121.998 60.0647C122.248 59.3742 122.705 58.7775 123.306 58.3556C123.908 57.9337 124.624 57.7072 125.359 57.7067H130.099C130.834 57.7067 131.552 57.9329 132.155 58.3548C132.757 58.7766 133.215 59.3735 133.467 60.0647L134.269 62.2543C134.235 62.2897 134.194 62.3179 134.148 62.3372C134.103 62.3565 134.054 62.3665 134.005 62.3665Z" fill="white"/>
<path d="M95.9721 90.7667H88.08C87.4053 90.7657 86.7369 90.8977 86.1132 91.1552C85.4895 91.4126 84.9227 91.7906 84.4452 92.2673C83.9677 92.7441 83.5889 93.3103 83.3305 93.9336C83.072 94.5569 82.939 95.225 82.939 95.8998V103.792C82.939 105.155 83.4806 106.463 84.4447 107.427C85.4089 108.391 86.7165 108.933 88.08 108.933H95.9721C96.6469 108.933 97.315 108.8 97.9383 108.541C98.5616 108.283 99.1278 107.904 99.6046 107.427C100.081 106.949 100.459 106.382 100.717 105.759C100.974 105.135 101.106 104.467 101.105 103.792V95.8998C101.106 95.2254 100.974 94.5575 100.717 93.9342C100.459 93.311 100.081 92.7447 99.6041 92.2678C99.1272 91.791 98.5609 91.4129 97.9377 91.1553C97.3144 90.8977 96.6465 90.7657 95.9721 90.7667ZM92.0261 104.153C92.0261 104.153 88.8179 100.632 88.8179 98.8352C88.8179 97.9748 89.1597 97.1496 89.7681 96.5412C90.3765 95.9328 91.2017 95.591 92.0622 95.591C92.9226 95.591 93.7478 95.9328 94.3562 96.5412C94.9646 97.1496 95.3064 97.9748 95.3064 98.8352C95.2663 100.632 92.0261 104.153 92.0261 104.153Z" fill="#407BFF"/>
<path d="M92.0264 97.3595C91.7323 97.3579 91.4443 97.4438 91.1991 97.6062C90.9539 97.7687 90.7624 98.0003 90.6491 98.2718C90.5359 98.5432 90.5058 98.8422 90.5628 99.1308C90.6198 99.4194 90.7613 99.6845 90.9693 99.8925C91.1772 100.1 91.4424 100.242 91.7309 100.299C92.0195 100.356 92.3185 100.326 92.5899 100.213C92.8614 100.099 93.093 99.9078 93.2555 99.6626C93.4179 99.4174 93.5038 99.1294 93.5022 98.8353C93.5022 98.4439 93.3467 98.0685 93.07 97.7918C92.7932 97.515 92.4178 97.3595 92.0264 97.3595Z" fill="#407BFF"/>
<g opacity="0.7">
<path d="M95.9721 90.7667H88.08C87.4053 90.7657 86.7369 90.8977 86.1132 91.1552C85.4895 91.4126 84.9227 91.7906 84.4452 92.2673C83.9677 92.7441 83.5889 93.3103 83.3305 93.9336C83.072 94.5569 82.939 95.225 82.939 95.8998V103.792C82.939 105.155 83.4806 106.463 84.4447 107.427C85.4089 108.391 86.7165 108.933 88.08 108.933H95.9721C96.6469 108.933 97.315 108.8 97.9383 108.541C98.5616 108.283 99.1278 107.904 99.6046 107.427C100.081 106.949 100.459 106.382 100.717 105.759C100.974 105.135 101.106 104.467 101.105 103.792V95.8998C101.106 95.2254 100.974 94.5575 100.717 93.9342C100.459 93.311 100.081 92.7447 99.6041 92.2678C99.1272 91.791 98.5609 91.4129 97.9377 91.1553C97.3144 90.8977 96.6465 90.7657 95.9721 90.7667ZM92.0261 104.153C92.0261 104.153 88.8179 100.632 88.8179 98.8352C88.8179 97.9748 89.1597 97.1496 89.7681 96.5412C90.3765 95.9328 91.2017 95.591 92.0622 95.591C92.9226 95.591 93.7478 95.9328 94.3562 96.5412C94.9646 97.1496 95.3064 97.9748 95.3064 98.8352C95.2663 100.632 92.0261 104.153 92.0261 104.153Z" fill="white"/>
<path d="M92.0264 97.3596C91.7323 97.3581 91.4443 97.4439 91.1991 97.6064C90.9539 97.7688 90.7624 98.0004 90.6491 98.2719C90.5359 98.5433 90.5058 98.8423 90.5628 99.1309C90.6198 99.4195 90.7613 99.6846 90.9693 99.8926C91.1772 100.101 91.4424 100.242 91.7309 100.299C92.0195 100.356 92.3185 100.326 92.5899 100.213C92.8614 100.099 93.093 99.908 93.2555 99.6627C93.4179 99.4175 93.5038 99.1295 93.5022 98.8354C93.5022 98.444 93.3467 98.0686 93.07 97.7919C92.7932 97.5151 92.4178 97.3596 92.0264 97.3596Z" fill="white"/>
</g>
<path d="M269.245 68.3979L274.53 64.9812L269.245 61.5565V68.3979Z" fill="#407BFF"/>
<path d="M276.054 55.6534H265.98C264.842 55.6534 263.751 56.1055 262.946 56.9102C262.142 57.7149 261.689 58.8063 261.689 59.9444V70.018C261.692 71.1553 262.144 72.2455 262.949 73.0498C263.753 73.854 264.843 74.3068 265.98 74.3089H276.054C277.192 74.3089 278.283 73.8568 279.088 73.0521C279.893 72.2474 280.345 71.156 280.345 70.018V59.9444C280.346 59.3806 280.236 58.8221 280.02 58.3011C279.805 57.78 279.489 57.3065 279.09 56.9079C278.692 56.5092 278.218 56.1932 277.697 55.9779C277.176 55.7627 276.618 55.6524 276.054 55.6534ZM271.017 71.6942C269.689 71.6942 268.391 71.3003 267.287 70.5623C266.183 69.8243 265.322 68.7754 264.814 67.5483C264.306 66.3212 264.174 64.971 264.434 63.6686C264.693 62.3661 265.334 61.17 266.273 60.2315C267.213 59.293 268.41 58.6542 269.712 58.3961C271.015 58.138 272.365 58.2721 273.592 58.7814C274.818 59.2907 275.866 60.1524 276.603 61.2574C277.339 62.3624 277.732 63.6611 277.73 64.9892C277.729 65.8697 277.555 66.7414 277.217 67.5545C276.879 68.3676 276.384 69.1062 275.761 69.728C275.137 70.3499 274.398 70.8429 273.584 71.1789C272.77 71.5149 271.898 71.6873 271.017 71.6862V71.6942Z" fill="#407BFF"/>
<g opacity="0.7">
<path d="M269.245 68.3978L274.53 64.9811L269.245 61.5564V68.3978Z" fill="white"/>
<path d="M276.054 55.6534H265.98C264.842 55.6534 263.751 56.1055 262.946 56.9102C262.142 57.7149 261.689 58.8063 261.689 59.9444V70.018C261.692 71.1553 262.144 72.2455 262.949 73.0498C263.753 73.854 264.843 74.3068 265.98 74.3089H276.054C277.192 74.3089 278.283 73.8568 279.088 73.0521C279.893 72.2474 280.345 71.156 280.345 70.018V59.9444C280.346 59.3806 280.236 58.8221 280.02 58.3011C279.805 57.78 279.489 57.3065 279.09 56.9079C278.692 56.5092 278.218 56.1932 277.697 55.9779C277.176 55.7627 276.618 55.6524 276.054 55.6534ZM271.017 71.6942C269.689 71.6942 268.391 71.3003 267.287 70.5623C266.183 69.8243 265.322 68.7754 264.814 67.5483C264.306 66.3212 264.174 64.971 264.434 63.6686C264.693 62.3661 265.334 61.17 266.273 60.2315C267.213 59.293 268.41 58.6542 269.712 58.3961C271.015 58.138 272.365 58.2721 273.592 58.7814C274.818 59.2907 275.866 60.1524 276.603 61.2574C277.339 62.3624 277.732 63.6611 277.73 64.9892C277.729 65.8697 277.555 66.7414 277.217 67.5545C276.879 68.3676 276.384 69.1062 275.761 69.728C275.137 70.3499 274.398 70.8429 273.584 71.1789C272.77 71.5149 271.898 71.6873 271.017 71.6862V71.6942Z" fill="white"/>
</g>
<path d="M285.943 94.2877C285.943 94.0791 285.943 93.8706 285.943 93.6701L287.154 92.9964C287.066 92.4229 286.915 91.8608 286.705 91.3201H285.326C285.15 90.9436 284.941 90.5839 284.7 90.2454L285.414 89.0664C285.048 88.6138 284.637 88.1999 284.187 87.8313L283 88.5451C282.663 88.3086 282.306 88.102 281.933 87.9275V86.54C281.39 86.335 280.829 86.1845 280.257 86.0908L279.583 87.3019C279.382 87.3019 279.174 87.3019 278.965 87.3019C278.757 87.3019 278.556 87.3019 278.348 87.3019L277.674 86.0908C277.102 86.1865 276.541 86.3369 275.998 86.54V87.9275C275.624 88.1002 275.267 88.3069 274.931 88.5451L273.744 87.8313C273.289 88.1977 272.875 88.6117 272.509 89.0664L273.223 90.2454C272.988 90.5859 272.781 90.9454 272.605 91.3201H271.226C271.016 91.8618 270.863 92.4235 270.769 92.9964L271.98 93.6701C271.98 93.8706 271.98 94.0791 271.98 94.2877C271.98 94.4962 271.98 94.7047 271.98 94.9052L270.769 95.5789C270.862 96.1521 271.015 96.7139 271.226 97.2552H272.605C272.781 97.6299 272.988 97.9894 273.223 98.3299L272.509 99.517C272.878 99.9672 273.292 100.378 273.744 100.744L274.931 100.03C275.265 100.271 275.622 100.478 275.998 100.648V102.035C276.54 102.242 277.101 102.393 277.674 102.485L278.348 101.273C278.556 101.273 278.757 101.273 278.965 101.273C279.174 101.273 279.382 101.273 279.583 101.273L280.257 102.485C280.83 102.395 281.392 102.244 281.933 102.035V100.648C282.307 100.476 282.665 100.27 283 100.03L284.187 100.744C284.635 100.376 285.046 99.9651 285.414 99.517L284.7 98.3299C284.941 97.9915 285.15 97.6317 285.326 97.2552H286.705C286.916 96.7148 287.067 96.1526 287.154 95.5789L285.943 94.9052C285.927 94.6807 285.943 94.4962 285.943 94.2877ZM278.949 99.0357C278.01 99.0357 277.092 98.7573 276.311 98.2355C275.531 97.7138 274.922 96.9723 274.563 96.1047C274.203 95.2371 274.109 94.2824 274.293 93.3614C274.476 92.4403 274.928 91.5943 275.592 90.9303C276.256 90.2662 277.102 89.814 278.023 89.6308C278.944 89.4476 279.899 89.5417 280.766 89.901C281.634 90.2604 282.375 90.869 282.897 91.6498C283.419 92.4306 283.697 93.3486 283.697 94.2877C283.697 95.5469 283.197 96.7546 282.307 97.6451C281.416 98.5355 280.209 99.0357 278.949 99.0357Z" fill="#407BFF"/>
<path opacity="0.7" d="M285.943 94.2877C285.943 94.0791 285.943 93.8706 285.943 93.6701L287.154 92.9964C287.066 92.4229 286.915 91.8608 286.705 91.3201H285.326C285.15 90.9436 284.941 90.5839 284.7 90.2454L285.414 89.0664C285.048 88.6138 284.637 88.1999 284.187 87.8313L283 88.5451C282.663 88.3086 282.306 88.102 281.933 87.9275V86.54C281.39 86.335 280.829 86.1845 280.257 86.0908L279.583 87.3019C279.382 87.3019 279.174 87.3019 278.965 87.3019C278.757 87.3019 278.556 87.3019 278.348 87.3019L277.674 86.0908C277.102 86.1865 276.541 86.3369 275.998 86.54V87.9275C275.624 88.1002 275.267 88.3069 274.931 88.5451L273.744 87.8313C273.289 88.1977 272.875 88.6117 272.509 89.0664L273.223 90.2454C272.988 90.5859 272.781 90.9454 272.605 91.3201H271.226C271.016 91.8618 270.863 92.4235 270.769 92.9964L271.98 93.6701C271.98 93.8706 271.98 94.0791 271.98 94.2877C271.98 94.4962 271.98 94.7047 271.98 94.9052L270.769 95.5789C270.862 96.1521 271.015 96.7139 271.226 97.2552H272.605C272.781 97.6299 272.988 97.9894 273.223 98.3299L272.509 99.517C272.878 99.9672 273.292 100.378 273.744 100.744L274.931 100.03C275.265 100.271 275.622 100.478 275.998 100.648V102.035C276.54 102.242 277.101 102.393 277.674 102.485L278.348 101.273C278.556 101.273 278.757 101.273 278.965 101.273C279.174 101.273 279.382 101.273 279.583 101.273L280.257 102.485C280.83 102.395 281.392 102.244 281.933 102.035V100.648C282.307 100.476 282.665 100.27 283 100.03L284.187 100.744C284.635 100.376 285.046 99.9651 285.414 99.517L284.7 98.3299C284.941 97.9915 285.15 97.6317 285.326 97.2552H286.705C286.916 96.7148 287.067 96.1526 287.154 95.5789L285.943 94.9052C285.927 94.6807 285.943 94.4962 285.943 94.2877ZM278.949 99.0357C278.01 99.0357 277.092 98.7573 276.311 98.2355C275.531 97.7138 274.922 96.9723 274.563 96.1047C274.203 95.2371 274.109 94.2824 274.293 93.3614C274.476 92.4403 274.928 91.5943 275.592 90.9303C276.256 90.2662 277.102 89.814 278.023 89.6308C278.944 89.4476 279.899 89.5417 280.766 89.901C281.634 90.2604 282.375 90.869 282.897 91.6498C283.419 92.4306 283.697 93.3486 283.697 94.2877C283.697 95.5469 283.197 96.7546 282.307 97.6451C281.416 98.5355 280.209 99.0357 278.949 99.0357Z" fill="white"/>
<path d="M267.664 118.132C267.664 117.819 267.664 117.515 267.624 117.21L269.437 116.207C269.301 115.347 269.075 114.503 268.763 113.689L266.694 113.729C266.433 113.167 266.121 112.631 265.764 112.125L266.83 110.352C266.284 109.678 265.668 109.062 264.994 108.516L263.221 109.575C262.713 109.222 262.177 108.914 261.617 108.652V106.583C260.806 106.27 259.965 106.045 259.107 105.909L258.104 107.722C257.799 107.722 257.495 107.722 257.182 107.722C256.869 107.722 256.564 107.722 256.259 107.722L255.281 105.909C254.423 106.047 253.582 106.272 252.771 106.583V108.652C252.211 108.913 251.674 109.222 251.166 109.575L249.434 108.516C248.757 109.062 248.139 109.678 247.589 110.352L248.656 112.125C248.301 112.631 247.992 113.168 247.734 113.729L245.664 113.689C245.349 114.502 245.123 115.346 244.991 116.207L246.803 117.21C246.739 117.823 246.739 118.441 246.803 119.055L244.991 120.065C245.124 120.924 245.35 121.765 245.664 122.576L247.734 122.535C247.99 123.098 248.299 123.635 248.656 124.14L247.589 125.912C248.139 126.587 248.757 127.202 249.434 127.749L251.207 126.69C251.712 127.045 252.249 127.354 252.811 127.612V129.682C253.621 129.996 254.462 130.222 255.321 130.355L256.332 128.543C256.945 128.607 257.563 128.607 258.176 128.543L259.179 130.355C260.038 130.224 260.88 129.998 261.689 129.682V127.612C262.251 127.354 262.787 127.045 263.293 126.69L265.066 127.749C265.74 127.202 266.356 126.587 266.902 125.912L265.836 124.14C266.195 123.635 266.507 123.098 266.766 122.535L268.835 122.576C269.146 121.764 269.372 120.923 269.509 120.065L267.696 119.055C267.648 118.742 267.664 118.445 267.664 118.132ZM257.238 122.255C256.423 122.255 255.625 122.013 254.948 121.56C254.27 121.107 253.741 120.463 253.429 119.71C253.117 118.957 253.036 118.128 253.195 117.328C253.354 116.528 253.746 115.794 254.323 115.217C254.899 114.641 255.634 114.248 256.434 114.089C257.233 113.93 258.062 114.012 258.815 114.324C259.569 114.636 260.213 115.164 260.666 115.842C261.119 116.52 261.36 117.317 261.36 118.132C261.36 118.676 261.253 119.214 261.044 119.715C260.836 120.217 260.53 120.673 260.144 121.056C259.759 121.439 259.302 121.742 258.799 121.948C258.296 122.154 257.757 122.258 257.214 122.255H257.238Z" fill="#407BFF"/>
<path opacity="0.7" d="M267.664 118.132C267.664 117.819 267.664 117.515 267.624 117.21L269.437 116.207C269.301 115.347 269.075 114.503 268.763 113.689L266.694 113.729C266.433 113.167 266.121 112.631 265.764 112.125L266.83 110.352C266.284 109.678 265.668 109.062 264.994 108.516L263.221 109.575C262.713 109.222 262.177 108.914 261.617 108.652V106.583C260.806 106.27 259.965 106.045 259.107 105.909L258.104 107.722C257.799 107.722 257.495 107.722 257.182 107.722C256.869 107.722 256.564 107.722 256.259 107.722L255.281 105.909C254.423 106.047 253.582 106.272 252.771 106.583V108.652C252.211 108.913 251.674 109.222 251.166 109.575L249.434 108.516C248.757 109.062 248.139 109.678 247.589 110.352L248.656 112.125C248.301 112.631 247.992 113.168 247.734 113.729L245.664 113.689C245.349 114.502 245.123 115.346 244.991 116.207L246.803 117.21C246.739 117.823 246.739 118.441 246.803 119.055L244.991 120.065C245.124 120.924 245.35 121.765 245.664 122.576L247.734 122.535C247.99 123.098 248.299 123.635 248.656 124.14L247.589 125.912C248.139 126.587 248.757 127.202 249.434 127.749L251.207 126.69C251.712 127.045 252.249 127.354 252.811 127.612V129.682C253.621 129.996 254.462 130.222 255.321 130.355L256.332 128.543C256.945 128.607 257.563 128.607 258.176 128.543L259.179 130.355C260.038 130.224 260.88 129.998 261.689 129.682V127.612C262.251 127.354 262.787 127.045 263.293 126.69L265.066 127.749C265.74 127.202 266.356 126.587 266.902 125.912L265.836 124.14C266.195 123.635 266.507 123.098 266.766 122.535L268.835 122.576C269.146 121.764 269.372 120.923 269.509 120.065L267.696 119.055C267.648 118.742 267.664 118.445 267.664 118.132ZM257.238 122.255C256.423 122.255 255.625 122.013 254.948 121.56C254.27 121.107 253.741 120.463 253.429 119.71C253.117 118.957 253.036 118.128 253.195 117.328C253.354 116.528 253.746 115.794 254.323 115.217C254.899 114.641 255.634 114.248 256.434 114.089C257.233 113.93 258.062 114.012 258.815 114.324C259.569 114.636 260.213 115.164 260.666 115.842C261.119 116.52 261.36 117.317 261.36 118.132C261.36 118.676 261.253 119.214 261.044 119.715C260.836 120.217 260.53 120.673 260.144 121.056C259.759 121.439 259.302 121.742 258.799 121.948C258.296 122.154 257.757 122.258 257.214 122.255H257.238Z" fill="white"/>
<path d="M238.206 71.6301V75.8328L234.196 77.9422C234.04 78.0258 233.909 78.1502 233.818 78.302C233.728 78.4538 233.68 78.6275 233.68 78.8044C233.68 78.9813 233.728 79.1549 233.818 79.3067C233.909 79.4586 234.04 79.5829 234.196 79.6666L238.206 81.7759V85.9786C238.206 86.4274 238.384 86.8579 238.701 87.1753C239.019 87.4926 239.449 87.6709 239.898 87.6709H254.246C254.696 87.6709 255.127 87.4929 255.446 87.1757C255.765 86.8586 255.945 86.4282 255.947 85.9786V71.6301C255.947 71.1792 255.768 70.7467 255.449 70.4278C255.13 70.109 254.697 69.9298 254.246 69.9298H239.874C239.428 69.9361 239.002 70.1183 238.69 70.4368C238.378 70.7552 238.204 71.1841 238.206 71.6301Z" fill="#407BFF"/>
<g opacity="0.9">
<path d="M243.114 76.0092H251.271C251.537 76.0092 251.792 75.9036 251.98 75.7156C252.168 75.5276 252.273 75.2726 252.273 75.0067C252.273 74.7408 252.168 74.4858 251.98 74.2978C251.792 74.1098 251.537 74.0042 251.271 74.0042H243.114C242.848 74.0042 242.593 74.1098 242.405 74.2978C242.217 74.4858 242.111 74.7408 242.111 75.0067C242.111 75.2726 242.217 75.5276 242.405 75.7156C242.593 75.9036 242.848 76.0092 243.114 76.0092Z" fill="white"/>
<path d="M251.271 77.8379H243.114C242.848 77.8379 242.593 77.9435 242.405 78.1315C242.217 78.3195 242.111 78.5745 242.111 78.8404C242.111 79.1063 242.217 79.3613 242.405 79.5493C242.593 79.7374 242.848 79.843 243.114 79.843H251.271C251.537 79.843 251.792 79.7374 251.98 79.5493C252.168 79.3613 252.273 79.1063 252.273 78.8404C252.273 78.5745 252.168 78.3195 251.98 78.1315C251.792 77.9435 251.537 77.8379 251.271 77.8379Z" fill="white"/>
<path d="M251.271 81.5995H243.114C242.848 81.5995 242.593 81.7051 242.405 81.8931C242.217 82.0811 242.111 82.3361 242.111 82.602C242.111 82.8679 242.217 83.1229 242.405 83.3109C242.593 83.499 242.848 83.6046 243.114 83.6046H251.271C251.537 83.6046 251.792 83.499 251.98 83.3109C252.168 83.1229 252.273 82.8679 252.273 82.602C252.273 82.3361 252.168 82.0811 251.98 81.8931C251.792 81.7051 251.537 81.5995 251.271 81.5995Z" fill="white"/>
</g>
<path d="M157.119 65.0053H160.544L162.308 68.3498C162.425 68.5679 162.598 68.7502 162.81 68.8773C163.022 69.0045 163.264 69.0717 163.511 69.0717C163.759 69.0717 164.001 69.0045 164.213 68.8773C164.425 68.7502 164.598 68.5679 164.715 68.3498L166.479 65.0053H169.904C170.229 65.0053 170.551 64.9412 170.851 64.8165C171.151 64.6919 171.424 64.5092 171.653 64.2789C171.883 64.0487 172.065 63.7754 172.188 63.4748C172.312 63.1742 172.375 62.8521 172.374 62.527V49.7666C172.374 49.1114 172.114 48.4831 171.65 48.0198C171.187 47.5565 170.559 47.2963 169.904 47.2963H157.119C156.795 47.2952 156.473 47.3584 156.173 47.4822C155.872 47.6059 155.6 47.7878 155.37 48.0174C155.14 48.247 154.959 48.5198 154.835 48.82C154.711 49.1202 154.648 49.4419 154.649 49.7666V62.5992C154.666 63.2432 154.933 63.8551 155.395 64.3046C155.856 64.7541 156.475 65.0055 157.119 65.0053Z" fill="#407BFF"/>
<path opacity="0.9" d="M163.52 51.1139L159.574 53.4318V60.1769H162.509V55.6534H164.538V60.1769H167.474V53.4318L163.52 51.1139Z" fill="white"/>
<path d="M195.537 248.504H192.49L190.525 244.766C190.427 244.585 190.282 244.434 190.106 244.329C189.929 244.223 189.728 244.168 189.522 244.168C189.316 244.168 189.115 244.223 188.938 244.329C188.762 244.434 188.617 244.585 188.519 244.766L186.554 248.504H183.426C182.68 248.504 181.964 248.8 181.436 249.328C180.908 249.856 180.611 250.572 180.611 251.319V263.43C180.611 264.176 180.908 264.892 181.436 265.42C181.964 265.948 182.68 266.245 183.426 266.245H195.537C196.284 266.245 197 265.948 197.528 265.42C198.056 264.892 198.352 264.176 198.352 263.43V251.319C198.352 250.572 198.056 249.856 197.528 249.328C197 248.8 196.284 248.504 195.537 248.504Z" fill="#407BFF"/>
<path opacity="0.9" d="M191.198 253.132C190.61 252.543 189.866 252.134 189.054 251.953C188.242 251.772 187.395 251.826 186.613 252.109C185.83 252.391 185.144 252.891 184.635 253.549C184.127 254.208 183.816 254.997 183.74 255.826C183.663 256.654 183.825 257.487 184.205 258.227C184.585 258.967 185.168 259.584 185.885 260.005C186.603 260.426 187.426 260.633 188.257 260.604C189.089 260.574 189.894 260.308 190.58 259.837C190.614 260.036 190.706 260.22 190.845 260.366L193.572 263.085C193.756 263.269 194.005 263.372 194.265 263.372C194.526 263.372 194.775 263.269 194.959 263.085C195.143 262.901 195.247 262.651 195.247 262.391C195.247 262.131 195.143 261.881 194.959 261.697L192.24 258.978C192.094 258.834 191.906 258.738 191.703 258.706C192.28 257.863 192.545 256.845 192.452 255.828C192.36 254.811 191.916 253.857 191.198 253.132ZM190.267 258.401C189.838 258.83 189.29 259.122 188.694 259.241C188.099 259.359 187.481 259.298 186.92 259.065C186.359 258.832 185.88 258.439 185.542 257.934C185.205 257.429 185.025 256.835 185.025 256.227C185.025 255.62 185.205 255.026 185.542 254.521C185.88 254.016 186.359 253.622 186.92 253.39C187.481 253.157 188.099 253.096 188.694 253.214C189.29 253.333 189.838 253.625 190.267 254.054C190.553 254.339 190.78 254.678 190.934 255.051C191.089 255.424 191.168 255.824 191.168 256.227C191.168 256.631 191.089 257.031 190.934 257.404C190.78 257.777 190.553 258.116 190.267 258.401Z" fill="white"/>
<path d="M325.059 167.851C325.059 167.851 318.522 184.052 312.122 185.8C305.722 187.549 296.081 186.129 296.081 186.129L293.097 186.931L290.17 186.498H290.066L286.769 186.418C286.65 186.428 286.531 186.404 286.426 186.348C286.32 186.292 286.233 186.208 286.174 186.104C286.115 186 286.087 185.882 286.093 185.763C286.099 185.644 286.139 185.529 286.208 185.432L287.387 183.827C287.486 183.696 287.623 183.598 287.78 183.547L290.924 182.536C291.048 182.508 291.177 182.508 291.301 182.536L296.113 183.298C296.113 183.298 309.467 181.109 310.831 179.873C312.194 178.638 316.212 165.685 316.212 165.685L325.059 167.851Z" fill="#EEC1BB"/>
<path opacity="0.1" d="M296.41 183.194L296.097 183.242L291.285 182.48C291.161 182.452 291.032 182.452 290.908 182.48L287.764 183.491C287.607 183.542 287.47 183.64 287.371 183.771L286.192 185.375C286.123 185.472 286.083 185.587 286.076 185.707C286.07 185.826 286.099 185.944 286.158 186.048C286.217 186.152 286.304 186.236 286.41 186.292C286.515 186.347 286.634 186.372 286.753 186.362L290.05 186.442H290.154L292.119 186.731C293.795 185.886 295.261 184.678 296.41 183.194Z" fill="black"/>
<path d="M329.005 151.802C324.257 150.246 317.576 153.815 315.017 168.765L324.874 171.676C324.874 171.676 335.79 154.031 329.005 151.802Z" fill="#407BFF"/>
<path d="M301.382 132.264C301.382 132.761 301.647 133.154 301.968 133.154C302.289 133.154 302.569 132.729 302.545 132.248C302.521 131.767 302.281 131.366 301.96 131.374C301.639 131.382 301.382 131.775 301.382 132.264Z" fill="#263238"/>
<path d="M303.323 132.753L300.989 136.611C300.989 136.611 301.791 137.526 303.548 136.852L303.323 132.753Z" fill="#D4827D"/>
<path d="M303.765 129.168C303.736 129.201 303.7 129.225 303.659 129.239C303.618 129.253 303.574 129.257 303.532 129.249C303.216 129.194 302.892 129.216 302.587 129.313C302.281 129.409 302.003 129.577 301.776 129.802C301.727 129.848 301.662 129.873 301.595 129.873C301.528 129.873 301.464 129.848 301.415 129.802C301.368 129.752 301.343 129.686 301.343 129.618C301.343 129.549 301.368 129.483 301.415 129.433C301.698 129.143 302.047 128.927 302.433 128.802C302.819 128.678 303.229 128.649 303.628 128.719C303.662 128.723 303.695 128.734 303.724 128.751C303.754 128.767 303.78 128.79 303.801 128.817C303.822 128.843 303.837 128.874 303.846 128.907C303.855 128.94 303.857 128.974 303.853 129.008C303.841 129.069 303.81 129.125 303.765 129.168Z" fill="#263238"/>
<path d="M320.254 128.767C320.615 135.288 320.912 138.047 318.033 141.752C313.437 145.722 305.609 146.356 303.299 140.076C301.222 134.462 300.981 124.733 307.013 121.372C308.036 120.802 309.161 120.44 310.324 120.305C311.488 120.17 312.666 120.266 313.793 120.587C314.919 120.908 315.971 121.448 316.888 122.176C317.806 122.904 318.571 123.805 319.139 124.829C319.807 126.04 320.188 127.387 320.254 128.767Z" fill="#EEC1BB"/>
<path d="M311.167 143.036L312.82 152.692L320.872 150.831L318.057 140.974L311.167 143.036Z" fill="#EEC1BB"/>
<path d="M305.369 129.248C305.778 125.014 304.318 129.906 302.361 124.316C300.404 118.726 309.652 114.186 311.127 115.229C312.603 116.271 311.761 117.868 316.653 118.774C317.988 118.986 319.2 119.677 320.062 120.718C320.924 121.758 321.377 123.077 321.337 124.428C321.337 124.428 324.152 125.728 323.15 131.775C322.414 135.65 320.764 139.293 318.338 142.402C318.338 142.402 316.485 140.493 313.525 142.25C312.37 141.496 311.393 140.499 310.662 139.33C309.347 137.357 308.938 135.48 307.133 135.32C303.364 134.975 305.232 130.644 305.369 129.248Z" fill="#263238"/>
<path d="M320.815 125.158C320.815 125.158 324.826 122.704 323.045 120.129C321.265 117.555 322.123 122.969 320.815 125.158Z" fill="#263238"/>
<path d="M306.516 131.711C305.626 132.705 305.168 134.012 305.24 135.344C305.353 137.109 307.085 137.421 308.449 136.459C309.812 135.496 311.103 133.62 310.317 132.072C310.143 131.734 309.887 131.445 309.572 131.233C309.257 131.02 308.893 130.889 308.515 130.853C308.137 130.817 307.755 130.877 307.406 131.027C307.057 131.177 306.751 131.412 306.516 131.711Z" fill="#FFC3BD"/>
<path opacity="0.1" d="M311.32 143.95L311.978 147.784C311.92 146.834 312.05 145.883 312.361 144.984C312.672 144.085 313.158 143.257 313.79 142.546C313.299 142.578 312.821 142.72 312.393 142.964C311.965 143.207 311.598 143.544 311.32 143.95Z" fill="black"/>
<path d="M254.704 168.877H252.402V182.456H254.704V168.877Z" fill="#407BFF"/>
<path opacity="0.7" d="M254.704 168.877H252.402V182.456H254.704V168.877Z" fill="white"/>
<path d="M238.888 141.913H233.153C232.121 141.913 231.132 142.323 230.403 143.052C229.673 143.782 229.263 144.771 229.263 145.803V172.374C229.263 172.885 229.364 173.391 229.559 173.863C229.755 174.335 230.041 174.764 230.403 175.125C230.764 175.486 231.193 175.772 231.664 175.968C232.136 176.163 232.642 176.264 233.153 176.264H238.888V141.913Z" fill="#407BFF"/>
<path d="M273.961 141.913H235.158C233.01 141.913 231.268 143.654 231.268 145.803V172.366C231.268 174.514 233.01 176.256 235.158 176.256H273.961C276.109 176.256 277.85 174.514 277.85 172.366V145.803C277.85 143.654 276.109 141.913 273.961 141.913Z" fill="#407BFF"/>
<path opacity="0.5" d="M273.961 141.913H235.158C233.01 141.913 231.268 143.654 231.268 145.803V172.366C231.268 174.514 233.01 176.256 235.158 176.256H273.961C276.109 176.256 277.85 174.514 277.85 172.366V145.803C277.85 143.654 276.109 141.913 273.961 141.913Z" fill="white"/>
<path d="M273.961 143.517H235.158C233.895 143.517 232.872 144.54 232.872 145.803V172.366C232.872 173.628 233.895 174.652 235.158 174.652H273.961C275.223 174.652 276.246 173.628 276.246 172.366V145.803C276.246 144.54 275.223 143.517 273.961 143.517Z" fill="#263238"/>
<path d="M245.176 188.15C245.243 185.973 246.155 183.908 247.719 182.392C249.283 180.876 251.375 180.028 253.553 180.028C255.731 180.028 257.823 180.876 259.387 182.392C260.951 183.908 261.863 185.973 261.93 188.15H245.176Z" fill="#407BFF"/>
<path d="M264.946 185.287H248.191V188.014H281.7V186.891L264.946 185.287Z" fill="#407BFF"/>
<path opacity="0.8" d="M264.946 185.287H248.191V188.014H281.7V186.891L264.946 185.287Z" fill="white"/>
<path d="M264.946 188.014H248.191V185.287L264.946 186.891V188.014Z" fill="#407BFF"/>
<path opacity="0.6" d="M264.946 188.014H248.191V185.287L264.946 186.891V188.014Z" fill="white"/>
<path d="M301.888 281.62H267.328C266.639 281.621 265.956 281.486 265.318 281.223C264.681 280.96 264.102 280.574 263.614 280.086C263.126 279.599 262.739 279.021 262.475 278.384C262.211 277.747 262.075 277.064 262.075 276.374V196.908C262.075 196.219 262.211 195.536 262.475 194.899C262.739 194.262 263.126 193.684 263.614 193.197C264.102 192.709 264.681 192.323 265.318 192.06C265.956 191.797 266.639 191.662 267.328 191.663H301.888C302.26 191.663 302.617 191.811 302.88 192.074C303.144 192.337 303.291 192.694 303.291 193.067C303.291 193.439 303.144 193.796 302.88 194.059C302.617 194.322 302.26 194.47 301.888 194.47H267.328C267.009 194.465 266.692 194.523 266.395 194.642C266.098 194.76 265.828 194.937 265.601 195.161C265.373 195.385 265.192 195.652 265.069 195.946C264.945 196.241 264.882 196.557 264.882 196.876V276.342C264.882 276.662 264.945 276.978 265.069 277.273C265.192 277.567 265.373 277.834 265.601 278.058C265.828 278.282 266.098 278.458 266.395 278.577C266.692 278.696 267.009 278.754 267.328 278.749H301.888C302.26 278.749 302.617 278.896 302.88 279.16C303.144 279.423 303.291 279.78 303.291 280.152C303.3 280.342 303.27 280.531 303.204 280.709C303.137 280.887 303.035 281.049 302.904 281.186C302.773 281.324 302.615 281.433 302.44 281.507C302.266 281.582 302.078 281.62 301.888 281.62Z" fill="#263238"/>
<g opacity="0.5">
<path d="M301.888 281.62H267.328C266.639 281.621 265.956 281.486 265.318 281.223C264.681 280.96 264.102 280.574 263.614 280.086C263.126 279.599 262.739 279.021 262.475 278.384C262.211 277.747 262.075 277.064 262.075 276.374V196.908C262.075 196.219 262.211 195.536 262.475 194.899C262.739 194.262 263.126 193.684 263.614 193.197C264.102 192.709 264.681 192.323 265.318 192.06C265.956 191.797 266.639 191.662 267.328 191.663H301.888C302.26 191.663 302.617 191.811 302.88 192.074C303.144 192.337 303.291 192.694 303.291 193.067C303.291 193.439 303.144 193.796 302.88 194.059C302.617 194.322 302.26 194.47 301.888 194.47H267.328C267.009 194.465 266.692 194.523 266.395 194.642C266.098 194.76 265.828 194.937 265.601 195.161C265.373 195.385 265.192 195.652 265.069 195.946C264.945 196.241 264.882 196.557 264.882 196.876V276.342C264.882 276.662 264.945 276.978 265.069 277.273C265.192 277.567 265.373 277.834 265.601 278.058C265.828 278.282 266.098 278.458 266.395 278.577C266.692 278.696 267.009 278.754 267.328 278.749H301.888C302.26 278.749 302.617 278.896 302.88 279.16C303.144 279.423 303.291 279.78 303.291 280.152C303.3 280.342 303.27 280.531 303.204 280.709C303.137 280.887 303.035 281.049 302.904 281.186C302.773 281.324 302.615 281.433 302.44 281.507C302.266 281.582 302.078 281.62 301.888 281.62Z" fill="white"/>
</g>
<path d="M267.192 188.014H218.115V192.128H267.192V188.014Z" fill="#407BFF"/>
<path opacity="0.2" d="M267.192 188.014H218.115V192.128H267.192V188.014Z" fill="white"/>
<path d="M306.804 188.014H264.946V192.128H306.804V188.014Z" fill="#407BFF"/>
<path opacity="0.5" d="M306.804 188.014H264.946V192.128H306.804V188.014Z" fill="white"/>
<path d="M292.127 252.466L294.445 275.893H288.895L283.336 253.075L292.127 252.466Z" fill="#EEC1BB"/>
<path d="M288.373 274.337L295.455 274.458C295.585 274.461 295.709 274.508 295.808 274.591C295.907 274.674 295.975 274.788 296.001 274.915L297.188 280.698C297.238 280.943 297.189 281.198 297.053 281.409C296.916 281.619 296.703 281.767 296.458 281.82H296.257C293.699 281.732 291.445 281.556 288.237 281.5C284.492 281.435 285.43 281.901 281.019 281.893C278.364 281.893 277.931 278.853 279.054 278.725C284.227 278.163 284.788 276.615 286.809 274.803C287.256 274.461 287.813 274.296 288.373 274.337Z" fill="#263238"/>
<path opacity="0.1" d="M293.843 269.782L292.127 252.466L283.336 253.075L287.403 269.782H293.843Z" fill="black"/>
<path d="M330.128 198.432L307.366 199.234C307.366 199.234 276.704 209.958 275.902 218.195C275.02 226.68 285.318 265.667 285.318 265.667H294.469C294.469 265.667 291.943 237.059 290.98 228.3C290.018 219.542 322.893 222.437 328.604 214.97C333.825 208.121 330.128 198.432 330.128 198.432Z" fill="#263238"/>
<path opacity="0.2" d="M330.128 198.432L307.366 199.234C307.366 199.234 276.704 209.958 275.902 218.195C275.02 226.68 285.318 265.667 285.318 265.667H294.469C294.469 265.667 291.943 237.059 290.98 228.3C290.018 219.542 322.893 222.437 328.604 214.97C333.825 208.121 330.128 198.432 330.128 198.432Z" fill="black"/>
<path d="M295.993 264.384L296.193 267.616H284.885L283.778 264.384H295.993Z" fill="#407BFF"/>
<path d="M270.945 253.581L271.554 275.893H266.1L262.868 253.581H270.945Z" fill="#EEC1BB"/>
<path d="M265.347 274.337L272.429 274.458C272.558 274.461 272.682 274.507 272.781 274.591C272.881 274.674 272.948 274.788 272.974 274.915L274.161 280.698C274.211 280.943 274.163 281.198 274.026 281.408C273.89 281.619 273.676 281.766 273.431 281.82H273.231C270.672 281.732 268.418 281.556 265.21 281.5C261.457 281.435 262.403 281.901 257.992 281.893C255.337 281.893 254.904 278.853 256.027 278.725C261.2 278.163 261.761 276.615 263.783 274.803C264.229 274.46 264.786 274.294 265.347 274.337Z" fill="#263238"/>
<path opacity="0.1" d="M271.386 269.766L270.945 253.581H262.868L265.218 269.782C266.975 269.79 269.389 269.774 271.386 269.766Z" fill="black"/>
<path d="M320.23 200.317C320.23 200.317 322.123 217.625 304.518 218.435C286.914 219.245 273.167 221.258 272.766 227.522C272.365 233.786 272.766 265.699 272.766 265.699H263.197C263.197 265.699 259.476 245.52 258.024 233.008C256.613 220.857 254.014 212.043 266.502 207.929C279.759 203.549 303.323 199.507 303.323 199.507L320.294 198.432L320.23 200.317Z" fill="#263238"/>
<path d="M274.177 264.384L273.575 267.616H263.069L261.962 264.384H274.177Z" fill="#407BFF"/>
<path d="M324.024 150.663C324.024 150.663 324.024 146.765 316.14 147.214C307.767 147.695 309.347 151.433 309.347 151.433L324.024 150.663Z" fill="#407BFF"/>
<path opacity="0.3" d="M324.024 150.663C324.024 150.663 324.024 146.765 316.14 147.214C307.767 147.695 309.347 151.433 309.347 151.433L324.024 150.663Z" fill="black"/>
<path d="M331.371 168.147C330.841 175.855 331.026 199.042 331.026 199.042C331.026 199.042 314.183 200.149 300.965 199.716L299.434 155.114C299.439 154.326 299.683 153.557 300.132 152.909C300.581 152.261 301.216 151.763 301.952 151.481C305.69 150.029 314.464 148.385 328.187 150.19C332.919 150.823 331.996 159.036 331.371 168.147Z" fill="#407BFF"/>
<path d="M302.136 167.851C302.136 167.851 295.592 184.052 289.199 185.8C282.807 187.549 273.159 186.129 273.159 186.129L270.175 186.931L267.256 186.498H267.151L263.847 186.418C263.728 186.428 263.609 186.404 263.503 186.348C263.398 186.292 263.31 186.208 263.251 186.104C263.192 186 263.164 185.882 263.17 185.763C263.176 185.644 263.216 185.529 263.286 185.432L264.473 183.827C264.572 183.696 264.709 183.598 264.866 183.547L268.002 182.536C268.128 182.508 268.26 182.508 268.387 182.536L273.199 183.298C273.199 183.298 286.553 181.109 287.908 179.873C289.264 178.638 293.298 165.685 293.298 165.685L302.136 167.851Z" fill="#EEC1BB"/>
<path opacity="0.1" d="M301.968 160.312C301.968 160.312 300.949 161.523 299.714 163.271L300.155 176.184C305.072 174.01 307.021 161.354 307.021 161.354L303.813 159.093L301.968 160.312Z" fill="black"/>
<path d="M306.083 151.802C301.334 150.246 294.645 153.815 292.087 168.765L301.952 171.644C301.952 171.644 312.868 154.031 306.083 151.802Z" fill="#407BFF"/>
<path d="M312.362 226.833H304.943V248.576H312.362V226.833Z" fill="#263238"/>
<path opacity="0.6" d="M312.362 226.833H304.943V248.576H312.362V226.833Z" fill="white"/>
<path d="M313.509 268.274V240.644H303.788V268.274L281.66 271.346V274.418L308.649 272.116L335.637 274.418V271.346L313.509 268.274Z" fill="#263238"/>
<path d="M281.34 281.949C282.956 281.949 284.267 280.638 284.267 279.021C284.267 277.404 282.956 276.094 281.34 276.094C279.723 276.094 278.412 277.404 278.412 279.021C278.412 280.638 279.723 281.949 281.34 281.949Z" fill="#407BFF"/>
<path d="M335.637 281.949C337.254 281.949 338.565 280.638 338.565 279.021C338.565 277.404 337.254 276.094 335.637 276.094C334.021 276.094 332.71 277.404 332.71 279.021C332.71 280.638 334.021 281.949 335.637 281.949Z" fill="#407BFF"/>
<path d="M308.649 281.949C310.265 281.949 311.576 280.638 311.576 279.021C311.576 277.404 310.265 276.094 308.649 276.094C307.032 276.094 305.721 277.404 305.721 279.021C305.721 280.638 307.032 281.949 308.649 281.949Z" fill="#407BFF"/>
<path opacity="0.3" d="M312.362 226.833H304.943V232.206H312.362V226.833Z" fill="black"/>
<path d="M337.979 177.547H313.806C311.905 177.549 310.074 178.259 308.669 179.539C307.265 180.819 306.388 182.577 306.21 184.469L304.173 206.308C303.947 208.715 302.862 210.96 301.117 212.633C299.372 214.306 297.083 215.295 294.669 215.42L271.338 216.591C269.972 216.661 268.686 217.252 267.744 218.243C266.802 219.234 266.277 220.549 266.277 221.916V222.405C266.277 223.577 266.742 224.702 267.571 225.53C268.4 226.359 269.524 226.825 270.696 226.825H341.749L345.574 185.921C345.677 184.861 345.558 183.792 345.223 182.781C344.888 181.771 344.345 180.841 343.63 180.053C342.915 179.264 342.043 178.634 341.07 178.203C340.096 177.771 339.044 177.548 337.979 177.547Z" fill="#407BFF"/>
<path opacity="0.3" d="M337.979 177.547H313.806C311.905 177.549 310.074 178.259 308.669 179.539C307.265 180.819 306.388 182.577 306.21 184.469L304.173 206.308C303.947 208.715 302.862 210.96 301.117 212.633C299.372 214.306 297.083 215.295 294.669 215.42L271.338 216.591C269.972 216.661 268.686 217.252 267.744 218.243C266.802 219.234 266.277 220.549 266.277 221.916V222.405C266.277 223.577 266.742 224.702 267.571 225.53C268.4 226.359 269.524 226.825 270.696 226.825H341.749L345.574 185.921C345.677 184.861 345.558 183.792 345.223 182.781C344.888 181.771 344.345 180.841 343.63 180.053C342.915 179.264 342.043 178.634 341.07 178.203C340.096 177.771 339.044 177.548 337.979 177.547Z" fill="white"/>
<path d="M282.495 202.186H285.823V219.598C285.823 220.024 285.654 220.432 285.353 220.733C285.052 221.033 284.644 221.202 284.219 221.202H284.099C283.673 221.202 283.265 221.033 282.964 220.733C282.664 220.432 282.495 220.024 282.495 219.598V202.186Z" fill="#263238"/>
<path opacity="0.2" d="M282.495 202.186H285.823V219.598C285.823 220.024 285.654 220.432 285.353 220.733C285.052 221.033 284.644 221.202 284.219 221.202H284.099C283.673 221.202 283.265 221.033 282.964 220.733C282.664 220.432 282.495 220.024 282.495 219.598V202.186Z" fill="white"/>
<path d="M298.543 197.157H291.14V203.293H298.559C298.975 203.314 299.391 203.25 299.782 203.106C300.173 202.961 300.53 202.739 300.832 202.452C301.134 202.165 301.374 201.819 301.539 201.437C301.703 201.054 301.788 200.642 301.788 200.225C301.788 199.808 301.703 199.396 301.539 199.013C301.374 198.63 301.134 198.285 300.832 197.998C300.53 197.711 300.173 197.489 299.782 197.344C299.391 197.199 298.975 197.136 298.559 197.157H298.543Z" fill="#407BFF"/>
<path opacity="0.5" d="M298.543 197.157H291.14V203.293H298.559C298.975 203.314 299.391 203.25 299.782 203.106C300.173 202.961 300.53 202.739 300.832 202.452C301.134 202.165 301.374 201.819 301.539 201.437C301.703 201.054 301.788 200.642 301.788 200.225C301.788 199.808 301.703 199.396 301.539 199.013C301.374 198.63 301.134 198.285 300.832 197.998C300.53 197.711 300.173 197.489 299.782 197.344C299.391 197.199 298.975 197.136 298.559 197.157H298.543Z" fill="white"/>
<path d="M295.583 197.157H269.653C268.019 197.157 266.694 198.482 266.694 200.117V200.341C266.694 201.976 268.019 203.301 269.653 203.301H295.583C297.218 203.301 298.543 201.976 298.543 200.341V200.117C298.543 198.482 297.218 197.157 295.583 197.157Z" fill="#407BFF"/>
<path opacity="0.3" d="M295.583 197.157H269.653C268.019 197.157 266.694 198.482 266.694 200.117V200.341C266.694 201.976 268.019 203.301 269.653 203.301H295.583C297.218 203.301 298.543 201.976 298.543 200.341V200.117C298.543 198.482 297.218 197.157 295.583 197.157Z" fill="white"/>
<path d="M343.417 226.833H307.879L311.841 184.509C312.019 182.617 312.895 180.859 314.3 179.579C315.705 178.299 317.536 177.589 319.436 177.587H343.61C344.671 177.588 345.721 177.811 346.692 178.24C347.663 178.67 348.533 179.297 349.248 180.082C349.963 180.867 350.506 181.792 350.843 182.799C351.18 183.806 351.303 184.872 351.205 185.929L347.748 222.935C347.635 224.005 347.13 224.995 346.331 225.715C345.531 226.434 344.493 226.833 343.417 226.833Z" fill="#407BFF"/>
<path opacity="0.5" d="M343.417 226.833H307.879L311.841 184.509C312.019 182.617 312.895 180.859 314.3 179.579C315.705 178.299 317.536 177.589 319.436 177.587H343.61C344.671 177.588 345.721 177.811 346.692 178.24C347.663 178.67 348.533 179.297 349.248 180.082C349.963 180.867 350.506 181.792 350.843 182.799C351.18 183.806 351.303 184.872 351.205 185.929L347.748 222.935C347.635 224.005 347.13 224.995 346.331 225.715C345.531 226.434 344.493 226.833 343.417 226.833Z" fill="white"/>
<path d="M260.398 281.62H225.838C225.149 281.621 224.466 281.486 223.829 281.223C223.191 280.96 222.612 280.574 222.124 280.086C221.636 279.599 221.249 279.021 220.985 278.384C220.721 277.747 220.585 277.064 220.585 276.374V196.908C220.585 196.219 220.721 195.536 220.985 194.899C221.249 194.262 221.636 193.684 222.124 193.197C222.612 192.709 223.191 192.323 223.829 192.06C224.466 191.797 225.149 191.662 225.838 191.663H260.398C260.77 191.663 261.127 191.811 261.391 192.074C261.654 192.337 261.802 192.694 261.802 193.067C261.802 193.439 261.654 193.796 261.391 194.059C261.127 194.322 260.77 194.47 260.398 194.47H225.838C225.519 194.465 225.202 194.523 224.905 194.642C224.609 194.76 224.339 194.937 224.111 195.161C223.883 195.385 223.702 195.652 223.579 195.946C223.456 196.241 223.392 196.557 223.392 196.876V276.342C223.392 276.662 223.456 276.978 223.579 277.273C223.702 277.567 223.883 277.834 224.111 278.058C224.339 278.282 224.609 278.458 224.905 278.577C225.202 278.696 225.519 278.754 225.838 278.749H260.398C260.77 278.749 261.127 278.896 261.391 279.16C261.654 279.423 261.802 279.78 261.802 280.152C261.81 280.342 261.781 280.531 261.714 280.709C261.647 280.887 261.545 281.049 261.414 281.186C261.283 281.324 261.125 281.433 260.951 281.507C260.776 281.582 260.588 281.62 260.398 281.62Z" fill="#263238"/>
<g opacity="0.5">
<path d="M260.398 281.62H225.838C225.149 281.621 224.466 281.486 223.829 281.223C223.191 280.96 222.612 280.574 222.124 280.086C221.636 279.599 221.249 279.021 220.985 278.384C220.721 277.747 220.585 277.064 220.585 276.374V196.908C220.585 196.219 220.721 195.536 220.985 194.899C221.249 194.262 221.636 193.684 222.124 193.197C222.612 192.709 223.191 192.323 223.829 192.06C224.466 191.797 225.149 191.662 225.838 191.663H260.398C260.77 191.663 261.127 191.811 261.391 192.074C261.654 192.337 261.802 192.694 261.802 193.067C261.802 193.439 261.654 193.796 261.391 194.059C261.127 194.322 260.77 194.47 260.398 194.47H225.838C225.519 194.465 225.202 194.523 224.905 194.642C224.609 194.76 224.339 194.937 224.111 195.161C223.883 195.385 223.702 195.652 223.579 195.946C223.456 196.241 223.392 196.557 223.392 196.876V276.342C223.392 276.662 223.456 276.978 223.579 277.273C223.702 277.567 223.883 277.834 224.111 278.058C224.339 278.282 224.609 278.458 224.905 278.577C225.202 278.696 225.519 278.754 225.838 278.749H260.398C260.77 278.749 261.127 278.896 261.391 279.16C261.654 279.423 261.802 279.78 261.802 280.152C261.81 280.342 261.781 280.531 261.714 280.709C261.647 280.887 261.545 281.049 261.414 281.186C261.283 281.324 261.125 281.433 260.951 281.507C260.776 281.582 260.588 281.62 260.398 281.62Z" fill="white"/>
</g>
<path d="M237.556 149.853L235.15 148.249C235.089 148.21 235.038 148.156 235.003 148.092C234.969 148.028 234.95 147.957 234.95 147.884C234.95 147.811 234.969 147.74 235.003 147.676C235.038 147.612 235.089 147.558 235.15 147.519L237.556 145.915C237.645 145.857 237.752 145.836 237.856 145.857C237.96 145.878 238.051 145.939 238.11 146.027C238.165 146.115 238.184 146.221 238.164 146.323C238.143 146.424 238.083 146.514 237.997 146.573L236 147.896L237.997 149.219C238.083 149.278 238.143 149.368 238.164 149.469C238.184 149.571 238.165 149.677 238.11 149.765C238.046 149.847 237.953 149.902 237.85 149.918C237.748 149.935 237.642 149.911 237.556 149.853Z" fill="white"/>
<path d="M242.882 149.741C242.834 149.653 242.821 149.55 242.847 149.453C242.872 149.356 242.933 149.272 243.018 149.219L245.015 147.896L243.018 146.549C242.932 146.49 242.873 146.4 242.853 146.297C242.834 146.195 242.856 146.089 242.914 146.003C242.942 145.96 242.979 145.923 243.022 145.894C243.065 145.865 243.113 145.844 243.163 145.834C243.214 145.823 243.266 145.823 243.317 145.833C243.368 145.843 243.416 145.862 243.459 145.891L245.866 147.495C245.927 147.534 245.977 147.588 246.012 147.652C246.047 147.716 246.065 147.787 246.065 147.86C246.065 147.933 246.047 148.004 246.012 148.068C245.977 148.132 245.927 148.186 245.866 148.225L243.459 149.829C243.416 149.863 243.367 149.887 243.314 149.901C243.261 149.915 243.206 149.918 243.152 149.91C243.098 149.901 243.046 149.882 242.999 149.853C242.953 149.824 242.913 149.786 242.882 149.741Z" fill="white"/>
<path d="M239.585 150.823C239.535 150.808 239.489 150.783 239.449 150.749C239.41 150.716 239.377 150.675 239.353 150.628C239.329 150.582 239.315 150.532 239.31 150.48C239.306 150.428 239.312 150.376 239.329 150.326L240.989 145.081C241.003 145.031 241.028 144.985 241.06 144.946C241.093 144.906 241.133 144.873 241.179 144.849C241.225 144.825 241.275 144.811 241.326 144.806C241.377 144.802 241.429 144.808 241.478 144.824C241.527 144.839 241.573 144.863 241.613 144.896C241.653 144.928 241.686 144.969 241.71 145.014C241.734 145.06 241.748 145.11 241.752 145.161C241.757 145.213 241.751 145.264 241.735 145.313L240.082 150.567C240.067 150.616 240.042 150.663 240.008 150.702C239.975 150.742 239.934 150.775 239.887 150.799C239.841 150.823 239.791 150.837 239.739 150.842C239.687 150.846 239.635 150.84 239.585 150.823Z" fill="white"/>
<path d="M253.204 154.834H235.342C235.288 154.834 235.234 154.823 235.184 154.802C235.134 154.781 235.088 154.75 235.05 154.711C235.012 154.672 234.982 154.626 234.962 154.576C234.942 154.525 234.932 154.471 234.933 154.417C234.932 154.362 234.942 154.308 234.962 154.258C234.982 154.207 235.012 154.161 235.05 154.122C235.088 154.083 235.134 154.052 235.184 154.031C235.234 154.01 235.288 154 235.342 154H253.204C253.314 154 253.42 154.043 253.499 154.122C253.577 154.2 253.621 154.306 253.621 154.417C253.621 154.471 253.61 154.526 253.589 154.576C253.568 154.627 253.537 154.673 253.499 154.711C253.46 154.75 253.414 154.781 253.363 154.802C253.313 154.823 253.258 154.834 253.204 154.834Z" fill="white"/>
<path d="M273.72 154.834H255.851C255.796 154.834 255.742 154.823 255.691 154.802C255.64 154.781 255.594 154.75 255.556 154.711C255.517 154.673 255.486 154.627 255.465 154.576C255.444 154.525 255.434 154.471 255.434 154.416C255.442 154.312 255.489 154.213 255.567 154.142C255.644 154.071 255.745 154.031 255.851 154.031H273.704C273.815 154.031 273.921 154.075 273.999 154.154C274.077 154.232 274.121 154.338 274.121 154.449C274.113 154.551 274.068 154.647 273.994 154.718C273.92 154.789 273.823 154.83 273.72 154.834Z" fill="white"/>
<path d="M245.552 158.507H235.342C235.288 158.507 235.234 158.496 235.184 158.475C235.134 158.454 235.088 158.423 235.05 158.384C235.012 158.346 234.982 158.299 234.962 158.249C234.942 158.198 234.932 158.144 234.933 158.09C234.933 157.981 234.976 157.877 235.053 157.801C235.13 157.724 235.234 157.681 235.342 157.681H245.552C245.661 157.681 245.766 157.724 245.844 157.8C245.922 157.877 245.967 157.981 245.969 158.09C245.969 158.201 245.925 158.307 245.847 158.385C245.769 158.463 245.663 158.507 245.552 158.507Z" fill="white"/>
<path d="M264.93 158.507H248.207C248.153 158.507 248.099 158.496 248.049 158.475C247.998 158.454 247.953 158.423 247.915 158.384C247.877 158.346 247.847 158.299 247.827 158.249C247.807 158.198 247.797 158.144 247.798 158.09C247.798 157.981 247.841 157.877 247.918 157.801C247.994 157.724 248.098 157.681 248.207 157.681H264.93C265.038 157.681 265.142 157.724 265.219 157.801C265.295 157.877 265.339 157.981 265.339 158.09C265.34 158.144 265.33 158.198 265.31 158.249C265.29 158.299 265.26 158.346 265.222 158.384C265.184 158.423 265.138 158.454 265.088 158.475C265.038 158.496 264.984 158.507 264.93 158.507Z" fill="white"/>
<path d="M262.547 162.188H235.342C235.233 162.186 235.129 162.141 235.052 162.063C234.976 161.985 234.933 161.88 234.933 161.771C234.932 161.717 234.942 161.663 234.962 161.612C234.982 161.562 235.012 161.515 235.05 161.477C235.088 161.438 235.134 161.407 235.184 161.386C235.234 161.365 235.288 161.354 235.342 161.354H262.547C262.658 161.354 262.764 161.398 262.842 161.476C262.92 161.554 262.964 161.66 262.964 161.771C262.964 161.882 262.92 161.988 262.842 162.066C262.764 162.144 262.658 162.188 262.547 162.188Z" fill="white"/>
<path d="M270.889 162.188H265.211C265.1 162.188 264.994 162.144 264.916 162.066C264.837 161.988 264.793 161.882 264.793 161.771C264.793 161.66 264.837 161.554 264.916 161.476C264.994 161.398 265.1 161.354 265.211 161.354H270.889C271 161.354 271.106 161.398 271.184 161.476C271.262 161.554 271.306 161.66 271.306 161.771C271.306 161.882 271.262 161.988 271.184 162.066C271.106 162.144 271 162.188 270.889 162.188Z" fill="white"/>
<path d="M248.047 165.862H235.342C235.288 165.862 235.234 165.851 235.184 165.83C235.134 165.809 235.088 165.778 235.05 165.739C235.012 165.7 234.982 165.654 234.962 165.604C234.942 165.553 234.932 165.499 234.933 165.445C234.932 165.39 234.942 165.336 234.962 165.286C234.982 165.235 235.012 165.189 235.05 165.15C235.088 165.111 235.134 165.081 235.184 165.059C235.234 165.038 235.288 165.028 235.342 165.028H248.047C248.157 165.028 248.263 165.072 248.341 165.15C248.42 165.228 248.464 165.334 248.464 165.445C248.464 165.555 248.42 165.661 248.341 165.74C248.263 165.818 248.157 165.862 248.047 165.862Z" fill="white"/>
<path d="M266.518 165.862H250.71C250.599 165.862 250.493 165.818 250.415 165.74C250.336 165.661 250.292 165.555 250.292 165.445C250.292 165.334 250.336 165.228 250.415 165.15C250.493 165.072 250.599 165.028 250.71 165.028H266.518C266.628 165.028 266.734 165.072 266.813 165.15C266.891 165.228 266.935 165.334 266.935 165.445C266.935 165.555 266.891 165.661 266.813 165.74C266.734 165.818 266.628 165.862 266.518 165.862Z" fill="white"/>
<path d="M253.204 169.535H235.342C235.288 169.535 235.234 169.524 235.184 169.503C235.134 169.482 235.088 169.451 235.05 169.412C235.012 169.373 234.982 169.327 234.962 169.277C234.942 169.226 234.932 169.172 234.933 169.118C234.933 169.009 234.976 168.905 235.053 168.829C235.13 168.752 235.234 168.709 235.342 168.709H253.204C253.258 168.708 253.312 168.718 253.363 168.738C253.413 168.758 253.459 168.788 253.498 168.826C253.537 168.864 253.568 168.909 253.589 168.959C253.61 169.01 253.621 169.063 253.621 169.118C253.621 169.228 253.577 169.335 253.499 169.413C253.42 169.491 253.314 169.535 253.204 169.535Z" fill="white"/>
<path d="M268.467 169.535H255.851C255.74 169.535 255.634 169.491 255.556 169.413C255.478 169.335 255.434 169.228 255.434 169.118C255.434 169.063 255.444 169.01 255.465 168.959C255.487 168.909 255.517 168.864 255.556 168.826C255.595 168.788 255.641 168.758 255.692 168.738C255.742 168.718 255.796 168.708 255.851 168.709H268.451C268.559 168.709 268.663 168.752 268.74 168.829C268.817 168.905 268.86 169.009 268.86 169.118C268.862 169.225 268.822 169.329 268.748 169.407C268.675 169.485 268.574 169.531 268.467 169.535Z" fill="white"/>
<path d="M113.464 97.7445C113.793 101.522 112.975 108.364 110.128 110.577C114.772 112.253 119.696 115.141 122.84 118.95C125.96 114.411 122.415 111.82 122.415 111.82C118.405 110.393 118.83 107.353 119.865 104.554L113.464 97.7445Z" fill="#B97964"/>
<path d="M128.647 94.4882C128.599 94.9614 128.824 95.3705 129.136 95.4026C129.449 95.4346 129.73 95.0657 129.778 94.6005C129.826 94.1353 129.602 93.7183 129.289 93.6862C128.976 93.6541 128.703 94.015 128.647 94.4882Z" fill="#263238"/>
<path d="M129.168 93.6942L130.331 93.4696C130.331 93.4696 129.666 94.3278 129.168 93.6942Z" fill="#263238"/>
<path d="M128.807 94.9935C129.135 96.1216 129.612 97.2007 130.227 98.2017C129.967 98.3521 129.678 98.4443 129.378 98.472C129.079 98.4997 128.778 98.4622 128.495 98.3621L128.807 94.9935Z" fill="#A24E3F"/>
<path d="M129.995 91.9938C130.069 91.9821 130.137 91.9453 130.187 91.8896C130.237 91.8362 130.264 91.766 130.264 91.6931C130.264 91.6202 130.237 91.55 130.187 91.4966C129.857 91.1955 129.46 90.9779 129.029 90.862C128.598 90.7462 128.145 90.7355 127.709 90.8309C127.647 90.8733 127.604 90.9373 127.588 91.0101C127.571 91.083 127.583 91.1593 127.621 91.2239C127.645 91.2651 127.681 91.2988 127.723 91.3214C127.765 91.344 127.813 91.3547 127.861 91.3522C128.208 91.2859 128.565 91.3014 128.905 91.3975C129.245 91.4935 129.557 91.6675 129.818 91.9056C129.865 91.9548 129.927 91.9861 129.995 91.9938Z" fill="#263238"/>
<path d="M113.087 91.4725C112.903 97.3354 112.702 99.8298 115.317 103.102C119.255 108.019 126.385 106.944 128.294 101.233C130.01 96.0923 130.026 87.334 124.628 84.4948C119.231 81.6556 113.256 85.5936 113.087 91.4725Z" fill="#B97964"/>
<path d="M113.344 102.549C107.578 101.562 109.23 97.9289 109.23 97.9289C103.551 96.782 107.938 94.0069 107.938 94.0069C103.214 91.9698 107.938 90.1411 107.938 90.1411C103.383 86.3635 109.879 85.0562 109.879 85.0562C108.275 79.1612 113.89 81.5834 113.89 81.5834C116.937 76.5145 119.568 81.3508 119.568 81.3508C124.91 74.1324 126.209 80.2199 126.209 80.2199C131.671 78.7842 129.577 84.5268 129.577 84.5268C134.069 85.7299 130.54 88.0077 130.54 88.0077C132.272 90.1972 126.008 90.5742 126.008 90.5742C126.008 90.5742 128.992 95.3864 126.008 96.7098L118.421 102.525C118.421 102.525 114.916 101.097 113.344 102.549Z" fill="#263238"/>
<path d="M119.015 97.8167C119.015 97.8167 123.025 88.1922 119.889 79.9793L122.536 79.073C122.536 79.073 125.992 91.0154 119.015 97.8167Z" fill="#407BFF"/>
<path d="M123.017 96.758C123.674 98.1375 123.931 98.7391 124.877 99.1641C125.17 99.3318 125.505 99.4098 125.841 99.3883C126.177 99.3669 126.5 99.2469 126.768 99.0433C127.037 98.8398 127.24 98.5617 127.351 98.2437C127.463 97.9258 127.478 97.582 127.396 97.2553C127.147 95.8758 126.088 93.8466 124.621 93.8065C124.277 93.8082 123.941 93.9021 123.646 94.0782C123.352 94.2544 123.11 94.5065 122.946 94.808C122.782 95.1096 122.702 95.4497 122.715 95.7927C122.727 96.1357 122.831 96.4691 123.017 96.758Z" fill="#B97964"/>
<path d="M118.87 116.793C118.87 116.793 124.3 120.803 126.505 122.407L142.217 114.996C142.195 114.125 142.436 113.268 142.908 112.535C143.38 111.803 144.062 111.229 144.864 110.89L145.987 110.425L148.353 109.366C148.794 109.169 149.279 109.092 149.759 109.143C150.24 109.194 150.698 109.37 151.088 109.655C151.546 109.989 151.89 110.456 152.072 110.993C152.255 111.53 152.267 112.11 152.107 112.654C151.777 113.782 151.16 114.805 150.316 115.623C149.473 116.441 148.432 117.027 147.294 117.322L145 117.924C145 117.924 131.534 128.126 126.722 128.366C121.91 128.607 114.86 123.883 114.86 123.883L118.87 116.793Z" fill="#B97964"/>
<path d="M105.813 110.032C109.959 110.032 114.595 112.614 121.854 117.346C120.811 120.758 118.872 123.826 116.239 126.233C116.239 126.233 112.229 125.158 106.904 120.145C100.487 114.074 103.27 110.04 105.813 110.032Z" fill="#263238"/>
<path d="M184.573 122.046H145.273C144.943 122.052 144.615 121.987 144.311 121.856C144.007 121.725 143.735 121.53 143.512 121.286C143.289 121.042 143.121 120.753 143.018 120.439C142.915 120.125 142.88 119.792 142.915 119.464L145.875 85.6337C145.945 84.9342 146.27 84.2849 146.787 83.8089C147.305 83.3329 147.979 83.0633 148.682 83.0511H187.982C188.312 83.0457 188.64 83.1106 188.943 83.2417C189.246 83.3728 189.518 83.567 189.74 83.8113C189.963 84.0557 190.13 84.3446 190.232 84.6588C190.334 84.973 190.368 85.3053 190.332 85.6337L187.372 119.464C187.302 120.162 186.978 120.81 186.462 121.286C185.947 121.762 185.275 122.032 184.573 122.046Z" fill="#407BFF"/>
<path opacity="0.4" d="M184.573 122.046H145.273C144.943 122.052 144.615 121.987 144.311 121.856C144.007 121.725 143.735 121.53 143.512 121.286C143.289 121.042 143.121 120.753 143.018 120.439C142.915 120.125 142.88 119.792 142.915 119.464L145.875 85.6337C145.945 84.9342 146.27 84.2849 146.787 83.8089C147.305 83.3329 147.979 83.0633 148.682 83.0511H187.982C188.312 83.0457 188.64 83.1106 188.943 83.2417C189.246 83.3728 189.518 83.567 189.74 83.8113C189.963 84.0557 190.13 84.3446 190.232 84.6588C190.334 84.973 190.368 85.3053 190.332 85.6337L187.372 119.464C187.302 120.162 186.978 120.81 186.462 121.286C185.947 121.762 185.275 122.032 184.573 122.046Z" fill="white"/>
<path opacity="0.7" d="M184.717 120.442C184.983 120.437 185.238 120.335 185.433 120.155C185.629 119.974 185.751 119.728 185.776 119.464L188.736 85.6336C188.749 85.5093 188.736 85.3834 188.698 85.2644C188.659 85.1455 188.595 85.0361 188.511 84.9435C188.427 84.851 188.324 84.7774 188.209 84.7277C188.095 84.678 187.97 84.6532 187.845 84.6551H148.545C148.279 84.6596 148.023 84.7616 147.826 84.9419C147.63 85.1222 147.506 85.3683 147.479 85.6336L144.527 119.464C144.514 119.588 144.527 119.714 144.565 119.833C144.604 119.952 144.667 120.061 144.752 120.154C144.836 120.246 144.939 120.32 145.054 120.37C145.168 120.419 145.292 120.444 145.418 120.442H184.717Z" fill="white"/>
<path d="M157.408 100.552L144.576 119.127V119.464C144.562 119.588 144.575 119.714 144.614 119.833C144.652 119.952 144.716 120.061 144.8 120.154C144.884 120.246 144.987 120.32 145.102 120.37C145.217 120.419 145.341 120.444 145.466 120.442H167.73L157.408 100.552Z" fill="#407BFF"/>
<path opacity="0.3" d="M157.408 100.552L144.576 119.127V119.464C144.562 119.588 144.575 119.714 144.614 119.833C144.652 119.952 144.716 120.061 144.8 120.154C144.884 120.246 144.987 120.32 145.102 120.37C145.217 120.419 145.341 120.444 145.466 120.442H167.73L157.408 100.552Z" fill="white"/>
<path d="M185.888 118.172L175.133 97.7445L159.205 120.442H184.717C184.983 120.438 185.238 120.335 185.433 120.155C185.629 119.974 185.751 119.728 185.776 119.464L185.888 118.172Z" fill="#407BFF"/>
<path d="M170.979 94.1353C170.881 95.1129 170.427 96.0205 169.704 96.6858C168.981 97.3511 168.039 97.7278 167.057 97.7445C166.594 97.7529 166.136 97.6628 165.711 97.4801C165.286 97.2973 164.905 97.0262 164.593 96.6848C164.281 96.3433 164.046 95.9393 163.902 95.4998C163.759 95.0602 163.71 94.595 163.76 94.1353C163.857 93.1563 164.309 92.2468 165.033 91.5799C165.756 90.9129 166.699 90.5351 167.682 90.5181C168.146 90.5096 168.605 90.5999 169.031 90.7831C169.456 90.9663 169.837 91.2382 170.149 91.5805C170.461 91.9229 170.697 92.3279 170.84 92.7684C170.983 93.209 171.03 93.675 170.979 94.1353Z" fill="#407BFF"/>
<path opacity="0.4" d="M170.979 94.1353C170.881 95.1129 170.427 96.0205 169.704 96.6858C168.981 97.3511 168.039 97.7278 167.057 97.7445C166.594 97.7529 166.136 97.6628 165.711 97.4801C165.286 97.2973 164.905 97.0262 164.593 96.6848C164.281 96.3433 164.046 95.9393 163.902 95.4998C163.759 95.0602 163.71 94.595 163.76 94.1353C163.857 93.1563 164.309 92.2468 165.033 91.5799C165.756 90.9129 166.699 90.5351 167.682 90.5181C168.146 90.5096 168.605 90.5999 169.031 90.7831C169.456 90.9663 169.837 91.2382 170.149 91.5805C170.461 91.9229 170.697 92.3279 170.84 92.7684C170.983 93.209 171.03 93.675 170.979 94.1353Z" fill="white"/>
<path d="M72.9053 258.594L68.9111 270.432L75.0307 272.926L79.8189 262.002L72.9053 258.594Z" fill="#B97964"/>
<path d="M77.2285 272.637C77.1971 272.618 77.1715 272.591 77.1546 272.558C77.1376 272.526 77.1299 272.489 77.1323 272.453C77.1368 272.417 77.1524 272.384 77.1769 272.358C77.2014 272.332 77.2335 272.315 77.2686 272.308C77.3969 272.308 80.2843 271.635 81.359 272.308C81.5622 272.432 81.709 272.631 81.768 272.862C81.813 272.99 81.817 273.129 81.7797 273.26C81.7424 273.39 81.6654 273.506 81.5595 273.591C81.1505 273.88 80.196 273.76 79.3218 273.487C78.601 273.264 77.9007 272.98 77.2285 272.637ZM77.8381 272.581C79.0973 273.142 80.8778 273.68 81.343 273.327C81.4071 273.279 81.4873 273.198 81.4232 272.95C81.4107 272.877 81.3809 272.809 81.3362 272.75C81.2915 272.691 81.2333 272.644 81.1665 272.613C81.072 272.553 80.9693 272.507 80.8617 272.477C79.8564 272.319 78.8302 272.355 77.8381 272.581Z" fill="#407BFF"/>
<path d="M77.1398 272.597C77.1244 272.57 77.1162 272.54 77.1162 272.509C77.1162 272.478 77.1244 272.447 77.1398 272.42C77.1398 272.34 77.9419 270.495 79.0728 270.014C79.2341 269.947 79.4072 269.912 79.5821 269.912C79.7569 269.912 79.93 269.947 80.0914 270.014C80.5325 270.199 80.6047 270.479 80.5646 270.672C80.4683 271.514 78.3028 272.517 77.3564 272.629C77.3452 272.635 77.3328 272.638 77.3203 272.638C77.3078 272.638 77.2954 272.635 77.2842 272.629C77.2594 272.636 77.2331 272.637 77.2079 272.632C77.1826 272.626 77.1592 272.614 77.1398 272.597ZM79.8588 270.327C79.6517 270.251 79.4242 270.251 79.2171 270.327C78.5032 270.77 77.9431 271.423 77.613 272.196C78.6477 271.947 80.1234 271.097 80.2277 270.592C80.2277 270.544 80.2277 270.415 79.955 270.303H79.8588V270.327Z" fill="#407BFF"/>
<path d="M76.8111 271.426L69.1275 269.02C68.9868 268.977 68.8356 268.983 68.6986 269.037C68.5617 269.091 68.4471 269.189 68.3736 269.317L65.0532 275.14C64.9814 275.262 64.9346 275.398 64.9155 275.539C64.8964 275.679 64.9054 275.822 64.942 275.96C64.9785 276.097 65.0419 276.225 65.1284 276.338C65.215 276.451 65.323 276.545 65.4462 276.615C65.5117 276.656 65.5817 276.688 65.6547 276.712C68.4378 277.514 70.9482 278.123 74.3969 279.198C78.4713 280.449 77.2843 280.618 82.0484 282.166C84.9197 283.096 86.4596 279.976 85.2565 279.439C79.8749 277.033 79.8187 275.14 78.2788 272.469C77.9305 271.957 77.4095 271.587 76.8111 271.426Z" fill="#263238"/>
<path opacity="0.2" d="M70.9888 264.272L77.4051 267.512L79.8192 262.002L72.9056 258.594L70.9888 264.272Z" fill="#263238"/>
<path d="M100.03 149.099C100.03 149.099 91.4086 155.684 93.2532 176.312C93.4297 178.221 94.0553 180.218 94.0553 182.4C94.0553 183.851 93.6543 184.87 93.1811 188.134C92.4913 192.882 91.2241 210.591 89.8847 212.893C88.5453 215.195 87.9999 214.786 84.2704 221.138C80.2602 227.972 75.047 239.954 71.0127 260.262C73.7064 262.163 76.7832 263.452 80.0276 264.039C80.0276 264.039 102.06 229.295 106.744 216.358C110.938 204.785 115.935 167.851 115.935 167.851L116.336 151.81L100.03 149.099Z" fill="#407BFF"/>
<path opacity="0.1" d="M109.462 176.312H103.222C103.222 176.312 101.169 195.946 107.954 212.324C108.66 209.693 109.374 206.541 110.071 203.132L112.774 185.84C112.389 182.921 112.093 180.691 112.044 180.547C111.908 180.09 109.462 176.312 109.462 176.312Z" fill="black"/>
<path d="M108.436 263.357L108.476 275.941L115.574 275.46L116.665 263.357H108.436Z" fill="#B97964"/>
<path d="M116.392 275.252C116.357 275.247 116.323 275.232 116.298 275.207C116.272 275.183 116.254 275.151 116.248 275.116C116.239 275.08 116.243 275.043 116.257 275.01C116.272 274.977 116.296 274.949 116.328 274.931C116.44 274.867 118.95 273.327 120.194 273.6C120.425 273.651 120.629 273.789 120.763 273.985C120.846 274.093 120.894 274.223 120.901 274.359C120.909 274.495 120.874 274.63 120.803 274.747C120.186 275.209 119.423 275.434 118.654 275.38C117.897 275.406 117.14 275.363 116.392 275.252ZM116.953 275.003C118.325 275.124 120.162 275.043 120.506 274.554C120.555 274.49 120.595 274.386 120.458 274.169C120.421 274.106 120.37 274.052 120.309 274.012C120.248 273.972 120.178 273.946 120.105 273.937C119.996 273.92 119.886 273.92 119.777 273.937C118.775 274.104 117.816 274.467 116.953 275.003Z" fill="#407BFF"/>
<path d="M116.296 275.252C116.269 275.234 116.247 275.211 116.231 275.183C116.216 275.155 116.208 275.123 116.208 275.091C116.208 275.003 116.344 273.006 117.25 272.204C117.379 272.085 117.531 271.994 117.697 271.936C117.862 271.879 118.038 271.855 118.213 271.867C118.694 271.867 118.854 272.14 118.878 272.34C119.063 273.142 117.354 274.819 116.472 275.244C116.449 275.252 116.423 275.252 116.4 275.244C116.367 275.259 116.33 275.261 116.296 275.252ZM118.108 272.204C117.888 272.209 117.676 272.294 117.515 272.445C116.986 273.098 116.672 273.899 116.617 274.738C117.507 274.169 118.622 272.878 118.558 272.38C118.558 272.332 118.517 272.204 118.205 272.188H118.108V272.204Z" fill="#407BFF"/>
<path d="M115.606 274.249L107.586 274.538C107.439 274.545 107.299 274.6 107.189 274.697C107.078 274.793 107.003 274.923 106.976 275.067L105.757 281.66C105.703 281.94 105.762 282.23 105.921 282.466C106.081 282.702 106.327 282.865 106.607 282.919C106.684 282.927 106.762 282.927 106.84 282.919C109.735 282.759 112.302 282.51 115.911 282.39C120.17 282.238 119.119 282.783 124.116 282.679C127.139 282.607 127.564 279.158 126.281 279.037C120.402 278.508 119.728 276.76 117.394 274.747C116.881 274.365 116.243 274.188 115.606 274.249Z" fill="#263238"/>
<path opacity="0.2" d="M108.46 269.862L116.096 269.702L116.665 263.357H108.436L108.46 269.862Z" fill="#263238"/>
<path d="M104.835 146.813C104.835 146.813 96.2287 158.21 102.605 180.499L109.823 213.054C109.823 213.054 102.974 227.859 106.615 266.919C110.144 267.414 113.731 267.333 117.234 266.678C117.234 266.678 125.254 225.429 126.466 211.498C127.805 196.147 127.003 149.877 127.003 149.877L104.835 146.813Z" fill="#407BFF"/>
<path d="M110.032 109.871C110.032 109.871 108.701 104.177 117.25 106.663C125.8 109.149 125.078 114.018 125.078 114.018L110.032 109.871Z" fill="#263238"/>
<path opacity="0.4" d="M110.032 109.871C110.032 109.871 108.701 104.177 117.25 106.663C125.8 109.149 125.078 114.018 125.078 114.018L110.032 109.871Z" fill="black"/>
<path d="M131.238 124.116C131.238 126.113 130.436 129 129.634 132.232C129.265 133.764 128.928 135.36 128.703 136.98C127.492 145.803 127.099 155.098 127.099 155.098C122.379 156.128 117.498 156.174 112.76 155.235C108.021 154.295 103.527 152.389 99.5571 149.637C99.5571 149.637 102.918 146.789 102.228 127.067C101.915 118.181 98.707 107.618 113.392 109.278C125.792 110.681 129.962 114.531 130.965 120.555C130.965 120.627 130.965 120.707 130.965 120.787L131.037 121.349C131.158 122.266 131.225 123.19 131.238 124.116Z" fill="#263238"/>
<path opacity="0.4" d="M131.238 124.116C131.238 126.113 130.436 129 129.634 132.232C126.281 128.222 122.921 120.643 122.921 120.643L125.688 116.568L130.564 118.838C130.733 119.402 130.867 119.975 130.965 120.554C130.965 120.627 130.965 120.707 130.965 120.787L131.038 121.349C131.159 122.266 131.226 123.19 131.238 124.116Z" fill="black"/>
<path d="M136.347 120.635C136.347 120.635 141.159 125.383 143.06 127.292L159.694 122.303C159.803 121.443 160.167 120.635 160.738 119.983C161.31 119.332 162.064 118.866 162.902 118.646L164.073 118.341L166.575 117.651C167.042 117.525 167.533 117.523 168 117.645C168.467 117.768 168.894 118.01 169.238 118.349C169.641 118.746 169.912 119.259 170.012 119.816C170.113 120.373 170.039 120.947 169.8 121.461C169.304 122.527 168.542 123.447 167.586 124.131C166.631 124.815 165.514 125.241 164.346 125.367L161.988 125.615C161.988 125.615 147.142 133.724 142.362 133.275C137.582 132.826 131.302 127.075 131.302 127.075L136.347 120.635Z" fill="#B97964"/>
<path d="M124.396 111.997C128.503 112.598 132.697 115.863 139.21 121.621C137.667 124.842 135.288 127.59 132.32 129.577C132.32 129.577 128.527 127.917 124.003 122.167C118.533 115.205 121.91 111.628 124.396 111.997Z" fill="#263238"/>
</g>
<defs>
<clipPath id="clip0_450_260">
<rect width="401.02" height="295.76" fill="white"/>
</clipPath>
</defs>
</svg>
