<?xml version="1.0" encoding="utf-8"?>
<!-- Generator: Adobe Illustrator 25.0.1, SVG Export Plug-In . SVG Version: 6.00 Build 0)  -->
<svg version="1.1" id="Layer_1" xmlns="http://www.w3.org/2000/svg" xmlns:xlink="http://www.w3.org/1999/xlink" x="0px" y="0px"
	 viewBox="0 0 642.7 470.7" style="enable-background:new 0 0 642.7 470.7;" xml:space="preserve">
<style type="text/css">
	.st0{fill:#14151B;}
	.st1{fill:#FFFFFF;}
	.st2{fill:none;stroke:#FFFFFF;stroke-miterlimit:10;}
	.st3{clip-path:url(#SVGID_2_);fill:none;stroke:#FFFFFF;stroke-miterlimit:10;}
	.st4{opacity:0.18;clip-path:url(#SVGID_4_);fill:none;stroke:#FFFFFF;stroke-miterlimit:10;enable-background:new    ;}
	.st5{fill:#999AA1;}
	.st6{fill:#3E404D;}
	.st7{fill:#545661;}
	.st8{fill:#1F2122;}
	.st9{fill:#232532;}
</style>
<rect y="-0.2" class="st0" width="642.7" height="470.8"/>
<g>
	<path class="st1" d="M379.08,33.89v-8.11h-2.88v-1.01h6.92v1.01h-2.9v8.11H379.08z"/>
	<path class="st1" d="M389.05,33.89v-4.35c0-1.16-0.6-1.5-1.49-1.5c-0.79,0-1.56,0.49-1.96,1.03v4.83h-1.03v-9.12h1.03v3.47
		c0.46-0.55,1.37-1.12,2.37-1.12c1.38,0,2.11,0.67,2.11,2.11v4.66H389.05z"/>
	<path class="st1" d="M391.74,30.58c0-1.91,1.37-3.46,3.25-3.46c2,0,3.17,1.56,3.17,3.54v0.26h-5.35c0.08,1.24,0.96,2.28,2.38,2.28
		c0.75,0,1.52-0.3,2.04-0.83l0.49,0.67c-0.66,0.66-1.54,1.01-2.62,1.01C393.15,34.06,391.74,32.65,391.74,30.58z M394.98,27.97
		c-1.41,0-2.11,1.19-2.16,2.2h4.33C397.14,29.19,396.49,27.97,394.98,27.97z"/>
	<path class="st1" d="M376.83,46.89v-9.12h5.97v1.01h-4.84v2.94h4.74v1.01h-4.74v4.16H376.83z"/>
	<path class="st1" d="M384.13,38.66c0-0.38,0.31-0.7,0.68-0.7c0.38,0,0.7,0.31,0.7,0.7s-0.31,0.68-0.7,0.68
		C384.44,39.35,384.13,39.05,384.13,38.66z M384.31,46.89v-6.6h1.03v6.6H384.31z"/>
	<path class="st1" d="M389.15,46.89l-2.75-6.6h1.11l2.2,5.41l2.19-5.41h1.12l-2.75,6.6H389.15z"/>
	<path class="st1" d="M393.7,43.58c0-1.91,1.37-3.46,3.25-3.46c2,0,3.17,1.56,3.17,3.54v0.26h-5.35c0.08,1.24,0.96,2.28,2.38,2.28
		c0.75,0,1.52-0.3,2.04-0.83l0.49,0.67c-0.66,0.66-1.54,1.01-2.62,1.01C395.11,47.06,393.7,45.65,393.7,43.58z M396.94,40.97
		c-1.41,0-2.11,1.19-2.16,2.2h4.33C399.1,42.19,398.44,40.97,396.94,40.97z"/>
	<path class="st1" d="M376.28,58.61l0.67-0.86c0.6,0.67,1.59,1.3,2.87,1.3c1.63,0,2.15-0.88,2.15-1.57c0-2.35-5.4-1.05-5.4-4.31
		c0-1.5,1.34-2.53,3.13-2.53c1.39,0,2.47,0.46,3.24,1.27l-0.68,0.83c-0.68-0.75-1.64-1.09-2.64-1.09c-1.09,0-1.87,0.59-1.87,1.45
		c0,2.05,5.4,0.88,5.4,4.28c0,1.33-0.9,2.68-3.36,2.68C378.2,60.06,377.03,59.46,376.28,58.61z"/>
	<path class="st1" d="M384.77,58.51v-4.32h-1.09v-0.9h1.09v-1.8h1.03v1.8h1.34v0.9h-1.34v4.1c0,0.49,0.22,0.85,0.67,0.85
		c0.29,0,0.56-0.12,0.7-0.27l0.3,0.77c-0.26,0.25-0.63,0.42-1.23,0.42C385.26,60.06,384.77,59.5,384.77,58.51z"/>
	<path class="st1" d="M388.2,56.58c0-1.91,1.37-3.46,3.25-3.46c2,0,3.17,1.56,3.17,3.54v0.26h-5.35c0.08,1.24,0.96,2.28,2.38,2.28
		c0.75,0,1.52-0.3,2.04-0.83l0.49,0.67c-0.66,0.66-1.54,1.01-2.62,1.01C389.61,60.06,388.2,58.65,388.2,56.58z M391.44,53.97
		c-1.41,0-2.11,1.19-2.16,2.2h4.33C393.6,55.19,392.95,53.97,391.44,53.97z"/>
	<path class="st1" d="M397.31,58.9v3.51h-1.03v-9.12h1.03v0.98c0.48-0.67,1.3-1.15,2.23-1.15c1.74,0,2.94,1.31,2.94,3.46
		c0,2.13-1.2,3.47-2.94,3.47C398.63,60.06,397.84,59.63,397.31,58.9z M401.4,56.58c0-1.46-0.79-2.54-2.12-2.54
		c-0.81,0-1.61,0.48-1.97,1.05v2.98c0.36,0.57,1.16,1.07,1.97,1.07C400.6,59.14,401.4,58.05,401.4,56.58z"/>
	<path class="st1" d="M403.53,59.02l0.53-0.74c0.44,0.51,1.27,0.94,2.17,0.94c1.01,0,1.56-0.48,1.56-1.13c0-1.6-4.09-0.62-4.09-3.06
		c0-1.03,0.89-1.9,2.46-1.9c1.12,0,1.91,0.42,2.45,0.96l-0.48,0.71c-0.4-0.48-1.12-0.83-1.97-0.83c-0.9,0-1.46,0.45-1.46,1.04
		c0,1.45,4.09,0.49,4.09,3.06c0,1.11-0.89,2-2.6,2C405.11,60.06,404.2,59.73,403.53,59.02z"/>
	<path class="st1" d="M376.66,72.89v-9.12h4.27c1.98,0,3.06,1.34,3.06,2.94c0,1.59-1.09,2.94-3.06,2.94h-2.32v3.24H376.66z
		 M382.01,66.71c0-0.77-0.57-1.23-1.34-1.23h-2.06v2.46h2.06C381.44,67.94,382.01,67.47,382.01,66.71z"/>
	<path class="st1" d="M385.15,72.89v-6.6h1.74v0.9c0.46-0.59,1.29-1.07,2.11-1.07v1.7c-0.12-0.03-0.29-0.04-0.48-0.04
		c-0.57,0-1.34,0.33-1.63,0.75v4.36H385.15z"/>
	<path class="st1" d="M389.65,69.58c0-1.87,1.31-3.46,3.49-3.46c2.19,0,3.5,1.59,3.5,3.46c0,1.89-1.31,3.47-3.5,3.47
		C390.96,73.06,389.65,71.47,389.65,69.58z M394.83,69.58c0-1.03-0.62-1.91-1.7-1.91s-1.68,0.89-1.68,1.91
		c0,1.04,0.6,1.93,1.68,1.93S394.83,70.62,394.83,69.58z"/>
	<path class="st1" d="M397.5,69.58c0-2.02,1.46-3.46,3.5-3.46c1.35,0,2.17,0.59,2.61,1.19l-1.13,1.07
		c-0.31-0.46-0.79-0.71-1.39-0.71c-1.05,0-1.79,0.77-1.79,1.91s0.74,1.93,1.79,1.93c0.6,0,1.08-0.27,1.39-0.71l1.13,1.05
		c-0.44,0.62-1.26,1.2-2.61,1.2C398.96,73.06,397.5,71.62,397.5,69.58z"/>
	<path class="st1" d="M404.32,69.58c0-1.91,1.41-3.46,3.42-3.46c1.97,0,3.31,1.48,3.31,3.64v0.38h-4.91
		c0.11,0.83,0.78,1.53,1.9,1.53c0.56,0,1.34-0.25,1.76-0.66l0.77,1.12c-0.66,0.6-1.7,0.92-2.72,0.92
		C405.84,73.06,404.32,71.7,404.32,69.58z M407.74,67.51c-1.08,0-1.54,0.81-1.63,1.46h3.25C409.33,68.34,408.89,67.51,407.74,67.51z
		"/>
	<path class="st1" d="M411.73,72.03l0.75-1.22c0.48,0.45,1.46,0.9,2.28,0.9c0.75,0,1.11-0.3,1.11-0.71c0-1.09-3.92-0.21-3.92-2.8
		c0-1.11,0.97-2.08,2.71-2.08c1.12,0,2.01,0.38,2.67,0.9l-0.7,1.19c-0.4-0.42-1.15-0.77-1.96-0.77c-0.63,0-1.04,0.29-1.04,0.66
		c0,0.98,3.91,0.16,3.91,2.83c0,1.2-1.03,2.12-2.86,2.12C413.54,73.06,412.43,72.67,411.73,72.03z"/>
	<path class="st1" d="M418.25,72.03l0.75-1.22c0.48,0.45,1.46,0.9,2.28,0.9c0.75,0,1.11-0.3,1.11-0.71c0-1.09-3.92-0.21-3.92-2.8
		c0-1.11,0.97-2.08,2.71-2.08c1.12,0,2.01,0.38,2.67,0.9l-0.7,1.19c-0.4-0.42-1.15-0.77-1.96-0.77c-0.63,0-1.04,0.29-1.04,0.66
		c0,0.98,3.91,0.16,3.91,2.83c0,1.2-1.03,2.12-2.86,2.12C420.06,73.06,418.95,72.67,418.25,72.03z"/>
	<path class="st1" d="M376.05,84.61l1.05-1.48c0.64,0.67,1.64,1.23,2.9,1.23c1.07,0,1.59-0.49,1.59-1.01c0-1.61-5.25-0.51-5.25-3.94
		c0-1.52,1.31-2.78,3.46-2.78c1.45,0,2.65,0.44,3.55,1.27l-1.08,1.42c-0.74-0.68-1.72-1-2.65-1c-0.83,0-1.3,0.37-1.3,0.92
		c0,1.45,5.24,0.48,5.24,3.88c0,1.67-1.19,2.93-3.65,2.93C378.15,86.06,376.9,85.47,376.05,84.61z"/>
	<path class="st1" d="M384.98,84.25v-3.45h-1.09v-1.52h1.09v-1.8h1.75v1.8h1.34v1.52h-1.34v2.98c0,0.41,0.22,0.72,0.6,0.72
		c0.26,0,0.51-0.1,0.6-0.19l0.37,1.31c-0.26,0.23-0.72,0.42-1.45,0.42C385.63,86.06,384.98,85.43,384.98,84.25z"/>
	<path class="st1" d="M389.26,85.89v-6.6h1.74v0.9c0.46-0.59,1.29-1.07,2.11-1.07v1.7c-0.12-0.03-0.29-0.04-0.48-0.04
		c-0.57,0-1.34,0.33-1.63,0.75v4.36H389.26z"/>
	<path class="st1" d="M398.14,85.89v-0.68c-0.45,0.53-1.23,0.85-2.09,0.85c-1.05,0-2.3-0.71-2.3-2.19c0-1.54,1.24-2.13,2.3-2.13
		c0.88,0,1.65,0.29,2.09,0.81v-0.89c0-0.67-0.57-1.11-1.45-1.11c-0.71,0-1.37,0.26-1.93,0.78l-0.66-1.16
		c0.81-0.71,1.85-1.04,2.88-1.04c1.5,0,2.88,0.6,2.88,2.5v4.27H398.14z M398.14,84.31v-0.82c-0.29-0.38-0.83-0.57-1.39-0.57
		c-0.68,0-1.24,0.36-1.24,1c0,0.62,0.56,0.97,1.24,0.97C397.31,84.88,397.86,84.69,398.14,84.31z"/>
	<path class="st1" d="M401.94,84.25v-3.45h-1.09v-1.52h1.09v-1.8h1.75v1.8h1.34v1.52h-1.34v2.98c0,0.41,0.22,0.72,0.6,0.72
		c0.26,0,0.51-0.1,0.6-0.19l0.37,1.31c-0.26,0.23-0.72,0.42-1.45,0.42C402.6,86.06,401.94,85.43,401.94,84.25z"/>
	<path class="st1" d="M405.8,82.58c0-1.91,1.41-3.46,3.42-3.46c1.97,0,3.31,1.48,3.31,3.64v0.38h-4.91c0.11,0.83,0.78,1.53,1.9,1.53
		c0.56,0,1.34-0.25,1.76-0.66l0.77,1.12c-0.66,0.6-1.7,0.92-2.72,0.92C407.32,86.06,405.8,84.7,405.8,82.58z M409.22,80.51
		c-1.08,0-1.54,0.81-1.63,1.46h3.25C410.8,81.34,410.37,80.51,409.22,80.51z"/>
	<path class="st1" d="M413.65,87.59l0.78-1.26c0.53,0.59,1.23,0.82,2.06,0.82s1.82-0.37,1.82-1.67v-0.67
		c-0.52,0.66-1.23,1.04-2.04,1.04c-1.65,0-2.91-1.16-2.91-3.36c0-2.16,1.24-3.36,2.91-3.36c0.79,0,1.5,0.34,2.04,1.01v-0.85h1.75
		v6.15c0,2.52-1.94,3.13-3.57,3.13C415.35,88.57,414.48,88.31,413.65,87.59z M418.31,83.56v-2.13c-0.29-0.44-0.92-0.75-1.49-0.75
		c-0.98,0-1.67,0.68-1.67,1.82s0.68,1.82,1.67,1.82C417.39,84.31,418.02,83.98,418.31,83.56z"/>
	<path class="st1" d="M421.81,86.92c0.15,0.07,0.38,0.11,0.55,0.11c0.45,0,0.75-0.12,0.92-0.48l0.25-0.56l-2.68-6.7h1.86l1.72,4.59
		l1.72-4.59h1.87l-3.1,7.68c-0.49,1.24-1.37,1.57-2.5,1.6c-0.21,0-0.64-0.04-0.86-0.1L421.81,86.92z"/>
</g>
<g>
	<path class="st1" d="M283.4,389.8l0.5-0.5c0.9,1,2.3,2.1,4.3,2.1c3.2,0,4.1-1.8,4.1-3.2c0-4.6-8.5-2.3-8.5-7.1
		c0-2.3,2.1-3.6,4.4-3.6c2.1,0,3.5,0.8,4.5,2l-0.5,0.5c-1-1.3-2.4-1.8-4-1.8c-2,0-3.7,1.2-3.7,2.9c0,4,8.5,1.9,8.5,7.1
		c0,1.6-1,3.8-4.8,3.8C286.1,392,284.4,391,283.4,389.8z"/>
	<path class="st1" d="M307.2,391.7v-13.4h-4.7v-0.6h10.1v0.6h-4.7v13.4H307.2z"/>
	<path class="st1" d="M322.5,391.7v-14h8.6v0.6h-7.9v5.9h7.7v0.6h-7.7v6.3h7.9v0.6H322.5z"/>
	<path class="st1" d="M341.5,391.7v-14h4.8c2.6,0,4.1,1.8,4.1,4s-1.5,4-4.1,4h-4.2v6.1h-0.6L341.5,391.7L341.5,391.7z M349.7,381.7
		c0-1.9-1.3-3.3-3.4-3.3h-4.2v6.7h4.2C348.4,385,349.7,383.6,349.7,381.7z"/>
	<path class="st1" d="M359.7,389.8l0.5-0.5c0.9,1,2.3,2.1,4.3,2.1c3.2,0,4.1-1.8,4.1-3.2c0-4.6-8.5-2.3-8.5-7.1
		c0-2.3,2.1-3.6,4.4-3.6c2.1,0,3.5,0.8,4.5,2l-0.5,0.5c-1-1.3-2.4-1.8-4-1.8c-2,0-3.7,1.2-3.7,2.9c0,4,8.5,1.9,8.5,7.1
		c0,1.6-1,3.8-4.8,3.8C362.5,392,360.8,391,359.7,389.8z"/>
</g>
<g>
	<line class="st2" x1="334.6" y1="366.5" x2="393.2" y2="366.5"/>
	<line class="st2" x1="339.8" y1="361.4" x2="398.3" y2="361.4"/>
	<line class="st2" x1="344.9" y1="356.2" x2="403.5" y2="356.2"/>
	<line class="st2" x1="350" y1="351.1" x2="408.6" y2="351.1"/>
	<line class="st2" x1="355.2" y1="346" x2="413.7" y2="346"/>
</g>
<rect x="40.7" y="107.1" class="st1" width="179.6" height="284.6"/>
<g>
	<path class="st0" d="M87.9,381.6H52.7v-18.8c0-8.2,5.5-12.7,12.1-12.7c6.5,0,12,4.4,12,12.7v8.1h11.1V381.6z M64.8,360.9
		c-1.9,0-2.8,1.4-2.8,3.2v6.8h5.5v-6.8C67.5,362.4,66.6,360.9,64.8,360.9z"/>
	<path class="st0" d="M87.9,337.9H62.4v-9.5h2.8c-1.8-1.6-3.5-4.9-3.5-7.8h9.1c-0.2,0.5-0.3,1.3-0.3,2.2c0,2,0.5,4.6,1.8,5.6h15.6
		V337.9z"/>
	<path class="st0" d="M75.1,299c-7.1,0-13.3-5.3-13.3-14.3c0-9.1,6.2-14.3,13.3-14.3s13.4,5.3,13.4,14.3S82.2,299,75.1,299z
		 M75.1,280.1c-2.8,0-5,1.6-5,4.6c0,2.9,2.2,4.5,5,4.5s5-1.6,5-4.5C80.1,281.8,78,280.1,75.1,280.1z"/>
	<path class="st0" d="M116.1,383.5c-8.1,0-13.3-6.2-13.3-14.3c0-5.8,2.6-9.4,4.8-10.8l5.7,6.1c-1.2,0.8-2.2,2.3-2.2,4.3
		c0,2.7,1.7,5,5,5s5-2.3,5-5c0-2-1.1-3.5-2.2-4.3l5.8-6.1c2.1,1.4,4.8,5,4.8,10.8C129.5,377.3,124.2,383.5,116.1,383.5z"/>
	<path class="st0" d="M116.1,336.9c-7.4,0-13.3-5.6-13.3-13.9c0-7.5,5.4-13.2,14.3-13.2h2v17.3c1.6-0.5,3.2-2.4,3.2-5.5
		c0-1.4-0.7-4.6-1.8-5.9l5.9-3.9c2.2,2.5,3.2,7.1,3.2,10.9C129.5,330.7,124.5,336.9,116.1,336.9z M110,323.1c0,2.9,1.9,3.9,3.1,4.2
		v-8.4C112,319.1,110,320,110,323.1z"/>
	<path class="st0" d="M125.6,266.3l-6.4-3.8c1.6-2,3.2-6.3,3.2-9.2c0-2-0.5-2.5-1.1-2.5c-2.4,0,0.7,14.5-9.9,14.5
		c-4.6,0-8.7-4-8.7-11.4c0-4.3,1.3-8.1,3.3-11l6.2,3.5c-1.3,1.6-2.6,4.5-2.6,7.5c0,1.4,0.5,2.4,1.1,2.4c2.1,0-0.5-14.5,10.1-14.5
		c5.1,0,8.8,4.5,8.8,12.1C129.5,258.5,127.9,263.5,125.6,266.3z"/>
	<path class="st0" d="M125.6,164.4l-6.4-3.8c1.6-2,3.2-6.3,3.2-9.2c0-2-0.5-2.5-1.1-2.5c-2.4,0,0.7,14.5-9.9,14.5
		c-4.6,0-8.7-4-8.7-11.4c0-4.3,1.3-8.1,3.3-11l6.2,3.5c-1.3,1.6-2.6,4.5-2.6,7.5c0,1.4,0.5,2.4,1.1,2.4c2.1,0-0.5-14.5,10.1-14.5
		c5.1,0,8.8,4.5,8.8,12.1C129.5,156.6,127.9,161.7,125.6,164.4z"/>
</g>
<g>
	<g>
		<g>
			<defs>
				<rect id="SVGID_1_" y="13.7" width="642.7" height="470.8"/>
			</defs>
			<clipPath id="SVGID_2_">
				<use xlink:href="#SVGID_1_"  style="overflow:visible;"/>
			</clipPath>
			<line class="st3" x1="626.5" y1="107.9" x2="685.1" y2="107.9"/>
		</g>
	</g>
	<g>
		<g>
			<defs>
				<rect id="SVGID_3_" y="-0.2" width="642.7" height="470.8"/>
			</defs>
			<clipPath id="SVGID_4_">
				<use xlink:href="#SVGID_3_"  style="overflow:visible;"/>
			</clipPath>
			<path class="st4" d="M659.5,391.9c35.3-24.1,51-54.5,51-98.4c0-54.2-40.8-95-95-95c-56.5,0-96,39.1-96,95
				c0,32.9,11.4,61.3,35,86.8l-6.7,11.3H376.3V208.8h10.8v171h157.6l-3.8-3.9c-7.6-7.8-32.3-36.9-32.3-82.3c0-28.9,9.6-55.3,27-74.5
				c19.2-21.2,46.9-32.4,79.9-32.4c31,0,57.8,11.2,77.5,32.4c18.3,19.7,28.4,46.2,28.4,74.5c0,49.3-17.4,83.8-54.8,108.1
				L659.5,391.9z"/>
		</g>
	</g>
</g>
<rect x="191.6" y="129.4" class="st5" width="1.8" height="1.8"/>
<g>
	<rect x="175.4" y="205.9" class="st6" width="1.9" height="1.9"/>
	<rect x="182.1" y="309.6" class="st6" width="4.9" height="4.9"/>
	<rect x="175" y="222.1" class="st7" width="2.3" height="2.3"/>
	<rect x="166.7" y="230.2" class="st7" width="2.5" height="2.5"/>
	<rect x="174.8" y="238.3" class="st8" width="2.7" height="2.7"/>
	<rect x="174.7" y="254.6" class="st5" width="3.3" height="3.3"/>
	<rect x="182.5" y="262.5" class="st6" width="3.6" height="3.6"/>
	<rect x="174.4" y="270.8" class="st6" width="3.8" height="3.8"/>
	<rect x="174.2" y="287" class="st8" width="4.4" height="4.4"/>
	<rect x="157.5" y="270.6" class="st6" width="4.4" height="4.4"/>
	<rect x="148.8" y="294.7" class="st6" width="5.3" height="5.3"/>
	<rect x="141.1" y="286.7" class="st5" width="4.8" height="4.8"/>
	<rect x="141.4" y="254.2" class="st6" width="3.8" height="3.8"/>
	<rect x="150" y="262.6" class="st5" width="3.8" height="3.8"/>
	<rect x="150.5" y="230.3" class="st0" width="2.6" height="2.6"/>
	<rect x="166.3" y="180.8" class="st0" width="2.6" height="2.6"/>
	<rect x="142.1" y="221.9" class="st8" width="2.3" height="2.3"/>
	<rect x="150.7" y="213.9" class="st7" width="2.1" height="2.1"/>
	<rect x="165.4" y="294.9" class="st9" width="5" height="5"/>
</g>
</svg>
