<svg width="40" height="40" viewBox="0 0 40 40" fill="none" xmlns="http://www.w3.org/2000/svg">
<path d="M19.939 24.1666C19.939 25.1228 17.9897 25.8977 15.585 25.8977C13.1802 25.8977 11.2306 25.1228 11.2306 24.1666C11.2306 23.2104 13.1802 22.4355 15.585 22.4355C17.9897 22.4355 19.939 23.2104 19.939 24.1666Z" fill="white" stroke="white" stroke-miterlimit="10" stroke-linecap="round" stroke-linejoin="round"/>
<path d="M19.939 26.6167C19.939 27.5732 17.9903 28.3478 15.5853 28.3478C13.1796 28.3478 11.2306 27.5732 11.2306 26.6167" fill="white"/>
<path d="M19.939 26.6167C19.939 27.5732 17.9903 28.3478 15.5853 28.3478C13.1796 28.3478 11.2306 27.5732 11.2306 26.6167" stroke="white" stroke-miterlimit="10" stroke-linecap="round" stroke-linejoin="round"/>
<path d="M19.939 29.0659C19.939 30.0224 17.9903 30.797 15.5853 30.797C13.1796 30.797 11.2306 30.0224 11.2306 29.0659" fill="white"/>
<path d="M19.939 29.0659C19.939 30.0224 17.9903 30.797 15.5853 30.797C13.1796 30.797 11.2306 30.0224 11.2306 29.0659" stroke="white" stroke-miterlimit="10" stroke-linecap="round" stroke-linejoin="round"/>
<path d="M19.939 24.1665V31.5166C19.939 32.4724 17.9903 33.2476 15.5853 33.2476C13.1796 33.2476 11.2306 32.4724 11.2306 31.5166V24.1665" fill="white"/>
<path d="M19.939 24.1665V31.5166C19.939 32.4724 17.9903 33.2476 15.5853 33.2476C13.1796 33.2476 11.2306 32.4724 11.2306 31.5166V24.1665" stroke="white" stroke-miterlimit="10" stroke-linecap="round" stroke-linejoin="round"/>
<path d="M37.9428 5.12894L4.19061 5.12504C3.5471 5.12504 3.02524 4.60349 3.02524 3.95934C3.02524 3.31615 3.54679 2.79463 4.19061 2.79463L33.5379 2.79009C34.3083 2.79009 34.933 2.16572 34.933 1.39504C34.933 0.624718 34.3086 0 33.5379 0H3.25483C1.46056 0 0 1.46056 0 3.25483V32.6071C0 33.5361 0.753138 34.2905 1.68334 34.2905H5.26091C7.44245 37.7188 11.273 40 15.6285 40C19.9841 40 23.8147 37.7192 25.996 34.2908H37.9437C38.8736 34.2908 39.627 33.5367 39.627 32.6075L39.6267 6.81231C39.6267 5.88208 38.8736 5.12864 37.9434 5.12864L37.9428 5.12894ZM15.6276 37.6747C10.137 37.6747 5.67027 33.2084 5.67027 27.7182C5.67027 27.3049 5.69621 26.8882 5.74714 26.4795C6.36275 21.5092 10.6107 17.761 15.6281 17.761C16.9132 17.761 18.1629 18.002 19.3429 18.4762C23.1348 20.0012 25.5853 23.6291 25.5853 27.7178C25.585 33.2074 21.1184 37.6743 15.6279 37.6743L15.6276 37.6747ZM37.0511 16.5028H27.9332C26.2096 16.5028 24.8123 15.1059 24.8123 13.3823C24.8123 11.658 26.2096 10.2607 27.9332 10.2607H37.0511V16.5028ZM26.9036 13.3823C26.9036 14.1208 27.502 14.7199 28.2411 14.7199C28.9803 14.7199 29.5787 14.1205 29.5787 13.3823C29.5787 12.6431 28.9803 12.0447 28.2411 12.0447C27.502 12.0447 26.9036 12.6431 26.9036 13.3823Z" fill="white"/>
</svg>
