<svg width="40" height="40" viewBox="0 0 40 40" fill="none" xmlns="http://www.w3.org/2000/svg">
<path d="M25.714 11.4285H34.2853C35.0742 11.4285 35.7139 10.7888 35.7139 9.99992C35.7139 8.15332 34.5398 6.59341 32.9024 5.99072C32.1374 6.69958 31.1224 7.1428 29.9997 7.1428C28.8769 7.1428 27.8619 6.69956 27.0972 5.99072C25.4595 6.5934 24.2854 8.15332 24.2854 9.99992C24.2854 10.7888 24.9251 11.4285 25.714 11.4285Z" fill="white"/>
<path d="M32.8568 2.85713C32.8568 4.43491 31.5775 5.71425 29.9997 5.71425C28.4219 5.71425 27.1426 4.43491 27.1426 2.85713C27.1426 1.27934 28.4219 0 29.9997 0C31.5775 0 32.8568 1.27934 32.8568 2.85713Z" fill="white"/>
<path d="M5.71421 11.4285H14.2856C15.0745 11.4285 15.7141 10.7888 15.7141 9.99992C15.7141 8.15332 14.54 6.59341 12.9027 5.99072C12.1377 6.69958 11.1227 7.1428 9.9999 7.1428C8.87713 7.1428 7.86211 6.69956 7.09746 5.99072C5.45976 6.5934 4.28564 8.15332 4.28564 9.99992C4.28564 10.7888 4.92531 11.4285 5.71421 11.4285Z" fill="white"/>
<path d="M12.8571 2.85713C12.8571 4.43491 11.5777 5.71425 9.99995 5.71425C8.42216 5.71425 7.14282 4.43491 7.14282 2.85713C7.14282 1.27934 8.42216 0 9.99995 0C11.5777 0 12.8571 1.27934 12.8571 2.85713Z" fill="white"/>
<path d="M37.1883 34.562C36.4233 35.2709 35.4083 35.7141 34.2855 35.7141C33.1628 35.7141 32.1478 35.2708 31.3831 34.562C29.7454 35.1647 28.5713 36.7246 28.5713 38.5712C28.5713 39.3601 29.211 39.9998 29.9999 39.9998H38.5712C39.3601 39.9998 39.9998 39.3601 39.9998 38.5712C39.9998 36.7246 38.8257 35.1647 37.1883 34.562Z" fill="white"/>
<path d="M37.1425 31.4284C37.1425 33.0062 35.8631 34.2855 34.2853 34.2855C32.7076 34.2855 31.4282 33.0062 31.4282 31.4284C31.4282 29.8506 32.7076 28.5713 34.2853 28.5713C35.8631 28.5713 37.1425 29.8506 37.1425 31.4284Z" fill="white"/>
<path d="M8.61701 34.562C7.85203 35.2709 6.83702 35.7141 5.71425 35.7141C4.59148 35.7141 3.57647 35.2708 2.81182 34.562C1.17412 35.1647 0 36.7246 0 38.5712C0 39.3601 0.639661 39.9998 1.42856 39.9998H9.99994C10.7888 39.9998 11.4285 39.3601 11.4285 38.5712C11.4285 36.7246 10.2544 35.1647 8.61701 34.562Z" fill="white"/>
<path d="M8.57118 31.4284C8.57118 33.0062 7.29185 34.2855 5.71406 34.2855C4.13627 34.2855 2.85693 33.0062 2.85693 31.4284C2.85693 29.8506 4.13627 28.5713 5.71406 28.5713C7.29185 28.5713 8.57118 29.8506 8.57118 31.4284Z" fill="white"/>
<path d="M22.9027 34.562C22.1377 35.2709 21.1227 35.7141 19.9999 35.7141C18.8771 35.7141 17.8621 35.2708 17.0975 34.562C15.4598 35.1647 14.2856 36.7246 14.2856 38.5712C14.2856 39.3601 14.9253 39.9998 15.7142 39.9998H24.2856C25.0745 39.9998 25.7141 39.3601 25.7141 38.5712C25.7141 36.7246 24.54 35.1647 22.9027 34.562Z" fill="white"/>
<path d="M22.8568 31.4284C22.8568 33.0062 21.5775 34.2855 19.9997 34.2855C18.4219 34.2855 17.1426 33.0062 17.1426 31.4284C17.1426 29.8506 18.4219 28.5713 19.9997 28.5713C21.5775 28.5713 22.8568 29.8506 22.8568 31.4284Z" fill="white"/>
<path d="M17.1427 5.71425H18.5712V7.14281C18.5712 7.93235 19.2109 8.57138 19.9998 8.57138C20.7887 8.57138 21.4284 7.93235 21.4284 7.14281V5.71425H22.8569C23.6465 5.71425 24.2855 5.07523 24.2855 4.28569C24.2855 3.49615 23.6465 2.85713 22.8569 2.85713H21.4284V1.42856C21.4284 0.639025 20.7887 0 19.9998 0C19.2109 0 18.5712 0.639025 18.5712 1.42856V2.85713H17.1427C16.3538 2.85713 15.7141 3.49615 15.7141 4.28569C15.7141 5.07523 16.3538 5.71425 17.1427 5.71425Z" fill="white"/>
<path d="M7.14277 21.4283H18.5713V27.1426H21.4284V21.4283H32.8569V27.1426H35.714V19.9997C35.714 19.2102 35.075 18.5712 34.2855 18.5712H21.4284V17.1426H29.9998C30.7893 17.1426 31.4283 16.5036 31.4283 15.7141V12.8569H28.5712V14.2855H11.4285V12.8569H8.57133V15.7141C8.57133 16.5036 9.21099 17.1426 9.9999 17.1426H18.5713V18.5712H5.71421C4.92531 18.5712 4.28564 19.2102 4.28564 19.9997V27.1426H7.14277V21.4283Z" fill="white"/>
</svg>
