<svg width="37" height="43" viewBox="0 0 37 43" fill="none" xmlns="http://www.w3.org/2000/svg">
<path d="M18.4286 16.8929H27.6429V19.9643H18.4286V16.8929ZM36.8571 12.2857V38.3929C36.8571 41.0036 34.8607 43 32.25 43H13.8214C11.2107 43 9.21429 41.0036 9.21429 38.3929V12.2857C9.21429 9.675 11.2107 7.67857 13.8214 7.67857H24.5714V4.60714C24.5714 3.68571 23.9571 3.07143 23.0357 3.07143H4.60714C3.68571 3.07143 3.07143 3.68571 3.07143 4.60714V30.7143C3.07143 31.6357 3.68571 32.25 4.60714 32.25C5.52857 32.25 6.14286 32.8643 6.14286 33.7857C6.14286 34.7071 5.52857 35.3214 4.60714 35.3214C1.99643 35.3214 0 33.325 0 30.7143V4.60714C0 1.99643 1.99643 0 4.60714 0H23.0357C25.6464 0 27.6429 1.99643 27.6429 4.60714V7.67857H32.25C34.8607 7.67857 36.8571 9.675 36.8571 12.2857ZM30.7143 33.7857C30.7143 32.8643 30.1 32.25 29.1786 32.25H16.8929C15.9714 32.25 15.3571 32.8643 15.3571 33.7857C15.3571 34.7071 15.9714 35.3214 16.8929 35.3214H29.1786C30.1 35.3214 30.7143 34.7071 30.7143 33.7857ZM30.7143 27.6429C30.7143 26.7214 30.1 26.1071 29.1786 26.1071H16.8929C15.9714 26.1071 15.3571 26.7214 15.3571 27.6429C15.3571 28.5643 15.9714 29.1786 16.8929 29.1786H29.1786C30.1 29.1786 30.7143 28.5643 30.7143 27.6429ZM30.7143 15.3571C30.7143 14.4357 30.1 13.8214 29.1786 13.8214H16.8929C15.9714 13.8214 15.3571 14.4357 15.3571 15.3571V21.5C15.3571 22.4214 15.9714 23.0357 16.8929 23.0357H29.1786C30.1 23.0357 30.7143 22.4214 30.7143 21.5V15.3571Z" fill="white"/>
</svg>
