<svg width="41" height="45" viewBox="0 0 41 45" fill="none" xmlns="http://www.w3.org/2000/svg">
<path d="M8.49382 14.6018C8.98509 14.8125 9.54686 14.6719 9.89785 14.2508L12.0743 11.8639H18.8138C20.2879 11.8639 21.4114 10.6703 21.4114 9.26626V4.63279C21.4114 3.15869 20.2178 2.03516 18.8138 2.03516H10.3188C8.91481 2.03516 7.72119 3.22877 7.72119 4.63279V13.4083C7.72119 13.8998 8.00205 14.3911 8.49365 14.6019L8.49382 14.6018Z" fill="white"/>
<path d="M25.1322 13.4792L24.711 18.1828H24.0792V23.2374H30.2573L31.0294 18.1828H26.115L26.5361 13.5493C27.7298 13.3386 28.6421 12.2155 28.6421 10.9517C28.6421 10.6007 28.572 10.3198 28.4314 10.039L33.6968 6.24815C34.3286 6.80988 35.1709 7.16086 36.0837 7.16086C38.0494 7.16086 39.6641 5.5461 39.6641 3.58043C39.6641 1.61468 38.0493 0 36.0837 0C34.118 0 32.5032 1.61476 32.5032 3.58043C32.5032 4.0717 32.6435 4.63347 32.8542 5.05454L27.5889 8.84538C27.1677 8.49437 26.5358 8.28364 25.9741 8.28364C24.5 8.28364 23.3064 9.47726 23.3064 10.9514C23.3772 12.1453 24.0792 13.0577 25.1322 13.4792Z" fill="white"/>
<path d="M24.0788 34.8204H28.4314L29.2035 29.8359H24.0787L24.0788 34.8204Z" fill="white"/>
<path d="M29.4148 39.5244C27.8702 39.5244 26.6769 40.7881 26.6769 42.2623C26.6769 43.8069 27.9406 45.0002 29.4148 45.0002C30.9594 45.0002 32.1526 43.7365 32.1526 42.2623C32.2228 40.718 30.9594 39.5244 29.4148 39.5244Z" fill="white"/>
<path d="M29.8359 34.8204H34.1885C34.4694 34.8204 34.7502 34.6096 34.8204 34.3992L36.5754 29.8359H30.5379L29.8359 34.8204Z" fill="white"/>
<path d="M30.8884 28.4318H37.2067L38.6812 24.6406H31.4501L30.8884 28.4318Z" fill="white"/>
<path d="M22.6747 24.6406H16.4265L16.9879 28.4318H22.6747L22.6747 24.6406Z" fill="white"/>
<path d="M30.0461 24.6406H24.0787V28.4318H29.4142L30.0461 24.6406Z" fill="white"/>
<path d="M33.6974 37.4183H13.3383L12.5662 34.8207H16.4275L15.6554 29.8362H11.0921L10.6709 28.4322H15.4447L14.9531 24.641H9.61762L9.19648 23.237H14.7427L13.9705 18.1824H7.65222L7.02035 16.1465C6.95021 15.8657 6.66935 15.6553 6.31835 15.6553H0.702003C0.280871 15.6553 0 16.0063 0 16.3573C0 16.7083 0.280863 17.0593 0.702003 17.0593H5.82679C5.82679 16.9891 7.65221 23.2374 7.65221 23.3075C7.65221 23.2374 9.40722 29.2047 12.1454 38.4019C12.2156 38.6827 12.4964 38.8931 12.8474 38.8931H33.698C34.049 38.8931 34.4 38.6123 34.4 38.1911C34.3997 37.7697 34.1189 37.4187 33.6977 37.4187L33.6974 37.4183Z" fill="white"/>
<path d="M40.7875 18.5338C40.6472 18.3231 40.4365 18.2529 40.2258 18.2529H32.5034L31.6611 23.2374H39.2432L40.858 19.1656C40.9983 18.9549 40.9281 18.6741 40.7875 18.5338Z" fill="white"/>
<path d="M16.6372 39.5244C15.0926 39.5244 13.8993 40.7881 13.8993 42.2623C13.8993 43.8069 15.163 45.0002 16.6372 45.0002C18.1818 45.0002 19.3751 43.7365 19.3751 42.2623C19.3754 40.718 18.1116 39.5244 16.6372 39.5244Z" fill="white"/>
<path d="M22.6747 18.1821H15.4436L16.2157 23.2367H22.6746L22.6747 18.1821Z" fill="white"/>
<path d="M22.6747 34.8204V29.8359H17.1986L17.9006 34.8204H22.6747Z" fill="white"/>
</svg>
