<svg width="37" height="40" viewBox="0 0 37 40" fill="none" xmlns="http://www.w3.org/2000/svg">
<path d="M26.3866 0C20.6287 0 15.9457 4.68326 15.9457 10.441C15.9457 16.1987 20.6289 20.8819 26.3866 20.8819C32.1444 20.8819 36.8276 16.1987 36.8276 10.441C36.8363 4.69172 32.1531 0 26.3866 0ZM30.7554 12.5036C30.7554 12.888 30.4671 13.1764 30.0826 13.1764H27.173V16.7849C27.173 17.1694 26.8585 17.4839 26.474 17.4839C26.0896 17.4839 25.7751 17.1694 25.7751 16.7849V13.1764H22.8655C22.481 13.1764 22.1927 12.888 22.1927 12.5036V12.3026C22.1927 11.158 22.6296 10.0746 23.4422 9.25327C23.5208 9.17463 23.5907 9.10473 23.6781 9.03483V6.88545H23.4597C23.0752 6.88545 22.8043 6.58837 22.8043 6.19519V3.97591C22.8043 3.59146 23.0752 3.30312 23.4597 3.30312H29.471C29.8554 3.30312 30.1438 3.59146 30.1438 3.97591V6.20398C30.1438 6.58842 29.8642 6.89423 29.471 6.89423H29.27V9.0524C29.3574 9.1223 29.4273 9.1922 29.5059 9.27084C30.3185 10.0834 30.7554 11.1668 30.7554 12.3202L30.7554 12.5036Z" fill="white"/>
<path d="M28.2128 9.97863C28.1866 9.96116 28.1604 9.95242 28.1342 9.92621C27.6536 9.59419 27.0857 9.41943 26.4828 9.41943H26.4566C25.8537 9.41943 25.2858 9.58544 24.8052 9.92621C24.779 9.94368 24.7528 9.95242 24.7266 9.9699C24.613 10.0573 24.5081 10.1359 24.412 10.2408C23.9839 10.6689 23.7043 11.263 23.6082 11.7872H29.34C29.2439 11.263 28.9643 10.6776 28.5362 10.2495C28.4313 10.1359 28.3264 10.0573 28.2128 9.97863Z" fill="white"/>
<path d="M26.457 8.02114H26.5007C26.9812 8.02114 27.4356 8.0823 27.8725 8.23084V6.88525H25.0765V8.23084C25.5134 8.0823 25.9765 8.02114 26.457 8.02114Z" fill="white"/>
<path d="M19.1435 19.8162H9.37514C8.99069 19.8162 8.67615 19.5017 8.67615 19.1172C8.67615 18.7328 8.99069 18.4182 9.37514 18.4182H17.6321C15.7186 16.3212 14.5565 13.534 14.5565 10.4672C14.5565 8.78961 14.906 7.14701 15.5438 5.74902H7.77624V9.84688C7.77624 11.874 6.15985 13.5253 4.13277 13.5253H0V37.1865C0 38.7243 1.29318 39.9999 2.83096 39.9999H23.7393C25.277 39.9999 26.5614 38.7243 26.5614 37.1865V22.2895C26.4741 22.2895 26.4566 22.2983 26.4042 22.2983C23.6781 22.2983 21.1442 21.3896 19.1433 19.8169L19.1435 19.8162ZM5.83624 33.7961H3.25867C2.87422 33.7961 2.55967 33.4815 2.55967 33.0971C2.55967 32.7126 2.87422 32.3981 3.25867 32.3981H5.83624C6.22068 32.3981 6.53523 32.7126 6.53523 33.0971C6.53523 33.4815 6.22068 33.7961 5.83624 33.7961ZM5.83624 26.8061H3.25867C2.87422 26.8061 2.55967 26.4916 2.55967 26.1071C2.55967 25.7227 2.87422 25.4082 3.25867 25.4082H5.83624C6.22068 25.4082 6.53523 25.7227 6.53523 26.1071C6.53523 26.4916 6.22068 26.8061 5.83624 26.8061ZM5.83624 19.8162H3.25867C2.87422 19.8162 2.55967 19.5017 2.55967 19.1172C2.55967 18.7328 2.87422 18.4182 3.25867 18.4182H5.83624C6.22068 18.4182 6.53523 18.7328 6.53523 19.1172C6.53523 19.5017 6.22068 19.8162 5.83624 19.8162ZM23.3111 33.7961H9.37514C8.99069 33.7961 8.67615 33.4815 8.67615 33.0971C8.67615 32.7126 8.99069 32.3981 9.37514 32.3981H23.3111C23.6955 32.3981 24.0101 32.7126 24.0101 33.0971C24.0101 33.4815 23.6955 33.7961 23.3111 33.7961ZM23.3111 26.8061H9.37514C8.99069 26.8061 8.67615 26.4916 8.67615 26.1071C8.67615 25.7227 8.99069 25.4082 9.37514 25.4082H23.3111C23.6955 25.4082 24.0101 25.7227 24.0101 26.1071C24.0101 26.4916 23.6955 26.8061 23.3111 26.8061Z" fill="white"/>
<path d="M6.37784 9.84721V6.71045L1.02179 12.1276H4.13235C5.38183 12.1276 6.37784 11.1053 6.37784 9.84713V9.84721Z" fill="white"/>
<path d="M24.2026 4.70068H28.746V5.48705H24.2026V4.70068Z" fill="white"/>
</svg>
