<svg width="40" height="40" viewBox="0 0 40 40" fill="none" xmlns="http://www.w3.org/2000/svg">
<path d="M0.000244141 0H9.8246V2.10523H0.000244141V0Z" fill="white"/>
<path d="M0.000244141 13.3339H9.8246V3.50879H0.000244141V13.3339ZM7.22101 5.11594C7.38899 4.95049 7.62838 4.87934 7.85969 4.92649C7.9035 4.93431 7.94618 4.94854 7.9858 4.96862C8.03045 4.98397 8.07314 5.00518 8.1122 5.03168C8.14875 5.05791 8.18391 5.08581 8.21739 5.11595C8.34574 5.25043 8.41829 5.42845 8.42108 5.61428C8.42247 5.80095 8.34909 5.98035 8.21739 6.11233C8.14903 6.17428 8.0709 6.22394 7.9858 6.25994C7.81588 6.33471 7.62252 6.33471 7.4526 6.25994C7.3675 6.22422 7.28909 6.17428 7.22101 6.11233C7.08903 5.98035 7.01565 5.80095 7.01733 5.61428C7.01956 5.42845 7.09238 5.25015 7.22101 5.11594ZM2.10519 4.91254H4.91214C5.2997 4.91254 5.61387 5.22671 5.61387 5.61427C5.61387 6.00183 5.2997 6.316 4.91214 6.316H2.10519C1.71763 6.316 1.40345 6.00183 1.40345 5.61427C1.40345 5.22671 1.71763 4.91254 2.10519 4.91254Z" fill="white"/>
<path d="M14.7372 0H24.5615V2.10523H14.7372V0Z" fill="white"/>
<path d="M14.7372 13.3339H24.5623V3.50879H14.7372V13.3339ZM21.9587 5.11594C22.1266 4.95049 22.366 4.87934 22.5971 4.92649C22.6411 4.93431 22.6836 4.94854 22.7235 4.96862C22.7681 4.98397 22.8105 5.00518 22.8499 5.03168C22.8864 5.05791 22.9216 5.08581 22.955 5.11595C23.0834 5.25043 23.1559 5.42845 23.1585 5.61428C23.1601 5.80095 23.0867 5.98035 22.955 6.11233C22.8867 6.17428 22.8083 6.22394 22.7235 6.25994C22.5535 6.33471 22.3602 6.33471 22.1903 6.25994C22.1052 6.22422 22.0267 6.17428 21.9587 6.11233C21.8264 5.98035 21.7533 5.80095 21.755 5.61428C21.7572 5.42845 21.83 5.25015 21.9587 5.11594ZM16.8428 4.91254H19.6498C20.0374 4.91254 20.3515 5.22671 20.3515 5.61427C20.3515 6.00183 20.0374 6.316 19.6498 6.316H16.8428C16.4553 6.316 16.1411 6.00183 16.1411 5.61427C16.1411 5.22671 16.4553 4.91254 16.8428 4.91254Z" fill="white"/>
<path d="M39.2989 3.50879H29.4745V13.3339H39.2989V3.50879ZM34.3867 6.31602H31.5794C31.1919 6.31602 30.8777 6.00185 30.8777 5.61429C30.8777 5.22673 31.1919 4.91256 31.5794 4.91256H34.3867C34.7742 4.91256 35.0884 5.22673 35.0884 5.61429C35.0884 6.00185 34.7742 6.31602 34.3867 6.31602ZM37.6919 6.11234C37.6235 6.17428 37.5451 6.22395 37.4603 6.25994C37.2904 6.33472 37.0968 6.33472 36.9268 6.25994C36.842 6.22422 36.7636 6.17428 36.6952 6.11234C36.5633 5.98036 36.4899 5.80095 36.4918 5.61428C36.4941 5.42845 36.5669 5.25016 36.6952 5.11595C36.8635 4.95049 37.1029 4.87934 37.3339 4.9265C37.378 4.93431 37.4204 4.94854 37.4603 4.96863C37.505 4.98398 37.5474 5.00518 37.5867 5.03169C37.6233 5.05792 37.6584 5.08582 37.6919 5.11595C37.82 5.25044 37.8928 5.42846 37.8953 5.61429C37.897 5.80095 37.8236 5.98036 37.6919 6.11234Z" fill="white"/>
<path d="M29.4738 0H39.2981V2.10523H29.4738V0Z" fill="white"/>
<path d="M29.4737 14.7371V16.8424H33.6844V29.4739H29.4737C29.4654 29.4739 29.4584 29.4781 29.45 29.4786C29.4372 29.2914 29.4218 29.1047 29.3967 28.9172L26.7441 28.1664C26.5875 27.6114 26.366 27.0765 26.0842 26.5734L27.4246 24.1663C26.9123 23.5045 26.3183 22.9102 25.6562 22.3979L23.2421 23.7383C22.7421 23.4554 22.2094 23.2339 21.6561 23.0787L20.8983 20.4261C20.7164 20.4007 20.532 20.3853 20.3459 20.3728C20.3459 20.3641 20.3509 20.3572 20.3509 20.3488V16.842H24.5616V14.7368H14.7365V16.842H18.9472V20.351C18.9472 20.3594 18.9514 20.3663 18.9522 20.3747C18.7661 20.3873 18.5817 20.4029 18.3997 20.428L17.6419 23.0807C17.0867 23.2372 16.5521 23.4587 16.049 23.7403L13.6419 22.4001C12.9798 22.9121 12.3858 23.5064 11.8735 24.1686L13.2139 26.5827C12.931 27.0827 12.7094 27.6153 12.554 28.1686L9.90137 28.9195C9.87626 29.1047 9.86091 29.2914 9.84808 29.4809C9.83971 29.4809 9.83273 29.4758 9.82436 29.4758H5.61369V16.8422H9.82436V14.7369H0V16.8422H4.21039V29.4737C4.21039 30.2488 4.83874 30.8771 5.61383 30.8771H9.8245C9.83287 30.8771 9.83985 30.8729 9.84822 30.8721C9.86105 31.0582 9.8764 31.2426 9.90151 31.4246L12.5542 32.1824C12.7107 32.7373 12.9322 33.2722 13.2141 33.7753L11.8736 36.1824C12.3859 36.8442 12.9799 37.4385 13.6421 37.9508L16.0562 36.6104C16.5562 36.8933 17.0888 37.1149 17.6421 37.27L18.3999 39.9227C19.2294 40.0256 20.0687 40.0256 20.8983 39.9227L21.6561 37.27C22.2113 37.1135 22.7459 36.8922 23.249 36.6104L25.6561 37.9508C26.3182 37.4385 26.9122 36.8442 27.4245 36.1824L26.0841 33.7683C26.367 33.268 26.5886 32.7356 26.744 32.1824L29.3966 31.4246C29.4217 31.2426 29.4371 31.0582 29.4499 30.8721C29.4583 30.8721 29.4653 30.8771 29.4736 30.8771H33.6843C34.4595 30.8771 35.0878 30.2488 35.0878 29.4737V16.8422H39.2981V14.7369L29.4737 14.7371ZM23.123 33.6494C21.4659 35.3068 18.869 35.5626 16.9203 34.2607C14.9717 32.9588 14.2138 30.4619 15.1106 28.2967C16.0074 26.1315 18.3087 24.901 20.6073 25.358C22.9056 25.8154 24.5613 27.8324 24.5615 30.1759C24.5646 31.4792 24.0468 32.73 23.1229 33.6494L23.123 33.6494Z" fill="white"/>
<path d="M19.6494 26.6665C17.9814 26.6715 16.5493 27.8534 16.2275 29.4902C15.9058 31.1269 16.7842 32.7628 18.3263 33.399C19.8682 34.0349 21.6447 33.4939 22.5702 32.1063C23.4957 30.7187 23.3129 28.8705 22.1336 27.6911C21.4745 27.0332 20.5808 26.6646 19.6494 26.6665ZM21.1371 31.6632C20.535 32.2645 19.6301 32.4442 18.8439 32.1186C18.0579 31.7932 17.5448 31.0262 17.5443 30.1755C17.5412 29.6166 17.7638 29.08 18.1617 28.6877C18.9893 27.8808 20.3096 27.8808 21.1372 28.6877C21.5379 29.0784 21.7608 29.616 21.7546 30.1755C21.7577 30.7343 21.535 31.2706 21.1371 31.6632Z" fill="white"/>
<path d="M19.6494 29.4736C19.3642 29.472 19.1064 29.643 18.9973 29.9061C18.8879 30.1695 18.9488 30.4728 19.151 30.6734C19.427 30.9471 19.8718 30.9471 20.1477 30.6734C20.35 30.4728 20.4108 30.1695 20.3014 29.9061C20.1923 29.643 19.9345 29.472 19.6494 29.4736Z" fill="white"/>
</svg>
