<svg width="468" height="365" viewBox="0 0 468 365" fill="none" xmlns="http://www.w3.org/2000/svg">
<path d="M431.48 36.8533C429.497 34.8538 427.137 33.2667 424.538 32.1837C421.938 31.1006 419.15 30.543 416.333 30.543C413.517 30.543 410.729 31.1006 408.129 32.1837C405.529 33.2667 403.17 34.8538 401.187 36.8533L160.333 277.92L68.8134 186.187C64.7962 182.17 59.3478 179.913 53.6667 179.913C47.9856 179.913 42.5372 182.17 38.52 186.187C34.5029 190.204 32.2461 195.652 32.2461 201.333C32.2461 207.014 34.5029 212.463 38.52 216.48L145.187 323.147C147.17 325.146 149.529 326.733 152.129 327.816C154.729 328.899 157.517 329.457 160.333 329.457C163.15 329.457 165.938 328.899 168.538 327.816C171.137 326.733 173.497 325.146 175.48 323.147L431.48 67.1467C433.48 65.1635 435.067 62.804 436.15 60.2043C437.233 57.6046 437.79 54.8163 437.79 52C437.79 49.1837 437.233 46.3954 436.15 43.7957C435.067 41.196 433.48 38.8365 431.48 36.8533Z" fill="white"/>
</svg>
