<svg height="503pt" viewBox="-55 0 503 503.99985" width="503pt" xmlns="http://www.w3.org/2000/svg"><path d="m231.367188 252.199219h-1.019532c-7.882812 0-14.273437 6.386719-14.273437 14.269531v40.285156c0 7.882813 6.390625 14.269532 14.273437 14.269532h1.019532c7.882812 0 14.269531-6.390626 14.269531-14.269532v-40.285156c0-7.882812-6.386719-14.269531-14.269531-14.269531zm0 0" fill="#fcc24c"/><path d="m231.367188 325.027344h-1.019532c-10.074218 0-18.273437-8.199219-18.273437-18.273438v-40.285156c0-10.074219 8.199219-18.269531 18.273437-18.269531h1.019532c10.074218 0 18.273437 8.195312 18.273437 18.269531v40.285156c0 10.074219-8.199219 18.273438-18.273437 18.273438zm-1.019532-68.828125c-5.664062 0-10.273437 4.605469-10.273437 10.269531v40.285156c0 5.664063 4.609375 10.269532 10.273437 10.269532h1.019532c5.664062 0 10.273437-4.609376 10.273437-10.269532v-40.285156c0-5.664062-4.609375-10.269531-10.273437-10.269531zm0 0" fill="#690589"/><path d="m230.859375 356.996094c-2.210937 0-4-1.789063-4-4v-31.96875c0-2.210938 1.789063-4 4-4 2.207031 0 4 1.789062 4 4v31.96875c0 2.210937-1.792969 4-4 4zm0 0" fill="#690589"/><path d="m277.328125 252.199219h-1.023437c-7.878907 0-14.269532 6.386719-14.269532 14.269531v40.285156c0 7.882813 6.390625 14.269532 14.269532 14.269532h1.023437c7.878906 0 14.269531-6.390626 14.269531-14.269532v-40.285156c0-7.882812-6.390625-14.269531-14.269531-14.269531zm0 0" fill="#fcc24c"/><path d="m277.328125 325.027344h-1.023437c-10.074219 0-18.269532-8.199219-18.269532-18.273438v-40.285156c0-10.074219 8.195313-18.269531 18.269532-18.269531h1.023437c10.074219 0 18.269531 8.195312 18.269531 18.269531v40.285156c0 10.074219-8.195312 18.273438-18.269531 18.273438zm-1.023437-68.828125c-5.660157 0-10.269532 4.605469-10.269532 10.269531v40.285156c0 5.664063 4.609375 10.269532 10.269532 10.269532h1.023437c5.660156 0 10.269531-4.609376 10.269531-10.269532v-40.285156c0-5.664062-4.609375-10.269531-10.269531-10.269531zm0 0" fill="#690589"/><path d="m276.816406 356.996094c-2.207031 0-4-1.789063-4-4v-31.96875c0-2.210938 1.792969-4 4-4 2.210938 0 4 1.789062 4 4v31.96875c0 2.210937-1.789062 4-4 4zm0 0" fill="#690589"/><path d="m323.285156 252.199219h-1.019531c-7.882813 0-14.273437 6.386719-14.273437 14.269531v40.285156c0 7.882813 6.390624 14.269532 14.273437 14.269532h1.019531c7.882813 0 14.269532-6.390626 14.269532-14.269532v-40.285156c0-7.882812-6.386719-14.269531-14.269532-14.269531zm0 0" fill="#fcc24c"/><path d="m323.285156 325.027344h-1.019531c-10.074219 0-18.273437-8.199219-18.273437-18.273438v-40.285156c0-10.074219 8.199218-18.269531 18.273437-18.269531h1.019531c10.074219 0 18.269532 8.195312 18.269532 18.269531v40.285156c0 10.074219-8.195313 18.273438-18.269532 18.273438zm-1.019531-68.828125c-5.664063 0-10.273437 4.605469-10.273437 10.269531v40.285156c0 5.664063 4.609374 10.269532 10.273437 10.269532h1.019531c5.664063 0 10.269532-4.609376 10.269532-10.269532v-40.285156c0-5.664062-4.605469-10.269531-10.269532-10.269531zm0 0" fill="#690589"/><path d="m322.777344 356.996094c-2.210938 0-4-1.789063-4-4v-31.96875c0-2.210938 1.789062-4 4-4 2.207031 0 4 1.789062 4 4v31.96875c0 2.210937-1.792969 4-4 4zm0 0" fill="#690589"/><path d="m175.378906 304.160156h-93.007812c-11.046875 0-20 8.957032-20 20v28.835938h133.007812v-28.835938c0-11.042968-8.953125-20-20-20zm0 0" fill="#f4efed"/><path d="m174.664062 304.160156h-12.429687c11.441406 0 20.714844 9.277344 20.714844 20.71875v28.117188h12.429687v-28.117188c0-11.441406-9.273437-20.71875-20.714844-20.71875zm0 0" fill="#d6d1cf"/><path d="m83.089844 304.160156h12.429687c-11.441406 0-20.71875 9.277344-20.71875 20.71875v28.117188h-12.429687v-28.117188c0-11.441406 9.277344-20.71875 20.71875-20.71875zm0 0" fill="#fff"/><path d="m358.710938 146.792969h31.199218v314.738281h-31.199218zm0 0" fill="#d6d1cf"/><path d="m4.5 146.792969h31.199219v314.738281h-31.199219zm0 0" fill="#f4efed"/><path d="m389.910156 465.53125h-31.199218c-2.207032 0-4-1.792969-4-4v-314.738281c0-2.207031 1.792968-4 4-4h31.199218c2.210938 0 4 1.792969 4 4v314.738281c0 2.207031-1.789062 4-4 4zm-27.199218-8h23.199218v-306.738281h-23.199218zm0 0" fill="#690589"/><path d="m35.699219 465.53125h-31.199219c-2.207031 0-4-1.792969-4-4v-314.738281c0-2.207031 1.792969-4 4-4h31.199219c2.207031 0 4 1.792969 4 4v314.738281c0 2.207031-1.789063 4-4 4zm-27.199219-8h23.199219v-306.738281h-23.199219zm0 0" fill="#690589"/><path d="m4.5 352.996094h385.410156v147.003906h-385.410156zm0 0" fill="#fcc24c"/><path d="m369.195312 352.996094h20.714844v147.003906h-20.714844zm0 0" fill="#dea42e"/><path d="m4.5 352.996094h20.714844v147.003906h-20.714844zm0 0" fill="#fce06a"/><path d="m389.910156 504h-385.410156c-2.207031 0-4-1.792969-4-4v-147.003906c0-2.207032 1.792969-4 4-4h385.410156c2.207032 0 4 1.792968 4 4v147.003906c0 2.207031-1.789062 4-4 4zm-381.410156-8h377.410156v-139.003906h-377.410156zm0 0" fill="#690589"/><path d="m195.378906 356.996094h-133.007812c-2.207032 0-4-1.789063-4-4v-28.832032c0-13.234374 10.765625-24 24-24h93.007812c13.234375 0 24 10.765626 24 24v28.832032c0 2.210937-1.789062 4-4 4zm-129.007812-8h125.007812v-24.832032c0-8.820312-7.175781-16-16-16h-93.007812c-8.820313 0-16 7.179688-16 16zm0 0" fill="#690589"/><path d="m128.875 352.996094h136.660156v147.003906h-136.660156zm0 0" fill="#7bac51"/><path d="m244.820312 352.996094h20.714844v147.003906h-20.714844zm0 0" fill="#5d8e33"/><path d="m128.875 352.996094h20.71875v147.003906h-20.71875zm0 0" fill="#99ca6f"/><path d="m265.535156 504h-136.660156c-2.207031 0-4-1.792969-4-4v-147.003906c0-2.207032 1.792969-4 4-4h136.660156c2.207032 0 4 1.792968 4 4v147.003906c0 2.207031-1.789062 4-4 4zm-132.660156-8h128.660156v-139.003906h-128.660156zm0 0" fill="#690589"/><path d="m352.796875 204.128906h-3.289063c-20.5 0-37.117187-16.613281-37.117187-37.113281v-87.296875h77.519531v87.296875c0 20.5-16.617187 37.113281-37.113281 37.113281zm0 0" fill="#fcc24c"/><path d="m44.90625 204.128906h-3.292969c-20.496093 0-37.113281-16.613281-37.113281-37.113281v-87.296875h77.519531v87.296875c0 20.5-16.617187 37.113281-37.113281 37.113281zm0 0" fill="#fcc24c"/><path d="m369.195312 79.71875v85.96875c0 17.753906-12.046874 32.652344-28.402343 37.074219 3.207031.863281 6.5625 1.367187 10.039062 1.367187h.636719c21.230469 0 38.441406-17.210937 38.441406-38.441406v-85.96875zm0 0" fill="#dea42e"/><path d="m25.214844 79.71875v85.96875c0 17.753906 12.050781 32.652344 28.402344 37.074219-3.207032.863281-6.558594 1.367187-10.039063 1.367187h-.632813c-21.234374 0-38.445312-17.210937-38.445312-38.441406v-85.96875zm0 0" fill="#fce06a"/><g fill="#690589"><path d="m44.90625 208.128906h-3.289062c-22.671876 0-41.117188-18.441406-41.117188-41.113281v-87.296875c0-2.207031 1.792969-4 4-4h77.523438c2.207031 0 4 1.792969 4 4v87.296875c-.003907 22.671875-18.445313 41.113281-41.117188 41.113281zm-36.40625-124.410156v83.296875c0 18.261719 14.855469 33.117187 33.113281 33.117187h3.292969c18.257812 0 33.113281-14.855468 33.113281-33.117187v-83.296875zm0 0"/><path d="m352.796875 208.128906h-3.289063c-22.671874 0-41.117187-18.441406-41.117187-41.113281v-87.296875c0-2.207031 1.792969-4 4-4h77.519531c2.210938 0 4 1.792969 4 4v87.296875c0 22.671875-18.441406 41.113281-41.113281 41.113281zm-36.40625-124.410156v83.296875c0 18.261719 14.855469 33.117187 33.117187 33.117187h3.289063c18.257813 0 33.113281-14.855468 33.113281-33.117187v-83.296875zm0 0"/><path d="m21.074219 130.253906c-2.207031 0-4-1.792968-4-4v-24c0-2.207031 1.792969-4 4-4s4 1.792969 4 4v24c0 2.210938-1.792969 4-4 4zm0 0"/></g><path d="m121.695312 204.128906h-3.289062c-20.5 0-37.113281-16.613281-37.113281-37.113281v-87.296875h77.519531v87.296875c-.003906 20.5-16.617188 37.113281-37.117188 37.113281zm0 0" fill="#7bac51"/><path d="m275.277344 204.128906h-3.292969c-20.5 0-37.113281-16.613281-37.113281-37.113281v-87.296875h77.519531v87.296875c0 20.5-16.617187 37.113281-37.113281 37.113281zm0 0" fill="#7bac51"/><path d="m121.695312 208.128906h-3.289062c-22.671875 0-41.117188-18.441406-41.117188-41.113281v-87.296875c0-2.207031 1.792969-4 4-4h77.523438c2.207031 0 4 1.792969 4 4v87.296875c0 22.671875-18.445312 41.113281-41.117188 41.113281zm-36.40625-124.410156v83.296875c0 18.261719 14.855469 33.117187 33.117188 33.117187h3.292969c18.257812 0 33.113281-14.855468 33.113281-33.117187v-83.296875zm0 0" fill="#690589"/><path d="m275.277344 208.128906h-3.292969c-22.671875 0-41.117187-18.441406-41.117187-41.113281v-87.296875c0-2.207031 1.792968-4 4-4h77.523437c2.207031 0 4 1.792969 4 4v87.296875c0 22.671875-18.441406 41.113281-41.113281 41.113281zm-36.40625-124.410156v83.296875c0 18.261719 14.855468 33.117187 33.113281 33.117187h3.292969c18.261718 0 33.117187-14.855468 33.117187-33.117187v-83.296875zm0 0" fill="#690589"/><path d="m198.484375 204.128906h-3.289063c-20.5 0-37.117187-16.613281-37.117187-37.113281v-87.296875h77.523437v87.296875c0 20.5-16.617187 37.113281-37.117187 37.113281zm0 0" fill="#fcc24c"/><path d="m198.488281 208.128906h-3.292969c-22.667968 0-41.113281-18.441406-41.113281-41.113281v-87.296875c0-2.207031 1.792969-4 4-4h77.519531c2.207032 0 4 1.792969 4 4v87.296875c0 22.671875-18.445312 41.113281-41.113281 41.113281zm-36.40625-124.410156v83.296875c0 18.261719 14.855469 33.117187 33.113281 33.117187h3.292969c18.257813 0 33.113281-14.855468 33.113281-33.117187v-83.296875zm0 0" fill="#690589"/><path d="m264.34375 64.414062c-6.492188-.683593-9.808594-8.136718-5.972656-13.417968 3.273437-4.503906 1.414062-10.941406-3.800782-12.894532-5.386718-2.015624-11.921874-1.773437-19.714843 1.695313-5.21875 2.324219-10.742188 5.984375-15.769531 10.332031 3.300781-8.1875 5.257812-17.304687 5.257812-24.941406 0-8.53125-2.4375-14.597656-6.46875-18.699219-3.902344-3.96875-10.542969-3.050781-13.324219 1.773438-3.265625 5.652343-11.425781 5.652343-14.6875 0-2.785156-4.824219-9.421875-5.742188-13.324219-1.773438-4.03125 4.101563-6.46875 10.167969-6.46875 18.699219 0 7.636719 1.957032 16.753906 5.257813 24.941406-5.027344-4.347656-10.550781-8.007812-15.769531-10.332031-7.792969-3.46875-14.328125-3.710937-19.714844-1.695313-5.214844 1.953126-7.070312 8.390626-3.800781 12.894532 3.839843 5.28125.519531 12.734375-5.972657 13.417968-5.535156.582032-9.078124 6.277344-7.035156 11.457032 2.105469 5.351562 6.660156 10.042968 14.453125 13.511718 5.210938 2.316407 11.617188 3.972657 18.199219 4.796876-5.160156 4.324218-9.714844 9.28125-12.863281 14.136718-4.636719 7.160156-5.894531 13.574219-4.742188 19.210938 1.117188 5.453125 7.191407 8.292968 12.148438 5.761718 5.8125-2.972656 12.660156 1.464844 12.328125 7.984376-.285156 5.558593 4.785156 9.945312 10.21875 8.734374 5.613281-1.246093 10.957031-5.019531 15.597656-12.175781 3.902344-6.023437 7.070312-14.082031 8.835938-22.222656 1.761718 8.140625 4.929687 16.199219 8.835937 22.222656 4.640625 7.160157 9.980469 10.929688 15.59375 12.175781 5.433594 1.207032 10.507813-3.175781 10.222656-8.734374-.335937-6.519532 6.511719-10.957032 12.324219-7.984376 4.957031 2.53125 11.03125-.308593 12.148438-5.761718 1.152343-5.632813-.105469-12.050782-4.742188-19.210938-3.144531-4.855468-7.699219-9.8125-12.863281-14.136718 6.585937-.824219 12.992187-2.480469 18.199219-4.796876 7.792968-3.46875 12.347656-8.160156 14.457031-13.511718 2.035156-5.179688-1.507813-10.871094-7.042969-11.457032zm0 0" fill="#ff4397"/><path d="m170.9375 154.210938c-2.878906 0-5.679688-1.011719-7.953125-2.933594-3.015625-2.550782-4.625-6.269532-4.425781-10.210938.121094-2.332031-1.382813-3.566406-2.039063-3.988281-.652343-.425781-2.394531-1.296875-4.472656-.230469-3.511719 1.792969-7.566406 1.839844-11.125.128906-3.519531-1.691406-5.980469-4.84375-6.761719-8.648437-1.445312-7.0625.339844-14.527344 5.304688-22.1875 2.050781-3.167969 4.628906-6.351563 7.613281-9.429687-4.066406-.941407-7.863281-2.183594-11.21875-3.675782-8.339844-3.714844-13.910156-8.996094-16.550781-15.699218-1.421875-3.617188-1.078125-7.601563.949218-10.941407 2.046876-3.371093 5.472657-5.542969 9.394532-5.957031 2.320312-.242188 3.304687-1.921875 3.621094-2.632812.316406-.710938.90625-2.566407-.46875-4.453126-2.316407-3.191406-2.996094-7.191406-1.859376-10.96875 1.125-3.738281 3.855469-6.664062 7.492188-8.027343 6.75-2.527344 14.402344-1.925781 22.742188 1.789062 2.195312.976563 4.433593 2.164063 6.679687 3.539063-1.164063-5.039063-1.792969-10.011719-1.792969-14.496094 0-9.128906 2.5625-16.367188 7.617188-21.503906 2.722656-2.769532 6.5-4.074219 10.375-3.582032 3.917968.5 7.292968 2.746094 9.265625 6.160157 1.167969 2.023437 3.105469 2.238281 3.878906 2.238281.777344 0 2.710937-.214844 3.878906-2.238281 1.972657-3.414063 5.351563-5.660157 9.265625-6.160157 3.882813-.492187 7.65625.8125 10.375 3.585938 5.054688 5.136719 7.617188 12.371094 7.617188 21.503906 0 4.484375-.625 9.457032-1.789063 14.492188 2.242188-1.375 4.484375-2.5625 6.675781-3.539063 8.34375-3.710937 15.996094-4.3125 22.742188-1.785156 3.640625 1.359375 6.371094 4.285156 7.492188 8.023437 1.136718 3.78125.460937 7.78125-1.859376 10.96875-1.375 1.886719-.785156 3.746094-.46875 4.453126.316407.710937 1.300782 2.390624 3.625 2.636718 3.921876.410156 7.34375 2.582032 9.390626 5.957032 2.027343 3.335937 2.375 7.324218.953124 10.9375-2.644531 6.707031-8.210937 11.988281-16.550781 15.703124-3.359375 1.492188-7.152343 2.734376-11.222656 3.675782 2.984375 3.078125 5.5625 6.261718 7.617187 9.429687 4.960938 7.660157 6.75 15.125 5.300782 22.183594-.777344 3.808594-3.242188 6.960937-6.761719 8.652344-3.554687 1.710937-7.609375 1.664062-11.125-.128907-2.078125-1.066406-3.820313-.195312-4.472656.230469-.652344.421875-2.15625 1.65625-2.039063 3.988281.203125 3.941407-1.40625 7.660157-4.421875 10.207032-2.984375 2.523437-6.875 3.476562-10.660156 2.636718-7.035156-1.5625-13.121094-6.242187-18.082031-13.902343-2.050782-3.164063-3.902344-6.804688-5.480469-10.738281-1.578125 3.933593-3.429687 7.574218-5.476563 10.738281-4.964843 7.660156-11.046874 12.339843-18.085937 13.902343-.898437.199219-1.804687.296876-2.703125.296876zm-16.835938-25.871094c2.351563 0 4.691407.679687 6.769532 2.027344 3.785156 2.453124 5.910156 6.605468 5.679687 11.113281-.074219 1.421875.507813 2.765625 1.597657 3.6875 1.058593.894531 2.429687 1.234375 3.757812.9375 4.914062-1.09375 9.324219-4.609375 13.109375-10.449219 3.585937-5.53125 6.605469-13.148438 8.28125-20.894531.402344-1.839844 2.027344-3.152344 3.910156-3.152344 1.882813 0 3.511719 1.3125 3.910157 3.152344 1.679687 7.746093 4.699218 15.363281 8.285156 20.894531 3.785156 5.839844 8.195312 9.355469 13.109375 10.449219 1.320312.292969 2.699219-.046875 3.753906-.941407 1.089844-.921874 1.671875-2.261718 1.601563-3.683593-.234376-4.507813 1.890624-8.664063 5.679687-11.117188 3.78125-2.453125 8.441406-2.691406 12.460937-.636719 1.265626.644532 2.730469.664063 4.015626.042969 1.246093-.597656 2.121093-1.707031 2.390624-3.046875 1.011719-4.929687-.394531-10.394531-4.183593-16.230468-2.859375-4.417969-7.148438-9.121094-12.074219-13.25-1.214844-1.019532-1.714844-2.667969-1.265625-4.195313.453125-1.523437 1.761719-2.640625 3.339844-2.835937 6.28125-.785157 12.339843-2.378907 17.070312-4.484376 6.355469-2.828124 10.515625-6.636718 12.359375-11.320312.5-1.269531.375-2.675781-.34375-3.859375-.742187-1.21875-1.976562-2.003906-3.390625-2.152344-4.488281-.472656-8.261719-3.214843-10.097656-7.335937-1.832031-4.121094-1.34375-8.761719 1.308594-12.410156.835937-1.152344 1.082031-2.597657.667969-3.960938-.394532-1.324219-1.355469-2.359375-2.632813-2.835938-4.71875-1.769531-10.328125-1.226562-16.683594 1.601563-4.742187 2.109375-9.988281 5.554687-14.78125 9.703125-1.398437 1.210938-3.441406 1.304688-4.941406.230469-1.503906-1.074219-2.078125-3.039063-1.386719-4.75 3.15625-7.832031 4.964844-16.375 4.964844-23.449219 0-6.957031-1.789062-12.304688-5.316406-15.894531-.957032-.976563-2.300782-1.429688-3.664063-1.257813-1.414062.179688-2.636719.992188-3.347656 2.226563-2.253906 3.90625-6.296875 6.238281-10.808594 6.238281s-8.550781-2.335938-10.808593-6.238281c-.707032-1.234375-1.929688-2.042969-3.347657-2.226563-1.371093-.171875-2.707031.28125-3.660156 1.253906-3.53125 3.589844-5.320313 8.9375-5.320313 15.898438 0 7.070312 1.8125 15.617188 4.964844 23.445312.691406 1.714844.121094 3.675782-1.382812 4.75-1.5 1.074219-3.542969.980469-4.941406-.230468-4.792969-4.148438-10.042969-7.589844-14.78125-9.699219-6.355469-2.828125-11.964844-3.371094-16.6875-1.605469-1.277344.476563-2.234376 1.511719-2.632813 2.835938-.410156 1.367187-.167969 2.8125.671875 3.960937 2.652344 3.652344 3.140625 8.289063 1.304688 12.410157-1.835938 4.125-5.609376 6.867187-10.09375 7.335937-1.417969.152344-2.652344.933594-3.394532 2.15625-.714844 1.179687-.839844 2.585937-.339844 3.855469 1.84375 4.683594 6 8.492187 12.359376 11.320312 4.726562 2.105469 10.789062 3.695313 17.066406 4.484375 1.582031.195313 2.890625 1.3125 3.339844 2.835938.453124 1.527343-.046876 3.175781-1.265626 4.195312-4.925781 4.128907-9.210937 8.835938-12.074218 13.25-3.785156 5.839844-5.191406 11.300781-4.183594 16.234375.273438 1.335938 1.144531 2.445313 2.390625 3.042969 1.289063.617187 2.753906.601563 4.019531-.042969 1.8125-.921875 3.753906-1.382812 5.691406-1.382812zm0 0" fill="#690589"/><path d="m214.78125 79.578125c0 9.707031-7.867188 17.574219-17.574219 17.574219s-17.578125-7.867188-17.578125-17.574219 7.871094-17.578125 17.578125-17.578125 17.574219 7.871094 17.574219 17.578125zm0 0" fill="#f4efed"/><path d="m197.207031 101.152344c-11.898437 0-21.578125-9.679688-21.578125-21.578125 0-11.894531 9.679688-21.574219 21.578125-21.574219 11.894531 0 21.574219 9.679688 21.574219 21.574219 0 11.898437-9.679688 21.578125-21.574219 21.578125zm0-35.152344c-7.488281 0-13.578125 6.089844-13.578125 13.574219 0 7.488281 6.089844 13.578125 13.578125 13.578125 7.484375 0 13.574219-6.089844 13.574219-13.578125s-6.089844-13.574219-13.574219-13.574219zm0 0" fill="#690589"/></svg>