<?xml version="1.0" encoding="iso-8859-1"?>
<!-- Generator: Adobe Illustrator 19.0.0, SVG Export Plug-In . SVG Version: 6.00 Build 0)  -->
<svg xmlns="http://www.w3.org/2000/svg" xmlns:xlink="http://www.w3.org/1999/xlink" version="1.1" id="Layer_1" x="0px" y="0px" viewBox="0 0 503.528 503.528" style="enable-background:new 0 0 503.528 503.528;" xml:space="preserve" width="512" height="512">
<g>
	<g>
		<g>
			<path style="fill:#FFCBB3;" d="M496.031,398.691c0,13.673-10.53,24.878-23.919,25.949c-0.698,0.059-1.409,0.089-2.119,0.089     c-1.823,0-3.599-0.184-5.315-0.545h-156.83c-1.717,0.361-3.492,0.545-5.315,0.545h-0.018c-14.377-0.012-26.02-11.66-26.02-26.038     c0-13.555,10.358-24.688,23.593-25.913c0.805-0.083,1.622-0.118,2.444-0.118c1.095,0,2.166,0.065,3.226,0.195h161.009     c1.06-0.13,2.131-0.195,3.226-0.195c1.545,0,3.06,0.136,4.528,0.397C486.744,375.193,496.031,385.859,496.031,398.691z"/>
			<path style="fill:#E89876;" d="M474.521,373.056v32.981c0,6.404-0.835,12.637-2.409,18.604c-0.698,0.059-1.409,0.089-2.119,0.089     c-1.823,0-3.599-0.184-5.315-0.545h-156.83c-1.717,0.361-3.492,0.545-5.315,0.545h-0.018c-1.586-5.996-2.427-12.252-2.427-18.692     v-33.259c0.805-0.083,1.622-0.118,2.444-0.118c1.095,0,2.166,0.065,3.226,0.195h161.009c1.06-0.13,2.131-0.195,3.226-0.195     C471.538,372.66,473.053,372.796,474.521,373.056z"/>
			<path style="fill:#E89876;" d="M466.766,361.123v54.112c0,38.722-27.701,70.975-64.369,78.025     c-4.883,0.941-9.932,1.432-15.094,1.432c-43.884,0-79.457-35.573-79.457-79.457v-54.112c0-43.884,35.573-79.463,79.457-79.463     c5.161,0,10.21,0.491,15.094,1.433c15.893,3.054,30.098,10.844,41.096,21.841C457.87,319.317,466.766,339.182,466.766,361.123z"/>
			<path style="fill:#FFCBB3;" d="M466.766,361.123v54.112c0,38.722-27.701,70.975-64.369,78.025     c-36.668-7.05-64.369-39.302-64.369-78.025v-54.112c0-38.722,27.701-70.981,64.369-78.03     c15.893,3.054,30.098,10.844,41.096,21.841C457.87,319.317,466.766,339.182,466.766,361.123z"/>
			<path style="fill:#F9A74D;" d="M462.042,244.288l-35.647,35.647c-3.02-7.415-10.288-12.647-18.788-12.647     c-6.975,0-13.126,3.522-16.777,8.883c-9.316-11.477-23.532-18.813-39.468-18.813c-28.076,0-50.835,22.76-50.835,50.835     c0,28.076,22.76,50.835,50.835,50.835c11.729,0,22.521-3.982,31.122-10.654c25.245,14.469,57.996,10.936,79.559-10.626     C487.85,311.939,487.85,270.096,462.042,244.288z"/>
			<path style="fill:#E06919;" d="M331.031,308.193c0,22.759,14.957,42.03,35.576,48.505c-4.804,1.516-9.931,2.329-15.247,2.329     c-28.075,0-50.835-22.759-50.835-50.835c0-28.076,22.759-50.835,50.835-50.835c5.316,0,10.432,0.814,15.247,2.329     C345.988,266.163,331.031,285.434,331.031,308.193z"/>
		</g>
		<g>
			<path style="fill:#3E5268;" d="M210.815,373.844l6.559-10.526c1.867-2.996,2.965-6.438,2.978-9.968c0-0.026,0-0.053,0-0.079     c0-4.425-1.384-8.536-3.737-11.918c4.338-3.83,7.079-9.425,7.079-15.668c0-9.004-5.695-16.677-13.676-19.618     c0.434-1.678,0.668-3.436,0.668-5.247c0-11.551-9.365-20.909-20.909-20.909c-1.618,0-3.188,0.187-4.706,0.541     c-0.087-11.47-9.412-20.741-20.902-20.741c-3.483,0-6.771,0.862-9.659,2.366c-1.865-9.632-10.341-16.905-20.521-16.905     c-6.263,0-11.878,2.754-15.708,7.112c-3.83-4.358-9.445-7.112-15.708-7.112c-10.18,0-18.656,7.273-20.521,16.905     c-2.888-1.504-6.176-2.366-9.659-2.366c-11.49,0-20.815,9.271-20.902,20.741c-1.517-0.354-3.088-0.541-4.706-0.541     c-11.544,0-20.909,9.358-20.909,20.909c0,1.811,0.234,3.569,0.668,5.247c-7.981,2.941-13.676,10.615-13.676,19.618     c0,6.243,2.741,11.838,7.079,15.668c-2.353,3.382-3.737,7.493-3.737,11.918c0,0.026,0,0.053,0,0.079     c0.013,3.53,1.111,6.972,2.978,9.968l6.559,10.526"/>
			<path style="fill:#27394C;" d="M118.644,262.076c-2.888-1.504-6.176-2.366-9.659-2.366c-11.49,0-20.815,9.271-20.902,20.741     c-1.517-0.354-3.088-0.541-4.706-0.541c-11.544,0-20.909,9.358-20.909,20.909c0,1.811,0.234,3.569,0.668,5.247     c-7.981,2.941-13.676,10.615-13.676,19.618c0,6.243,2.741,11.838,7.079,15.668c-2.353,3.382-3.737,7.493-3.737,11.918v0.08     c0.013,3.529,1.11,6.972,2.975,9.966l6.564,10.528h-36.59l-6.557-10.528c-1.865-2.995-2.968-6.437-2.981-9.966v-0.08     c0-4.425,1.384-8.536,3.737-11.918c-4.338-3.83-7.079-9.425-7.079-15.668c0-9.004,5.695-16.677,13.676-19.618     c-0.434-1.678-0.668-3.436-0.668-5.247c0-11.551,9.365-20.909,20.909-20.909c1.618,0,3.188,0.187,4.706,0.541     c0.087-11.47,9.412-20.741,20.902-20.741c3.483,0,6.771,0.862,9.659,2.366c1.865-9.632,10.341-16.905,20.521-16.905     c5.341,0,10.214,2.005,13.903,5.307C116.204,254.784,116.859,259.002,118.644,262.076z"/>
			<path style="fill:#C99061;" d="M227.005,398.691c0,13.673-10.53,24.877-23.919,25.949c-0.698,0.059-1.409,0.089-2.119,0.089     c-1.823,0-3.599-0.184-5.315-0.545H38.824c-1.717,0.361-3.492,0.545-5.315,0.545h-0.018c-14.377-0.012-26.02-11.66-26.02-26.037     c0-13.554,10.358-24.688,23.593-25.913c0.805-0.083,1.622-0.118,2.444-0.118c1.095,0,2.166,0.065,3.226,0.195h161.007     c1.06-0.13,2.131-0.195,3.226-0.195c1.545,0,3.06,0.136,4.528,0.397C217.718,375.192,227.005,385.858,227.005,398.691z"/>
			<path style="fill:#A86340;" d="M205.495,373.056v32.98c0,6.404-0.835,12.637-2.409,18.603c-0.698,0.059-1.409,0.089-2.119,0.089     c-1.823,0-3.599-0.184-5.315-0.545H38.824c-1.717,0.361-3.492,0.545-5.315,0.545h-0.018c-1.586-5.996-2.427-12.252-2.427-18.692     v-33.259c0.805-0.083,1.622-0.118,2.444-0.118c1.095,0,2.166,0.065,3.226,0.195h161.007c1.06-0.13,2.131-0.195,3.226-0.195     C202.512,372.659,204.027,372.795,205.495,373.056z"/>
			<path style="fill:#A86340;" d="M197.739,362.209v53.027c0,38.722-27.7,70.974-64.37,78.019c-4.88,0.942-9.926,1.437-15.093,1.437     c-43.883,0-79.45-35.574-79.45-79.457v-53.02c3.817,4.111,9.264,6.678,15.314,6.678c5.815,0,11.076-2.373,14.866-6.21     c3.73-3.777,6.036-8.964,6.036-14.692c0-1.197-0.1-2.366-0.294-3.509c0.087,0.007,0.174,0.007,0.261,0.007     c7.146,0,13.449-3.583,17.225-9.057c2.861,1.471,6.096,2.306,9.539,2.306c6.711,0,12.687-3.168,16.51-8.088     c3.823,4.92,9.793,8.088,16.51,8.088c3.436,0,6.678-0.836,9.539-2.306c3.77,5.474,10.08,9.057,17.226,9.057     c0.087,0,0.174,0,0.261-0.007c-0.194,1.143-0.301,2.313-0.301,3.509c0,11.544,9.365,20.902,20.909,20.902     C188.475,368.893,193.929,366.32,197.739,362.209z"/>
			<path style="fill:#C99061;" d="M197.739,362.209v53.027c0,38.722-27.7,70.974-64.37,78.019     c-36.664-7.045-64.363-39.297-64.363-78.019v-52.552c3.73-3.777,6.036-8.964,6.036-14.692c0-1.197-0.1-2.366-0.294-3.509     c0.087,0.007,0.174,0.007,0.261,0.007c7.146,0,13.449-3.583,17.225-9.057c2.861,1.471,6.096,2.306,9.539,2.306     c6.711,0,12.687-3.168,16.51-8.088c3.823,4.92,9.793,8.088,16.51,8.088c3.436,0,6.678-0.836,9.539-2.306     c3.77,5.474,10.08,9.057,17.226,9.057c0.087,0,0.174,0,0.261-0.007c-0.194,1.143-0.301,2.313-0.301,3.509     c0,11.544,9.365,20.902,20.909,20.902C188.475,368.893,193.929,366.32,197.739,362.209z"/>
		</g>
		<g>
			<path style="fill:#FFE563;" d="M315.071,193.838c88.015,0,39.208-46.038,39.208-103.669S308.497,8.834,252.518,8.834     S150.757,32.538,150.757,90.169s-48.808,103.669,39.208,103.669"/>
			<path style="fill:#FFA829;" d="M200.969,90.171c0,57.629-24.724,103.67,19.859,103.67h-30.861     c-88.018,0-39.21-46.041-39.21-103.67c0-57.635,45.784-81.337,101.764-81.337C224.157,8.834,200.969,32.536,200.969,90.171z"/>
			<path style="fill:#E89876;" d="M332.751,106.265V143.7c0,39.097-27.969,71.661-64.992,78.779     c-4.93,0.95-10.028,1.446-15.239,1.446c-44.308,0-80.225-35.917-80.225-80.225v-37.435c10.327-0.06,20.708-1.428,30.473-4.315     c22.716-6.705,42.091-21.652,49.752-47.607C263.468,91.456,298.387,106.062,332.751,106.265z"/>
			<path style="fill:#FFCBB3;" d="M332.751,106.265V143.7c0,39.097-27.969,71.661-64.992,78.779     c-37.023-7.118-64.992-39.682-64.992-78.779v-41.75c22.716-6.705,42.091-21.652,49.752-47.607     C263.468,91.456,298.387,106.062,332.751,106.265z"/>
		</g>
	</g>
	<g>
		<path d="M474.269,365.443v-4.321c0-7.621-0.997-15.14-2.94-22.418c24.618-28.88,23.304-72.432-3.983-99.72    c-1.407-1.406-3.314-2.197-5.304-2.197s-3.896,0.79-5.304,2.197l-29.206,29.206c-5.123-5.283-12.238-8.403-19.927-8.403    c-6.094,0-11.92,1.995-16.666,5.555c-10.71-9.923-24.742-15.485-39.579-15.485c-32.166,0-58.335,26.169-58.335,58.335    c0,11.942,3.613,23.054,9.795,32.31c-1.635,6.716-2.471,13.634-2.471,20.619v4.119c-17.464,1.144-31.325,15.705-31.325,33.451    c0,18.304,14.742,33.221,32.975,33.524c3.334,16.961,11.657,32.523,24.254,44.945c1.461,1.441,3.363,2.16,5.266,2.16    c1.937,0,3.873-0.746,5.34-2.234c2.909-2.949,2.876-7.698-0.074-10.606c-13.823-13.631-21.436-31.829-21.436-51.241v-54.116    c0-2.288,0.116-4.566,0.329-6.829c9.872,7.659,22.249,12.235,35.682,12.235c11.398,0,22.261-3.224,31.698-9.366    c24.495,11.956,53.615,9.237,75.436-6.563c0.509,3.467,0.774,6.98,0.774,10.523v54.116c0,34.45-24.513,64.165-58.291,70.655    c-4.477,0.864-9.076,1.301-13.672,1.301c-10.678,0-20.95-2.28-30.531-6.776c-3.748-1.759-8.216-0.147-9.976,3.603    c-1.76,3.75-0.147,8.216,3.603,9.976c11.591,5.439,24.007,8.197,36.904,8.197c5.547,0,11.103-0.529,16.508-1.572    c35.177-6.76,62.025-34.364,68.784-68.504c17.278-1.336,30.931-15.812,30.931-33.427    C503.528,381.653,490.747,367.551,474.269,365.443z M284.023,398.691c0-9.469,7.145-17.289,16.325-18.387v34.934    c0,0.62,0.033,1.235,0.045,1.853C291.191,416.014,284.023,408.179,284.023,398.691z M456.739,332.444    c-18.656,18.655-47.656,22.53-70.526,9.423c-2.637-1.511-5.925-1.281-8.326,0.581c-7.658,5.94-16.831,9.081-26.526,9.081    c-23.895,0-43.335-19.44-43.335-43.335s19.44-43.335,43.335-43.335c13.108,0,25.371,5.846,33.645,16.04    c1.494,1.84,3.765,2.863,6.137,2.767c2.368-0.099,4.55-1.312,5.885-3.271c2.392-3.51,6.347-5.606,10.579-5.606    c5.222,0,9.87,3.131,11.843,7.976c0.948,2.327,2.998,4.025,5.461,4.523c2.462,0.496,5.012-0.271,6.789-2.048l30.006-30.006    C479.438,278.191,477.784,311.398,456.739,332.444z M474.236,416.721c0.009-0.495,0.033-0.986,0.033-1.482v-34.56    c8.163,1.938,14.26,9.269,14.26,18.014C488.528,407.452,482.415,414.794,474.236,416.721z"/>
		<path d="M361.215,427.095c-2.93-2.929-7.678-2.929-10.607,0c-2.929,2.929-2.929,7.677,0,10.606    c10.118,10.118,23.408,15.177,36.698,15.177s26.58-5.059,36.698-15.177c2.929-2.929,2.929-7.677,0-10.606    c-2.93-2.929-7.678-2.929-10.607,0C399.01,441.481,375.602,441.481,361.215,427.095z"/>
		<path d="M352.689,377.489c-4.143,0-7.5,3.358-7.5,7.5v19.532c0,4.142,3.357,7.5,7.5,7.5s7.5-3.358,7.5-7.5v-19.532    C360.189,380.847,356.832,377.489,352.689,377.489z"/>
		<path d="M429.423,404.521v-19.532c0-4.142-3.357-7.5-7.5-7.5s-7.5,3.358-7.5,7.5v19.532c0,4.142,3.357,7.5,7.5,7.5    S429.423,408.663,429.423,404.521z"/>
		<path d="M234.503,398.691c0-11.012-5.338-20.8-13.562-26.917l2.798-4.49c2.672-4.288,4.095-9.097,4.113-13.906    c0-0.01,0-0.098,0-0.108c0-3.754-0.73-7.417-2.141-10.826c3.53-4.826,5.482-10.688,5.482-16.76c0-9.742-5.05-18.717-13.025-23.877    c0.012-0.329,0.018-0.659,0.018-0.989c0-15.129-11.889-27.534-26.813-28.365c-3.526-11.687-14.416-20.244-27.202-20.244    c-1.72,0-3.438,0.159-5.127,0.47c-4.839-9.031-14.373-15.009-25.053-15.009c-5.641,0-11.096,1.679-15.709,4.741    c-4.613-3.062-10.067-4.741-15.708-4.741c-10.68,0-20.214,5.978-25.053,15.009c-1.689-0.311-3.407-0.47-5.127-0.47    c-12.786,0-23.676,8.557-27.202,20.244c-14.925,0.83-26.813,13.235-26.813,28.365c0,0.33,0.006,0.659,0.018,0.989    c-7.976,5.159-13.025,14.134-13.025,23.877c0,6.072,1.952,11.934,5.482,16.761c-1.41,3.409-2.141,7.072-2.141,10.825    c0,0.01,0,0.098,0,0.108c0.019,4.809,1.441,9.617,4.113,13.905l2.17,3.483C5.965,376.781,0,387.051,0,398.691    c0,18.311,14.753,33.232,32.995,33.524c7.919,39.847,43.146,69.978,85.281,69.978c5.554,0,11.109-0.529,16.508-1.572    c35.177-6.759,62.024-34.362,68.783-68.502C220.847,430.785,234.503,416.308,234.503,398.691z M15,398.691    c0-9.469,7.145-17.289,16.326-18.387v34.932c0,0.619,0.01,1.236,0.023,1.852C22.157,416,15,408.171,15,398.691z M190.239,415.235    c0,34.451-24.513,64.166-58.292,70.656c-4.471,0.863-9.07,1.301-13.671,1.301c-39.674,0-71.95-32.28-71.95-71.957v-39.945    c2.521,0.724,5.151,1.103,7.813,1.103c14.641,0,26.729-11.134,28.242-25.379c4.507-1.213,8.656-3.522,12.072-6.728    c2.367,0.633,4.813,0.951,7.318,0.951c6.031,0,11.757-1.868,16.51-5.277c4.754,3.409,10.479,5.277,16.511,5.277    c2.465,0,4.927-0.326,7.306-0.959c3.415,3.21,7.567,5.521,12.077,6.735c1.515,14.245,13.606,25.38,28.25,25.38    c2.662,0,5.292-0.379,7.813-1.103V415.235z M200.478,355.227c-2.874-1.127-6.143-0.379-8.238,1.884    c-2.561,2.762-6.046,4.283-9.813,4.283c-7.394,0-13.409-6.012-13.409-13.402c0-0.731,0.065-1.491,0.195-2.258    c0.386-2.275-0.299-4.601-1.854-6.305c-1.497-1.642-3.654-2.536-5.854-2.439c-4.393-0.017-8.501-2.187-10.997-5.812    c-2.14-3.106-6.252-4.14-9.606-2.416c-1.904,0.979-3.96,1.476-6.108,1.476c-4.165,0-8.025-1.892-10.589-5.191    c-1.422-1.828-3.607-2.897-5.922-2.897c-2.315,0-4.501,1.07-5.922,2.898c-2.563,3.299-6.423,5.19-10.588,5.19    c-2.148,0-4.204-0.497-6.11-1.477c-3.354-1.724-7.464-0.69-9.603,2.412c-2.497,3.62-6.596,5.79-11.003,5.816    c-2.2-0.088-4.354,0.798-5.85,2.439c-1.555,1.705-2.239,4.03-1.854,6.305c0.125,0.74,0.188,1.5,0.188,2.258    c0,7.39-6.013,13.402-13.402,13.402c-3.768,0-7.254-1.52-9.817-4.281c-2.098-2.26-5.365-3.006-8.237-1.878    c-2.871,1.127-4.759,3.897-4.759,6.981v3.025c-0.667,0.044-1.327,0.108-1.982,0.19l-3.788-6.079    c-1.198-1.923-1.836-4.009-1.844-6.081c0-2.744,0.827-5.384,2.394-7.635c2.174-3.126,1.661-7.385-1.193-9.905    c-2.887-2.549-4.542-6.21-4.542-10.046c0-5.592,3.524-10.648,8.77-12.581c3.615-1.332,5.633-5.188,4.667-8.918    c-0.284-1.097-0.429-2.23-0.429-3.366c0-7.394,6.015-13.409,13.408-13.409c1.011,0,2.02,0.116,3.001,0.345    c2.218,0.518,4.554-0.001,6.345-1.411c1.79-1.41,2.843-3.557,2.86-5.836c0.056-7.333,6.067-13.298,13.401-13.298    c2.177,0,4.261,0.511,6.195,1.518c2.098,1.094,4.592,1.131,6.724,0.103c2.133-1.029,3.653-3.004,4.104-5.329    c1.215-6.275,6.749-10.83,13.157-10.83c3.854,0,7.526,1.663,10.074,4.563c1.424,1.62,3.477,2.549,5.634,2.549    s4.21-0.929,5.634-2.549c2.548-2.9,6.221-4.563,10.075-4.563c6.408,0,11.942,4.555,13.157,10.83c0.45,2.324,1.971,4.3,4.104,5.329    c2.131,1.029,4.625,0.991,6.724-0.103c1.935-1.007,4.019-1.518,6.195-1.518c7.334,0,13.346,5.966,13.401,13.298    c0.018,2.279,1.07,4.426,2.86,5.836c1.791,1.409,4.124,1.928,6.345,1.411c0.98-0.229,1.99-0.345,3.001-0.345    c7.394,0,13.408,6.015,13.408,13.409c0,1.136-0.145,2.269-0.429,3.366c-0.966,3.73,1.052,7.585,4.667,8.918    c5.245,1.933,8.77,6.989,8.77,12.581c0,3.836-1.655,7.497-4.543,10.045c-2.854,2.521-3.367,6.781-1.192,9.906    c1.565,2.25,2.394,4.89,2.394,7.684c-0.008,2.022-0.646,4.108-1.844,6.031l-3.969,6.37c-0.595-0.109-1.195-0.202-1.8-0.28v-3.233    C205.239,359.124,203.35,356.353,200.478,355.227z M205.206,416.72c0.009-0.496,0.033-0.988,0.033-1.485v-34.559    c8.165,1.937,14.264,9.269,14.264,18.015C219.503,407.452,213.388,414.795,205.206,416.72z"/>
		<path d="M134.851,426.588c-9.137,9.136-24.002,9.136-33.139,0c-2.93-2.929-7.678-2.929-10.607,0    c-2.929,2.929-2.929,7.677,0,10.606c7.493,7.493,17.335,11.239,27.177,11.239s19.684-3.746,27.177-11.239    c2.929-2.929,2.929-7.677,0-10.606C142.528,423.659,137.78,423.659,134.851,426.588z"/>
		<path d="M91.165,404.52v-19.532c0-4.142-3.357-7.5-7.5-7.5s-7.5,3.358-7.5,7.5v19.532c0,4.142,3.357,7.5,7.5,7.5    S91.165,408.662,91.165,404.52z"/>
		<path d="M152.897,377.488c-4.143,0-7.5,3.358-7.5,7.5v19.532c0,4.142,3.357,7.5,7.5,7.5s7.5-3.358,7.5-7.5v-19.532    C160.397,380.846,157.04,377.488,152.897,377.488z"/>
		<path d="M225.132,174.787c7.552,7.551,17.47,11.326,27.388,11.326c9.919,0,19.837-3.775,27.389-11.326    c2.929-2.929,2.929-7.678,0-10.607c-2.929-2.928-7.677-2.929-10.607,0c-9.251,9.253-24.309,9.254-33.562,0    c-2.93-2.929-7.678-2.929-10.607,0C222.203,167.109,222.203,171.858,225.132,174.787z"/>
		<path d="M218.479,146.358c4.143,0,7.5-3.358,7.5-7.5v-19.721c0-4.142-3.357-7.5-7.5-7.5s-7.5,3.358-7.5,7.5v19.721    C210.979,143,214.337,146.358,218.479,146.358z"/>
		<path d="M286.563,146.358c4.143,0,7.5-3.358,7.5-7.5v-19.721c0-4.142-3.357-7.5-7.5-7.5s-7.5,3.358-7.5,7.5v19.721    C279.063,143,282.42,146.358,286.563,146.358z"/>
		<path d="M135.62,185.589c8.039,10.442,23.784,15.335,50.798,15.721c16.094,18.442,39.759,30.115,66.102,30.115    c5.607,0,11.212-0.532,16.655-1.581c19.789-3.805,36.958-14.158,49.469-28.534c26.998-0.389,42.735-5.282,50.771-15.721    c9.96-12.937,5.367-30.301,0.049-50.406c-3.602-13.617-7.685-29.052-7.685-45.013c0-14.918-2.9-28.366-8.619-39.971    c-1.831-3.716-6.327-5.242-10.043-3.412c-3.716,1.831-5.243,6.327-3.412,10.043c4.694,9.525,7.074,20.742,7.074,33.34    c0,17.911,4.348,34.347,8.184,48.849c4.305,16.276,8.023,30.333,2.566,37.42c-3.906,5.075-13.344,8.208-28.083,9.375    c6.901-12.587,10.804-26.97,10.804-42.113v-37.435c0-4.125-3.331-7.476-7.456-7.5c-17.153-0.102-32.779-3.945-45.188-11.114    c-13.951-8.06-23.336-19.981-27.894-35.43c-0.94-3.189-3.868-5.378-7.192-5.378c-0.001,0-0.001,0-0.001,0    c-3.324,0-6.252,2.188-7.193,5.377c-4.561,15.45-13.945,27.371-27.896,35.431c-12.408,7.169-28.031,11.012-45.181,11.114    c-4.125,0.024-7.456,3.375-7.456,7.5V143.7c0,15.252,3.916,29.605,10.79,42.113c-14.735-1.167-24.171-4.3-28.078-9.375    c-5.456-7.087-1.738-21.144,2.567-37.42c3.836-14.501,8.184-30.938,8.184-48.849c0-24.641,8.996-43.539,26.738-56.17    c16.233-11.557,39.582-17.666,67.522-17.666c32.073,0,57.628,7.89,73.9,22.817c3.054,2.8,7.798,2.595,10.598-0.457    c2.8-3.052,2.595-7.797-0.457-10.597C317.471,10.588,288.41,1.333,252.518,1.333c-68.416,0-109.261,33.21-109.261,88.836    c0,15.961-4.083,31.396-7.685,45.013C130.254,155.288,125.661,172.652,135.62,185.589z M179.794,113.514    c33.147-2.053,59.024-16.529,72.725-40.21c13.698,23.681,39.578,38.157,72.732,40.21V143.7c0,34.818-24.774,64.852-58.911,71.414    c-4.514,0.87-9.163,1.311-13.82,1.311c-40.101,0-72.726-32.624-72.726-72.725V113.514z"/>
		<path d="M373.359,96.301c0.461,3.806,3.696,6.599,7.436,6.599c0.301,0,0.605-0.018,0.911-0.055    c4.112-0.498,7.042-4.235,6.544-8.347l-1.666-13.754c41.967,33.281,70.517,81.383,79.189,134.255    c0.604,3.677,3.784,6.287,7.393,6.287c0.403,0,0.812-0.033,1.223-0.1c4.088-0.67,6.857-4.528,6.188-8.615    c-9.231-56.274-39.507-107.487-84.02-143.055l12.462-1.509c4.112-0.498,7.042-4.235,6.544-8.347    c-0.498-4.112-4.248-7.043-8.347-6.544l-31.075,3.763c-1.975,0.239-3.773,1.253-5.001,2.818c-1.228,1.565-1.782,3.554-1.543,5.529    L373.359,96.301z"/>
		<path d="M23.227,255.663c1.302,1.504,3.148,2.428,5.133,2.571c0.179,0.013,0.357,0.019,0.536,0.019    c1.798,0,3.543-0.646,4.91-1.831l23.66-20.493c3.131-2.712,3.471-7.449,0.759-10.58c-2.713-3.131-7.45-3.47-10.579-0.759    l-10.602,9.183c5.04-66.537,40.397-127.035,96.779-164.159c3.459-2.278,4.417-6.929,2.139-10.389    c-2.277-3.459-6.93-4.418-10.389-2.14C65.599,96.575,27.85,160.797,22.152,231.511l-8.081-9.33    c-2.712-3.132-7.448-3.471-10.579-0.759c-3.131,2.712-3.471,7.448-0.759,10.579L23.227,255.663z"/>
		<path d="M304.242,463.238l-24.2-19.854c-3.201-2.627-7.927-2.162-10.556,1.041c-2.627,3.202-2.16,7.928,1.042,10.555l11.444,9.389    c-22.912,3.103-46.537,2.564-69.157-1.635c-4.065-0.755-7.986,1.932-8.743,6.005c-0.756,4.073,1.933,7.987,6.005,8.743    c13.902,2.581,28.181,3.889,42.438,3.889c9.573,0,19.137-0.604,28.604-1.772l-7.285,8.88c-2.627,3.202-2.16,7.928,1.042,10.555    c1.395,1.145,3.079,1.702,4.753,1.702c2.168,0,4.319-0.936,5.803-2.743l19.854-24.2    C307.911,470.591,307.444,465.865,304.242,463.238z"/>
	</g>
</g>















</svg>
