<svg width="32" height="32" viewBox="0 0 32 32" fill="none" xmlns="http://www.w3.org/2000/svg">
<path d="M4.13101 21.312C4.23921 21.5541 4.2468 21.8294 4.15209 22.0771C4.05739 22.3248 3.86815 22.5248 3.62601 22.633C3.38386 22.7412 3.10865 22.7488 2.86092 22.6541C2.61318 22.5594 2.41321 22.3701 2.30501 22.128C1.07643 19.3518 0.71401 16.2694 1.26512 13.2839C1.81622 10.2984 3.25522 7.54865 5.39401 5.394C8.04098 2.74529 11.5835 1.18329 15.3244 1.01543C19.0652 0.847567 22.7334 2.08601 25.607 4.487V3.979C25.607 3.71378 25.7124 3.45943 25.8999 3.27189C26.0874 3.08436 26.3418 2.979 26.607 2.979C26.8722 2.979 27.1266 3.08436 27.3141 3.27189C27.5016 3.45943 27.607 3.71378 27.607 3.979V6.808C27.607 7.07322 27.5016 7.32757 27.3141 7.51511C27.1266 7.70264 26.8722 7.808 26.607 7.808H23.778C23.5128 7.808 23.2584 7.70264 23.0709 7.51511C22.8834 7.32757 22.778 7.07322 22.778 6.808C22.778 6.54278 22.8834 6.28843 23.0709 6.10089C23.2584 5.91336 23.5128 5.808 23.778 5.808H24.058C21.5608 3.82937 18.4233 2.83792 15.2425 3.02231C12.0618 3.2067 9.05986 4.55406 6.80801 6.808C4.95412 8.67545 3.70683 11.0588 3.22922 13.6465C2.75161 16.2342 3.0659 18.9058 4.13101 21.312ZM29.791 10.093C29.7415 9.96914 29.6678 9.85644 29.574 9.76152C29.4803 9.6666 29.3686 9.59138 29.2454 9.5403C29.1222 9.48921 28.99 9.46329 28.8566 9.46406C28.7233 9.46483 28.5914 9.49227 28.4688 9.54477C28.3462 9.59727 28.2353 9.67377 28.1427 9.76976C28.0501 9.86575 27.9776 9.9793 27.9296 10.1037C27.8815 10.2281 27.8588 10.3609 27.8628 10.4942C27.8669 10.6275 27.8975 10.7587 27.953 10.88C29.089 13.5373 29.3072 16.4973 28.5731 19.2924C27.8391 22.0875 26.1946 24.5584 23.8995 26.3145C21.6044 28.0707 18.7895 29.012 15.8997 28.9898C13.0099 28.9676 10.2099 27.9832 7.94201 26.192H8.22201C8.48722 26.192 8.74158 26.0866 8.92911 25.8991C9.11665 25.7116 9.222 25.4572 9.222 25.192C9.222 24.9268 9.11665 24.6724 8.92911 24.4849C8.74158 24.2974 8.48722 24.192 8.22201 24.192H5.39401C5.12879 24.192 4.87443 24.2974 4.6869 24.4849C4.49936 24.6724 4.39401 24.9268 4.39401 25.192V28.021C4.39401 28.2862 4.49936 28.5406 4.6869 28.7281C4.87443 28.9156 5.12879 29.021 5.39401 29.021C5.65922 29.021 5.91358 28.9156 6.10111 28.7281C6.28865 28.5406 6.39401 28.2862 6.39401 28.021V27.514C8.98153 29.6719 12.2202 30.8958 15.5882 30.9885C18.9561 31.0813 22.2572 30.0374 24.9596 28.0252C27.6619 26.0129 29.6081 23.1495 30.4846 19.8963C31.3611 16.643 31.1167 13.1895 29.791 10.092V10.093ZM9.7 18.634C13.168 17.667 15 16.064 15 14C15.0058 13.4731 14.9062 12.9504 14.7073 12.4625C14.5083 11.9746 14.2138 11.5313 13.8413 11.1587C13.4687 10.7862 13.0254 10.4917 12.5375 10.2928C12.0496 10.0938 11.5269 9.99424 11 10C9.93914 10 8.92172 10.4214 8.17158 11.1716C7.42143 11.9217 7.00001 12.9391 7.00001 14C7.00001 14.2652 7.10536 14.5196 7.2929 14.7071C7.48044 14.8946 7.73479 15 8.00001 15C8.26522 15 8.51958 14.8946 8.70711 14.7071C8.89465 14.5196 9.00001 14.2652 9.00001 14C9.00001 13.4696 9.21072 12.9609 9.58579 12.5858C9.96086 12.2107 10.4696 12 11 12C11.2643 11.994 11.5271 12.0416 11.7724 12.14C12.0178 12.2384 12.2407 12.3855 12.4276 12.5724C12.6145 12.7593 12.7616 12.9822 12.86 13.2276C12.9584 13.4729 13.006 13.7357 13 14C13 15.025 11.566 16.038 9.165 16.708C8.54 16.8872 7.99049 17.2654 7.59979 17.7851C7.20909 18.3049 6.99852 18.9378 7.00001 19.588V21C7.00001 21.2652 7.10536 21.5196 7.2929 21.7071C7.48044 21.8946 7.73479 22 8.00001 22H14C14.2652 22 14.5196 21.8946 14.7071 21.7071C14.8946 21.5196 15 21.2652 15 21C15 20.7348 14.8946 20.4804 14.7071 20.2929C14.5196 20.1054 14.2652 20 14 20H9.00001V19.588C8.99743 19.3746 9.06432 19.1661 9.19059 18.994C9.31685 18.8219 9.49565 18.6956 9.7 18.634ZM24 22C24.2652 22 24.5196 21.8946 24.7071 21.7071C24.8946 21.5196 25 21.2652 25 21V11C25 10.7348 24.8946 10.4804 24.7071 10.2929C24.5196 10.1054 24.2652 10 24 10C23.7348 10 23.4804 10.1054 23.2929 10.2929C23.1054 10.4804 23 10.7348 23 11V15H20C19.7348 15 19.4804 14.8946 19.2929 14.7071C19.1054 14.5196 19 14.2652 19 14V11C19 10.7348 18.8946 10.4804 18.7071 10.2929C18.5196 10.1054 18.2652 10 18 10C17.7348 10 17.4804 10.1054 17.2929 10.2929C17.1054 10.4804 17 10.7348 17 11V14C17 14.7956 17.3161 15.5587 17.8787 16.1213C18.4413 16.6839 19.2044 17 20 17H23V21C23 21.2652 23.1054 21.5196 23.2929 21.7071C23.4804 21.8946 23.7348 22 24 22Z" fill="url(#paint0_linear_128_80)"/>
<defs>
<linearGradient id="paint0_linear_128_80" x1="5.39401" y1="5.394" x2="26.606" y2="26.606" gradientUnits="userSpaceOnUse">
<stop offset="1" stop-color="white"/>
</linearGradient>
</defs>
</svg>
