<svg width="512" height="509" viewBox="0 0 512 509" fill="none" xmlns="http://www.w3.org/2000/svg">
<path d="M436.7 74.4C388.4 26.4 324.1 0 255.8 0C187.5 0 123.3 26.4 75 74.4C26.6 122.4 0 186.2 0 254.1C0 322 26.6 385.8 75 433.8C123.3 481.7 187.5 508.2 255.8 508.2C324.1 508.2 388.3 481.8 436.6 433.8C485 385.8 511.6 322 511.6 254.1C511.6 186.2 485 122.4 436.7 74.4ZM455.4 172.5H360.5C360.4 172.2 360.4 171.9 360.3 171.6C351.1 121.9 337.6 80.1 327.1 52C385.2 72.2 432 116.4 455.4 172.5ZM226.9 42C236.4 40.7 246 40.1 255.8 40.1C263.9 40.1 271.8 40.6 279.6 41.4C288.2 61.3 307.5 110.3 319.7 172.5H195.9C206.3 103.3 223.6 51.6 226.9 42ZM40 254.1C40 239.9 41.4 226 44.1 212.5H150.8C147.1 252.6 146.8 291.2 149.9 327.5H53.1C44.6 304.6 40 279.9 40 254.1ZM72.9 367.5H154.9C159.9 398 167.4 426.8 177.6 453.5C134.1 436.7 97.4 406.2 72.9 367.5ZM155.5 172.5H56.3C79.3 117.4 124.8 73.9 181.3 53.2C173.8 78.8 162.8 121.1 155.5 172.5ZM284.6 466.2C275.2 467.4 265.6 468.1 255.9 468.1C245.9 468.1 236.1 467.4 226.4 466.1C211.2 434.5 201.4 401 195.6 367.5H321.7C314.6 400.8 302.8 434.3 284.6 466.2ZM327.9 327.5H190.2C186.5 286.6 187.7 247.1 191 212.5H326.2C330.6 247.2 332.3 286.7 327.9 327.5ZM336.1 452.8C347.9 426.1 356.8 397.6 362.5 367.5H438.8C414.7 405.7 378.7 435.8 336.1 452.8ZM368.3 327.5L368.6 323.9C371.8 288.5 371.1 251.1 366.5 212.5H467.6C470.3 226 471.7 239.9 471.7 254.1C471.7 279.9 467.1 304.6 458.6 327.5H368.3Z" fill="url(#paint0_linear_126_20)"/>
<defs>
<linearGradient id="paint0_linear_126_20" x1="0" y1="254.1" x2="511.6" y2="254.1" gradientUnits="userSpaceOnUse">
<stop stop-color="#E09C19"/>
</linearGradient>
</defs>
</svg>
