<svg width="50" height="50" viewBox="0 0 50 50" fill="none" xmlns="http://www.w3.org/2000/svg">
<g clip-path="url(#clip0_20_442)">
<mask id="mask0_20_442" style="mask-type:luminance" maskUnits="userSpaceOnUse" x="0" y="0" width="50" height="50">
<path d="M50 0H0V50H50V0Z" fill="white"/>
</mask>
<g mask="url(#mask0_20_442)">
<path d="M16.2008 -6.07967e-06C16.6008 0.199994 16.7008 0.499994 16.8008 0.999992C16.9008 1.69999 17.0008 2.39999 17.1008 3.09999C17.1008 3.29999 17.3008 3.49999 17.4008 3.49999C17.9008 3.69999 18.4008 3.99999 19.0008 4.19999C19.2008 4.29999 19.4008 4.19999 19.5008 4.09999C20.1008 3.69999 20.8008 3.19999 21.4008 2.69999C21.9008 2.39999 22.2008 2.39999 22.6008 2.79999C23.5008 3.69999 24.4008 4.49999 25.2008 5.39999C25.6008 5.79999 25.6008 6.09999 25.3008 6.59999C24.8008 7.19999 24.4008 7.79999 23.9008 8.39999C23.7008 8.59999 23.7008 8.79999 23.8008 9.09999C24.0008 9.59999 24.2008 9.99999 24.4008 10.5C24.5008 10.8 24.6008 10.9 24.9008 11C26.3008 11.2 27.7008 11.3 29.1008 11.6C30.7008 11.9 32.1008 12.6 33.5008 13.6C33.9008 12.9 34.7008 12.7 35.5008 12.9C35.9008 13 36.0008 13.3 36.0008 13.6C36.0008 14 35.8008 14.2 35.4008 14.3C35.1008 14.3 34.9008 14.3 34.5008 14.4C35.0008 14.9 35.5008 15.4 35.9008 15.9C36.3008 16.5 36.8008 17 37.1008 17.6C37.5008 18.2 37.4008 18.6 37.0008 18.9C36.6008 19.1 36.2008 19 35.9008 18.4C34.5008 16 32.5008 14.4 29.9008 13.5C23.0008 10.9 15.3008 15.8 14.7008 23.2C14.4008 26.8 15.6008 29.8 18.0008 32.3C18.7008 33 19.3008 33.9 19.9008 34.7C21.0008 36.2 21.4008 38 21.4008 39.9C21.4008 40 21.4008 40.2 21.4008 40.3V40.4C22.0008 40.4 22.7008 40.4 23.4008 40.4C23.4008 39.7 23.5008 39 23.5008 38.4C23.5008 36.6 23.4008 34.8 23.4008 32.9C23.4008 32.5 23.2008 32.4 22.9008 32.3C22.2008 32.1 21.4008 31.9 20.8008 31.6C19.6008 31 19.1008 29.7 19.4008 28.5C19.7008 27.6 20.5008 27 21.5008 27.1C22.5008 27.2 23.4008 27.7 23.9008 28.7C24.2008 29.3 24.4008 30 24.6008 30.7C24.7008 30.9 24.8008 31.1 25.0008 31.1C25.6008 31.1 26.1008 31.1 26.7008 31.1C27.0008 31.1 27.1008 31 27.2008 30.7C27.4008 30 27.7008 29.2 28.0008 28.5C28.5008 27.6 29.4008 27.2 30.3008 27.1C31.8008 27 32.7008 28.4 32.3008 30C32.0008 30.9 31.4008 31.5 30.6008 31.8C30.0008 32 29.4008 32.2 28.8008 32.3C28.5008 32.4 28.4008 32.4 28.4008 32.7C28.2008 35.2 28.3008 37.8 28.4008 40.3C29.1008 40.3 29.7008 40.3 30.5008 40.3C30.5008 40 30.6008 39.7 30.6008 39.5C30.6008 37.3 31.3008 35.4 32.7008 33.7C33.2008 33.1 33.6008 32.6 34.1008 32.1C36.9008 29.1 37.9008 25.6 37.0008 21.6C37.0008 21.5 36.9008 21.3 36.9008 21.2C36.8008 20.8 37.0008 20.4 37.4008 20.3C37.8008 20.2 38.2008 20.4 38.3008 20.9C38.5008 21.8 38.6008 22.7 38.7008 23.6C38.7008 24 38.6008 24.3 39.2008 24.4C39.4008 24.4 39.6008 24.8 39.6008 25.1C39.6008 25.3 39.3008 25.6 39.1008 25.8C39.0008 25.9 38.8008 25.9 38.6008 25.9C38.2008 28.5 37.2008 30.8 35.4008 32.9C35.8008 33.2 36.1008 33.5 36.5008 33.7C36.6008 33.7 36.7008 33.7 36.8008 33.7C37.5008 33.5 37.9008 33.2 38.0008 32.3C38.1008 30.9 38.2008 30.9 39.6008 30.9C40.2008 30.9 40.8008 30.9 41.4008 30.9C41.9008 30.9 42.2008 31.1 42.3008 31.6C42.4008 32 42.4008 32.4 42.5008 32.9C42.5008 33.2 42.7008 33.2 42.9008 33.4C43.5008 33.8 44.0008 33.7 44.6008 33.2C45.7008 32.3 45.7008 32.4 46.7008 33.3C47.1008 33.7 47.6008 34.1 48.0008 34.6C48.4008 35 48.4008 35.3 48.1008 35.7C47.9008 36 47.6008 36.4 47.3008 36.7C47.1008 36.9 47.2008 37.1 47.2008 37.3C47.4008 38.1 47.9008 38.4 48.6008 38.3C48.8008 38.3 48.9008 38.3 49.1008 38.4C49.7008 38.5 49.9008 38.7 49.9008 39.3C49.9008 40.1 49.9008 40.9 49.9008 41.7C49.9008 42.2 49.7008 42.5 49.1008 42.6C48.9008 42.6 48.6008 42.7 48.4008 42.7C47.8008 42.7 47.4008 42.9 47.2008 43.6C47.1008 43.9 47.0008 44.1 47.3008 44.4C47.6008 44.7 47.8008 45 48.0008 45.4C48.3008 45.8 48.2008 46.1 47.9008 46.4C47.3008 47 46.7008 47.6 46.1008 48.2C45.8008 48.5 45.4008 48.5 45.1008 48.3C44.8008 48 44.4008 47.8 44.1008 47.5C43.9008 47.3 43.7008 47.3 43.4008 47.4C42.7008 47.6 42.5008 48 42.4008 48.7C42.4008 50 42.3008 50 40.9008 50C40.3008 50 39.8008 50 39.2008 50C38.6008 50 38.3008 49.8 38.2008 49.1C38.2008 48.9 38.1008 48.7 38.1008 48.6C38.1008 47.9 37.9008 47.5 37.2008 47.3C36.9008 47.2 36.7008 47.2 36.4008 47.4C36.1008 47.7 35.8008 47.9 35.5008 48.1C35.1008 48.4 34.7008 48.4 34.4008 48C33.8008 47.4 33.2008 46.8 32.6008 46.2C32.3008 45.9 32.3008 45.5 32.5008 45.1C32.7008 44.9 32.8008 44.6 33.0008 44.4C33.4008 44 33.5008 43.6 33.2008 43.1C32.9008 42.5 32.9008 42.4 32.0008 42.5C32.0008 42.7 32.0008 43 32.0008 43.2C32.0008 44.9 31.2008 46 29.6008 46.6C29.5008 46.7 29.3008 46.8 29.2008 47C28.7008 48.5 27.5008 49.3 26.0008 49.4C24.5008 49.4 23.3008 48.5 22.7008 47.1C22.6008 46.9 22.4008 46.7 22.3008 46.7C20.9008 46.2 20.0008 45 20.0008 43.4C20.0008 42.2 20.0008 41 20.0008 39.7C20.1008 37.5 19.2008 35.6 17.8008 33.9C17.2008 33.2 16.6008 32.6 16.0008 31.9C15.0008 30.7 14.3008 29.4 13.8008 27.9C13.2008 27.9 12.7008 27.9 12.1008 27.9C11.5008 27.9 11.2008 27.7 11.1008 27.1C11.0008 26.4 10.9008 25.7 10.8008 24.9C10.8008 24.6 10.7008 24.5 10.4008 24.4C10.0008 24.3 9.50078 24.1 9.10078 23.9C8.70078 23.7 8.40078 23.7 8.10078 24C7.60078 24.5 7.00078 24.8 6.40078 25.3C6.00078 25.6 5.60078 25.6 5.30078 25.2C4.40078 24.3 3.50078 23.4 2.60078 22.5C2.20078 22.1 2.20078 21.8 2.50078 21.4C3.00078 20.8 3.40078 20.2 3.90078 19.6C4.10078 19.4 4.10078 19.2 4.00078 19C3.80078 18.6 3.60078 18.2 3.50078 17.8C3.40078 17.3 3.10078 17 2.50078 17C2.00078 17 1.40078 16.8 0.900781 16.8C0.500781 16.8 0.100781 16.7 -0.199219 16.3C-0.199219 14.8 -0.199219 13.2 -0.199219 11.7C0.100781 11.4 0.400781 11.3 0.900781 11.2C1.60078 11.2 2.20078 11 2.70078 11C3.20078 11 3.50078 10.8 3.60078 10.3C3.70078 9.89999 3.90078 9.49999 4.10078 9.09999C4.20078 8.79999 4.20078 8.69999 4.00078 8.49999C3.60078 7.79999 3.20078 7.19999 2.70078 6.59999C2.40078 6.09999 2.40078 5.79999 2.80078 5.39999C3.70078 4.49999 4.50078 3.59999 5.40078 2.79999C5.80078 2.39999 6.10078 2.39999 6.60078 2.69999C7.20078 3.19999 7.80078 3.59999 8.50078 4.09999C8.60078 4.19999 8.80078 4.19999 9.00078 4.19999C9.60078 3.99999 10.1008 3.79999 10.7008 3.49999C10.8008 3.39999 11.0008 3.29999 11.0008 3.09999C11.1008 2.39999 11.2008 1.69999 11.3008 0.999992C11.3008 0.599994 11.5008 0.199994 11.8008 -0.100006C13.2008 -6.07967e-06 14.7008 -6.07967e-06 16.2008 -6.07967e-06ZM13.4008 26.5C13.4008 25.2 13.3008 24 13.4008 22.8C13.5008 21.6 13.8008 20.5 14.1008 19.3C14.1008 19.3 14.0008 19.3 13.8008 19.3C10.9008 19.2 8.50078 16.8 8.30078 13.9C8.30078 13.2 8.50078 12.8 9.00078 12.8C9.50078 12.8 9.80078 13.1 9.80078 13.9C10.0008 16.3 12.2008 18.2 14.6008 17.9C14.8008 17.9 15.0008 17.7 15.1008 17.6C15.9008 16.3 16.9008 15.1 18.2008 14.1C18.3008 14 18.4008 13.8 18.4008 13.6C18.5008 11.1 16.0008 8.89999 13.5008 9.29999C12.2008 9.49999 11.2008 10.1 10.5008 11.1C10.2008 11.6 9.70078 11.6 9.30078 11.3C9.00078 11 9.00078 10.6 9.40078 10.1C10.9008 8.19999 12.8008 7.39999 15.1008 7.79999C17.4008 8.19999 18.9008 9.59999 19.6008 11.8C19.7008 12.1 19.8008 12.4 19.8008 12.7C20.9008 12.3 22.1008 11.8 23.2008 11.4C22.9008 10.7 22.6008 9.89999 22.2008 9.19999C22.0008 8.79999 22.0008 8.39999 22.3008 7.99999C22.8008 7.39999 23.3008 6.69999 23.7008 6.09999C23.0008 5.39999 22.4008 4.79999 21.8008 4.19999C21.2008 4.69999 20.5008 5.09999 19.9008 5.59999C19.6008 5.99999 19.2008 5.99999 18.8008 5.69999C18.0008 5.29999 17.2008 4.99999 16.4008 4.69999C16.0008 4.49999 15.7008 4.29999 15.7008 3.79999C15.6008 2.99999 15.5008 2.19999 15.4008 1.39999C14.5008 1.39999 13.6008 1.39999 12.7008 1.39999C12.6008 2.19999 12.4008 2.99999 12.4008 3.69999C12.3008 4.19999 12.1008 4.49999 11.6008 4.59999C10.8008 5.09999 10.0008 5.39999 9.20078 5.69999C8.80078 5.99999 8.40078 5.99999 8.00078 5.59999C7.40078 5.09999 6.70078 4.59999 6.20078 4.19999C5.50078 4.89999 4.90078 5.59999 4.20078 6.19999C4.60078 6.79999 5.10078 7.39999 5.60078 8.09999C6.00078 8.39999 5.90078 8.79999 5.70078 9.19999C5.30078 9.99999 5.00078 10.7 4.70078 11.5C4.50078 11.9 4.30078 12.2 3.80078 12.3C3.00078 12.4 2.20078 12.5 1.40078 12.6C1.40078 13.5 1.40078 14.4 1.40078 15.3C2.20078 15.4 3.00078 15.6 3.80078 15.6C4.30078 15.7 4.60078 15.9 4.70078 16.4C5.00078 17.3 5.30078 18 5.70078 18.7C6.00078 19.2 5.90078 19.6 5.60078 20C5.10078 20.6 4.70078 21.2 4.20078 21.8C4.90078 22.5 5.50078 23.1 6.10078 23.7C6.70078 23.2 7.40078 22.8 8.00078 22.3C8.40078 22 8.70078 22 9.20078 22.2C9.90078 22.6 10.7008 22.9 11.5008 23.1C12.0008 23.3 12.3008 23.5 12.3008 24.1C12.4008 24.9 12.5008 25.7 12.6008 26.4C13.0008 26.5 13.2008 26.5 13.4008 26.5ZM46.6008 45.6C46.3008 45.2 46.1008 44.8 45.8008 44.5C45.5008 44.2 45.5008 43.8 45.7008 43.5C45.9008 43 46.2008 42.5 46.3008 42C46.4008 41.6 46.7008 41.4 47.1008 41.3C47.6008 41.2 48.0008 41.2 48.5008 41.1C48.5008 40.6 48.5008 40.2 48.5008 39.7C48.0008 39.6 47.6008 39.5 47.1008 39.5C46.7008 39.5 46.4008 39.2 46.3008 38.8C46.1008 38.3 45.9008 37.8 45.7008 37.3C45.5008 36.9 45.5008 36.6 45.8008 36.3C46.1008 35.9 46.4008 35.6 46.6008 35.2C46.3008 34.9 46.0008 34.5 45.6008 34.2C45.2008 34.5 44.8008 34.8 44.4008 35.1C44.2008 35.2 43.8008 35.3 43.5008 35.2C42.9008 35 42.4008 34.7 41.8008 34.5C41.5008 34.4 41.3008 34.2 41.2008 33.8C41.1008 33.3 41.1008 32.8 41.0008 32.3C40.5008 32.3 40.1008 32.3 39.6008 32.3C39.5008 32.8 39.4008 33.3 39.4008 33.7C39.4008 34.1 39.1008 34.3 38.8008 34.4C38.3008 34.6 37.7008 34.8 37.2008 35.1C36.8008 35.3 36.5008 35.3 36.2008 35C35.8008 34.7 35.5008 34.4 35.1008 34.2C34.7008 34.5 34.4008 34.8 34.0008 35.1C34.3008 35.5 34.6008 35.9 34.9008 36.2C35.2008 36.5 35.2008 36.9 35.0008 37.2C34.8008 37.7 34.6008 38.2 34.4008 38.7C34.3008 39.1 34.0008 39.4 33.6008 39.4C33.1008 39.4 32.7008 39.5 32.2008 39.6C32.2008 40.1 32.2008 40.5 32.2008 41C32.7008 41.1 33.1008 41.2 33.6008 41.2C34.0008 41.2 34.2008 41.5 34.4008 41.9C34.6008 42.4 34.8008 42.9 35.0008 43.4C35.2008 43.8 35.2008 44.1 34.9008 44.4C34.6008 44.8 34.3008 45.2 34.1008 45.5C34.4008 45.9 34.7008 46.2 35.0008 46.5C35.4008 46.2 35.8008 45.9 36.1008 45.7C36.5008 45.4 36.8008 45.4 37.2008 45.6C37.7008 45.8 38.2008 46 38.7008 46.2C39.1008 46.3 39.3008 46.5 39.4008 47C39.5008 47.5 39.5008 47.9 39.6008 48.4C40.1008 48.4 40.5008 48.4 41.0008 48.4C41.1008 47.9 41.2008 47.4 41.2008 47C41.2008 46.6 41.5008 46.4 41.9008 46.2C42.4008 46 42.9008 45.8 43.4008 45.6C43.8008 45.4 44.1008 45.4 44.5008 45.7C44.9008 46 45.2008 46.2 45.6008 46.5C46.0008 46.3 46.3008 46 46.6008 45.6ZM30.7008 41.8C27.6008 41.8 24.6008 41.8 21.6008 41.8C21.6008 42.4 21.6008 43 21.6008 43.5C21.7008 44.5 22.4008 45.3 23.5008 45.3C25.3008 45.3 27.1008 45.3 28.9008 45.3C30.0008 45.3 30.7008 44.5 30.8008 43.4C30.7008 43 30.7008 42.4 30.7008 41.8ZM27.1008 40.3C27.1008 37.7 27.1008 35.1 27.1008 32.5C26.5008 32.5 25.9008 32.5 25.3008 32.5C25.3008 35.1 25.3008 37.7 25.3008 40.3C25.8008 40.3 26.5008 40.3 27.1008 40.3ZM23.3008 30.8L23.4008 30.7C23.2008 30.2 23.0008 29.8 22.8008 29.3C22.6008 28.8 22.2008 28.7 21.7008 28.6C21.3008 28.5 21.1008 28.7 21.0008 29.1C21.0008 29.6 21.2008 30.1 21.7008 30.3C22.3008 30.5 22.8008 30.6 23.3008 30.8ZM28.9008 30.7L29.0008 30.8C29.5008 30.6 30.0008 30.5 30.4008 30.3C30.7008 30.2 30.9008 29.9 31.0008 29.6C31.1008 29.3 31.1008 28.9 30.9008 28.7C30.8008 28.6 30.4008 28.6 30.1008 28.7C29.8008 28.8 29.5008 29 29.4008 29.3C29.2008 29.7 29.1008 30.2 28.9008 30.7ZM27.9008 46.9C26.7008 46.9 25.6008 46.9 24.5008 46.9C24.8008 47.6 25.4008 48 26.2008 48C27.0008 48 27.6008 47.6 27.9008 46.9ZM32.2008 38.1C33.1008 38.1 33.2008 38 33.4008 37C33.5008 36.7 33.1008 36.4 33.0008 36.1C32.9008 36.1 32.9008 36.1 32.8008 36.1C32.7008 36.8 32.5008 37.4 32.2008 38.1Z" fill="white"/>
<path d="M41.8 14.3C41.5 14.3 41.3 14.3 41.1 14.2C40.7 14.1 40.5 13.9 40.5 13.5C40.5 13.1 40.7 12.8 41 12.8C41.5 12.8 42 12.7 42.4 12.9C42.6 13 42.8 13.3 42.9 13.6C43 14 42.7 14.2 42.3 14.3C42.1 14.4 41.9 14.3 41.8 14.3Z" fill="white"/>
<path d="M6.00028 28.4C6.00028 28.5 5.90028 28.7 5.80028 28.8C5.50028 29.1 5.20028 29.4 4.80028 29.6C4.50028 29.8 4.20028 29.7 3.90028 29.5C3.70028 29.2 3.60028 28.9 3.90028 28.6C4.20028 28.3 4.50028 28 4.90028 27.8C5.40028 27.4 6.00028 27.8 6.00028 28.4Z" fill="white"/>
<path d="M47.9 17.9C47.7 18.1 47.5 18.4 47.2 18.5C46.9 18.6 46.5 18.5 46.4 18.1C46.2 17.7 46 17.3 46 17C46 16.8 46.2 16.4 46.4 16.3C46.7 16.1 47.1 16.2 47.3 16.5C47.5 16.9 47.7 17.3 47.9 17.9Z" fill="white"/>
<path d="M42.5 24.1C43 24.1 43.3 24.3 43.4 24.7C43.5 25.1 43.2 25.4 42.8 25.5C42.4 25.6 42.1 25.6 41.7 25.6C41.3 25.6 41 25.3 41 24.9C41 24.5 41.2 24.2 41.7 24.2C41.9 24.2 42.2 24.1 42.5 24.1Z" fill="white"/>
<path d="M3.00117 33.6C3.40117 33.6 3.60117 33.9 3.70117 34.3C3.80117 34.8 4.30117 35.4 3.70117 35.9C3.40117 36.2 2.80117 36 2.60117 35.6C2.40117 35.2 2.30117 34.9 2.20117 34.5C2.20117 34 2.50117 33.6 3.00117 33.6Z" fill="white"/>
<path d="M8.30165 39.4C8.10165 39.4 7.90165 39.4 7.60165 39.3C7.30165 39.2 7.00165 39 7.10165 38.5C7.10165 38.1 7.40165 37.9 7.80165 37.8C8.10165 37.8 8.40165 37.8 8.70165 37.8C9.20165 37.8 9.50165 38.1 9.50165 38.6C9.50165 39 9.20165 39.3 8.70165 39.3C8.60165 39.4 8.50165 39.4 8.30165 39.4Z" fill="white"/>
<path d="M38.3016 14.3C38.1016 14.3 38.0016 14.3 37.8016 14.3C37.4016 14.3 37.1016 14 37.1016 13.6C37.1016 13.2 37.3016 12.9 37.7016 12.9C38.1016 12.9 38.4016 12.9 38.8016 12.9C39.2016 12.9 39.4016 13.2 39.5016 13.6C39.5016 14 39.2016 14.3 38.8016 14.3C38.6016 14.3 38.5016 14.3 38.3016 14.3Z" fill="white"/>
<path d="M44.3008 13.7C44.8008 13.7 45.9008 14.4 45.9008 14.7C45.9008 15 45.9008 15.3 45.7008 15.5C45.5008 15.7 45.1008 15.7 44.9008 15.6C44.6008 15.5 44.2008 15.2 44.0008 14.9C43.8008 14.7 43.8008 14.4 43.8008 14.1C43.9008 13.9 44.2008 13.8 44.3008 13.7Z" fill="white"/>
<path d="M2.20117 31.7C2.30117 31.4 2.40117 31 2.50117 30.6C2.70117 30.2 3.00117 30.1 3.40117 30.2C3.80117 30.3 4.00117 30.6 3.90117 31C3.80117 31.4 3.70117 31.8 3.60117 32.1C3.50117 32.5 3.10117 32.6 2.80117 32.5C2.40117 32.5 2.20117 32.2 2.20117 31.7Z" fill="white"/>
<path d="M4.6 36.5C5.1 36.5 6.2 37.3 6.2 37.6C6.2 37.8 6.2 38.2 6 38.3C5.8 38.4 5.4 38.5 5.3 38.5C4.9 38.3 4.5 38 4.2 37.7C4.1 37.6 4.1 37.2 4.2 37C4.2 36.7 4.5 36.6 4.6 36.5Z" fill="white"/>
<path d="M18.5004 39.4C18.3004 39.4 18.1004 39.4 18.0004 39.4C17.6004 39.4 17.4004 39.1 17.4004 38.7C17.4004 38.3 17.6004 38 18.0004 38C18.4004 37.9 18.8004 37.9 19.3004 38C19.7004 38 19.9004 38.3 19.9004 38.8C19.9004 39.2 19.6004 39.4 19.2004 39.5C18.9004 39.4 18.7004 39.4 18.5004 39.4Z" fill="white"/>
<path d="M47.9013 20.4C47.8013 20.7 47.7013 21.1 47.6013 21.4C47.4013 21.8 47.1013 21.9 46.7013 21.8C46.3013 21.7 46.1013 21.4 46.2013 21C46.3013 20.7 46.4013 20.3 46.5013 20C46.6013 19.6 47.0013 19.4 47.4013 19.5C47.7013 19.6 47.9013 19.9 47.9013 20.4Z" fill="white"/>
<path d="M11.7 39.4C11.5 39.4 11.3 39.4 11.2 39.4C10.8 39.4 10.6 39.1 10.5 38.7C10.5 38.3 10.7 38 11.1 37.9C11.5 37.8 11.9 37.8 12.3 37.9C12.7 37.9 12.9 38.2 12.9 38.6C12.9 39 12.6 39.3 12.2 39.3C12.1 39.4 11.9 39.4 11.7 39.4Z" fill="white"/>
<path d="M15.1004 39.4C14.9004 39.4 14.7004 39.4 14.6004 39.4C14.2004 39.4 14.0004 39.1 13.9004 38.7C13.9004 38.3 14.1004 38 14.4004 38C14.8004 37.9 15.3004 37.9 15.7004 38C16.1004 38 16.3004 38.3 16.3004 38.7C16.3004 39.1 16.1004 39.3 15.7004 39.4C15.5004 39.4 15.3004 39.4 15.1004 39.4Z" fill="white"/>
<path d="M46.4011 23.2C46.3011 23.4 46.3011 23.6 46.2011 23.7C45.9011 24 45.6011 24.3 45.3011 24.5C45.0011 24.7 44.6011 24.6 44.4011 24.3C44.2011 24 44.2011 23.6 44.5011 23.4C44.8011 23.1 45.0011 22.9 45.4011 22.7C45.6011 22.6 45.9011 22.6 46.2011 22.7C46.2011 22.7 46.3011 23 46.4011 23.2Z" fill="white"/>
<path d="M8.10063 26.6C8.80063 26.6 9.20063 26.9 9.20063 27.3C9.20063 27.7 8.90063 28 8.30063 28C8.00063 28 7.80063 28.1 7.50063 28.1C7.10063 28.1 6.80063 27.9 6.80063 27.5C6.70063 27.1 7.00063 26.8 7.40063 26.7C7.70063 26.6 8.00063 26.6 8.10063 26.6Z" fill="white"/>
<path d="M40.4 44.7C39.4 44.7 38.5 44.4 37.6 43.7C37.2 43.4 37.1 42.9 37.4 42.6C37.7 42.3 38.1 42.3 38.5 42.6C40.2 43.9 42.5 43.1 43 41.2C43.4 39.7 42.4 38 40.9 37.7C39.3 37.4 37.7 38.4 37.5 40.1C37.5 40.3 37.5 40.4 37.4 40.6C37.3 41 37.1 41.2 36.7 41.2C36.3 41.2 36 40.9 36 40.5C36 40.1 36.1 39.6 36.2 39.2C36.9 37.1 39 35.9 41.2 36.3C43.3 36.7 44.8 38.7 44.6 40.9C44.4 43 42.7 44.6 40.4 44.7Z" fill="white"/>
</g>
</g>
<defs>
<clipPath id="clip0_20_442">
<rect width="50" height="50" fill="white"/>
</clipPath>
</defs>
</svg>
