<svg xmlns="http://www.w3.org/2000/svg" version="1.1" xmlns:xlink="http://www.w3.org/1999/xlink" xmlns:svgjs="http://svgjs.com/svgjs" width="512" height="512" x="0" y="0" viewBox="0 0 512 512" style="enable-background:new 0 0 512 512" xml:space="preserve" class=""><g><path xmlns="http://www.w3.org/2000/svg" d="m427.23 42.351h-77.615v-5.441c0-4.418-3.582-8-8-8h-43.023c-6.818-17.299-23.524-28.91-42.592-28.91-19.069 0-35.775 11.609-42.592 28.909h-43.023c-4.418 0-8 3.582-8 8v5.441h-77.615c-16.673 0-30.237 13.564-30.237 30.237v409.175c-.001 16.674 13.564 30.238 30.237 30.238h342.46c16.673 0 30.237-13.564 30.237-30.237v-409.175c.001-16.673-13.564-30.237-30.237-30.237zm-248.845 2.558h40.866c3.695 0 6.91-2.531 7.777-6.124 3.236-13.416 15.15-22.785 28.972-22.785s25.735 9.369 28.971 22.785c.867 3.593 4.082 6.124 7.777 6.124h40.867v41.817h-155.23zm163.23 57.818c4.418 0 8-3.582 8-8v-5.441h60.917v375.779h-309.064v-375.78h60.917v5.441c0 4.418 3.582 8 8 8h171.23zm99.853 379.036c0 7.851-6.387 14.237-14.237 14.237h-342.461c-7.851 0-14.237-6.387-14.237-14.237v-409.175c0-7.851 6.387-14.237 14.237-14.237h77.615v14.935h-68.917c-4.418 0-8 3.582-8 8v391.779c0 4.418 3.582 8 8 8h325.064c4.418 0 8-3.582 8-8v-391.78c0-4.418-3.582-8-8-8h-68.917v-14.934h77.615c7.851 0 14.237 6.387 14.237 14.237v409.175zm-204.211-325.283c0-4.418 3.582-8 8-8h115.235c4.418 0 8 3.582 8 8s-3.582 8-8 8h-115.235c-4.418 0-8-3.582-8-8zm0 44.469c0-4.418 3.582-8 8-8h115.235c4.418 0 8 3.582 8 8s-3.582 8-8 8h-115.235c-4.418 0-8-3.582-8-8zm0 105.182c0-4.418 3.582-8 8-8h115.235c4.418 0 8 3.582 8 8s-3.582 8-8 8h-115.235c-4.418 0-8-3.582-8-8zm0-44.47c0-4.418 3.582-8 8-8h115.235c4.418 0 8 3.582 8 8s-3.582 8-8 8h-115.235c-4.418 0-8-3.582-8-8zm0 105.181c0-4.418 3.582-8 8-8h115.235c4.418 0 8 3.582 8 8s-3.582 8-8 8h-115.235c-4.418 0-8-3.582-8-8zm0 44.47c0-4.418 3.582-8 8-8h115.235c4.418 0 8 3.582 8 8s-3.582 8-8 8h-115.235c-4.418 0-8-3.583-8-8zm-88.571-251.354c0 6.14 2.066 11.804 5.535 16.342-14.319 7.676-24.083 22.786-24.083 40.139 0 4.418 3.582 8 8 8h75.027c4.418 0 8-3.582 8-8 0-17.352-9.763-32.462-24.083-40.138 3.469-4.538 5.536-10.202 5.536-16.342 0-14.869-12.098-26.966-26.967-26.966s-26.965 12.096-26.965 26.965zm55.377 48.48h-56.824c3.496-12.399 14.909-21.514 28.412-21.514s24.916 9.115 28.412 21.514zm-28.412-59.446c6.047 0 10.967 4.919 10.967 10.966s-4.92 10.967-10.967 10.967-10.966-4.92-10.966-10.967 4.919-10.966 10.966-10.966zm21.432 132.489c3.469-4.538 5.535-10.202 5.535-16.342 0-14.869-12.098-26.966-26.967-26.966s-26.966 12.097-26.966 26.966c0 6.14 2.066 11.804 5.535 16.342-14.319 7.676-24.083 22.786-24.083 40.138 0 4.418 3.582 8 8 8h75.027c4.418 0 8-3.582 8-8 .001-17.352-9.762-32.462-24.081-40.138zm-32.397-16.342c0-6.047 4.919-10.966 10.966-10.966s10.967 4.919 10.967 10.966c0 6.043-4.913 10.96-10.954 10.967-.004 0-.008 0-.013 0s-.008 0-.013 0c-6.041-.007-10.953-4.924-10.953-10.967zm-17.447 48.48c3.495-12.395 14.901-21.506 28.397-21.513h.015s.01 0 .015 0c13.497.007 24.903 9.118 28.397 21.513zm49.844 73.043c3.469-4.538 5.536-10.202 5.536-16.342 0-14.869-12.098-26.967-26.967-26.967s-26.966 12.098-26.966 26.967c0 6.14 2.066 11.804 5.535 16.342-14.319 7.676-24.083 22.786-24.083 40.139 0 4.418 3.582 8 8 8h75.027c4.418 0 8-3.582 8-8 0-17.352-9.763-32.462-24.082-40.139zm-32.397-16.342c0-6.047 4.919-10.967 10.966-10.967s10.967 4.92 10.967 10.967-4.92 10.967-10.967 10.967-10.966-4.92-10.966-10.967zm-17.447 48.481c3.496-12.399 14.909-21.514 28.412-21.514s24.916 9.114 28.412 21.514z" fill="#000000" data-original="#000000" class=""></path></g></svg>