<svg width="50" height="50" viewBox="0 0 50 50" fill="none" xmlns="http://www.w3.org/2000/svg">
    <path d="M23.6897 0.0388069C18.7814 0.241589 14.2625 1.81517 10.3845 4.67843C6.87163 7.26591 4.1457 10.5266 2.32029 14.3064C0.705823 17.6645 0 20.9009 0 25.0133C0 29.1419 0.705823 32.3783 2.34463 35.7606C4.04023 39.2485 6.4741 42.2658 9.69492 44.8452C13.2808 47.7166 17.5807 49.4362 22.416 49.9147C23.6816 50.0445 26.5373 50.0202 27.8841 49.8823C32.3056 49.4118 36.2566 47.8626 39.7938 45.2102C44.767 41.4791 48.1988 36.2473 49.4482 30.4883C50.1702 27.1465 50.1864 23.0828 49.4806 19.668C48.288 13.8766 44.7508 8.49881 39.6397 4.71898C35.8915 1.94495 31.332 0.290257 26.8456 0.0712509C26.3345 0.046917 25.7179 0.014473 25.4745 0.00636292C25.2311 -0.00986099 24.428 0.00636292 23.6897 0.0388069ZM17.605 15.5231C18.9355 15.8557 20.1362 16.5776 21.1747 17.6807C22.7729 19.376 23.6654 21.7688 23.8276 24.7862L23.8763 25.7433H16.8748H9.87341L9.92209 26.6517C9.95454 27.1546 10.0357 27.7873 10.1087 28.055C10.636 29.9936 11.9828 31.3319 13.9623 31.8754C14.6925 32.0781 16.5503 32.0863 17.2805 31.8835C18.8382 31.4617 20.1768 30.2369 20.4121 29.004L20.4608 28.7444H21.9941C22.8378 28.7444 23.5274 28.7688 23.5274 28.8093C23.5274 28.9472 23.211 29.9611 23.0163 30.4316C22.2537 32.2809 20.3472 33.8626 18.2054 34.4142C17.2886 34.6575 16.5584 34.7467 15.5362 34.7467C11.212 34.7467 8.16158 32.4431 7.09879 28.3794C6.74183 27.0005 6.62825 25.9298 6.67692 24.4049C6.73371 22.5556 7.00955 21.4362 7.77217 19.9438C9.02155 17.5104 11.1634 15.8962 13.8163 15.3934C14.6844 15.2311 16.7126 15.296 17.605 15.5231ZM31.47 18.646C32.7356 20.4953 33.8065 22.0121 33.8389 22.0121C33.8714 22.0121 34.9666 20.5115 36.2647 18.6784C37.5709 16.8453 38.6823 15.3285 38.731 15.3122C38.7797 15.296 39.6559 15.2879 40.67 15.296L42.5116 15.3204L39.1853 19.7734C37.3599 22.2311 35.8591 24.2427 35.8591 24.2589C35.8591 24.2751 37.5141 26.595 39.5342 29.4095C41.5543 32.2323 43.2418 34.5926 43.2742 34.6413C43.3229 34.7224 42.9011 34.7467 41.2785 34.7467L39.2259 34.7386L36.5568 30.7722C35.0883 28.5822 33.8633 26.7977 33.8389 26.7977C33.8065 26.7977 32.5733 28.5822 31.1049 30.7722L28.4357 34.7467H26.513C25.4502 34.7467 24.5821 34.7305 24.5821 34.7143C24.5821 34.69 26.2047 32.4026 28.1924 29.6204C30.1719 26.8383 31.7864 24.5266 31.7701 24.4779C31.7458 24.4211 30.253 22.369 28.4439 19.9032C26.6347 17.4455 25.15 15.3934 25.15 15.3528C25.15 15.3122 25.9775 15.2798 27.162 15.2798H29.1659L31.47 18.646Z"
          fill="white"/>
    <path d="M14.6841 18.0051C13.8241 18.1349 13.4185 18.2566 12.8181 18.5405C11.8689 18.9947 11.0333 19.8302 10.5546 20.8035C10.222 21.4848 9.89746 22.5636 9.89746 23.0016V23.2288H15.2114H20.5254V22.9611C20.5254 22.4825 20.2171 21.4605 19.8763 20.8035C19.0813 19.2786 17.6128 18.2566 15.901 18.0457C15.2114 17.9565 15.0654 17.9484 14.6841 18.0051Z"
          fill="white"/>
</svg>
