<svg width="44" height="44" viewBox="0 0 44 44" fill="none" xmlns="http://www.w3.org/2000/svg">
    <path d="M0 0V44H44V0H0ZM26.0724 23.1024H20.8951V39.1111H16.7224V23.1024H11.6527V19.5556H26.0724V23.1024ZM26.884 38.1969V33.9167C26.884 33.9167 29.2209 35.6791 32.0271 35.6791C34.8333 35.6791 34.7233 33.8458 34.7233 33.594C34.7233 30.932 26.7764 30.932 26.7764 25.036C26.7764 17.0158 38.3558 20.1813 38.3558 20.1813L38.2116 23.9922C38.2116 23.9922 36.2707 22.6967 34.0756 22.6967C31.8829 22.6967 31.0909 23.7404 31.0909 24.8551C31.0909 27.7322 39.1111 27.4438 39.1111 33.2347C39.1111 42.152 26.884 38.1969 26.884 38.1969Z"
          fill="white"/>
</svg>
