<svg width="11" height="16" viewBox="0 0 11 16" fill="none" xmlns="http://www.w3.org/2000/svg">
<g clip-path="url(#clip0_16_2)">
<path d="M5.267 8.55429e-07C4.57522 -0.00039351 3.89014 0.135572 3.25094 0.400124C2.61174 0.664676 2.03095 1.05263 1.54179 1.54179C1.05263 2.03095 0.664676 2.61174 0.400124 3.25094C0.135572 3.89014 -0.00039351 4.57522 8.55431e-07 5.267C8.55431e-07 9.218 5.267 15.049 5.267 15.049C5.267 15.049 10.534 9.217 10.534 5.267C10.5344 4.57522 10.3984 3.89014 10.1339 3.25094C9.86933 2.61174 9.48138 2.03095 8.99221 1.54179C8.50305 1.05263 7.92226 0.664676 7.28306 0.400124C6.64386 0.135572 5.95878 -0.00039351 5.267 8.55429e-07ZM5.267 7.149C4.89497 7.149 4.5313 7.03868 4.22197 6.832C3.91264 6.62531 3.67155 6.33154 3.52918 5.98783C3.38681 5.64412 3.34957 5.26591 3.42214 4.90104C3.49472 4.53616 3.67387 4.201 3.93693 3.93793C4.2 3.67487 4.53516 3.49572 4.90004 3.42314C5.26491 3.35057 5.64312 3.38781 5.98683 3.53018C6.33054 3.67255 6.62431 3.91364 6.831 4.22297C7.03768 4.5323 7.148 4.89597 7.148 5.268C7.14774 5.76679 6.94947 6.24508 6.59678 6.59778C6.24408 6.95047 5.76579 7.14874 5.267 7.149Z" fill="black"/>
</g>
<defs>
<clipPath id="clip0_16_2">
<rect width="10.535" height="15.05" fill="white"/>
</clipPath>
</defs>
</svg>
