<svg width="512" height="512" viewBox="0 0 512 512" fill="none" xmlns="http://www.w3.org/2000/svg">
<g clip-path="url(#clip0_628_2)">
<path d="M230.97 388.93L230.972 309.573C230.941 296.691 228.308 283.948 223.232 272.108C218.155 260.268 210.739 249.576 201.429 240.673L117.491 160.63C114.986 158.26 111.959 156.512 108.654 155.528C105.349 154.543 101.859 154.351 98.466 154.965L105.44 53.149C105.879 46.3334 103.796 39.5946 99.5875 34.2155C95.3792 28.8364 89.3397 25.1928 82.6189 23.9785C75.898 22.7642 68.9653 24.064 63.1408 27.6305C57.3164 31.1969 53.0069 36.7808 51.033 43.319L1.98299 206.836C-0.300203 214.392 -0.636603 222.402 1.00505 230.122C2.6467 237.843 6.21313 245.023 11.373 250.996L96.413 349.986C103.285 357.981 107.066 368.172 107.073 378.714V389.349C102.041 392.281 97.8642 396.48 94.9587 401.528C92.0532 406.575 90.5201 412.296 90.512 418.12V504.5C90.512 506.489 91.3022 508.397 92.7087 509.803C94.1152 511.21 96.0229 512 98.012 512C100.001 512 101.909 511.21 103.315 509.803C104.722 508.397 105.512 506.489 105.512 504.5V429.756H233.26V504.5C233.26 506.489 234.05 508.397 235.457 509.803C236.863 511.21 238.771 512 240.76 512C242.749 512 244.657 511.21 246.063 509.803C247.47 508.397 248.26 506.489 248.26 504.5V418.12C248.251 412.153 246.643 406.297 243.602 401.164C240.561 396.03 236.199 391.805 230.97 388.93ZM22.75 241.22C19.2353 237.152 16.8057 232.263 15.6868 227.005C14.5679 221.747 14.796 216.291 16.35 211.145L65.4 47.629C66.2097 45.0007 67.8391 42.7004 70.0499 41.0645C72.2606 39.4286 74.9368 38.5429 77.687 38.537C79.4506 38.5279 81.1968 38.8853 82.8149 39.5866C84.4331 40.2879 85.8878 41.3178 87.087 42.611C88.2801 43.8753 89.1974 45.3739 89.7808 47.0115C90.3642 48.6491 90.6009 50.39 90.476 52.124L82.704 165.578C76.0636 174.074 72.7785 184.714 73.4736 195.475C74.1688 206.236 78.7957 216.365 86.474 223.936L133.042 269.864C133.743 270.556 134.574 271.102 135.486 271.473C136.399 271.844 137.376 272.031 138.361 272.024C139.346 272.017 140.32 271.817 141.227 271.434C142.134 271.05 142.957 270.492 143.649 269.791C144.341 269.09 144.887 268.259 145.258 267.347C145.629 266.434 145.816 265.457 145.809 264.472C145.802 263.487 145.602 262.513 145.219 261.606C144.835 260.699 144.277 259.876 143.576 259.184L97.006 213.256C94.2966 210.584 92.1404 207.404 90.6607 203.898C89.181 200.392 88.4068 196.628 88.3824 192.823C88.3579 189.018 89.0838 185.245 90.5183 181.72C91.9529 178.195 94.0681 174.988 96.743 172.281L97.383 171.631C98.6699 170.34 100.41 169.603 102.232 169.576C104.054 169.549 105.815 170.234 107.14 171.486L191.078 251.529C198.922 259.029 205.17 268.037 209.448 278.011C213.726 287.985 215.945 298.72 215.972 309.573L215.97 384.786C215.573 384.772 215.177 384.756 214.776 384.756H123.996C123.35 384.756 122.709 384.779 122.072 384.815V378.713C122.065 364.585 116.999 350.926 107.791 340.21L22.75 241.22ZM105.837 414.756C106.645 410.533 108.901 406.725 112.216 403.986C115.53 401.248 119.697 399.752 123.996 399.756H214.776C219.076 399.752 223.242 401.248 226.557 403.986C229.872 406.724 232.128 410.533 232.936 414.756H105.837ZM415.587 349.986L500.627 250.996C505.787 245.023 509.354 237.842 510.995 230.122C512.637 222.401 512.3 214.391 510.017 206.835L460.968 43.32C459.003 36.7726 454.695 31.1781 448.868 27.6038C443.041 24.0295 436.102 22.7257 429.375 23.9411C422.648 25.1565 416.604 28.806 412.396 34.1934C408.188 39.5808 406.111 46.3288 406.561 53.15L413.535 154.965C410.142 154.351 406.652 154.544 403.347 155.528C400.042 156.512 397.015 158.26 394.51 160.63L310.572 240.673C301.262 249.576 293.846 260.268 288.769 272.108C283.693 283.948 281.06 296.691 281.029 309.573V388.931C275.801 391.806 271.439 396.03 268.398 401.164C265.358 406.297 263.749 412.152 263.74 418.119V504.5C263.74 506.489 264.53 508.397 265.937 509.803C267.343 511.21 269.251 512 271.24 512C273.229 512 275.137 511.21 276.543 509.803C277.95 508.397 278.74 506.489 278.74 504.5V429.756H406.49V504.5C406.49 506.489 407.28 508.397 408.687 509.803C410.093 511.21 412.001 512 413.99 512C415.979 512 417.887 511.21 419.293 509.803C420.7 508.397 421.49 506.489 421.49 504.5V418.12C421.482 412.296 419.949 406.575 417.044 401.527C414.138 396.479 409.961 392.28 404.929 389.348V378.713C404.936 368.171 408.717 357.98 415.589 349.985L415.587 349.986ZM406.163 414.756H279.064C279.872 410.533 282.128 406.724 285.443 403.986C288.758 401.248 292.924 399.752 297.224 399.756H388.004C392.304 399.752 396.47 401.248 399.785 403.986C403.1 406.724 405.356 410.533 406.164 414.756H406.163ZM404.209 340.21C395.001 350.926 389.935 364.585 389.928 378.713V384.815C389.287 384.777 388.646 384.757 388.004 384.755H297.224C296.823 384.755 296.426 384.772 296.028 384.786V309.573C296.055 298.72 298.274 287.985 302.552 278.011C306.83 268.037 313.078 259.029 320.922 251.529L404.86 171.486C406.184 170.235 407.944 169.55 409.766 169.577C411.588 169.603 413.327 170.34 414.614 171.629L415.259 172.283C417.933 174.99 420.048 178.197 421.482 181.722C422.916 185.247 423.642 189.019 423.617 192.825C423.592 196.63 422.818 200.393 421.338 203.898C419.859 207.404 417.702 210.584 414.993 213.256L368.424 259.185C367.723 259.877 367.165 260.7 366.781 261.607C366.398 262.514 366.197 263.488 366.191 264.473C366.184 265.458 366.371 266.435 366.742 267.347C367.112 268.26 367.659 269.09 368.35 269.791C369.042 270.493 369.865 271.051 370.772 271.434C371.68 271.817 372.654 272.018 373.639 272.025C374.623 272.032 375.6 271.844 376.513 271.474C377.425 271.103 378.256 270.557 378.957 269.865L425.527 223.936C433.205 216.365 437.832 206.235 438.527 195.474C439.222 184.713 435.937 174.072 429.296 165.576L421.524 52.124C421.399 50.39 421.636 48.6491 422.219 47.0115C422.803 45.3739 423.72 43.8753 424.913 42.611C426.112 41.3178 427.567 40.2879 429.185 39.5866C430.803 38.8853 432.549 38.5279 434.313 38.537C437.063 38.5429 439.739 39.4286 441.95 41.0645C444.161 42.7004 445.79 45.0007 446.6 47.629L495.65 211.145C497.204 216.291 497.432 221.747 496.313 227.005C495.195 232.263 492.765 237.153 489.25 241.221L404.209 340.21ZM364.019 120.967C370.599 114.387 375.819 106.575 379.38 97.9778C382.941 89.3804 384.773 80.1659 384.773 70.8603C384.773 61.5546 382.94 52.3401 379.379 43.7429C375.818 35.1456 370.598 27.334 364.018 20.754C357.438 14.174 349.626 8.95443 341.029 5.39341C332.431 1.83238 323.217 -0.000410984 313.911 -0.000318005C304.606 -0.000225026 295.391 1.83275 286.794 5.39395C278.197 8.95515 270.385 14.1748 263.805 20.755L256 28.56L248.194 20.754C241.614 14.174 233.802 8.95441 225.205 5.39333C216.608 1.83225 207.394 -0.000610282 198.088 -0.000610352C188.782 -0.000610421 179.568 1.83225 170.971 5.39333C162.374 8.95441 154.562 14.174 147.982 20.754C141.402 27.334 136.182 35.1456 132.621 43.7428C129.06 52.34 127.227 61.5544 127.227 70.86C127.227 80.1655 129.06 89.3799 132.621 97.9771C136.182 106.574 141.402 114.386 147.982 120.966L242.665 215.649C246.204 219.18 251 221.164 256 221.164C261 221.164 265.796 219.18 269.335 215.649L364.019 120.967ZM253.27 205.043L158.587 110.36C148.111 99.8839 142.226 85.6754 142.226 70.8601C142.226 56.0448 148.111 41.8364 158.587 31.3605C169.064 20.8846 183.272 14.9993 198.087 14.9994C212.903 14.9995 227.111 20.8849 237.587 31.361L245.877 39.651C248.562 42.3355 252.203 43.8436 255.999 43.8436C259.796 43.8436 263.437 42.3355 266.122 39.651L274.412 31.361C284.888 20.8851 299.097 14.9998 313.912 14.9999C328.727 15 342.936 20.8854 353.411 31.3615C363.887 41.8375 369.773 56.046 369.773 70.8613C369.772 85.6766 363.887 99.8851 353.411 110.361L258.728 205.043C258.004 205.766 257.022 206.171 255.999 206.171C254.976 206.171 253.994 205.766 253.27 205.043ZM294 88.087H278.5V72.587C278.495 67.9473 276.649 63.4992 273.369 60.2185C270.088 56.9377 265.64 55.0923 261 55.087H251C246.36 55.0923 241.912 56.9377 238.631 60.2185C235.351 63.4992 233.505 67.9473 233.5 72.587V88.087H218C213.36 88.0923 208.912 89.9377 205.631 93.2185C202.351 96.4992 200.505 100.947 200.5 105.587V115.587C200.505 120.227 202.351 124.675 205.631 127.955C208.912 131.236 213.36 133.082 218 133.087H233.5V148.587C233.505 153.227 235.351 157.675 238.631 160.955C241.912 164.236 246.36 166.082 251 166.087H261C265.64 166.082 270.088 164.236 273.369 160.955C276.649 157.675 278.495 153.227 278.5 148.587V133.087H294C298.64 133.082 303.088 131.236 306.369 127.955C309.649 124.675 311.495 120.227 311.5 115.587V105.587C311.495 100.947 309.649 96.4992 306.369 93.2185C303.088 89.9377 298.64 88.0923 294 88.087ZM296.5 115.587C296.499 116.25 296.236 116.885 295.767 117.354C295.298 117.823 294.663 118.086 294 118.087H271C269.011 118.087 267.103 118.877 265.697 120.284C264.29 121.69 263.5 123.598 263.5 125.587V148.587C263.499 149.25 263.236 149.885 262.767 150.354C262.298 150.823 261.663 151.086 261 151.087H251C250.337 151.086 249.702 150.823 249.233 150.354C248.764 149.885 248.501 149.25 248.5 148.587V125.587C248.5 123.598 247.71 121.69 246.303 120.284C244.897 118.877 242.989 118.087 241 118.087H218C217.337 118.086 216.702 117.823 216.233 117.354C215.764 116.885 215.501 116.25 215.5 115.587V105.587C215.501 104.924 215.764 104.289 216.233 103.82C216.702 103.351 217.337 103.088 218 103.087H241C242.989 103.087 244.897 102.297 246.303 100.89C247.71 99.4838 248.5 97.5761 248.5 95.587V72.587C248.501 71.9242 248.764 71.2888 249.233 70.8201C249.702 70.3514 250.337 70.0878 251 70.087H261C261.663 70.0878 262.298 70.3514 262.767 70.8201C263.236 71.2888 263.499 71.9242 263.5 72.587V95.587C263.5 97.5761 264.29 99.4838 265.697 100.89C267.103 102.297 269.011 103.087 271 103.087H294C294.663 103.088 295.298 103.351 295.767 103.82C296.236 104.289 296.499 104.924 296.5 105.587V115.587Z" fill="black"/>
</g>
<defs>
<clipPath id="clip0_628_2">
<rect width="512" height="512" fill="white"/>
</clipPath>
</defs>
</svg>
