<svg width="512" height="512" viewBox="0 0 512 512" fill="none" xmlns="http://www.w3.org/2000/svg">
<path d="M469.835 192.979H143.059C135.87 192.979 128.975 195.835 123.892 200.918C118.809 206.001 115.953 212.896 115.953 220.085V397.176C115.953 404.365 118.809 411.26 123.892 416.343C128.975 421.427 135.87 424.282 143.059 424.282H469.835C473.395 424.282 476.92 423.581 480.208 422.219C483.497 420.857 486.485 418.86 489.002 416.343C491.519 413.826 493.516 410.838 494.878 407.549C496.24 404.261 496.941 400.736 496.941 397.176V220.085C496.921 212.902 494.059 206.019 488.98 200.94C483.901 195.861 477.018 192.999 469.835 192.979ZM481.882 397.176C481.882 400.371 480.613 403.436 478.354 405.695C476.095 407.954 473.03 409.223 469.835 409.223H143.059C139.864 409.223 136.799 407.954 134.54 405.695C132.281 403.436 131.012 400.371 131.012 397.176V220.085C131.012 216.89 132.281 213.825 134.54 211.566C136.799 209.307 139.864 208.038 143.059 208.038H469.835C473.03 208.038 476.095 209.307 478.354 211.566C480.613 213.825 481.882 216.89 481.882 220.085V397.176Z" fill="black"/>
<path d="M225.882 368.941H198.024C196.027 368.941 194.111 369.735 192.699 371.147C191.287 372.559 190.494 374.474 190.494 376.471C190.494 378.468 191.287 380.383 192.699 381.795C194.111 383.207 196.027 384 198.024 384H225.882C227.879 384 229.794 383.207 231.206 381.795C232.618 380.383 233.412 378.468 233.412 376.471C233.412 374.474 232.618 372.559 231.206 371.147C229.794 369.735 227.879 368.941 225.882 368.941ZM288.602 368.941H261.045C259.048 368.941 257.133 369.735 255.721 371.147C254.309 372.559 253.515 374.474 253.515 376.471C253.515 378.468 254.309 380.383 255.721 381.795C257.133 383.207 259.048 384 261.045 384H288.602C290.599 384 292.514 383.207 293.926 381.795C295.338 380.383 296.132 378.468 296.132 376.471C296.132 374.474 295.338 372.559 293.926 371.147C292.514 369.735 290.599 368.941 288.602 368.941ZM351.699 368.941H324.141C322.144 368.941 320.229 369.735 318.817 371.147C317.405 372.559 316.612 374.474 316.612 376.471C316.612 378.468 317.405 380.383 318.817 381.795C320.229 383.207 322.144 384 324.141 384H351.699C353.696 384 355.611 383.207 357.023 381.795C358.435 380.383 359.228 378.468 359.228 376.471C359.228 374.474 358.435 372.559 357.023 371.147C355.611 369.735 353.696 368.941 351.699 368.941ZM414.795 368.941H387.238C385.241 368.941 383.326 369.735 381.914 371.147C380.502 372.559 379.708 374.474 379.708 376.471C379.708 378.468 380.502 380.383 381.914 381.795C383.326 383.207 385.241 384 387.238 384H414.795C416.792 384 418.707 383.207 420.119 381.795C421.531 380.383 422.325 378.468 422.325 376.471C422.325 374.474 421.531 372.559 420.119 371.147C418.707 369.735 416.792 368.941 414.795 368.941ZM229.572 231.454H168.282C164.289 231.454 160.458 233.041 157.634 235.865C154.81 238.689 153.224 242.519 153.224 246.513V307.802C153.224 311.796 154.81 315.627 157.634 318.451C160.458 321.275 164.289 322.861 168.282 322.861H229.572C233.566 322.861 237.396 321.275 240.22 318.451C243.044 315.627 244.631 311.796 244.631 307.802V246.513C244.631 242.519 243.044 238.689 240.22 235.865C237.396 233.041 233.566 231.454 229.572 231.454ZM229.572 280.922H206.456V246.513H229.572V280.922ZM191.398 246.513V259.539H168.282V246.513H191.398ZM168.282 307.802V274.598H191.398V307.802H168.282ZM206.456 307.802V295.981H229.572V307.802H206.456ZM420.367 231.53C414.059 231.57 407.875 233.285 402.447 236.499C396.859 233.207 390.485 231.49 384 231.53C378.338 231.415 372.726 232.618 367.609 235.046C362.493 237.473 358.01 241.057 354.517 245.514C351.024 249.972 348.615 255.181 347.481 260.73C346.347 266.278 346.52 272.015 347.985 277.485C349.45 282.956 352.167 288.011 355.922 292.251C359.677 296.491 364.366 299.799 369.62 301.914C374.873 304.03 380.547 304.894 386.192 304.439C391.837 303.985 397.299 302.223 402.146 299.294C406.993 302.174 412.443 303.891 418.066 304.308C423.689 304.725 429.332 303.831 434.551 301.698C439.77 299.564 444.423 296.249 448.144 292.012C451.865 287.775 454.551 282.733 455.993 277.282C457.434 271.831 457.591 266.12 456.451 260.598C455.311 255.076 452.906 249.893 449.423 245.459C445.941 241.024 441.477 237.458 436.383 235.041C431.289 232.624 425.703 231.422 420.066 231.53H420.367ZM362.842 268.047C362.842 262.408 365.061 256.995 369.021 252.979C372.98 248.963 378.361 246.667 384 246.588C386.014 246.623 388.015 246.927 389.948 247.492C385.827 253.541 383.624 260.69 383.624 268.01C383.624 275.329 385.827 282.478 389.948 288.527C388.022 289.126 386.017 289.431 384 289.431C378.368 289.371 372.987 287.092 369.025 283.088C365.064 279.085 362.842 273.679 362.842 268.047ZM420.367 289.431C416.12 289.431 411.968 288.17 408.437 285.809C404.907 283.448 402.157 280.092 400.535 276.166C398.913 272.241 398.492 267.922 399.326 263.758C400.16 259.593 402.212 255.77 405.22 252.772C408.229 249.773 412.059 247.736 416.227 246.916C420.395 246.097 424.712 246.532 428.631 248.168C432.551 249.804 435.897 252.566 438.246 256.105C440.595 259.644 441.841 263.8 441.826 268.047C441.826 270.862 441.27 273.648 440.191 276.248C439.112 278.847 437.53 281.208 435.536 283.194C433.543 285.181 431.176 286.754 428.573 287.825C425.97 288.895 423.182 289.441 420.367 289.431ZM194.786 143.511C196.262 144.216 197.928 144.42 199.531 144.094C201.134 143.768 202.587 142.929 203.671 141.704L204.574 140.574C205.034 140.112 205.415 139.578 205.704 138.993C206.848 136.369 208.716 134.125 211.09 132.525C213.463 130.925 216.244 130.034 219.106 129.958C223.414 130.36 227.396 132.425 230.207 135.714C233.018 139.003 234.438 143.258 234.165 147.577C234.437 151.887 233.015 156.133 230.202 159.41C227.389 162.687 223.408 164.736 219.106 165.12C216.643 165.046 214.237 164.369 212.097 163.148C209.957 161.927 208.15 160.2 206.833 158.118C206.312 157.236 205.616 156.47 204.789 155.867C203.962 155.263 203.021 154.835 202.022 154.608C201.024 154.381 199.989 154.359 198.983 154.546C197.976 154.732 197.017 155.121 196.166 155.69C195.315 156.26 194.589 156.996 194.032 157.856C193.475 158.715 193.1 159.679 192.928 160.689C192.757 161.698 192.793 162.732 193.035 163.727C193.277 164.722 193.719 165.657 194.334 166.475C197.033 170.601 200.702 174.001 205.021 176.377C209.341 178.753 214.177 180.033 219.106 180.104C227.408 179.732 235.228 176.099 240.868 169.994C246.507 163.89 249.51 155.807 249.224 147.501C249.51 139.188 246.51 131.097 240.872 124.98C235.235 118.864 227.415 115.215 219.106 114.824C215.69 114.854 212.303 115.465 209.092 116.631L211.2 104.282H241.995C243.992 104.282 245.907 103.489 247.319 102.077C248.731 100.665 249.525 98.75 249.525 96.753C249.525 94.7561 248.731 92.841 247.319 91.4289C245.907 90.0169 243.992 89.2236 241.995 89.2236H204.875C203.082 89.1976 201.337 89.8128 199.957 90.9585C198.577 92.1042 197.651 93.7052 197.346 95.473L190.569 135.53C190.315 137.137 190.589 138.783 191.349 140.222C192.109 141.661 193.315 142.815 194.786 143.511ZM301.176 181.835C322.861 181.835 339.275 165.798 341.986 141.854C342.104 140.798 341.998 139.728 341.674 138.716C341.349 137.704 340.814 136.772 340.104 135.981C339.4 135.201 338.54 134.577 337.581 134.149C336.621 133.721 335.582 133.499 334.532 133.497H301.176C299.18 133.497 297.264 134.29 295.852 135.702C294.44 137.114 293.647 139.029 293.647 141.026C293.647 143.023 294.44 144.938 295.852 146.35C297.264 147.762 299.18 148.555 301.176 148.555H325.421C323.994 153.863 320.831 158.54 316.437 161.842C312.044 165.144 306.672 166.881 301.176 166.777C286.72 166.777 274.974 152.395 274.974 134.777C274.974 117.158 286.72 102.777 301.176 102.777C306.329 102.76 311.356 104.366 315.546 107.366C319.735 110.366 322.874 114.608 324.518 119.492C325.27 121.337 326.722 122.808 328.556 123.584C330.391 124.36 332.458 124.378 334.306 123.633C335.226 123.268 336.065 122.725 336.775 122.035C337.485 121.345 338.052 120.522 338.444 119.613C338.836 118.704 339.044 117.727 339.058 116.737C339.071 115.747 338.889 114.764 338.522 113.845C335.739 106.119 330.618 99.4516 323.871 94.7695C317.124 90.0873 309.087 87.6226 300.875 87.7177C278.287 87.7177 259.614 108.8 259.614 134.777C259.614 160.753 278.588 181.835 301.176 181.835ZM143.887 132.292C143.887 130.295 143.094 128.38 141.682 126.968C140.27 125.556 138.355 124.762 136.358 124.762C125.473 124.391 114.623 126.169 104.427 129.995C94.2305 133.822 84.8892 139.622 76.9374 147.063C68.9856 154.505 62.5794 163.441 58.0855 173.361C53.5916 183.281 51.0983 193.99 50.7482 204.875C50.7482 206.872 51.5415 208.787 52.9535 210.199C54.3656 211.612 56.2807 212.405 58.2776 212.405C60.2746 212.405 62.1897 211.612 63.6017 210.199C65.0138 208.787 65.8071 206.872 65.8071 204.875C66.4747 186.853 74.2439 169.827 87.4191 157.512C100.594 145.198 118.106 138.594 136.132 139.144C138.055 139.209 139.931 138.535 141.373 137.261C142.815 135.987 143.715 134.209 143.887 132.292Z" fill="black"/>
<path d="M135.906 103.755C137.903 103.755 139.818 102.962 141.23 101.55C142.642 100.138 143.435 98.2228 143.435 96.2259C143.435 94.2289 142.642 92.3138 141.23 90.9018C139.818 89.4897 137.903 88.6964 135.906 88.6964C104.85 87.823 74.7097 99.2735 52.0675 120.547C29.4253 141.821 16.1206 171.19 15.0588 202.24C15.0588 204.237 15.8521 206.152 17.2642 207.564C18.6762 208.976 20.5913 209.769 22.5882 209.769C24.5852 209.769 26.5003 208.976 27.9123 207.564C29.3244 206.152 30.1177 204.237 30.1177 202.24C31.1575 175.176 42.8688 149.625 62.6918 131.171C82.5148 112.716 108.837 102.86 135.906 103.755ZM141.176 169.939C141.176 167.942 140.383 166.027 138.971 164.615C137.559 163.203 135.644 162.409 133.647 162.409C122.033 162.124 110.775 166.432 102.317 174.396C93.8588 182.361 88.8834 193.34 88.4706 204.951C88.4706 206.947 89.2639 208.863 90.6759 210.275C92.088 211.687 94.0031 212.48 96 212.48C97.9969 212.48 99.9121 211.687 101.324 210.275C102.736 208.863 103.529 206.947 103.529 204.951C103.696 201.167 104.613 197.453 106.229 194.028C107.845 190.602 110.127 187.532 112.941 184.998C118.623 179.877 126.079 177.176 133.722 177.468C135.706 177.448 137.602 176.646 138.998 175.236C140.394 173.827 141.177 171.923 141.176 169.939Z" fill="black"/>
</svg>
