<svg width="128" height="128" viewBox="0 0 128 128" fill="none" xmlns="http://www.w3.org/2000/svg">
<g clip-path="url(#clip0_128_21)">
<path d="M64 39C67.3623 39 70.6491 38.003 73.4447 36.135C76.2403 34.267 78.4193 31.612 79.706 28.5056C80.9926 25.3993 81.3293 21.9811 80.6733 18.6835C80.0174 15.3858 78.3983 12.3567 76.0208 9.97919C73.6433 7.60169 70.6142 5.9826 67.3165 5.32665C64.0189 4.6707 60.6007 5.00736 57.4944 6.29405C54.388 7.58074 51.733 9.75967 49.865 12.5553C47.997 15.3509 47 18.6377 47 22C46.9997 24.2325 47.4393 26.4433 48.2935 28.5059C49.1478 30.5686 50.4 32.4428 51.9786 34.0214C53.5572 35.6 55.4314 36.8522 57.4941 37.7065C59.5567 38.5607 61.7675 39.0003 64 39ZM64 9C66.5712 9 69.0846 9.76244 71.2224 11.1909C73.3603 12.6194 75.0265 14.6497 76.0104 17.0251C76.9944 19.4006 77.2518 22.0144 76.7502 24.5362C76.2486 27.0579 75.0105 29.3743 73.1924 31.1924C71.3743 33.0105 69.0579 34.2486 66.5362 34.7502C64.0144 35.2518 61.4006 34.9944 59.0251 34.0104C56.6497 33.0265 54.6194 31.3603 53.1909 29.2224C51.7624 27.0846 51 24.5712 51 22C51.004 18.5534 52.3749 15.2491 54.812 12.812C57.2491 10.3749 60.5534 9.00397 64 9ZM126.596 66.82L109.177 51.957C108.596 51.4611 107.884 51.142 107.127 51.0376C106.37 50.9333 105.599 51.0479 104.905 51.368C104.211 51.6882 103.624 52.2003 103.212 52.844C102.8 53.4876 102.581 54.2358 102.581 55V62.385C87.14 64.4 74.12 71.945 65.465 83.72L65.45 83.735C65.353 83.855 64.797 84.551 63.982 85.777C55.367 72.82 41.742 64.517 25.419 62.385V55C25.419 54.2358 25.2 53.4876 24.7881 52.844C24.3762 52.2003 23.7885 51.6882 23.0946 51.368C22.4007 51.0479 21.6297 50.9333 20.8727 51.0376C20.1156 51.142 19.4044 51.4611 18.823 51.957L1.403 66.82C0.963006 67.1956 0.609717 67.6622 0.367499 68.1875C0.125281 68.7129 -0.000101128 69.2845 6.12e-08 69.863V70.865C2.2283e-05 71.4436 0.12556 72.0153 0.367953 72.5406C0.610346 73.066 0.963824 73.5325 1.404 73.908L18.823 88.771C19.4044 89.267 20.1156 89.586 20.8727 89.6904C21.6297 89.7947 22.4007 89.6801 23.0946 89.36C23.7885 89.0398 24.3762 88.5277 24.7881 87.884C25.2 87.2404 25.419 86.4922 25.419 85.728V79.611C43.307 83.134 53.84 97.554 53.84 119C53.84 119.39 54.002 120.697 54.001 120.993C53.9991 121.523 54.2078 122.032 54.5811 122.409C54.9545 122.785 55.4619 122.998 55.992 123H70.162C71.2229 123 72.2403 122.579 72.9904 121.828C73.7406 121.078 74.162 120.061 74.162 119C74.162 97.554 84.692 83.134 102.581 79.611V85.728C102.581 86.4922 102.8 87.2404 103.212 87.884C103.624 88.5277 104.211 89.0398 104.905 89.36C105.599 89.6801 106.37 89.7947 107.127 89.6904C107.884 89.586 108.596 89.267 109.177 88.771L126.597 73.908C127.037 73.5324 127.39 73.0658 127.632 72.5405C127.875 72.0151 128 71.4435 128 70.865V69.863C128 69.2844 127.874 68.7127 127.632 68.1874C127.39 67.662 127.036 67.1955 126.596 66.82ZM21.42 75V85.728L4 70.865V69.863L21.42 55V66C38.348 67.214 53.048 75.57 61.67 89.647C59.1963 94.2814 57.3097 99.206 56.054 104.307C51.347 86.325 37.788 76.53 21.42 75ZM124 70.865L106.58 85.728V75C86.2 76.904 70.162 91.61 70.162 119H58.037C58.3077 108.959 61.0015 99.1317 65.889 90.356C74.446 75.846 89.366 67.234 106.581 66V55L124 69.863V70.865Z" fill="white"/>
<path d="M63.128 69.062C62.7856 69.0149 62.437 69.0469 62.1089 69.1554C61.7807 69.2639 61.4818 69.4461 61.235 69.688C60.9881 69.9299 60.8 70.2251 60.6849 70.551C60.5698 70.8768 60.5308 71.2247 60.571 71.568C60.571 73.214 61.501 74 63.128 74C63.463 74.0515 63.8054 74.0249 64.1284 73.9222C64.4514 73.8196 64.7464 73.6437 64.9902 73.4083C65.234 73.1728 65.4202 72.8843 65.5341 72.565C65.648 72.2458 65.6867 71.9046 65.647 71.568C65.6914 71.2272 65.6568 70.8808 65.5457 70.5556C65.4346 70.2304 65.2501 69.9352 65.0065 69.6928C64.7629 69.4504 64.4667 69.2675 64.1409 69.1581C63.8151 69.0487 63.4685 69.0158 63.128 69.062ZM72 54.547C72 50.357 69.017 48 63.903 48C58.943 48 56 50.544 56 54.808C56.0207 55.3592 56.2542 55.8809 56.6515 56.2636C57.0488 56.6463 57.5789 56.86 58.1305 56.86C58.6821 56.86 59.2122 56.6463 59.6095 56.2636C60.0068 55.8809 60.2403 55.3592 60.261 54.808C60.261 52.713 61.733 51.666 63.903 51.666C66.383 51.666 67.816 52.713 67.816 54.546C67.816 58.512 60.3 58.812 60.3 63.526C60.3024 64.1269 60.4312 64.7206 60.6781 65.2685C60.925 65.8164 61.2844 66.3061 61.733 66.706C61.9331 66.9005 62.1697 67.0534 62.4292 67.1559C62.6888 67.2584 62.966 67.3084 63.245 67.303C63.7892 67.3089 64.3139 67.1003 64.7055 66.7222C65.097 66.3442 65.3239 65.8271 65.337 65.283C65.3398 64.8819 65.2178 64.4898 64.988 64.161C64.7599 63.9148 64.6229 63.5979 64.6 63.263C64.6 61.019 72 60.57 72 54.547ZM36 52.095C36 43.759 43.161 38.931 50.577 38.132C49.3485 37.0999 48.2414 35.9314 47.277 34.649C39.097 36.59 32 42.81 32 52.095V59.503C33.356 59.813 34.686 60.177 36 60.571V52.095ZM77.423 38.132C84.84 38.932 92 43.759 92 52.095V60.571C93.3211 60.1708 94.6552 59.8146 96 59.503V52.095C96 42.809 88.904 36.589 80.723 34.649C79.7586 35.9314 78.6515 37.0999 77.423 38.132Z" fill="white"/>
</g>
<defs>
<clipPath id="clip0_128_21">
<rect width="128" height="128" fill="white"/>
</clipPath>
</defs>
</svg>
