<svg width="18" height="32" viewBox="0 0 18 32" fill="none" xmlns="http://www.w3.org/2000/svg">
<path d="M15.5 0H2.5C1.83696 0 1.20107 0.263392 0.732233 0.732233C0.263392 1.20107 0 1.83696 0 2.5V29.5C0 30.163 0.263392 30.7989 0.732233 31.2678C1.20107 31.7366 1.83696 32 2.5 32H15.5C16.163 32 16.7989 31.7366 17.2678 31.2678C17.7366 30.7989 18 30.163 18 29.5V2.5C18 1.83696 17.7366 1.20107 17.2678 0.732233C16.7989 0.263392 16.163 0 15.5 0ZM17 29.5C17 29.8978 16.842 30.2794 16.5607 30.5607C16.2794 30.842 15.8978 31 15.5 31H2.5C2.10218 31 1.72064 30.842 1.43934 30.5607C1.15804 30.2794 1 29.8978 1 29.5V26H17V29.5ZM17 25H1V5H17V25ZM17 4H1V2.5C1 2.10218 1.15804 1.72064 1.43934 1.43934C1.72064 1.15804 2.10218 1 2.5 1H15.5C15.8978 1 16.2794 1.15804 16.5607 1.43934C16.842 1.72064 17 2.10218 17 2.5V4ZM9 30C9.29667 30 9.58668 29.912 9.83335 29.7472C10.08 29.5824 10.2723 29.3481 10.3858 29.074C10.4993 28.7999 10.5291 28.4983 10.4712 28.2074C10.4133 27.9164 10.2704 27.6491 10.0607 27.4393C9.85088 27.2296 9.58361 27.0867 9.29263 27.0288C9.00166 26.9709 8.70006 27.0007 8.42597 27.1142C8.15189 27.2277 7.91762 27.42 7.7528 27.6666C7.58797 27.9133 7.5 28.2033 7.5 28.5C7.5 28.8978 7.65804 29.2794 7.93934 29.5607C8.22064 29.842 8.60218 30 9 30ZM9 28C9.09889 28 9.19556 28.0293 9.27778 28.0843C9.36001 28.1392 9.4241 28.2173 9.46194 28.3087C9.49978 28.4 9.50969 28.5006 9.49039 28.5975C9.4711 28.6945 9.42348 28.7836 9.35355 28.8536C9.28363 28.9235 9.19454 28.9711 9.09755 28.9904C9.00056 29.0097 8.90002 28.9998 8.80866 28.9619C8.7173 28.9241 8.63921 28.86 8.58426 28.7778C8.52932 28.6956 8.5 28.5989 8.5 28.5C8.5 28.3674 8.55268 28.2402 8.64645 28.1464C8.74021 28.0527 8.86739 28 9 28ZM9 2C8.90111 2 8.80444 2.02932 8.72221 2.08427C8.63999 2.13921 8.5759 2.2173 8.53806 2.30866C8.50022 2.40002 8.49031 2.50055 8.50961 2.59755C8.5289 2.69454 8.57652 2.78363 8.64645 2.85355C8.71637 2.92348 8.80546 2.9711 8.90245 2.99039C8.99944 3.00969 9.09998 2.99978 9.19134 2.96194C9.2827 2.9241 9.36079 2.86001 9.41574 2.77779C9.47068 2.69556 9.5 2.59889 9.5 2.5C9.5 2.36739 9.44732 2.24021 9.35355 2.14645C9.25979 2.05268 9.13261 2 9 2ZM3.5 18H14.5C14.8978 18 15.2794 17.842 15.5607 17.5607C15.842 17.2794 16 16.8978 16 16.5V15.5C16 15.1022 15.842 14.7206 15.5607 14.4393C15.2794 14.158 14.8978 14 14.5 14H3.5C3.10218 14 2.72064 14.158 2.43934 14.4393C2.15804 14.7206 2 15.1022 2 15.5V16.5C2 16.8978 2.15804 17.2794 2.43934 17.5607C2.72064 17.842 3.10218 18 3.5 18ZM3 15.5C3 15.3674 3.05268 15.2402 3.14645 15.1464C3.24021 15.0527 3.36739 15 3.5 15H14.5C14.6326 15 14.7598 15.0527 14.8536 15.1464C14.9473 15.2402 15 15.3674 15 15.5V16.5C15 16.6326 14.9473 16.7598 14.8536 16.8536C14.7598 16.9473 14.6326 17 14.5 17H3.5C3.36739 17 3.24021 16.9473 3.14645 16.8536C3.05268 16.7598 3 16.6326 3 16.5V15.5ZM3.5 23H14.5C14.8978 23 15.2794 22.842 15.5607 22.5607C15.842 22.2794 16 21.8978 16 21.5V20.5C16 20.1022 15.842 19.7206 15.5607 19.4393C15.2794 19.158 14.8978 19 14.5 19H3.5C3.10218 19 2.72064 19.158 2.43934 19.4393C2.15804 19.7206 2 20.1022 2 20.5V21.5C2 21.8978 2.15804 22.2794 2.43934 22.5607C2.72064 22.842 3.10218 23 3.5 23ZM3 20.5C3 20.3674 3.05268 20.2402 3.14645 20.1464C3.24021 20.0527 3.36739 20 3.5 20H14.5C14.6326 20 14.7598 20.0527 14.8536 20.1464C14.9473 20.2402 15 20.3674 15 20.5V21.5C15 21.6326 14.9473 21.7598 14.8536 21.8536C14.7598 21.9473 14.6326 22 14.5 22H3.5C3.36739 22 3.24021 21.9473 3.14645 21.8536C3.05268 21.7598 3 21.6326 3 21.5V20.5ZM9 13C9.59334 13 10.1734 12.8241 10.6667 12.4944C11.1601 12.1648 11.5446 11.6962 11.7716 11.1481C11.9987 10.5999 12.0581 9.99667 11.9424 9.41473C11.8266 8.83279 11.5409 8.29824 11.1213 7.87868C10.7018 7.45912 10.1672 7.1734 9.58527 7.05764C9.00333 6.94189 8.40013 7.0013 7.85195 7.22836C7.30377 7.45542 6.83524 7.83994 6.50559 8.33329C6.17595 8.82664 6 9.40666 6 10C6 10.7956 6.31607 11.5587 6.87868 12.1213C7.44129 12.6839 8.20435 13 9 13ZM9 8C9.39556 8 9.78224 8.1173 10.1111 8.33706C10.44 8.55682 10.6964 8.86918 10.8478 9.23463C10.9991 9.60009 11.0387 10.0022 10.9616 10.3902C10.8844 10.7781 10.6939 11.1345 10.4142 11.4142C10.1345 11.6939 9.77814 11.8844 9.39018 11.9616C9.00222 12.0387 8.60009 11.9991 8.23463 11.8478C7.86918 11.6964 7.55682 11.44 7.33706 11.1111C7.1173 10.7822 7 10.3956 7 10C7 9.46957 7.21071 8.96086 7.58579 8.58579C7.96086 8.21071 8.46957 8 9 8Z" fill="black"/>
</svg>
