<svg width="44" height="58" viewBox="0 0 44 58" fill="none" xmlns="http://www.w3.org/2000/svg">
<path d="M30.78 37.63H30.73L27.66 35.48V33.14C30.0951 31.7014 31.9439 29.4489 32.88 26.78C34.004 26.7284 35.0859 26.3376 35.9835 25.6591C36.881 24.9806 37.552 24.0462 37.9081 22.9789C38.2643 21.9116 38.2888 20.7614 37.9786 19.6799C37.6683 18.5984 37.0378 17.6362 36.17 16.92C36.699 15.9173 36.9834 14.8036 37 13.67V12.67C37.6943 12.2156 38.2823 11.6167 38.7241 10.9144C39.1659 10.212 39.451 9.42258 39.56 8.6L39.62 8.14C39.6626 7.89033 39.6089 7.63379 39.4697 7.4222C39.3305 7.2106 39.1161 7.05971 38.87 7L35.61 6C36.4946 4.822 36.9814 3.39306 37 1.92C37 1.65478 36.8946 1.40043 36.7071 1.21289C36.5196 1.02536 36.2652 0.919999 36 0.919999H14.3C13.3436 0.916052 12.3958 1.10085 11.511 1.46381C10.6261 1.82677 9.8216 2.36075 9.14347 3.03517C8.46533 3.70958 7.92694 4.51117 7.55912 5.39402C7.19131 6.27686 7.0013 7.2236 7 8.18V13.67C7.00419 14.8004 7.27485 15.9138 7.79 16.92C6.93099 17.6339 6.306 18.5892 5.9959 19.6622C5.6858 20.7353 5.70488 21.8767 6.05064 22.9388C6.39641 24.0009 7.05297 24.9347 7.93535 25.6196C8.81773 26.3044 9.88533 26.7086 11 26.78C11.9095 29.5092 13.8073 31.7993 16.32 33.2V35.48L13.25 37.63H13.2C9.88458 37.6406 6.70827 38.9637 4.36578 41.3099C2.02329 43.6561 0.705268 46.8346 0.699997 50.15V53.44C0.699993 54.4037 1.08212 55.328 1.76259 56.0103C2.44306 56.6927 3.36634 57.0774 4.33 57.08H39.67C40.6336 57.0774 41.5569 56.6927 42.2374 56.0103C42.9179 55.328 43.3 54.4037 43.3 53.44V50.15C43.2947 46.8311 41.9739 43.6497 39.6271 41.3029C37.2803 38.9561 34.0989 37.6353 30.78 37.63ZM26.78 37.33L29.07 38.93L26.37 43.65L23.37 41.09L26.78 37.33ZM36.19 21.2C36.1888 22.0087 35.9147 22.7933 35.4119 23.4267C34.9092 24.0602 34.2073 24.5053 33.42 24.69C33.5306 24.029 33.5874 23.3602 33.59 22.69V19.79C34.1094 19.448 34.5831 19.0414 35 18.58C35.3702 18.9095 35.6674 19.3128 35.8724 19.764C36.0773 20.2153 36.1855 20.7044 36.19 21.2ZM9 8.18C9.0013 7.48624 9.13957 6.79957 9.40688 6.15938C9.67418 5.51919 10.0653 4.93807 10.5577 4.44937C11.0501 3.96067 11.6342 3.57401 12.2764 3.31156C12.9186 3.04911 13.6063 2.91605 14.3 2.92H34.86C34.6295 4.03358 34.0264 5.03533 33.15 5.76C31.7778 6.81166 30.1169 7.41878 28.39 7.5C28.1248 7.5 27.8704 7.60536 27.6829 7.79289C27.4954 7.98043 27.39 8.23478 27.39 8.5C27.39 8.76522 27.4954 9.01957 27.6829 9.20711C27.8704 9.39464 28.1248 9.5 28.39 9.5C30.3814 9.43206 32.3099 8.78576 33.94 7.64L37.47 8.64C37.3379 9.17558 37.0905 9.67588 36.7451 10.106C36.3996 10.536 35.9645 10.8855 35.47 11.13C35.3051 11.2131 35.1664 11.3402 35.0693 11.4973C34.9722 11.6544 34.9206 11.8353 34.92 12.02V13.63C34.9155 14.9356 34.4274 16.1932 33.55 17.16V15.87C33.5474 14.9797 33.1925 14.1266 32.563 13.497C31.9334 12.8675 31.0803 12.5126 30.19 12.51H24.19C21 12.51 19.38 12.38 17.6 9.58C17.4849 9.39683 17.3136 9.25592 17.1116 9.17839C16.9097 9.10086 16.6881 9.0909 16.48 9.15C16.2656 9.21235 16.0782 9.34469 15.9477 9.52592C15.8172 9.70716 15.7511 9.92685 15.76 10.15C15.76 12.86 14.13 15.65 11.41 15.65C11.1448 15.65 10.8904 15.7554 10.7029 15.9429C10.5154 16.1304 10.41 16.3848 10.41 16.65V17.24C9.50878 16.269 9.0055 14.9947 9 13.67V8.18ZM7.77 21.18C7.78227 20.6848 7.89805 20.1976 8.10988 19.7498C8.32172 19.3021 8.62492 18.9036 9 18.58C9.42612 19.0434 9.91009 19.4501 10.44 19.79V23.09C10.4444 23.6221 10.4845 24.1533 10.56 24.68C9.7789 24.4902 9.08379 24.0445 8.58541 23.4138C8.08704 22.7831 7.81407 22.0038 7.81 21.2L7.77 21.18ZM12.37 23.07V17.52C13.5893 17.2411 14.7052 16.6241 15.5896 15.7396C16.4741 14.8552 17.0911 13.7393 17.37 12.52C19.37 14.52 21.63 14.52 24.13 14.52H30.13C30.4907 14.52 30.8366 14.6633 31.0917 14.9183C31.3467 15.1734 31.49 15.5193 31.49 15.88V22.75C31.5235 25.3056 30.5592 27.7736 28.8021 29.6296C27.0451 31.4856 24.6336 32.5835 22.08 32.69C20.8059 32.7126 19.5401 32.4813 18.3563 32.0095C17.1726 31.5378 16.0946 30.8352 15.1852 29.9425C14.2758 29.0499 13.5532 27.9852 13.0596 26.8104C12.5659 25.6356 12.3111 24.3743 12.31 23.1L12.37 23.07ZM22 34.68H22.21C23.3857 34.6591 24.5505 34.4497 25.66 34.06V35.63L22 39.69L18.34 35.63V34.08C19.5195 34.4765 20.7556 34.6792 22 34.68ZM17.19 37.33L20.57 41.09L17.57 43.65L14.87 38.93L17.19 37.33ZM41.3 53.44C41.3 53.8732 41.1286 54.2889 40.8232 54.5961C40.5178 54.9034 40.1032 55.0774 39.67 55.08H4.33C3.89678 55.0774 3.4822 54.9034 3.1768 54.5961C2.8714 54.2889 2.69999 53.8732 2.7 53.44V50.15C2.70456 47.4001 3.78466 44.7611 5.70939 42.7972C7.63413 40.8332 10.2508 39.7001 13 39.64L16.47 45.7C16.5432 45.8283 16.644 45.9388 16.765 46.0235C16.8861 46.1083 17.0244 46.1651 17.17 46.19H17.34C17.5755 46.2066 17.8093 46.1393 18 46L22 42.54L26 46C26.1811 46.1549 26.4117 46.24 26.65 46.24H26.82C26.9656 46.2151 27.1039 46.1583 27.225 46.0735C27.346 45.9888 27.4468 45.8783 27.52 45.75L31 39.64C33.7492 39.7001 36.3659 40.8332 38.2906 42.7972C40.2153 44.7611 41.2954 47.4001 41.3 50.15V53.44ZM18.83 17.84V19.1C18.83 19.3652 18.7246 19.6196 18.5371 19.8071C18.3496 19.9946 18.0952 20.1 17.83 20.1C17.5648 20.1 17.3104 19.9946 17.1229 19.8071C16.9354 19.6196 16.83 19.3652 16.83 19.1V17.84C16.83 17.5748 16.9354 17.3204 17.1229 17.1329C17.3104 16.9454 17.5648 16.84 17.83 16.84C18.0952 16.84 18.3496 16.9454 18.5371 17.1329C18.7246 17.3204 18.83 17.5748 18.83 17.84ZM25.17 19.1V17.84C25.17 17.5748 25.2754 17.3204 25.4629 17.1329C25.6504 16.9454 25.9048 16.84 26.17 16.84C26.4352 16.84 26.6896 16.9454 26.8771 17.1329C27.0646 17.3204 27.17 17.5748 27.17 17.84V19.1C27.17 19.3652 27.0646 19.6196 26.8771 19.8071C26.6896 19.9946 26.4352 20.1 26.17 20.1C25.9048 20.1 25.6504 19.9946 25.4629 19.8071C25.2754 19.6196 25.17 19.3652 25.17 19.1ZM22 26.59C21.4762 26.587 20.9606 26.4604 20.4949 26.2206C20.0292 25.9808 19.6267 25.6346 19.32 25.21C19.1595 24.9952 19.091 24.7254 19.1294 24.46C19.1679 24.1947 19.3102 23.9555 19.525 23.795C19.7398 23.6345 20.0096 23.566 20.275 23.6044C20.5403 23.6429 20.7795 23.7852 20.94 24C21.0652 24.1619 21.2259 24.293 21.4096 24.3832C21.5934 24.4734 21.7953 24.5202 22 24.5202C22.2047 24.5202 22.4066 24.4734 22.5904 24.3832C22.7741 24.293 22.9348 24.1619 23.06 24C23.1344 23.8876 23.2307 23.7914 23.3432 23.7172C23.4556 23.6429 23.582 23.5922 23.7146 23.568C23.8471 23.5439 23.9832 23.5467 24.1147 23.5765C24.2461 23.6062 24.3702 23.6622 24.4795 23.7411C24.5887 23.82 24.6809 23.9202 24.7504 24.0356C24.82 24.1511 24.8655 24.2794 24.8843 24.4128C24.903 24.5463 24.8945 24.6822 24.8594 24.8123C24.8243 24.9424 24.7633 25.0641 24.68 25.17C24.3776 25.602 23.977 25.956 23.511 26.2028C23.0451 26.4497 22.5272 26.5824 22 26.59ZM23.31 46.84C23.31 47.0991 23.2332 47.3524 23.0892 47.5678C22.9453 47.7832 22.7407 47.9511 22.5013 48.0503C22.2619 48.1494 21.9985 48.1754 21.7444 48.1248C21.4903 48.0743 21.2569 47.9495 21.0737 47.7663C20.8905 47.5831 20.7657 47.3497 20.7152 47.0956C20.6646 46.8415 20.6906 46.5781 20.7897 46.3387C20.8889 46.0993 21.0568 45.8947 21.2722 45.7508C21.4876 45.6068 21.7409 45.53 22 45.53C22.3474 45.53 22.6806 45.668 22.9263 45.9137C23.172 46.1594 23.31 46.4926 23.31 46.84ZM23.31 51.77C23.31 52.0291 23.2332 52.2824 23.0892 52.4978C22.9453 52.7132 22.7407 52.8811 22.5013 52.9803C22.2619 53.0794 21.9985 53.1054 21.7444 53.0548C21.4903 53.0043 21.2569 52.8795 21.0737 52.6963C20.8905 52.5131 20.7657 52.2797 20.7152 52.0256C20.6646 51.7715 20.6906 51.5081 20.7897 51.2687C20.8889 51.0293 21.0568 50.8247 21.2722 50.6808C21.4876 50.5368 21.7409 50.46 22 50.46C22.3474 50.46 22.6806 50.598 22.9263 50.8437C23.172 51.0894 23.31 51.4226 23.31 51.77Z" fill="white"/>
</svg>
