<svg width="48" height="48" viewBox="0 0 48 48" fill="none" xmlns="http://www.w3.org/2000/svg">
<path d="M30 1H18C16.8954 1 16 1.89543 16 3V11C16 12.1046 16.8954 13 18 13H30C31.1046 13 32 12.1046 32 11V3C32 1.89543 31.1046 1 30 1Z" fill="white"/>
<path d="M32 3V11H28C25.3478 11 22.8043 9.94643 20.9289 8.07107C19.0536 6.1957 18 3.65216 18 1H30C30.5304 1 31.0391 1.21071 31.4142 1.58579C31.7893 1.96086 32 2.46957 32 3Z" fill="white"/>
<path d="M30 18H18C16.8954 18 16 18.8954 16 20V28C16 29.1046 16.8954 30 18 30H30C31.1046 30 32 29.1046 32 28V20C32 18.8954 31.1046 18 30 18Z" fill="white"/>
<path d="M32 20V28H28C25.3478 28 22.8043 26.9464 20.9289 25.0711C19.0536 23.1957 18 20.6522 18 18H30C30.5304 18 31.0391 18.2107 31.4142 18.5858C31.7893 18.9609 32 19.4696 32 20Z" fill="white"/>
<path d="M30 35H18C16.8954 35 16 35.8954 16 37V45C16 46.1046 16.8954 47 18 47H30C31.1046 47 32 46.1046 32 45V37C32 35.8954 31.1046 35 30 35Z" fill="white"/>
<path d="M32 37V45H28C25.3478 45 22.8043 43.9464 20.9289 42.0711C19.0536 40.1957 18 37.6522 18 35H30C30.5304 35 31.0391 35.2107 31.4142 35.5858C31.7893 35.9609 32 36.4696 32 37Z" fill="white"/>
<path d="M30 0H18C17.2044 0 16.4413 0.31607 15.8787 0.87868C15.3161 1.44129 15 2.20435 15 3V11C15 11.7956 15.3161 12.5587 15.8787 13.1213C16.4413 13.6839 17.2044 14 18 14H30C30.7956 14 31.5587 13.6839 32.1213 13.1213C32.6839 12.5587 33 11.7956 33 11V3C33 2.20435 32.6839 1.44129 32.1213 0.87868C31.5587 0.31607 30.7956 0 30 0ZM31 11C31 11.2652 30.8946 11.5196 30.7071 11.7071C30.5196 11.8946 30.2652 12 30 12H18C17.7348 12 17.4804 11.8946 17.2929 11.7071C17.1054 11.5196 17 11.2652 17 11V3C17 2.73478 17.1054 2.48043 17.2929 2.29289C17.4804 2.10536 17.7348 2 18 2H30C30.2652 2 30.5196 2.10536 30.7071 2.29289C30.8946 2.48043 31 2.73478 31 3V11ZM30 17H18C17.2044 17 16.4413 17.3161 15.8787 17.8787C15.3161 18.4413 15 19.2044 15 20V28C15 28.7956 15.3161 29.5587 15.8787 30.1213C16.4413 30.6839 17.2044 31 18 31H30C30.7956 31 31.5587 30.6839 32.1213 30.1213C32.6839 29.5587 33 28.7956 33 28V20C33 19.2044 32.6839 18.4413 32.1213 17.8787C31.5587 17.3161 30.7956 17 30 17ZM31 28C31 28.2652 30.8946 28.5196 30.7071 28.7071C30.5196 28.8946 30.2652 29 30 29H18C17.7348 29 17.4804 28.8946 17.2929 28.7071C17.1054 28.5196 17 28.2652 17 28V20C17 19.7348 17.1054 19.4804 17.2929 19.2929C17.4804 19.1054 17.7348 19 18 19H30C30.2652 19 30.5196 19.1054 30.7071 19.2929C30.8946 19.4804 31 19.7348 31 20V28ZM30 34H18C17.2044 34 16.4413 34.3161 15.8787 34.8787C15.3161 35.4413 15 36.2044 15 37V45C15 45.7956 15.3161 46.5587 15.8787 47.1213C16.4413 47.6839 17.2044 48 18 48H30C30.7956 48 31.5587 47.6839 32.1213 47.1213C32.6839 46.5587 33 45.7956 33 45V37C33 36.2044 32.6839 35.4413 32.1213 34.8787C31.5587 34.3161 30.7956 34 30 34ZM31 45C31 45.2652 30.8946 45.5196 30.7071 45.7071C30.5196 45.8946 30.2652 46 30 46H18C17.7348 46 17.4804 45.8946 17.2929 45.7071C17.1054 45.5196 17 45.2652 17 45V37C17 36.7348 17.1054 36.4804 17.2929 36.2929C17.4804 36.1054 17.7348 36 18 36H30C30.2652 36 30.5196 36.1054 30.7071 36.2929C30.8946 36.4804 31 36.7348 31 37V45ZM36 6C35.7348 6 35.4804 6.10536 35.2929 6.29289C35.1054 6.48043 35 6.73478 35 7C35 7.26522 35.1054 7.51957 35.2929 7.70711C35.4804 7.89464 35.7348 8 36 8C45.48 8 46.68 20.17 38.74 22.66C38.9 22.4643 38.9799 22.2152 38.9636 21.9629C38.9474 21.7107 38.8362 21.4739 38.6525 21.3003C38.4687 21.1267 38.2261 21.0291 37.9733 21.0272C37.7205 21.0253 37.4764 21.1192 37.29 21.29C35.37 23.22 35.19 23.35 35.08 23.62C35.0034 23.8021 34.9825 24.0028 35.0199 24.1968C35.0572 24.3908 35.1512 24.5694 35.29 24.71C37.47 26.89 37.46 27 38 27C38.1986 27.0012 38.3931 26.9431 38.5586 26.8333C38.7241 26.7235 38.8532 26.5669 38.9294 26.3835C39.0055 26.2 39.0253 25.9981 38.9863 25.8033C38.9472 25.6086 38.851 25.4299 38.71 25.29L38.25 24.84C40.4267 24.4281 42.3917 23.27 43.8063 21.5651C45.221 19.8602 45.9967 17.7154 46 15.5C46 10.64 42.28 6 36 6ZM12 25C12.2652 25 12.5196 24.8946 12.7071 24.7071C12.8946 24.5196 13 24.2652 13 24C13 23.7348 12.8946 23.4804 12.7071 23.2929C12.5196 23.1054 12.2652 23 12 23C5.66 23 2 27.7 2 32.5C2.00326 34.7154 2.77903 36.8602 4.19368 38.5651C5.60833 40.27 7.57327 41.4281 9.75 41.84L9.29 42.29C9.1017 42.4783 8.99591 42.7337 8.99591 43C8.99591 43.2663 9.1017 43.5217 9.29 43.71C9.4783 43.8983 9.7337 44.0041 10 44.0041C10.2663 44.0041 10.5217 43.8983 10.71 43.71C13.79 40.62 13.79 41.37 10.71 38.29C10.5236 38.1192 10.2795 38.0253 10.0267 38.0272C9.77395 38.0291 9.53126 38.1267 9.34751 38.3003C9.16376 38.4739 9.05259 38.7107 9.03635 38.9629C9.02011 39.2152 9.10002 39.4643 9.26 39.66C7.50666 39.1105 6.01562 37.9372 5.06912 36.3623C4.12261 34.7874 3.78632 32.9202 4.1239 31.114C4.46148 29.3078 5.4495 27.6881 6.90094 26.5614C8.35239 25.4347 10.1665 24.8792 12 25ZM41.29 38.29L38 41.59L36.71 40.29C36.6168 40.1968 36.5061 40.1228 36.3843 40.0723C36.2624 40.0219 36.1319 39.9959 36 39.9959C35.8681 39.9959 35.7376 40.0219 35.6157 40.0723C35.4939 40.1228 35.3832 40.1968 35.29 40.29C35.1968 40.3832 35.1228 40.4939 35.0723 40.6157C35.0219 40.7376 34.9959 40.8681 34.9959 41C34.9959 41.1319 35.0219 41.2624 35.0723 41.3843C35.1228 41.5061 35.1968 41.6168 35.29 41.71C38.58 44.99 37.29 45.11 42.71 39.71C42.8983 39.5217 43.0041 39.2663 43.0041 39C43.0041 38.7337 42.8983 38.4783 42.71 38.29C42.5217 38.1017 42.2663 37.9959 42 37.9959C41.7337 37.9959 41.4783 38.1017 41.29 38.29ZM10.71 3.29C10.5217 3.1017 10.2663 2.99591 10 2.99591C9.7337 2.99591 9.4783 3.1017 9.29 3.29C9.1017 3.4783 8.99591 3.7337 8.99591 4C8.99591 4.2663 9.1017 4.5217 9.29 4.71C9.69 5.1 10.51 5 5 5C4.73478 5 4.48043 5.10536 4.29289 5.29289C4.10536 5.48043 4 5.73478 4 6C4 6.26522 4.10536 6.51957 4.29289 6.70711C4.48043 6.89464 4.73478 7 5 7C10.29 7 9.71 6.87 9.29 7.29C9.1017 7.4783 8.99591 7.7337 8.99591 8C8.99591 8.2663 9.1017 8.5217 9.29 8.71C9.4783 8.8983 9.7337 9.00409 10 9.00409C10.2663 9.00409 10.5217 8.8983 10.71 8.71C13.78 5.63 13.77 6.36 10.71 3.29Z" fill="white"/>
<path d="M28 4H20C19.7348 4 19.4804 4.10536 19.2929 4.29289C19.1054 4.48043 19 4.73478 19 5C19 5.26522 19.1054 5.51957 19.2929 5.70711C19.4804 5.89464 19.7348 6 20 6H28C28.2652 6 28.5196 5.89464 28.7071 5.70711C28.8946 5.51957 29 5.26522 29 5C29 4.73478 28.8946 4.48043 28.7071 4.29289C28.5196 4.10536 28.2652 4 28 4ZM26 8H20C19.7348 8 19.4804 8.10536 19.2929 8.29289C19.1054 8.48043 19 8.73478 19 9C19 9.26522 19.1054 9.51957 19.2929 9.70711C19.4804 9.89464 19.7348 10 20 10H26C26.2652 10 26.5196 9.89464 26.7071 9.70711C26.8946 9.51957 27 9.26522 27 9C27 8.73478 26.8946 8.48043 26.7071 8.29289C26.5196 8.10536 26.2652 8 26 8ZM28 21H20C19.7348 21 19.4804 21.1054 19.2929 21.2929C19.1054 21.4804 19 21.7348 19 22C19 22.2652 19.1054 22.5196 19.2929 22.7071C19.4804 22.8946 19.7348 23 20 23H28C28.2652 23 28.5196 22.8946 28.7071 22.7071C28.8946 22.5196 29 22.2652 29 22C29 21.7348 28.8946 21.4804 28.7071 21.2929C28.5196 21.1054 28.2652 21 28 21ZM26 25H20C19.7348 25 19.4804 25.1054 19.2929 25.2929C19.1054 25.4804 19 25.7348 19 26C19 26.2652 19.1054 26.5196 19.2929 26.7071C19.4804 26.8946 19.7348 27 20 27H26C26.2652 27 26.5196 26.8946 26.7071 26.7071C26.8946 26.5196 27 26.2652 27 26C27 25.7348 26.8946 25.4804 26.7071 25.2929C26.5196 25.1054 26.2652 25 26 25ZM28 38H20C19.7348 38 19.4804 38.1054 19.2929 38.2929C19.1054 38.4804 19 38.7348 19 39C19 39.2652 19.1054 39.5196 19.2929 39.7071C19.4804 39.8946 19.7348 40 20 40H28C28.2652 40 28.5196 39.8946 28.7071 39.7071C28.8946 39.5196 29 39.2652 29 39C29 38.7348 28.8946 38.4804 28.7071 38.2929C28.5196 38.1054 28.2652 38 28 38ZM26 42H20C19.7348 42 19.4804 42.1054 19.2929 42.2929C19.1054 42.4804 19 42.7348 19 43C19 43.2652 19.1054 43.5196 19.2929 43.7071C19.4804 43.8946 19.7348 44 20 44H26C26.2652 44 26.5196 43.8946 26.7071 43.7071C26.8946 43.5196 27 43.2652 27 43C27 42.7348 26.8946 42.4804 26.7071 42.2929C26.5196 42.1054 26.2652 42 26 42Z" fill="white"/>
</svg>
