<?xml version="1.0" encoding="UTF-8"?>
<svg width="676px" height="565px" viewBox="0 0 676 565" version="1.1" xmlns="http://www.w3.org/2000/svg" xmlns:xlink="http://www.w3.org/1999/xlink">
    <!-- Generator: Sketch 50.2 (55047) - http://www.bohemiancoding.com/sketch -->
    <title>shutterstock_1071873191 [Convertido]</title>
    <desc>Created with Sketch.</desc>
    <defs>
        <linearGradient x1="100.008523%" y1="49.9607164%" x2="-0.0306628264%" y2="49.9607164%" id="linearGradient-1">
            <stop stop-color="#E0F0EB" offset="0%"></stop>
            <stop stop-color="#C0E4EF" offset="100%"></stop>
        </linearGradient>
        <linearGradient x1="-0.0141581244%" y1="50.0231589%" x2="99.9696641%" y2="50.0231589%" id="linearGradient-2">
            <stop stop-color="#E0F0EB" offset="0%"></stop>
            <stop stop-color="#C0E4EF" offset="100%"></stop>
        </linearGradient>
        <linearGradient x1="0.217663818%" y1="50.2435897%" x2="99.9111111%" y2="50.2435897%" id="linearGradient-3">
            <stop stop-color="#E0F0EB" offset="0%"></stop>
            <stop stop-color="#C0E4EF" offset="100%"></stop>
        </linearGradient>
        <linearGradient x1="100.00007%" y1="50.0132606%" x2="-0.0520949721%" y2="50.0132606%" id="linearGradient-4">
            <stop stop-color="#E0F0EB" offset="0%"></stop>
            <stop stop-color="#C0E4EF" offset="100%"></stop>
        </linearGradient>
        <linearGradient x1="0.167655699%" y1="50.0064762%" x2="100.38601%" y2="50.0064762%" id="linearGradient-5">
            <stop stop-color="#E0F0EB" offset="0%"></stop>
            <stop stop-color="#C0E4EF" offset="100%"></stop>
        </linearGradient>
        <linearGradient x1="98.0611111%" y1="49.9388889%" x2="-4.96666667%" y2="49.9388889%" id="linearGradient-6">
            <stop stop-color="#E0F0EB" offset="0%"></stop>
            <stop stop-color="#C0E4EF" offset="100%"></stop>
        </linearGradient>
        <linearGradient x1="35.416317%" y1="-8.03578309%" x2="70.314669%" y2="133.130325%" id="linearGradient-7">
            <stop stop-color="#E0F0EB" offset="0%"></stop>
            <stop stop-color="#C0E4EF" offset="100%"></stop>
        </linearGradient>
    </defs>
    <g id="v5" stroke="none" stroke-width="1" fill="none" fill-rule="evenodd">
        <g id="28-05-2018-customer-success" transform="translate(-499.000000, -439.000000)" fill-rule="nonzero">
            <g id="shutterstock_1071873191-[Convertido]" transform="translate(499.173182, 438.703125)">
                <path d="M654.483155,172.404286 C663.154043,209.903063 574.643417,214.745247 538.158121,215.195683 C528.023316,215.308292 518.001121,214.294811 508.091534,212.380459 C477.236685,206.074359 409.671321,189.746063 419.243081,167.336884 C431.404846,138.508995 468.11536,158.665995 468.11536,158.665995 C468.11536,158.665995 463.498394,136.93247 525.996355,122.518526 C588.494316,108.104582 588.15649,156.07599 588.15649,156.07599 C588.15649,156.07599 643.672697,125.22114 654.483155,172.404286 Z" id="Shape" fill="url(#linearGradient-1)"></path>
                <path d="M56.9801233,116.550252 L418.116991,116.550252 C418.116991,116.550252 437.710947,91.7762855 418.116991,75.1101625 C407.306533,65.8762295 394.581723,66.8897099 385.235181,69.5923245 C379.154298,71.3940675 373.186025,67.2275367 371.834717,61.146654 C369.695148,51.0118495 362.826002,37.6113857 343.457265,29.72876 C324.313745,21.9587432 312.264589,33.7826818 305.282834,45.9444472 C303.030656,49.998369 296.837164,49.3227154 295.485857,44.9309668 C289.404974,25.7874471 268.347102,0.337826818 198.867387,0.337826818 C110.581978,0.337826818 120.378956,47.2957545 128.261582,66.777101 C129.612889,70.1553691 126.685057,73.6462463 123.19418,72.8579837 C109.568498,69.9301513 84.3440955,66.2140563 72.9705926,75.1101625 C56.9801233,87.6097547 56.9801233,116.550252 56.9801233,116.550252 Z" id="Shape" fill="url(#linearGradient-2)"></path>
                <g id="Group" transform="translate(7.882626, 194.813465)">
                    <g transform="translate(84.456704, 0.000000)" id="Shape">
                        <path d="M149.094236,158.102951 C149.094236,158.102951 131.527241,25.2244024 36.4852963,0.675653635 C-61.8223076,137.945951 73.4210284,234.339203 73.4210284,234.339203 L149.094236,158.102951 Z" fill="#043C5E"></path>
                        <path d="M36.5979053,0.788262575 C36.2600784,1.23869833 35.9222516,1.68913409 35.5844248,2.25217878 L94.7041179,148.6438 L1.68913409,116.437643 C1.80174303,117.563733 1.91435197,118.577213 2.13956985,119.703302 L96.2806431,152.247286 L113.284593,194.475638 L115.536772,192.223459 L81.528872,107.991973 L113.62242,60.8088272 C113.059375,59.9079557 112.49633,59.0070842 111.933286,58.1062126 L80.1775647,104.726313 L38.2870393,1.23869833 C37.7239946,1.12608939 37.16095,0.900871514 36.5979053,0.788262575 Z" fill="#00666A"></path>
                    </g>
                    <g transform="translate(0.000000, 76.574079)" id="Shape">
                        <path d="M189.520845,70.0427602 C189.520845,70.0427602 93.1275928,-22.4091789 3.60348606,6.3061006 C-18.8056929,117.113297 101.010219,160.918174 101.010219,160.918174 L217.785688,155.738163 L189.520845,70.0427602 Z" fill="#FFD247"></path>
                        <path d="M107.428928,16.2156873 L105.739794,75.4479893 L5.7430559,5.63044696 C5.06740227,5.85566484 4.27913969,6.08088272 3.60348606,6.3061006 C3.49087712,6.75653635 3.49087712,7.20697211 3.37826818,7.65740787 L56.8675143,45.0435757 L3.37826818,57.9936037 C3.49087712,58.5566484 3.60348606,59.0070842 3.716095,59.5701289 L4.05392181,60.9214361 L60.0205646,47.2957545 L149.206844,109.568498 L56.0792517,135.468554 C57.0927322,136.256816 58.1062126,136.93247 59.0070842,137.720733 L152.247286,111.820677 L215.53351,156.07599 L217.560471,155.963381 L216.659599,153.260766 L108.3298,77.7001681 L110.131543,17.7922124 C109.34328,17.0039498 108.442408,16.666123 107.428928,16.2156873 Z" fill="#FFFFFF"></path>
                    </g>
                    <g transform="translate(36.034861, 208.326538)" id="Shape">
                        <path d="M148.305973,2.02696091 C148.305973,2.02696091 37.9492125,-14.3013353 0.900871514,50.7866316 C74.096682,185.129096 250.104454,101.460654 250.104454,101.460654 L148.305973,2.02696091 Z" fill="#63C1C5"></path>
                        <path d="M1.01348045,50.7866316 C1.35130727,51.3496763 1.57652515,51.8001121 1.91435197,52.3631567 L152.585113,62.948397 L96.8436877,123.306788 C97.9697771,123.532006 99.0958665,123.757224 100.221956,123.982442 L156.301208,63.061006 L215.195683,67.2275367 L211.930024,64.0744864 L97.4067324,56.0792517 L56.1918607,9.12132408 C55.1783802,9.4591509 54.1648998,9.79697771 53.1514193,10.1348045 L93.2402017,55.7414249 L1.91435197,49.3227154 C1.57652515,49.8857601 1.23869833,50.3361958 1.01348045,50.7866316 Z" fill="#01898C"></path>
                    </g>
                </g>
                <g id="Group" transform="translate(445.931399, 174.543856)">
                    <g id="Shape">
                        <path d="M0.675653635,178.37256 C0.675653635,178.37256 -4.84218439,41.7779165 86.3710564,0.450435757 C209.227409,121.279828 89.9745425,241.771393 89.9745425,241.771393 L0.675653635,178.37256 Z" fill="#01898C"></path>
                        <path d="M86.3710564,0.450435757 C86.8214922,0.900871514 87.159319,1.23869833 87.6097547,1.68913409 L53.714464,159.116431 L141.662046,110.581978 C141.774655,111.708068 141.774655,112.834157 141.774655,113.960247 L52.8135925,163.057744 L43.0166148,208.439147 L40.3140002,206.524795 L59.7953467,115.987207 L19.2561286,74.209291 C19.7065644,73.1958105 20.0443912,72.1823301 20.4948269,71.1688496 L60.4710004,112.49633 L84.4567044,1.23869833 C85.244967,1.01348045 85.8080117,0.675653635 86.3710564,0.450435757 Z" fill="#FFFFFF"></path>
                    </g>
                    <g transform="translate(14.639162, 75.447989)" id="Shape">
                        <path d="M24.4361398,80.4027826 C24.4361398,80.4027826 117.113297,-19.4813465 210.015672,4.39174863 C239.406605,115.874598 120.041129,167.674711 120.041129,167.674711 L0.900871514,169.363845 L24.4361398,80.4027826 Z" fill="#FFD247"></path>
                        <path d="M104.838922,20.7200448 L110.131543,80.9658273 L207.763493,3.94131287 C208.551755,4.16653075 209.227409,4.27913969 210.015672,4.50435757 C210.128281,4.95479333 210.24089,5.40522908 210.353499,5.85566484 L158.102951,47.0705366 L213.39394,57.2053411 C213.281331,57.7683858 213.168722,58.2188216 213.168722,58.7818663 L212.943504,60.1331736 L155.062509,49.5479333 L67.9031904,118.239386 L164.296442,139.07204 C163.282962,139.860303 162.38209,140.761174 161.36861,141.549437 L64.862749,120.716783 L3.04044136,169.476454 L1.01348045,169.476454 L1.80174303,166.66123 L107.541537,83.2180061 L102.136308,22.29657 C102.92457,21.7335253 103.938051,21.1704806 104.838922,20.7200448 Z" fill="#FFFFFF"></path>
                    </g>
                    <g transform="translate(11.260894, 216.209163)" id="Shape">
                        <path d="M36.9357321,4.27913969 L0.337826818,44.480531 C5.63044696,48.6470618 10.2474135,53.6018551 14.0761174,59.344911 C16.4409051,64.2997043 18.6930839,69.1418887 21.0578716,74.096682 C24.4361398,83.1053972 24.6613577,92.7897659 22.9722236,102.136308 C25.7874471,106.753274 28.1522348,111.595459 29.8413689,116.325034 C31.6431119,121.05461 32.5439834,126.009403 32.7692013,130.964196 C88.6232352,133.554202 155.287727,118.577213 189.971281,45.0435757 C148.305973,-18.9183018 36.9357321,4.27913969 36.9357321,4.27913969 Z" fill="#043C5E"></path>
                        <path d="M189.858672,45.1561846 C189.520845,44.7057489 189.183018,44.2553131 188.9578,43.8048774 L96.393252,55.7414249 L134.455073,6.86914529 C133.441593,6.53131848 132.315504,6.3061006 131.302023,5.96827378 L92.1141123,56.3044696 L17.1165588,65.9888384 C17.5669945,66.8897099 18.0174303,67.9031904 18.467866,68.8040619 L32.4313745,67.0023188 L93.1275928,125.671576 C94.2536821,125.333749 95.3797715,125.108531 96.5058609,124.770705 L36.2600784,66.4392742 L189.070409,46.7327098 C189.295627,46.282274 189.633454,45.7192293 189.858672,45.1561846 Z" fill="#00666A"></path>
                    </g>
                </g>
                <g id="Group" transform="translate(168.913409, 54.052291)">
                    <g>
                        <rect id="Rectangle-path" fill="#63C1C5" x="5.96827378" y="4.39174863" width="339.628561" height="475.660159"></rect>
                        <path d="M337.151164,0.225217878 L18.6930839,0.225217878 C8.78349726,0.225217878 0.788262575,6.64392742 0.788262575,14.5265532 L0.788262575,471.944064 C0.788262575,479.82669 8.8961062,486.2454 18.6930839,486.2454 L337.263773,486.2454 C347.17336,486.2454 355.168594,479.82669 355.168594,471.944064 L355.168594,14.5265532 C355.055985,6.64392742 347.060751,0.225217878 337.151164,0.225217878 Z M345.596835,441.089215 L11.7113297,441.089215 L11.7113297,33.332246 L345.709443,33.332246 L345.709443,441.089215 L345.596835,441.089215 Z" id="Shape" fill="#222C53"></path>
                        <path d="M186.930839,463.047958 C186.930839,471.155802 180.286912,477.799729 172.179068,477.799729 C164.071224,477.799729 157.427297,471.155802 157.427297,463.047958 C157.427297,454.940115 164.071224,448.296187 172.179068,448.296187 C180.286912,448.408796 186.930839,454.940115 186.930839,463.047958 Z" id="Shape" fill="#FFFFFF"></path>
                        <path d="M184.003007,463.047958 C184.003007,469.579277 178.710387,474.871897 172.179068,474.871897 C165.64775,474.871897 160.355129,469.579277 160.355129,463.047958 C160.355129,456.51664 165.64775,451.22402 172.179068,451.22402 C178.710387,451.22402 184.003007,456.51664 184.003007,463.047958 Z" id="Shape" fill="#63C1C5"></path>
                        <path d="M192.448677,20.7200448 L161.706437,20.7200448 C159.341649,20.7200448 157.314688,18.8056929 157.314688,16.3282962 C157.314688,13.9635085 159.22904,11.9365476 161.706437,11.9365476 L192.448677,11.9365476 C194.813465,11.9365476 196.840426,13.8508995 196.840426,16.3282962 C196.840426,18.6930839 194.813465,20.7200448 192.448677,20.7200448 Z" id="Shape" fill="url(#linearGradient-3)"></path>
                    </g>
                    <rect id="Rectangle-path" fill="#FFFFFF" x="29.2783242" y="46.282274" width="301.566739" height="379.829952"></rect>
                </g>
                <rect id="Rectangle-path" fill="#63C1C5" x="242.672264" y="312.827633" width="79.5019111" height="79.5019111"></rect>
                <g id="Group" transform="translate(222.965700, 162.156873)" fill="#63C1C5">
                    <rect id="Rectangle-path" x="0.563044696" y="0.450435757" width="89.6367156" height="5.06740227"></rect>
                    <rect id="Rectangle-path" x="0.563044696" y="15.8778604" width="89.6367156" height="5.06740227"></rect>
                    <rect id="Rectangle-path" x="0.563044696" y="35.3592069" width="89.6367156" height="5.06740227"></rect>
                    <rect id="Rectangle-path" x="0.563044696" y="50.7866316" width="89.6367156" height="5.06740227"></rect>
                </g>
                <g id="Group" transform="translate(379.492125, 291.657153)" fill="#01898C">
                    <rect id="Rectangle-path" x="0.788262575" y="0.900871514" width="89.6367156" height="5.06740227"></rect>
                    <rect id="Rectangle-path" x="0.788262575" y="16.3282962" width="89.6367156" height="5.06740227"></rect>
                    <rect id="Rectangle-path" x="0.788262575" y="35.8096427" width="89.6367156" height="5.06740227"></rect>
                    <rect id="Rectangle-path" x="0.788262575" y="51.2370674" width="89.6367156" height="5.06740227"></rect>
                </g>
                <rect id="Rectangle-path" fill="#FFD247" x="198.191733" y="100.334565" width="307.647622" height="42.0031343"></rect>
                <g id="Group" transform="translate(255.622292, 162.156873)">
                    <g transform="translate(16.891341, 0.000000)" id="Shape">
                        <g transform="translate(49.547933, 0.000000)">
                            <polygon fill="#F4A086" points="48.7596707 96.2806431 52.3631567 131.63985 14.5265532 133.103766 22.0713521 78.2632128"></polygon>
                            <path d="M60.4710004,102.699353 C64.862749,102.586744 68.9166708,101.91109 71.0562407,100.221956 C83.7810508,81.7540899 69.2544976,31.9809387 69.2544976,31.9809387 L48.9848886,23.4226594 L23.1974415,39.4131287 L21.7335253,72.7453748 C21.3956985,81.641481 25.5622292,90.1997603 33.2196371,95.7175984 C41.4400896,100.447174 50.7866316,102.92457 60.4710004,102.699353 Z" fill="#F8B68F"></path>
                            <path d="M27.2513633,58.3314305 C28.7152795,52.7009836 27.9270169,39.7509556 33.6700728,40.764436 C37.8366036,41.4400896 52.1379389,42.0031343 56.8675143,42.0031343 C68.3536261,42.0031343 88.7358441,37.4987768 88.7358441,20.1570001 C88.7358441,11.4861118 80.2901737,3.94131287 74.9975535,1.68913409 C69.7049334,-0.450435757 63.8492686,-0.450435757 58.4440395,1.46391621 C45.8318383,5.85566484 29.1657153,15.5400336 22.5217878,14.1887263 C11.2608939,11.9365476 0.112608939,18.467866 0.337826818,28.0396259 C0.450435757,38.1744304 5.85566484,53.4892461 10.8104582,63.2862239 C13.7382906,68.9166708 17.5669945,73.9840731 22.183961,78.2632128 L27.2513633,58.3314305 Z" fill="#212B53"></path>
                            <path d="M15.6526426,59.5701289 C18.2426482,57.3179501 22.9722236,57.7683858 26.3504918,60.4710004 C29.72876,63.2862239 30.2918047,67.3401457 27.814408,69.5923245 C25.2244024,71.8445032 20.4948269,71.3940675 17.1165588,68.6914529 C13.7382906,65.9888384 13.062637,61.8223076 15.6526426,59.5701289 Z" fill="#F8B68F"></path>
                        </g>
                        <path d="M161.256001,317.4446 L161.256001,222.402655 C161.256001,180.624739 128.599409,122.856353 86.8214922,121.392437 C85.5827938,121.392437 84.2314866,121.279828 82.9927882,121.279828 C76.7992966,121.279828 70.9436317,121.730263 65.5384026,122.631135 C27.4765812,128.4868 5.68434189e-14,162.156873 5.68434189e-14,200.556521 L5.68434189e-14,317.4446 L161.256001,317.4446 Z" fill="url(#linearGradient-4)"></path>
                        <polygon fill="#FFFFFF" points="100.221956 111.820677 66.5518831 111.820677 61.146654 124.20766 104.613705 125.333749"></polygon>
                    </g>
                    <path d="M42.4535701,318.007644 L49.2101064,140.648565 C49.2101064,140.648565 4.50435757,169.363845 0.788262575,230.060063 C-1.57652515,268.347102 3.82870393,294.02194 5.7430559,318.007644 L42.4535701,318.007644 Z" id="Shape" fill="url(#linearGradient-5)"></path>
                    <path d="M62.0475255,317.669818 L51.4622852,191.322588 C49.3227154,192.11085 48.4218439,194.025202 47.4083634,195.939554 L57.543168,316.881555 L62.0475255,317.669818 Z" id="Shape" fill="#63C1C5"></path>
                    <path d="M93.9158553,75.2227714 L80.4027826,75.2227714 C77.0245144,75.2227714 74.209291,72.4075479 74.209291,69.0292798 L74.209291,55.516207 C74.209291,52.1379389 77.0245144,49.3227154 80.4027826,49.3227154 L93.9158553,49.3227154 C97.2941235,49.3227154 100.109347,52.1379389 100.109347,55.516207 L100.109347,69.0292798 C100.109347,72.4075479 97.2941235,75.2227714 93.9158553,75.2227714 Z" id="Shape" fill="#01898C"></path>
                    <path d="M115.987207,5.18001121 C119.703302,3.04044136 123.757224,1.57652515 127.811146,0.675653635 L110.35676,0.675653635 C94.7041179,0.675653635 82.0919167,13.4004638 82.0919167,28.9404974 L82.0919167,55.628816 L86.5962743,55.628816 L86.5962743,28.9404974 C86.5962743,15.7652515 97.2941235,5.18001121 110.35676,5.18001121 L115.987207,5.18001121 Z" id="Shape" fill="#01898C"></path>
                    <path d="M134.905509,89.9745425 L133.666811,85.6954028 L141.774655,83.443224 C143.35118,82.9927882 144.702487,81.8666988 145.378141,80.2901737 C146.053794,78.7136485 146.053794,77.0245144 145.265532,75.4479893 L142.337699,69.7049334 L141.21161,58.2188216 L149.319453,73.5336373 C150.670761,76.2362519 150.78337,79.3893022 149.544671,82.2045256 C148.305973,85.0197491 145.941185,87.04671 143.013353,87.8349726 L134.905509,89.9745425 Z" id="Shape" fill="#01898C"></path>
                    <path d="M136.369425,91.2132408 L130.62637,92.677157 C128.4868,93.2402017 126.34723,91.8888944 125.784185,89.8619335 C125.22114,87.7223637 126.572448,85.5827938 128.599409,85.0197491 L134.342465,83.5558329 C136.482034,82.9927882 138.621604,84.3440955 139.184649,86.3710564 C139.747694,88.5106262 138.508995,90.6501961 136.369425,91.2132408 Z" id="Shape" fill="#043C5E"></path>
                </g>
                <path d="M523.969394,42.7913969 C473.182763,42.7913969 431.967891,84.0062687 431.967891,134.7929 C431.967891,153.711202 437.710947,164.52166 448.408796,185.917359 C464.174048,217.110035 438.161383,230.285281 438.161383,230.285281 C438.161383,230.285281 506.177182,230.735717 523.856785,230.735717 C574.643417,230.735717 615.858289,185.579532 615.858289,134.7929 C615.970898,84.0062687 574.868635,42.7913969 523.969394,42.7913969 Z" id="Shape" fill="#63C1C5"></path>
                <g id="Group" transform="translate(56.304470, 420.031343)">
                    <g transform="translate(0.000000, 3.378268)" id="Shape">
                        <g transform="translate(177.922124, 0.000000)" fill="#01898C">
                            <polygon points="45.3814025 0.225217878 83.8936597 129.275062 79.3893022 129.275062 40.9896539 0.225217878"></polygon>
                            <polygon points="5.06740227 0.225217878 43.5796595 129.275062 39.0753019 129.275062 0.563044696 0.225217878"></polygon>
                            <polygon points="45.1561846 0.225217878 45.1561846 3.82870393 3.37826818 3.82870393 2.70261454 0.225217878"></polygon>
                            <polygon points="52.3631567 25.5622292 52.3631567 29.5035421 10.5852403 29.5035421 9.79697771 25.5622292"></polygon>
                            <polygon points="59.6827378 52.2505478 61.3718719 56.1918607 19.5939554 56.0792517 18.9183018 52.2505478"></polygon>
                            <polygon points="67.5653635 78.9388664 69.2544976 82.7675703 27.4765812 82.7675703 26.6883186 78.8262575"></polygon>
                            <polygon points="74.8849446 104.951531 76.5740787 108.892844 34.7961622 108.780235 34.1205086 104.951531"></polygon>
                        </g>
                        <g fill="#043C5E">
                            <polygon points="43.5796595 0.225217878 5.18001121 129.275062 0.675653635 129.275062 39.1879109 0.225217878"></polygon>
                            <polygon points="84.0062687 0.225217878 45.4940115 129.275062 40.9896539 129.275062 79.5019111 0.225217878"></polygon>
                            <polygon points="81.8666988 0.225217878 81.1910452 3.82870393 39.4131287 3.82870393 39.4131287 0.225217878"></polygon>
                            <polygon points="32.2061566 25.5622292 32.2061566 29.5035421 73.9840731 29.5035421 74.7723357 25.5622292"></polygon>
                            <polygon points="24.8865756 52.2505478 23.1974415 56.1918607 64.9753579 56.0792517 65.6510116 52.2505478"></polygon>
                            <polygon points="17.0039498 78.9388664 15.3148157 82.7675703 57.0927322 82.7675703 57.8809948 78.8262575"></polygon>
                            <polygon points="9.68436877 104.951531 7.99523469 108.892844 49.7731511 108.780235 50.4488048 104.951531"></polygon>
                        </g>
                    </g>
                    <rect id="Rectangle-path" fill="#043C5E" transform="translate(129.052660, 3.986694) rotate(-180.000000) translate(-129.052660, -3.986694) " x="27.0852651" y="0.777339508" width="203.934789" height="6.41870954"></rect>
                </g>
                <g id="Group" transform="translate(184.678660, 226.343968)">
                    <g transform="translate(33.782682, 184.678660)" id="Shape">
                        <path d="M5.96827378,4.27913969 C5.96827378,4.27913969 7.31958105,6.19349166 13.7382906,7.77001681 C15.0895979,8.10784363 16.666123,8.3330615 16.666123,10.6978492 C13.6256816,10.6978492 10.3600224,10.6978492 10.3600224,10.6978492 L3.94131287,9.57175984 L3.94131287,10.6978492 L0.450435757,10.6978492 C0.450435757,10.6978492 -0.563044696,4.95479333 1.46391621,4.27913969 C3.26565924,4.27913969 5.96827378,4.27913969 5.96827378,4.27913969 Z" fill="#212B53"></path>
                        <path d="M6.3061006,0.225217878 L5.96827378,4.27913969 C4.72957545,5.18001121 3.04044136,5.18001121 1.68913409,4.39174863 L1.46391621,4.27913969 L1.46391621,0.225217878 L6.3061006,0.225217878 Z" fill="#F8B68F"></path>
                    </g>
                    <g transform="translate(1.126089, 185.678660)" id="Shape">
                        <path d="M6.19349166,4.18001121 C6.19349166,4.18001121 7.54479893,6.09436317 13.9635085,7.67088832 C15.3148157,8.00871514 16.8913409,8.23393302 16.8913409,10.5987207 C13.8508995,10.5987207 10.5852403,10.5987207 10.5852403,10.5987207 L4.16653075,9.47263135 L4.16653075,10.5987207 L0.675653635,10.5987207 C0.675653635,10.5987207 -0.337826818,4.85566484 1.68913409,4.18001121 C3.60348606,4.18001121 6.19349166,4.18001121 6.19349166,4.18001121 Z" fill="#212B53"></path>
                        <path d="M6.53131848,0.0134804532 L6.19349166,4.06740227 C4.95479333,4.96827378 3.26565924,4.96827378 1.91435197,4.18001121 L1.68913409,4.06740227 L1.68913409,0.0134804532 L6.53131848,0.0134804532 Z" fill="#F8B68F"></path>
                    </g>
                    <path d="M42.678788,84.2314866 L41.1022628,187.043448 L33.5574639,187.043448 C33.5574639,187.043448 22.183961,104.05066 24.5487488,84.2314866 C27.0261454,64.4123132 42.678788,84.2314866 42.678788,84.2314866 Z" id="Shape" fill="#212B53"></path>
                    <path d="M34.6835533,84.2314866 C34.6835533,84.2314866 32.0935477,115.874598 26.1252739,133.328984 C20.1570001,150.78337 9.34654196,187.156057 9.34654196,187.156057 L1.57652515,187.156057 C1.57652515,187.156057 14.5265532,111.257632 11.5987207,84.2314866 L34.6835533,84.2314866 Z" id="Shape" fill="#11375B"></path>
                    <path d="M41.4400896,31.8683298 C41.4400896,31.8683298 50.6740227,53.3766372 53.0388104,53.3766372 C54.9531624,53.3766372 52.3631567,35.8096427 52.3631567,35.8096427 L60.1331736,35.8096427 C60.1331736,35.8096427 69.8175423,65.9888384 62.1601345,71.5066764 C54.3901177,77.0245144 37.3861678,55.9666428 37.3861678,55.9666428 L41.4400896,31.8683298 Z" id="Shape" fill="#00666A"></path>
                    <path d="M13.9635085,86.9341011 L16.7787319,93.8032464 C18.1300392,96.5058609 23.0848325,96.6184699 26.3504918,95.7175984 C26.8009275,95.6049894 27.0261454,94.9293358 26.6883186,94.591509 C24.8865756,92.5645481 20.1570001,87.4971458 18.580475,86.3710564 L13.9635085,86.9341011 Z" id="Shape" fill="#F8B68F"></path>
                    <path d="M37.3861678,27.4765812 C37.3861678,27.4765812 42.2283522,30.7422404 42.2283522,34.4583354 C42.2283522,38.1744304 42.2283522,84.2314866 42.2283522,84.2314866 L13.9635085,84.2314866 L13.9635085,37.7239946 C13.9635085,37.7239946 14.5265532,27.3639722 24.6613577,27.3639722 C34.6835533,27.3639722 37.3861678,27.4765812 37.3861678,27.4765812 Z" id="Shape" fill="#00666A"></path>
                    <polygon id="Shape" fill="#01898C" points="41.6653075 84.2314866 41.6653075 39.5257377 42.678788 39.6383466 42.678788 84.2314866"></polygon>
                    <path d="M27.1387544,16.3282962 L27.1387544,28.0396259 C27.1387544,28.0396259 29.0531063,30.7422404 32.6565924,30.7422404 C36.2600784,30.7422404 36.1474695,28.1522348 36.1474695,28.1522348 L36.1474695,20.6074359 L30.9674583,19.2561286 L27.1387544,16.3282962 Z" id="Shape" fill="#F4A086"></path>
                    <path d="M36.5979053,22.9722236 C37.7239946,22.9722236 38.7374751,22.7470057 39.1879109,22.29657 C42.3409612,17.3417766 38.7374751,3.82870393 38.7374751,3.82870393 L27.3639722,5.85566484 L27.0261454,14.86438 C26.9135365,17.2291677 28.0396259,19.5939554 29.8413689,21.0578716 C31.8683298,22.29657 34.2331175,22.9722236 36.5979053,22.9722236 Z" id="Shape" fill="#F8B68F"></path>
                    <path d="M32.6565924,6.08088272 C32.6565924,6.08088272 36.3726874,6.75653635 40.4266092,6.08088272 C44.3679221,5.40522908 41.8905254,1.01348045 41.8905254,1.01348045 C41.8905254,1.01348045 38.962693,2.36478772 33.7826818,1.57652515 C30.2918047,1.01348045 29.2783242,0.337826818 27.0261454,1.57652515 C23.9857041,3.26565924 24.6613577,8.78349726 24.6613577,8.78349726 L26.3504918,20.4948269 L27.0261454,20.4948269 C27.0261454,20.4948269 27.1387544,13.5130727 27.1387544,11.148285 C27.814408,10.0221956 28.4900616,10.0221956 29.0531063,10.3600224 C29.616151,10.6978492 29.9539778,11.2608939 29.9539778,11.9365476 L29.9539778,24.098313 C29.9539778,24.098313 37.7239946,27.4765812 39.6383466,26.8009275 C41.6653075,26.2378828 40.3140002,17.1165588 40.3140002,17.1165588 C40.3140002,17.1165588 38.0618215,16.1030783 36.2600784,18.1300392 C34.4583354,20.0443912 32.4313745,18.0174303 32.4313745,18.0174303 L32.6565924,6.08088272 Z" id="Shape" fill="#212B53"></path>
                    <path d="M58.5566484,35.8096427 L58.3314305,34.3457265 C57.7683858,31.0800672 54.6153355,26.9135365 51.4622852,25.900056 L48.196626,25.900056 L49.2101064,32.8818103 L53.827073,35.8096427 L58.5566484,35.8096427 Z" id="Shape" fill="#F8B68F"></path>
                    <path d="M28.1522348,10.0221956 C29.0531063,9.90958665 29.8413689,10.8104582 30.0665868,11.9365476 C30.1791957,13.062637 29.616151,13.9635085 28.8278884,14.0761174 C27.9270169,14.1887263 27.1387544,13.2878548 26.9135365,12.1617654 C26.6883186,11.035676 27.2513633,10.1348045 28.1522348,10.0221956 Z" id="Shape" fill="#F8B68F"></path>
                    <path d="M50.4488048,32.0935477 L56.8675143,35.8096427 C56.8675143,35.8096427 52.8135925,35.8096427 52.8135925,35.8096427 L46.0570562,30.1791957 C46.0570562,30.1791957 46.5074919,29.1657153 48.0840171,30.0665868 C49.5479333,30.8548494 50.4488048,32.0935477 50.4488048,32.0935477 Z" id="Shape" fill="#F8B68F"></path>
                    <path d="M16.8913409,30.5170225 C16.8913409,30.5170225 0.900871514,48.3092349 0.900871514,58.8944752 C0.900871514,69.4797155 13.8508995,88.2854084 13.8508995,88.2854084 L20.2696091,86.3710564 C20.2696091,86.3710564 14.5265532,63.1736149 14.5265532,56.9801233 C14.5265532,50.7866316 26.3504918,41.7779165 26.3504918,41.7779165" id="Shape" fill="#00666A"></path>
                    <path d="M14.9769889,56.9801233 C14.9769889,62.2727434 19.7065644,81.7540899 20.8326538,86.2584475 C20.4948269,86.3710564 20.382218,86.3710564 19.9317822,86.4836653 C18.580475,80.8532184 14.1887263,62.1601345 14.1887263,56.9801233 C14.1887263,50.6740227 25.7874471,41.7779165 26.2378828,41.4400896 L26.8009275,42.2283522 C26.5757097,42.2283522 14.9769889,51.1244584 14.9769889,56.9801233 Z" id="Shape" fill="#01898C"></path>
                    <g transform="translate(40.539218, 6.756536)" id="Shape">
                        <path d="M5.63044696,13.7382906 C5.63044696,13.7382906 4.27913969,20.6074359 8.55827938,26.1252739 C8.78349726,26.4631007 9.23393302,26.6883186 9.79697771,26.8009275 C10.8104582,26.9135365 11.4861118,26.5757097 12.0491565,26.4631007 C12.8374191,26.2378828 13.1752459,25.7874471 13.4004638,25.4496203 C13.5130727,25.1117935 13.5130727,24.7739666 13.2878548,24.5487488 C12.3869833,23.3100504 9.79697771,18.8056929 10.9230671,14.9769889 C8.67088832,13.1752459 5.63044696,13.7382906 5.63044696,13.7382906 Z" fill="#F59C42"></path>
                        <path d="M12.6122012,26.2378828 C13.062637,26.012665 13.1752459,25.7874471 13.4004638,25.5622292 C13.5130727,25.2244024 13.5130727,24.8865756 13.2878548,24.6613577 C12.3869833,23.4226594 9.79697771,18.9183018 10.9230671,15.0895979 C10.1348045,14.4139442 9.23393302,14.0761174 8.44567044,13.9635085 C8.3330615,18.1300392 9.23393302,20.9452627 12.6122012,26.2378828 Z" fill="#FAB746"></path>
                        <g transform="translate(9.008715, 16.891341)">
                            <g>
                                <path d="M0.450435757,2.5900056 C0.675653635,3.60348606 1.12608939,4.27913969 1.46391621,4.27913969 C1.80174303,4.16653075 2.02696091,3.37826818 1.80174303,2.36478772 C1.57652515,1.35130727 1.12608939,0.675653635 0.788262575,0.675653635 C0.450435757,0.675653635 0.225217878,1.57652515 0.450435757,2.5900056 Z" fill="#F59C42"></path>
                                <polygon fill="#F59C42" points="0.675653635 0.675653635 1.12608939 0.563044696 1.12608939 0.788262575 0.788262575 0.900871514"></polygon>
                                <polygon fill="#E8375E" points="1.46391621 4.16653075 1.91435197 4.05392181 1.35130727 4.05392181"></polygon>
                            </g>
                            <path d="M0.788262575,2.47739666 C1.01348045,3.49087712 1.46391621,4.16653075 1.80174303,4.16653075 C2.13956985,4.05392181 2.36478772,3.26565924 2.13956985,2.25217878 C1.91435197,1.23869833 1.46391621,0.563044696 1.12608939,0.563044696 C0.675653635,0.675653635 0.563044696,1.46391621 0.788262575,2.47739666 Z" fill="#FFD247"></path>
                        </g>
                        <path d="M3.94131287,7.99523469 L3.1530503,7.99523469 C1.68913409,7.99523469 0.563044696,9.12132408 0.563044696,10.4726313 L0.563044696,12.4995923 C0.563044696,13.8508995 1.80174303,14.9769889 3.1530503,14.9769889 L3.94131287,14.9769889 L3.94131287,7.99523469 Z" fill="#FFD247"></path>
                        <path d="M27.1387544,9.90958665 C27.1387544,15.3148157 25.900056,19.7065644 24.3235309,19.7065644 C22.7470057,19.7065644 21.5083074,15.3148157 21.5083074,9.90958665 C21.5083074,4.50435757 22.7470057,0.112608939 24.3235309,0.112608939 C25.900056,0.112608939 27.1387544,4.50435757 27.1387544,9.90958665 Z" fill="#212B53"></path>
                        <polygon fill="#FFFFFF" points="21.3956985 6.3061006 23.6478772 7.77001681 23.6478772 10.9230671 21.2830895 13.062637 20.4948269 8.8961062"></polygon>
                        <path d="M21.5083074,9.90958665 C21.5083074,5.29262014 22.4091789,1.46391621 23.5352683,0.450435757 C23.5352683,0.450435757 23.5352683,0.450435757 23.5352683,0.450435757 C14.3013353,7.09436317 3.49087712,8.10784363 3.49087712,8.10784363 L3.49087712,15.0895979 C3.49087712,15.0895979 18.1300392,14.3013353 23.5352683,19.5939554 C23.5352683,19.5939554 23.5352683,19.5939554 23.5352683,19.5939554 C22.4091789,18.3552571 21.5083074,14.5265532 21.5083074,9.90958665 Z" fill="#F7A605"></path>
                        <path d="M23.8730951,9.34654196 C23.8730951,10.2474135 23.7604862,10.9230671 23.5352683,10.9230671 C23.4226594,10.9230671 23.1974415,10.2474135 23.1974415,9.34654196 C23.1974415,8.44567044 23.3100504,7.77001681 23.5352683,7.77001681 C23.7604862,7.77001681 23.8730951,8.44567044 23.8730951,9.34654196 Z" fill="#FFD247"></path>
                    </g>
                    <path d="M55.0657713,30.7422404 C54.8405534,30.8548494 54.0522908,31.3052851 51.4622852,31.3052851 C49.5479333,31.3052851 48.7596707,29.0531063 48.4218439,27.814408 C48.3092349,27.3639722 48.196626,26.8009275 48.7596707,26.4631007 L51.8001121,26.012665 L55.0657713,30.7422404 Z" id="Shape" fill="#F8B68F"></path>
                </g>
                <g id="Group" transform="translate(459.444472, 369.231231)">
                    <polygon id="Shape" fill="#F8B68F" points="15.3148157 37.7374751 6.53131848 54.1783802 16.2156873 53.7279445 16.8913409 37.1744304"></polygon>
                    <polygon id="Shape" fill="#FFFFFF" points="29.0531063 30.417894 20.9452627 30.417894 17.5669945 82.6684419 32.0935477 82.6684419"></polygon>
                    <g transform="translate(25.900056, 181.426482)" id="Shape">
                        <path d="M18.0174303,2.36478772 C18.0174303,2.36478772 20.0443912,3.94131287 19.5939554,5.96827378 C19.2561286,7.99523469 18.6930839,12.6122012 18.6930839,12.6122012 L16.666123,12.6122012 L16.7787319,8.22045256 C16.7787319,7.88262575 12.3869833,12.6122012 11.5987207,12.6122012 L0.675653635,12.6122012 C0.675653635,12.6122012 -7.12763182e-14,9.68436877 6.3061006,8.67088832 C12.7248101,7.77001681 18.0174303,2.36478772 18.0174303,2.36478772 Z" fill="#043C5E"></path>
                        <path d="M13.2878548,0.337826818 L11.8239386,4.16653075 C11.4861118,5.18001121 10.8104582,6.08088272 9.79697771,6.75653635 C8.78349726,7.43218999 7.09436317,8.3330615 4.72957545,9.00871514 C7.65740787,11.4861118 12.3869833,8.8961062 15.0895979,6.98175423 C16.4409051,6.08088272 17.3417766,4.72957545 17.6796035,3.1530503 L18.2426482,0.225217878 L13.2878548,0.225217878 L13.2878548,0.337826818 Z" fill="#F8B68F"></path>
                    </g>
                    <g transform="translate(5.630447, 181.426482)" id="Shape">
                        <path d="M17.5669945,2.36478772 C17.5669945,2.36478772 19.5939554,3.94131287 19.1435197,5.96827378 C18.8056929,7.99523469 18.2426482,12.6122012 18.2426482,12.6122012 L16.2156873,12.6122012 L16.3282962,8.22045256 C16.3282962,7.88262575 11.9365476,12.6122012 11.148285,12.6122012 L0.225217878,12.6122012 C0.225217878,12.6122012 -0.450435757,9.68436877 5.85566484,8.67088832 C12.2743744,7.77001681 17.5669945,2.36478772 17.5669945,2.36478772 Z" fill="#043C5E"></path>
                        <path d="M12.8374191,0.337826818 L11.3735029,4.16653075 C11.035676,5.18001121 10.3600224,6.08088272 9.34654196,6.75653635 C8.3330615,7.43218999 6.64392742,8.3330615 4.27913969,9.00871514 C7.20697211,11.4861118 11.9365476,8.8961062 14.6391621,6.98175423 C15.9904694,6.08088272 16.8913409,4.72957545 17.2291677,3.1530503 L17.7922124,0.225217878 L12.8374191,0.225217878 L12.8374191,0.337826818 Z" fill="#F8B68F"></path>
                    </g>
                    <path d="M35.246598,82.6684419 C35.246598,82.6684419 36.5979053,90.4384587 28.8278884,128.838107 C35.133989,148.882498 24.9991845,182.327353 24.9991845,182.327353 L17.5669945,182.327353 L12.4995923,82.6684419 L35.246598,82.6684419 Z" id="Shape" fill="#00666A"></path>
                    <path d="M21.8461342,30.417894 L19.2561286,93.8167268 L10.5852403,90.1006318 C10.5852403,90.1006318 14.5265532,78.1640843 14.0761174,61.7231792 C15.4274247,49.7866316 8.67088832,56.0927322 16.8913409,33.0078997 C20.0443912,30.417894 21.8461342,30.417894 21.8461342,30.417894 Z" id="Shape" fill="#FFD247"></path>
                    <path d="M20.7200448,23.8865756 L21.7335253,29.1791957 C22.183961,31.5439834 24.8865756,32.6700728 26.9135365,31.4313745 L30.5170225,29.1791957 L24.098313,14.7652515 L20.7200448,23.8865756 Z" id="Shape" fill="#F4A086"></path>
                    <path d="M42.3409612,82.6684419 C42.3409612,82.6684419 52.0253299,90.4384587 44.2553131,128.838107 C50.5614137,148.882498 45.0435757,182.327353 45.0435757,182.327353 L38.2870393,182.327353 L19.7065644,82.6684419 L42.3409612,82.6684419 Z" id="Shape" fill="#01898C"></path>
                    <path d="M29.0531063,25.012665 C29.0531063,25.012665 37.16095,29.6296315 39.7509556,33.6835533 C42.1157433,37.6248662 43.0166148,46.5209724 43.2418327,54.4035981 C43.5796595,65.2140563 48.7596707,93.8167268 48.7596707,93.8167268 L26.9135365,93.8167268 L26.3504918,31.7692013 L29.0531063,25.012665 Z" id="Shape" fill="#FFD247"></path>
                    <path d="M12.950028,7.8961062 C17.9048213,6.65740787 22.6343968,11.7248101 22.6343968,11.7248101 L26.3504918,31.7692013 L32.0935477,22.9857041 C32.0935477,22.9857041 32.4313745,11.0491565 26.9135365,3.05392181 C22.9722236,-1.78826257 15.3148157,-0.324346365 11.4861118,4.29262014 C9.57175984,6.54479893 9.23393302,9.69784923 9.4591509,12.6256816 C9.68436877,16.4543856 10.8104582,38.7509556 10.8104582,38.7509556 L22.183961,30.3052851 C22.183961,30.3052851 21.9587432,28.0531063 20.8326538,23.8865756 C18.8056929,16.7922124 9.57175984,8.68436877 12.950028,7.8961062 Z" id="Shape" fill="#212B53"></path>
                    <path d="M24.098313,11.3869833 C23.4226594,11.0491565 22.4091789,11.6122012 21.9587432,12.5130727 C21.5083074,13.4139442 21.7335253,14.4274247 22.5217878,14.6526426 C23.1974415,14.9904694 24.2109219,14.4274247 24.6613577,13.5265532 C25.1117935,12.6256816 24.8865756,11.6122012 24.098313,11.3869833 Z" id="Shape" fill="#F8B68F"></path>
                    <path d="M18.8056929,24.7874471 C17.9048213,25.1252739 17.0039498,25.3504918 16.4409051,25.1252739 C12.1617654,21.9722236 10.5852403,9.58524029 10.5852403,9.58524029 L13.9635085,5.98175423 L20.7200448,7.44567044 L24.098313,14.8778604 C24.9991845,16.9048213 24.8865756,19.1570001 23.8730951,21.0713521 C22.5217878,22.7604862 20.8326538,24.1117935 18.8056929,24.7874471 Z" id="Shape" fill="#F8B68F"></path>
                    <path d="M11.8239386,7.55827938 C12.1617654,11.2743744 22.6343968,11.6122012 22.6343968,11.6122012 L23.1974415,6.54479893 L17.1165588,3.16653075 L12.2743744,6.09436317 C12.2743744,6.09436317 11.7113297,6.99523469 11.8239386,7.55827938 Z" id="Shape" fill="#212B53"></path>
                    <path d="M12.0491565,8.34654196 C12.3869833,9.69784923 10.9230671,12.1752459 10.9230671,12.1752459 L10.1348045,10.7113297 L10.1348045,9.36002241 L10.9230671,8.34654196 C10.9230671,8.34654196 11.7113297,6.88262575 12.0491565,8.34654196 Z" id="Shape" fill="#212B53"></path>
                    <path d="M37.4987768,33.6835533 C48.0840171,34.9222516 43.1292237,62.1736149 40.764436,73.4345088 C40.2013913,76.2497323 37.3861678,77.8262575 34.6835533,77.0379949 C25.4496203,74.1101625 12.0491565,62.061006 12.0491565,62.061006 L14.1887263,59.3583914 L32.0935477,63.5249222 C32.0935477,63.6375311 25.2244024,32.332246 37.4987768,33.6835533 Z" id="Shape" fill="#F8B68F"></path>
                    <path d="M16.3282962,53.0522908 L19.8191733,74.4479893 C19.9317822,75.1236429 19.4813465,75.5740787 18.8056929,75.5740787 L5.06740227,75.5740787 C4.61696651,75.5740787 4.16653075,75.2362519 4.05392181,74.6732072 L0.675653635,53.2775087 C0.563044696,52.714464 1.01348045,52.1514193 1.68913409,52.1514193 L15.3148157,52.1514193 C15.8778604,52.1514193 16.2156873,52.4892461 16.3282962,53.0522908 Z" id="Shape" fill="#63C1C5"></path>
                    <path d="M1.12608939,62.5114417 C1.01348045,61.7231792 1.12608939,61.2727434 1.35130727,59.6962183 C1.68913409,57.6692573 1.57652515,54.516207 3.60348606,56.0927322 C5.51783802,58.5701289 5.7430559,61.1601345 5.7430559,61.1601345 C6.19349166,62.6240507 5.29262014,64.6510116 4.39174863,65.664492 L2.92783242,68.7049334 C3.1530503,68.8175423 0.675653635,65.8897099 1.12608939,62.5114417 Z" id="Shape" fill="#F8B68F"></path>
                    <path d="M10.1348045,60.4844808 C10.1348045,61.0475255 9.68436877,61.4979613 9.12132408,61.4979613 C8.55827938,61.4979613 8.10784363,61.0475255 8.10784363,60.4844808 C8.10784363,59.9214361 8.55827938,59.4710004 9.12132408,59.4710004 C9.57175984,59.4710004 10.1348045,59.9214361 10.1348045,60.4844808 Z" id="Shape" fill="url(#linearGradient-6)"></path>
                </g>
                <g id="Group" transform="translate(374.987768, 368.231231)">
                    <path d="M58.5566484,20.8326538 C57.8809948,22.29657 57.7683858,23.8730951 58.3314305,25.3370113 L59.1196931,31.1926762 L60.1331736,31.8683298 L63.8492686,33.444855 C63.3988328,32.3187656 63.8492686,31.0800672 63.8492686,31.0800672 L65.5384026,24.9991845 C65.5384026,24.9991845 68.1284082,14.751771 61.146654,15.2022068 C61.146654,6.86914529 58.8944752,8.22045256 58.8944752,8.22045256 L58.7818663,15.4274247 L58.5566484,20.8326538 Z" id="Shape" fill="#F8B68F"></path>
                    <path d="M41.2148718,41.2148718 C41.2148718,41.2148718 46.0570562,59.7953467 50.2235869,60.1331736 C54.3901177,60.4710004 58.6692573,30.6296315 58.6692573,30.6296315 L64.2997043,31.3052851 C64.2997043,31.3052851 66.4392742,74.209291 53.827073,74.8849446 C41.1022628,75.6732072 39.5257377,66.2140563 39.5257377,66.2140563 L41.2148718,41.2148718 Z" id="Shape" fill="#FFDB71"></path>
                    <path d="M40.6518271,92.0015034 L7.43218999,92.0015034 C7.43218999,92.0015034 7.43218999,67.7905814 7.43218999,41.6653075 C16.8913409,27.2513633 28.7152795,31.1926762 28.7152795,31.1926762 C28.7152795,31.1926762 39.4131287,31.417894 41.1022628,41.2148718 C41.2148718,48.3092349 40.6518271,92.0015034 40.6518271,92.0015034 Z" id="Shape" fill="#F7A605"></path>
                    <path d="M24.8865756,24.4361398 L24.4361398,31.530503 L24.6613577,31.7557209 C27.0261454,34.0078997 30.6296315,34.0078997 33.1070281,31.8683298 L33.2196371,26.4631007 L24.8865756,24.4361398 Z" id="Shape" fill="#F4A086"></path>
                    <g transform="translate(14.639162, 0.000000)" id="Shape">
                        <path d="M7.65740787,9.57175984 L8.22045256,21.3956985 C9.34654196,21.3956985 10.1348045,22.6343968 9.90958665,23.7604862 C10.0221956,23.9857041 10.1348045,24.3235309 10.1348045,24.6613577 C12.1617654,26.1252739 15.8778604,28.0396259 20.6074359,27.1387544 C28.0396259,25.6748381 23.5352683,11.2608939 23.5352683,11.2608939 L7.65740787,9.57175984 Z" fill="#F8B68F"></path>
                        <path d="M3.94131287,18.3552571 C3.94131287,17.4543856 2.70261454,15.6526426 2.02696091,15.0895979 C-2.13956985,11.4861118 1.57652515,8.78349726 2.92783242,7.88262575 C4.39174863,6.98175423 4.16653075,4.27913969 6.08088272,2.70261454 C9.00871514,0.450435757 11.8239386,2.81522348 13.7382906,2.47739666 C15.6526426,2.13956985 16.7787319,-0.337826818 19.4813465,1.01348045 C22.183961,2.36478772 21.9587432,4.50435757 22.7470057,5.40522908 C23.6478772,6.3061006 25.2244024,3.82870393 27.9270169,6.64392742 C31.9809387,10.9230671 23.9857041,12.8374191 23.9857041,12.8374191 C23.9857041,12.8374191 19.5939554,14.6391621 13.8508995,12.3869833 C13.062637,12.0491565 12.1617654,12.2743744 11.5987207,12.950028 C10.2474135,14.86438 10.2474135,24.6613577 10.2474135,24.6613577 L8.3330615,23.0848325 C8.3330615,23.0848325 4.16653075,22.4091789 3.94131287,18.3552571 Z" fill="#212B53"></path>
                        <path d="M8.44567044,19.3687375 C8.78349726,20.2696091 9.90958665,20.7200448 10.8104582,20.382218 C11.7113297,20.0443912 12.1617654,18.9183018 11.8239386,18.0174303 C11.4861118,17.1165588 10.3600224,16.666123 9.4591509,17.0039498 C8.44567044,17.3417766 7.99523469,18.467866 8.44567044,19.3687375 Z" fill="#F8B68F"></path>
                    </g>
                    <g transform="translate(24.773967, 181.300392)" id="Shape">
                        <path d="M8.44567044,5.7430559 C8.44567044,5.7430559 10.3600224,8.3330615 19.1435197,10.5852403 C21.0578716,11.035676 23.1974415,11.3735029 23.1974415,14.6391621 C19.0309107,14.6391621 14.5265532,14.6391621 14.5265532,14.6391621 L5.63044696,13.062637 L5.63044696,14.6391621 L0.788262575,14.6391621 C0.788262575,14.6391621 -0.563044696,6.75653635 2.25217878,5.7430559 C4.72957545,5.7430559 8.44567044,5.7430559 8.44567044,5.7430559 Z" fill="#212B53"></path>
                        <path d="M8.8961062,0.112608939 L8.44567044,5.7430559 C6.64392742,6.98175423 4.39174863,6.98175423 2.5900056,5.96827378 L2.25217878,5.7430559 L2.25217878,0.112608939 L8.8961062,0.112608939 Z" fill="#F8B68F"></path>
                    </g>
                    <g transform="translate(0.000000, 181.300392)" id="Shape">
                        <path d="M8.44567044,5.7430559 C8.44567044,5.7430559 10.3600224,8.3330615 19.1435197,10.5852403 C21.0578716,11.035676 23.1974415,11.3735029 23.1974415,14.6391621 C19.0309107,14.6391621 14.5265532,14.6391621 14.5265532,14.6391621 L5.63044696,13.062637 L5.63044696,14.6391621 L0.788262575,14.6391621 C0.788262575,14.6391621 -0.563044696,6.75653635 2.25217878,5.7430559 C4.84218439,5.7430559 8.44567044,5.7430559 8.44567044,5.7430559 Z" fill="#212B53"></path>
                        <path d="M8.8961062,0.112608939 L8.44567044,5.7430559 C6.64392742,6.98175423 4.39174863,6.98175423 2.5900056,5.96827378 L2.25217878,5.7430559 L2.25217878,0.112608939 L8.8961062,0.112608939 Z" fill="#F8B68F"></path>
                    </g>
                    <path d="M7.54479893,41.6653075 C7.54479893,41.6653075 -2.36478772,64.6375311 10.2474135,76.3488608 C22.9722236,88.0601905 40.2013913,86.0332296 40.2013913,86.0332296 L40.2013913,79.3893022 C40.2013913,79.3893022 24.6613577,78.0379949 19.5939554,67.6779725 C14.6391621,57.3179501 21.6209163,48.3092349 21.6209163,48.3092349" id="Shape" fill="#F7A605"></path>
                    <path d="M39.1879109,85.1323581 L47.1831455,85.244967 C50.4488048,85.0197491 52.5883746,80.2901737 53.0388104,76.6866876 C53.1514193,76.1236429 52.5883746,75.6732072 52.0253299,75.898425 C49.3227154,76.7992966 42.4535701,79.2766932 40.6518271,80.4027826 L39.1879109,85.1323581 Z" id="Shape" fill="#F8B68F"></path>
                    <path d="M40.6518271,92.0015034 C50.5614137,119.92852 35.133989,181.750828 35.133989,181.750828 L26.3504918,181.750828 C26.3504918,181.750828 30.5170225,94.0284643 19.0309107,92.0015034 C36.4852963,92.0015034 33.2196371,92.0015034 40.6518271,92.0015034 Z" id="Shape" fill="#00666A"></path>
                    <path d="M17.9048213,60.8088272 C18.0174303,62.948397 18.467866,65.3131848 19.7065644,67.7905814 C24.6613577,78.1506038 41.1022628,79.61452 41.1022628,79.61452 L41.1022628,86.2584475 C41.1022628,86.2584475 23.0848325,88.1727994 10.3600224,76.3488608 C5.7430559,72.0697211 4.16653075,66.3266652 3.94131287,60.8088272 L17.9048213,60.8088272 Z" id="Shape" fill="#FFDB71"></path>
                    <path d="M17.9048213,61.8223076 C17.5669945,61.7096987 17.2291677,61.4844808 16.8913409,61.3718719 C16.3282962,53.714464 20.8326538,47.8587992 20.8326538,47.8587992 L21.6209163,48.5344528 C21.6209163,48.4218439 17.1165588,54.2775087 17.9048213,61.8223076 Z" id="Shape" fill="#F18813"></path>
                    <path d="M60.1331736,21.7335253 C60.1331736,21.7335253 58.3314305,21.1704806 57.9936037,17.7922124 C57.6557769,14.4139442 56.0792517,15.5400336 56.0792517,15.5400336 C56.0792517,15.5400336 56.8675143,28.7152795 59.0070842,29.1657153 C61.146654,29.72876 60.1331736,21.7335253 60.1331736,21.7335253 Z" id="Shape" fill="#F8B68F"></path>
                    <path d="M30.9674583,92.0015034 C33.6700728,126.234621 11.8239386,181.750828 11.8239386,181.750828 L1.35130727,181.750828 C1.35130727,181.750828 8.44567044,146.279012 8.55827938,112.946766 C8.55827938,105.739794 8.3330615,98.6454308 7.54479893,92.0015034 C14.751771,92.0015034 24.3235309,92.0015034 30.9674583,92.0015034 Z" id="Shape" fill="#01898C"></path>
                </g>
                <g id="Group" transform="translate(529.262014, 364.852963)">
                    <g transform="translate(39.287039, 185.804750)" id="Shape">
                        <path d="M12.062637,4.39174863 C12.062637,4.39174863 9.24741347,6.98175423 2.94131287,8.55827938 C1.5900056,8.8961062 0.0134804532,8.44567044 0.0134804532,10.6978492 C2.94131287,10.6978492 7.67088832,10.6978492 7.67088832,10.6978492 L14.0895979,9.57175984 L14.0895979,10.6978492 L17.580475,10.6978492 C17.580475,10.6978492 18.5939554,5.06740227 16.5669945,4.27913969 C14.6526426,4.39174863 12.062637,4.39174863 12.062637,4.39174863 Z" fill="#212B53"></path>
                        <path d="M12.4004638,0.337826818 L12.062637,4.39174863 C13.3013353,5.29262014 14.9904694,5.29262014 16.3417766,4.50435757 L16.5669945,4.39174863 L18.0309107,0.337826818 L12.4004638,0.337826818 Z" fill="#F8B68F"></path>
                    </g>
                    <g transform="translate(69.817542, 185.804750)" id="Shape">
                        <path d="M12.3869833,4.39174863 C12.3869833,4.39174863 9.57175984,6.98175423 3.26565924,8.55827938 C1.91435197,8.8961062 0.337826818,8.44567044 0.337826818,10.6978492 C3.26565924,10.6978492 7.99523469,10.6978492 7.99523469,10.6978492 L14.4139442,9.57175984 L14.4139442,10.6978492 L17.9048213,10.6978492 C17.9048213,10.6978492 18.9183018,5.06740227 16.8913409,4.27913969 C14.9769889,4.39174863 12.3869833,4.39174863 12.3869833,4.39174863 Z" fill="#212B53"></path>
                        <path d="M12.7248101,0.337826818 L12.3869833,4.39174863 C13.6256816,5.29262014 15.3148157,5.29262014 16.666123,4.50435757 L16.8913409,4.39174863 L18.3552571,0.337826818 L12.7248101,0.337826818 Z" fill="#F8B68F"></path>
                    </g>
                    <polygon id="Shape" fill="#212B53" points="63.6240507 84.2314866 54.7279445 84.2314866 51.6875031 187.043448 57.6557769 187.043448 75.2227714 103.375006"></polygon>
                    <polygon id="Shape" fill="#043C5E" points="60.6962183 84.2314866 81.528872 187.043448 88.0601905 187.043448 85.3575759 84.2314866"></polygon>
                    <g transform="translate(69.817542, 101.221956)">
                        <path d="M8.8961062,5.64392742 L10.9230671,5.53131848 C10.9230671,5.53131848 10.8104582,4.18001121 11.8239386,3.05392181 C12.6122012,2.26565924 13.8508995,1.92783242 15.5400336,1.92783242 C17.3417766,1.92783242 18.6930839,2.37826818 19.4813465,3.05392181 C20.2696091,3.84218439 20.1570001,4.7430559 20.1570001,4.7430559 L22.183961,4.85566484 C22.183961,4.63044696 22.29657,3.16653075 20.9452627,1.81522348 C19.8191733,0.576525149 17.9048213,0.0134804532 15.5400336,0.0134804532 C13.2878548,0.0134804532 11.5987207,0.576525149 10.3600224,1.81522348 C8.78349726,3.39174863 8.8961062,5.53131848 8.8961062,5.64392742 Z" id="Shape" fill="#212B53"></path>
                        <g transform="translate(0.000000, 3.504358)">
                            <rect id="Rectangle-path" fill="#212B53" transform="translate(15.278218, 13.942676) rotate(-180.000000) translate(-15.278218, -13.942676) " x="0.413837852" y="4.37091598" width="29.72876" height="19.1435197"></rect>
                            <g id="Shape">
                                <path d="M14.1887263,17.3417766 C14.1887263,18.467866 14.751771,18.6930839 15.4274247,18.6930839 C16.1030783,18.6930839 16.666123,18.580475 16.666123,17.3417766 L16.666123,13.2878548 C25.2244024,12.3869833 30.0665868,10.9230671 30.0665868,10.9230671 L30.0665868,11.4861118 L30.0665868,25.900056 C30.0665868,27.2513633 29.5035421,28.3774527 28.7152795,28.3774527 L1.68913409,28.3774527 C0.900871514,28.3774527 0.337826818,27.2513633 0.337826818,25.900056 L0.337826818,10.9230671 C6.53131848,12.3869833 6.98175423,12.3869833 14.0761174,13.2878548 L14.0761174,17.3417766 L14.1887263,17.3417766 Z" fill="#FFDB71"></path>
                                <path d="M6.41870954,12.1617654 C7.77001681,14.86438 9.23393302,17.4543856 11.035676,19.9317822 C13.1752459,22.8596147 15.6526426,25.6748381 18.1300392,28.2648437 L1.68913409,28.2648437 C0.900871514,28.2648437 0.337826818,27.1387544 0.337826818,25.7874471 L0.337826818,10.8104582 C3.26565924,11.5987207 4.84218439,11.9365476 6.41870954,12.1617654 Z" fill="#F7A605"></path>
                                <path d="M1.80174303,0.337826818 L28.8278884,0.337826818 C29.616151,0.337826818 30.1791957,1.46391621 30.1791957,2.81522348 L30.1791957,10.1348045 C25.4496203,11.7113297 20.8326538,12.2743744 16.7787319,12.3869833 L16.7787319,11.3735029 C16.7787319,10.2474135 16.2156873,10.0221956 15.5400336,10.0221956 C14.86438,10.0221956 14.3013353,10.1348045 14.3013353,11.3735029 L14.3013353,12.3869833 C6.19349166,12.1617654 0.563044696,10.1348045 0.563044696,10.1348045 L0.563044696,2.81522348 C0.450435757,1.46391621 1.01348045,0.337826818 1.80174303,0.337826818 Z" fill="#63C1C5"></path>
                            </g>
                        </g>
                        <g transform="translate(13.513073, 15.891341)" fill="#FFFFFF" id="Shape">
                            <path d="M0.337826818,3.1530503 L0.337826818,1.91435197 C0.337826818,1.57652515 0.563044696,1.35130727 0.900871514,1.35130727 L3.04044136,1.35130727 C3.37826818,1.35130727 3.60348606,1.57652515 3.60348606,1.91435197 L3.60348606,3.1530503 C3.60348606,3.49087712 3.37826818,3.716095 3.04044136,3.716095 L0.900871514,3.716095 C0.563044696,3.716095 0.337826818,3.49087712 0.337826818,3.1530503 Z M0.900871514,1.57652515 C0.675653635,1.57652515 0.563044696,1.80174303 0.563044696,1.91435197 L0.563044696,3.1530503 C0.563044696,3.37826818 0.788262575,3.49087712 0.900871514,3.49087712 L3.04044136,3.49087712 C3.26565924,3.49087712 3.37826818,3.26565924 3.37826818,3.1530503 L3.37826818,1.91435197 C3.37826818,1.68913409 3.1530503,1.57652515 3.04044136,1.57652515 L0.900871514,1.57652515 Z"></path>
                            <path d="M1.80174303,2.47739666 C1.80174303,2.5900056 1.91435197,2.5900056 1.91435197,2.5900056 C2.02696091,2.5900056 2.02696091,2.47739666 2.02696091,2.47739666 L2.02696091,0.675653635 C2.02696091,0.563044696 1.91435197,0.563044696 1.91435197,0.563044696 C1.80174303,0.563044696 1.80174303,0.675653635 1.80174303,0.675653635 L1.80174303,2.47739666 Z"></path>
                        </g>
                    </g>
                    <g transform="translate(0.000000, 66.439274)" fill="#F8B68F" id="Shape">
                        <path d="M12.0491565,2.5900056 C11.7113297,2.81522348 10.5852403,3.60348606 7.88262575,3.82870393 C5.40522908,4.05392181 0.112608939,2.92783242 1.12608939,5.40522908 C3.49087712,6.64392742 6.08088272,8.44567044 6.08088272,8.44567044 C7.54479893,9.12132408 10.2474135,8.44567044 11.8239386,7.65740787 L16.4409051,4.84218439 C16.4409051,4.84218439 16.8913409,2.25217878 16.8913409,2.13956985 L15.8778604,1.68913409 C14.6391621,2.13956985 13.4004638,2.47739666 12.0491565,2.5900056 Z"></path>
                        <path d="M11.2608939,3.60348606 C11.2608939,3.60348606 11.148285,3.716095 11.035676,3.94131287 C11.3735029,4.05392181 11.7113297,4.16653075 11.9365476,4.39174863 C13.1752459,4.39174863 14.5265532,4.50435757 15.7652515,4.50435757 C15.6526426,3.716095 15.5400336,2.70261454 15.5400336,2.5900056 L7.09436317,0.563044696 C7.09436317,0.563044696 6.41870954,1.46391621 7.99523469,2.36478772 C9.57175984,3.49087712 11.2608939,3.60348606 11.2608939,3.60348606 Z"></path>
                    </g>
                    <path d="M84.0062687,96.2806431 L81.1910452,102.361526 C81.1910452,102.361526 81.7540899,105.739794 82.9927882,107.091101 C83.330615,107.541537 84.0062687,107.541537 84.4567044,107.428928 C85.5827938,106.978492 88.2854084,105.739794 88.7358441,105.176749 C88.961062,104.838922 88.961062,104.501096 88.8484531,104.05066 L88.0601905,101.348045 L87.9475815,95.0419447 L84.0062687,96.2806431 Z" id="Shape" fill="#F8B68F"></path>
                    <g transform="translate(59.682738, 0.000000)" id="Shape">
                        <polygon fill="#F4A086" points="7.88262575 22.5217878 7.77001681 30.7422404 15.0895979 30.2918047 15.5400336 17.5669945"></polygon>
                        <path d="M6.64392742,23.1974415 C5.63044696,23.1974415 4.61696651,22.9722236 4.16653075,22.6343968 C1.23869833,18.3552571 4.61696651,6.75653635 4.61696651,6.75653635 L9.34654196,4.72957545 L15.3148157,8.44567044 L15.6526426,16.2156873 C15.7652515,18.2426482 14.751771,20.2696091 12.950028,21.5083074 C11.035676,22.7470057 8.8961062,23.3100504 6.64392742,23.1974415 Z" fill="#F8B68F"></path>
                        <path d="M13.6256816,12.950028 C13.2878548,11.5987207 14.1887263,8.67088832 12.8374191,8.8961062 C11.8239386,9.00871514 8.55827938,9.23393302 7.43218999,9.23393302 C4.72957545,9.23393302 0,8.22045256 0,4.16653075 C0,2.13956985 1.23869833,1.12608939 2.47739666,0.563044696 C3.716095,1.44328993e-15 5.06740227,1.46391621 6.3061006,1.91435197 C9.23393302,2.92783242 15.3148157,3.716095 16.7787319,3.49087712 C18.580475,3.1530503 20.382218,4.95479333 20.4948269,5.96827378 C20.8326538,8.3330615 19.2561286,11.9365476 18.0174303,14.1887263 C17.3417766,15.5400336 16.4409051,16.666123 15.3148157,17.6796035 L13.6256816,12.950028 Z" fill="#212B53"></path>
                        <path d="M17.0039498,13.1752459 C16.4409051,12.6122012 15.3148157,12.7248101 14.5265532,13.4004638 C13.7382906,14.0761174 13.6256816,14.9769889 14.1887263,15.5400336 C14.751771,16.1030783 15.8778604,15.9904694 16.666123,15.3148157 C17.4543856,14.751771 17.6796035,13.7382906 17.0039498,13.1752459 Z" fill="#F8B68F"></path>
                    </g>
                    <path d="M71.3940675,28.1522348 C74.7723357,28.1522348 77.5875591,28.8278884 79.9523469,29.9539778 C85.8080117,32.5439834 90.0871514,37.9492125 91.5510676,44.2553131 C93.9158553,54.1648998 97.7445593,77.5875591 88.8484531,98.194995 C86.2584475,98.4202129 82.8801793,98.194995 82.8801793,98.194995 L81.8666988,49.6605422 L82.5423525,84.3440955 L54.7279445,84.3440955 L54.7279445,61.9349166 C54.7279445,61.9349166 54.0522908,67.0023188 47.2957545,71.6192854 C40.5392181,76.2362519 15.4274247,73.1958105 15.4274247,73.1958105 L15.4274247,67.9031904 C15.4274247,67.9031904 37.4987768,63.2862239 41.1022628,60.5836093 C44.7057489,57.8809948 52.4757657,38.1744304 52.4757657,38.1744304 C54.9531624,33.332246 59.344911,29.8413689 64.6375311,28.7152795 C66.5518831,28.3774527 68.6914529,28.1522348 71.3940675,28.1522348 Z" id="Shape" fill="url(#linearGradient-7)"></path>
                    <polygon id="Shape" fill="#63C1C5" points="82.0919167 84.4567044 81.528872 51.1244584 82.2045256 51.0118495 82.8801793 84.4567044"></polygon>
                    <polygon id="Shape" fill="#FFFFFF" points="74.8849446 25.7874471 75.3353804 28.4900616 67.0023188 28.4900616 67.4527546 25.7874471"></polygon>
                </g>
                <g id="Group" transform="translate(0.000000, 368.231231)">
                    <polygon id="Shape" fill="#F4A086" points="51.8001121 32.6565924 49.3227154 45.2687936 42.7913969 33.8952907 46.0570562 28.6026706"></polygon>
                    <g id="Shape">
                        <g transform="translate(63.061006, 181.300392)">
                            <path d="M2.47739666,5.51783802 C2.47739666,5.51783802 -0.337826818,6.98175423 0.112608939,9.34654196 C0.563044696,11.7113297 1.23869833,15.5400336 1.23869833,15.5400336 L2.92783242,15.5400336 L3.04044136,12.7248101 C3.04044136,12.3869833 3.49087712,12.1617654 3.716095,12.3869833 L6.98175423,14.751771 C7.65740787,15.3148157 8.55827938,15.5400336 9.4591509,15.5400336 L22.5217878,15.5400336 C22.5217878,15.5400336 22.5217878,11.3735029 14.86438,10.2474135 C7.09436317,9.23393302 2.47739666,5.51783802 2.47739666,5.51783802 Z" fill="#212B53"></path>
                            <path d="M6.19349166,0.900871514 L7.88262575,5.7430559 C8.22045256,6.75653635 8.8961062,7.65740787 9.79697771,8.22045256 C10.8104582,8.8961062 12.3869833,9.68436877 14.751771,10.3600224 C11.9365476,12.8374191 7.31958105,10.3600224 4.72957545,8.55827938 C3.49087712,7.65740787 2.5900056,6.41870954 2.13956985,4.84218439 L1.12608939,0.900871514 L6.19349166,0.900871514 Z" fill="#F8B68F"></path>
                        </g>
                        <g transform="translate(0.000000, 177.922124)">
                            <path d="M5.7430559,5.18001121 C5.7430559,5.18001121 2.5900056,5.51783802 2.02696091,7.88262575 C1.46391621,10.2474135 0.675653635,14.0761174 0.675653635,14.0761174 L2.25217878,14.751771 L3.37826818,12.1617654 C3.49087712,11.8239386 3.94131287,11.8239386 4.16653075,12.1617654 L6.3061006,14.6391621 C6.75653635,15.4274247 9.4591509,18.6930839 10.2474135,19.0309107 L23.7604862,19.0309107 C23.7604862,19.0309107 23.3100504,15.6526426 15.3148157,14.4139442 C7.65740787,13.1752459 5.7430559,5.18001121 5.7430559,5.18001121 Z" fill="#212B53"></path>
                            <path d="M11.035676,2.36478772 L10.6978492,7.43218999 C10.5852403,8.55827938 10.9230671,9.57175984 11.4861118,10.4726313 C12.1617654,11.4861118 13.2878548,12.8374191 15.2022068,14.3013353 C11.5987207,15.4274247 8.3330615,11.4861118 6.64392742,8.78349726 C5.85566484,7.43218999 5.51783802,5.96827378 5.7430559,4.39174863 L6.3061006,0.337826818 L11.035676,2.36478772 Z" fill="#F8B68F"></path>
                        </g>
                        <path d="M55.2909892,68.6914529 C55.0657713,74.5471178 65.8762295,92.9023749 65.8762295,92.9023749 C65.8762295,92.9023749 56.7549054,100.559783 53.714464,100.559783 C51.0118495,93.0149838 49.0974975,88.961062 49.0974975,88.961062 C49.0974975,88.961062 55.516207,62.948397 55.2909892,68.6914529 Z" fill="#00666A"></path>
                        <path d="M54.8405534,32.9944192 C55.9666428,32.9944192 57.0927322,32.7692013 57.6557769,32.2061566 C61.0340451,26.8009275 57.2053411,12.2743744 57.2053411,12.2743744 L44.9309668,14.5265532 L44.5931399,24.2109219 C44.480531,26.8009275 45.6066204,29.2783242 47.6335813,30.9674583 C49.7731511,32.3187656 52.3631567,32.9944192 54.8405534,32.9944192 Z" fill="#F8B68F"></path>
                        <path d="M54.7279445,96.393252 C62.3853523,112.946766 62.7231792,144.927705 62.7231792,144.927705 L70.1553691,182.201264 L63.5114417,182.201264 C63.5114417,182.201264 40.9896539,134.7929 39.3005198,121.167219 C37.6113857,107.654146 43.1292237,96.9562967 43.1292237,96.9562967 L49.6605422,86.9341011 C49.6605422,87.04671 51.8001121,89.4114978 54.7279445,96.393252 Z" fill="#212B53"></path>
                        <path d="M46.282274,105.852403 C46.282274,105.852403 41.6653075,124.095051 29.5035421,145.378141 C21.2830895,159.341649 12.0491565,181.300392 12.0491565,181.300392 L5.85566484,178.822996 C5.85566484,178.822996 9.00871514,157.765124 17.5669945,140.08552 C19.3687375,136.482034 20.2696091,132.428113 20.1570001,128.4868 C20.0443912,109.230671 24.8865756,93.0149838 24.8865756,93.0149838 L46.282274,105.852403 Z" fill="#11375B"></path>
                        <path d="M42.7913969,33.8952907 C42.7913969,33.8952907 53.3766372,49.0974975 56.4170786,56.4170786 C57.0927322,57.9936037 57.2053411,59.6827378 56.8675143,61.2592629 C51.6875031,85.1323581 49.6605422,103.712833 48.8722796,106.753274 C34.2331175,106.302839 23.4226594,90.9880229 23.4226594,90.9880229 C23.4226594,90.9880229 25.6748381,86.3710564 28.0396259,81.0784363 C31.3052851,73.9840731 33.1070281,66.4392742 33.6700728,58.6692573 C34.3457265,48.3092349 36.1474695,40.4266092 36.1474695,40.4266092 L42.7913969,33.8952907 Z" fill="#01898C"></path>
                        <path d="M44.5931399,7.43218999 C44.5931399,7.43218999 43.5796595,2.70261454 40.8770449,1.35130727 C37.4987768,-0.337826818 29.72876,0.112608939 27.4765812,12.2743744 C25.2244024,24.4361398 31.417894,23.0848325 31.530503,28.0396259 C31.7557209,32.8818103 19.7065644,34.6835533 19.0309107,44.3679221 C18.2426482,54.1648998 21.0578716,56.0792517 21.0578716,56.0792517 C21.0578716,56.0792517 24.2109219,62.3853523 30.0665868,60.0205646 C31.8683298,57.8809948 31.7557209,55.1783802 31.9809387,53.1514193 C32.3187656,51.1244584 33.444855,49.2101064 35.133989,48.0840171 C37.4987768,46.394883 41.4400896,43.6922684 42.1157433,39.6383466 C42.7913969,35.8096427 40.9896539,31.417894 39.4131287,28.4900616 C37.7239946,25.3370113 36.8231231,21.9587432 36.8231231,18.3552571 C36.8231231,15.2022068 36.9357321,11.7113297 37.4987768,10.2474135 C38.850084,7.20697211 40.6518271,9.00871514 40.6518271,9.00871514 L44.5931399,7.43218999 Z" fill="#212B53"></path>
                        <path d="M57.2053411,12.3869833 C57.2053411,12.3869833 54.1648998,4.50435757 44.5931399,8.44567044 C43.4670505,8.8961062 43.4670505,8.8961062 41.4400896,10.4726313 C34.7961622,20.382218 44.5931399,26.4631007 44.5931399,26.4631007 L48.4218439,19.0309107 C48.4218439,19.0309107 52.0253299,19.3687375 54.2775087,17.4543856 C56.5296875,15.4274247 57.2053411,12.3869833 57.2053411,12.3869833 Z" fill="#212B53"></path>
                        <path d="M45.8318383,18.580475 C46.5074919,17.9048213 47.7461902,18.0174303 48.6470618,18.8056929 C49.5479333,19.5939554 49.6605422,20.8326538 48.9848886,21.5083074 C48.3092349,22.183961 47.0705366,22.0713521 46.1696651,21.2830895 C45.3814025,20.382218 45.1561846,19.1435197 45.8318383,18.580475 Z" fill="#F8B68F"></path>
                        <path d="M46.0570562,7.88262575 L45.3814025,7.09436317 C44.9309668,6.53131848 44.0300952,6.41870954 43.4670505,6.86914529 L41.3274807,8.3330615 C40.8770449,8.67088832 40.764436,9.34654196 40.9896539,9.79697771 L41.3274807,10.3600224 L46.0570562,7.88262575 Z" fill="#FFFFFF"></path>
                        <path d="M88.7358441,74.096682 L69.9301513,89.2988888 C69.4797155,89.6367156 68.9166708,89.5241067 68.578844,89.1862799 L60.1331736,78.1506038 C59.7953467,77.7001681 59.9079557,77.1371234 60.3583914,76.7992966 L78.7136485,62.3853523 C79.1640843,62.0475255 79.727129,62.1601345 80.0649558,62.4979613 L88.961062,72.7453748 C89.1862799,73.0832016 89.0736709,73.7588552 88.7358441,74.096682 Z" fill="#01898C"></path>
                        <path d="M87.159319,74.3218999 L70.380587,87.8349726 C70.0427602,88.1727994 69.4797155,88.0601905 69.1418887,87.7223637 L61.5970898,77.812777 C61.3718719,77.4749502 61.3718719,76.9119055 61.7096987,76.6866876 L78.0379949,63.8492686 C78.3758217,63.5114417 78.9388664,63.6240507 79.1640843,63.9618775 L87.04671,73.1958105 C87.6097547,73.4210284 87.4971458,73.9840731 87.159319,74.3218999 Z" fill="#FFFFFF"></path>
                        <path d="M48.0840171,53.827073 C48.0840171,53.827073 49.6605422,46.5074919 42.678788,45.2687936 C37.048341,44.2553131 36.2600784,51.0118495 36.2600784,51.0118495 C36.2600784,51.0118495 32.8818103,79.5019111 37.8366036,82.2045256 C42.678788,84.9071402 73.0832016,86.9341011 73.0832016,86.9341011 L76.6866876,85.6954028 C78.6010396,85.0197491 80.1775647,83.6684419 80.9658273,81.7540899 L81.9793078,79.5019111 L73.3084194,82.9927882 C73.3084194,82.9927882 44.5931399,77.7001681 44.5931399,74.3218999 C44.5931399,71.0562407 48.0840171,53.827073 48.0840171,53.827073 Z" fill="#F8B68F"></path>
                        <path d="M83.443224,67.9031904 C83.443224,68.0157993 83.5558329,68.2410172 83.7810508,68.2410172 C84.0062687,68.2410172 84.1188776,68.1284082 84.1188776,67.9031904 C84.1188776,67.6779725 84.0062687,67.5653635 83.7810508,67.5653635 C83.5558329,67.5653635 83.443224,67.6779725 83.443224,67.9031904 Z" fill="#FFFFFF"></path>
                    </g>
                </g>
                <rect id="Rectangle-path" fill="#FFFFFF" x="216.321772" y="109.005453" width="144.252051" height="23.3100504"></rect>
            </g>
        </g>
    </g>
</svg>