<svg xmlns="http://www.w3.org/2000/svg" width="18.751" height="23" viewBox="0 0 18.751 23">
  <g id="tagiconios" transform="translate(-2.125)">
    <g id="Group_89124" data-name="Group 89124">
      <path id="Path_15760" data-name="Path 15760" d="M15.926,0h.164a4.925,4.925,0,0,1-1.24,3.712A3.845,3.845,0,0,1,11.465,5.3a4.777,4.777,0,0,1,1.262-3.6A5.453,5.453,0,0,1,15.926,0Z" fill="#101010"/>
      <path id="Path_15761" data-name="Path 15761" d="M20.876,16.883v.045a13.382,13.382,0,0,1-1.915,3.691c-.73,1-1.625,2.357-3.223,2.357-1.381,0-2.3-.888-3.713-.912-1.5-.024-2.32.742-3.688.935H7.871a4.167,4.167,0,0,1-2.407-1.658,14.529,14.529,0,0,1-3.339-8.358V11.954A6.74,6.74,0,0,1,5.068,6.421,4.97,4.97,0,0,1,8.4,5.649a8.394,8.394,0,0,1,1.635.469,4.515,4.515,0,0,0,1.634.49,3.923,3.923,0,0,0,1.146-.35A7.053,7.053,0,0,1,16.509,5.6a5.117,5.117,0,0,1,3.76,2.242,4.825,4.825,0,0,0-2.451,4.787A4.942,4.942,0,0,0,20.876,16.883Z" fill="#101010"/>
    </g>
  </g>
</svg>
