<svg xmlns="http://www.w3.org/2000/svg" width="18.83" height="23" viewBox="0 0 18.83 23">
  <path id="tagiconandroid" d="M-11975.233-1512a1.425,1.425,0,0,1-1.411-1.436v-3.354h-1.883v3.354a1.426,1.426,0,0,1-1.413,1.436,1.425,1.425,0,0,1-1.411-1.436v-3.4a2.392,2.392,0,0,1-1.883-2.347v-7.667a.475.475,0,0,1,.471-.479h10.356a.475.475,0,0,1,.471.479v7.667a2.393,2.393,0,0,1-1.885,2.347v3.4A1.426,1.426,0,0,1-11975.233-1512Zm5.651-5.749a1.427,1.427,0,0,1-1.415-1.436v-6.709a1.428,1.428,0,0,1,1.415-1.437,1.426,1.426,0,0,1,1.411,1.437v6.709A1.425,1.425,0,0,1-11969.582-1517.749Zm-16.008,0a1.425,1.425,0,0,1-1.411-1.436v-6.709a1.426,1.426,0,0,1,1.411-1.437,1.428,1.428,0,0,1,1.415,1.437v6.709A1.427,1.427,0,0,1-11985.59-1517.749Zm13.183-10.539h-10.356a.475.475,0,0,1-.471-.479,5.054,5.054,0,0,1,2.228-4.243l-1.147-1.168a.48.48,0,0,1,0-.664.459.459,0,0,1,.339-.147.462.462,0,0,1,.325.133l1.337,1.362a6.326,6.326,0,0,1,2.567-.542,6.322,6.322,0,0,1,2.567.542l1.338-1.359a.063.063,0,0,1,.011-.013.465.465,0,0,1,.327-.134.467.467,0,0,1,.34.147.488.488,0,0,1-.014.678l-1.147,1.165a5.069,5.069,0,0,1,2.228,4.243A.475.475,0,0,1-11972.407-1528.288Zm-2.826-2.873a.475.475,0,0,0-.471.479.475.475,0,0,0,.471.479.475.475,0,0,0,.471-.479A.475.475,0,0,0-11975.233-1531.161Zm-4.707,0a.475.475,0,0,0-.471.479.475.475,0,0,0,.471.479.476.476,0,0,0,.474-.479A.476.476,0,0,0-11979.94-1531.161Z" transform="translate(11987.001 1535)" fill="#2dc100"/>
</svg>
